<svg xmlns="http://www.w3.org/2000/svg" viewBox="0 0 24 22"><path d="M23 8.4l-.9-.7c-.3-.2-.5-.6-.5-1v-5c0-.7-.6-1.2-1.2-1.2H3.7C3 .5 2.4 1 2.4 1.7v5.1c0 .4-.2.8-.5 1l-.9.6c-.3.3-.5.6-.5 1.1v10.8c0 .7.6 1.2 1.2 1.2h20.5c.7 0 1.2-.6 1.2-1.2V9.4c.1-.4-.1-.7-.4-1zm-2.4 2.1a1.1 1.1 0 0 1-.6 1l-7.4 4.8c-.4.3-1 .3-1.4 0l-7.4-4.8a1.1 1.1 0 0 1-.6-1V2.7c0-.7.6-1.2 1.2-1.2h14.8c.7 0 1.2.6 1.2 1.2v7.8z" stroke="#000" stroke-width=".387" stroke-miterlimit="10"/><path d="M15.6 6.2H8.4c-.6 0-1-.5-1-1 0-.6.5-1 1-1h7.2c.6 0 1 .5 1 1a.94.94 0 0 1-1 1zm0 4H8.4c-.6 0-1-.5-1-1 0-.6.5-1 1-1h7.2c.6 0 1 .5 1 1s-.4 1-1 1z"/></svg>