<?xml version="1.0" encoding="utf-8"?>
<!-- Generator: Adobe Illustrator 22.1.0, SVG Export Plug-In . SVG Version: 6.00 Build 0)  -->
<svg version="1.1" id="Layer_1" xmlns="http://www.w3.org/2000/svg" xmlns:xlink="http://www.w3.org/1999/xlink" x="0px" y="0px"
	 viewBox="0 0 24 22" style="enable-background:new 0 0 24 22;" xml:space="preserve">
<style type="text/css">
	.st0{stroke:#000000;stroke-width:0.3873;stroke-miterlimit:10;}
</style>
<title>Asset 3</title>
<g id="Layer_1-2">
	<path class="st0" d="M23,8.4l-0.9-0.7c-0.3-0.2-0.5-0.6-0.5-1v-5c0-0.7-0.6-1.2-1.2-1.2H3.7C3,0.5,2.4,1,2.4,1.7v5.1
		c0,0.4-0.2,0.8-0.5,1L1,8.4C0.7,8.7,0.5,9,0.5,9.5v10.8c0,0.7,0.6,1.2,1.2,1.2h20.5c0.7,0,1.2-0.6,1.2-1.2V9.4
		C23.5,9,23.3,8.7,23,8.4z M20.6,10.5c0,0.4-0.2,0.8-0.6,1l-7.4,4.8c-0.4,0.3-1,0.3-1.4,0l-7.4-4.8c-0.4-0.2-0.6-0.6-0.6-1V2.7
		c0-0.7,0.6-1.2,1.2-1.2h14.8c0.7,0,1.2,0.6,1.2,1.2V10.5z"/>
</g>
<g>
	<path d="M15.6,6.2H8.4c-0.6,0-1-0.5-1-1v0c0-0.6,0.5-1,1-1h7.2c0.6,0,1,0.5,1,1v0C16.6,5.8,16.2,6.2,15.6,6.2z"/>
	<path d="M15.6,10.2H8.4c-0.6,0-1-0.5-1-1v0c0-0.6,0.5-1,1-1h7.2c0.6,0,1,0.5,1,1v0C16.6,9.7,16.2,10.2,15.6,10.2z"/>
</g>
</svg>
