<svg xmlns="http://www.w3.org/2000/svg" viewBox="0 0 406.5 414.2"><defs><style>.cls-1{fill:#fff;}</style></defs><title>Asset 1</title><g id="Layer_2" data-name="Layer 2"><g id="Layer_1-2" data-name="Layer 1"><rect class="cls-1" x="48.2" width="22" height="64.2"/><rect class="cls-1" x="70.1" width="333.9" height="22"/><rect class="cls-1" x="384.5" width="22" height="266.1"/><rect class="cls-1" x="384.5" y="355.4" width="22" height="58.8"/><rect class="cls-1" x="48.1" y="392.2" width="336.3" height="22"/><rect class="cls-1" x="48.2" y="360.2" width="22" height="45.3"/><rect class="cls-1" y="114.7" width="48.2" height="19.4"/><rect class="cls-1" y="208.1" width="48.2" height="19.4"/><rect class="cls-1" y="301.4" width="48.2" height="19.4"/><path class="cls-1" d="M297.93,244.58q0,19.82-10.05,35.18t-29,23.89q-18.93,8.52-44.43,8.52-21.27,0-35.68-3a132.51,132.51,0,0,1-30-10.42V247.5A171.58,171.58,0,0,0,183,260.68a127.36,127.36,0,0,0,32.63,4.73q12.81,0,18.79-4.44a13.65,13.65,0,0,0,6-11.43,12.58,12.58,0,0,0-2.4-7.65,27.88,27.88,0,0,0-7.72-6.63q-5.33-3.34-28.33-13.69-20.83-9.47-31.25-18.36a56.35,56.35,0,0,1-15.44-20.39q-5-11.5-5-27.24,0-29.43,21.42-45.89t58.85-16.46q33.06,0,67.44,15.3L280.31,153q-29.87-13.69-51.57-13.7-11.22,0-16.32,3.94a11.88,11.88,0,0,0-5.09,9.76q0,6.25,6.48,11.21T249,182.24q27.52,12.38,38.24,26.58T297.93,244.58Z"/></g></g></svg>