<svg xmlns="http://www.w3.org/2000/svg" viewBox="0 0 406.5 414.2" fill="#fff"><path d="M48.2 0h22v64.2h-22z"/><path d="M70.1 0H404v22H70.1z"/><path d="M384.5 0h22v266.1h-22zm0 355.4h22v58.8h-22zM48.1 392.2h336.3v22H48.1z"/><path d="M48.2 360.2h22v45.3h-22zM0 114.7h48.2v19.4H0zm0 93.4h48.2v19.4H0zm0 93.3h48.2v19.4H0zm297.93-56.82q0 19.82-10.05 35.18-10.05 15.36-29 23.9-18.93 8.52-44.43 8.52-21.27 0-35.68-3a132.51 132.51 0 0 1-30-10.42V247.5A171.58 171.58 0 0 0 183 260.68a127.36 127.36 0 0 0 32.63 4.73q12.8 0 18.8-4.44a13.65 13.65 0 0 0 6-11.43 12.58 12.58 0 0 0-2.4-7.65 27.88 27.88 0 0 0-7.72-6.63q-5.33-3.34-28.33-13.7-20.83-9.47-31.25-18.36a56.35 56.35 0 0 1-15.44-20.39q-5-11.5-5-27.24 0-29.43 21.42-45.9 21.42-16.46 58.85-16.46 33.06 0 67.44 15.3L280.3 153q-29.87-13.7-51.57-13.7-11.22 0-16.32 3.94a11.88 11.88 0 0 0-5.09 9.76q0 6.25 6.48 11.2 6.48 4.96 35.2 18.03 27.52 12.38 38.24 26.58 10.72 14.2 10.7 35.76z"/></svg>