<svg xmlns="http://www.w3.org/2000/svg" viewBox="0 0 539.74 623.96"><style><![CDATA[.b{fill:#e4e3f1}.c{fill:#7d75f8}.d{fill:#7a73ef}.e{fill:#414141}.f{fill:#232323}.g{fill:#f9f9f9}.h{fill:#f3f3f3}.i{fill:#7b72f9}.j{fill:#7971f6}.k{fill:#ededee}.l{fill:#f7f7f7}.m{fill:#f5f5f5}.n{fill:#f4f4f4}.o{fill:#0f0f0f}.p{fill:#f0f0f4}.q{fill:#efefef}.r{fill:#0b0b0d}.s{fill:#fbfbfc}.t{fill:#7b73fa}.u{fill:#fafafa}.v{fill:#f6f6f6}.w{fill:#fdfdfd}.x{fill:#7b72fa}]]></style><path d="M428.95 31L534.92 0v598.66l-99.28-23.68L428.95 31" fill="#fcfcfc"/><path d="M211.64 622.76l-3.2-.4c-.4-.1-.7-.1-1.1-.2l-17.4-5.3c-3.3-1.1-6.5-2.9-6.5-7.3-15.3 8-31 8.6-47.2 4.7-4.9-1.2-9.1-3.7-13.3-6.5-3.2-2.1-3.4-4.5-2.9-7.2 2.5-13.7 4.8-27.4 7.9-40.9a23.48 23.48 0 0 0-.8-14c-.9 1.2-1.4 2.1-2.1 2.9-11.1 12.2-24.4 20.5-40.8 23.4a28.15 28.15 0 0 1-6.5.7c-1.2-.1-3-1-3.3-2s.7-2.8 1.6-3.5c3.1-2.3 6.5-4.2 9.8-6.4 9.5-6.2 18.8-12.7 26.6-21.1a14.62 14.62 0 0 0 1.6-1.9c.1-.1 0-.3-.1-1-1 .3-1.8.6-2.7.9a86.63 86.63 0 0 1-24 5.7c-2.9.3-5.4-.2-7.3-3-1.3-1.9-3.6-3-5.3-4.6a22.15 22.15 0 0 1-2.5-3.5c-.1-.4-.3-.7-.4-1.1l-.9-9.4c0-.3.1-.5.1-.8a2.51 2.51 0 0 0-.4-.7c-.2-.2-.4-.3-.6-.5l-1-.7c-.2-.2-.4-.3-.6-.5s-.4-.3-.6-.5c-.5-.4-1.1-.8-1.6-1.2-.2-.2-.4-.3-.6-.5s-.4-.3-.6-.5a5.8 5.8 0 0 0-1-1.2c-11.9-10-22.3-21.6-32.2-33.5-5.6-6.7-10.5-14.1-15.7-21.2a130.09 130.09 0 0 1-15.1-43.2c-1.9-12.5-.6-24.8 1-37.2 1.3-10 4.2-19.3 9.9-27.7 5.6-8.2 13-14.4 21.3-19.6a151 151 0 0 1 15.2-8.5c15.1-7.4 31.1-8.4 47.3-5.3 12.8 2.4 25.6 5.4 38.3 8.2 3 .6 6.1 1 9.1 1.7 2 .5 3.1.2 3.5-2a6.94 6.94 0 0 1 .5-1.3c3.8-9.3 10.3-12.6 20-9.7a12.81 12.81 0 0 0 1.1-2c3.4-13.5 6.5-27.1 6.3-41.1 0-3-1.1-6.1-1.2-9.1a13 13 0 0 1 1.2-6.5 61 61 0 0 1 18.8-21.6 7.41 7.41 0 0 0 2.6-3.7c2.1-7.3 6.7-12 14.1-13.6 4.3-.9 8.3.8 11.8 3.2a6.07 6.07 0 0 0 4.7 1.1c3.6-.5 7.2-.7 10.8-1 1.5-.1 2-.8 1.9-2.3l-2.2-66.2-1.9-54.2c-.1-3.1 1.5-4.2 4.1-5.1q75.45-24.75 150.7-49.6Q455.54 22.5 521 .86c1.7-.6 4-1.9 4.9.7s-1.8 2.9-3.5 3.5q-41.25 13.65-82.5 27.1c-4.6 1.5-4.6 1.5-3.8 7.1.9-.3 1.9-.5 2.8-.8l85.6-27.8 2.3-.9c2.5-.9 3.4-.1 2.9 2.7-1.4.4-2.8.8-4.1 1.3q-43.35 14.1-86.8 28.1c-2.1.7-2.9 1.5-2.9 3.9l1.5 73.6c.1 4.1 0 8.1 0 12.6l21.7-5.6-4.6-22.6c-.5-2.6.7-4 3.4-4 1.5 0 3 .1 5 .2l-1.7-8.7c-.5-2.8.2-3.4 2.9-3.7l9.7-1.4-2.8-10.4c-1-3.5-.6-4.6 2.8-5.9 4-1.5 8.2-2.8 12.4-4.3l-.9-3.8c-.7-3.7-1.5-7.3-1.9-11a3.51 3.51 0 0 1 1.7-2.8c5.7-1.8 11.5-3.3 17.2-4.9 5-1.4 9.9-2.9 14.9-4.1.9-.2 2 .4 3 .7A192.06 192.06 0 0 1 486.14 51c6.1 21.5 7 43.7 8.2 66.2l45.3-12v2.7l-74 19.1-27.8 7.3v4.9l25.1-6 57.7-14.5 19-4.6v2.7l-13.1 2.9-85.2 21.3c-2.9.7-3.6 1.9-3.5 4.7q1.5 78.75 2.8 157.6c0 .7.1 1.4.2 2.4l14.5-.6c0-7.6.4-14.7-.1-21.9l-4.2-57.1c-.4-4.6-1.1-9.2-1.4-13.8-.3-3.8.9-4.9 4.6-5.1l6.2-.4-2-12.2c-.7-3.9-.5-4.1 3.4-4.8l10.4-1.8-1-12c-.2-2.2.7-3.4 2.9-3.8 3.3-.6 6.5-1.3 9.9-2-.1-3.4-2-6.1-3.8-8.8-.5-.8-.3-2.1-.5-3.2a15.26 15.26 0 0 1 3-.3c1.4.1 2.8.7 4.3.8 11.1.6 21.3-3.8 31.9-6.2l-.2-3.8c-.2-4.1.7-5 4.9-4.7 1.7.1 3.4.2 5.1.4.7.1 1.5.1 2.2.2 1.6.4 4.3-.3 4.1 2.3-.2 2.2-2.6 1.8-4.3 1.7-2.8-.1-5.5-.5-8.4-.8l1.2 18.3c.9 9.3 2.3 18.6 2.9 27.9.8 11.9 1.2 23.8 1.4 35.7l.3 66.8a5.4 5.4 0 0 1-1 2.2c-.5-.7-1.3-1.4-1.3-2.2l-2.3-53.9c-.3-9.8.4-19.6.2-29.4-.1-6.7-.8-13.3-1.3-20.1l-11 1.9c4.3 35.8 4.8 71.6 2.7 107.7l15.5-.8c.8 0 1.7.8 2.5 1.3-.8.5-1.6 1.4-2.5 1.5l-36.7 1.8-30.7 1.2-21.5 1.2v6.7h2.9l83.1-1c.9 0 1.8.7 2.7 1.1-.6.6-1.2 1.3-1.8 1.9-.4 0-.7-.1-1.1-.1l-83.6.6a15.17 15.17 0 0 0-2.1.3c0 .6-.1 1.1-.1 1.5q1.35 66.6 2.5 133.3c0 1.8.8 2.3 2.3 2.6 6.2 1.2 12.4 2.6 18.6 3.9 1.4.3 2.8.5 4.3.8l-1.7-21.2-5.7-62.4c-.4-3.8.2-4.8 4-5a45.53 45.53 0 0 1 6.1.4c-.9-3.2-1.8-5.9-2.5-8.7s-.2-3.5 2.6-3.5h14.9l-2.2-9.9c-.5-2 .2-2.7 2.2-2.6a40.06 40.06 0 0 0 6 0 74.77 74.77 0 0 0 10.4-1.6c5.4-1.1 11-.8 16.5-1a13.73 13.73 0 0 1 2.8.5v.9a42.74 42.74 0 0 1-4.8 1.3c-2.9.3-5.8.3-8.7.6a7.57 7.57 0 0 0-1.8.9l-18.8 2c6.5 37.7 2.4 75.6.7 113.6l13.1 2.8 1.2-55.7c0-8.1-1.1-16.3-1.7-24.5-.2-3.4.3-3.9 3.6-3.7 1.8.1 3.6.2 5.4.2h6.9c.1.5.1.9.2 1.4-2 .5-4.1 1.3-6.1 1.6a56.83 56.83 0 0 1-7.2.1c3.5 27.2 1.7 54-.1 81.1 5.3 1 10.5 1.9 15.7 3.1.9.2 1.5 1.6 2.2 2.4-1 .4-2.1 1.2-3 1l-57.4-12.6-18.1-3.7c0 2.1.1 3.9 0 5.7-.2 2 .7 2.6 2.5 3l74.3 18.2a8.87 8.87 0 0 1 2.9.8c.7.4 1.1 1.4 1.7 2.1a10.08 10.08 0 0 1-2.6 1.2 10.93 10.93 0 0 1-2.4-.4c-.2-.1-.5-.3-.7-.4l-72.9-18c-.8-.2-1.5-.2-2.6-.4v3.2l.6 32.2.8 48c0 .9.5 2.3 1.2 2.6 4.2 1.8 8.6 3.3 13.2 5 .1-1.4.2-2.5.2-3.5l-.8-30.5c-.2-5.7 1-7.7 6.5-9.3 1.5-.4 3.1-.6 4.8-.9v-1.7l-1.5-18.2c-.2-1.8-.4-3.8 2.3-3.4a615.81 615.81 0 0 1 19.6 3c1.4.2 2.5 1.4 3.8 2.2a15.14 15.14 0 0 1-3 .2l-19.8-2c2.5 13.9 1.5 27.8 1.7 41.6l.2 24.5c0 2.5.5 4.4 3.4 5 .7.1 1.1 1.6 1.7 2.5-1 .2-2.2.8-3.1.5-7.3-2.6-14.6-5.4-21.9-8.2-2.8-1-5.5-2.1-8.5-3.3l-.6 10.6 27 10.9c4.7 2 9.3 4.2 13.8 6.4 2.5 1.2 1.8 3.6 1.3 5.3-.6 1.9-2.6 1.6-4.2 1a11.92 11.92 0 0 1-2-.8q-86.25-35-172.4-69.8l-54.9-22.7c-3.6-1.5-5.4-3.8-5.5-7.8-.1-9.2-.6-18.4-.9-27.5l-2.5-78.5c0-.9-.1-1.9-.2-3.3l-8.1 6.5a2.13 2.13 0 0 0-.7 1.5l1.6 12.7a154.31 154.31 0 0 1-.1 44.5c-2 12.4-6.2 24.1-10.2 35.8a99.92 99.92 0 0 0-4.1 14.9 11.3 11.3 0 0 0 1.5 6.9c3.3 5.9 3 8.8-2.4 12.7-.1.1-.1.3-.2.5.8 1 1.6 2.1 2.5 3.1 7 7.9 12.6 16.9 20.5 24.1a5 5 0 0 1 1 2.2c.3 1.4.4 2.9.6 4.3l3.1 34.5 2.1 23.6c.3 3.3-1.1 5.2-4.1 6.1l-21.3 6.2h-8.8c-1.5-.1-2.9-.2-4.4-.4.3-.24-.14-.24-.5-.34zm-4.8-353.9a2.65 2.65 0 0 0-.6-.5l-1.2-1.2c-.6-.7-1.2-1.5-1.8-2.2-.1-.2-.3-.3-.4-.5a46.05 46.05 0 0 1-7.9-20.2l-.3-5.9c-6.9 6.3-12.8 12.4-17.2 20a7.94 7.94 0 0 0-1 6.2 34.74 34.74 0 0 1 .8 7.3c.4 12.8-1.8 25.3-5.2 37.6-.5 1.7-.3 2.8 1.2 3.6l8.8 4.8c.6.2 1.1.5 1.7.7 8.8 5.1 18.5 6.6 28.5 6.9 3.1.1 6.2.5 8-2.9.2-.4.9-.6 1.3-.9 5.1-3.5 10.4-6.7 15.2-10.5 13.5-10.6 22.3-24.3 26.6-41.7-1.5.1-2.8-.2-3.7.3a34.52 34.52 0 0 0-5.6 3.8c-8.4 6.5-17.8 9.9-28.5 7.9-2.7-.5-4.7-.9-6.4 1.8-.3.6-1.7.5-2.6.7-.1-1-.6-2.2-.2-2.9a38.33 38.33 0 0 1 3.3-4.6c1.5-.3 3.3-4 4.5.3.1.2.6.2 1 .3a33.56 33.56 0 0 0 27.2-6.4 36 36 0 0 1 4-2.8c4.7-2.7 7.3-2.3 10.9 1.8 1.1 1.3 2.1 2.7 3.3 4 .4.5 1 .9 1.5 1.4 4.4-5.4 7.9-22.9 2.7-31.7a17.47 17.47 0 0 0-6.4-9.8c-4-3.2-8.8-4.5-13.4-6.5-9.4-4-19.1-1.2-29.3-2.4l3.5 4.4a42 42 0 0 1 6.9 25.3c-.7 12.5-7.1 19.4-18.7 20-.3-.1-.7-.1-1-.2l-4.4-1.4c-.2-.1-.5-.2-.7-.3a10 10 0 0 0-1.4-.8h-.1l-1.5-1.2c-.2-.2-.4-.3-.6-.5a2.18 2.18 0 0 1-.5-.4l-.1-.1c.1-.3-.04-.4-.2-.6zm147.1-8.8c.3.2.6.5.9.7l3.5 3.3a4 4 0 0 1-2.9-.1l-19-8.4c-.6-.4-1.3-.8-2.1-1.3-1 2.3-2 4.2-2.7 6.3s-2.2 3-4.6 2.9c-4-.2-8.1 0-12.4 0-.3 1.5-.6 3.3-.9 5.1v.1c-.1.5-.3.9-.4 1.4l-3.7 15a55.39 55.39 0 0 1-2.1 5.7 2.92 2.92 0 0 0-.9-.2l4.3-27.6-29.7-1.4-2.5 8.7a2.89 2.89 0 0 0 .2 1.8l4.5 10.2c1.5 3.8 2.8 7.6 4.2 11.4a3 3 0 0 0 .5-.7c1.7.7 3.7 1.1 5 2.3a47.36 47.36 0 0 1 6.5 6.9 73.28 73.28 0 0 1 4.5 6.4l3.7-2.6a4.18 4.18 0 0 0 1-.4l62.3-35.8a13.28 13.28 0 0 0 1.6-1.2q-10.2-26.7-20.4-53.1c-.4-1.1-.8-2.2-1.1-3.2l-15.5 38.8 17.3 8.7a1.56 1.56 0 0 1 .9.3zm-21.8-10.8c.4-.9.8-1.8 1.1-2.7a5.38 5.38 0 0 0 .9-1.2l10.3-25.1c.8-2.1 1.2-4.3 1.9-6.5v.1c.2-.4.3-.9.5-1.3l.3-1.2v-.7l-.6.3c-.9.5-1.8.9-2.6 1.4l-62 35.3-.5 11.3 42.6 1.1c4.8.1 4.8.1 5.9-4.8.2-.5.5-1.1.7-1.6v.1c.5-1.6 1-3 1.5-4.5zm-242 314.6a6.12 6.12 0 0 1-1.2.5c-.8.5-1.6 1-2.5 1.5a1.21 1.21 0 0 0 1.2.3 62.7 62.7 0 0 0 27.1-14.5 23.22 23.22 0 0 0 2.2-3c1.2-.8 2.7-1.4 3.6-2.5 5-6.1 9.8-12.4 14.7-18.5a37.6 37.6 0 0 1 4.1-3.8c.2.1.3.3.5.4.1-1 .3-1.9.5-3.4-1.1.8-1.9 1.3-2.6 1.8-3.8 2.5-7.4 5.3-11.4 7.4-3.1 1.7-5.4 3.7-6.8 7a12.58 12.58 0 0 1-3.3 4.6q-8.55 8-17.4 15.6a71 71 0 0 1-8.7 6.6zm43.1 32.9c-4.2.6-7.1 3-10 6.9l12.1 5.1 11 2.8c-.7-5.1-2.1-9.1-5-12.5a7.29 7.29 0 0 0-8.1-2.3zM204 604c-5.5-2.7-13.4 1.6-14.4 8.5l15.3 4.5c2.5.5 5 .9 7.6 1.4.14-6.24-2.76-11.04-8.5-14.4zm45.8-416.3a41.26 41.26 0 0 1 4.5-1.7l54.6-14c3.3-.8 3.5-1.2 2.2-4.7a11.63 11.63 0 0 0-1.8.4l-29.4 7.7-25.2 6.7c-1.4.4-3.1 0-4.6-.1a12.11 12.11 0 0 1 2.8-1.8l15-4 14.9-3.9c-2.8-12.3-5.3-24.4-11.1-35.5-1.6-3.1-1.2-3.8 2.3-4.5l12.5-2.6c-.4-1.1-.5-1.6-.7-2.1l-7-12.3a4.34 4.34 0 0 1-.5-2.5c0-.3 1.2-.5 1.9-.6l28-2.5-1.2-24.9a19.27 19.27 0 0 0-2 .5q-28.2 9.15-56.5 18.3c-1.8.6-2.1 1.5-2.1 3.2l1.2 40.9 1.2 34c0 1.9-.1 3.8-.1 5.7 0 .4.1.8.1 1.3l1 32.8c13.6 3.3 26.6 7.3 30.2 23.3 4-2.8 7.4-5.5 11.1-7.8 6.9-4.5 14-8.8 21-13.1a4.17 4.17 0 0 0 2.4-4.3l-1.9-34-.7-11.8c-1.1.2-1.9.3-2.7.5l-28.8 7.2-30.6 7.1zM127.7 524.2c.4-.2.7-.4 1.1-.6 2.8-1.9 5.7-3.6 8.3-5.7 28.4-22.6 46.2-52 55.4-86.8 5.8-22.2 7.1-44.6 1.2-67.1-2.8-10.7-7.2-20.7-14.2-29.5-1.9-2.3-3.7-4.6-5.8-6.8-2.3-2.4-5-4.5-7.2-7-1.9-2.1-4.4-3.4-7-2.9-4.6 1-9.9 7-10.3 11.9 4.9.9 9.7 1.1 14.5-.6 1.9-.7 3.9-1.1 4.2 1.9a20.29 20.29 0 0 1-2.6 1.8 22.77 22.77 0 0 1-13.6 1.3q-18.75-3.6-37.2-7.8c-14.1-3.2-28.2-6.4-42.8-5-8 .8-15.8 2.5-22.6 7a17.42 17.42 0 0 1-2.2.5c-6.4 4.1-13 7.9-19.1 12.5a51.54 51.54 0 0 0-19.3 29.1A107.08 107.08 0 0 0 6.34 383c-1.4 10.8-2.3 21.7-.6 32.6.1.2.1.5.2.7a21.66 21.66 0 0 0 .4 2.5 6.37 6.37 0 0 1 .2.7c2.2 12.6 6 24.8 12.8 35.7a230.19 230.19 0 0 0 63.1 67.7 7 7 0 0 0 1 .8c.8 1.2 1.5 2.4 2.3 3.6l-3.2.3c-2.7-1.7-5.5-3.3-8.6-5.2.2 2.7 0 4.9.7 6.8a24 24 0 0 0 3.6 5.9c.5.7 2.3.4 2.7 1.1 1.9 3.1 4.6 3.7 7.8 3 7-1.7 14.1-2.9 20.7-5.4 6.3-2.5 12.2-6.4 18.3-9.6zm144.7-220.6h.7c-.1-.2-.2-.3-.3-.5a49.61 49.61 0 0 0-4.9-5.3c-2.8-2.3-4.1-2-6.3.9a13.7 13.7 0 0 1-7.3 5.3 21.6 21.6 0 0 0-8 4.4 84.41 84.41 0 0 1-19 13c1.3 1.4 2.8 2.9 4.3 4.6-.1 0 .3-.1.7-.4 9.5-5.4 18.4-12 28.9-15.5a2.73 2.73 0 0 0 1.1-1.6c1.5-7.2 2.9-7.9 9.6-5a.9.9 0 0 0 .54.06zM215 222.16c-7.4-2.3-10.3-.8-14.3 5.8a16.62 16.62 0 0 0-2.1 5.9c-2 12 1.2 22.6 9.7 31.2 2.2 2.2 5.3 3.7 8.3 5a7.85 7.85 0 0 0 7.8-.7c4.2-1.7 6-5.4 7.2-9.3 3.4-11.2-1.3-26.7-10.4-34.2-.8-.6-1.7-1-2.4-1.5a9.29 9.29 0 0 1 .5-1c-1.46-.36-2.86-.8-4.3-1.2zM407.34 446a23.76 23.76 0 0 1-.6-3.7l-.3-46.6c-.3-13.2-1.2-26.4-1.8-39.8l-4.6-.3-4.2-.3-1.5 89.2 12.8 2.6 11.8 2.7v-92.4l-10.4-1.2.5 6.2 1.9 62.4c.2 5.6 0 11.3 0 16.9 0 3.3-1 4.46-3.6 4.3zm-87.6-88.8v-38.5l-7.8.4c0-.1-.1-.2-.1-.3 0 .1-.1.1 0 .2s.1.1.2.1c1.4 3.1 2.8 6.3 4 9.4 1.4 3.7 1.1 4.4-2.1 6.6l-17.6 11.8c-2.8 1.8-5 3.6-5.3 7.5-.2 3.4-2.1 4.2-5.4 3.4-1-.2-1.9-.7-2.9-.9a3.24 3.24 0 0 0-2.2.3l-23 16a4.3 4.3 0 0 0-1.4 3.1c.2 6 .6 12 .9 18l1.2 21.4 24.2 4.9a7.38 7.38 0 0 0 .2-1.2l-1.1-37.3c-.1-2.8.6-3.7 3.3-3.7h5.3v-7.8c0-3 .5-3.5 3.5-3.5H302l.2-3.8c.3-3.6.8-4 4.3-3.9 3 .1 6.2.8 8.9-1.3.4-.3 1.2-.1 1.8-.1 0 .3.2.8.1.9-2.3 1.5-3 3.5-2.8 6.2.5 8.1 1.1 16.1.9 24.2-.2 12.7-.9 25.3-1.4 38.2l6.7 1.4c0-.8.1-1.3.1-1.7l-1-68.9a2.08 2.08 0 0 0-.06-1.14zm-186.6 235.9c8.5-1 12.7 4.1 15.4 11.4 3.4-4.9 8.1-6.7 13.2-7.8 5.6-1.1 9.9.8 13 5.3l4.6-6.5a6.47 6.47 0 0 0 1.3-3.1l-.2-27.8v-7.7c-6.4.3-12.8.6-18.9-1.3v-1l19.8-1.2a8.29 8.29 0 0 0-1.3-1.1c-6.8-3.6-13.1-7.7-18.4-13.3a2.05 2.05 0 0 0-1.7-.5l-21.6 2.7c-1.4-.1-2.9 0-4.3-.2-3-.4-3.7.2-2.9 3.3s1.8 6.3 2.5 9.5a9.08 9.08 0 0 1-.3 4.3c-.6 2-1.7 3.9-2.2 6-1.5 6.6-2.8 13.3-4.1 20-.8 4.1-1.3 8.3-2 12.4l8.1-3.44zm69.8 6.1c4.5 1.8 8.3 4.4 10.7 9.3 1.7-7.6 6.3-11.3 13.2-12.2 7.1-.9 9.4 5 12.2 9.3 1.5-2.9 2.7-6.1 4.7-8.7a6.14 6.14 0 0 0 1.4-5.1l-4.1-42.1c-6.2.5-12 2-17.9.8 0-.2-.1-.5-.1-.7l15.7-3.3-21.8-25c-6.4 2.6-12.5 5.5-18.8 7.5-6.5 2.1-13.3 3.6-20 5.3l-12.9 2.8a14.45 14.45 0 0 0 1.9 2.1l15.2 10.1a3.6 3.6 0 0 1 1.6 2.4 138.49 138.49 0 0 1 .4 14.4 258.66 258.66 0 0 0 2.5 42.1c3.8-6.04 8.6-9.94 16.1-9.04zm149-164.3a12.81 12.81 0 0 1-1.4-3.7c-.3-3.3-.3-6.5-.5-9.8l-3.3-69.4c-.1-2.1.6-3.4 2.6-3.8a64.11 64.11 0 0 1 9.6-1.6l58.1-4.7 12.7-1v-23l-98.8.8v2.3l1.4 59.4 1.1 48.5c0 1 .5 2.7 1.1 2.9 5.7 1.3 11.5 2.4 17.3 3.5l10.4 2.5v-84.3a41.42 41.42 0 0 1-6.1-.1 46.9 46.9 0 0 1-5.8-1.7c2.4 27.7 3.9 55.6 3.2 83.6a12.44 12.44 0 0 0-1.6-.44zm-156.7 3.4a4.35 4.35 0 0 0-.4.7c-10 31.5-26.7 58.5-52.1 79.9-.4.4-.4 1.3-.6 2-.6 2.2-.7 4.6-1.7 6.6-1.7 3.2-3.9 6.1-6.3 9.8l5-.7c4-.3 8.1-.2 11.9-1 15.7-3.4 31.4-6.6 46.9-10.9 7.5-2.1 14.3-6.5 21.4-9.9 3.4-1.6 3.9-3.1 1.7-6.2-2.8-3.9-2.9-8.1-2.1-12.5a68.39 68.39 0 0 1 2.3-8.9c3.3-10.9 7.1-21.6 9.9-32.6 4-16.3 4-32.9 2-49.6-.5-4-.6-8-.9-12.1l-8.1 5.9c-.3-.3-.5-.6-.8-.9 3.4-3.8 6.4-8 10.2-11.4a234 234 0 0 1 34.7-25.4c4.3-2.6 8.2-5.6 12.3-8.5 2.5-1.8 2.8-1.7 3.5 1.2 1.2.2 2.4.5 3.8.7.2-1.3.5-2.3.6-3.2.1-1.6.3-3.3.3-4.9-.7-11.7-4.5-22.5-9.5-33a16.35 16.35 0 0 0-8.5-7.9c-4.2-1.9-5.3-1.2-5.2 3.5a4.25 4.25 0 0 0 .2 1.1c-.7.8-1.2 1.8-2.1 2.3-8.1 4.4-16.5 8.3-24.3 13.2-12.6 7.9-24.9 16.5-37.3 24.8-.2.1-.5.3-.7.4-1.5.7-2.9 3.5-4.5 1.6-1.4-1.8 1.1-3.2 2.5-4.1l24.8-17.7a21.93 21.93 0 0 0 3.9-2.9c1.3-1.3 1.2-2.6-.7-3.4-.6-.3-1.2-.5-1.7-.8-2.5-1.2-3.5-.8-4.4 2l3 .3a27.41 27.41 0 0 1 2.8.5 4 4 0 0 1-2.3 1.5c-12.7 3.1-25 1.5-36.9-3.7-2.2-.9-4.3-2-6.4-3l-10.6-6.6c-.3.6-.9 1.4-1.4 2.4 1.2 1.2 2.4 2.1 3.4 3.3q3.15 3.45 6 7.2c1.3 1.6 2.3 3.4 3.5 5 3.9 6.6 8.4 13 11.5 20 7.5 17.2 8.9 35.4 7.6 53.9a108.83 108.83 0 0 1-1.4 14c-1.4 5.96-3.2 11.96-4.8 17.96zm129.2-223c.4.1.7.1 1.1.2l14.6-9c3.6-2.2 7-4.6 10.7-6.5 4.1-2.1 6.8-1.7 7.7 2.7.5 2.8 2 5.4 3.3 8 6.4 12.8 12.1 25.8 15.2 39.9.5 2.1 1.3 4.2 2 6.3.3 0 .5-.1.8-.1a12.5 12.5 0 0 0 .3-1.9l-.9-15.2c-.2-3.6-.7-7.2-.9-10.9-.1-2.9 1.4-4.8 4.3-5.5a40.82 40.82 0 0 1 5.2-.7l-1.3-23.6c-.2-3.9.2-4.3 4-4.3h10.8l-.8-12.6c-.1-3.1.7-3.8 3.8-3.9h10.1a4.49 4.49 0 0 0 1.9-.5c1.3-.6 2.4-1.6 3.7-2 2-.7 4.2-1 5.8-1.4v-29H425q-49.95 12.45-99.8 25c-1.8.4-2 1.4-1.9 2.9q.75 15 1.2 30c.04 3.96-.06 7.96-.06 12.06zm99-168.3c-1.6.5-2.8.8-3.9 1.1l-97.3 31.5c-2.6.8-3.2 2-3.1 4.6l3.5 73.5c.1 1.2.1 2.5.2 4l32.9-8.6-3-17.3c-1.5-7.5-1.4-7.6 6.3-8a15.55 15.55 0 0 0-.8-2.3c-1.2-2.5-2.4-5.1-3.8-7.5s-.9-4.2 1.9-4.8c1.7-.4 3.5-.4 5.6-.7l-5.6-8.5c-2-3.1-1.3-5.1 2.4-5.5 4-.5 8-.7 12.2-1l-2.6-9.3c-.5-1.8.1-3 2-3.4l23.3-5.8-.3-3.7c-.3-3.5.1-3.8 3.5-3.3a6.16 6.16 0 0 0 2.7.1q12.15-1.5 24-3l-.1-22.1zm99 142.6l-3.4-33.4c-10.9 2.8-21.6 6.6-33 5.4.8 2.9 1.9 5.4 2.1 8 1.1 9.5 2.2 19 2.7 28.5.7 13.1 1 26.3 1.5 39.5l2.3 64.5a6.15 6.15 0 0 0 .3 1.1l17.1-.8v-26.1l-1.7-62.1c-.2-6.7-1.3-13.4-2.1-20-.2-1.7-.2-3.1 2.1-3.2l12.1-1.44zm-181.2 325.7c0-.7-.1-1.3-.1-2l-2.1-41.4c-.2-3.3.7-4 4-3.7 2.4.3 4.9.4 7.3.8 6.8 1.1 13.8 1.5 20.3 3.5 19.4 6 38.6 12.6 57.9 18.9 1.7.6 3.5 1 4.9 1.4l.1-23c0-2.3-.9-3-3-3.5l-96.8-24.2v3.3l1.4 62.9c.1 5.5.1 5.5 5.4 7.1a5.64 5.64 0 0 1 .7-.14zm90.8-471c-6.2 1-6.2 1-5.9 6.8v1.1q1.65 66 3.4 131.9 2.25 84.6 4.4 169.3 1.95 78.75 3.8 157.5l1.3 53.4c0 3.1 1.1 4.5 3.5 4.6Q437.44 306.66 432 44.26zm-8.1 28.7l-13.6 2.1c-4.4.7-8.7 1.1-13.2 1.7l7.4 63.7 20.7-5.4-1.3-62.1zm68 230.5l-2-39.3-3.3-72.4c-.3-6.1-1.1-12.2-1.7-18.5-3.2.9-6 1.6-8.8 2.3a1.63 1.63 0 0 0-.6.3c1.8 42.6 4.2 85.1 3.2 127.6zm-87.7-121.6l6.7 125c1.6 0 3.5.1 5.4 0l5.4-.3q-3-62.55-6.1-124.6c-3.7-.14-7.5-.14-11.4-.14zm-150.8 194.4c-3.1 1.7-4.8 3.2-4.7 7l3.6 107.9c.1 2 .6 3 2.6 3.7q32.55 12.75 65.1 25.7l2.5.9c0-2.4-.1-4.4 0-6.4a3.2 3.2 0 0 0-2.4-3.6l-26.2-9.9-32-12.4c-1.9-.7-2.9-1.7-3-3.9q-2.7-54.2-5.5-109.04zm136.3-177.9q3.15 54.75 6.3 109h11.3l-6.4-109zm-131.1 225.2l1.1 20 2.4 40a3.88 3.88 0 0 0 1.1 2.5 51.06 51.06 0 0 0 6.4 2.4l-2.7-18.1-2.7-19.1c-.4-3.1.8-4.3 3.8-4.2 1.4 0 2.8.2 4.3.2.7-4.7 1.3-5.4 6.1-5.4s9.5.4 14.3.8c3.2.3 5.9 1.5 6.2 5 2.4.6 4.5 1.2 6.7 1.8 1.9-2.8 4.7-1.3 7.3-1.2s5.3.4 8.2.7c0-3.2.1-6-.1-8.7 0-.6-.9-1.5-1.6-1.7-3.3-.9-6.7-1.7-10-2.5l-50.8-12.54zm142.8-282.3l-7.5-59.4-21.9 7.3c5.4 18.2 11.6 36.6 13.2 56.4l16.2-4.34zm-74.3 162.8c-4.4 1.4-4.3 1.4-4.3 5.5q1.65 105 3.4 209.9c.1 4 1 5 5.3 5.1q-2.25-110.14-4.4-220.54zm8.3 213.5c0 2.3.1 4.3 0 6.2-.2 2.2.7 3.2 2.7 4q44 17.25 87.8 34.6l9.7 3.8c0-2.9-.1-5.5 0-8.1.1-2.1-.7-2.9-2.7-3.7l-91.8-34.8c-1.8-.54-3.6-1.24-5.7-2.04zm136.9-155c7.1 32.9 8.3 66.3 7.5 100.1l6.5 1.4c1.2-34.4 3.6-68.6.6-102.6-5.3.26-10 .66-14.6 1.06zm-175.6-194c4.1-1.1 8.2-2.3 12.3-3.1 1.9-.4 2.4-1.2 2.3-3.1l-2.8-48.7a5.09 5.09 0 0 0-.4-1.4l-25.3 3.3 6.2 11.3a10.92 10.92 0 0 0 2.4 2.4c-.1.7-.7 1.7-.5 2.5a126.38 126.38 0 0 1 5.8 36.76zm69.3 185l-1.1 84.7 11.7 2.4c.6-28.9-2.4-57.5.8-86.4l-11.44-.74zm24.5 90V355l-9.7-.5c-3 29.1.5 57.9-1.7 86.7l11.4 2.36zm71.3-250.2c.8 6.3 1.8 12.3 2.4 18.4 1 10.6 2.2 21.2 2.5 31.8.5 18.2.4 36.3.5 54.5 0 2.1.2 4.1.3 6.2h4.4c1.4 0 2.8-.1 4.2-.2l-3.6-113.6c-3.9.96-7.2 1.96-10.7 2.86zM374 308.76c-2.1-10.3-3.9-20.2-2.8-30.5l-39.4 23c-.5.3-1.1.9-1.1 1.4-.1 2.7-.1 5.3-.1 8.2l43.4-2.1zm-127.1-88.1v-2.2l-1.6-48.2-2-64.6c-.1-2.9.7-4.1 3.5-5l56.4-18.3c4.2-1.4 4.3-1.5 3.2-6.3-.3.1-.7.1-1 .2l-64.1 21c-1.7.5-1.6 1.5-1.6 2.9q1.8 58.65 3.7 117.4c0 1 .1 1.9.2 3 1.34.1 2.24.1 3.34.1zM430.64 358h-3.4c-2.3 0-3.1 1-2.8 3.4a59.42 59.42 0 0 1 .3 7.3q-.75 37.05-1.4 74.1c0 2.1-.1 4.2 0 6.3a2.2 2.2 0 0 0 1.2 1.7c2.8.7 5.6 1.2 8.7 1.8l-2.6-94.6zm-4.3-179.8a17.11 17.11 0 0 1-3.5.6c-2.8.2-3.5 1.5-3.3 4.2.5 6.2.7 12.5 1 18.8l3.9 91.5c.2 4.3 0 8.6 0 13.1 2-.1 3.4-.2 4.9-.2l-3-128.04zm7 285.4c0-2.1-.1-4 0-5.9s-.7-2.4-2.2-2.7l-13.1-2.8-69.9-15.1-14.3-2.9c-.6 5.2-.6 5.2 4.1 6.3l95.4 23.06zM472 461c1.2.3 3.1.6 5 1a639.32 639.32 0 0 0-4.7-87.7h-4.4l-3.3.3L472 461zM310.44 83.56q3.75 68.4 7.5 136.4c3.3-1.3 3.3-1.3 3.2-5.1l-4-105.1-1.2-28c-1.94.6-3.7 1.24-5.5 1.8zm143.3 127.2l6 94.1c1.3-.1 2.9-.2 4.2-.2-1.5-31.7 1.4-63.2-3.2-94.5-2.4.1-4.8.4-7 .6zm19.7-137.5c4.1 15.7 7.2 31.4 6 47.8l12.2-3.2-4.7-50.8-13.5 6.2zm-60.3 469.9l-2.2-42.6a1.77 1.77 0 0 0-.9-1.4c-4-1.5-8-2.8-12-4.3a2.65 2.65 0 0 0-.3 1l.8 40.3a2 2 0 0 0 1 1.6c4.2 1.9 8.46 3.5 13.6 5.4zm9.8-505.4l-104.5 34.3c.1 1.8.2 3.4.4 5.2 1.2-.4 2.1-.7 2.9-.9q48.45-15.6 96.8-31.3c4.9-1.5 4.9-1.5 4.4-7.3zm6.3 511.6v-41.8c0-.6-.3-1.6-.7-1.8-4.2-1.6-8.4-3-12.6-4.5l1.3 43.5 12 4.6zm-120.4-98.8v52.8l10.2 3.8-.9-56.1c-2.6-.2-6-.3-9.3-.5zm77-142.6h7.3l-5.2-81.8c-5.8-.8-7 .4-6.4 5.8.4 3.9 1.1 7.8 1.3 11.6l3.3 56.1a77.68 77.68 0 0 1-.3 8.34zm-4.4 181.1l1.5 42.6 11.7 4.5v-22c-.1-6.2-.5-12.4-.8-18.5a3.49 3.49 0 0 0-1.4-2.5c-3.5-1.6-7.1-2.7-11-4.1zm48-180.3l-20.2 1c-6.6.3-13.3.2-19.8.9-6.3.6-12.5.5-18.8.9-6.6.4-13.2.6-19.8.9l-20 .9c.1 1.1.1 2 .2 3.1l98.5-1c-.1-2.4-.1-4.4-.1-6.7zm-118 118.1c-.6-21.7 2.2-43.2.3-64.7l-5.6.7-3.6 62.2c2.8.5 5.8 1.1 8.9 1.8zM323 168.36l102.6-25.8-.3-5q-51.45 13.35-102.2 26.6c-.1 1.5-.1 2.7-.1 4.2zm-47.4 137c11.3 11.7 13.6 26.7 16.6 41.4l18.7-13.2c3.4-2.4 3.5-3.2.5-7.4l-.6 3.2c-2.1.2-3.9.3-5.7.6-4.3.9-8-.7-9.3-4.6-.6-1.6-.3-3.5-.4-4.7-1.8-1.2-4-2-5-3.6s-.8-3.9-1.1-6.1c-3.2-.3-5-1.9-4.4-5 .5-2.6 1.8-5.1 3.1-8.5l-12.36 7.9zm18.6-136.1c-1.2-12.9-2.6-25.4-6.5-37.3l-13.6 3.6c5.5 11.5 8.7 23.7 10.9 36.2 3-.9 6-1.7 9.24-2.5zm-7.1 276v2.8l.4 19.1.5 26.4a2.72 2.72 0 0 0 1 2.2c2.4 1.1 4.8 1.9 7.5 2.9v-2l-.5-43.8c-.1-6.4 0-6.4-6.6-7.2a13.66 13.66 0 0 0-2.26-.4zm5.9-75.5c0 2.5-.4 4.9.1 7.1s-.1 4.3-.1 6.5v33.5c0 7.4-.7 5.6 5.9 7.1a3.93 3.93 0 0 0 .6-.2l2.8-54.7-9.3.7zm61.2 109.4l1 40.6c0 .5.3 1.2.6 1.3 3.2 1.3 6.5 2.5 10.1 3.9l-2-40.9a2.53 2.53 0 0 0-1.4-1.9l-8.26-3zm13.6 5a8.8 8.8 0 0 0-.1 1.4l1.4 39.4a2.07 2.07 0 0 0 .9 1.7c3.1 1.3 6.2 2.4 9.7 3.7l-2.1-41.5a2.44 2.44 0 0 0-1.3-1.7c-2.66-1-5.36-1.9-8.46-3zm14.9-338a355.18 355.18 0 0 0-11.4-46.8l-11.6 3.2c9.2 13.8 14.9 28.8 18.8 44.7zm87.9 372.3c-1.5.6-2.3.9-3.1 1.3-5.5 2.2-5.6 2.6-5.3 8.4.4 8.7.6 17.4.7 26.1 0 2.5-.4 5-.6 7.6l8.3 3.2zm3.9-430.4l-10.3 3.4c1.6 3.3-.2 7.8 3.1 10.4a8.57 8.57 0 0 0-1 2.6c0 1.8.4 3.6.5 5.4l.9 14.2 3.8-.9c5.8-1.5 6-1.5 5.6-7.6-.66-9.2-1.66-18.3-2.56-27.5zm-258.6 530.3c7.8 1 17.6-.4 22.4-3.1-.8-5.4-3.2-10.5-6.2-13.6a6 6 0 0 0-5.7-1.8c-6 1.3-9.3 4.5-10.2 10.5-.26 2.64-.2 5.2-.26 8zm67.7-174.3a17.35 17.35 0 0 0-2.3 0c-2 .3-4.1.4-5.7 1.3-.6.3.2 2.9.3 4.5.1.8-.1 1.6 0 2.3l3.9 38.7a3.07 3.07 0 0 0 1.1 1.8 18.48 18.48 0 0 0 3.9 1.5l-1.16-50.1zm67.8 75.5l-1.6-40.4c0-.6-.3-1.6-.8-1.8-1.9-.9-3.9-1.6-6.1-2.5l1.7 42.1zm-92.9-98.7l62.3 15.4c.5-4.9.5-4.9-4-5.9l-22.1-4.7-36.4-7.9c.14 1.24.24 2.24.24 3.1zM375.74 148a193.24 193.24 0 0 0-11.7-31.1 1.81 1.81 0 0 0-1.4-1c-1.8 0-3.7.2-5.9.3a118.56 118.56 0 0 1 10.5 34l8.5-2.2zM277 275.46c-1.7 2.4-3.8 4-6.2 2.5-2-1.2-3.3-3.4-5-5.4-1.8 10.4-6.2 19.5-12.2 27.9a6.72 6.72 0 0 0 3.3-1.5c2.7-3 5.3-5.6 9.5-7 5-1.6 9.4-4.9 14.2-7.5l-3.6-9zm106 33l-2-35.9a35.38 35.38 0 0 1-3.4 1.7c-2.4.8-3.2 2.4-3 4.9l1.4 27.7a6.52 6.52 0 0 0 .3 1.6zM305.24 502l-1.1-37.9c-.1-3.6-.8-3.9-5.3-3.7-.1.2-.2.3-.2.5l.8 37.5a2.71 2.71 0 0 0 1.4 1.9 36.81 36.81 0 0 0 4.4 1.7zm-28.4-11c0-1.2.1-2.2 0-3.1l-3.5-33.8c-.5-4.9-.7-5-5.7-4-.2 0-.3.2-.6.4.1.9 0 2 .2 3.1l4.5 32c.6 4.16.4 4.26 5.1 5.4zm13.3-68.7v-41.2l-5.1.2v39.9c1.9.36 3.4.66 5.1 1.06zm-115.6 186.1c-5.1-8.1-8.5-9.5-16-6.9-5.8 2.1-8.2 5.2-7.6 10.2a59.81 59.81 0 0 0 23.6-3.34zm190.6-457.6q-.9-4.2-1.8-8.1l-2.4-9.5c-.7-2.5-2.9-2.6-4.9-2.3-2.3.3-1 2.3-.9 3.3.9 6.1 2.1 12.1 3.2 18.4l6.8-1.84zm92.8-48.1l2.9 23.4 4.6-1.4-2.1-22zm-24.4 404.5a3 3 0 0 0-.8.4v43.3c.9.3 1.8.5 2.9.9l-1.1-42.3a4.78 4.78 0 0 0-1-2.34zm-3.6-11.4l-15-4.8c.1 2.2.1 4 .3 5.6.1.7.5 1.7 1.1 1.9 4.2 1.7 8.5 3.2 13 4.8.1-2.64.3-4.84.6-7.54zm-159.7-201.6l6 7.3 8.7-5.9-2.9-7.2c-4.1 1.86-8.04 3.86-11.8 5.76zm140.7 202.5v-7l-13.9-4.2c.1 1.6.1 3 .3 4.3.2.9.6 2.1 1.3 2.3 3.9 1.56 7.9 2.96 12.3 4.56zm-100.1-173.4l-6.2-8.6c-1.8 2.4-3.6 4.2-4.8 6.4-.6 1-.6 3.1.1 3.8a5.11 5.11 0 0 0 3.9 1.4c2.16-.54 4.3-1.84 7-3.04zm69.4 156.7c.7 2.5.7 5.4 1.9 6 3.5 1.9 7.5 2.9 11.5 4.3 0-1.8.1-3.4 0-4.9a2.25 2.25 0 0 0-1-1.6l-12.4-3.8zm-134.4 118.7a26.38 26.38 0 0 0-3.9 15.6c1.1-.4 1.9-.8 2.6-1 2.6-.5 3.2-2 2.7-4.5l-1.4-10.14zm132.3-119.5l-10.6-3.4c-.2.1-.5.3-.7.4.6 1.7.7 4.3 1.9 5 2.6 1.6 5.8 2.2 9 3.3a51.06 51.06 0 0 1 .4-5.34zm-79.7-173.3a81.78 81.78 0 0 0-5.2 6.4 3.38 3.38 0 0 0 0 3.1 3.6 3.6 0 0 0 3.3.7 62.67 62.67 0 0 0 6.2-3.9c-1.5-2.34-2.74-4.04-4.3-6.34zm6.2 153.8c.3-.3.7-.6 1-.9.8-6.9-.5-8.6-6.7-8.5-1.2 5.4-.8 6.8 1.8 6.9.3-.6.5-1.2.6-1.4 1.2 1.36 2.2 2.66 3.3 3.86zM288.34 308l8.8-4.1-4.3-4.7c-2.5 2.26-4.84 4.36-4.5 8.8zM426 42.46c6.9-1.9 6.5-.7 5.7-7.3-6.36 1.2-6.36 1.2-5.7 7.3zm-72.4 431.4c.1 2.5 3.9 4.4 10.2 5.5.1-1.4.1-2.8.2-4.2-3.66-.4-7-.9-10.36-1.3zm-47-162.8l-.5.5c1.2 1.6 2.3 3.2 3.6 4.7a2.23 2.23 0 0 0 1.3.6c2.6-.1 5.2-.4 7.8-.6.2 0 .3-.2.6-.4l-.3-2h-5.4c-2 0-4.3.9-5.4-1.9-.06-.4-1.06-.6-1.66-.9zm9-238c-2 .6-3.9 1.3-5.9 1.9l.3 5.1c6.94-2 6.44-.8 5.64-7zm5.4 406.1h.6v-26.5h-.6zm.4 28.9h.4v-27.4h-.4zm-143.1 97.7l.9.3c3.4-1.7 3.7-3.3 1.5-9.3l-2.36 9zm255.9-109.2c-.4-.1-.8-.1-1.3-.2-.1 2.6-.3 5.1-.2 7.7 0 .4.9.7 1.5 1.2zm-121.8-185.4a2.92 2.92 0 0 1 .2.9l6.7-.7c-.1-1.3-.1-2.3-.2-3.6l-6.66 3.4zm37.5 163.6c-1.2-1.9-4.4-2.6-6.6-1.7 2.24.5 4.24 1.1 6.64 1.7zm-235.5 62.4l.2-.2c-.1-.1-.2-.1-.3-.2l-.2.2c.14.1.24.1.34.2z" class="r"/><path d="M494.44 535.36c0-.2-.1-.4-.1-.7a7.34 7.34 0 0 0-2-.5c-4.7-.6-7.9 1.5-7.8 5.3l.8 28.8a11.43 11.43 0 0 0 .9 3c.3 0 .6-.1.9-.1l.3-3-.1-26.1c-.1-3.1.8-4.8 3.9-5.3a11.52 11.52 0 0 0 3.2-1.4z" fill="#fcfcfc"/><path d="M539.74 114l-19 4.6-57.7 14.5c-8.2 2.1-16.5 4-25.1 6v-4.9l27.8-7.3 74-19.1z" class="p"/><path d="M225.94 623.36v.6h-8.7v-.7l8.7.1z" class="b"/><path d="M217.14,623.26v.7h-4.4v-1Z" class="w"/><path d="M212.74 623v1h-1.1v-1.2c.36.06.8.06 1.1.2z" class="b"/><path d="M520.34 39.66c-1-.3-2.1-.9-3-.7l-14.9 4.1-17.2 4.9a3.37 3.37 0 0 0-1.7 2.8c.4 3.7 1.2 7.3 1.9 11 .2 1.3.6 2.6.9 3.8-4.3 1.4-8.4 2.7-12.4 4.3-3.4 1.3-3.7 2.4-2.8 5.9l2.8 10.4c-3.5.5-6.6 1.1-9.7 1.4-2.7.3-3.4 1-2.9 3.7l1.7 8.7a46.17 46.17 0 0 0-5-.2c-2.7 0-3.9 1.4-3.4 4l4.6 22.6-21.7 5.6v-12.6l-1.5-73.6c-.1-2.4.7-3.2 2.9-3.9q43.35-13.95 86.8-28.1c1.4-.4 2.8-.9 4.1-1.3 2.4 3 2.1 3.8.8 7.3-1.2 3.2-1.5 6.8-2.1 10.2a10 10 0 0 0-.4 2.4c-.6 4.7-3.5 6.8-7.8 7.3z" class="t"/><path d="M16.14 460.16c5.2 7.1 10.1 14.4 15.7 21.2 10 11.9 20.3 23.5 32.2 33.5a5.8 5.8 0 0 1 1 1.2l-5.6-3.6c-18.8-12.4-31.5-30-42.3-49.2a18.61 18.61 0 0 1-1-3.1z" class="d"/><path d="M190.64,179.06l-6.3-14.1c-1.6-3.6-3.3-7.3-4.7-11-.4-1,.1-2.3.3-3.4a21.36,21.36,0,0,1,3.4.9c.7.3,1.1,1.2,1.5,1.9,4.2,8,6.8,16.3,6.7,25.4Z" class="o"/><path d="M149.94 219.76c-8.1-4.5-15-10.6-21.5-17.1-.7-.7-.5-2.2-.7-3.4 1.1.2 2.6-.1 3.3.5 5.8 5.1 11.5 10.4 17.2 15.7a15.39 15.39 0 0 1 2.3 3.7 1.7 1.7 0 0 1-.6.6z" class="r"/><path d="M135.44 268.06c-7.4 2.5-14.4 1.3-21.2-1.2a8.54 8.54 0 0 1-2.8-1.6 5.23 5.23 0 0 1-.8-2.3 6 6 0 0 1 2.2-.6l19.3 4.3a13 13 0 0 1 3.3 1.4zm72.8-62.06c-6.9.3-10.3 4.2-11.9 10.2A5.5 5.5 0 0 1 195 218c-.5-.6-1.4-1.2-1.5-2-.9-4.5 3.9-11.6 8.4-12.5 2.74-.5 4.34-.04 6.34 2.5z" class="o"/><path d="M70.84 521.76l.9 9.4c-2.5-2.8-2.8-6-.9-9.4zm-4.6-4.76l1.6 1.2-1.6-1.2z" class="d"/><path d="M207.34 622.16c.4.1.7.1 1.1.2a5.16 5.16 0 0 0-1.1-.2z" class="b"/><g class="d"><path d="M71.64 531.16c.1.4.3.7.4 1.1a7.6 7.6 0 0 0-.4-1.1zm-2.7-12l1 .7a8.65 8.65 0 0 0-1-.7z"/><path d="M69.94 519.86c.2.2.4.3.6.5a2.65 2.65 0 0 0-.6-.5zm.6.4a2.51 2.51 0 0 0 .4.7 1.61 1.61 0 0 1-.4-.7zm-2.2-1.6c.2.2.4.3.6.5-.1-.16-.4-.3-.6-.5z"/><path d="M67.74 518.16c.2.2.4.3.6.5a3.81 3.81 0 0 0-.6-.5zm-2.1-1.7c.2.2.4.3.6.5a2.65 2.65 0 0 1-.6-.5zM65 516c.2.2.4.3.6.5a2.65 2.65 0 0 1-.6-.5z"/></g><path d="M179.54 334.46c7 8.7 11.3 18.8 14.2 29.5 6 22.4 4.7 44.9-1.2 67.1-9.1 34.8-27 64.2-55.4 86.8-2.6 2.1-5.5 3.8-8.3 5.7-.4.2-.7.4-1.1.6l-17 5.3c-6.7 1.9-13.4 3.9-20.5 2.4-3.1-.6-6-1.5-7.8-4.2l3.2-.3c-.8-1.2-1.5-2.4-2.3-3.6-.2-1.4-.5-2.8-.7-4.3a25.57 25.57 0 0 1-1.1-2.4c-.5-.6-1.1-1.1-1.6-1.7-.8-.7-1.5-1.4-2.3-2.1l-.9-.6-1.3-1c-.5-.4-1-.7-1.5-1.1s-.8-.7-1.2-1a14.31 14.31 0 0 0-1.5-1.1 14.7 14.7 0 0 0-1.3-1l-.9-.6c-.4-.4-.9-.7-1.3-1.1l-3.1-2.2-1.3-1c-1-.8-2.1-1.5-3.1-2.3-.4-.3-.8-.7-1.2-1l-1.5-1.2c-.6-.5-1.2-1.1-1.8-1.6l-8.7-8.7a15 15 0 0 1-1.1-1.3c-.4-.5-.7-1-1.1-1.5s-.7-.9-1.1-1.3l-.6-.9a14.7 14.7 0 0 1-1-1.3l-.6-.9-1-1.3-.6-.9-1-1.3-.6-.9c-.4-.4-.7-.9-1.1-1.3l-.6-.9c-.4-.4-.7-.9-1.1-1.3l-.6-.9-1-1.3c-.6-.8-1.2-1.7-1.7-2.5a11.32 11.32 0 0 0-1-1.3c-.8-1.4-1.5-2.8-2.3-4.2l-2.6-4.7a22.5 22.5 0 0 1-.8-2.4c-.3-.5-.5-.9-.8-1.4l-1.4-4.1c-.3-.5-.5-.9-.8-1.4-.5-1.7-1-3.4-1.4-5.1-.1-.4-.2-.7-.3-1.1l1.8-4.6a10 10 0 0 0 .8-1.4c.5-1.3.9-2.6 1.4-3.8-.1-.4-.1-.8-.2-1.1l1.2-2.1c.2-.2.3-.5.5-.7l3.2-4.8c.1-.2-.4-.7-.6-1l.8-7.1.3-.9a19.45 19.45 0 0 1-2.2.8c-.9.5-2.1.8-2.8 1.6-2.4 2.8-4.6 5.8-6.8 8.7a14.31 14.31 0 0 1-1.1-1.5c0-.4-.1-.7-.1-1.1-.1-.7-.3-1.4-.4-2.2 0-.4-.1-.7-.1-1.1-.1-.7-.3-1.5-.4-2.2 0-.4-.1-.7-.1-1.1-.1-.9-.3-1.8-.4-2.7-.1-1.1-.2-2.2-.2-3.3v-13.1c.1-1.6.1-3.3.2-4.9.1-1.1.3-2.2.4-3.2.1-.5.1-1.1.2-1.6l.3-1.6c.1-.5.1-.8.2-1.1.3-.9.7-1.7 1.3-3.3.6 1.6 1 2.5 1.3 3.5 1.6 4.1 3.1 8.3 4.9 12.4a12 12 0 0 0 3.1 3.7 1.76 1.76 0 0 0 3-.9c.2-.7.9-2.7-1.3-2.8a25 25 0 0 0-.7-2.6c-.2-.6-.4-1.2-.6-1.7-.3-1.4-.4-2.8-.8-4.2l-6.2-18.8 3-10c.4-.4.7-.9 1.1-1.3.1.4.2.7.3 1.1.2-.1.4-.3.6-.4a5.5 5.5 0 0 1-.9-.7v-.7l1.8-3.2c.4.3.8.7 1.4 1.2l3.5-6a16.29 16.29 0 0 0 1.1-1.7v.1l6.6-7.7c0-.1.1-.1.1-.2s-.1-.2-.1-.3a2.65 2.65 0 0 0 .5-.6c.6-.7 1.1-1.4 1.7-2.2a12.13 12.13 0 0 1 1.4-.5c.2-.2.5-.4.7-.6l.6-.6 6.2-2.3c11.5-4.7 23.7-4.2 35.8-4.8l7.8 9.4a5.72 5.72 0 0 0 .8-.7l-6.9-8.6c2.5.3 5.1.4 7.5.8l48.1 8.7c7.2 1.2 14.5 1.4 21.3-2 2.1-1 3.7-3.2 5.5-4.8.2-.4.7-1 .6-1.3a28 28 0 0 0-1.5-3c1.8 1.2 3.7 2.4 5.5 3.7 1.4.8 3 2 4.7 3.2zm-45.4 58.3a10.63 10.63 0 0 1 1.1.9c0-.3.1-.6.1-.9-1.1-1.2-2.1-2.4-3.2-3.6 0 .1-.1.1-.4.5.8.9 1.6 2 2.4 3.1zm47-39a10.71 10.71 0 0 1 1.5 2.2c.5 1.3.9 2.7 1.3 4 1 5.8 2.5 11.5 3.1 17.3a208.34 208.34 0 0 1-3 59.5l-4 13.5a2.35 2.35 0 0 0 .8.2c2.4-4.2 3.2-9 4.1-13.8.8-2.9 1.7-5.8 2.4-8.7 5.6-22.9 5.8-45.7-2.4-68.2l-4-11.8c-.2.1-.3.1-.5.2.2 1.4.5 2.7.7 4.1-.3 0-.7.1-1 .1l-16.8-1.3a5.94 5.94 0 0 0-2.6.7c.1.3.1.6.2.9l20.2 1.1zM113 403.56c6.6-6.4 18.2-24.5 17.8-27.6a6 6 0 0 0-.8.8l-16.6 25.5c-.2.4-.2.9-.4 1.3a2 2 0 0 1-.8.1c0 .1.1.3.1.4a4.23 4.23 0 0 0 .7-.5zm7.6 113l-16.3-21.4V495c-.1 0-.1.1-.5.3a20.65 20.65 0 0 0 1.5 3.4l9.1 12.9c1.5 2 3.4 3.7 5.1 5.6l-12.5 7.6c.1.3.2.7.3 1 2.1-.4 4.5-.3 6.3-1.3 9.6-4.9 19-10.2 26.8-17.9 10.5-10.4 19.2-22.3 28.1-34a34.56 34.56 0 0 0 3.2-6 2.36 2.36 0 0 0-2.1.7l-18.1 22.4c-8.56 10.66-18.5 20.16-30.86 26.86zm1.1-144.9a4.62 4.62 0 0 0 .7-.7L98 341.36a6.07 6.07 0 0 0-1 .7 18.92 18.92 0 0 0 1.7 2.8l19 23.3a32.34 32.34 0 0 0 4.04 3.5zm-17.2 73.4a157.85 157.85 0 0 0-1.1 37.6h1.1zm-41.9 41.8v.7c11.5 2.9 23.3 3.6 35.1 4.3 0-.4.1-.8.1-1.2l-35.16-3.8zm90.8-68.9c-.2-3.9-15.9-23.9-18.8-24.3L153.44 418zm23.7 26.2c-2.5-4.3-18.5-11.8-21.5-10.5l21.54 10.5zm-39.6-68.4c9.2-2.8 15.3-10.1 22.2-16.4l-22.16 16.4zM66 420.66a5 5 0 0 0 .2-1.2l-29-5.7c-.1.4-.1.7-.2 1.1l29 5.8zm33.1 6.5a1.85 1.85 0 0 0 .2-.7c-6.6-4-14.2-4.3-21.3-6.2-.1.4-.2.7-.3 1.1l21.44 5.8zm51.3 4.4c-10.6-.9-21.4-1.9-32.1-1v1zm-54.6-92.4a6 6 0 0 0-.8.8c.6.7 1.3 1.4 1.9 2.1.3-.2.5-.5.8-.7-.56-.7-1.16-1.5-1.86-2.2zm65 20c-.1-.1-.1-.2-.2-.2s-.1.1-.2.1l.2.2a.35.35 0 0 0 .24-.1z" fill="#fcfcfd"/><path d="M181.24 321.06l6.4 3c11.9 5.2 24.2 6.8 36.9 3.7a4 4 0 0 0 2.3-1.5c-.9-.2-1.9-.3-2.8-.5l-3-.3c.9-2.8 1.9-3.2 4.4-2 .6.3 1.2.5 1.7.8 1.8.8 1.9 2.2.7 3.4a39.48 39.48 0 0 1-3.9 2.9l-24.8 17.7c-1.3 1-3.9 2.4-2.5 4.1 1.5 1.9 3-.9 4.5-1.6.2-.1.5-.3.7-.4l-.9 5.4c3.1-3 5.9-5.9 8.9-8.4 15.8-13.5 33.7-23.5 52.7-31.6a2.73 2.73 0 0 1 2.6.7c3.1 4.8 6.2 9.6 8.9 14.6 1.5 2.8 2.1 6.1 3.3 9.2a3.14 3.14 0 0 0 1.8 1.6c.4.1 1.5-1 1.5-1.6.1-3.3 0-6.5 0-9.8-.2-.9-.3-1.9-.5-2.8-2-4.4-3.9-8.8-6.1-13.2-.8-1.7-2.2-3.1-4.5-2.8l-4.2-1.5a4.25 4.25 0 0 1-.2-1.1c-.1-4.7.9-5.4 5.2-3.5 3.7 1.7 6.7 4 8.5 7.9 5 10.5 8.8 21.3 9.5 33a26.88 26.88 0 0 1-.3 4.9 24.89 24.89 0 0 1-.6 3.2c-1.4-.3-2.6-.5-3.8-.7-.7-2.9-1.1-3-3.5-1.2-4.1 2.9-8 6-12.3 8.5a239.36 239.36 0 0 0-34.7 25.4c-3.8 3.4-6.8 7.6-10.2 11.4.3.3.5.6.8.9l8.1-5.9.9 12.1c1.9 16.6 2 33.3-2 49.6-2.7 11-6.6 21.7-9.9 32.6a68.39 68.39 0 0 0-2.3 8.9c-.8 4.4-.7 8.6 2.1 12.5 2.2 3.1 1.6 4.6-1.7 6.2-7.1 3.4-13.9 7.8-21.4 9.9-15.4 4.3-31.2 7.5-46.9 10.9-3.9.8-7.9.7-11.9 1 1.2-5.1 3.3-9.8 7.2-13.4l13.3-12.4c14.9-14.4 25.6-31.5 31.2-51.5 1.9-6.9 2.9-13.9 4.4-20.9 1.5-6 3.3-12 4.5-18.2.9-4.6 1-9.3 1.4-14 1.4-18.5-.1-36.7-7.6-53.9-3-7-7.6-13.3-11.5-20-.2-1.5-.4-3-.5-4.5a38.76 38.76 0 0 0 .1-6.8zm31.6 190.1c-.1-.3-.1-.5-.2-.8a12 12 0 0 0-2 .3l-29.5 12c-.6.2-.9 1-1.3 1.5a4.23 4.23 0 0 1 .5.7c12.4-.86 22.3-7.6 32.5-13.7zm-4.3-93.3c3.2-3.3 5.1-7.4 7.4-11.3-3.4.9-8.3 7.9-7.4 11.3zm-46.2 107.5c2.1 2.2 6 1.5 9.5-1.3-3.4.4-6.5.8-9.5 1.3z" class="s"/><path d="M527.94 317.16c2.8 7.4 2.6 15.1 2.5 22.8a6.56 6.56 0 0 1-5.2 6.6 81.16 81.16 0 0 1-11 1.7c-2.4.3-4.9.4-7.3.5.6-.3 1.2-.9 1.8-.9 2.9-.3 5.8-.3 8.7-.6a42.74 42.74 0 0 0 4.8-1.3v-.9a13.73 13.73 0 0 0-2.8-.5c-5.5.2-11.2-.1-16.5 1a93.42 93.42 0 0 1-10.4 1.6q-3 .15-6 0c-2-.1-2.7.6-2.2 2.6l2.2 9.9h-14.9c-2.9 0-3.4.7-2.6 3.5l2.5 8.7c-2.3-.1-4.2-.4-6.1-.4-3.8.2-4.4 1.1-4 5l5.7 62.4 1.7 21.2c-1.6-.3-3-.5-4.3-.8l-18.6-3.9c-1.6-.3-2.3-.8-2.3-2.6q-1.2-66.6-2.5-133.3c0-.4.1-.9.1-1.5a15.17 15.17 0 0 1 2.1-.3l83.6-.6c.2 0 .6.1 1 .1z" class="t"/><path d="M526.64 119.56c2.6 2.1 3.4 5 3.5 8.2.2 5.5.9 11.1-1.2 16.4-1.7-.1-3.4-.3-5.1-.4-4.2-.2-5.1.6-4.9 4.7.1 1.2.1 2.3.2 3.8-10.6 2.3-20.8 6.8-31.9 6.2-1.4-.1-2.8-.6-4.3-.8a15.26 15.26 0 0 0-3 .3c.1 1.1-.1 2.4.5 3.2 1.8 2.7 3.6 5.4 3.8 8.8-3.4.7-6.6 1.5-9.9 2-2.2.4-3.1 1.6-2.9 3.8l1 12c-3.7.7-7 1.3-10.4 1.8-3.9.6-4.1.9-3.4 4.8l2 12.2c-2.3.1-4.3.3-6.2.4-3.7.2-4.9 1.3-4.6 5.1.4 4.6 1.1 9.2 1.4 13.8l4.2 57.1c.4 7.1.1 14.3.1 21.9l-14.5.6c-.1-1-.2-1.7-.2-2.4q-1.35-78.75-2.8-157.6c-.1-2.9.6-4 3.5-4.7l85.1-21.2zm-202.2 95.7v-12.2l-1.2-30c-.1-1.5.1-2.5 1.9-2.9q50-12.45 99.8-25h.8v29l-5.8 1.4c-1.3.4-2.4 1.4-3.7 2a4.49 4.49 0 0 1-1.9.5c-3.4.1-6.7 0-10.1 0-3.1 0-3.9.8-3.8 3.9.2 4.1.5 8.1.8 12.6h-10.8c-3.8 0-4.2.5-4 4.3l1.3 23.6a38.51 38.51 0 0 0-5.2.7 5 5 0 0 0-4.3 5.5c.2 3.6.6 7.2.9 10.9l.9 15.2a12.5 12.5 0 0 1-.3 1.9c-.3 0-.5.1-.8.1-.7-2.1-1.5-4.2-2-6.3-3.1-14.1-8.8-27.1-15.2-39.9-1.3-2.6-2.8-5.2-3.3-8-.8-4.3-3.6-4.8-7.7-2.7-3.7 1.9-7.2 4.3-10.7 6.5l-14.6 9c-.3 0-.6-.1-1-.1zm99-168.26v22.4q-11.85 1.5-24 3a12.21 12.21 0 0 1-2.7-.1c-3.4-.6-3.8-.2-3.5 3.3l.3 3.7-23.3 5.8c-1.9.5-2.5 1.6-2 3.4l2.6 9.3c-4.2.3-8.2.5-12.2 1-3.6.5-4.4 2.4-2.4 5.5l5.6 8.5c-2.1.3-3.9.4-5.6.7-2.8.6-3.4 2.3-1.9 4.8s2.6 5 3.8 7.5c.3.7.5 1.5.8 2.3-7.7.3-7.8.5-6.3 8 1.1 5.6 2 11.3 3 17.3l-32.9 8.6c-.1-1.6-.2-2.8-.2-4l-3.5-73.5c-.1-2.6.5-3.7 3.1-4.6l97.3-31.5a26.37 26.37 0 0 1 4-1.4zm-71.6 388.16l-17.3-3.5c-.6-.1-1.1-1.9-1.1-2.9l-1.1-48.5q-.6-29.7-1.4-59.4v-2.3l98.8-.8v23l-12.7 1-58.1 4.7c-3.2.3-6.4 1-9.6 1.6-2 .4-2.7 1.7-2.6 3.8l3.8 79.2a12.81 12.81 0 0 0 1.4 3.7c.06.24 0 .3-.1.4z" class="x"/><path d="M249.84 188.46l30.6-7.1 28.8-7.2c.8-.2 1.6-.3 2.7-.5.3 4 .5 7.9.7 11.8l1.9 34a4.09 4.09 0 0 1-2.4 4.3l-21 13.1c-3.6 2.3-7.1 5-11.1 7.8-3.6-16-16.6-20.1-30.2-23.3l-1-32.8c.4 0 .7-.1 1-.1z" class="t"/><path d="M249 181.56l-1.2-34-1.2-40.9c-.1-1.7.3-2.6 2.1-3.2l56.5-18.3a11.34 11.34 0 0 1 2-.5l1.2 24.9-28 2.5c-.7.1-1.9.3-1.9.6a4.34 4.34 0 0 0 .5 2.5l7 12.3a8.33 8.33 0 0 1 .7 2.1c-4.3.9-8.4 1.9-12.5 2.6-3.5.7-3.9 1.4-2.3 4.5 5.7 11.1 8.3 23.2 11.1 35.5l-14.9 3.9-15 4a12.11 12.11 0 0 0-2.8 1.8l-1.3-.3z" class="x"/><path d="M216.64 274.16c.3.1.7.1 1 .2l2.2 2.2a38.33 38.33 0 0 0-3.3 4.6c-.4.7.1 1.9.2 2.9.9-.2 2.3-.1 2.6-.7 1.7-2.6 3.7-2.3 6.4-1.8 10.7 2 20-1.5 28.5-7.9a42.41 42.41 0 0 1 5.6-3.8c.9-.5 2.2-.2 3.7-.3-4.3 17.4-13.1 31.1-26.6 41.7-4.8 3.8-10.1 7-15.2 10.5-.4.3-1.1.5-1.3.9-1.8 3.4-4.9 3-8 2.9-10-.4-19.7-1.9-28.5-6.9v-2.8c1.5-2.7 3.9-1.7 6-1.5a22.05 22.05 0 0 0 13.6-2.2c1.6-.1 3.3-.3 5.4-.5-1-.7-1.4-1-1.8-1.3s-.7-.3-1-.5c-1.8-1.3-3.5-2.8-5.4-3.9-5.2-3-9.7-6.8-12.6-12-5.6-9.9-6.9-20.6-6.3-31.8a19.73 19.73 0 0 1 7.4-14.6c1.7-1.4 3.8-2.1 5.8-3.2a46.05 46.05 0 0 0 7.9 20.2c.1.2.3.3.4.5.6.7 1.2 1.5 1.8 2.2l2.4 2.4a2.18 2.18 0 0 1 .5.4c.2.2.4.3.6.5l1.5 1.2h.1a10 10 0 0 0 1.4.8c.2.1.5.2.7.3 1 1.6 2.4 2.4 4.3 1.3zm-6 7.4c2.8-2.7 2.9-4.4.5-6.8-.5-1.3-1-1.3-1.6-.1-2.8 2.1-3 4.5-.5 7 .5 1.2 1.1 1.2 1.6-.1z" class="w"/><path d="M522.44 189.56l-12.2 1.3c-2.3.2-2.3 1.5-2.1 3.2.7 6.7 1.8 13.3 2.1 20l1.7 62.1c.2 8.6 0 17.2 0 26.1l-17.1.8a6.15 6.15 0 0 1-.3-1.1l-2.3-64.5-1.5-39.5c-.5-9.5-1.6-19-2.7-28.5-.3-2.6-1.3-5-2.1-8 11.5 1.1 22.2-2.6 33-5.4l3.5 33.5z" class="u"/><path d="M178.34 534.36c6.7-1.7 13.4-3.1 20-5.3 6.3-2.1 12.4-4.9 18.8-7.5l21.8 25-15.7 3.3c0 .2.1.5.1.7 5.9 1.2 11.7-.3 17.9-.8l4.1 42.1a6.14 6.14 0 0 1-1.4 5.1c-2 2.6-3.2 5.8-4.7 8.7-2.8-4.4-5.1-10.2-12.2-9.3-6.9.9-11.5 4.6-13.2 12.2-2.5-4.9-6.3-7.5-10.7-9.3-.2-4.2-.6-8.3-.7-12.5-.2-9.5-.7-19-.3-28.5.2-5.8-1-10.3-6-13.8-5.8-4.1-11.4-7.8-17.8-10.1zm38 21.7a.37.37 0 0 0 .1.3l19.6-.1c1.4 0 2.7-1.2 4.1-1.8-.1-.2-.2-.5-.3-.7l-23.5 2.3zm11.4 4.8c0 .3-.1.5-.1.8a34.9 34.9 0 0 0 4.4.5c.3 0 .7-.7 1-1-.5-.3-.9-.9-1.4-.9a31 31 0 0 0-3.9.6z" fill="#fbfbfb"/><path d="M341.24 515.26a2.14 2.14 0 0 1-.6.1c-5.3-1.6-5.3-1.6-5.4-7.1l-1.4-62.9v-3.3l96.8 24.2c2.1.5 3 1.2 3 3.5l-.1 23-4.9-1.4-57.9-18.9c-6.5-2-13.5-2.5-20.3-3.5-2.4-.4-4.9-.6-7.3-.8-3.3-.3-4.2.4-4 3.7l2.1 41.4a13.33 13.33 0 0 0 0 2z" class="i"/><path d="M520.14 488.66v12.2c.1 2.5-1 3.4-3.2 3.1-2.8-.4-5.5-1-8.2-1.6-4.3-.9-8.5-1.9-12.8-2.9a5 5 0 0 1-1.4-.8c-1.3-.7-2.4-1.9-3.8-2.2-6.5-1.2-13.1-2.1-19.6-3-2.8-.4-2.5 1.6-2.3 3.4l1.5 18.2v1.7c-1.7.3-3.3.5-4.8.9-5.5 1.6-6.7 3.6-6.5 9.3l.8 30.5c0 1.1-.1 2.1-.2 3.5l-13.2-5c-.7-.3-1.2-1.7-1.2-2.6l-.8-48-.6-32.2V470c1 .2 1.8.2 2.6.4l72.9 18a1 1 0 0 1 .8.26z" class="x"/><path d="M432 44.26q5.25 262.35 10.5 524.6c-2.4-.2-3.5-1.5-3.5-4.6l-5.1-210.9q-2.1-84.6-4.4-169.3-1.65-66-3.4-131.9v-1.1c-.16-5.8-.16-5.8 5.9-6.8z" class="q"/><path d="M138.24 541.26l21.6-2.7a2.16 2.16 0 0 1 1.7.5c5.3 5.6 11.7 9.7 18.4 13.3.3.2.6.5 1.3 1.1l-19.8 1.2v1c6.2 1.9 12.5 1.6 18.9 1.3v7.7l.2 27.8a6.47 6.47 0 0 1-1.3 3.1c-1.4 2.2-3 4.2-4.6 6.5a11.93 11.93 0 0 0-13-5.3c-5.1 1-9.8 2.9-13.2 7.8-2.7-7.4-6.9-12.4-15.4-11.4a47.63 47.63 0 0 1 8.4-31.9c1.1-1.7 1.3-2.8.3-4.6a26.76 26.76 0 0 1-3.5-15.4z" class="s"/><path d="M311.94 319.06l7.8-.4v38.5l-2.4.7c-.6 0-1.4-.2-1.8.1-2.8 2.1-5.9 1.4-8.9 1.3-3.5-.1-4 .3-4.3 3.9l-.2 3.8h-8.4c-3 0-3.5.5-3.5 3.5v7.8h-5.3c-2.7 0-3.4.9-3.3 3.7l1.1 37.3a7.38 7.38 0 0 1-.2 1.2l-24.2-4.9-1.2-21.4-.9-18a4.48 4.48 0 0 1 1.4-3.1l23-16a3.32 3.32 0 0 1 2.2-.3 16.12 16.12 0 0 1 2.9.9c3.3.8 5.2-.1 5.4-3.4.3-3.8 2.5-5.6 5.3-7.5 5.9-3.8 11.8-7.9 17.6-11.8 3.2-2.2 3.5-2.9 2.1-6.6l-4.2-9.3z" class="i"/><path d="M352.74 215.26l20.4 53.1a13.28 13.28 0 0 1-1.6 1.2l-62.3 35.8a4.18 4.18 0 0 1-1 .4l2.4-15.4 3.5-20.4c0-.5-.1-.9-.1-1.4v-.1c3-4.7 3-4.7 8.4-3.6 7.5 1.5 9.6.5 13-6.5.4-.9.8-1.8 1.1-2.7l19 8.4a4.65 4.65 0 0 0 2.9.1l-3.5-3.3-1-.7c-.2-.2-.4-.3-.6-.5a12.61 12.61 0 0 0-2-2c-3.1-1.9-6.1-3.9-9.4-5.5-2.7-1.3-3.3-2.5-2-5.3 2.8-6.4 5.1-13 7.7-19.5 1.6-4.1 3.36-8.1 5.1-12.1z" class="s"/><path d="M219.84 276.46l-2.2-2.2c11.5-.7 18-7.6 18.7-20a42 42 0 0 0-6.9-25.3l7.7.5c1 .3 2 1 2.8.9a23.51 23.51 0 0 0 4.2-1.5c1.5 0 3.1-.1 4.6 0 7.6.7 15.2 1.8 20.5 8.3 1.8 2.2 3.8 4.1 5.7 6.2 5.2 8.8 1.7 26.3-2.7 31.7-.5-.5-1.1-.9-1.5-1.4-1.1-1.3-2.1-2.7-3.3-4-3.7-4.1-6.2-4.5-10.9-1.8a36 36 0 0 0-4 2.8 33.19 33.19 0 0 1-27.2 6.4c-.3-.1-.9-.1-1-.3-1.2-4.3-2.9-.5-4.5-.3z" class="g"/><path d="M20.54 370.26l6.2 18.8c.4 1.3.5 2.8.8 4.2a17 17 0 0 1-1.7-2.3l-10.3-20.6-1.5-2.7a4.88 4.88 0 0 1-.7.3l4.3 11.1-1.1 6c-.1.4-.1.8-.2 1.1l-.3 1.6c-.1.5-.1 1.1-.2 1.6l-.4 3.2-.2 4.9c-.3.3-.8.6-.8 1-.1 3.7-.1 7.4 0 11.2 0 .3.5.6.8 1 .1 1.1.2 2.2.2 3.3.1.9.3 1.8.4 2.7 0 .4.1.7.1 1.1.1.7.3 1.5.4 2.2 0 .4.1.7.1 1.1.1.7.3 1.4.4 2.2 0 .4.1.7.1 1.1l.3 2.5a9 9 0 0 0 .9-1l6.8-8.7c.6-.8 1.8-1.1 2.8-1.6.6 0 1.3.1 1.9.1l-.8 7.1-10.8 13.6-.6.6c-.3.2-.5.3-.8.5l.3.3c.2-.3.3-.5.5-.8l.6-.6 4.9-3.9h1.8c-.5 1.3-.9 2.6-1.4 3.8a10 10 0 0 0-.8 1.4l-1.8 4.6c.1.4.2.7.3 1.1.5 1.7 1 3.4 1.4 5.1.3.5.5.9.8 1.4l1.4 4.1c.3.5.5.9.8 1.4a22.5 22.5 0 0 1 .8 2.4l2.6 4.7c.8 1.4 1.5 2.8 2.3 4.2a11.32 11.32 0 0 0 1 1.3c.6.8 1.2 1.7 1.7 2.5a14.7 14.7 0 0 1 1 1.3l.6.9c.4.4.7.9 1.1 1.3l.6.9c.4.4.7.9 1.1 1.3l.6.9 1 1.3.6.9 1 1.3.6.9a14.7 14.7 0 0 1 1 1.3l.6.9c.4.4.7.9 1.1 1.3s.7 1 1.1 1.5a15 15 0 0 1 1.1 1.3l8.7 8.7c.6.5 1.2 1.1 1.8 1.6l1.5 1.2c.4.3.8.7 1.2 1 1 .8 2.1 1.5 3.1 2.3l1.3 1 3.1 2.2c.4.4.9.7 1.3 1.1l.9.6a14.7 14.7 0 0 0 1.3 1 14.31 14.31 0 0 0 1.5 1.1c.4.3.8.7 1.2 1s1 .7 1.5 1.1l1.3 1 .9.6c.8.7 1.5 1.4 2.3 2.1.5.6 1.1 1.1 1.6 1.7a25.57 25.57 0 0 1 1.1 2.4c-.1 1.1-.2 2.3-.2 3.4a236.16 236.16 0 0 1-63.4-67.6c-6.8-10.8-10.6-23-12.8-35.7a6.37 6.37 0 0 1-.2-.7 21.66 21.66 0 0 0-.4-2.5c-.1-.2-.1-.5-.2-.7-1.7-10.9-.8-21.8.6-32.6a89.77 89.77 0 0 1 2.2-12.6 51.87 51.87 0 0 1 19.3-29.1c6.1-4.5 12.7-8.3 19.1-12.5l-2.3 3.8-3.1 4.9c-.6.7-1.1 1.4-1.7 2.2a2.65 2.65 0 0 0-.5.6h-.6c-1 1.1-1.9 2.2-2.9 3.3-.1.2-.3.3-.4.5l-1.1 1.1-1.1 1.7-.6.6h.1l-6.1 7.5-1.8 3.2v.8c-.4.4-.7.9-1.1 1.3-1.8 2.9-3.2 6.2-2.8 9.9z" class="i"/><path d="M423.94 73l1.4 62.1-20.7 5.4q-3.75-32.1-7.4-63.7l13.2-1.7c4.4-.6 8.56-1.34 13.5-2.1z" class="u"/><path d="M491.94 303.46h-13.2c1.1-42.4-1.3-84.9-3.2-127.6.1 0 .3-.2.6-.3 2.8-.8 5.6-1.5 8.8-2.3.6 6.2 1.4 12.3 1.7 18.5l3.3 72.4 2 39.3zm-87.7-121.6h11.4q3 62.1 6.1 124.6l-5.4.3h-5.4q-3.3-62.25-6.7-124.9z" class="l"/><path d="M253.44 376.26l5.5 109.1c.1 2.2 1.1 3.2 3 3.9l32 12.4 26.2 9.9c1.9.7 2.6 1.6 2.4 3.6s0 4 0 6.4l-2.5-.9q-32.55-12.9-65.1-25.7c-2-.8-2.5-1.7-2.6-3.7q-1.65-54-3.6-107.9c-.1-3.9 1.6-5.5 4.7-7.1z" fill="#f3f3f5"/><path d="M389.74 198.36h11.1l6.4 109h-11.3q-3-54.3-6.2-109z" class="l"/><path d="M178.34 534.36c6.5 2.3 12.1 6 17.7 9.9 5 3.5 6.2 8 6 13.8-.3 9.5.1 19 .3 28.5.1 4.2.5 8.3.7 12.5-7.5-.9-12.3 3.1-15.9 9.2a248.53 248.53 0 0 1-2.5-42.1c.2-4.8-.2-9.6-.4-14.4 0-.8-.9-1.8-1.6-2.4l-15.2-10.1a14.45 14.45 0 0 1-1.9-2.1 373.38 373.38 0 0 0 12.8-2.8z" class="t"/><path d="M347.24 211.26a9.29 9.29 0 0 1-.4 1.3c-.2.4-.3.9-.5 1.3v-.1a21.16 21.16 0 0 0-1.2 2l-8 19.3c-1.5 3.7-2.6 7.6-3.9 11.5-.4.9-.8 1.8-1.1 2.7-.5 1.5-1.1 2.9-1.6 4.4v-.1c-.2.5-.5 1.1-.7 1.6-1.8.5-3.8 1.9-5.4 1.5l-42.5-9.2 62-35.3c.9-.5 1.8-.9 2.6-1.4.3.24.46.4.7.5z" class="s"/><path d="M258.64 423.56l50.8 12.4 10 2.5a2.68 2.68 0 0 1 1.6 1.7c.2 2.8.1 5.6.1 8.7l-8.2-.7c-2.5-.1-5.4-1.6-7.3 1.2l-6.7-1.8c-.4-3.5-3-4.7-6.2-5-4.8-.4-9.5-.8-14.3-.8s-5.4.7-6.1 5.4c-1.4-.1-2.8-.2-4.3-.2-3-.1-4.1 1.1-3.8 4.2.8 6.4 1.8 12.8 2.7 19.1l2.7 18.1c-2.5-.9-4.5-1.5-6.4-2.4-.6-.3-1-1.6-1.1-2.5l-2.4-40-1.1-19.9z" class="j"/><path d="M401.44 141.26q-7.95 2.1-16.2 4.2c-1.6-19.8-7.8-38.2-13.2-56.4l21.9-7.3 7.5 59.5z" class="g"/><path d="M327.14 304.06q2.25 110.4 4.4 220.5c-4.2-.1-5.2-1-5.3-5.1q-1.65-105-3.4-209.9c-.1-4.1-.1-4.1 4.3-5.5z" class="q"/><path d="M314 270l-3.5 20.4-2.4 15.4-3.7 2.6a73.28 73.28 0 0 0-4.5-6.4 70.71 70.71 0 0 0-6.5-6.9c-1.3-1.1-3.3-1.6-5-2.3a3 3 0 0 0-.5.7c-1.4-3.8-2.7-7.7-4.2-11.4-1.4-3.4-3-6.8-4.5-10.2a3.59 3.59 0 0 1-.2-1.8l2.5-8.7 29.7 1.4-4.3 27.6a2.92 2.92 0 0 0 .9.2c.7-1.9 1.5-3.8 2.1-5.7l3.7-15h.3z" class="i"/><path d="M407.24 447.06l-12.8-2.6 1.5-89.2 4.2.3 4.6.3 1.8 39.8c.4 15.5.2 31.1.3 46.6a23.76 23.76 0 0 0 .6 3.7 4.25 4.25 0 0 0-.2 1.1z" class="u"/><path d="M335.44 517.56l5.7 2.1 91.8 34.8c1.9.7 2.8 1.6 2.7 3.7-.2 2.6 0 5.2 0 8.1l-9.7-3.8q-43.95-17.4-87.8-34.6c-2-.8-2.9-1.8-2.7-4 .2-2 0-4 0-6.3z" class="l"/><path d="M472.34 362.56l14.6-1.2c3 34 .7 68.2-.6 102.6-2.4-.5-4.5-.9-6.5-1.4.8-33.7-.4-67.1-7.5-100z" class="v"/><path d="M215 222.16l4.3 1.1a4.67 4.67 0 0 1-.5 1 13.24 13.24 0 0 1 2.4 1.5c9 7.5 13.8 23.1 10.4 34.2-1.2 4-3 7.6-7.2 9.3-4.8 1.4-8.6.1-11.9-3.6-8-8.9-11.1-19.3-10-31.1.4-3.7 1.5-7.6 4.7-9.7 2.34-1.4 5.24-1.8 7.8-2.7zm11.3 25.9a9.87 9.87 0 0 0-5.4-10.8c-2.2-1-4.4-.3-4.9 2.1a44.5 44.5 0 0 0-.1 7.3h.7c-1.3 1-2.6 2.1-3.9 3.1a.76.76 0 0 1 .2.4c4.54-.6 8.94-1.3 13.44-2.1z" class="u"/><path d="M296.74 168.56a127 127 0 0 0-5.8-36.9c-.3-.8.3-1.9.5-2.5a13.62 13.62 0 0 1-2.4-2.4c-2.2-3.7-4.2-7.6-6.2-11.3l25.3-3.3a5.09 5.09 0 0 1 .4 1.4l2.8 48.7c.1 1.9-.3 2.7-2.3 3.1-4.1 1-8.1 2.2-12.3 3.2z" class="g"/><path d="M366 353.56l11.4.7c-3.2 28.8-.2 57.5-.8 86.4l-11.7-2.4 1.1-84.7z" class="v"/><path d="M390.54 443.56l-11.3-2.4c2.2-28.9-1.3-57.7 1.7-86.7l9.7.5-.1 88.6z" class="l"/><path d="M461.84 193.36l10.6-2.9 3.6 113.6-4.2.2h-4.4l-.3-6.2-.5-54.5c-.3-10.6-1.5-21.2-2.5-31.8-.4-6.1-1.4-12.1-2.3-18.4z" class="m"/><path d="M407.24 447.06c.1-.4.1-.7.2-1.1 2.5.2 3.6-1 3.6-4.3.1-5.6.2-11.3 0-16.9l-1.9-62.4c-.1-2-.3-3.9-.5-6.2l10.4 1.2v92.4l-11.8-2.7z" class="n"/><path d="M374 308.76l-43.4 2 .1-8.2c0-.5.6-1.1 1.1-1.4l39.4-23c-1.2 10.4.74 20.3 2.8 30.6z" class="i"/><path d="M351.84 435.16c.2-.1.2-.2.1-.3a12.44 12.44 0 0 1 1.6.4c.7-28-.9-55.8-3.2-83.6a46.9 46.9 0 0 0 5.8 1.7 41.42 41.42 0 0 0 6.1.1v84.3l-10.4-2.6z" class="m"/><path d="M85.84 328.76c-12.1.6-24.3.1-35.8 4.8l-6.2 2.3 1.5-2.4c1.2-1.7 2.4-3.5 3.5-5.2 6.9-4.5 14.7-6.2 22.6-7 14.6-1.5 28.7 1.8 42.8 5q18.6 4.2 37.2 7.8a23.41 23.41 0 0 0 13.6-1.3 12 12 0 0 0 2.6-1.8 11.41 11.41 0 0 0 1.1-1.1c.4.5.7 1.1 1.1 1.6-1.8 1.6-3.4 3.8-5.5 4.8-6.8 3.4-14.1 3.2-21.3 2l-48.1-8.7c-2.5-.4-5-.6-7.5-.8l-1.4-1.1a1.82 1.82 0 0 1-.2 1.1z" class="c"/><path d="M246.94 220.66h-3.3l-.2-3q-1.8-58.65-3.7-117.4c0-1.4-.1-2.3 1.6-2.9l64.1-21c.3-.1.7-.1 1-.2 1.1 4.8 1 4.9-3.2 6.3l-56.4 18.3c-2.7.9-3.6 2.1-3.5 5l2 64.6 1.6 48.2a14.64 14.64 0 0 1 0 2.1z" class="k"/><path d="M430.64 358l2.5 94.6-8.7-1.8c-.5-.1-1.1-1.1-1.2-1.7q-.15-3.15 0-6.3.75-37 1.4-74.1a44.6 44.6 0 0 0-.3-7.3c-.3-2.4.5-3.4 2.8-3.4z" class="v"/><path d="M203.54 312.06a21.37 21.37 0 0 1-13.6 2.2c-2.1-.3-4.6-1.2-6 1.5l-1.7 2.1-8.8-4.8c-1.6-.8-1.7-2-1.2-3.6 3.4-12.3 5.6-24.8 5.2-37.6a36.26 36.26 0 0 0-.8-7.3 7.55 7.55 0 0 1 1-6.2c4.4-7.5 10.3-13.7 17.2-20l.3 5.9c-1.9 1-4.1 1.8-5.8 3.2a20.07 20.07 0 0 0-7.4 14.6c-.6 11.2.7 21.9 6.3 31.8a31.61 31.61 0 0 0 12.6 12c1.9 1.1 3.6 2.6 5.4 3.9-7.3-.9-13.7-3.5-18.1-10-1.1 2.3-.7 3.7 1.2 5.8 3.8 4.2 8.8 5.8 14.2 6.5z" class="i"/><path d="M426.34 178.16l3 128-4.9.2c0-4.5.2-8.8 0-13.1l-3.9-91.5-1-18.8c-.2-2.7.5-4.1 3.3-4.2a17.11 17.11 0 0 0 3.5-.6z" class="h"/><path d="M433.34 463.56l-22.1-5.4-73.3-17.7c-4.7-1.1-4.7-1.1-4.1-6.3l14.3 2.9 69.9 15.1 13.1 2.8c1.6.3 2.4.9 2.2 2.7a57.9 57.9 0 0 0 0 5.9z" fill="#f3f3f5"/><path d="M472 461l-7.4-86.4 3.3-.3s2.5 0 4.4 0c3.3 29 5.3 58.1 4.7 87.7-1.86-.44-3.66-.84-5-1z" class="m"/><path d="M310.44 83.56l5.4-1.8 1.2 28 4 105.1c.1 3.8.1 3.8-3.2 5.1q-3.6-68.1-7.4-136.4z" class="k"/><path d="M453.74 210.76l7-.7c4.6 31.4 1.7 62.9 3.2 94.5-1.4.1-2.9.2-4.2.2l-6-94z" class="n"/><path d="M473.44 73.26l13.6-6.2 4.7 50.8-12.2 3.2c1.1-16.3-1.9-32-6.1-47.8zm-60.3 469.9c-5.1-1.9-9.4-3.6-13.6-5.3a2.47 2.47 0 0 1-1-1.6l-.8-40.3a3.26 3.26 0 0 1 .3-1l12 4.3a1.94 1.94 0 0 1 .9 1.4l2.2 42.5z" class="l"/><path d="M422.94 37.76c.5 5.7.5 5.7-4.4 7.3q-48.45 15.6-96.8 31.3l-2.9.9-.4-5.2 104.5-34.3z" class="h"/><path d="M429.24 549.36l-12.1-4.6-1.3-43.5 12.6 4.5c.4.2.7 1.2.7 1.8l.1 41.8z" class="g"/><path d="M308.84 450.56l9.4.5.9 56.1-10.2-3.8-.1-52.8z" class="l"/><path d="M385.84 308a76.75 76.75 0 0 0 .3-8.3q-1.5-28.05-3.3-56.1c-.2-3.9-.9-7.8-1.3-11.6-.6-5.4.6-6.6 6.4-5.8l5.2 81.8z" class="h"/><path d="M195.24 438.26c-1.4 7-2.5 14.1-4.4 20.9-5.6 20.1-16.2 37.1-31.2 51.5l-13.3 12.4c-4 3.6-6.1 8.3-7.2 13.4l-5 .7c2.4-3.7 4.6-6.6 6.3-9.8 1-2 1.2-4.4 1.7-6.6.2-.7.1-1.6.6-2 25.4-21.4 42.1-48.4 52.1-79.9a1.54 1.54 0 0 0 .4-.6z" class="j"/><path d="M381.44 489.06l11 4a3.49 3.49 0 0 1 1.4 2.5c.4 6.2.7 12.3.8 18.5v22l-11.7-4.5-1.5-42.5z" class="l"/><path d="M429.44 308.76v6.6l-98.5 1-.2-3.1 39.8-1.8c6.3-.4 12.5-.2 18.8-.9 6.6-.6 13.2-.6 19.8-.9l20.3-.9z" class="q"/><path d="M311.44 426.86l-8.9-1.9 3.6-62.2 5.6-.7c1.9 21.6-.9 43-.3 64.8z" class="n"/><path d="M323 168.36v-4.1l102.2-26.6.3 5-102.5 25.7z" class="k"/><path d="M275.64 305.36l12.3-7.8c-1.3 3.4-2.6 5.9-3.1 8.5-.6 3.1 1.3 4.7 4.4 5 .3 2.1.1 4.5 1.1 6.1s3.2 2.4 5 3.6a20.31 20.31 0 0 0 .4 4.7c1.4 3.9 5 5.5 9.3 4.6a47.53 47.53 0 0 1 5.7-.6c.1-.4.3-1.6.6-3.2 3 4.2 2.9 5-.5 7.4l-18.7 13.2c-2.9-14.86-5.2-29.8-16.5-41.5z" class="m"/><path d="M294.24 169.26l-9.2 2.4c-2.3-12.5-5.4-24.6-10.9-36.2l13.6-3.6c3.8 12 5.26 24.5 6.5 37.4z" class="l"/><path d="M287.14 445.26l2.3.3c6.6.8 6.5.8 6.6 7.2l.5 43.8v2l-7.5-2.9a2.72 2.72 0 0 1-1-2.2l-.5-26.4-.4-19.1z" class="n"/><path d="M293 369.76l9.2-.6-2.8 54.7a3.93 3.93 0 0 1-.6.2c-6.5-1.6-5.8.3-5.9-7.1v-33.5c0-2.2.6-4.3.1-6.5s0-4.7 0-7.2z" class="m"/><path d="M354.24 479.16l8.3 3.1a2.71 2.71 0 0 1 1.4 1.9l2 40.9-10.1-3.9c-.3-.1-.6-.9-.6-1.3l-1-40.7zm13.6 5l8.5 3.1a2.26 2.26 0 0 1 1.3 1.7l2.1 41.5c-3.5-1.3-6.6-2.4-9.7-3.7a2.07 2.07 0 0 1-.9-1.7l-1.4-39.4c0-.5.1-.8.1-1.5z" class="v"/><path d="M138.24 541.26a26.07 26.07 0 0 0 3.6 15.4c1 1.7.9 2.9-.3 4.6a47.63 47.63 0 0 0-8.4 31.9l-8.3 3.4 2-12.4 4.1-20c.5-2.1 1.6-3.9 2.2-6a10.46 10.46 0 0 0 .3-4.3l-2.5-9.5s-.1-3.8 2.9-3.3c1.5.2 2.9.1 4.4.2z" class="i"/><path d="M317.34 357.86l2.4-.7a4.25 4.25 0 0 1 .2 1.1l1 68.9a12.27 12.27 0 0 1-.1 1.7l-6.7-1.4 1.4-38.2c.1-8.1-.5-16.1-.9-24.2-.2-2.7.5-4.8 2.8-6.2.1-.1-.1-.7-.1-1z" class="h"/><path d="M382.74 146.16l-4.1 1.1c-4-15.8-9.6-30.9-18.8-44.7l11.6-3.2a333 333 0 0 1 11.3 46.8z" class="m"/><path d="M470.64 518.46v46.6l-8.3-3.2.6-7.6c-.1-8.7-.3-17.4-.7-26.1-.3-5.9-.2-6.2 5.3-8.4a20.65 20.65 0 0 1 3.1-1.3z" class="h"/><path d="M474.54 88.06l2.6 27.5c.4 6.1.2 6.1-5.6 7.6l-3.8.9-.9-14.2-.5-5.4a8.57 8.57 0 0 1 1-2.6c-3.3-2.6-1.5-7-3.1-10.4l10.3-3.4z" class="m"/><path d="M215.94 618.36l.4-8c.9-6 4.2-9.3 10.2-10.5a5.59 5.59 0 0 1 5.7 1.8c3.1 3.1 5.4 8.2 6.2 13.6-4.9 2.74-14.7 4.1-22.5 3.1z" class="g"/><path d="M272.44 303.56a4.33 4.33 0 0 1-.5-.1c-6.7-2.9-8-2.2-9.6 5a2.36 2.36 0 0 1-1.1 1.6c-10.5 3.6-19.4 10.2-28.9 15.5-.4.2-.8.4-.7.4l-4.3-4.6a81.24 81.24 0 0 0 19-13 21 21 0 0 1 8-4.4 13.08 13.08 0 0 0 7.3-5.3c2.1-2.9 3.5-3.2 6.3-.9a49.61 49.61 0 0 1 4.9 5.3 2.18 2.18 0 0 1-.4.5z" class="n"/><path d="M281.94 247.56l42.5 9.2c1.6.3 3.6-1 5.4-1.5-1.2 4.9-1.2 4.9-5.9 4.8l-42.6-1.1q.45-5.7.6-11.4z" class="j"/><path d="M283.64 444.06l1.2 50.2-3.9-1.5a2.34 2.34 0 0 1-1.1-1.8l-3.9-38.7c-.1-.8.1-1.6 0-2.3-.1-1.6-.9-4.2-.3-4.5 1.6-.9 3.8-1 5.7-1.3a8.27 8.27 0 0 1 2.3-.1z" class="h"/><path d="M280.84 330.56v9.8c0 .6-1.1 1.6-1.5 1.6a2.87 2.87 0 0 1-1.8-1.6c-1.2-3-1.8-6.3-3.3-9.2-2.7-5-5.8-9.8-8.9-14.6a2.73 2.73 0 0 0-2.6-.7c-19 8.1-36.9 18.1-52.7 31.6-3 2.6-5.8 5.4-8.9 8.4.3-2.1.6-3.8.9-5.4l37.3-24.8c7.8-4.9 16.2-8.8 24.3-13.2.9-.5 1.4-1.5 2.1-2.3l4.2 1.5a4.14 4.14 0 0 0-.2 1.5c2.4 5.3 5.1 10.5 7.3 15.9a92.69 92.69 0 0 1 2.9 10.3c.3 0 .7-.1 1-.1-.1-2.9-.1-5.8-.1-8.7z" class="d"/><path d="M82.44 527.56c1.9 2.8 4.8 3.6 7.8 4.2 7.1 1.5 13.8-.5 20.5-2.4l17-5.3c-6.1 3.2-12.1 7.1-18.5 9.5-6.6 2.5-13.8 3.8-20.7 5.4-3.1.8-5.9.1-7.8-3-.4-.7-2.2-.4-2.7-1.1a21.26 21.26 0 0 1-3.6-5.9c-.7-1.9-.5-4.1-.7-6.8 3.2 2.1 6 3.84 8.7 5.4z" class="j"/><path d="M351.44 519.56l-6.8-2.6-1.7-42.1 6.1 2.5c.5.2.8 1.2.8 1.8l1.6 40.4z" class="h"/><path d="M249 181.56l1.2.3c1.5 0 3.2.4 4.6.1 8.4-2.1 16.8-4.4 25.2-6.7l29.4-7.7a11.63 11.63 0 0 1 1.8-.4c1.3 3.6 1.1 3.9-2.2 4.7q-27.3 6.9-54.6 14a41.26 41.26 0 0 0-4.5 1.7c-.3-.1-.6-.2-1-.3l.1-5.7z" class="b"/><path d="M258.54 420.86c0-.9-.1-1.9-.2-3.1l36.4 7.9 22.1 4.7c4.5.9 4.5.9 4 5.9l-62.3-15.4z" class="k"/><path d="M375.74 148l-8.5 2.2a116.43 116.43 0 0 0-10.5-34l5.9-.3a1.81 1.81 0 0 1 1.4 1 193.24 193.24 0 0 1 11.7 31.1z" class="n"/><path d="M277 275.46l3.6 9c-4.9 2.7-9.3 6-14.2 7.5-4.3 1.3-6.9 3.9-9.5 7a6.72 6.72 0 0 1-3.3 1.5c6.1-8.5 10.4-17.5 12.2-27.9 1.7 1.9 3.1 4.1 5 5.4 2.44 1.5 4.54-.1 6.2-2.5z" class="h"/><path d="M90.14 563.86c3-2.2 6.1-4.2 8.9-6.6q8.85-7.65 17.4-15.6a15 15 0 0 0 3.3-4.6c1.4-3.3 3.7-5.3 6.8-7 4-2.2 7.6-4.9 11.4-7.4.7-.5 1.5-1 2.6-1.8-.2 1.5-.4 2.4-.5 3.4-.2-.1-.3-.3-.5-.4a36.91 36.91 0 0 0-4.1 3.8l-14.7 18.5c-.9 1.1-2.4 1.7-3.6 2.5a38.18 38.18 0 0 0-4.6 2.1c-5.1 3.1-10 6.5-15.1 9.6a80.8 80.8 0 0 1-7.3 3.5z" class="d"/><path d="M383 308.46h-6.7a6.52 6.52 0 0 1-.3-1.6l-1.4-27.7c-.2-2.5.6-4.1 3-4.9a21.21 21.21 0 0 0 3.4-1.7l2 35.9zM305.24 502l-4.4-1.7a2.71 2.71 0 0 1-1.4-1.9l-.8-37.5c0-.2.2-.3.2-.5 4.4-.2 5.1.1 5.3 3.7l1.1 37.9z" class="h"/><path d="M276.84 491c-4.7-1.1-4.6-1.1-5.1-5.3l-4.5-32-.2-3.1c.3-.3.5-.4.6-.4 5-1 5.1-1 5.7 4l3.5 33.8a29.72 29.72 0 0 1 0 3z" class="p"/><path d="M215 222.16c-2.6.9-5.5 1.3-7.7 2.8-3.2 2.2-4.4 6-4.7 9.7-1.1 11.7 2 22.2 10 31.1 3.3 3.7 7.1 5 11.9 3.6a7.85 7.85 0 0 1-7.8.7c-2.9-1.3-6.1-2.8-8.3-5-8.5-8.7-11.7-19.2-9.7-31.2a16.08 16.08 0 0 1 2.1-5.9c3.94-6.6 6.84-7.96 14.2-5.8z" class="c"/><path d="M290.14 422.26l-5.1-1.1v-39.9l5.1-.2z" class="q"/><path d="M174.54 608.36a59.81 59.81 0 0 1-23.6 3.3c-.6-4.9 1.8-8.1 7.6-10.2 7.46-2.6 10.9-1.2 16 6.9z" class="n"/><path d="M168.94 330a11.41 11.41 0 0 0-1.1 1.1c-.3-3.1-2.3-2.6-4.2-1.9-4.8 1.7-9.6 1.4-14.5.6.5-4.9 5.7-10.9 10.3-11.9 2.6-.6 5.1.8 7 2.9 2.2 2.5 4.9 4.6 7.2 7 2.1 2.1 3.9 4.5 5.8 6.8l-4.8-3.5c-1.8-1.3-3.7-2.5-5.5-3.7l-.8-1.1-2.5-1.9c-.8-.2-1.5-.5-2.3-.7-4-.8-6.8 1-7.9 5.8l11.7-2.1c.5.76 1.1 1.66 1.6 2.6z" class="d"/><path d="M204.94 616.86l-15.3-4.5c1.1-6.9 8.9-11.2 14.4-8.5.2 1.8.5 3.5.7 5.3l.2 7.7z" class="c"/><path d="M274.94 243.36l-5.7-6.2c-5.4-6.5-12.9-7.5-20.5-8.3-1.5-.1-3.1 0-4.6 0-.2-2.1-1.9-1.9-3.2-1.9-1.7 0-3.5.1-3.8 2.5l-7.7-.5c-1-1.3-2-2.5-3.5-4.4 10.2 1.3 19.9-1.6 29.3 2.4 4.6 1.9 9.4 3.2 13.4 6.5a17.89 17.89 0 0 1 6.3 9.9z" class="d"/><path d="M365.14 150.76l-6.7 1.7-3.2-18.4c-.2-1-1.4-3 .9-3.3 1.9-.2 4.2-.2 4.9 2.3l2.4 9.5 1.7 8.2z" class="p"/><path d="M133.24 596.76a7.33 7.33 0 0 1 8.1 2.4c2.9 3.4 4.3 7.4 5 12.5l-11-2.8c-.6-4.1-1.4-8.1-2.1-12.1z" class="m"/><path d="M457.94 102.66h5.5l2.1 22-4.6 1.4-3-23.4z" class="q"/><path d="M433.54 507.16c.3.7 1 1.5 1 2.2l1.1 42.3-2.9-.9v-43.3a6.89 6.89 0 0 0 .8-.3z" class="b"/><path d="M352.74 215.26l-5.1 12c-2.6 6.5-4.9 13.1-7.7 19.5-1.2 2.8-.6 4.1 2 5.3 3.3 1.6 6.3 3.6 9.4 5.5a12.61 12.61 0 0 1 2 2l-17.3-8.7 15.5-38.8c.4 1 .8 2.1 1.2 3.2z" class="d"/><path d="M429.94 495.76l-.7 7.6-13-4.8a2.79 2.79 0 0 1-1.1-1.9c-.2-1.7-.2-3.4-.3-5.6l15.1 4.7zm-159.7-201.6l11.7-5.9 2.9 7.2c-2.9 1.9-5.8 3.9-8.7 5.9l-5.9-7.2z" class="h"/><path d="M410.94 496.66c-4.4-1.6-8.4-3-12.3-4.6a4 4 0 0 1-1.3-2.3 28.07 28.07 0 0 1-.3-4.3l13.9 4.2z" class="k"/><path d="M90.14,563.86a68.2,68.2,0,0,0,7.2-3.5c5.1-3.1,10-6.4,15.1-9.6a38.18,38.18,0,0,1,4.6-2.1,16.55,16.55,0,0,1-2.2,3,62.7,62.7,0,0,1-27.1,14.5,1.45,1.45,0,0,1-1.2-.3c.8-.5,1.6-1,2.5-1.5a9.74,9.74,0,0,0,1.1-.5Z" class="b"/><path d="M310.84 323.26c-2.7 1.2-4.7 2.5-6.9 3a4.47 4.47 0 0 1-3.9-1.4c-.7-.8-.6-2.8-.1-3.8 1.2-2.2 3-4 4.8-6.4 2.1 3.1 3.9 5.6 6.1 8.6z" class="h"/><path d="M133.24 596.76l2.1 12-12.1-5.1c3-3.9 5.76-6.3 10-6.9z" class="j"/><path d="M380.24 480c4.7 1.4 8.6 2.6 12.4 3.9a2.25 2.25 0 0 1 1 1.6c.1 1.5 0 3 0 4.9-4-1.4-8-2.4-11.5-4.3-1.2-.74-1.2-3.64-1.9-6.1z" class="q"/><path d="M204.94 616.86l-.3-7.7a45.11 45.11 0 0 0-.7-5.3c5.7 3.4 8.6 8.2 8.5 14.4-2.44-.4-5-.9-7.5-1.4z" class="p"/><path d="M181.24 321.06l.4 6.8.5 4.5a56.18 56.18 0 0 0-3.5-5l-6-7.2c-1-1.1-2.2-2.1-3.4-3.3a23.56 23.56 0 0 0 1.4-2.4l10.6 6.6z" class="d"/><path d="M245.84 598.66c.5 3.4.8 6.8 1.5 10.2.5 2.5-.1 4-2.7 4.5a14.88 14.88 0 0 0-2.6 1 27.19 27.19 0 0 1 3.8-15.7zm132.3-119.5l-.5 5.4c-3.2-1.1-6.4-1.8-9-3.3-1.2-.7-1.3-3.3-1.9-5 .2-.1.5-.3.7-.4 3.5 1.14 7 2.2 10.7 3.3z" class="k"/><path d="M298.44 305.86l4.3 6.2a45.71 45.71 0 0 1-6.2 3.9 3.6 3.6 0 0 1-3.3-.7 3.38 3.38 0 0 1 0-3.1c1.5-2.1 3.3-4 5.2-6.3z" class="p"/><path d="M336.54 255.56l-1.1 2.7c-3.3 7-5.4 8-13 6.5-5.4-1.1-5.4-1.1-8.4 3.6l.9-5h12.4a4.17 4.17 0 0 0 4.6-2.9c.7-2 1.7-4 2.7-6.3a11.55 11.55 0 0 0 1.9 1.4z" class="d"/><path d="M304.64 459.66l-3.3-3.9c-.1.2-.3.8-.6 1.4-2.6-.2-3-1.5-1.8-6.9 6.2-.1 7.5 1.6 6.7 8.5a9 9 0 0 1-1 .9z" class="k"/><path d="M288.34 308c-.2-4.4 2-6.5 4.6-8.8l4.3 4.7-8.9 4.1z" class="b"/><path d="M426 42.46c-.7-6.1-.7-6.1 5.7-7.3.84 6.6 1.24 5.4-5.7 7.3z" class="k"/><path d="M333.24 246.56c1.3-3.8 2.4-7.7 3.9-11.5l8-19.3a21.16 21.16 0 0 1 1.2-2 48.43 48.43 0 0 1-1.9 6.5l-10.3 25.1c-.14.5-.5.8-.9 1.2z" class="j"/><path d="M353.64 473.86l10.4 1.3-.2 4.2c-6.4-1-10.2-3-10.2-5.5zm-47-162.8c.6.3 1.6.5 1.7.9 1.1 2.8 3.4 1.9 5.4 1.9h5.4l.3 2c-.3.2-.5.4-.6.4l-7.8.6a2.23 2.23 0 0 1-1.3-.6l-3.6-4.7a1.21 1.21 0 0 0 .5-.5z" class="b"/><path d="M315.64 73.06c.8 6.3 1.3 5.1-5.6 7.1l-.3-5.1c2-.8 3.9-1.4 5.9-2z" class="k"/><path d="M321,479.16v-26.5h.6v26.5Z" class="e"/><path d="M321.44 508.06v-27.4h.4v27.4a.3.3 0 0 1-.4 0zm-143.1 97.7l2.5-9c2.2 6.1 1.9 7.6-1.5 9.3a1.69 1.69 0 0 1-1-.3z" class="b"/><path d="M48.84 328.36l-3.5 5.2-1.5 2.4-.6.6c-.2.2-.5.4-.7.6a12.13 12.13 0 0 1-1.4.5l3.1-4.9 2.3-3.8 2.3-.6z" class="f"/><path d="M434.24 496.56v8.6c-.6-.5-1.5-.8-1.5-1.2l.2-7.7a3.45 3.45 0 0 0 1.3.3zm-121.8-185.4l6.8-3.4.2 3.6-6.7.7z" class="b"/><path d="M349.94 474.76l-6.6-1.7c2.2-.9 5.4-.2 6.6 1.7z" class="d"/><path d="M216.64 274.16c-2 1.1-3.4.3-4.4-1.4l4.4 1.4z" class="g"/><path d="M82.44 522.86l.2-3.4.7 4.3z" class="c"/><path d="M182.14 317.86l1.7-2.1v2.8l-1.7-.7z" class="g"/><g class="j"><path d="M330.54 253.66l1.6-4.4-1.6 4.4z"/><path d="M332.14 249.26l1.1-2.7c-.3.9-.7 1.8-1.1 2.7z"/></g><path d="M210 271.56l-1.5-1.2zm1.54.8a10 10 0 0 0-1.4-.8l1.4.8z" class="g"/><path d="M248.94 187.26l1 .3v.8c-.3 0-.6.1-.9.1a4.12 4.12 0 0 1-.1-1.2z" class="f"/><path d="M329.94 255.26l.7-1.6a7.74 7.74 0 0 0-.7 1.6z" class="j"/><path d="M314 270h-.6c.1-.5.3-.9.4-1.4a3.4 3.4 0 0 1 .2 1.4zM90.14 563.86a6.12 6.12 0 0 1-1.2.5 6.12 6.12 0 0 0 1.2-.5zm263.8-303.8l1 .7z" class="d"/><path d="M346.34 213.86c.2-.4.3-.9.5-1.3a6.94 6.94 0 0 1-.5 1.3zm-218.6 310.3l1.1-.6c-.4.2-.7.44-1.1.6z" class="j"/><path d="M346.64 210.86l.6-.3v.7c-.24-.1-.4-.26-.6-.4z" class="s"/><path d="M272.84 303.16c.1.2.2.3.3.5h-.7a2.18 2.18 0 0 1 .4-.5z" class="n"/><path d="M5.44 415.66c.1.2.1.5.2.7a1.85 1.85 0 0 0-.2-.7z" class="c"/><path d="M114.44 537.16c-.1-.1-.2-.1-.3-.2.1-.1.1-.2.2-.2s.2.1.3.2-.1.1-.2.2z" class="w"/><path d="M353.34 259.56c.2.2.4.3.6.5a2.65 2.65 0 0 1-.6-.5z" class="d"/><path d="M6,419a6.37,6.37,0,0,1,.2.7A2.54,2.54,0,0,1,6,419Z" class="c"/><path d="M207.94 269.86a2.18 2.18 0 0 1-.5-.4c.1.1.3.2.5.4zm-4.6-4.8c-.1-.2-.3-.3-.4-.5a1.76 1.76 0 0 1 .4.5zm2.9 3.2l-.5-.5c.2.24.26.4.5.5zm.5.6l-.5-.5a1.21 1.21 0 0 1 .5.5z" class="g"/><path d="M311.94,319.06a.35.35,0,0,1-.2-.1v-.2c.1.1.1.2.2.3Z" class="i"/><path d="M207.34 269.36l-.5-.5zm-1.7-1.6l-.5-.5a1.21 1.21 0 0 1 .5.5z" class="g"/><path d="M494.44 535.36a9.32 9.32 0 0 1-3.1 1.3c-3.1.5-4 2.3-3.9 5.3.2 8.7.1 17.4.1 26.1 0 1-.2 2-.3 3-.3 0-.6.1-.9.1a11.43 11.43 0 0 1-.9-3l-.8-28.8c-.1-3.8 3.1-5.9 7.8-5.3.7.1 1.4.4 2 .5a2.08 2.08 0 0 0 0 .8z" class="r"/><path d="M120.64 516.56c12.3-6.7 22.2-16.2 31-27l18.1-22.4a2.67 2.67 0 0 1 2.1-.7 57 57 0 0 1-3.2 6c-8.9 11.7-17.6 23.6-28.1 34-7.8 7.7-17.2 13-26.8 17.9-1.8.9-4.2.9-6.3 1.3-.1-.3-.2-.7-.3-1l12.5-7.6a9.29 9.29 0 0 0 1-.5zM185 360c8.2 22.5 7.9 45.2 2.4 68.2-.7 2.9-1.6 5.8-2.4 8.7h-.9a208.34 208.34 0 0 0 3-59.5c-.6-5.8-2-11.5-3.1-17.3.34-.04.64-.1 1-.1z" class="o"/><path d="M121.74 371.66a31.68 31.68 0 0 1-3.9-3.4l-19-23.3a20.94 20.94 0 0 1-1.7-2.8 6.07 6.07 0 0 0 1-.7l24.4 29.6c-.3.2-.54.4-.8.6zm-17.2 73.4v37.6h-1.1a157.85 157.85 0 0 1 1.1-37.6z" class="f"/><path d="M16.54 385.06l1.1-6 9.1 16.6a7.28 7.28 0 0 0 2 1.9c2.2.1 1.5 2.1 1.3 2.8a1.75 1.75 0 0 1-3 .9 13.59 13.59 0 0 1-3.1-3.7c-1.8-4-3.3-8.2-4.9-12.4-.4-.9-.7-1.9-1.3-3.5a30.63 30.63 0 0 1-1.2 3.4z" class="c"/><path d="M120.64 516.56c-.3.2-.7.3-1 .5a54.72 54.72 0 0 1-5.1-5.6c-3.2-4.2-6.2-8.5-9.1-12.9a20.65 20.65 0 0 1-1.5-3.4c.3-.2.4-.2.5-.3 0 .1-.1.2 0 .2 5.3 7.3 10.8 14.4 16.2 21.5zm-58-29.7l35.2 3.8c0 .4-.1.8-.1 1.2-11.8-.7-23.6-1.4-35.1-4.3zm90.8-68.86l-18.8-24.3c2.8.3 18.6 20.36 18.8 24.3z" class="f"/><path d="M113.14 403.66a3.26 3.26 0 0 1 .4-1.4l16.6-25.5a6 6 0 0 1 .8-.8c.4 3.1-11.3 21.2-17.8 27.7z" class="e"/><path d="M28.84 397.56a12.1 12.1 0 0 1-2-1.9l-9.1-16.6-4.3-11.1a4.88 4.88 0 0 1 .7-.3l1.5 2.7 10.3 20.6a12.42 12.42 0 0 0 1.7 2.3l.6 1.7a12.21 12.21 0 0 0 .6 2.6zm148.3 46.6l-21.5-10.5c3-1.3 19 6.2 21.5 10.5z" class="f"/><path d="M137.54 375.76l22.2-16.4c-6.9 6.3-13 13.64-22.2 16.4zM66 420.66l-29-5.8c.1-.4.1-.7.2-1.1l29 5.7c-.06.4-.06.8-.2 1.2z" class="e"/><path d="M181.14 353.76l-20.2-1.1c-.1-.3-.1-.6-.2-.9a14.47 14.47 0 0 1 2.6-.7l16.8 1.3c.3 0 .7-.1 1-.1v-.1c-.1.1-.2.1-.1.2a.76.76 0 0 0 .2.4 4.59 4.59 0 0 0-.1 1z" class="f"/><path d="M99.14 427.16l-21.4-5.8.3-1.1c7.2 1.9 14.8 2.2 21.3 6.2a1.85 1.85 0 0 1-.2.7zm51.3 4.4h-32.2v-1c10.76-.9 21.6.1 32.2 1z" class="e"/><path d="M23.14 432.46l-4.9 3.9-.1-.1 10.8-13.6c.2.4.7.9.6 1l-3.2 4.8c-.2.2-.3.5-.5.7l-1.2 2.1a4.43 4.43 0 0 1-1.5 1.2z" class="f"/><path d="M184 436.86h.9c-.9 4.7-1.7 9.5-4.1 13.8a2.35 2.35 0 0 0-.8-.2l4-13.6zm-98.16-108.1c.1-.3.3-.7.4-1l1.4 1.1 6.9 8.6a5.72 5.72 0 0 0-.8.7c-2.74-3.1-5.3-6.16-7.9-9.4z" class="e"/><path d="M26.34 355l6.1-7.5c0 .4-.1.7-.1 1.1v-.1a16.29 16.29 0 0 0-1.1 1.7l-3.5 6-1.4-1.2z" class="b"/><path d="M181.14 353.76v-.9c.2-.1.3-.3.5-.4-.2-.1-.3-.1-.5-.2v.1l-.7-4.1c.2-.1.3-.1.5-.2l4 11.8c-.3 0-.7.1-1 .1a26.71 26.71 0 0 0-1.3-4 14.32 14.32 0 0 0-1.5-2.2z" class="e"/><path d="M15.24,410.66c-.3-.3-.8-.6-.8-1-.1-3.7-.1-7.4,0-11.2,0-.3.5-.6.8-1Z" class="c"/><path d="M168.94 330l-1.6-2.8-1.5-3 2.5 1.9.8 1.1 1.5 3c.1.3-.4.9-.6 1.3a8.28 8.28 0 0 1-1.1-1.5zm-136.5 18.56c0-.4.1-.7.1-1.1h-.1l.6-.6 1.1-1.7 1.1-1.1c.1-.2.3-.3.4-.5l2.9-3.3c.2.2.4.3.6.5l-6.7 7.8z" class="e"/><path d="M20.54 370.26a15.39 15.39 0 0 1 3-10l-3 10z" class="b"/><path d="M134.14 392.76l-2.3-3.1c.3-.4.3-.5.4-.5l3.2 3.6a2.85 2.85 0 0 0-1.3 0z" class="e"/><path d="M29 462.46l-2.6-4.7 2.6 4.7zm-13.46-69.8l.4-3.2a31.06 31.06 0 0 0-.4 3.2zm2.7 33.2a9 9 0 0 0-.9 1l-.3-2.5a15.76 15.76 0 0 1 1.2 1.5z" class="c"/><path d="M24.54 358.16l1.8-3.2-1.8 3.2z" class="b"/><path d="M15.94 416.66l-.4-2.7.4 2.7zm64 98.7l-2.3-2.1 2.3 2.1z" class="c"/><path d="M39.54 339.76c.6-.7 1.1-1.4 1.7-2.2l-1.7 2.2z" class="f"/><path d="M95.84 339.16l1.9 2.2c-.3.2-.5.5-.8.7l-1.9-2.1a3 3 0 0 0 .8-.8z" class="e"/><path d="M16.94 423.26l-.4-2.2a14.35 14.35 0 0 1 .4 2.2zm-.5-3.26l-.4-2.2a17 17 0 0 1 .4 2.2zm65.1 97.06c-.5-.6-1.1-1.1-1.6-1.7l1.6 1.7zm-23.9-19.2l-1.8-1.6a19.1 19.1 0 0 0 1.8 1.6zm-27.9-82.3c-.6 0-1.3-.1-1.9-.1a19.45 19.45 0 0 1 2.2-.8zm-5 15.8l1.2-2.1zM16 387.76l.3-1.6c-.06.5-.16 1.1-.3 1.6z" class="c"/><path d="M31.34 350.16a16.29 16.29 0 0 0 1.1-1.7c-.44.6-.7 1.1-1.1 1.7z" class="e"/><path d="M23.14 432.46a9.06 9.06 0 0 1 1.6-1.1c.1.4.1.8.2 1.1zm.4 17.54l-.8-1.4a10 10 0 0 0 .8 1.4zM40 478.26l-1-1.3a14.7 14.7 0 0 0 1 1.3zm1.64 2.2l-1-1.3 1 1.3zm-3.2-4.3c-.4-.4-.7-.9-1.1-1.3a6.89 6.89 0 0 1 1.1 1.3z" class="c"/><path d="M24.64 359a5.55 5.55 0 0 1 .8.6c-.2.1-.4.3-.6.4a4.4 4.4 0 0 0-.2-1z" class="b"/><path d="M25.64 455.36l-.8-1.4.8 1.4zm17.7 27.3a14.7 14.7 0 0 1-1-1.3 6.42 6.42 0 0 0 1 1.3zm1.66 2.2c-.4-.4-.7-.9-1.1-1.3.44.44.74.9 1.1 1.3zm31.74 27.7l-1.3-1a14.7 14.7 0 0 1 1.3 1zM36.84 474c-.4-.4-.7-.9-1.1-1.3a15 15 0 0 1 1.1 1.3zm10.3 13.56a15 15 0 0 1-1.1-1.3l1.1 1.3zm-25.9-44.2l-.3-1.1c.06.4.2.8.3 1.1zm13.9 28.4a14.7 14.7 0 0 1-1-1.3 14.7 14.7 0 0 0 1 1.3zm-12.4-34.1a10 10 0 0 0 .8-1.4l-.8 1.4zm37.6 62.4c-.4-.3-.8-.7-1.2-1 .4.3.8.7 1.2 1zm-28-32.06a11.32 11.32 0 0 0-1-1.3 11.32 11.32 0 0 1 1 1.3zm32.4 35.36l-1.3-1a14.7 14.7 0 0 1 1.3 1zm4.4 3.2c-.4-.4-.9-.7-1.3-1.1a12.67 12.67 0 0 0 1.3 1.1zm2.1 1.7a14.7 14.7 0 0 0-1.3-1 6.42 6.42 0 0 1 1.3 1zm2.76 2.2c-.4-.3-.8-.7-1.2-1l1.2 1z" class="c"/><path d="M28.14 395l-.6-1.7c.2.46.4 1.06.6 1.7z" class="i"/><path d="M134.14 392.76h1.2c0 .3-.1.6-.1.9a3.13 3.13 0 0 0-1.1-.9z" class="f"/><path d="M113 403.56c-.2.2-.5.3-.7.5 0-.1-.1-.3-.1-.4a2 2 0 0 0 .8-.1zm47.84-44.4c-.1 0-.1.1-.2.1s-.1-.1-.2-.2c.1 0 .1-.1.2-.1a.22.22 0 0 1 .2.2z" class="e"/><g class="f"><path d="M39 340.86c-.2-.2-.4-.3-.6-.5h.6c0 .1.1.2.1.3a.35.35 0 0 1-.1.2z"/><path d="M39 340.36a2.65 2.65 0 0 0 .5-.6c-.16.24-.26.4-.5.6z"/></g><g class="c"><path d="M42.64 337.06c.2-.2.5-.4.7-.6a4.35 4.35 0 0 0-.7.6z"/><path d="M43.24 336.46l.6-.6zm-17.3 92.8c.2-.2.3-.5.5-.7a3 3 0 0 0-.5.7z"/></g><path d="M212.84 511.16c-10.2 6.1-20.1 12.8-32.5 13.7a4.23 4.23 0 0 1-.5-.7c.4-.5.8-1.3 1.3-1.5l29.5-12a12 12 0 0 1 2-.3c.1.3.1.5.2.8z" class="o"/><path d="M280.84,330.56v8.8c-.3,0-.7.1-1,.1a87,87,0,0,0-2.9-10.3c-2.2-5.4-4.9-10.6-7.3-15.9-.2-.4.1-1,.2-1.5,2.3-.3,3.6,1.1,4.5,2.8,2.1,4.3,4.1,8.8,6.1,13.2.1.9.2,1.8.4,2.8Z" class="r"/><path d="M208.54 417.86c-.9-3.4 4-10.4 7.3-11.4-2.2 4-4.1 8.2-7.3 11.4z" class="o"/><path d="M162.34 525.36l9.5-1.3c-3.5 2.7-7.4 3.5-9.5 1.3z" class="e"/><path d="M280.84 330.56l-.5-2.8.5 2.8z" class="d"/><path d="M203.54 312.06c-5.4-.7-10.4-2.3-14.2-6.5-1.9-2.1-2.2-3.5-1.2-5.8 4.4 6.5 10.8 9.1 18.1 10 .3.2.7.3 1 .5s.8.6 1.8 1.3c-2.2.2-3.8.44-5.5.5z" class="o"/><path d="M211.14 274.76c2.4 2.4 2.2 4.1-.5 6.8a8.6 8.6 0 0 0-1.6.1c-2.4-2.4-2.2-4.8.5-7a8.6 8.6 0 0 1 1.6.1z" class="c"/><path d="M208.94 281.56a8.6 8.6 0 0 0 1.6-.1c-.4 1.4-1 1.4-1.6.1zm2.2-6.8a8.6 8.6 0 0 1-1.6-.1c.6-1.3 1.1-1.2 1.6.1z" class="g"/><path d="M207.24 310.36c-.3-.2-.7-.3-1-.5a9.25 9.25 0 0 1 1 .5z" class="i"/><path d="M216.34 556.06l23.5-2.3c.1.2.2.5.3.7-1.4.6-2.7 1.7-4.1 1.8-6.5.2-13.1.1-19.6.1a.37.37 0 0 1-.1-.3zm11.4 4.8l4-.7c.4 0 .9.6 1.4.9-.4.4-.7 1.1-1 1l-4.4-.5c-.1-.2 0-.4 0-.7z" class="f"/><path d="M237.14 229.56c.3-2.4 2.1-2.5 3.8-2.5 1.3 0 3-.3 3.2 1.9a21 21 0 0 1-4.2 1.5c-.8.1-1.8-.6-2.8-.9z" class="o"/><path d="M34.14 345.26l-1.1 1.7a9.91 9.91 0 0 1 1.1-1.7z" class="b"/><path d="M17.64 437l-.5.8-.3-.3a3.51 3.51 0 0 1 .8-.5z" class="c"/><g class="b"><path d="M33 346.86l-.6.6zm1.64-2.2l-.6.6z"/><path d="M35.14,344.16l-.6.6Z"/><path d="M35.54 343.66c-.1.2-.3.3-.4.5.1-.16.3-.3.4-.5z"/></g><path d="M18.34,436.36l-.6.6v-.1a1,1,0,0,1,.6-.5Z" class="f"/><path d="M226.34 248.06l-13.3 2.2a.76.76 0 0 1-.2-.4l3.9-3.1H216c0-2.5-.3-5 .1-7.3.4-2.5 2.6-3.2 4.9-2.1a9.8 9.8 0 0 1 5.34 10.7z" class="r"/><path d="M165.84 324.16l1.5 3-11.7 2.1c1-4.8 3.8-6.7 7.9-5.8.7.2 1.46.54 2.3.7z" class="p"/><path d="M169.14 327.26l-.8-1.1a4.44 4.44 0 0 1 .8 1.1zm12 25.1c.2.1.3.1.5.2-.2.1-.3.3-.5.4-.1-.1-.1-.3-.2-.4a.22.22 0 0 1 .2-.2z" fill="#fcfcfd"/></svg>