<svg xmlns="http://www.w3.org/2000/svg" viewBox="0 0 547.1 628.4"><style><![CDATA[.b{fill:#e4e3f1}.c{fill:#7d75f8}.d{fill:#7a73ef}.e{fill:#414141}.f{fill:#232323}.g{fill:#f9f9f9}.h{fill:#f3f3f3}.i{fill:#7b72f9}.j{fill:#7971f6}.k{fill:#ededee}.l{fill:#f7f7f7}.m{fill:#f5f5f5}.n{fill:#f4f4f4}.o{fill:#0f0f0f}.p{fill:#f0f0f4}.q{fill:#efefef}.r{fill:#0b0b0d}.s{fill:#fbfbfc}.t{fill:#fdfdfd}.u{fill:#7b73fa}.v{fill:#fafafa}.w{fill:#f6f6f6}.x{fill:#7b72fa}]]></style><path d="M219.1 625.1H6V0h541.1v106.4l-45.3 12c-1.2-22.5-2.1-44.7-8.2-66.2 12-2.7 23.2-6.6 34.1-11.3 4.3-.5 7.2-2.7 7.6-7.3.1-.8.3-1.6.4-2.4.7-3.4.9-7 2.1-10.2 1.3-3.5 1.6-4.3-.8-7.3.5-2.8-.4-3.6-2.9-2.7l-2.3.9-85.6 27.8c-.9.3-1.8.5-2.8.8-.8-5.5-.8-5.5 3.8-7.1l82.5-27.1c1.7-.6 4.4-.9 3.5-3.5s-3.2-1.3-4.9-.7L246.5 94.7c-2.6.9-4.3 1.9-4.1 5.1l1.9 54.2 2.2 66.2c.1 1.5-.4 2.2-1.9 2.3-3.6.2-7.3.4-10.8 1-1.8.3-3.2 0-4.7-1.1-3.5-2.5-7.4-4.2-11.8-3.2-7.4 1.6-12 6.3-14.1 13.6-.4 1.4-1.5 2.9-2.6 3.7-8 5.7-14.2 13-18.8 21.6-1 1.9-1.2 4.3-1.2 6.5.1 3 1.2 6.1 1.2 9.1.2 14-2.8 27.6-6.3 41.1-.2.7-.7 1.4-1.1 2-9.7-2.9-16.2.3-20 9.7-.2.4-.4.8-.5 1.3-.3 2.1-1.5 2.5-3.5 2-3-.7-6.1-1.1-9.1-1.7l-38.3-8.2c-16.2-3.1-32.2-2.1-47.3 5.3-5.2 2.5-10.3 5.4-15.2 8.5-8.3 5.2-15.7 11.4-21.3 19.6-5.7 8.4-8.6 17.7-9.9 27.7-1.6 12.4-2.9 24.7-1 37.2 2.3 15.3 7.5 29.7 15.1 43.2.3 1 .5 2.1 1 3 10.8 19.2 23.6 36.8 42.3 49.2l5.6 3.6c.2.2.4.3.6.5s.4.3.6.5c.5.4 1.1.8 1.6 1.2.2.2.4.3.6.5s.4.3.6.5c.3.2.7.5 1 .7.2.2.4.3.6.5.1.2.2.5.4.7 0 .3-.1.5-.1.8-1.9 3.4-1.6 6.6.9 9.4.1.4.3.7.4 1.1.8 1.2 1.5 2.5 2.5 3.5 1.7 1.6 4 2.7 5.3 4.6 1.9 2.8 4.4 3.2 7.3 3 8.3-.7 16.3-2.7 24-5.7.8-.3 1.7-.6 2.7-.9.1.7.1.9.1 1-.5.6-1 1.3-1.6 1.9-7.7 8.5-17.1 14.9-26.6 21.1-3.3 2.1-6.7 4.1-9.8 6.4-1 .7-1.9 2.6-1.6 3.5.3 1 2.1 1.9 3.3 2 2.1.1 4.3-.3 6.5-.7 16.4-2.9 29.7-11.2 40.8-23.4.7-.8 1.2-1.7 2.1-2.9 1.8 5.3 1.8 9.4.8 14-3.1 13.5-5.5 27.2-7.9 40.9-.5 2.8-.2 5.2 2.9 7.2 4.2 2.8 8.4 5.3 13.3 6.5 16.1 3.9 31.8 3.3 47.2-4.7.1 4.4 3.2 6.1 6.5 7.3 5.7 2 11.6 3.6 17.4 5.3.4.1.7.1 1.1.2 1.1.1 2.2.3 3.2.4 0 .2 0 .6.1 1zM198 180.2c.3-.1.6-.2.8-.3.1-9.1-2.5-17.5-6.7-25.4-.4-.7-.9-1.6-1.5-1.9-1-.5-2.2-.6-3.4-.9-.1 1.1-.6 2.4-.3 3.4 1.4 3.7 3.1 7.4 4.7 11l6.4 14.1zm-40.7 40.7a3.04 3.04 0 0 1 .7-.5c-.8-1.2-1.3-2.7-2.3-3.7a639.86 639.86 0 0 0-17.2-15.7c-.7-.6-2.2-.4-3.3-.5.2 1.1 0 2.7.7 3.4 6.4 6.4 13.2 12.5 21.4 17zm-14.5 48.3c-1.2-.5-2.2-1.2-3.3-1.4l-19.3-4.3c-.7-.1-1.4.4-2.2.6.3.8.3 1.8.8 2.3.7.7 1.8 1.2 2.8 1.6 6.9 2.5 13.8 3.7 21.2 1.2zm72.8-62.1c-2.1-2.4-3.6-3-6.2-2.4-4.5.9-9.4 8-8.4 12.5.1.7 1 1.3 1.5 2 .4-.6 1.1-1.1 1.3-1.8 1.6-6.1 5-10 11.8-10.3z" class="t"/><path d="M219 623.9l-3.2-.4c-.4-.1-.7-.1-1.1-.2l-17.4-5.3c-3.3-1.1-6.5-2.9-6.5-7.3-15.3 8-31 8.6-47.2 4.7-4.9-1.2-9.1-3.7-13.3-6.5-3.2-2.1-3.4-4.5-2.9-7.2 2.5-13.7 4.8-27.4 7.9-40.9 1.1-4.6 1-8.6-.8-14-.9 1.2-1.4 2.1-2.1 2.9-11.1 12.2-24.4 20.5-40.8 23.4-2.1.4-4.3.8-6.5.7-1.2-.1-3-1-3.3-2-.3-.9.7-2.8 1.6-3.5 3.1-2.3 6.5-4.2 9.8-6.4 9.5-6.2 18.8-12.7 26.6-21.1.6-.6 1.1-1.2 1.6-1.9.1-.1 0-.3-.1-1-1 .3-1.8.6-2.7.9-7.8 3-15.7 5-24 5.7-2.9.3-5.4-.2-7.3-3-1.3-1.9-3.6-3-5.3-4.6-1-1-1.7-2.3-2.5-3.5-.1-.4-.3-.7-.4-1.1l-.9-9.4c0-.3.1-.5.1-.8-.1-.2-.2-.5-.4-.7s-.4-.3-.6-.5c-.3-.2-.7-.5-1-.7-.2-.2-.4-.3-.6-.5s-.4-.3-.6-.5c-.5-.4-1.1-.8-1.6-1.2-.2-.2-.4-.3-.6-.5s-.4-.3-.6-.5c-.3-.4-.6-.9-1-1.2-11.9-10-22.3-21.6-32.2-33.5-5.6-6.7-10.5-14.1-15.7-21.2-7.5-13.5-12.7-27.9-15.1-43.2-1.9-12.5-.6-24.8 1-37.2 1.3-10 4.2-19.3 9.9-27.7 5.6-8.2 13-14.4 21.3-19.6 4.9-3.1 10-6 15.2-8.5 15.1-7.4 31.1-8.4 47.3-5.3 12.8 2.4 25.6 5.4 38.3 8.2 3 .6 6.1 1 9.1 1.7 2 .5 3.1.2 3.5-2 .1-.4.3-.9.5-1.3 3.8-9.3 10.3-12.6 20-9.7.3-.6.9-1.3 1.1-2 3.4-13.5 6.5-27.1 6.3-41.1 0-3-1.1-6.1-1.2-9.1-.1-2.2.2-4.6 1.2-6.5 4.5-8.6 10.8-15.9 18.8-21.6 1.2-.9 2.2-2.3 2.6-3.7 2.1-7.3 6.7-12 14.1-13.6 4.3-.9 8.3.8 11.8 3.2 1.5 1.1 2.9 1.3 4.7 1.1 3.6-.5 7.2-.7 10.8-1 1.5-.1 2-.8 1.9-2.3l-2.2-66.2-1.9-54.2c-.1-3.1 1.5-4.2 4.1-5.1l150.7-49.6L528.4 2c1.7-.6 4-1.9 4.9.7s-1.8 2.9-3.5 3.5l-82.5 27.1c-4.6 1.5-4.6 1.5-3.8 7.1.9-.3 1.9-.5 2.8-.8l85.6-27.8 2.3-.9c2.5-.9 3.4-.1 2.9 2.7-1.4.4-2.8.8-4.1 1.3L446.2 43c-2.1.7-2.9 1.5-2.9 3.9l1.5 73.6c.1 4.1 0 8.1 0 12.6l21.7-5.6-4.6-22.6c-.5-2.6.7-4 3.4-4 1.5 0 3 .1 5 .2l-1.7-8.7c-.5-2.7.2-3.4 2.9-3.7l9.7-1.4-2.8-10.4c-1-3.5-.6-4.6 2.8-5.9 4-1.5 8.2-2.8 12.4-4.3l-.9-3.8c-.7-3.7-1.5-7.3-1.9-11-.1-.9.9-2.5 1.7-2.8 5.7-1.8 11.5-3.3 17.2-4.9 5-1.4 9.9-2.9 14.9-4.1.9-.2 2 .4 3 .7-10.9 4.7-22.1 8.6-34.1 11.3 6.1 21.5 7 43.7 8.2 66.2l45.3-12v2.7l-74 19.1-27.8 7.3v4.9l25.1-6 57.7-14.5 19-4.6v2.7l-13.1 2.9-85.2 21.3c-2.9.7-3.6 1.9-3.5 4.7l2.8 157.6c0 .7.1 1.4.2 2.4l14.5-.6c0-7.6.4-14.7-.1-21.9l-4.2-57.1c-.4-4.6-1.1-9.2-1.4-13.8-.3-3.8.9-4.9 4.6-5.1l6.2-.4-2-12.2c-.7-3.8-.5-4.1 3.4-4.8l10.4-1.8-1-12c-.2-2.2.7-3.4 2.9-3.8 3.3-.6 6.5-1.3 9.9-2-.1-3.4-2-6.1-3.8-8.8-.5-.8-.3-2.1-.5-3.2 1-.1 2-.4 3-.3 1.4.1 2.8.7 4.3.8 11.1.6 21.3-3.8 31.9-6.2l-.2-3.8c-.2-4.1.7-5 4.9-4.7 1.7.1 3.4.2 5.1.4.7.1 1.5.1 2.2.2 1.6.4 4.3-.3 4.1 2.3-.2 2.2-2.6 1.8-4.3 1.7-2.8-.1-5.5-.5-8.4-.8l1.2 18.3c.9 9.3 2.3 18.6 2.9 27.9.8 11.9 1.2 23.8 1.4 35.7l.3 66.8c0 .7-.6 1.5-1 2.2-.5-.7-1.3-1.4-1.3-2.2l-2.3-53.9c-.3-9.8.4-19.6.2-29.4-.1-6.7-.8-13.3-1.3-20.1l-11 1.9c4.3 35.8 4.8 71.6 2.7 107.7l15.5-.8c.8 0 1.7.8 2.5 1.3-.8.5-1.6 1.4-2.5 1.5l-36.7 1.8-30.7 1.2-21.5 1.2v6.7h2.9l83.1-1c.9 0 1.8.7 2.7 1.1-.6.6-1.2 1.3-1.8 1.9-.4 0-.7-.1-1.1-.1l-83.6.6c-.7 0-1.4.2-2.1.3 0 .6-.1 1.1-.1 1.5l2.5 133.3c0 1.8.8 2.3 2.3 2.6 6.2 1.2 12.4 2.6 18.6 3.9 1.4.3 2.8.5 4.3.8l-1.7-21.2-5.7-62.4c-.4-3.8.2-4.8 4-5 1.9-.1 3.8.2 6.1.4-.9-3.2-1.8-5.9-2.5-8.7-.8-2.8-.2-3.5 2.6-3.5h14.9l-2.2-9.9c-.5-2 .2-2.7 2.2-2.6s4 .2 6 0c3.5-.2 6.9-.9 10.4-1.6 5.4-1.1 11-.8 16.5-1 .9 0 1.9.3 2.8.5v.9c-1.6.4-3.2 1.1-4.8 1.3-2.9.3-5.8.3-8.7.6-.6.1-1.2.6-1.8.9l-18.8 2c6.5 37.7 2.4 75.6.7 113.6l13.1 2.8 1.2-55.7c0-8.1-1.1-16.3-1.7-24.5-.2-3.4.3-3.9 3.6-3.7 1.8.1 3.6.2 5.4.2h6.9c.1.5.1.9.2 1.4-2 .5-4.1 1.3-6.1 1.6-2.3.3-4.6.1-7.2.1 3.5 27.2 1.7 54-.1 81.1 5.3 1 10.5 1.9 15.7 3.1.9.2 1.5 1.6 2.2 2.4-1 .4-2.1 1.2-3 1l-57.4-12.6-18.1-3.7c0 2.1.1 3.9 0 5.7-.2 2 .7 2.6 2.5 3l74.3 18.2c1 .2 2.1.3 2.9.8.7.4 1.1 1.4 1.7 2.1-.9.4-1.7 1.1-2.6 1.2-.7.1-1.6-.3-2.4-.4-.2-.1-.5-.3-.7-.4l-72.9-18c-.8-.2-1.5-.2-2.6-.4v3.2l.6 32.2.8 48c0 .9.5 2.3 1.2 2.6 4.2 1.8 8.6 3.3 13.2 5 .1-1.4.2-2.5.2-3.5l-.8-30.5c-.2-5.7 1-7.7 6.5-9.3 1.5-.4 3.1-.6 4.8-.9v-1.7l-1.5-18.2c-.2-1.8-.4-3.8 2.3-3.4a615.81 615.81 0 0 1 19.6 3c1.4.2 2.5 1.4 3.8 2.2-1 .1-2 .3-3 .2l-19.8-2c2.5 13.9 1.5 27.8 1.7 41.6l.2 24.5c0 2.5.5 4.4 3.4 5 .7.1 1.1 1.6 1.7 2.5-1 .2-2.2.8-3.1.5-7.3-2.6-14.6-5.4-21.9-8.2-2.8-1-5.5-2.1-8.5-3.3l-.6 10.6 27 10.9c4.7 2 9.3 4.2 13.8 6.4 2.5 1.2 1.8 3.6 1.3 5.3-.6 1.9-2.6 1.6-4.2 1-.7-.2-1.4-.5-2-.8L315 524.3l-54.9-22.7c-3.6-1.5-5.4-3.8-5.5-7.8-.1-9.2-.6-18.4-.9-27.5l-2.5-78.5c0-.9-.1-1.9-.2-3.3l-8.1 6.5c-.4.3-.7 1-.7 1.5l1.6 12.7c2 14.9 2.2 29.7-.1 44.5-2 12.4-6.2 24.1-10.2 35.8-1.7 4.9-3.2 9.9-4.1 14.9-.4 2.2.4 4.9 1.5 6.9 3.3 5.9 3 8.8-2.4 12.7-.1.1-.1.3-.2.5.8 1 1.6 2.1 2.5 3.1 7 7.9 12.6 16.9 20.5 24.1.5.5.8 1.4 1 2.2.3 1.4.4 2.9.6 4.3l3.1 34.5 2.1 23.6c.3 3.3-1.1 5.2-4.1 6.1l-21.3 6.2h-8.8c-1.5-.1-2.9-.2-4.4-.4.3-.2-.1-.2-.5-.3zM214.2 270s-.1 0 0 0c-.2-.2-.4-.4-.6-.5l-1.2-1.2c-.6-.7-1.2-1.5-1.8-2.2-.1-.2-.3-.3-.4-.5-4.2-6.1-6.9-12.8-7.9-20.2l-.3-5.9c-6.9 6.3-12.8 12.4-17.2 20-1.1 2-1.6 3.9-1 6.2s.7 4.8.8 7.3c.4 12.8-1.8 25.3-5.2 37.6-.5 1.7-.3 2.8 1.2 3.6l8.8 4.8c.6.2 1.1.5 1.7.7 8.8 5.1 18.5 6.6 28.5 6.9 3.1.1 6.2.5 8-2.9.2-.4.9-.6 1.3-.9 5.1-3.5 10.4-6.7 15.2-10.5 13.5-10.6 22.3-24.3 26.6-41.7-1.5.1-2.8-.2-3.7.3-2 1-3.8 2.4-5.6 3.8-8.4 6.5-17.8 9.9-28.5 7.9-2.7-.5-4.7-.9-6.4 1.8-.3.6-1.7.5-2.6.7-.1-1-.6-2.2-.2-2.9.9-1.7 2.2-3.1 3.3-4.6 1.5-.3 3.3-4 4.5.3.1.2.6.2 1 .3 10 1.8 19.1-.3 27.2-6.4 1.3-1 2.6-2 4-2.8 4.7-2.7 7.3-2.3 10.9 1.8 1.1 1.3 2.1 2.7 3.3 4 .4.5 1 .9 1.5 1.4 4.4-5.4 7.9-22.9 2.7-31.7-.9-4-3.2-7.2-6.4-9.8-4-3.2-8.8-4.5-13.4-6.5-9.4-4-19.1-1.2-29.3-2.4l3.5 4.4c4.9 7.7 7.4 16.1 6.9 25.3-.7 12.5-7.1 19.4-18.7 20-.3-.1-.7-.1-1-.2l-4.4-1.4c-.2-.1-.5-.2-.7-.3-.5-.3-.9-.6-1.4-.8h-.1l-1.5-1.2c-.2-.2-.4-.3-.6-.5-.2-.1-.4-.3-.5-.4l-.1-.1c.1-.3 0-.4-.2-.6zm147.1-8.8c.3.2.6.5.9.7l3.5 3.3c-1.2.4-2.1.2-2.9-.1l-19-8.4c-.6-.4-1.3-.8-2.1-1.3-1 2.3-2 4.2-2.7 6.3-.8 2.2-2.2 3-4.6 2.9-4-.2-8.1 0-12.4 0-.3 1.5-.6 3.3-.9 5.1v.1c-.1.5-.3.9-.4 1.4l-3.7 15c-.5 2-1.4 3.8-2.1 5.7-.3-.1-.6-.2-.9-.2l4.3-27.6-29.7-1.4-2.5 8.7c-.1.5-.1 1.2.2 1.8l4.5 10.2c1.5 3.8 2.8 7.6 4.2 11.4a3.04 3.04 0 0 0 .5-.7c1.7.7 3.7 1.1 5 2.3 2.4 2 4.5 4.4 6.5 6.9 1.7 2 3 4.2 4.5 6.4l3.7-2.6c.3-.1.7-.2 1-.4l62.3-35.8c.5-.3 1-.7 1.6-1.2l-20.4-53.1c-.4-1.1-.8-2.2-1.1-3.2l-15.5 38.8 17.3 8.7c.5 0 .7.2.9.3zm-21.8-10.8c.4-.9.8-1.8 1.1-2.7.3-.4.7-.7.9-1.2l10.3-25.1c.8-2.1 1.2-4.3 1.9-6.5v.1c.2-.4.3-.9.5-1.3l.3-1.2v-.7l-.6.3c-.9.5-1.8.9-2.6 1.4l-62 35.3-.5 11.3 42.6 1.1c4.8.1 4.8.1 5.9-4.8.2-.5.5-1.1.7-1.6v.1c.5-1.6 1-3 1.5-4.5zM97.5 565c-.4.2-.8.4-1.2.5-.8.5-1.6 1-2.5 1.5.5.4.9.4 1.2.3 10.2-2.6 19.3-7.4 27.1-14.5.9-.8 1.4-2 2.2-3 1.2-.8 2.7-1.4 3.6-2.5 5-6.1 9.8-12.4 14.7-18.5 1.1-1.4 2.7-2.5 4.1-3.8.2.1.3.3.5.4.1-1 .3-1.9.5-3.4-1.1.8-1.9 1.3-2.6 1.8-3.8 2.5-7.4 5.3-11.4 7.4-3.1 1.7-5.4 3.7-6.8 7-.7 1.7-1.9 3.4-3.3 4.6a644.62 644.62 0 0 1-17.4 15.6c-2.6 2.5-5.7 4.5-8.7 6.6zm43.1 32.9c-4.2.6-7.1 3-10 6.9l12.1 5.1 11 2.8c-.7-5.1-2.1-9.1-5-12.5-2.1-2.4-4.9-3.3-8.1-2.3zm70.8 7.2c-5.5-2.7-13.4 1.6-14.4 8.5l15.3 4.5c2.5.5 5 .9 7.6 1.4.1-6.2-2.8-11-8.5-14.4zm45.8-416.3c1.5-.6 3-1.3 4.5-1.7l54.6-14c3.3-.8 3.5-1.2 2.2-4.7-.6.1-1.2.2-1.8.4l-29.4 7.7-25.2 6.7c-1.4.4-3.1 0-4.6-.1.9-.6 1.8-1.5 2.8-1.8l15-4 14.9-3.9c-2.8-12.3-5.3-24.4-11.1-35.5-1.6-3.1-1.2-3.8 2.3-4.5l12.5-2.6c-.4-1.1-.5-1.6-.7-2.1l-7-12.3c-.4-.7-.6-1.7-.5-2.5 0-.3 1.2-.5 1.9-.6l28-2.5-1.2-24.9c-.9.2-1.4.3-2 .5l-56.5 18.3c-1.8.6-2.1 1.5-2.1 3.2l1.2 40.9 1.2 34c0 1.9-.1 3.8-.1 5.7 0 .4.1.8.1 1.3l1 32.8c13.6 3.3 26.6 7.3 30.2 23.3 4-2.8 7.4-5.5 11.1-7.8 6.9-4.5 14-8.8 21-13.1 1.8-1.1 2.5-2.2 2.4-4.3l-1.9-34-.7-11.8c-1.1.2-1.9.3-2.7.5l-28.8 7.2-30.6 7.1v-.9zM135.1 525.3c.4-.2.7-.4 1.1-.6 2.8-1.9 5.7-3.6 8.3-5.7 28.4-22.6 46.2-52 55.4-86.8 5.8-22.2 7.1-44.6 1.2-67.1-2.8-10.7-7.2-20.7-14.2-29.5-1.9-2.3-3.7-4.6-5.8-6.8-2.3-2.4-5-4.5-7.2-7-1.9-2.1-4.4-3.4-7-2.9-4.6 1-9.9 7-10.3 11.9 4.9.9 9.7 1.1 14.5-.6 1.9-.7 3.9-1.1 4.2 1.9-.9.6-1.7 1.4-2.6 1.8-4.4 1.9-9.1 2.2-13.6 1.3-12.5-2.4-24.9-5-37.2-7.8-14.1-3.2-28.2-6.4-42.8-5-8 .8-15.8 2.5-22.6 7-.7.2-1.5.4-2.2.5-6.4 4.1-13 7.9-19.1 12.5-9.8 7.3-16.2 17.2-19.3 29.1-1.1 4.1-1.6 8.4-2.2 12.6-1.4 10.8-2.3 21.7-.6 32.6.1.2.1.5.2.7.1.8.2 1.7.4 2.5.1.2.1.4.2.7 2.2 12.6 6 24.8 12.8 35.7C43.1 483 64.1 505.7 89.8 524c.3.3.7.6 1 .8.8 1.2 1.5 2.4 2.3 3.6l-3.2.3c-2.7-1.7-5.5-3.3-8.6-5.2.2 2.7 0 4.9.7 6.8.8 2.1 2.2 4.1 3.6 5.9.5.7 2.3.4 2.7 1.1 1.9 3.1 4.6 3.7 7.8 3 7-1.7 14.1-2.9 20.7-5.4 6.3-2.5 12.2-6.4 18.3-9.6zm144.7-220.6h.7c-.1-.2-.2-.3-.3-.5-1.6-1.8-3.1-3.8-4.9-5.3-2.8-2.3-4.1-2-6.3.9-1.9 2.5-4 4.3-7.3 5.3-2.9.8-5.8 2.5-8 4.4-5.9 5.2-12.3 9.8-19 13 1.3 1.4 2.8 2.9 4.3 4.6-.1 0 .3-.1.7-.4 9.5-5.4 18.4-12 28.9-15.5.5-.2.9-1 1.1-1.6 1.5-7.2 2.9-7.9 9.6-5a.9.9 0 0 0 .5.1zm-57.4-81.4c-7.4-2.3-10.3-.8-14.3 5.8-1.1 1.7-1.7 3.8-2.1 5.9-2 12 1.2 22.6 9.7 31.2 2.2 2.2 5.3 3.7 8.3 5 2.5 1.1 5.3 1 7.8-.7 4.2-1.7 6-5.4 7.2-9.3 3.4-11.2-1.3-26.7-10.4-34.2-.8-.6-1.7-1-2.4-1.5.2-.4.3-.7.5-1l-4.3-1.2zm192.3 223.8c-.2-1.2-.6-2.5-.6-3.7l-.3-46.6c-.3-13.2-1.2-26.4-1.8-39.8l-4.6-.3-4.2-.3-1.5 89.2 12.8 2.6 11.8 2.7v-92.4l-10.4-1.2.5 6.2 1.9 62.4c.2 5.6 0 11.3 0 16.9 0 3.3-1 4.5-3.6 4.3zm-87.6-88.8v-38.5l-7.8.4c0-.1-.1-.2-.1-.3 0 .1-.1.1 0 .2.1 0 .1.1.2.1 1.4 3.1 2.8 6.3 4 9.4 1.4 3.7 1.1 4.4-2.1 6.6L303.7 348c-2.8 1.8-5 3.6-5.3 7.5-.2 3.4-2.1 4.2-5.4 3.4-1-.2-1.9-.7-2.9-.9-.7-.1-1.7-.1-2.2.3l-23 16c-.8.6-1.4 2-1.4 3.1.2 6 .6 12 .9 18l1.2 21.4 24.2 4.9c.1-.5.2-.9.2-1.2l-1.1-37.3c-.1-2.8.6-3.7 3.3-3.7h5.3v-7.8c0-3 .5-3.5 3.5-3.5h8.4l.2-3.8c.3-3.6.8-4 4.3-3.9 3 .1 6.2.8 8.9-1.3.4-.3 1.2-.1 1.8-.1 0 .3.2.8.1.9-2.3 1.5-3 3.5-2.8 6.2.5 8.1 1.1 16.1.9 24.2-.2 12.7-.9 25.3-1.4 38.2l6.7 1.4c0-.8.1-1.3.1-1.7l-1-68.9c.1-.4 0-.7-.1-1.1zM140.5 594.2c8.5-1 12.7 4.1 15.4 11.4 3.4-4.9 8.1-6.7 13.2-7.8 5.6-1.1 9.9.8 13 5.3l4.6-6.5c.6-.9 1.3-2.1 1.3-3.1l-.2-27.8V558c-6.4.3-12.8.6-18.9-1.3v-1l19.8-1.2c-.7-.6-.9-.9-1.3-1.1-6.8-3.6-13.1-7.7-18.4-13.3-.4-.4-1.1-.6-1.7-.5l-21.6 2.7c-1.4-.1-2.9 0-4.3-.2-3-.4-3.7.2-2.9 3.3.8 3.2 1.8 6.3 2.5 9.5.3 1.3.1 2.9-.3 4.3-.6 2-1.7 3.9-2.2 6-1.5 6.6-2.8 13.3-4.1 20-.8 4.1-1.3 8.3-2 12.4l8.1-3.4zm69.8 6.1c4.5 1.8 8.3 4.4 10.7 9.3 1.7-7.6 6.3-11.3 13.2-12.2 7.1-.9 9.4 5 12.2 9.3 1.5-2.9 2.7-6.1 4.7-8.7 1.4-1.7 1.6-3.2 1.4-5.1l-4.1-42.1c-6.2.5-12 2-17.9.8 0-.2-.1-.5-.1-.7l15.7-3.3-21.8-25c-6.4 2.6-12.5 5.5-18.8 7.5-6.5 2.1-13.3 3.6-20 5.3l-12.9 2.8c.9 1 1.3 1.7 1.9 2.1l15.2 10.1c.7.5 1.6 1.5 1.6 2.4.3 4.8.6 9.6.4 14.4-.4 14.1.6 28 2.5 42.1 3.8-6 8.6-9.9 16.1-9zm149-164.3c-.5-1.2-1.3-2.4-1.4-3.7-.3-3.3-.3-6.5-.5-9.8l-3.3-69.4c-.1-2.1.6-3.4 2.6-3.8 3.2-.7 6.4-1.4 9.6-1.6l58.1-4.7 12.7-1v-23l-98.8.8v2.3l1.4 59.4 1.1 48.5c0 1 .5 2.7 1.1 2.9 5.7 1.3 11.5 2.4 17.3 3.5l10.4 2.5v-84.3c-2 0-4.1.2-6.1-.1-1.9-.3-3.8-1.1-5.8-1.7 2.4 27.7 3.9 55.6 3.2 83.6-.6-.2-1.1-.3-1.6-.4zm-156.7 3.4c-.1.2-.3.4-.4.7-10 31.5-26.7 58.5-52.1 79.9-.4.4-.4 1.3-.6 2-.6 2.2-.7 4.6-1.7 6.6-1.7 3.2-3.9 6.1-6.3 9.8l5-.7c4-.3 8.1-.2 11.9-1 15.7-3.4 31.4-6.6 46.9-10.9 7.5-2.1 14.3-6.5 21.4-9.9 3.4-1.6 3.9-3.1 1.7-6.2-2.8-3.9-2.9-8.1-2.1-12.5.5-3 1.4-6 2.3-8.9 3.3-10.9 7.1-21.6 9.9-32.6 4-16.3 4-32.9 2-49.6-.5-4-.6-8-.9-12.1l-8.1 5.9c-.3-.3-.5-.6-.8-.9 3.4-3.8 6.4-8 10.2-11.4 10.8-9.5 22.3-18 34.7-25.4 4.3-2.6 8.2-5.6 12.3-8.5 2.5-1.8 2.8-1.7 3.5 1.2 1.2.2 2.4.5 3.8.7.2-1.3.5-2.3.6-3.2.1-1.6.3-3.3.3-4.9-.7-11.7-4.5-22.5-9.5-33-1.9-3.9-4.8-6.2-8.5-7.9-4.2-1.9-5.3-1.2-5.2 3.5 0 .4.1.7.2 1.1-.7.8-1.2 1.8-2.1 2.3-8.1 4.4-16.5 8.3-24.3 13.2-12.6 7.9-24.9 16.5-37.3 24.8-.2.1-.5.3-.7.4-1.5.7-2.9 3.5-4.5 1.6-1.4-1.8 1.1-3.2 2.5-4.1l24.8-17.7c1.3-.9 2.8-1.7 3.9-2.9 1.3-1.3 1.2-2.6-.7-3.4-.6-.3-1.2-.5-1.7-.8-2.5-1.2-3.5-.8-4.4 2l3 .3c.9.1 1.9.3 2.8.5-.7.9-1.5 1.3-2.3 1.5-12.7 3.1-25 1.5-36.9-3.7-2.2-.9-4.3-2-6.4-3l-10.6-6.6c-.3.6-.9 1.4-1.4 2.4 1.2 1.2 2.4 2.1 3.4 3.3a104 104 0 0 1 6 7.2c1.3 1.6 2.3 3.4 3.5 5 3.9 6.6 8.4 13 11.5 20 7.5 17.2 8.9 35.4 7.6 53.9-.3 4.7-.5 9.4-1.4 14-1.4 6-3.2 12-4.8 18zm129.2-223c.4.1.7.1 1.1.2l14.6-9c3.6-2.2 7-4.6 10.7-6.5 4.1-2.1 6.8-1.7 7.7 2.7.5 2.8 2 5.4 3.3 8 6.4 12.8 12.1 25.8 15.2 39.9.5 2.1 1.3 4.2 2 6.3.3 0 .5-.1.8-.1.1-.6.3-1.3.3-1.9l-.9-15.2c-.2-3.6-.7-7.2-.9-10.9-.1-2.9 1.4-4.8 4.3-5.5 1.6-.4 3.4-.5 5.2-.7l-1.3-23.6c-.2-3.9.2-4.3 4-4.3h10.8l-.8-12.6c-.1-3.1.7-3.8 3.8-3.9h10.1c.6 0 1.3-.2 1.9-.5 1.3-.6 2.4-1.6 3.7-2 2-.7 4.2-1 5.8-1.4v-29h-.8l-99.8 25c-1.8.4-2 1.4-1.9 2.9l1.2 30-.1 12.1zm99-168.3c-1.6.5-2.8.8-3.9 1.1l-97.3 31.5c-2.6.8-3.2 2-3.1 4.6l3.5 73.5c.1 1.2.1 2.5.2 4l32.9-8.6-3-17.3c-1.5-7.5-1.4-7.6 6.3-8-.3-.8-.4-1.6-.8-2.3-1.2-2.5-2.4-5.1-3.8-7.5-1.5-2.5-.9-4.2 1.9-4.8 1.7-.4 3.5-.4 5.6-.7l-5.6-8.5c-2-3.1-1.3-5.1 2.4-5.5 4-.5 8-.7 12.2-1l-2.6-9.3c-.5-1.8.1-3 2-3.4l23.3-5.8-.3-3.7c-.3-3.5.1-3.8 3.5-3.3.9.2 1.8.3 2.7.1l24-3-.1-22.1zm99 142.6l-3.4-33.4c-10.9 2.8-21.6 6.6-33 5.4.8 2.9 1.9 5.4 2.1 8 1.1 9.5 2.2 19 2.7 28.5.7 13.1 1 26.3 1.5 39.5l2.3 64.5c0 .3.2.7.3 1.1l17.1-.8v-26.1l-1.7-62.1c-.2-6.7-1.3-13.4-2.1-20-.2-1.7-.2-3.1 2.1-3.2l12.1-1.4zM348.6 516.4c0-.7-.1-1.3-.1-2l-2.1-41.4c-.2-3.3.7-4 4-3.7 2.4.3 4.9.4 7.3.8 6.8 1.1 13.8 1.5 20.3 3.5 19.4 6 38.6 12.6 57.9 18.9 1.7.6 3.5 1 4.9 1.4l.1-23c0-2.3-.9-3-3-3.5l-96.8-24.2v3.3l1.4 62.9c.1 5.5.1 5.5 5.4 7.1.2 0 .3-.1.7-.1zm90.8-471c-6.2 1-6.2 1-5.9 6.8v1.1l7.8 301.2 5.1 210.9c0 3.1 1.1 4.5 3.5 4.6L439.4 45.4zm-8.1 28.7l-13.6 2.1-13.2 1.7 7.4 63.7 20.7-5.4-1.3-62.1zm68 230.5l-2-39.3-3.3-72.4c-.3-6.1-1.1-12.2-1.7-18.5-3.2.9-6 1.6-8.8 2.3-.3.1-.5.2-.6.3 1.8 42.6 4.2 85.1 3.2 127.6h13.2zM411.6 183l6.7 125c1.6 0 3.5.1 5.4 0l5.4-.3-6.1-124.6c-3.7-.1-7.5-.1-11.4-.1zM260.8 377.4c-3.1 1.7-4.8 3.2-4.7 7l3.6 107.9c.1 2 .6 3 2.6 3.7l65.1 25.7 2.5.9c0-2.4-.1-4.4 0-6.4.1-1.9-.6-2.9-2.4-3.6l-26.2-9.9-32-12.4c-1.9-.7-2.9-1.7-3-3.9l-5.5-109zm136.3-177.9l6.3 109h11.3l-6.4-109h-11.2zM266 424.7l1.1 20 2.4 40c.1.9.5 2.1 1.1 2.5 1.9 1 3.9 1.5 6.4 2.4l-2.7-18.1-2.7-19.1c-.4-3.1.8-4.3 3.8-4.2 1.4 0 2.8.2 4.3.2.7-4.7 1.3-5.4 6.1-5.4s9.5.4 14.3.8c3.2.3 5.9 1.5 6.2 5 2.4.6 4.5 1.2 6.7 1.8 1.9-2.8 4.7-1.3 7.3-1.2 2.7.1 5.3.4 8.2.7 0-3.2.1-6-.1-8.7 0-.6-.9-1.5-1.6-1.7-3.3-.9-6.7-1.7-10-2.5L266 424.7zm142.8-282.3L401.3 83l-21.9 7.3c5.4 18.2 11.6 36.6 13.2 56.4l16.2-4.3zm-74.3 162.8c-4.4 1.4-4.3 1.4-4.3 5.5l3.4 209.9c.1 4 1 5 5.3 5.1l-4.4-220.5zm8.3 213.5c0 2.3.1 4.3 0 6.2-.2 2.2.7 3.2 2.7 4l97.5 38.4c0-2.9-.1-5.5 0-8.1.1-2.1-.7-2.9-2.7-3.7l-91.8-34.8c-1.8-.5-3.6-1.2-5.7-2zm136.9-155c7.1 32.9 8.3 66.3 7.5 100.1l6.5 1.4c1.2-34.4 3.6-68.6.6-102.6-5.3.3-10 .7-14.6 1.1zm-175.6-194c4.1-1.1 8.2-2.3 12.3-3.1 1.9-.4 2.4-1.2 2.3-3.1l-2.8-48.7c0-.4-.2-.8-.4-1.4l-25.3 3.3 6.2 11.3c.6 1 1.6 1.7 2.4 2.4-.1.7-.7 1.7-.5 2.5 3.7 11.9 5.7 24.1 5.8 36.8zm69.3 185l-1.1 84.7 11.7 2.4c.6-28.9-2.4-57.5.8-86.4-3.8-.3-7.4-.5-11.4-.7zm24.5 90v-88.6l-9.7-.5c-3 29.1.5 57.9-1.7 86.7l11.4 2.4zm71.3-250.2c.8 6.3 1.8 12.3 2.4 18.4 1 10.6 2.2 21.2 2.5 31.8.5 18.2.4 36.3.5 54.5 0 2.1.2 4.1.3 6.2h4.4c1.4 0 2.8-.1 4.2-.2l-3.6-113.6-10.7 2.9zm-87.8 115.4c-2.1-10.3-3.9-20.2-2.8-30.5l-39.4 23c-.5.3-1.1.9-1.1 1.4-.1 2.7-.1 5.3-.1 8.2l43.4-2.1zm-127.1-88.1v-2.2l-1.6-48.2-2-64.6c-.1-2.9.7-4.1 3.5-5l56.4-18.3c4.2-1.4 4.3-1.5 3.2-6.3-.3.1-.7.1-1 .2l-64.1 21c-1.7.5-1.6 1.5-1.6 2.9l3.7 117.4c0 1 .1 1.9.2 3 1.3.1 2.2.1 3.3.1zM438 359.1h-3.4c-2.3 0-3.1 1-2.8 3.4s.3 4.9.3 7.3l-1.4 74.1c0 2.1-.1 4.2 0 6.3 0 .6.7 1.6 1.2 1.7 2.8.7 5.6 1.2 8.7 1.8l-2.6-94.6zm-4.3-179.8c-1.4.3-2.4.6-3.5.6-2.8.2-3.5 1.5-3.3 4.2.5 6.2.7 12.5 1 18.8l3.9 91.5c.2 4.3 0 8.6 0 13.1 2-.1 3.4-.2 4.9-.2l-3-128zm7 285.4c0-2.1-.1-4 0-5.9.1-1.8-.7-2.4-2.2-2.7l-13.1-2.8-69.9-15.1-14.3-2.9c-.6 5.2-.6 5.2 4.1 6.3l73.3 17.7 22.1 5.4zm38.7-2.6c1.2.3 3.1.6 5 1 .6-29.6-1.3-58.7-4.7-87.7h-4.4l-3.3.3 7.4 86.4zM317.8 84.7l7.5 136.4c3.3-1.3 3.3-1.3 3.2-5.1l-4-105.1-1.2-28-5.5 1.8zm143.3 127.2l6 94.1c1.3-.1 2.9-.2 4.2-.2-1.5-31.7 1.4-63.2-3.2-94.5-2.4.1-4.8.4-7 .6zm19.7-137.5c4.1 15.7 7.2 31.4 6 47.8L499 119l-4.7-50.8-13.5 6.2zm-60.3 469.9l-2.2-42.6c0-.5-.5-1.3-.9-1.4-4-1.5-8-2.8-12-4.3-.2.5-.3.7-.3 1l.8 40.3c0 .6.5 1.4 1 1.6 4.2 1.9 8.5 3.5 13.6 5.4zm9.8-505.4L325.8 73.2c.1 1.8.2 3.4.4 5.2 1.2-.4 2.1-.7 2.9-.9l96.8-31.3c4.9-1.5 4.9-1.5 4.4-7.3zm6.3 511.6v-41.8c0-.6-.3-1.6-.7-1.8-4.2-1.6-8.4-3-12.6-4.5l1.3 43.5 12 4.6zm-120.4-98.8v52.8l10.2 3.8-.9-56.1c-2.6-.2-6-.3-9.3-.5zm77-142.6h7.3l-5.2-81.8c-5.8-.8-7 .4-6.4 5.8.4 3.9 1.1 7.8 1.3 11.6l3.3 56.1c.2 2.7-.2 5.5-.3 8.3zm-4.4 181.1l1.5 42.6 11.7 4.5v-22c-.1-6.2-.5-12.4-.8-18.5-.1-.9-.7-2.2-1.4-2.5-3.5-1.6-7.1-2.7-11-4.1zm48-180.3l-20.2 1c-6.6.3-13.3.2-19.8.9-6.3.6-12.5.5-18.8.9-6.6.4-13.2.6-19.8.9l-20 .9c.1 1.1.1 2 .2 3.1l98.5-1c-.1-2.4-.1-4.4-.1-6.7zM318.8 428c-.6-21.7 2.2-43.2.3-64.7l-5.6.7-3.6 62.2c2.8.5 5.8 1.1 8.9 1.8zm11.6-258.5L433 143.7l-.3-5-102.2 26.6c-.1 1.5-.1 2.7-.1 4.2zm-47.4 137c11.3 11.7 13.6 26.7 16.6 41.4l18.7-13.2c3.4-2.4 3.5-3.2.5-7.4l-.6 3.2c-2.1.2-3.9.3-5.7.6-4.3.9-8-.7-9.3-4.6-.6-1.6-.3-3.5-.4-4.7-1.8-1.2-4-2-5-3.6s-.8-3.9-1.1-6.1c-3.2-.3-5-1.9-4.4-5 .5-2.6 1.8-5.1 3.1-8.5l-12.4 7.9zm18.6-136.1c-1.2-12.9-2.6-25.4-6.5-37.3l-13.6 3.6c5.5 11.5 8.7 23.7 10.9 36.2 3-.9 6-1.7 9.2-2.5zm-7.1 276v2.8l.4 19.1.5 26.4c0 .8.4 1.9 1 2.2 2.4 1.1 4.8 1.9 7.5 2.9v-2l-.5-43.8c-.1-6.4 0-6.4-6.6-7.2-.7-.2-1.4-.3-2.3-.4zm5.9-75.5c0 2.5-.4 4.9.1 7.1.5 2.3-.1 4.3-.1 6.5V418c0 7.4-.7 5.6 5.9 7.1.1 0 .3-.1.6-.2l2.8-54.7-9.3.7zm61.2 109.4l1 40.6c0 .5.3 1.2.6 1.3 3.2 1.3 6.5 2.5 10.1 3.9l-2-40.9c0-.7-.8-1.7-1.4-1.9l-8.3-3zm13.6 5c-.1.7-.1 1.1-.1 1.4l1.4 39.4c0 .6.4 1.5.9 1.7 3.1 1.3 6.2 2.4 9.7 3.7L385 490c0-.6-.7-1.4-1.3-1.7-2.7-1-5.4-1.9-8.5-3zm14.9-338c-2.9-16.1-6.5-31.7-11.4-46.8l-11.6 3.2c9.2 13.8 14.9 28.8 18.8 44.7l4.2-1.1zM478 519.6c-1.5.6-2.3.9-3.1 1.3-5.5 2.2-5.6 2.6-5.3 8.4.4 8.7.6 17.4.7 26.1 0 2.5-.4 5-.6 7.6l8.3 3.2v-46.6zm3.9-430.4l-10.3 3.4c1.6 3.3-.2 7.8 3.1 10.4-.4 1-1 1.8-1 2.6 0 1.8.4 3.6.5 5.4l.9 14.2 3.8-.9c5.8-1.5 6-1.5 5.6-7.6-.7-9.2-1.7-18.3-2.6-27.5zM223.3 619.5c7.8 1 17.6-.4 22.4-3.1-.8-5.4-3.2-10.5-6.2-13.6-1.6-1.6-3.4-2.2-5.7-1.8-6 1.3-9.3 4.5-10.2 10.5-.3 2.6-.2 5.2-.3 8zM291 445.2c-1 0-1.7-.1-2.3 0-2 .3-4.1.4-5.7 1.3-.6.3.2 2.9.3 4.5.1.8-.1 1.6 0 2.3l3.9 38.7c.1.6.6 1.5 1.1 1.8 1.2.7 2.6 1.1 3.9 1.5l-1.2-50.1zm67.8 75.5l-1.6-40.4c0-.6-.3-1.6-.8-1.8-1.9-.9-3.9-1.6-6.1-2.5l1.7 42.1 6.8 2.6zM265.9 422l62.3 15.4c.5-4.9.5-4.9-4-5.9l-22.1-4.7-36.4-7.9c.1 1.2.2 2.2.2 3.1zm117.2-272.9c-3.2-10.8-6.8-21.2-11.7-31.1-.2-.5-.9-1-1.4-1-1.8 0-3.7.2-5.9.3 5.4 11 8.6 22.2 10.5 34l8.5-2.2zm-98.7 127.5c-1.7 2.4-3.8 4-6.2 2.5-2-1.2-3.3-3.4-5-5.4-1.8 10.4-6.2 19.5-12.2 27.9 1.2-.3 2.6-.7 3.3-1.5 2.7-3 5.3-5.6 9.5-7 5-1.6 9.4-4.9 14.2-7.5l-3.6-9zm106 33l-2-35.9c-1.5.7-2.4 1.4-3.4 1.7-2.4.8-3.2 2.4-3 4.9l1.4 27.7c0 .6.2 1.2.3 1.6h6.7zm-77.8 193.5l-1.1-37.9c-.1-3.6-.8-3.9-5.3-3.7-.1.2-.2.3-.2.5l.8 37.5c0 .7.8 1.6 1.4 1.9 1.3.7 2.8 1.1 4.4 1.7zm-28.4-11c0-1.2.1-2.2 0-3.1l-3.5-33.8c-.5-4.9-.7-5-5.7-4-.2 0-.3.2-.6.4.1.9 0 2 .2 3.1l4.5 32c.6 4.2.4 4.3 5.1 5.4zm13.3-68.7v-41.2l-5.1.2v39.9l5.1 1.1zM181.9 609.5c-5.1-8.1-8.5-9.5-16-6.9-5.8 2.1-8.2 5.2-7.6 10.2 8 .4 15.8-.5 23.6-3.3zm190.6-457.6l-1.8-8.1-2.4-9.5c-.7-2.5-2.9-2.6-4.9-2.3-2.3.3-1 2.3-.9 3.3.9 6.1 2.1 12.1 3.2 18.4 2.1-.6 4.4-1.2 6.8-1.8zm92.8-48.1l2.9 23.4 4.6-1.4-2.1-22h-5.4zm-24.4 404.5c-.3.1-.5.2-.8.4V552c.9.3 1.8.5 2.9.9l-1.1-42.3c0-.9-.6-1.6-1-2.3zm-3.6-11.4l-15-4.8c.1 2.2.1 4 .3 5.6.1.7.5 1.7 1.1 1.9 4.2 1.7 8.5 3.2 13 4.8.1-2.6.3-4.8.6-7.5zM277.6 295.3l6 7.3 8.7-5.9-2.9-7.2c-4.1 1.9-8 3.9-11.8 5.8zm140.7 202.5v-7l-13.9-4.2c.1 1.6.1 3 .3 4.3.2.9.6 2.1 1.3 2.3 3.9 1.6 7.9 3 12.3 4.6zM318.2 324.4l-6.2-8.6c-1.8 2.4-3.6 4.2-4.8 6.4-.6 1-.6 3.1.1 3.8.8.9 2.7 1.6 3.9 1.4 2.2-.5 4.3-1.8 7-3zm69.4 156.7c.7 2.5.7 5.4 1.9 6 3.5 1.9 7.5 2.9 11.5 4.3 0-1.8.1-3.4 0-4.9-.1-.6-.5-1.4-1-1.6l-12.4-3.8zM253.2 599.8c-2.9 4.7-4.2 9.9-3.9 15.6 1.1-.4 1.9-.8 2.6-1 2.6-.5 3.2-2 2.7-4.5l-1.4-10.1zm132.3-119.5l-10.6-3.4c-.2.1-.5.3-.7.4.6 1.7.7 4.3 1.9 5 2.6 1.6 5.8 2.2 9 3.3 0-1.8.2-3.3.4-5.3zM305.8 307c-2 2.4-3.8 4.3-5.2 6.4-.5.7-.5 2.6 0 3.1.7.7 2.4 1.1 3.3.7 2.1-1 4-2.5 6.2-3.9-1.5-2.3-2.7-4-4.3-6.3zm6.2 153.8c.3-.3.7-.6 1-.9.8-6.9-.5-8.6-6.7-8.5-1.2 5.4-.8 6.8 1.8 6.9.3-.6.5-1.2.6-1.4 1.2 1.4 2.2 2.7 3.3 3.9zm-16.3-151.7l8.8-4.1-4.3-4.7c-2.5 2.3-4.8 4.4-4.5 8.8zM433.4 43.6c6.9-1.9 6.5-.7 5.7-7.3-6.4 1.2-6.4 1.2-5.7 7.3zM361 475c.1 2.5 3.9 4.4 10.2 5.5.1-1.4.1-2.8.2-4.2-3.7-.4-7-.9-10.4-1.3zm-47-162.8l-.5.5c1.2 1.6 2.3 3.2 3.6 4.7.3.3.9.6 1.3.6 2.6-.1 5.2-.4 7.8-.6.2 0 .3-.2.6-.4l-.3-2h-5.4c-2 0-4.3.9-5.4-1.9-.1-.4-1.1-.6-1.7-.9zm9-238c-2 .6-3.9 1.3-5.9 1.9l.3 5.1c6.9-2 6.4-.8 5.6-7zm5.4 406.1h.6v-26.5h-.6v26.5zm.4 28.9h.4v-27.4h-.4v27.4zm-143.1 97.7l.9.3c3.4-1.7 3.7-3.3 1.5-9.3l-2.4 9zm255.9-109.2c-.4-.1-.8-.1-1.3-.2-.1 2.6-.3 5.1-.2 7.7 0 .4.9.7 1.5 1.2v-8.7zM319.8 312.3c.1.3.2.6.2.9l6.7-.7c-.1-1.3-.1-2.3-.2-3.6l-6.7 3.4zm37.5 163.6c-1.2-1.9-4.4-2.6-6.6-1.7 2.2.5 4.2 1.1 6.6 1.7zm-235.5 62.4l.2-.2c-.1-.1-.2-.1-.3-.2l-.2.2c.1.1.2.1.3.2z" class="r"/><path d="M534 120.7l13.1-2.9v507.3H233.2v-.6l21.3-6.2c2.9-.9 4.4-2.8 4.1-6.1l-5.2-58.1c-.1-1.4-.3-2.9-.6-4.3-.2-.8-.4-1.7-1-2.2-7.8-7.2-13.4-16.2-20.5-24.1-.9-1-1.7-2.1-2.5-3.1.1-.2.1-.5.2-.5 5.3-3.9 5.7-6.8 2.4-12.7-1.1-2-1.9-4.7-1.5-6.9.9-5.1 2.5-10 4.1-14.9 4-11.8 8.2-23.5 10.2-35.8 2.4-14.9 2.1-29.7.1-44.5-.6-4.2-1.1-8.4-1.6-12.7-.1-.5.3-1.2.7-1.5 2.5-2.1 5.1-4.1 8.1-6.5.1 1.4.2 2.4.2 3.3l3.4 106c.1 4.1 2 6.4 5.5 7.8l54.9 22.7L487.9 594c.7.3 1.3.5 2 .8 1.6.6 3.6 1 4.2-1 .6-1.7 1.2-4.1-1.3-5.3-4.6-2.2-9.1-4.4-13.8-6.4l-27-10.9.6-10.6c3 1.1 5.7 2.2 8.5 3.3l21.9 8.2c.9.3 2.1-.3 3.1-.5-.6-.9-1-2.3-1.7-2.5-2.9-.6-3.4-2.5-3.4-5l-.2-24.5c-.2-13.8.8-27.6-1.7-41.6l19.8 2c1 .1 2-.1 3-.2.4.3.9.7 1.4.8l12.8 2.9c2.7.6 5.4 1.2 8.2 1.6 2.2.3 3.3-.6 3.2-3.1-.2-4.1 0-8.1 0-12.2.8.2 1.6.6 2.4.4.9-.2 1.7-.8 2.6-1.2-.5-.7-1-1.6-1.7-2.1-.8-.5-1.9-.5-2.9-.8l-74.3-18.2c-1.8-.4-2.7-1-2.5-3 .2-1.8 0-3.6 0-5.7l18.1 3.7 57.4 12.6c.9.2 2-.6 3-1-.7-.8-1.4-2.2-2.2-2.4-5.2-1.2-10.5-2.1-15.7-3.1 1.8-27.1 3.6-53.9.1-81.1 2.5 0 4.9.2 7.2-.1 2.1-.2 4.1-1 6.1-1.6-.1-.5-.1-.9-.2-1.4H518c-1.8 0-3.6 0-5.4-.2-3.3-.3-3.8.3-3.6 3.7.6 8.2 1.7 16.3 1.7 24.5-.1 18.4-.8 36.8-1.2 55.7l-13.1-2.8c1.6-38 5.7-75.9-.7-113.6l18.8-2c2.4-.2 4.9-.2 7.3-.5 3.7-.5 7.4-.8 11-1.7 3.2-.8 5.1-3.3 5.2-6.6.1-7.7.2-15.4-2.5-22.8.6-.6 1.2-1.3 1.8-1.9-.9-.4-1.8-1.1-2.7-1.1l-86 1v-6.7l21.5-1.2 30.7-1.2 36.7-1.8c.8 0 1.6-1 2.5-1.5-.8-.5-1.7-1.3-2.5-1.3l-15.5.8c2.2-36.1 1.7-71.9-2.7-107.7l11-1.9c.5 6.8 1.2 13.5 1.3 20.1.1 9.8-.5 19.6-.2 29.4l2.3 53.9c0 .8.9 1.5 1.3 2.2.3-.7 1-1.5 1-2.2l-.3-66.8c-.2-11.9-.6-23.8-1.4-35.7-.6-9.3-2-18.6-2.9-27.9-.6-6-.8-11.9-1.2-18.3 2.9.3 5.6.7 8.4.8 1.6.1 4.1.5 4.3-1.7.2-2.6-2.5-1.9-4.1-2.3-.7-.2-1.4-.2-2.2-.2 2.1-5.3 1.4-10.9 1.2-16.4-.4-3.2-1.2-6-3.8-8.2zm-32.2 415.8c0-.2-.1-.4-.1-.7-.7-.2-1.3-.5-2-.5-4.7-.6-7.9 1.5-7.8 5.3l.8 28.8c0 1 .6 2 .9 3 .3 0 .6-.1.9-.1.1-1 .3-2 .3-3l-.1-26.1c-.1-3.1.8-4.8 3.9-5.3 1.2-.2 2.2-.9 3.2-1.4z" fill="#fcfcfc"/><path d="M547.1 115.1l-19 4.6-57.7 14.5c-8.2 2.1-16.5 4-25.1 6v-4.9l27.8-7.3 74-19.1v6.2z" class="p"/><path d="M233.3 624.5v.6h-8.7v-.7l8.7.1z" class="b"/><path d="M224.5 624.4v.7h-4.4v-1l4.4.3z" class="t"/><path d="M220.1 624.1v1H219v-1.2c.4.1.8.1 1.1.2z" class="b"/><path d="M527.7 40.8c-1-.3-2.1-.9-3-.7l-14.9 4.1-17.2 4.9c-.8.2-1.8 1.9-1.7 2.8.4 3.7 1.2 7.3 1.9 11 .2 1.3.6 2.6.9 3.8-4.3 1.4-8.4 2.7-12.4 4.3-3.4 1.3-3.7 2.4-2.8 5.9l2.8 10.4c-3.5.5-6.6 1.1-9.7 1.4-2.7.3-3.4 1-2.9 3.7.5 2.8 1.1 5.6 1.7 8.7-2-.1-3.5-.3-5-.2-2.7 0-3.9 1.4-3.4 4l4.6 22.6-21.7 5.6v-12.6l-1.5-73.6c-.1-2.4.7-3.2 2.9-3.9l86.8-28.1c1.4-.4 2.8-.9 4.1-1.3 2.4 3 2.1 3.8.8 7.3-1.2 3.2-1.5 6.8-2.1 10.2-.2.8-.4 1.6-.4 2.4-.6 4.7-3.5 6.8-7.8 7.3z" class="u"/><path d="M23.5 461.3c5.2 7.1 10.1 14.4 15.7 21.2 10 11.9 20.3 23.5 32.2 33.5.4.3.7.8 1 1.2l-5.6-3.6c-18.8-12.4-31.5-30-42.3-49.2-.5-1-.7-2.1-1-3.1z" class="d"/><path d="M198 180.2l-6.3-14.1c-1.6-3.6-3.3-7.3-4.7-11-.4-1 .1-2.3.3-3.4 1.1.3 2.3.4 3.4.9.7.3 1.1 1.2 1.5 1.9 4.2 8 6.8 16.3 6.7 25.4l-.9.3z" class="o"/><path d="M157.3 220.9c-8.1-4.5-15-10.6-21.5-17.1-.7-.7-.5-2.2-.7-3.4 1.1.2 2.6-.1 3.3.5 5.8 5.1 11.5 10.4 17.2 15.7 1 1 1.6 2.4 2.3 3.7-.2.3-.4.5-.6.6z" class="r"/><path d="M142.8 269.2c-7.4 2.5-14.4 1.3-21.2-1.2-1-.4-2.1-.9-2.8-1.6-.5-.5-.6-1.5-.8-2.3.7-.2 1.5-.7 2.2-.6l19.3 4.3c1.1.2 2.1.8 3.3 1.4zm72.8-62.1c-6.9.3-10.3 4.2-11.9 10.2-.2.7-.8 1.2-1.3 1.8-.5-.6-1.4-1.2-1.5-2-.9-4.5 3.9-11.6 8.4-12.5 2.7-.5 4.3 0 6.3 2.5z" class="o"/><path d="M78.2 522.9l.9 9.4c-2.5-2.8-2.8-6-.9-9.4zm-4.6-4.8l1.6 1.2c-.6-.4-1.1-.8-1.6-1.2z" class="d"/><path d="M214.7 623.3c.4.1.7.1 1.1.2-.4-.1-.8-.2-1.1-.2z" class="b"/><g class="d"><path d="M79 532.3c.1.4.3.7.4 1.1-.1-.3-.2-.7-.4-1.1zm-2.7-12l1 .7c-.3-.2-.6-.5-1-.7z"/><path d="M77.3 521c.2.2.4.3.6.5-.2-.2-.4-.4-.6-.5zm.6.4c.1.2.2.5.4.7-.2-.2-.3-.4-.4-.7zm-2.2-1.6c.2.2.4.3.6.5-.1-.2-.4-.3-.6-.5z"/><path d="M75.1 519.3c.2.2.4.3.6.5-.1-.1-.3-.3-.6-.5zm-2.1-1.7c.2.2.4.3.6.5-.2-.1-.4-.3-.6-.5z"/><path d="M72.4 517.1c.2.2.4.3.6.5-.2-.1-.4-.3-.6-.5z"/></g><path d="M186.9 335.6c7 8.7 11.3 18.8 14.2 29.5 6 22.4 4.7 44.9-1.2 67.1-9.1 34.8-27 64.2-55.4 86.8-2.6 2.1-5.5 3.8-8.3 5.7-.4.2-.7.4-1.1.6l-17 5.3c-6.7 1.9-13.4 3.9-20.5 2.4-3.1-.6-6-1.5-7.8-4.2l3.2-.3c-.8-1.2-1.5-2.4-2.3-3.6-.2-1.4-.5-2.8-.7-4.3-.4-.8-.8-1.6-1.1-2.4-.5-.6-1.1-1.1-1.6-1.7-.8-.7-1.5-1.4-2.3-2.1l-.9-.6-1.3-1c-.5-.4-1-.7-1.5-1.1-.4-.3-.8-.7-1.2-1-.5-.4-1-.8-1.5-1.1-.4-.3-.8-.7-1.3-1l-.9-.6c-.4-.4-.9-.7-1.3-1.1l-3.1-2.2-1.3-1c-1-.8-2.1-1.5-3.1-2.3-.4-.3-.8-.7-1.2-1l-1.5-1.2c-.6-.5-1.2-1.1-1.8-1.6l-8.7-8.7c-.4-.4-.7-.8-1.1-1.3s-.7-1-1.1-1.5c-.4-.4-.7-.9-1.1-1.3l-.6-.9c-.3-.4-.7-.8-1-1.3l-.6-.9-1-1.3-.6-.9-1-1.3-.6-.9c-.4-.4-.7-.9-1.1-1.3l-.6-.9c-.4-.4-.7-.9-1.1-1.3l-.6-.9-1-1.3c-.6-.8-1.2-1.7-1.7-2.5-.3-.4-.6-.9-1-1.3-.8-1.4-1.5-2.8-2.3-4.2l-2.6-4.7c-.3-.8-.6-1.6-.8-2.4-.3-.5-.5-.9-.8-1.4l-1.4-4.1c-.3-.5-.5-.9-.8-1.4-.5-1.7-1-3.4-1.4-5.1-.1-.4-.2-.7-.3-1.1l1.8-4.6c.3-.5.6-.9.8-1.4.5-1.3.9-2.6 1.4-3.8-.1-.4-.1-.8-.2-1.1l1.2-2.1c.2-.2.3-.5.5-.7l3.2-4.8c.1-.2-.4-.7-.6-1l.8-7.1.3-.9c-.7.3-1.5.6-2.2.8-.9.5-2.1.8-2.8 1.6-2.4 2.8-4.6 5.8-6.8 8.7-.4-.5-.8-1-1.1-1.5 0-.4-.1-.7-.1-1.1-.1-.7-.3-1.4-.4-2.2 0-.4-.1-.7-.1-1.1-.1-.7-.3-1.5-.4-2.2 0-.4-.1-.7-.1-1.1-.1-.9-.3-1.8-.4-2.7-.1-1.1-.2-2.2-.2-3.3v-13.1c.1-1.6.1-3.3.2-4.9.1-1.1.3-2.2.4-3.2.1-.5.1-1.1.2-1.6l.3-1.6c.1-.4.1-.8.2-1.1.3-.9.7-1.7 1.3-3.3.6 1.6 1 2.5 1.3 3.5 1.6 4.1 3.1 8.3 4.9 12.4.6 1.4 1.9 2.6 3.1 3.7 1.3 1.1 2.6.4 3-.9.2-.7.9-2.7-1.3-2.8-.2-.9-.4-1.7-.7-2.6-.2-.6-.4-1.2-.6-1.7-.3-1.4-.4-2.8-.8-4.2l-6.2-18.8 3-10c.4-.4.7-.9 1.1-1.3.1.4.2.7.3 1.1.2-.1.4-.3.6-.4-.3-.2-.6-.4-.9-.7v-.7l1.8-3.2c.4.3.8.7 1.4 1.2l3.5-6c.4-.6.8-1.1 1.1-1.7v.1l6.6-7.7c0-.1.1-.1.1-.2s-.1-.2-.1-.3c.2-.2.4-.4.5-.6.6-.7 1.1-1.4 1.7-2.2.5-.2 1-.4 1.4-.5.2-.2.5-.4.7-.6l.6-.6 6.2-2.3c11.5-4.7 23.7-4.2 35.8-4.8l7.8 9.4c.3-.2.6-.5.8-.7l-6.9-8.6c2.5.3 5.1.4 7.5.8l48.1 8.7c7.2 1.2 14.5 1.4 21.3-2 2.1-1 3.7-3.2 5.5-4.8.2-.4.7-1 .6-1.3-.4-1.1-1-2-1.5-3 1.8 1.2 3.7 2.4 5.5 3.7 1.4.8 3 2 4.7 3.2zm-45.4 58.3c.4.3.8.6 1.1.9 0-.3.1-.6.1-.9-1.1-1.2-2.1-2.4-3.2-3.6 0 .1-.1.1-.4.5.8.9 1.6 2 2.4 3.1zm47-39c.5.7 1.2 1.4 1.5 2.2.5 1.3.9 2.7 1.3 4 1 5.8 2.5 11.5 3.1 17.3 1.9 20 .8 39.8-3 59.5l-4 13.5c.3.1.5.2.8.2 2.4-4.2 3.2-9 4.1-13.8.8-2.9 1.7-5.8 2.4-8.7 5.6-22.9 5.8-45.7-2.4-68.2l-4-11.8c-.2.1-.3.1-.5.2.2 1.4.5 2.7.7 4.1-.3 0-.7.1-1 .1l-16.8-1.3c-.9-.1-1.8.4-2.6.7.1.3.1.6.2.9l20.2 1.1zm-68.1 49.8c6.6-6.4 18.2-24.5 17.8-27.6-.3.3-.6.5-.8.8l-16.6 25.5c-.2.4-.2.9-.4 1.3-.2.1-.5.1-.8.1 0 .1.1.3.1.4.3-.2.5-.3.7-.5zm7.6 113l-16.3-21.4v-.2c-.1 0-.1.1-.5.3.5 1.1.8 2.4 1.5 3.4l9.1 12.9c1.5 2 3.4 3.7 5.1 5.6l-12.5 7.6c.1.3.2.7.3 1 2.1-.4 4.5-.3 6.3-1.3 9.6-4.9 19-10.2 26.8-17.9 10.5-10.4 19.2-22.3 28.1-34 1.4-1.8 2.2-4 3.2-6-.9-.1-1.7.2-2.1.7l-18.1 22.4c-8.6 10.7-18.5 20.2-30.9 26.9zm1.1-144.9c.2-.2.5-.4.7-.7l-24.4-29.6c-.3.2-.7.4-1 .7.6 1 1 2 1.7 2.8l19 23.3c1.2 1.4 2.7 2.4 4 3.5zm-17.2 73.4c-1.7 12.5-2.4 25.1-1.1 37.6h1.1v-37.6zM70 488v.7c11.5 2.9 23.3 3.6 35.1 4.3 0-.4.1-.8.1-1.2L70 488zm90.8-68.9c-.2-3.9-15.9-23.9-18.8-24.3l18.8 24.3zm23.7 26.2C182 441 166 433.5 163 434.8l21.5 10.5zm-39.6-68.4c9.2-2.8 15.3-10.1 22.2-16.4l-22.2 16.4zm-71.5 44.9c.1-.4.2-.8.2-1.2l-29-5.7c-.1.4-.1.7-.2 1.1l29 5.8zm33.1 6.5c.1-.2.2-.5.2-.7-6.6-4-14.2-4.3-21.3-6.2-.1.4-.2.7-.3 1.1l21.4 5.8zm51.3 4.4c-10.6-.9-21.4-1.9-32.1-1v1h32.1zm-54.6-92.4c-.3.3-.6.5-.8.8.6.7 1.3 1.4 1.9 2.1.3-.2.5-.5.8-.7-.6-.7-1.2-1.5-1.9-2.2zm65 20c-.1-.1-.1-.2-.2-.2s-.1.1-.2.1l.2.2c.1 0 .2-.1.2-.1z" fill="#fcfcfd"/><path d="M188.6 322.2l6.4 3c11.9 5.2 24.2 6.8 36.9 3.7.8-.2 1.6-.6 2.3-1.5-.9-.2-1.9-.3-2.8-.5l-3-.3c.9-2.8 1.9-3.2 4.4-2 .6.3 1.2.5 1.7.8 1.8.8 1.9 2.2.7 3.4-1.1 1.1-2.6 1.9-3.9 2.9l-24.8 17.7c-1.3 1-3.9 2.4-2.5 4.1 1.5 1.9 3-.9 4.5-1.6.2-.1.5-.3.7-.4l-.9 5.4c3.1-3 5.9-5.9 8.9-8.4 15.8-13.5 33.7-23.5 52.7-31.6.7-.3 2.2.1 2.6.7 3.1 4.8 6.2 9.6 8.9 14.6 1.5 2.8 2.1 6.1 3.3 9.2.3.7 1.1 1.4 1.8 1.6.4.1 1.5-1 1.5-1.6.1-3.3 0-6.5 0-9.8-.2-.9-.3-1.9-.5-2.8-2-4.4-3.9-8.8-6.1-13.2-.8-1.7-2.2-3.1-4.5-2.8l-4.2-1.5c-.1-.4-.2-.7-.2-1.1-.1-4.7.9-5.4 5.2-3.5 3.7 1.7 6.7 4 8.5 7.9 5 10.5 8.8 21.3 9.5 33 .1 1.6-.1 3.3-.3 4.9-.1 1-.3 1.9-.6 3.2-1.4-.3-2.6-.5-3.8-.7-.7-2.9-1.1-3-3.5-1.2-4.1 2.9-8 6-12.3 8.5-12.3 7.4-23.9 15.9-34.7 25.4-3.8 3.4-6.8 7.6-10.2 11.4.3.3.5.6.8.9l8.1-5.9.9 12.1c1.9 16.6 2 33.3-2 49.6-2.7 11-6.6 21.7-9.9 32.6-.9 2.9-1.8 5.9-2.3 8.9-.8 4.4-.7 8.6 2.1 12.5 2.2 3.1 1.6 4.6-1.7 6.2-7.1 3.4-13.9 7.8-21.4 9.9-15.4 4.3-31.2 7.5-46.9 10.9-3.9.8-7.9.7-11.9 1 1.2-5.1 3.3-9.8 7.2-13.4l13.3-12.4c14.9-14.4 25.6-31.5 31.2-51.5 1.9-6.9 2.9-13.9 4.4-20.9 1.5-6 3.3-12 4.5-18.2.9-4.6 1-9.3 1.4-14 1.4-18.5-.1-36.7-7.6-53.9-3-7-7.6-13.3-11.5-20-.2-1.5-.4-3-.5-4.5.3-2.3.2-4.6.1-6.8zm31.6 190.1c-.1-.3-.1-.5-.2-.8-.7.1-1.4.1-2 .3l-29.5 12c-.6.2-.9 1-1.3 1.5.2.2.3.4.5.7 12.4-.9 22.3-7.6 32.5-13.7zm-4.3-93.3c3.2-3.3 5.1-7.4 7.4-11.3-3.4.9-8.3 7.9-7.4 11.3zm-46.2 107.5c2.1 2.2 6 1.5 9.5-1.3-3.4.4-6.5.8-9.5 1.3z" class="s"/><path d="M535.3 318.3c2.8 7.4 2.6 15.1 2.5 22.8 0 3.3-2 5.8-5.2 6.6-3.6.9-7.3 1.3-11 1.7-2.4.3-4.9.4-7.3.5.6-.3 1.2-.9 1.8-.9 2.9-.3 5.8-.3 8.7-.6 1.6-.2 3.2-.9 4.8-1.3v-.9c-.9-.2-1.9-.5-2.8-.5-5.5.2-11.2-.1-16.5 1-3.5.7-6.9 1.3-10.4 1.6-2 .1-4 .1-6 0s-2.7.6-2.2 2.6l2.2 9.9H479c-2.9 0-3.4.7-2.6 3.5l2.5 8.7c-2.3-.1-4.2-.4-6.1-.4-3.8.2-4.4 1.1-4 5l5.7 62.4 1.7 21.2c-1.6-.3-3-.5-4.3-.8l-18.6-3.9c-1.6-.3-2.3-.8-2.3-2.6l-2.5-133.3c0-.4.1-.9.1-1.5.7-.1 1.4-.3 2.1-.3l83.6-.6c.2 0 .6.1 1 .1z" class="u"/><path d="M534 120.7c2.6 2.1 3.4 5 3.5 8.2.2 5.5.9 11.1-1.2 16.4-1.7-.1-3.4-.3-5.1-.4-4.2-.2-5.1.6-4.9 4.7.1 1.2.1 2.3.2 3.8-10.6 2.3-20.8 6.8-31.9 6.2-1.4-.1-2.8-.6-4.3-.8-1-.1-2 .2-3 .3.1 1.1-.1 2.4.5 3.2 1.8 2.7 3.6 5.4 3.8 8.8-3.4.7-6.6 1.5-9.9 2-2.2.4-3.1 1.6-2.9 3.8l1 12c-3.7.7-7 1.3-10.4 1.8-3.9.6-4.1.9-3.4 4.8l2 12.2c-2.3.1-4.3.3-6.2.4-3.7.2-4.9 1.3-4.6 5.1.4 4.6 1.1 9.2 1.4 13.8l4.2 57.1c.4 7.1.1 14.3.1 21.9l-14.5.6c-.1-1-.2-1.7-.2-2.4l-2.8-157.6c-.1-2.9.6-4 3.5-4.7l85.1-21.2zm-202.2 95.7v-12.2l-1.2-30c-.1-1.5.1-2.5 1.9-2.9l99.8-25h.8v29l-5.8 1.4c-1.3.4-2.4 1.4-3.7 2-.6.3-1.3.5-1.9.5-3.4.1-6.7 0-10.1 0-3.1 0-3.9.8-3.8 3.9.2 4.1.5 8.1.8 12.6h-10.8c-3.8 0-4.2.5-4 4.3l1.3 23.6c-1.9.2-3.6.3-5.2.7-2.9.6-4.4 2.5-4.3 5.5.2 3.6.6 7.2.9 10.9l.9 15.2c0 .6-.2 1.3-.3 1.9-.3 0-.5.1-.8.1-.7-2.1-1.5-4.2-2-6.3-3.1-14.1-8.8-27.1-15.2-39.9-1.3-2.6-2.8-5.2-3.3-8-.8-4.3-3.6-4.8-7.7-2.7-3.7 1.9-7.2 4.3-10.7 6.5l-14.6 9c-.3 0-.6-.1-1-.1zm99-168.3v22.4l-24 3c-.9.1-1.8 0-2.7-.1-3.4-.6-3.8-.2-3.5 3.3l.3 3.7-23.3 5.8c-1.9.5-2.5 1.6-2 3.4l2.6 9.3c-4.2.3-8.2.5-12.2 1-3.6.5-4.4 2.4-2.4 5.5l5.6 8.5c-2.1.3-3.9.4-5.6.7-2.8.6-3.4 2.3-1.9 4.8 1.4 2.4 2.6 5 3.8 7.5.3.7.5 1.5.8 2.3-7.7.3-7.8.5-6.3 8 1.1 5.6 2 11.3 3 17.3l-32.9 8.6c-.1-1.6-.2-2.8-.2-4l-3.5-73.5c-.1-2.6.5-3.7 3.1-4.6l97.3-31.5c1.2-.6 2.4-.9 4-1.4zm-71.6 388.2l-17.3-3.5c-.6-.1-1.1-1.9-1.1-2.9l-1.1-48.5-1.4-59.4v-2.3l98.8-.8v23l-12.7 1-58.1 4.7c-3.2.3-6.4 1-9.6 1.6-2 .4-2.7 1.7-2.6 3.8l3.8 79.2c.1 1.3.9 2.5 1.4 3.7.1.2 0 .3-.1.4z" class="x"/><path d="M257.2 189.6l30.6-7.1 28.8-7.2c.8-.2 1.6-.3 2.7-.5.3 4 .5 7.9.7 11.8l1.9 34c.1 2.1-.6 3.3-2.4 4.3l-21 13.1c-3.6 2.3-7.1 5-11.1 7.8-3.6-16-16.6-20.1-30.2-23.3l-1-32.8c.4 0 .7-.1 1-.1z" class="u"/><path d="M256.4 182.7l-1.2-34-1.2-40.9c-.1-1.7.3-2.6 2.1-3.2l56.5-18.3c.5-.2 1-.3 2-.5l1.2 24.9-28 2.5c-.7.1-1.9.3-1.9.6-.1.8.1 1.8.5 2.5l7 12.3c.3.5.4 1 .7 2.1-4.3.9-8.4 1.9-12.5 2.6-3.5.7-3.9 1.4-2.3 4.5 5.7 11.1 8.3 23.2 11.1 35.5l-14.9 3.9-15 4c-1 .3-1.9 1.2-2.8 1.8-.5-.1-.9-.2-1.3-.3z" class="x"/><path d="M224 275.3c.3.1.7.1 1 .2l2.2 2.2c-1.1 1.5-2.4 2.9-3.3 4.6-.4.7.1 1.9.2 2.9.9-.2 2.3-.1 2.6-.7 1.7-2.6 3.7-2.3 6.4-1.8 10.7 2 20-1.5 28.5-7.9 1.8-1.4 3.6-2.7 5.6-3.8.9-.5 2.2-.2 3.7-.3-4.3 17.4-13.1 31.1-26.6 41.7-4.8 3.8-10.1 7-15.2 10.5-.4.3-1.1.5-1.3.9-1.8 3.4-4.9 3-8 2.9-10-.4-19.7-1.9-28.5-6.9V317c1.5-2.7 3.9-1.7 6-1.5 4.8.6 9.3.1 13.6-2.2 1.6-.1 3.3-.3 5.4-.5-1-.7-1.4-1-1.8-1.3-.3-.2-.7-.3-1-.5-1.8-1.3-3.5-2.8-5.4-3.9-5.2-3-9.7-6.8-12.6-12-5.6-9.9-6.9-20.6-6.3-31.8.3-6 2.9-10.8 7.4-14.6 1.7-1.4 3.8-2.1 5.8-3.2 1 7.4 3.7 14.1 7.9 20.2.1.2.3.3.4.5.6.7 1.2 1.5 1.8 2.2l2.4 2.4c.2.1.4.3.5.4.2.2.4.3.6.5l1.5 1.2h.1c.5.3.9.6 1.4.8.2.1.5.2.7.3 1 1.6 2.4 2.4 4.3 1.3zm-6 7.4c2.8-2.7 2.9-4.4.5-6.8-.5-1.3-1-1.3-1.6-.1-2.8 2.1-3 4.5-.5 7 .5 1.2 1.1 1.2 1.6-.1z" class="t"/><path d="M529.8 190.7l-12.2 1.3c-2.3.2-2.3 1.5-2.1 3.2.7 6.7 1.8 13.3 2.1 20l1.7 62.1c.2 8.6 0 17.2 0 26.1l-17.1.8c-.1-.4-.3-.8-.3-1.1l-2.3-64.5-1.5-39.5c-.5-9.5-1.6-19-2.7-28.5-.3-2.6-1.3-5-2.1-8 11.5 1.1 22.2-2.6 33-5.4l3.5 33.5z" class="v"/><path d="M185.7 535.5c6.7-1.7 13.4-3.1 20-5.3 6.3-2.1 12.4-4.9 18.8-7.5l21.8 25-15.7 3.3c0 .2.1.5.1.7 5.9 1.2 11.7-.3 17.9-.8l4.1 42.1c.2 1.9 0 3.4-1.4 5.1-2 2.6-3.2 5.8-4.7 8.7-2.8-4.4-5.1-10.2-12.2-9.3-6.9.9-11.5 4.6-13.2 12.2-2.5-4.9-6.3-7.5-10.7-9.3-.2-4.2-.6-8.3-.7-12.5-.2-9.5-.7-19-.3-28.5.2-5.8-1-10.3-6-13.8-5.8-4.1-11.4-7.8-17.8-10.1zm38 21.7c0 .1 0 .2.1.3l19.6-.1c1.4 0 2.7-1.2 4.1-1.8-.1-.2-.2-.5-.3-.7l-23.5 2.3zm11.4 4.8c0 .3-.1.5-.1.8 1.5.2 3 .5 4.4.5.3 0 .7-.7 1-1-.5-.3-.9-.9-1.4-.9-1.2 0-2.5.4-3.9.6z" fill="#fbfbfb"/><path d="M348.6 516.4c-.4.1-.5.1-.6.1-5.3-1.6-5.3-1.6-5.4-7.1l-1.4-62.9v-3.3l96.8 24.2c2.1.5 3 1.2 3 3.5l-.1 23-4.9-1.4-57.9-18.9c-6.5-2-13.5-2.5-20.3-3.5-2.4-.4-4.9-.6-7.3-.8-3.3-.3-4.2.4-4 3.7l2.1 41.4c-.1.6 0 1.3 0 2z" class="i"/><path d="M527.5 489.8V502c.1 2.5-1 3.4-3.2 3.1-2.8-.4-5.5-1-8.2-1.6-4.3-.9-8.5-1.9-12.8-2.9-.5-.1-.9-.5-1.4-.8-1.3-.7-2.4-1.9-3.8-2.2-6.5-1.2-13.1-2.1-19.6-3-2.8-.4-2.5 1.6-2.3 3.4l1.5 18.2v1.7c-1.7.3-3.3.5-4.8.9-5.5 1.6-6.7 3.6-6.5 9.3l.8 30.5c0 1.1-.1 2.1-.2 3.5l-13.2-5c-.7-.3-1.2-1.7-1.2-2.6l-.8-48-.6-32.2v-3.2c1 .2 1.8.2 2.6.4l72.9 18c.4 0 .6.1.8.3z" class="x"/><path d="M439.4 45.4L449.9 570c-2.4-.2-3.5-1.5-3.5-4.6l-5.1-210.9-7.8-302.3c-.2-5.8-.2-5.8 5.9-6.8z" class="q"/><path d="M145.6 542.4l21.6-2.7c.5-.1 1.3.1 1.7.5 5.3 5.6 11.7 9.7 18.4 13.3.3.2.6.5 1.3 1.1l-19.8 1.2v1c6.2 1.9 12.5 1.6 18.9 1.3v7.7l.2 27.8c0 1-.7 2.2-1.3 3.1-1.4 2.2-3 4.2-4.6 6.5-3.1-4.5-7.5-6.4-13-5.3-5.1 1-9.8 2.9-13.2 7.8-2.7-7.4-6.9-12.4-15.4-11.4-1-11.6 1.8-22.3 8.4-31.9 1.1-1.7 1.3-2.8.3-4.6-2.7-4.8-3.9-9.9-3.5-15.4z" class="s"/><path d="M319.3 320.2l7.8-.4v38.5l-2.4.7c-.6 0-1.4-.2-1.8.1-2.8 2.1-5.9 1.4-8.9 1.3-3.5-.1-4 .3-4.3 3.9l-.2 3.8h-8.4c-3 0-3.5.5-3.5 3.5v7.8h-5.3c-2.7 0-3.4.9-3.3 3.7l1.1 37.3c0 .3-.1.7-.2 1.2l-24.2-4.9-1.2-21.4-.9-18c0-1 .6-2.5 1.4-3.1l23-16c.6-.4 1.5-.4 2.2-.3 1 .1 1.9.6 2.9.9 3.3.8 5.2-.1 5.4-3.4.3-3.8 2.5-5.6 5.3-7.5 5.9-3.8 11.8-7.9 17.6-11.8 3.2-2.2 3.5-2.9 2.1-6.6l-4.2-9.3z" class="i"/><path d="M360.1 216.4l20.4 53.1c-.6.5-1.1.9-1.6 1.2l-62.3 35.8c-.3.2-.7.3-1 .4l2.4-15.4 3.5-20.4c0-.5-.1-.9-.1-1.4v-.1c3-4.7 3-4.7 8.4-3.6 7.5 1.5 9.6.5 13-6.5.4-.9.8-1.8 1.1-2.7l19 8.4c.8.3 1.7.4 2.9.1l-3.5-3.3c-.3-.2-.7-.5-1-.7-.2-.2-.4-.3-.6-.5-.7-.7-1.2-1.5-2-2-3.1-1.9-6.1-3.9-9.4-5.5-2.7-1.3-3.3-2.5-2-5.3 2.8-6.4 5.1-13 7.7-19.5 1.6-4.1 3.4-8.1 5.1-12.1z" class="s"/><path d="M227.2 277.6l-2.2-2.2c11.5-.7 18-7.6 18.7-20 .5-9.2-2-17.6-6.9-25.3l7.7.5c1 .3 2 1 2.8.9 1.4-.2 2.8-1 4.2-1.5 1.5 0 3.1-.1 4.6 0 7.6.7 15.2 1.8 20.5 8.3 1.8 2.2 3.8 4.1 5.7 6.2 5.2 8.8 1.7 26.3-2.7 31.7-.5-.5-1.1-.9-1.5-1.4-1.1-1.3-2.1-2.7-3.3-4-3.7-4.1-6.2-4.5-10.9-1.8-1.4.8-2.7 1.8-4 2.8-8.1 6.1-17.2 8.3-27.2 6.4-.3-.1-.9-.1-1-.3-1.2-4.3-2.9-.5-4.5-.3z" class="g"/><path d="M27.9 371.4l6.2 18.8c.4 1.3.5 2.8.8 4.2-.6-.8-1.3-1.5-1.7-2.3l-10.3-20.6-1.5-2.7c-.2.1-.4.2-.7.3l4.3 11.1-1.1 6c-.1.4-.1.8-.2 1.1l-.3 1.6c-.1.5-.1 1.1-.2 1.6l-.4 3.2-.2 4.9c-.3.3-.8.6-.8 1-.1 3.7-.1 7.4 0 11.2 0 .3.5.6.8 1 .1 1.1.2 2.2.2 3.3.1.9.3 1.8.4 2.7 0 .4.1.7.1 1.1.1.7.3 1.5.4 2.2 0 .4.1.7.1 1.1.1.7.3 1.4.4 2.2 0 .4.1.7.1 1.1l.3 2.5c.3-.3.6-.6.9-1l6.8-8.7c.6-.8 1.8-1.1 2.8-1.6.6 0 1.3.1 1.9.1l-.8 7.1-10.8 13.6-.6.6c-.3.2-.5.3-.8.5l.3.3c.2-.3.3-.5.5-.8l.6-.6 4.9-3.9h1.8c-.5 1.3-.9 2.6-1.4 3.8-.3.5-.6.9-.8 1.4l-1.8 4.6c.1.4.2.7.3 1.1.5 1.7 1 3.4 1.4 5.1.3.5.5.9.8 1.4l1.4 4.1c.3.5.5.9.8 1.4.3.8.6 1.6.8 2.4l2.6 4.7c.8 1.4 1.5 2.8 2.3 4.2.3.4.6.9 1 1.3.6.8 1.2 1.7 1.7 2.5.3.4.7.8 1 1.3l.6.9c.4.4.7.9 1.1 1.3l.6.9c.4.4.7.9 1.1 1.3l.6.9 1 1.3.6.9 1 1.3.6.9c.3.4.7.8 1 1.3l.6.9c.4.4.7.9 1.1 1.3.4.5.7 1 1.1 1.5.4.4.7.8 1.1 1.3l8.7 8.7c.6.5 1.2 1.1 1.8 1.6l1.5 1.2c.4.3.8.7 1.2 1 1 .8 2.1 1.5 3.1 2.3l1.3 1 3.1 2.2c.4.4.9.7 1.3 1.1l.9.6c.4.3.8.7 1.3 1 .5.4 1 .8 1.5 1.1.4.3.8.7 1.2 1 .5.4 1 .7 1.5 1.1l1.3 1 .9.6c.8.7 1.5 1.4 2.3 2.1.5.6 1.1 1.1 1.6 1.7.4.8.8 1.6 1.1 2.4-.1 1.1-.2 2.3-.2 3.4C64 505.7 43 483 26.3 456.4c-6.8-10.8-10.6-23-12.8-35.7-.1-.2-.1-.4-.2-.7-.1-.8-.2-1.7-.4-2.5-.1-.2-.1-.5-.2-.7-1.7-10.9-.8-21.8.6-32.6.5-4.2 1.1-8.5 2.2-12.6 3.1-11.9 9.5-21.7 19.3-29.1 6.1-4.5 12.7-8.3 19.1-12.5l-2.3 3.8-3.1 4.9c-.6.7-1.1 1.4-1.7 2.2-.2.2-.4.4-.5.6h-.6c-1 1.1-1.9 2.2-2.9 3.3-.1.2-.3.3-.4.5l-1.1 1.1-1.1 1.7-.6.6h.1l-6.1 7.5-1.8 3.2v.8c-.4.4-.7.9-1.1 1.3-1.8 2.9-3.2 6.2-2.8 9.9z" class="i"/><path d="M431.3 74.1l1.4 62.1-20.7 5.4-7.4-63.7 13.2-1.7 13.5-2.1z" class="v"/><path d="M499.3 304.6h-13.2c1.1-42.4-1.3-84.9-3.2-127.6.1 0 .3-.2.6-.3 2.8-.8 5.6-1.5 8.8-2.3.6 6.2 1.4 12.3 1.7 18.5l3.3 72.4 2 39.3zM411.6 183H423l6.1 124.6-5.4.3c-1.9.1-3.8 0-5.4 0L411.6 183z" class="l"/><path d="M260.8 377.4l5.5 109.1c.1 2.2 1.1 3.2 3 3.9l32 12.4 26.2 9.9c1.9.7 2.6 1.6 2.4 3.6-.1 2 0 4 0 6.4l-2.5-.9-65.1-25.7c-2-.8-2.5-1.7-2.6-3.7l-3.6-107.9c-.1-3.9 1.6-5.5 4.7-7.1z" fill="#f3f3f5"/><path d="M397.1 199.5h11.1l6.4 109h-11.3l-6.2-109z" class="l"/><path d="M185.7 535.5c6.5 2.3 12.1 6 17.7 9.9 5 3.5 6.2 8 6 13.8-.3 9.5.1 19 .3 28.5.1 4.2.5 8.3.7 12.5-7.5-.9-12.3 3.1-15.9 9.2-1.9-14.1-3-28.1-2.5-42.1.2-4.8-.2-9.6-.4-14.4 0-.8-.9-1.8-1.6-2.4l-15.2-10.1c-.6-.4-1-1.1-1.9-2.1 4.5-.9 8.6-1.8 12.8-2.8z" class="u"/><path d="M354.6 212.4c-.1.4-.2.8-.4 1.3-.2.4-.3.9-.5 1.3v-.1c-.4.7-.9 1.3-1.2 2l-8 19.3c-1.5 3.7-2.6 7.6-3.9 11.5-.4.9-.8 1.8-1.1 2.7-.5 1.5-1.1 2.9-1.6 4.4v-.1c-.2.5-.5 1.1-.7 1.6-1.8.5-3.8 1.9-5.4 1.5l-42.5-9.2 62-35.3c.9-.5 1.8-.9 2.6-1.4.3.2.5.4.7.5z" class="s"/><path d="M266 424.7l50.8 12.4 10 2.5c.7.2 1.5 1.1 1.6 1.7.2 2.8.1 5.6.1 8.7l-8.2-.7c-2.5-.1-5.4-1.6-7.3 1.2l-6.7-1.8c-.4-3.5-3-4.7-6.2-5-4.8-.4-9.5-.8-14.3-.8-4.9 0-5.4.7-6.1 5.4-1.4-.1-2.8-.2-4.3-.2-3-.1-4.1 1.1-3.8 4.2.8 6.4 1.8 12.8 2.7 19.1l2.7 18.1c-2.5-.9-4.5-1.5-6.4-2.4-.6-.3-1-1.6-1.1-2.5l-2.4-40-1.1-19.9z" class="j"/><path d="M408.8 142.4l-16.2 4.2c-1.6-19.8-7.8-38.2-13.2-56.4l21.9-7.3 7.5 59.5z" class="g"/><path d="M334.5 305.2l4.4 220.5c-4.2-.1-5.2-1-5.3-5.1l-3.4-209.9c-.1-4.1-.1-4.1 4.3-5.5z" class="q"/><path d="M321.4 271.1l-3.5 20.4-2.4 15.4-3.7 2.6-4.5-6.4c-2-2.4-4.2-4.8-6.5-6.9-1.3-1.1-3.3-1.6-5-2.3a3.04 3.04 0 0 0-.5.7c-1.4-3.8-2.7-7.7-4.2-11.4-1.4-3.4-3-6.8-4.5-10.2-.2-.5-.3-1.2-.2-1.8l2.5-8.7 29.7 1.4-4.3 27.6c.3.1.6.2.9.2.7-1.9 1.5-3.8 2.1-5.7l3.7-15h.3l.1.1z" class="i"/><path d="M414.6 448.2l-12.8-2.6 1.5-89.2 4.2.3 4.6.3 1.8 39.8c.4 15.5.2 31.1.3 46.6 0 1.2.4 2.5.6 3.7-.1.4-.2.7-.2 1.1z" class="v"/><path d="M342.8 518.7l5.7 2.1 91.8 34.8c1.9.7 2.8 1.6 2.7 3.7-.2 2.6 0 5.2 0 8.1l-9.7-3.8-87.8-34.6c-2-.8-2.9-1.8-2.7-4 .2-2 0-4 0-6.3z" class="l"/><path d="M479.7 363.7l14.6-1.2c3 34 .7 68.2-.6 102.6-2.4-.5-4.5-.9-6.5-1.4.8-33.7-.4-67.1-7.5-100z" class="w"/><path d="M222.4 223.3l4.3 1.1a4.67 4.67 0 0 1-.5 1c.7.4 1.6.8 2.4 1.5 9 7.5 13.8 23.1 10.4 34.2-1.2 4-3 7.6-7.2 9.3-4.8 1.4-8.6.1-11.9-3.6-8-8.9-11.1-19.3-10-31.1.4-3.7 1.5-7.6 4.7-9.7 2.3-1.4 5.2-1.8 7.8-2.7zm11.3 25.9c.9-4.2-1.3-8.9-5.4-10.8-2.2-1-4.4-.3-4.9 2.1-.4 2.4-.1 4.9-.1 7.3h.7c-1.3 1-2.6 2.1-3.9 3.1a.76.76 0 0 1 .2.4c4.5-.6 8.9-1.3 13.4-2.1z" class="v"/><path d="M304.1 169.7c-.1-12.8-2.1-24.9-5.8-36.9-.3-.8.3-1.9.5-2.5-.7-.7-1.8-1.4-2.4-2.4-2.2-3.7-4.2-7.6-6.2-11.3l25.3-3.3c.2.6.4 1 .4 1.4l2.8 48.7c.1 1.9-.3 2.7-2.3 3.1-4.1 1-8.1 2.2-12.3 3.2z" class="g"/><path d="M373.4 354.7l11.4.7c-3.2 28.8-.2 57.5-.8 86.4l-11.7-2.4 1.1-84.7z" class="w"/><path d="M397.9 444.7l-11.3-2.4c2.2-28.9-1.3-57.7 1.7-86.7l9.7.5-.1 88.6z" class="l"/><path d="M469.2 194.5l10.6-2.9 3.6 113.6-4.2.2h-4.4l-.3-6.2-.5-54.5c-.3-10.6-1.5-21.2-2.5-31.8-.4-6.1-1.4-12.1-2.3-18.4z" class="m"/><path d="M414.6 448.2c.1-.4.1-.7.2-1.1 2.5.2 3.6-1 3.6-4.3.1-5.6.2-11.3 0-16.9l-1.9-62.4c-.1-2-.3-3.9-.5-6.2l10.4 1.2v92.4l-11.8-2.7z" class="n"/><path d="M381.4 309.9l-43.4 2 .1-8.2c0-.5.6-1.1 1.1-1.4l39.4-23c-1.2 10.4.7 20.3 2.8 30.6z" class="i"/><path d="M359.2 436.3c.2-.1.2-.2.1-.3l1.6.4c.7-28-.9-55.8-3.2-83.6 2 .6 3.9 1.4 5.8 1.7 2 .3 4.1.1 6.1.1v84.3l-10.4-2.6z" class="m"/><path d="M93.2 329.9c-12.1.6-24.3.1-35.8 4.8l-6.2 2.3 1.5-2.4c1.2-1.7 2.4-3.5 3.5-5.2 6.9-4.5 14.7-6.2 22.6-7 14.6-1.5 28.7 1.8 42.8 5a1230.15 1230.15 0 0 0 37.2 7.8c4.6.9 9.3.5 13.6-1.3 1-.4 1.8-1.2 2.6-1.8.4-.4.8-.7 1.1-1.1.4.5.7 1.1 1.1 1.6-1.8 1.6-3.4 3.8-5.5 4.8-6.8 3.4-14.1 3.2-21.3 2l-48.1-8.7c-2.5-.4-5-.6-7.5-.8l-1.4-1.1c.1.5-.1.8-.2 1.1z" class="c"/><path d="M254.3 221.8H251l-.2-3-3.7-117.4c0-1.4-.1-2.3 1.6-2.9l64.1-21c.3-.1.7-.1 1-.2 1.1 4.8 1 4.9-3.2 6.3l-56.4 18.3c-2.7.9-3.6 2.1-3.5 5l2 64.6 1.6 48.2c.1.6 0 1.3 0 2.1z" class="k"/><path d="M438 359.1l2.5 94.6-8.7-1.8c-.5-.1-1.1-1.1-1.2-1.7v-6.3l1.4-74.1c0-2.4.1-4.9-.3-7.3-.3-2.4.5-3.4 2.8-3.4h3.5z" class="w"/><path d="M210.9 313.2c-4.3 2.3-8.8 2.9-13.6 2.2-2.1-.3-4.6-1.2-6 1.5-.6.7-1.2 1.4-1.7 2.1l-8.8-4.8c-1.6-.8-1.7-2-1.2-3.6 3.4-12.3 5.6-24.8 5.2-37.6-.1-2.4-.2-4.9-.8-7.3-.6-2.3-.2-4.2 1-6.2 4.4-7.5 10.3-13.7 17.2-20l.3 5.9c-1.9 1-4.1 1.8-5.8 3.2-4.5 3.8-7 8.6-7.4 14.6-.6 11.2.7 21.9 6.3 31.8 3 5.3 7.4 9.1 12.6 12 1.9 1.1 3.6 2.6 5.4 3.9-7.3-.9-13.7-3.5-18.1-10-1.1 2.3-.7 3.7 1.2 5.8 3.8 4.2 8.8 5.8 14.2 6.5z" class="i"/><path d="M433.7 179.3l3 128-4.9.2c0-4.5.2-8.8 0-13.1l-3.9-91.5-1-18.8c-.2-2.7.5-4.1 3.3-4.2 1.1 0 2.1-.3 3.5-.6z" class="h"/><path d="M440.7 464.7l-22.1-5.4-73.3-17.7c-4.7-1.1-4.7-1.1-4.1-6.3l14.3 2.9 69.9 15.1 13.1 2.8c1.6.3 2.4.9 2.2 2.7s0 3.7 0 5.9z" fill="#f3f3f5"/><path d="M479.4 462.1l-7.4-86.4 3.3-.3c1.3-.1 2.5 0 4.4 0 3.3 29 5.3 58.1 4.7 87.7-1.9-.4-3.7-.8-5-1z" class="m"/><path d="M317.8 84.7l5.4-1.8 1.2 28 4 105.1c.1 3.8.1 3.8-3.2 5.1l-7.4-136.4z" class="k"/><path d="M461.1 211.9l7-.7c4.6 31.4 1.7 62.9 3.2 94.5-1.4.1-2.9.2-4.2.2l-6-94z" class="n"/><path d="M480.8 74.4l13.6-6.2 4.7 50.8-12.2 3.2c1.1-16.3-1.9-32-6.1-47.8zm-60.3 469.9c-5.1-1.9-9.4-3.6-13.6-5.3-.5-.2-.9-1.1-1-1.6l-.8-40.3c0-.2.1-.5.3-1l12 4.3c.4.2.9.9.9 1.4l2.2 42.5z" class="l"/><path d="M430.3 38.9c.5 5.7.5 5.7-4.4 7.3l-99.7 32.2-.4-5.2 104.5-34.3z" class="h"/><path d="M436.6 550.5l-12.1-4.6-1.3-43.5 12.6 4.5c.4.2.7 1.2.7 1.8l.1 41.8z" class="g"/><path d="M316.2 451.7l9.4.5.9 56.1-10.2-3.8-.1-52.8z" class="l"/><path d="M393.2 309.1c.1-2.8.5-5.5.3-8.3l-3.3-56.1c-.2-3.9-.9-7.8-1.3-11.6-.6-5.4.6-6.6 6.4-5.8l5.2 81.8h-7.3z" class="h"/><path d="M202.6 439.4c-1.4 7-2.5 14.1-4.4 20.9-5.6 20.1-16.2 37.1-31.2 51.5l-13.3 12.4c-4 3.6-6.1 8.3-7.2 13.4l-5 .7c2.4-3.7 4.6-6.6 6.3-9.8 1-2 1.2-4.4 1.7-6.6.2-.7.1-1.6.6-2 25.4-21.4 42.1-48.4 52.1-79.9.1-.1.3-.3.4-.6z" class="j"/><path d="M388.8 490.2l11 4c.7.3 1.3 1.6 1.4 2.5.4 6.2.7 12.3.8 18.5v22l-11.7-4.5-1.5-42.5z" class="l"/><path d="M436.8 309.9v6.6l-98.5 1-.2-3.1 39.8-1.8c6.3-.4 12.5-.2 18.8-.9 6.6-.6 13.2-.6 19.8-.9l20.3-.9z" class="q"/><path d="M318.8 428l-8.9-1.9 3.6-62.2 5.6-.7c1.9 21.6-.9 43-.3 64.8z" class="n"/><path d="M330.4 169.5v-4.1l102.2-26.6.3 5-102.5 25.7z" class="k"/><path d="M283 306.5l12.3-7.8c-1.3 3.4-2.6 5.9-3.1 8.5-.6 3.1 1.3 4.7 4.4 5 .3 2.1.1 4.5 1.1 6.1s3.2 2.4 5 3.6c.1 1.2-.1 3.1.4 4.7 1.4 3.9 5 5.5 9.3 4.6 1.8-.4 3.6-.4 5.7-.6.1-.4.3-1.6.6-3.2 3 4.2 2.9 5-.5 7.4L299.5 348c-2.9-14.9-5.2-29.8-16.5-41.5z" class="m"/><path d="M301.6 170.4l-9.2 2.4c-2.3-12.5-5.4-24.6-10.9-36.2l13.6-3.6c3.8 12 5.3 24.5 6.5 37.4z" class="l"/><path d="M294.5 446.4l2.3.3c6.6.8 6.5.8 6.6 7.2l.5 43.8v2l-7.5-2.9c-.6-.3-1-1.4-1-2.2l-.5-26.4-.4-19.1v-2.7z" class="n"/><path d="M300.4 370.9l9.2-.6-2.8 54.7c-.3.1-.5.2-.6.2-6.5-1.6-5.8.3-5.9-7.1v-33.5c0-2.2.6-4.3.1-6.5-.4-2.3 0-4.7 0-7.2z" class="m"/><path d="M361.6 480.3l8.3 3.1c.6.3 1.4 1.2 1.4 1.9l2 40.9-10.1-3.9c-.3-.1-.6-.9-.6-1.3l-1-40.7zm13.6 5l8.5 3.1c.6.2 1.3 1.1 1.3 1.7l2.1 41.5c-3.5-1.3-6.6-2.4-9.7-3.7-.5-.2-.9-1.1-.9-1.7l-1.4-39.4c0-.5.1-.8.1-1.5z" class="w"/><path d="M145.6 542.4c-.4 5.5.8 10.6 3.6 15.4 1 1.7.9 2.9-.3 4.6-6.6 9.6-9.4 20.3-8.4 31.9l-8.3 3.4 2-12.4 4.1-20c.5-2.1 1.6-3.9 2.2-6a10.46 10.46 0 0 0 .3-4.3c-.7-3.2-1.7-6.3-2.5-9.5-.8-3.1-.1-3.8 2.9-3.3 1.5.2 2.9.1 4.4.2z" class="i"/><path d="M324.7 359l2.4-.7c.1.4.2.7.2 1.1l1 68.9c0 .4 0 .9-.1 1.7l-6.7-1.4 1.4-38.2c.1-8.1-.5-16.1-.9-24.2-.2-2.7.5-4.8 2.8-6.2.1-.1-.1-.7-.1-1z" class="h"/><path d="M390.1 147.3l-4.1 1.1c-4-15.8-9.6-30.9-18.8-44.7l11.6-3.2c4.9 15 8.5 30.6 11.3 46.8z" class="m"/><path d="M478 519.6v46.6l-8.3-3.2.6-7.6c-.1-8.7-.3-17.4-.7-26.1-.3-5.9-.2-6.2 5.3-8.4.8-.4 1.6-.8 3.1-1.3z" class="h"/><path d="M481.9 89.2l2.6 27.5c.4 6.1.2 6.1-5.6 7.6l-3.8.9-.9-14.2-.5-5.4c0-.8.6-1.6 1-2.6-3.3-2.6-1.5-7-3.1-10.4l10.3-3.4z" class="m"/><path d="M223.3 619.5l.4-8c.9-6 4.2-9.3 10.2-10.5 2.3-.5 4.1.1 5.7 1.8 3.1 3.1 5.4 8.2 6.2 13.6-4.9 2.7-14.7 4.1-22.5 3.1z" class="g"/><path d="M279.8 304.7c-.2 0-.4-.1-.5-.1-6.7-2.9-8-2.2-9.6 5-.1.6-.6 1.4-1.1 1.6-10.5 3.6-19.4 10.2-28.9 15.5-.4.2-.8.4-.7.4l-4.3-4.6c6.7-3.2 13.1-7.7 19-13 2.3-2 5.1-3.6 8-4.4 3.2-.9 5.4-2.7 7.3-5.3 2.1-2.9 3.5-3.2 6.3-.9 1.8 1.5 3.3 3.5 4.9 5.3-.1.2-.3.4-.4.5z" class="n"/><path d="M289.3 248.7l42.5 9.2c1.6.3 3.6-1 5.4-1.5-1.2 4.9-1.2 4.9-5.9 4.8l-42.6-1.1a217.54 217.54 0 0 0 .6-11.4z" class="j"/><path d="M291 445.2l1.2 50.2-3.9-1.5c-.6-.3-1.1-1.2-1.1-1.8l-3.9-38.7c-.1-.8.1-1.6 0-2.3-.1-1.6-.9-4.2-.3-4.5 1.6-.9 3.8-1 5.7-1.3.7-.2 1.3-.1 2.3-.1z" class="h"/><path d="M288.2 331.7v9.8c0 .6-1.1 1.6-1.5 1.6-.7-.2-1.6-.9-1.8-1.6-1.2-3-1.8-6.3-3.3-9.2-2.7-5-5.8-9.8-8.9-14.6-.4-.6-1.9-1-2.6-.7-19 8.1-36.9 18.1-52.7 31.6-3 2.6-5.8 5.4-8.9 8.4.3-2.1.6-3.8.9-5.4l37.3-24.8c7.8-4.9 16.2-8.8 24.3-13.2.9-.5 1.4-1.5 2.1-2.3l4.2 1.5c-.1.5-.3 1.1-.2 1.5 2.4 5.3 5.1 10.5 7.3 15.9 1.3 3.3 2 6.9 2.9 10.3.3 0 .7-.1 1-.1-.1-2.9-.1-5.8-.1-8.7z" class="d"/><path d="M89.8 528.7c1.9 2.8 4.8 3.6 7.8 4.2 7.1 1.5 13.8-.5 20.5-2.4l17-5.3c-6.1 3.2-12.1 7.1-18.5 9.5-6.6 2.5-13.8 3.8-20.7 5.4-3.1.8-5.9.1-7.8-3-.4-.7-2.2-.4-2.7-1.1-1.4-1.8-2.9-3.8-3.6-5.9-.7-1.9-.5-4.1-.7-6.8 3.2 2.1 6 3.8 8.7 5.4z" class="j"/><path d="M358.8 520.7l-6.8-2.6-1.7-42.1 6.1 2.5c.5.2.8 1.2.8 1.8l1.6 40.4z" class="h"/><path d="M256.4 182.7l1.2.3c1.5 0 3.2.4 4.6.1 8.4-2.1 16.8-4.4 25.2-6.7l29.4-7.7c.6-.2 1.2-.3 1.8-.4 1.3 3.6 1.1 3.9-2.2 4.7l-54.6 14c-1.5.4-3 1.1-4.5 1.7-.3-.1-.6-.2-1-.3 0-1.9 0-3.8.1-5.7z" class="b"/><path d="M265.9 422c0-.9-.1-1.9-.2-3.1l36.4 7.9 22.1 4.7c4.5.9 4.5.9 4 5.9L265.9 422z" class="k"/><path d="M383.1 149.1l-8.5 2.2c-1.9-11.8-5-22.9-10.5-34 2.2-.1 4-.3 5.9-.3.5 0 1.2.5 1.4 1 4.9 9.9 8.5 20.3 11.7 31.1z" class="n"/><path d="M284.4 276.6l3.6 9c-4.9 2.7-9.3 6-14.2 7.5-4.3 1.3-6.9 3.9-9.5 7-.7.8-2.1 1.2-3.3 1.5 6.1-8.5 10.4-17.5 12.2-27.9 1.7 1.9 3.1 4.1 5 5.4 2.4 1.5 4.5-.1 6.2-2.5z" class="h"/><path d="M97.5 565c3-2.2 6.1-4.2 8.9-6.6a644.62 644.62 0 0 0 17.4-15.6c1.4-1.3 2.5-2.9 3.3-4.6 1.4-3.3 3.7-5.3 6.8-7 4-2.2 7.6-4.9 11.4-7.4.7-.5 1.5-1 2.6-1.8-.2 1.5-.4 2.4-.5 3.4-.2-.1-.3-.3-.5-.4-1.4 1.2-2.9 2.4-4.1 3.8l-14.7 18.5c-.9 1.1-2.4 1.7-3.6 2.5-1.5.7-3.2 1.2-4.6 2.1-5.1 3.1-10 6.5-15.1 9.6-2.4 1.4-4.9 2.4-7.3 3.5z" class="d"/><path d="M390.4 309.6h-6.7c-.1-.4-.3-1-.3-1.6l-1.4-27.7c-.2-2.5.6-4.1 3-4.9 1-.3 1.9-.9 3.4-1.7l2 35.9zm-77.8 193.5l-4.4-1.7c-.6-.3-1.4-1.2-1.4-1.9L306 462c0-.2.2-.3.2-.5 4.4-.2 5.1.1 5.3 3.7l1.1 37.9z" class="h"/><path d="M284.2 492.1c-4.7-1.1-4.6-1.1-5.1-5.3l-4.5-32-.2-3.1c.3-.3.5-.4.6-.4 5-1 5.1-1 5.7 4l3.5 33.8c.1.8 0 1.8 0 3z" class="p"/><path d="M222.4 223.3c-2.6.9-5.5 1.3-7.7 2.8-3.2 2.2-4.4 6-4.7 9.7-1.1 11.7 2 22.2 10 31.1 3.3 3.7 7.1 5 11.9 3.6-2.5 1.7-5.3 1.8-7.8.7-2.9-1.3-6.1-2.8-8.3-5-8.5-8.7-11.7-19.2-9.7-31.2.3-2 1-4.1 2.1-5.9 3.9-6.6 6.8-8 14.2-5.8z" class="c"/><path d="M297.5 423.4l-5.1-1.1v-39.9l5.1-.2v41.2z" class="q"/><path d="M181.9 609.5c-7.8 2.8-15.6 3.7-23.6 3.3-.6-4.9 1.8-8.1 7.6-10.2 7.5-2.6 10.9-1.2 16 6.9z" class="n"/><path d="M176.3 331.1c-.4.4-.8.7-1.1 1.1-.3-3.1-2.3-2.6-4.2-1.9-4.8 1.7-9.6 1.4-14.5.6.5-4.9 5.7-10.9 10.3-11.9 2.6-.6 5.1.8 7 2.9 2.2 2.5 4.9 4.6 7.2 7 2.1 2.1 3.9 4.5 5.8 6.8l-4.8-3.5c-1.8-1.3-3.7-2.5-5.5-3.7l-.8-1.1-2.5-1.9c-.8-.2-1.5-.5-2.3-.7-4-.8-6.8 1-7.9 5.8l11.7-2.1c.5.8 1.1 1.7 1.6 2.6z" class="d"/><path d="M212.3 618l-15.3-4.5c1.1-6.9 8.9-11.2 14.4-8.5.2 1.8.5 3.5.7 5.3l.2 7.7z" class="c"/><path d="M282.3 244.5l-5.7-6.2c-5.4-6.5-12.9-7.5-20.5-8.3-1.5-.1-3.1 0-4.6 0-.2-2.1-1.9-1.9-3.2-1.9-1.7 0-3.5.1-3.8 2.5l-7.7-.5c-1-1.3-2-2.5-3.5-4.4 10.2 1.3 19.9-1.6 29.3 2.4 4.6 1.9 9.4 3.2 13.4 6.5 3.2 2.7 5.4 5.9 6.3 9.9z" class="d"/><path d="M372.5 151.9l-6.7 1.7-3.2-18.4c-.2-1-1.4-3 .9-3.3 1.9-.2 4.2-.2 4.9 2.3l2.4 9.5 1.7 8.2z" class="p"/><path d="M140.6 597.9c3.2-1 6 0 8.1 2.4 2.9 3.4 4.3 7.4 5 12.5l-11-2.8c-.6-4.1-1.4-8.1-2.1-12.1z" class="m"/><path d="M465.3 103.8h5.5l2.1 22-4.6 1.4-3-23.4z" class="q"/><path d="M440.9 508.3c.3.7 1 1.5 1 2.2l1.1 42.3-2.9-.9v-43.3l.8-.3z" class="b"/><path d="M360.1 216.4l-5.1 12c-2.6 6.5-4.9 13.1-7.7 19.5-1.2 2.8-.6 4.1 2 5.3 3.3 1.6 6.3 3.6 9.4 5.5.8.5 1.3 1.3 2 2l-17.3-8.7 15.5-38.8c.4 1 .8 2.1 1.2 3.2z" class="d"/><path d="M437.3 496.9l-.7 7.6-13-4.8c-.5-.2-1-1.2-1.1-1.9-.2-1.7-.2-3.4-.3-5.6l15.1 4.7zM277.6 295.3l11.7-5.9 2.9 7.2c-2.9 1.9-5.8 3.9-8.7 5.9l-5.9-7.2z" class="h"/><path d="M418.3 497.8c-4.4-1.6-8.4-3-12.3-4.6-.6-.3-1.1-1.5-1.3-2.3-.3-1.3-.2-2.7-.3-4.3l13.9 4.2v7z" class="k"/><path d="M97.5 565l7.2-3.5c5.1-3.1 10-6.4 15.1-9.6 1.4-.9 3.1-1.4 4.6-2.1-.7 1-1.3 2.2-2.2 3-7.8 7.1-16.9 11.9-27.1 14.5-.4.1-.7 0-1.2-.3.8-.5 1.6-1 2.5-1.5.3-.1.7-.3 1.1-.5z" class="b"/><path d="M318.2 324.4c-2.7 1.2-4.7 2.5-6.9 3-1.2.3-3.1-.4-3.9-1.4-.7-.8-.6-2.8-.1-3.8 1.2-2.2 3-4 4.8-6.4 2.1 3.1 3.9 5.6 6.1 8.6z" class="h"/><path d="M140.6 597.9l2.1 12-12.1-5.1c3-3.9 5.8-6.3 10-6.9z" class="j"/><path d="M387.6 481.1c4.7 1.4 8.6 2.6 12.4 3.9.5.2.9 1 1 1.6.1 1.5 0 3 0 4.9-4-1.4-8-2.4-11.5-4.3-1.2-.7-1.2-3.6-1.9-6.1z" class="q"/><path d="M212.3 618l-.3-7.7c-.1-1.8-.4-3.6-.7-5.3 5.7 3.4 8.6 8.2 8.5 14.4-2.4-.4-5-.9-7.5-1.4z" class="p"/><path d="M188.6 322.2l.4 6.8.5 4.5-3.5-5-6-7.2c-1-1.1-2.2-2.1-3.4-3.3a23.56 23.56 0 0 0 1.4-2.4l10.6 6.6z" class="d"/><path d="M253.2 599.8c.5 3.4.8 6.8 1.5 10.2.5 2.5-.1 4-2.7 4.5-.8.2-1.5.5-2.6 1-.3-5.8 1-11 3.8-15.7zm132.3-119.5l-.5 5.4c-3.2-1.1-6.4-1.8-9-3.3-1.2-.7-1.3-3.3-1.9-5 .2-.1.5-.3.7-.4l10.7 3.3z" class="k"/><path d="M305.8 307l4.3 6.2c-2.1 1.4-4 2.9-6.2 3.9-.9.4-2.6 0-3.3-.7-.5-.5-.5-2.3 0-3.1 1.5-2.1 3.3-4 5.2-6.3z" class="p"/><path d="M343.9 256.7l-1.1 2.7c-3.3 7-5.4 8-13 6.5-5.4-1.1-5.4-1.1-8.4 3.6l.9-5h12.4c2.3.1 3.7-.7 4.6-2.9.7-2 1.7-4 2.7-6.3.6.6 1.3 1 1.9 1.4z" class="d"/><path d="M312 460.8l-3.3-3.9c-.1.2-.3.8-.6 1.4-2.6-.2-3-1.5-1.8-6.9 6.2-.1 7.5 1.6 6.7 8.5-.3.3-.6.6-1 .9z" class="k"/><path d="M295.7 309.1c-.2-4.4 2-6.5 4.6-8.8l4.3 4.7-8.9 4.1z" class="b"/><path d="M433.4 43.6c-.7-6.1-.7-6.1 5.7-7.3.8 6.6 1.2 5.4-5.7 7.3z" class="k"/><path d="M340.6 247.7c1.3-3.8 2.4-7.7 3.9-11.5l8-19.3c.3-.7.8-1.3 1.2-2-.6 2.2-1 4.4-1.9 6.5l-10.3 25.1c-.1.5-.5.8-.9 1.2z" class="j"/><path d="M361 475l10.4 1.3-.2 4.2c-6.4-1-10.2-3-10.2-5.5zm-47-162.8c.6.3 1.6.5 1.7.9 1.1 2.8 3.4 1.9 5.4 1.9h5.4l.3 2c-.3.2-.5.4-.6.4l-7.8.6c-.4 0-1-.3-1.3-.6l-3.6-4.7c.2-.1.4-.3.5-.5z" class="b"/><path d="M323 74.2c.8 6.3 1.3 5.1-5.6 7.1l-.3-5.1c2-.8 3.9-1.4 5.9-2z" class="k"/><path d="M328.4 480.3v-26.5h.6v26.5h-.6z" class="e"/><path d="M328.8 509.2v-27.4h.4v27.4c-.1.1-.3.1-.4 0zm-143.1 97.7l2.5-9c2.2 6.1 1.9 7.6-1.5 9.3a1.69 1.69 0 0 1-1-.3z" class="b"/><path d="M56.2 329.5l-3.5 5.2-1.5 2.4-.6.6c-.2.2-.5.4-.7.6l-1.4.5 3.1-4.9 2.3-3.8 2.3-.6z" class="f"/><path d="M441.6 497.7v8.6c-.6-.5-1.5-.8-1.5-1.2l.2-7.7c.5.2.9.3 1.3.3zM319.8 312.3l6.8-3.4.2 3.6-6.7.7-.3-.9z" class="b"/><path d="M357.3 475.9l-6.6-1.7c2.2-.9 5.4-.2 6.6 1.7z" class="d"/><path d="M224 275.3c-2 1.1-3.4.3-4.4-1.4l4.4 1.4z" class="g"/><path d="M89.8 524l.2-3.4.7 4.3-.9-.9z" class="c"/><path d="M189.5 319l1.7-2.1v2.8l-1.7-.7z" class="g"/><g class="j"><path d="M337.9 254.8l1.6-4.4-1.6 4.4z"/><path d="M339.5 250.4l1.1-2.7c-.3.9-.7 1.8-1.1 2.7z"/></g><path d="M217.4 272.7l-1.5-1.2 1.5 1.2zm1.5.8c-.5-.3-.9-.6-1.4-.8l1.4.8z" class="g"/><path d="M256.3 188.4l1 .3v.8c-.3 0-.6.1-.9.1-.1-.3-.1-.7-.1-1.2z" class="f"/><path d="M337.3 256.4l.7-1.6c-.3.5-.5 1-.7 1.6z" class="j"/><path d="M321.4 271.1h-.6c.1-.5.3-.9.4-1.4.2.5.2.9.2 1.4zM97.5 565c-.4.2-.8.4-1.2.5.4-.1.8-.3 1.2-.5zm263.8-303.8l1 .7-1-.7z" class="d"/><path d="M353.7 215c.2-.4.3-.9.5-1.3-.1.4-.3.9-.5 1.3zM135.1 525.3l1.1-.6-1.1.6z" class="j"/><path d="M354 212l.6-.3v.7c-.2-.1-.4-.3-.6-.4z" class="s"/><path d="M280.2 304.3c.1.2.2.3.3.5h-.7c.1-.2.3-.4.4-.5z" class="n"/><path d="M12.8 416.8c.1.2.1.5.2.7 0-.2-.1-.5-.2-.7z" class="c"/><path d="M121.8 538.3c-.1-.1-.2-.1-.3-.2.1-.1.1-.2.2-.2s.2.1.3.2c0 .1-.1.1-.2.2z" class="t"/><path d="M360.7 260.7c.2.2.4.3.6.5-.2-.1-.4-.3-.6-.5z" class="d"/><path d="M13.4 420.1c.1.2.1.4.2.7-.1-.3-.2-.5-.2-.7z" class="c"/><path d="M215.3 271c-.2-.1-.4-.3-.5-.4.1.1.3.2.5.4zm-4.6-4.8c-.1-.2-.3-.3-.4-.5.2.2.3.3.4.5zm2.9 3.2l-.5-.5c.2.2.3.4.5.5zm.5.6l-.5-.5c.2.1.4.3.5.5z" class="g"/><path d="M319.3 320.2c-.1 0-.2-.1-.2-.1v-.2c.1.1.1.2.2.3z" class="i"/><path d="M214.7 270.5l-.5-.5.5.5zm-1.7-1.6l-.5-.5c.2.1.4.3.5.5z" class="g"/><path d="M501.8 536.5c-1 .5-2 1.2-3.1 1.3-3.1.5-4 2.3-3.9 5.3.2 8.7.1 17.4.1 26.1 0 1-.2 2-.3 3-.3 0-.6.1-.9.1-.3-1-.9-2-.9-3l-.8-28.8c-.1-3.8 3.1-5.9 7.8-5.3.7.1 1.4.4 2 .5-.1.4 0 .6 0 .8z" class="r"/><path d="M128 517.7c12.3-6.7 22.2-16.2 31-27l18.1-22.4c.4-.5 1.2-.7 2.1-.7-1.1 2-1.9 4.2-3.2 6-8.9 11.7-17.6 23.6-28.1 34-7.8 7.7-17.2 13-26.8 17.9-1.8.9-4.2.9-6.3 1.3-.1-.3-.2-.7-.3-1l12.5-7.6c.4-.2.7-.3 1-.5zm64.4-156.6c8.2 22.5 7.9 45.2 2.4 68.2-.7 2.9-1.6 5.8-2.4 8.7h-.9c3.8-19.7 4.9-39.5 3-59.5-.6-5.8-2-11.5-3.1-17.3.3 0 .6-.1 1-.1z" class="o"/><path d="M129.1 372.8c-1.3-1.1-2.8-2.1-3.9-3.4l-19-23.3c-.7-.9-1.2-1.9-1.7-2.8.3-.2.7-.4 1-.7l24.4 29.6c-.3.2-.5.4-.8.6zm-17.2 73.4v37.6h-1.1c-1.3-12.5-.6-25.1 1.1-37.6z" class="f"/><path d="M23.9 386.2l1.1-6 9.1 16.6c.4.8 1.3 1.3 2 1.9 2.2.1 1.5 2.1 1.3 2.8-.3 1.3-1.7 2-3 .9-1.2-1.1-2.4-2.3-3.1-3.7-1.8-4-3.3-8.2-4.9-12.4-.4-.9-.7-1.9-1.3-3.5-.5 1.6-.8 2.5-1.2 3.4z" class="c"/><path d="M128 517.7c-.3.2-.7.3-1 .5-1.7-1.8-3.6-3.5-5.1-5.6-3.2-4.2-6.2-8.5-9.1-12.9-.7-1-1-2.3-1.5-3.4.3-.2.4-.2.5-.3 0 .1-.1.2 0 .2 5.3 7.3 10.8 14.4 16.2 21.5zM70 488l35.2 3.8c0 .4-.1.8-.1 1.2-11.8-.7-23.6-1.4-35.1-4.3v-.7zm90.8-68.9L142 394.8c2.8.3 18.6 20.4 18.8 24.3z" class="f"/><path d="M120.5 404.8c.1-.5.1-1 .4-1.4l16.6-25.5c.2-.3.5-.5.8-.8.4 3.1-11.3 21.2-17.8 27.7-.1-.1 0 0 0 0z" class="e"/><path d="M36.2 398.7c-.7-.6-1.5-1.2-2-1.9l-9.1-16.6-4.3-11.1c.2-.1.4-.2.7-.3l1.5 2.7 10.3 20.6c.4.8 1.1 1.6 1.7 2.3l.6 1.7c.1.9.3 1.7.6 2.6zm148.3 46.6L163 434.8c3-1.3 19 6.2 21.5 10.5z" class="f"/><path d="M144.9 376.9l22.2-16.4c-6.9 6.3-13 13.6-22.2 16.4zm-71.5 44.9l-29-5.8c.1-.4.1-.7.2-1.1l29 5.7c-.1.4-.1.8-.2 1.2z" class="e"/><path d="M188.5 354.9l-20.2-1.1c-.1-.3-.1-.6-.2-.9.9-.2 1.8-.7 2.6-.7l16.8 1.3c.3 0 .7-.1 1-.1v-.1c-.1.1-.2.1-.1.2a.76.76 0 0 0 .2.4c-.1.5-.1.8-.1 1z" class="f"/><path d="M106.5 428.3l-21.4-5.8.3-1.1c7.2 1.9 14.8 2.2 21.3 6.2 0 .2-.1.5-.2.7zm51.3 4.4h-32.2v-1c10.8-.9 21.6.1 32.2 1z" class="e"/><path d="M30.5 433.6l-4.9 3.9-.1-.1 10.8-13.6c.2.4.7.9.6 1l-3.2 4.8c-.2.2-.3.5-.5.7l-1.2 2.1c-.4.5-.9.9-1.5 1.2z" class="f"/><path d="M191.4 438h.9c-.9 4.7-1.7 9.5-4.1 13.8-.3-.1-.5-.2-.8-.2l4-13.6zM93.2 329.9c.1-.3.3-.7.4-1L95 330l6.9 8.6c-.3.2-.6.5-.8.7-2.7-3.1-5.3-6.2-7.9-9.4z" class="e"/><path d="M33.7 356.1l6.1-7.5c0 .4-.1.7-.1 1.1v-.1c-.4.6-.8 1.1-1.1 1.7l-3.5 6-1.4-1.2z" class="b"/><path d="M188.5 354.9v-.9c.2-.1.3-.3.5-.4-.2-.1-.3-.1-.5-.2v.1l-.7-4.1c.2-.1.3-.1.5-.2l4 11.8c-.3 0-.7.1-1 .1-.4-1.4-.7-2.7-1.3-4-.3-.8-1-1.4-1.5-2.2z" class="e"/><path d="M22.6 411.8c-.3-.3-.8-.6-.8-1-.1-3.7-.1-7.4 0-11.2 0-.3.5-.6.8-1v13.2z" class="c"/><path d="M176.3 331.1l-1.6-2.8-1.5-3 2.5 1.9.8 1.1 1.5 3c.1.3-.4.9-.6 1.3-.4-.4-.8-1-1.1-1.5zM39.8 349.7c0-.4.1-.7.1-1.1h-.1l.6-.6 1.1-1.7 1.1-1.1c.1-.2.3-.3.4-.5l2.9-3.3c.2.2.4.3.6.5l-6.7 7.8z" class="e"/><path d="M27.9 371.4c-.3-3.8 1-7 3-10l-3 10z" class="b"/><path d="M141.5 393.9l-2.3-3.1c.3-.4.3-.5.4-.5l3.2 3.6c-.4-.1-.8-.1-1.3 0z" class="e"/><path d="M36.4 463.6l-2.6-4.7 2.6 4.7zm-13.5-69.8l.4-3.2c-.2 1-.3 2.1-.4 3.2zm2.7 33.2c-.3.3-.6.6-.9 1l-.3-2.5c.5.5.8 1 1.2 1.5z" class="c"/><path d="M31.9 359.3l1.8-3.2-1.8 3.2z" class="b"/><path d="M23.3 417.8l-.4-2.7.4 2.7zm64 98.7l-2.3-2.1 2.3 2.1z" class="c"/><path d="M46.9 340.9c.6-.7 1.1-1.4 1.7-2.2l-1.7 2.2z" class="f"/><path d="M103.2 340.3l1.9 2.2c-.3.2-.5.5-.8.7l-1.9-2.1c.3-.2.6-.5.8-.8z" class="e"/><path d="M24.3 424.4l-.4-2.2c.2.7.3 1.4.4 2.2zm-.5-3.3l-.4-2.2c.2.7.3 1.5.4 2.2zm65.1 97.1c-.5-.6-1.1-1.1-1.6-1.7l1.6 1.7zM65 499l-1.8-1.6c.6.6 1.2 1.1 1.8 1.6zm-27.9-82.3c-.6 0-1.3-.1-1.9-.1.7-.3 1.5-.6 2.2-.8l-.3.9zm-5 15.8l1.2-2.1-1.2 2.1zm-8.7-43.6l.3-1.6-.3 1.6z" class="c"/><path d="M38.7 351.3c.4-.6.8-1.1 1.1-1.7l-1.1 1.7z" class="e"/><path d="M30.5 433.6c.5-.4 1-.8 1.6-1.1.1.4.1.8.2 1.1h-1.8zm.4 17.5l-.8-1.4c.2.5.5.9.8 1.4zm16.5 28.3l-1-1.3c.3.5.7.9 1 1.3zm1.6 2.2l-1-1.3 1 1.3zm-3.2-4.3c-.4-.4-.7-.9-1.1-1.3.4.4.8.8 1.1 1.3z" class="c"/><path d="M32 360.1c.3.2.6.4.8.6-.2.1-.4.3-.6.4 0-.3-.1-.6-.2-1z" class="b"/><path d="M33 456.5l-.8-1.4.8 1.4zm17.7 27.3c-.3-.4-.7-.8-1-1.3a6.42 6.42 0 0 0 1 1.3zm1.7 2.2c-.4-.4-.7-.9-1.1-1.3.4.4.7.9 1.1 1.3zm31.7 27.7l-1.3-1c.5.3.9.7 1.3 1zm-39.9-38.6c-.4-.4-.7-.9-1.1-1.3.4.4.7.8 1.1 1.3zm10.3 13.6c-.4-.4-.7-.8-1.1-1.3l1.1 1.3zm-25.9-44.2l-.3-1.1.3 1.1zm13.9 28.4c-.3-.4-.7-.8-1-1.3.3.5.7.9 1 1.3zm-12.4-34.1c.3-.5.6-.9.8-1.4l-.8 1.4zm37.6 62.4c-.4-.3-.8-.7-1.2-1 .4.3.8.7 1.2 1zm-28-32.1c-.3-.4-.6-.9-1-1.3.4.4.7.9 1 1.3zm32.4 35.4l-1.3-1c.5.3.9.7 1.3 1zm4.4 3.2c-.4-.4-.9-.7-1.3-1.1.4.4.9.8 1.3 1.1zm2.1 1.7c-.4-.3-.8-.7-1.3-1a6.42 6.42 0 0 1 1.3 1zm2.8 2.2c-.4-.3-.8-.7-1.2-1 .3.3.7.6 1.2 1z" class="c"/><path d="M35.5 396.1l-.6-1.7.6 1.7z" class="i"/><path d="M141.5 393.9h1.2c0 .3-.1.6-.1.9-.3-.4-.7-.7-1.1-.9z" class="f"/><path d="M120.4 404.7c-.2.2-.5.3-.7.5 0-.1-.1-.3-.1-.4.3 0 .6 0 .8-.1.1.1 0 0 0 0zm47.8-44.4c-.1 0-.1.1-.2.1s-.1-.1-.2-.2c.1 0 .1-.1.2-.1s.2.1.2.2z" class="e"/><g class="f"><path d="M46.4 342c-.2-.2-.4-.3-.6-.5h.6c0 .1.1.2.1.3s-.1.2-.1.2z"/><path d="M46.4 341.5c.2-.2.4-.4.5-.6-.2.2-.3.4-.5.6z"/></g><path d="M50 338.2c.2-.2.5-.4.7-.6-.3.2-.5.4-.7.6zm.6-.6l.6-.6-.6.6zm-17.3 92.8c.2-.2.3-.5.5-.7a3.04 3.04 0 0 0-.5.7z" class="c"/><path d="M220.2 512.3c-10.2 6.1-20.1 12.8-32.5 13.7-.2-.2-.3-.4-.5-.7.4-.5.8-1.3 1.3-1.5l29.5-12c.6-.2 1.3-.2 2-.3.1.3.1.5.2.8z" class="o"/><path d="M288.2 331.7v8.8c-.3 0-.7.1-1 .1-.9-3.5-1.6-7-2.9-10.3-2.2-5.4-4.9-10.6-7.3-15.9-.2-.4.1-1 .2-1.5 2.3-.3 3.6 1.1 4.5 2.8 2.1 4.3 4.1 8.8 6.1 13.2.1.9.2 1.8.4 2.8z" class="r"/><path d="M215.9 419c-.9-3.4 4-10.4 7.3-11.4-2.2 4-4.1 8.2-7.3 11.4z" class="o"/><path d="M169.7 526.5l9.5-1.3c-3.5 2.7-7.4 3.5-9.5 1.3z" class="e"/><path d="M288.2 331.7l-.5-2.8.5 2.8z" class="d"/><path d="M210.9 313.2c-5.4-.7-10.4-2.3-14.2-6.5-1.9-2.1-2.2-3.5-1.2-5.8 4.4 6.5 10.8 9.1 18.1 10 .3.2.7.3 1 .5.4.3.8.6 1.8 1.3l-5.5.5z" class="o"/><path d="M218.5 275.9c2.4 2.4 2.2 4.1-.5 6.8-.5 0-1.1 0-1.6.1-2.4-2.4-2.2-4.8.5-7 .5 0 1.1 0 1.6.1z" class="c"/><path d="M216.3 282.7c.5 0 1.1 0 1.6-.1-.4 1.4-1 1.4-1.6.1zm2.2-6.8c-.5 0-1.1 0-1.6-.1.6-1.3 1.1-1.2 1.6.1z" class="g"/><path d="M214.6 311.5c-.3-.2-.7-.3-1-.5.3.1.6.3 1 .5z" class="i"/><path d="M223.7 557.2l23.5-2.3c.1.2.2.5.3.7-1.4.6-2.7 1.7-4.1 1.8-6.5.2-13.1.1-19.6.1-.1-.1-.1-.2-.1-.3zm11.4 4.8l4-.7c.4 0 .9.6 1.4.9-.4.4-.7 1.1-1 1l-4.4-.5c-.1-.2 0-.4 0-.7z" class="f"/><path d="M244.5 230.7c.3-2.4 2.1-2.5 3.8-2.5 1.3 0 3-.3 3.2 1.9-1.4.5-2.7 1.3-4.2 1.5-.8.1-1.8-.6-2.8-.9z" class="o"/><path d="M41.5 346.4l-1.1 1.7c.3-.6.7-1.2 1.1-1.7z" class="b"/><path d="M25 438.1l-.5.8-.3-.3c.3-.2.5-.4.8-.5 0-.1 0 0 0 0z" class="c"/><g class="b"><path d="M40.4 348l-.6.6.6-.6zm1.6-2.2l-.6.6.6-.6z"/><path d="M42.5 345.3l-.6.6.6-.6z"/><path d="M42.9 344.8c-.1.2-.3.3-.4.5.1-.2.3-.3.4-.5z"/></g><path d="M25.7 437.5l-.6.6v-.1c.1-.2.3-.4.6-.5-.1-.1 0 0 0 0z" class="f"/><path d="M233.7 249.2l-13.3 2.2a.76.76 0 0 1-.2-.4l3.9-3.1h-.7c0-2.5-.3-5 .1-7.3.4-2.5 2.6-3.2 4.9-2.1 4 1.9 6.2 6.5 5.3 10.7z" class="r"/><path d="M173.2 325.3l1.5 3-11.7 2.1c1-4.8 3.8-6.7 7.9-5.8l2.3.7z" class="p"/><path d="M176.5 328.4l-.8-1.1a4.44 4.44 0 0 1 .8 1.1zm12 25.1c.2.1.3.1.5.2-.2.1-.3.3-.5.4-.1-.1-.1-.3-.2-.4 0-.1.1-.2.2-.2z" fill="#fcfcfd"/></svg>