<svg xmlns="http://www.w3.org/2000/svg" viewBox="0 0 705.71 762.45"><style><![CDATA[.c{fill:#7d74f6}.d{fill:#7b73f0}.e{fill:#e9e9e9}.f{fill:#2b2b33}.g{fill:#121212}.h{fill:#adaad7}.i{fill:#f5f5f5}.j{fill:#0e0e0e}.k{fill:#756deb}.l{fill:#7d74f8}.m{fill:#fafafa}.n{fill:#f0f0f2}.o{fill:#070708}.p{fill:#f9f9f9}.q{fill:#fafafb}.r{fill:#7e75fa}.s{fill:#8178fc}.t{fill:#0b0a0b}.u{fill:#f7f6fa}]]></style><path d="M108.88 389.3l-1.9 98s7.38 41.93 21.46 53.1 35.9 40.73 58.73 31.93l22.82-8.8 33.9-39.4-3.47 30.67-26.5 101.9s-7.38 49.35 259 105.64m.02.03l7.12-96.13-87.24-96.9-56.23-233.36-54.86-11.6-1.24 101.12-136.27-1.98-2.8-1.04" class="p"/><path d="M548.58 319.36l-5.6 3.17a2.65 2.65 0 0 0-1.2 1.68 86 86 0 0 0-.63 11 19.63 19.63 0 0 1-12.42 19.31c-4.2 1.75-8.9 2.3-13.38 3.33-1.52.35-3.45-.14-3.88 2.13s-1.65 4 .67 6.5c5.32 5.7 10 12 14.84 18.1q41.32 52.23 82.6 104.5c1.28 1.62 2.1 3.15.37 5.07-.42.46-.27 1.54-.23 2.32.74 15 2.3 29.92 2.06 44.86-.27 16.94-1.8 33.9-3.45 50.78-1.4 14.35-3.2 28.7-5.8 42.87a173.66 173.66 0 0 1-8.23 29c-6 16.17-17.54 27-35 29.7-15.1 2.33-30.1 1.35-44.1-5.8a6.21 6.21 0 0 0-1-.29c-1 6.8-1.88 13.6-3.18 20.3l-7.52 36.5a28.14 28.14 0 0 1-1.38 3.82c-.5-.6-1.44-1.24-1.42-1.83a73.29 73.29 0 0 1 .77-9.48l6.52-37.5 2.56-13.92c-1.64-1-3.53-2-5.36-3.2q-12.63-8-25.2-16c-17.46-10.93-31.83-25.5-46.47-39.73a220 220 0 0 1-17.93-19.69 21.92 21.92 0 0 1-4.32-19.25 2.77 2.77 0 0 0-.94-3.27c-4.33-3.6-8.66-7.2-12.8-11-9.06-8.35-20.16-12.95-31.56-16.63-14.83-4.8-29.92-8.8-44.93-13-7.07-2-7-1.84-7.18-9.28a52.51 52.51 0 0 1 6.58-26.91c1-1.8 2.28-3.47 2.86-5.18 0-1.66-.48-3.5.08-4.94 2.7-7 5.67-13.93 8.62-20.84.92-2.16 2.83-2.55 5-2.4 10.67.7 20.95 3.32 31.17 6.28l2.85.84-1-3.87Q353.46 417 336.83 356.6c-1.63-5.94-2.88-12-6.68-17.1a7.47 7.47 0 0 0-4.65-3.39c-9.7-2.36-19.3-5.08-28.94-7.7l-14.83-4v3.4q.8 46.72 1.57 93.44c.1 6.18-.13 6.4-6.38 6.5q-53.8 1-107.6 1.84c-6.9.1-6.9 0-8-6.53-5.62 3-11.4 2.45-17.05.47-11.22-3.93-21.2-9.8-28.86-19.2-3-3.64-5.2-7.4-5.32-12.2a20.38 20.38 0 0 0-.42-2.77h-.74a44.5 44.5 0 0 0-1 5.9q-.57 12.65-.88 25.3l-1.1 52.26c0 8.67 1.66 17.32 2.57 26 .33 2 .6 4.1 1 6.1 1.93 9.1 4.14 18.1 8.18 26.55l.5 1.1.55 1.14 8.73 13.67.57.6-.06-.05.62.9c9.6 11.5 20.45 21.38 34.33 27.5 8.27 3.65 16.7 5 25.73 2.92A109 109 0 0 0 229 560.37c3-2.2 5.64-4.3 7.63-8a160.67 160.67 0 0 0 14-35.63c1.5-5.9 3.23-11.72 5-17.54a20.55 20.55 0 0 1 2-3.65l1.23.5-9.47 36.43.57.36 8.32-13.38 6.37-9.48.83.38a29.54 29.54 0 0 1-1.67 4.88c-7.33 13.44-13.6 27.5-23.28 39.6-.76 1-.85 2.47-1.2 3.75l-13.9 50.1c-3.25 12.65-5.7 25.5-8.58 38.25-.76 3.3-1.88 6.54-2.83 9.8l-.85-.16c0-3.77-.44-7.6.07-11.3 3.32-24.17 9.54-47.67 16.9-70.9 1.17-3.72 2.2-7.48 3.3-11.23 0-.12-.13-.3-.4-.87l-2.32 1.64c-14.08 10.25-29.47 17.45-46.8 20.15-7.95 1.24-15.34-.9-22.5-3.9-13.35-5.6-23.86-15-33.6-25.46-12.43-13.4-18.57-29.65-22.26-47.15s-4.58-34.94-4-52.57c.63-19.23 1.83-38.45 2.9-57.67.28-5.1 1.2-10.08 4.47-14.35.56-.73.5-2.06.47-3.1-.25-15.67.36-31.3 3.88-46.6 5.68-24.67 20.72-41.45 44.4-50.45l1.54-.56-.6-23.95c0-1.57-.47-2.27-2.1-2.44l-31.94-3.46a8.83 8.83 0 0 0-1.36 0l-9.33-1.14-23.12-2.8q-14.42-1.78-28.84-3.64a4.74 4.74 0 0 1-1.82-.46c-.46-.3-1-.95-1-1.36a1.74 1.74 0 0 1 1.24-1.05 36.88 36.88 0 0 1 5.15.15q24.9 2.53 49.75 5.1c.9.1 1.8 0 2.7.06l39.87 4.54v-30.2q-.1-4.66-.2-9.3c.05-2.25.15-4.5.13-6.75s1-3.46 3.42-3.54l12.43-.6 15.72-.33h18.73l-2.27-8.37-1.92-7.5c-1-4.6-2.12-9.17-2.93-13.8-.23-1.3.44-2.76.7-4.15a14.87 14.87 0 0 1 2.09 3.44c1.24 4.16 2.24 8.4 3.33 12.6l2.1 7.53c.7 2.9 1.3 5.84 2.18 8.7a2.72 2.72 0 0 0 2.14 1.27l31-.63a5.39 5.39 0 0 0 3.56-1.83c4.9-6.08 9.6-12.3 14.36-18.5.42-.55.76-1.16 1.2-1.86l-5.77-2.84-8.77-5.67-6.18-4.9a30.6 30.6 0 0 1-9.84-15.67 14.48 14.48 0 0 1-.12-6.71c1.35-6.25 3.86-12 9.72-15.35 1.28-.75 3-.7 4.55-1-1.8 3.78-3.5 7-4.85 10.28-1.58 3.87-.76 7.5 1.8 10.74 4 5.12 9.5 7.74 15.8 8.82a57.82 57.82 0 0 0 20.32-.6 5.65 5.65 0 0 0 2.86-2.2q41-52.53 81.87-105.1a25.4 25.4 0 0 1 3-3.53 8.59 8.59 0 0 1 2.75-1 9.94 9.94 0 0 1-.42 3 19.81 19.81 0 0 1-2.37 3.25q-39 50.6-78 101.2a6.22 6.22 0 0 0-1.41 2.84c3.93-1 7.93-1.7 11.78-2.92l40.7-13c14.42-4.36 28.85-8.9 44.1-9.3a141.48 141.48 0 0 1 42.33 4.85c18.85 5.35 32.72 16.8 40.68 34.7 4.42-1.68 8.67-3.8 13.16-4.93 20.33-5.07 39.92-3.37 58.62 6.7 12.8 6.9 23.53 16.33 33.92 26.26l26.34 25.66c11.66 10.87 25.23 18.28 41.1 21.1 6.86 1.23 13.75 1.56 20.53-.3 2.67-.73 5.14-2.17 7.7-3.28 5.55-3.07 7-6.9 5.64-14.6l-1.36-5 2.38 1.44c1.2 3.08 3.26 6.1 3.42 9.24a23.26 23.26 0 0 1-9.37 20.44c-3.3 2.53-6.8 4.77-10.23 7.14-10 4.32-20.46 5-31.2 4.13-12.74-1-25.53-1.44-37.07-4.88-2 1.9-3.26 3.93-5.1 4.8-10.78 5.12-22 7.7-34.06 5.56-6.22-1.1-12.47-2-19.23-3.14l3.17 3.4c6.83 7.18 13.4 14.58 18.3 23.26 3.45 6.14 1.06 10.53-5.22 10.9l3.08 10.3c-.25 3-1.96 5.22-4.07 7.2zm108-64.77l1.32-.53.87-.34.44-.3c2.5-1.6 5.1-3.08 7.5-4.83a36.41 36.41 0 0 0 4-3.89l1.2-1.2-.4-.46-1.32.68c-7.3 3.28-15 3.82-22.87 3.65-2.06-.27-1.18 1.37-1.47 2.25l-1.82 4.37-.5.33V247l-7.14-1.35c-9.52-1.95-18.24-5.9-26.6-10.74-1.23-1.15-1.23-1.15-1.52 0l-.95 4.33-2 5.7-1.2 2.37-1 1.25-1.63.46 1.48-4.8 1.92-6.55c.27-2.5 1.42-5-1.05-7.27l-24.38-22.13-2.2-2-1 8.64q-3.48 9.63-7 19.25l-.53.26-.42.43a.88.88 0 0 0-.13.52h-1l.4-2.58c3.28-7.06 4.66-14.57 5.33-22.26.86-3.77 1.06-7.67-2-10.43-6.95-6.35-14.2-12.38-21.35-18.52a18.59 18.59 0 0 0-2.06-1.27l.64 7-3.07 20.23H544c.17-3.53.52-7.06.46-10.6-.07-4.6-.46-9.22-.7-13.82-.23-2.46.4-5.42-2.2-6.86-4-2.24-8.25-4-12.4-6l-7.27-2.88a63.55 63.55 0 0 1-3.1 27.2l-1.14-.07.2-3.73.16-2.26.28-14.7c0-.37-.07-.75-.1-1.12 0-6.4-.4-6.83-6-7.14l-1.67-.24h-14.15l-1.66.23-2.16.2a49.42 49.42 0 0 0-18.35 4.5c-2.6 1.2-5.3 2.35-5.72 5.85-.1.9-.95 1.72-1.46 2.58l-3.62.45c-.47 0-1-.25-1.42-.08-1.76.77-3.48 1.66-5.2 2.5a4.46 4.46 0 0 0 2 .42c4.22.37 8.44.7 12.63 1.24.7.1 1.3 1.2 1.94 1.85-.66.52-1.25 1.28-2 1.5a25.47 25.47 0 0 1-3.92.5c1.1.85 2.62 1.8 3.52 1.4 2.4-1.1 3.64.53 5.24 1.54l11.4 7.13a1 1 0 0 0 .53.09 8.61 8.61 0 0 0 1.72 2.15c2.14 1.4 4.4 2.6 6.62 3.9l7.52 4.4v-.05l1.72 1.07h-.05l1.12.65 6 3.8 1.1.47.57.3.5.26.54.35 2.26 1.26.46.3c6.23 3.87 12.65 7.45 18.64 11.66 14 9.85 29.87 15.72 45.63 21.86l.6.33.58.18 1.06.46.2.14h.25l1.18.45.18.14h.23a62.89 62.89 0 0 0 19.79 4.36l.13.1.12-.1 1.86.28 24 1.9 1.1.07 12-.4 1.13-.25 1.58-.26 1.15-.28 1-.2 1.17-.34h.24l.2-.14 1.3-.4.18.05.13-.14 1.33-.45h.18l.13-.14 1.12-.46zM157.3 400.1v-.05l.57 2.3 1.54 6.9.78-.18c-.25-8.1-2.44-15.87-4.68-23.62-2-5.66-1-11 2.23-15.8 2.42-3.6 5.16-7 7.84-10.4 1.9-2.45 4-4.8 5.93-7.2.27 0 .63.17.8.05l14.7-11c.78-.62.77-2.22 1.13-3.36a61.51 61.51 0 0 0-8.23 5.61c-2.35 1.9-4.58 3.95-6.86 5.93l-1 .66c-.18 0-.4 0-.52.1-7.34 5.85-13.93 12.4-18.52 20.7a9.64 9.64 0 0 0-1.22 6c1.4 7.16 3.3 14.22 5 21.32v-.06zm193 111.18l1.1 1.57v1l-22.8-9.75c-1.5-.65-2.46-.7-3.3.93-5.05 9.6-8.48 19.6-8.27 30.66 0 2.46.9 3.36 3.26 3.93 21.7 5.28 43.16 11.37 63.54 20.68a59.5 59.5 0 0 1 12.68 7.7c6.32 5.14 12.13 10.9 18.16 16.4.46.4 1 1.18 1.35 1.1 2.54-.48 3.53 1.28 4.73 2.9 1 1.42 2.2 2.73 3.6 4.43a49.49 49.49 0 0 0 2.75-5.54c3.85-11.14 8.12-22.16 11.24-33.5a82.7 82.7 0 0 0 1.19-40.7c-.2-.9-.6-2.24-1.23-2.47-4.86-1.8-9.8-3.4-15.06-5.15l.46 3.5c1.12 8 .72 16-2.25 23.58-.77 2-.74 4.8-3.6 5.54a72.78 72.78 0 0 0 3.16-24.36c-.15-2.8-.72-4.6-3.56-6.6-14.22-10-30.75-14.62-46.62-20.53-10.25-3.8-21.46-5.05-32.23-7.5a27.37 27.37 0 0 1-3.51-1.33l-2.08 4.4c-1.07 2.2-2.25 4.33-3.2 6.58-1.1 2.6-2 5.32-3 8l.06.07c-1.84 2.3-1.76 2.72.73 3.9l16.24 7.77c2.1 1 4.3 1.84 6.45 2.76zM502.93 212l-.62-.55-7.24-4.78 1.8 5.9a7.38 7.38 0 0 1-1.53-1.28c-1.84-2.64-3.17-5.84-5.52-7.88a125.91 125.91 0 0 0-14.21-10.4 54.56 54.56 0 0 0-10.08-4.89c-2.07-.8-3.4-1.38-1.7-4.05l-10.2.44a12.08 12.08 0 0 1-3.13-.82 18.66 18.66 0 0 1 2.26-2.35 18 18 0 0 1 2.91-1.47l6.94-3.33-.16-.52-5.35-.36-11.92.93-13 3.75c-1.16.37-2.07 1.64-3.22 1.86a40.12 40.12 0 0 1-5.5.19c-9 .48-18.1.78-26.5 4.75-4.83.74-9.64 1.85-14.5 2.15a45.74 45.74 0 0 0-20.59 6.28c-11.2 6.54-22.6 12.4-35.84 13.32-5.6.38-11.23.25-16.84.56-1.5.08-2.94.92-4.4 1.42a30.64 30.64 0 0 0 1.52 4.15c.85 1.6 2.08 3 3 4.55 2.93 5.22 1.57 8-4.4 8.74a29.59 29.59 0 0 1-5.14-.17c-.75 0-1.5-.16-2.77-.3l4.55 8.9c2.17 4.12 1.35 6-3.07 7.58a71.17 71.17 0 0 0-10.18 4.39c-2.48 1.37-2.6 3.32-.33 5a49.38 49.38 0 0 0 8.25 4.49c1.45.7 3.16 1.17 2.72 3.12-.47 2.14-2.25 1.8-4 1.6a65.16 65.16 0 0 0-9.44-.68c-3.2.1-3.8 1.43-1.72 3.92 2.67 3.2 5.7 6.06 8.62 9 2.4 2.47 4.9 4.86 7.2 7.4a3.42 3.42 0 0 1 .74 2.64c-.1.45-1.48.7-2.32.87-1 .2-2.05.26-3.23.4a15.64 15.64 0 0 0 .57 2.16c4.17 8.92 9.38 17.08 17.76 22.62A47.23 47.23 0 0 1 327.37 326c2.9 4.7 5.55 9.58 8.57 14.2 5.52 8.45 12.36 15.63 21.15 20.8a7.51 7.51 0 0 0 1.06.82l16.38 8.6c5 2.7 9.78 5.94 15 8.24 13.14 5.86 27.1 5.12 41 4.3a64.05 64.05 0 0 1 8.39-.46c1.82.13 3.57 1.2 5.35 1.87a60.23 60.23 0 0 1 19.15-.66 45.81 45.81 0 0 0 21.77-1.65c5.44-1.9 9.9-5.14 11.9-10.76 1.16-3.23 3.18-5.3 6.38-6.1a6.45 6.45 0 0 0 5.36-5.69c.5-3 2.4-4.7 5.3-5.52a102.75 102.75 0 0 0 11.65-3.76c6.42-2.73 10.46-7.4 10.5-14.8a8.92 8.92 0 0 1 2.57-6.65c.78-.78 1.66-2.12 1.5-3.05-.56-3.54 1.62-5.1 4.1-6.64a30.47 30.47 0 0 0 3.57-2.5c2.86-2.38 3.4-5.25 1.55-8.5a11.25 11.25 0 0 0-6.63-5.71c-.7-.2-1.17-1.15-1.75-1.76.64-.54 1.2-1.4 1.93-1.57a55.83 55.83 0 0 1 5.64-.78c1.26-.37 3-.35 3.66-1.2 1.43-1.73.25-3.5-.93-5a26.65 26.65 0 0 0-2.3-3.64l-21.23-24.1c-4.3-5-9-9.9-12.28-15.55-6-10.13-11.1-20.8-16.56-31.22l1.37-.26a8.14 8.14 0 0 1 1.36 2.32c.62 3.16 2.78 3.85 5.53 3.75q14.45 5.84 28.9 11.65a7.35 7.35 0 0 0 1.71.25l.23-.68c-1.36-1-2.66-2.1-4.08-3q-15.58-9.87-31.2-19.66zm45.73 28.3l-2-.5.7 1.28 15.72 9.47c.66.4 2.54.53.82 2l-38.4-20.8c0 6.46-1 11.9-4 16.8l-.26-1.5c.34-2.1.8-4.2 1-6.33.23-2.86.3-5.73.25-8.6a2.29 2.29 0 0 0-1.28-1.66c-3.9-1.37-7.87-2.6-11.82-3.87l-3.66-1-.62.73 15.8 24.4a19.08 19.08 0 0 1 1.58 1.79c2.8 4.1 6.15 7.33 11.6 7.26a10.21 10.21 0 0 1 2.11.49c15.86 3.55 31.72 6.36 47.53-.24 1.65-.68 3.23-1.55 4.84-2.34 0-.36 0-.73-.08-1.1l-7-3.24c-1.48-.67-2.93-1.4-4.43-2q-14.23-5.55-28.42-11.03zm-26.2 329.25v.74l2.5 2.06a7.47 7.47 0 0 0 1.7 0c2.26-.5 4.55-1.64 6.76-1.48a112.1 112.1 0 0 1 13.83 2.1c1 .2 1.8 1.42 2.7 2.17-1 .63-2.1 1.84-3.1 1.8-5.5-.2-11-.74-16.46-1.16l-.86-.12.52.5c.6.66 1.13 1.38 1.78 2l8.6 8c1.16 1.1 2.6 2.57 1 4.17s-2.76 0-3.9-1c-2.33-2.15-4.6-4.4-7-6.46l-50.2-42.32-32.82-26.57c-.9-.72-1.9-1.32-2.85-2l-.9.17c0 3.1-.23 6.2 0 9.26a105.84 105.84 0 0 1-1.73 31.18c-3.33 16-8.3 31.4-16.73 45.52l-5.33 7.23 21.66 22.74c10.9 11.33 22.2 22.26 35.4 31l27.48 17.7c8.72 5.43 17.5 11 27.94 12.32a123.23 123.23 0 0 0 22.22.85c12.33-.72 22.6-6 29.57-16.5a67.93 67.93 0 0 0 7.35-14.5 183 183 0 0 0 9.26-41.09l5.27-51.47a304.89 304.89 0 0 0 .34-52.51c-.6-6.6-.88-13.22-1.4-19.82a7.12 7.12 0 0 0-1.13-3.66L510.7 370.65c-.85-1.1-1.65-2.2-2.64-3.54l-5.92 14.46c-.2.4-.44.8-.62 1.2l-55 122.36c-.4.88-.73 1.8-1.05 2.56 6.4 4.86 12.74 9.4 18.76 14.33l55.83 46.12a17.42 17.42 0 0 0 2.39 1.44zM391.84 185.4l11.36-2.15v-.7c-11.3-.9-21.5-5.6-32.1-8.86-9.77-3-19.76-5.25-29.66-7.84-4.37-.67-8.72-1.7-13.12-1.93-7-.4-14.07-.26-21.1-.35l-7 .55-2.6.3c1 2 1.73 3.53 2.64 5 4.34 6.8 9.92 12.4 17.23 15.84 8.66 4.08 17.54 7.7 26.33 11.5v.7l-7.2.6-4.3-.67-4.36-.57-1.12-.16-3.82-.46-1.1-.2-3.78-.4-1.13-.17-2.7-.32-1.1-.2-2.15-.36-1.12-.3-1.08-.2-1.1-.34-1.07-.23-1.1-.36-8.17-2.34-1.1-.37-26.93-10.1c-1.44-.55-2.2-.45-3.17.8l-12.63 16.33a22.12 22.12 0 0 0-1.35 2.33H263c4.06 0 8.13-.12 12.18.1 1.38.07 2.73 1 4.1 1.53l.3 1.3.43 16.36.2 15.25q.17 5.73.35 11.46.18 5.73.16 11.43l.12 1.17 1.33-.58L286 257c-4.28-6.4-3.2-10 3.78-12.7 2.1-.8 4.32-1.3 6.48-1.94l2.74-.54-1.64-1.4-1.28-2.18-.84-2.85-1.82-3.7-.5-1.08-1.7-3.83-.4-1.1v-1.63l.52-1.1.56-.56 1.1-.54h1.66l1.1.34 4.36 1.26 1.1.3h6.07l.48-1.35c-1.37-2.2-2.67-4.48-4.1-6.64-3.26-4.9-1.7-8.57 4.1-9.52 1.24-.2 2.53-.2 3.8-.27l5.4-.34 1.12-.1 4.33-.4 1.1-.16 3.25-.38 1.1-.2 2.16-.3 1.1-.23c6.3-.6 11.93-3.13 17.5-5.88l2.5-.8-1.88-.9 4.78-1.27 6.88-2.72a7.44 7.44 0 0 1 .74-.28l7.66-1.8c3.4-.87 6.77-1.95 10.2-2.67 4.07-.88 8.2-1.45 12.3-2.13zm-185.36 28.5h4.7c-.24-1.2-.38-2.06-.6-2.92-1.27-5.2-1.28-5.2-6.73-4.85h-41.5l.95 46.27 5 .6v-2.9q-.3-15.24-.6-30.48c-.1-4.58.42-5.1 5.08-5.28 1.8-.06 3.63-.08 5.44-.1zm276.2 186.7v-.05l-1.48 1.53c-6.5 6.85-12.82 13.85-19.54 20.46a47.11 47.11 0 0 1-9.54 6.69c-2.76 1.6-4.6.55-5.53-2.54a37.41 37.41 0 0 1-.84-3.16 50 50 0 0 0-11.48-22c-1-1.2-2.2-2.23-3.3-3.34 4.33 13.42 1.63 19.82-11 25.7l20.4 82 1-.07 1.64-4.22a13.83 13.83 0 0 0 1-1.6q26.42-58.08 52.8-116.16c.3-.7.5-1.43.75-2.14l-.6-.45c-1.68 1.42-3.74 2.56-4.95 4.3-3.25 4.67-6.13 9.6-9.16 14.43zm-282.3 23.75a12.3 12.3 0 0 0 1.35.12q34-.63 68.1-1.27c2.87-.05 5.73 0 8.68 0l-3.9-218.13h-9.33l-6.5.06-9.8.2a3 3 0 0 0-1.95.66c-2 2.32-3.78 4.76-6 7.63h3.3l22.07-.1c4.47 0 5 .4 5.06 5q.42 19.88.77 39.76 1.26 75.2 2.45 150.38c.12 8.3 1.92 8.7-8.68 8.9l-51.5.73c-4.9.08-9.8.3-14.68.47l-20.68.1c-7.8 0-7.86.07-8-7.87l-.8-46.54v-4.4l-.76-.17-6.55 7.77a19.1 19.1 0 0 1 1.53 3.54 38.45 38.45 0 0 1 .53 5.68q.6 22.57 1.16 45.16c0 1 .1 1.92.12 2.34zm203.86-35.67c-1.13.27-2.3.46-3.4.84-13.92 4.7-23.15 14.12-28.25 27.82a5.08 5.08 0 0 1-2.95 3c-.88.17-2.5-1.28-3.12-2.38-2.67-4.85-5.68-9.62-7.47-14.8-4.88-14.13-9.33-28.4-13.67-42.72-1.06-3.47-3.18-5.65-6-8.06.16.87.2 1.3.33 1.74q17.46 63.07 35 126.13c.32 1.16 1.4 2.1 2.1 3.16a12.47 12.47 0 0 0 2.41-2.53l29.88-58.64c-6.92-4.35-10.1-10.54-8.6-18.53 1.33-7.18 6.1-11.3 13.15-12.86l10.58 1.57.27-.85c-2.2-.9-4.34-2.36-6.6-2.6-4.55-.47-9.1-.25-13.63-.3zM392.94 137.3l2.46-5a23.26 23.26 0 0 0-3.18-.17l-24.76 2.32c-3.25.26-4.87 1.88-5.36 4.93-2.2 6-1.37 12.26-.8 18.72-2.43-2-4-11.42-3.3-18.05l1.55-3.92-12.36 3-25.5 8.66a3 3 0 0 0-1.68 1.51c-1.05 3.4-1.93 6.87-2.86 10.27 6.85.66 13.37 1.06 19.83 2a227.55 227.55 0 0 1 49.65 13c15.65 5.93 31.7 7.93 48 1.83 7.34-2.74 15.14-2.65 22.87-2.5l7.6 1.13c-.72-2.8-1-5.13-1.9-7.2-5.4-12.34-14.64-21-26.52-27-5.5-2.78-6.08-2.52-8.86 3a2.18 2.18 0 0 0-.09.52q-2.3 7.1-4.57 14.18l-.67-.1a11.91 11.91 0 0 1 0-2.07l2.4-13.5 2.28-5.65a24.33 24.33 0 0 0-2.87-.87l-20.3-3.4c-3.74-.57-5.53.65-7.12 4.28-.64 1.88-1.7 3.72-1.86 5.63-.55 6.58-.8 13.2-1.16 19.8l-.22 3c-2.45-5.2-2.62-18.53-.68-28.35zM141.58 413.1a42.51 42.51 0 0 0 17.33 5.53l-8.4-33.25c-1-4.2-2.64-8.68-.74-12.83a53 53 0 0 1 7.2-11.41c8.55-10.36 19.18-18.38 30.2-25.86-2.4-9.37-7.3-17.4-12.38-25.72l-3.7 2.52c-8.17 6.07-16.45 12-22 20.88-.1.15-.18.38-.32.43-.8.24-1.6.44-2.38.66-.17-.73-.64-1.56-.44-2.2a52.19 52.19 0 0 1 2.11-5.3c4.42-10.14 10.92-18.57 20.1-24.88 1.48-1 3.07-1.82 4.78-2.82-1.64-4.08-3-8.1-4.84-11.9-1.62-3.38-2.26-3.52-5.83-2.37-22.78 7.36-38 22.47-44.44 45.47-5.15 18.34-5.06 37.34-4.57 56.26a3.11 3.11 0 0 0 .77 1.59c1.1 1.4 2.4 2.68 3.4 4.16a61.24 61.24 0 0 0 24.15 21.02zm308.74 12.4c15.15-10.45 25.94-24.3 37.48-38a9.35 9.35 0 0 0-1.47.17 25.8 25.8 0 0 1-20.83-1.13c-2.47-1.2-5.6-1.15-8.44-1.53-5.62-.74-10.72 2.67-16.66 1.65-3.88-.67-8.2 1.3-12.76 2.18 11.36 9.9 20.08 21.15 22.68 36.66zm-169.46-156.6l.82 52.07 43.5 10.3c-4-6.52-8.05-11.78-14-15.55-9.43-6-15.33-14.8-18.76-25.28-1.5-4.62-.53-5.9 4.14-6.5.1 0 .16-.26.37-.62zm115.87 117.74c-2.26-.72-4.14-1.14-5.87-1.9-3.65-1.57-7.7-2.7-10.73-5.1a79.76 79.76 0 0 0-17.83-10.79c-3.56-1.55-6.82-3.77-10.2-5.7l-2.25-1.25c4.77 18.55 10.33 36.2 19.8 52.86 5.22-13.18 13.75-22.62 27.1-28.13zM270.1 176.2c8.6 5.07 46.48 16.5 49.95 14.85l-2.83-1.3A42.53 42.53 0 0 1 296.64 171a21.4 21.4 0 0 1-2.08-5.82c-.46-2.13.7-3.48 2.88-3.77a176.42 176.42 0 0 1 6.76-.78l11.62-1 1.08-9.88-27.7 7.24a10.74 10.74 0 0 0-7.75 6.54c-1.57 4.1-2.44 8.48-3.77 13.27l-1.5-8.5zm-39.85 141.64c-6.78 0-13.3-.05-19.8.1-.58 0-1.6 1.32-1.62 2.06-.22 6-.2 12-.35 17.93 0 2.3 1.05 3 3.18 2.9l16.56-.75a2.84 2.84 0 0 0 1.94-1.92c.14-6.7.1-13.38.1-20.33zm0-92.66l-19.8.1c-.58 0-1.6 1.34-1.62 2.1-.2 6-.2 12-.33 17.93-.05 2.07.8 3 2.92 2.9l16.83-.75a2.82 2.82 0 0 0 1.92-1.94c.14-6.7.1-13.38.1-20.3zm0 141.72c-6.78 0-13.3-.06-19.8.1-.58 0-1.6 1.33-1.62 2.07-.22 6-.2 11.95-.35 17.93 0 2.3 1.06 3 3.18 2.9l16.56-.75a2.81 2.81 0 0 0 1.94-1.93c.14-6.7.1-13.38.1-20.32zm0-98.1c-6.77 0-13.28-.06-19.8.1-.58 0-1.6 1.32-1.63 2.06-.22 6-.2 11.95-.35 17.93 0 2.3 1 3 3.17 2.9l16.56-.75a2.8 2.8 0 0 0 1.95-1.91c.14-6.7.1-13.38.1-20.33zm13.62-.47v22.26l18.4-.08c.52 0 1.4-1.24 1.46-1.94.16-2.6.1-5.25 0-7.88l-.54-12.36zm19.55 49.08h-19.5v22.25l18.18-.07a2.27 2.27 0 0 0 1.61-1.51l-.28-20.67zm-19.6-70.4l18.3-.1c.58 0 1.6-1.33 1.6-2 .06-5-.07-10-.2-15 0-1.76-.27-3.5-.4-5.14h-19.3zm-66.6-10h.12c.17 3 .42 6 .5 9 .05 2.1 1 2.9 3 2.82l12.77-.38c2.6 0 3.54-1.27 3.4-3.74l-.83-17.1c-.07-1.84-1-2.3-2.63-2.24q-6.93.2-13.87.34c-1.64 0-2.55.58-2.5 2.4.1 2.97.06 5.92.06 8.92zm9.65 32v.33h-7.07c-1.8 0-2.68.67-2.6 2.58l.72 18.46c.07 1.87 1.37 2.13 2.86 2.08l12.77-.36c2.53 0 3.63-1.12 3.5-3.66q-.48-8.55-.82-17.1c-.07-1.77-.88-2.38-2.55-2.33h-6.8zm-9.65 109.7h.12c.17 3 .43 6 .48 9 0 2.28 1.1 3 3.24 2.9 4.17-.2 8.34-.33 12.5-.38 2.54 0 3.6-1.14 3.47-3.67l-.82-17.1c-.07-1.78-.9-2.37-2.57-2.32l-14.13.35c-1.56 0-2.34.68-2.3 2.3.05 2.9.01 5.9.01 8.88zm60-237.26h-.84c0 2.33-.5 4.8.1 7 1.34 4.87 3.7 9.5 7.8 12.5 6.5 4.73 13.44 8.87 20.18 13.28 1.38.9 2.2.42 3.1-.8l9.47-12.3a6.68 6.68 0 0 0 .67-1.23c-5.87 0-11.77.28-17.63-.07a26 26 0 0 1-17.58-8.28 18.35 18.35 0 0 1-5.28-10.13zM190.3 341.08h3.4c2.4.05 3.47-1.1 3.34-3.5l-.92-17.35c-.05-.78-1.1-2.08-1.73-2.1-3.65-.2-7.3-.1-11.3-.1 2.15 5.45 4.2 10.16 5.84 15 .82 2.46.9 5.16 1.37 8.06zM213 205.8c.63 2.44 1.23 4.25 1.56 6.1.28 1.64 1.17 2 2.65 1.94l17.4-.18a3.06 3.06 0 0 0 2-.51c2-2.35 3.9-4.82 5.93-7.36zm-49.4 50.9v24.05l4.82 1.27v-24.8zm-7.2 61l.7.9a25.46 25.46 0 0 0 2.81-1.55l10.74-7.8c3.25-2.3 3.28-2.26.58-6.1zm4.86 52.93c-6.4 6.93-2.4 13.92 0 20.9zm377.73-134l8.2 4.5c-1.2-2.98-6.08-5.47-8.2-4.5zm-.3-2.06c-.34.3-.7.47-.74.7s.25.52.4.78c.3-.17.67-.3.83-.55s-.26-.48-.5-.92zM233.33 562c-.06.07-.16.14-.15.18a1.47 1.47 0 0 0 .15.34c0-.06.16-.12.16-.16a2.22 2.22 0 0 0-.16-.36z" class="o"/><path d="M113.83 251.3l9.33 1.14-13 15.67C96 285.9 84.63 305.4 75.08 326a330.31 330.31 0 0 0-22.54 65.2q-6.1 26.5-10.67 53.32c-2.7 15.9-4.74 31.9-6.44 48-2 18.95-3.15 38-2.26 57.06.6 12.6 1.87 25.14 5.13 37.4 1.56 5.85 3.46 11.52 8.85 15.15.2.13.26.46.68 1.25-1.22.06-2.4.48-3.07.07-2.24-1.4-4.76-2.77-6.34-4.8C34.07 593 32.5 586.2 31 579.47a222.06 222.06 0 0 1-5.15-45.05 461.19 461.19 0 0 1 3.88-62.92c3.72-30.08 8.6-60 16.5-89.25 10.23-38 25.7-73.66 48.3-106 5.44-7.8 11.68-15 17.55-22.53.6-.78 1.18-1.6 1.76-2.4z" fill="#8179fd"/><path d="M117.6 531.42c-4-8.45-6.25-17.46-8.18-26.55-.42-2-.68-4.07-1-6.1 5.26 9.92 10 20.13 15.9 29.7 8.5 13.88 19.6 25.63 32.3 35.8 4.68 3.76 10.33 5.65 16.15 6.83a12.29 12.29 0 0 0 5.66-.12c15.22-4.5 29-11.73 40.07-23.2 11.3-11.76 19.26-25.76 26.1-40.54a71.81 71.81 0 0 0 7-27.2 320.28 320.28 0 0 1 .63-10.28 20.37 20.37 0 0 1 .62-4.27 5 5 0 0 1 9.62-.07 17.42 17.42 0 0 1 .95 5c.37 15.74-.32 31.38-5 46.6a11.94 11.94 0 0 0-.27 2.41l-8.32 13.38-.57-.36 9.5-36.42-1.23-.5a20.55 20.55 0 0 0-2 3.65c-1.76 5.82-3.5 11.65-5 17.54a160.67 160.67 0 0 1-14 35.63c-2 3.74-4.64 5.82-7.63 8a109 109 0 0 1-40.47 18.74c-9 2.1-17.46.73-25.73-2.92-13.88-6.12-24.74-16-34.33-27.5l-.62-.9.06.05-.57-.6-8.73-13.67-.55-1.14z" class="r"/><path d="M480.06 666.24q12.6 8 25.2 16l5.36 3.2-2.56 13.92-6.52 37.5a73.29 73.29 0 0 0-.77 9.48c0 .6.92 1.22 1.42 1.83.12 6.32.24 6.7-5.78 8.48-7.72 2.26-15.64 3.82-23.48 5.67-1.66.4-2.17-.8-2.18-2 0-4.6-.13-9.22.14-13.8l2-27.37 4-44.37c.3-2.9 2.1-5.68 3.16-8.53z" fill="#7d74fc"/><path d="M660.06 257.8c3.42-2.37 6.94-4.6 10.23-7.14a23.26 23.26 0 0 0 9.37-20.44c-.16-3.13-2.22-6.16-3.42-9.24 1.93-4.68 3.74-9.42 5.8-14l10-21.7a2.1 2.1 0 0 0 0-1.81c-.68.6-1.37 1.2-2 1.83-2.56 2.44-5 5.06-7.7 7.28-2.37 1.92-4.6 1.76-6.1 0-1.83-2.08-1.37-4.33.16-6.2a67.18 67.18 0 0 1 5.07-4.9l8.7-8.65c4.5-4.48 10-3.85 12.52 2a41.88 41.88 0 0 1 2.8 12.07c.46 4.46.1 9 .1 13.93-4.42-4.7-6.26-10.3-7.92-16l-.75.15a53.66 53.66 0 0 1-1.29 6c-6.1 18.32-11.6 36.9-18.62 54.84a194.18 194.18 0 0 1-28.72 50.17c-10.83 13.63-23.75 24.75-40.47 30.65-17 6-33.72 4.87-50.07-2.47-3.13-1.4-6.1-3.16-9.14-4.75 2.1-2 3.8-4.2 4.1-7.23.65.3 1.3.6 1.95.93 8.48 4.3 17.33 7.43 26.93 8 18 1 33.12-5.8 46.37-17.43 10.22-9 17.8-20 24.57-31.7 2.68-4.67 5.04-9.47 7.54-14.18zM693.6 182l-1 .78.4.4.7-1.06.16-.48z" class="s"/><path d="M44 228v19.33c0 3.78-.57 4.27-4.25 4.32l-24.23.2a6.75 6.75 0 0 1-3.72-1.18q-5.38-3.9-10.5-8.2a4.35 4.35 0 0 1-1.32-3l.37-35.93a8 8 0 0 0 0-1.63c-.5-2.23.68-3.06 2.64-3.06l32.4.2a4.18 4.18 0 0 1 2.52 1.21 47.89 47.89 0 0 1 4.76 5.21 5.74 5.74 0 0 1 1 3.18v19.33zM3.8 240.7h31.46v-37.84H3.8zM380.2 40.84h-16.07c-3.06 0-4.42-1.2-4.53-4.25l-.6-26.4c0-1.26.88-2.62 1.63-3.76 2.9-4.4 7.23-5.32 12.22-5.37C381 1 389.13.36 397.3 0c3.87-.16 4.35.2 4.55 4l1.2 27.22a8.65 8.65 0 0 1-8.41 8.61H380.2zM366 5.07l1.23 27.52 31.62-1.18-1-27.32zM71.68 48.3h15.5c4.17 0 6.9 2.68 7 6.74l.67 23.4c.06 5.5-1.3 6.66-6.82 6.66q-14.43 0-28.85-.1c-4 0-6.52-2.42-6.53-6.55q0-12.5.16-25c.07-4.94.15-4.9 5.25-4.87h13.6zm15.5 3.5h-32l.88 27.24h31.12z" fill="#090909"/><path d="M196.82 124.26h-13c-4.3 0-4.8-.45-5-4.84l-.85-23.1a31.91 31.91 0 0 0-.35-4.59c-.36-2 .62-2.78 2.3-2.87q15.35-.85 30.7-1.6c1.86-.1 2.85.9 3 2.77q.77 13 1.5 26.07a11.82 11.82 0 0 1-.2 2.44c-.5 3.45-1.84 4.58-5.26 4.72l-12.77.63zm14.3-8.15l-1.17-25.06-29.3 1.54 1.86 24.72z" class="t"/><path d="M88.55 104a43.47 43.47 0 0 1 3.66 3.51q12.53 15.1 25 30.25 19.2 23.34 38.4 46.7c1.07 1.3 3.2 2.93 1.26 4.6s-3.18-.7-4.23-2q-31.16-38.73-62.22-77.5a53.12 53.12 0 0 1-3-4.55z" class="j"/><path d="M157.67 212.35q.1 4.65.2 9.3a10.42 10.42 0 0 0-1.62 1l-20.1 17c-3 2.67-5.6 5.84-8.4 8.8l-9.74-1.13c5.58-5.56 10.93-11.37 16.8-16.6 6.77-6 14-11.54 21-17.25a14.85 14.85 0 0 1 1.87-1.11zm51.53-21.48l-2.1-7.53c4.08-1.5 8.1-3.18 12.23-4.5l27.28-8.43c.86-.27 1.7-.6 2.54-.9l8.78 5.67a245 245 0 0 0-48.72 15.69z" class="s"/><path d="M311.1 333.6c2.73 25.93 8.62 51.7 4.34 78l-1.45.12a36.86 36.86 0 0 1-.62-6.32c1.64-22.34-1-44.42-3.72-66.5a44.42 44.42 0 0 1 0-5.29z" class="g"/><path d="M189.37,201.13l-15.72.33,30.26-16.2,1.92,7.5Z" class="c"/><path d="M514.18 99.73l2.26-7.86q4.23-12 8.66-24a15.48 15.48 0 0 1 2.37-3.87 2.07 2.07 0 0 1 1.87-.53 2.27 2.27 0 0 1 1 1.69 5.06 5.06 0 0 1-.45 2.37l-12 27.88c-.74 1.63-2.38 2.86-3.6 4.27zm-59.1-14.27l-2.24-13.8-1.18-8.33c-.06-1 .87-2 1.34-3.07.85.78 2.35 1.5 2.43 2.34.6 6 .92 12.08 1.25 18.13a46.3 46.3 0 0 1-.23 4.69z" class="j"/><path d="M562.23 139.92l14.7-9a40.77 40.77 0 0 1 5.79-2.92c.73-.28 1.78.25 2.7.4-.42.82-.63 2-1.3 2.4-6.88 3.88-13.8 7.7-21.44 9.92z" class="g"/><path d="M199.4 147.34l-1.3 2.45c-.7-.5-1.78-.84-2-1.5q-1.7-5-3-10.14c-.16-.67.56-1.56.87-2.35.67.5 1.7.86 1.94 1.52 1.3 3.28 2.36 6.67 3.5 10z" class="j"/><path d="M82.7 95.57c-.58.2-1.5.76-1.7.56q-3.67-3.54-7.1-7.36c-.1-.12.84-1.2 1.3-1.83L83 94.6z" class="g"/><path d="M675.22 224.55c1.4 7.7-.1 11.53-5.64 14.6z" class="d"/><path d="M514.23 99.65l.08.14a.67.67 0 0 0-.12-.06l.04-.08z" class="j"/><path d="M530.4 575.82c5.5.42 11 .95 16.46 1.16 1 0 2.06-1.17 3.1-1.8-.9-.75-1.7-2-2.7-2.17a112.1 112.1 0 0 0-13.83-2.1c-2.2-.16-4.5 1-6.76 1.48a7.47 7.47 0 0 1-1.7 0c-.2-1.88-.27-3.77-.58-5.62-2.62-15.2-5.52-30.38-4-45.94a7.89 7.89 0 0 0-.11-2.7 2 2 0 0 0-1.24-1.15c-.25-.08-1 .55-1.07 1a15 15 0 0 0-.46 3.21 145.6 145.6 0 0 0 4.72 45.28 16.76 16.76 0 0 1 .24 3.19 17.42 17.42 0 0 1-2.39-1.44l-55.83-46.12c-6-4.93-12.37-9.47-18.76-14.33l1.05-2.56 55-122.36c.18-.4.4-.8.62-1.2 5.25 3.2 9.85 7 13.18 12.3l21.62 33.95L564.1 468c1.2 1.75 1.2 2.58-.9 3.67a165.56 165.56 0 0 0-16.22 9.27 146 146 0 0 0-13.89 11.32 5.2 5.2 0 0 0-.74 7.35c1.78 2.17 4.56 2.5 7.37.86a15.34 15.34 0 0 0 1.74-1.29l10.08-7.82a10.15 10.15 0 0 0 2.63-.77c3.3-2.06 6.54-4.2 9.78-6.37 1.9-1.27 3.8-2.6 5.68-3.92 2.44-.35 3.65 1.06 4.32 3.12 1.42 4.4 3.08 8.74 4.1 13.22 4.47 19.6 5.94 39.6 6.92 59.6.64 13.18.24 26.46-.4 39.66a195.59 195.59 0 0 1-6.89 42c-1 3.6-2.7 6.5-5.9 8.06-5.26 2.6-10.6 5.3-16.2 6.9-11 3.12-22.28 2.8-33.47 1.4-6.08-.75-12.3-1.74-18-3.85-19.57-7.24-37-18.27-53.27-31.27-8.62-6.9-17-14-25.53-21.1 8.43-14.13 13.4-29.57 16.73-45.52a105.84 105.84 0 0 0 1.73-31.18c-.27-3.07 0-6.17 0-9.26l.9-.17c1 .66 2 1.26 2.85 2l32.82 26.57 50.2 42.32c2.42 2.06 4.68 4.3 7 6.46 1.13 1 2.33 2.6 3.9 1s.2-3.06-1-4.17c-2.8-2.7-5.75-5.3-8.6-8-.65-.6-1.2-1.32-1.78-2a3.92 3.92 0 0 0 .33-.25z" fill="#fdfdfd"/><path d="M357.1 361c-8.8-5.16-15.63-12.34-21.15-20.8-3-4.63-5.66-9.5-8.57-14.2a47.23 47.23 0 0 0-14.22-14.79c-8.38-5.54-13.6-13.7-17.76-22.62a15.64 15.64 0 0 1-.57-2.16c1.18-.14 2.22-.2 3.23-.4.84-.18 2.2-.42 2.32-.87a3.42 3.42 0 0 0-.74-2.64c-2.3-2.55-4.8-4.94-7.2-7.4-2.9-3-5.95-5.85-8.62-9-2.08-2.5-1.48-3.82 1.72-3.92a65.16 65.16 0 0 1 9.44.68c1.72.2 3.5.55 4-1.6.44-1.95-1.27-2.43-2.72-3.12a49.38 49.38 0 0 1-8.25-4.49c-2.28-1.68-2.15-3.63.33-5a71.17 71.17 0 0 1 10.18-4.39c4.42-1.62 5.24-3.46 3.07-7.58l-4.55-8.9c1.27.14 2 .26 2.77.3a29.59 29.59 0 0 0 5.14.17c6-.77 7.34-3.52 4.4-8.74-.88-1.57-2.1-3-3-4.55a30.64 30.64 0 0 1-1.52-4.15c1.46-.5 2.9-1.34 4.4-1.42 5.6-.3 11.24-.18 16.84-.56 13.24-.9 24.63-6.78 35.84-13.32a45.74 45.74 0 0 1 20.59-6.28c4.86-.3 9.67-1.4 14.5-2.15a51.88 51.88 0 0 0 7 .88 182.34 182.34 0 0 0 37.46-4.24c2.86-.6 5.84-1.82 8 1.5.18.26.62.36 1 .5l12 5.08c1.92.85 3.73 2 6.13 3.2-1.2.5-1.68.7-2.17.87-7.94 2.52-12.4 7.83-13.1 16.2a10.23 10.23 0 0 1-.86 2.55c-1.44 3.9-3.16 7.72-4.27 11.72a83.4 83.4 0 0 0-2.08 11.48c-1.57 11.86-1.22 23.3 7.74 32.68a5.75 5.75 0 0 1 .67 1.16c-21.52 3.17-40.42-3.23-57.35-15.56 4-2.26 8.43-4.25 12.26-7 2.77-2 4.78-5.1 7.13-7.7l2.46-2.77 5.6-6.8-.9-.64q-2.34 3.72-4.7 7.45l-3.3 2.74a10.3 10.3 0 0 0-1.47 1.05 45.91 45.91 0 0 1-18.55 10.93 14.76 14.76 0 0 1-5.83.55c-10-1.15-19.77 5.24-21.55 14.65a29.74 29.74 0 0 0 1.7 17.65c4.06 9.26 10.46 17 17.08 24.44.47.53 1.54.53 2.33.78a6.92 6.92 0 0 0-.05-2.28 12 12 0 0 0-1.64-2.81l-7.1-9.65c-5.33-7.32-9.4-15.1-8.95-24.54.25-5.23 1.46-10 6.38-12.74 5.42-3.05 11-3.66 16.5-.16 2.52 1.6 4.93 3.4 7.32 5.2 11.54 8.7 24.6 12 38.9 11.05l17.4-1c2.2 1.4 4.38 2.84 6.64 4.14 6.83 3.95 7.46 11.72 1.2 16.53-3.08 2.36-6.44 4.36-9.5 6.74a70 70 0 0 0-9.2 7.93c-1.48 1.64-1.83 4.3-2.7 6.5l-1.12 1.33-1.67 1.2c-1.52-.22-3-.36-4.54-.67-8.95-1.85-17.8-4.5-27.15-2.88a77.67 77.67 0 0 1-10.58.85c-7.47.26-14-1.88-18.68-8.1l-7.72-10.2-13-18.72a2.23 2.23 0 0 1-.35-.86c-.26-1.77-1.46-2-2.7-1.3-4 2.3-8.4 4.33-8.55 9.92a13.91 13.91 0 0 0 .52 2.86c.83-.63 1.92-1.1 2.43-1.9 1.1-1.75 1.87-3.68 3-6.06.56 1.32.83 1.88 1 2.46a334.21 334.21 0 0 0 21.2 47.32c3.77 7 8.8 12.9 15.8 16.85 12.54 7.07 26.25 8.43 40.1 6.56 11-1.5 20.88-6.63 29.52-13.7 6.9-5.63 13.53-11.55 20.3-17.33 1.33-1.13 2.76-2.17 4.16-3.27l3.24 6.4.67-.2.55-1.73c3.36-.4 5-2.14 5.25-5.4.28-4.46-3.4-10.6-7.46-12.4-2.8-1.24-5.14-.4-6.72 2.18a16.76 16.76 0 0 1-2.27 2.44l-.65.24a17 17 0 0 0-2.14.06l-18.1 2.9a16.81 16.81 0 0 1-4-.41l16.08-10.25c.72-.52 1.44-1 2.15-1.54 8.4-6.2 12.7-13.54 6.54-23.75-.14-.24-.26-.48-.4-.72l-.5-.7-.52-.6c-1.56-2-2.78-4.47-4.74-6-4.72-3.58-10.28-6.06-14.17-10.77-.13-.16-.5-.13-.75-.2l-.47-.65-.63-1-2.55-4.5.2-.07-.22-.3a.7.7 0 0 1-.26-.22 10.41 10.41 0 0 0 0-1.85 107.22 107.22 0 0 1-1.5-25.1c.17-2.92.7-5.82 1.1-9.1l2 1.36 1.56.54c1.54 0 3.28.43 4.58-.13 6.5-2.8 12.5-2.66 18 2.15.68.6 1.57 1 2.2 1.6L499.5 240a85 85 0 0 1 17.61 28.2c2.28 6.17 5.42 11.9 10.3 16.47a18.33 18.33 0 0 1 5.09 9.09c1.34 5 2.57 10.1 4.87 14.64 1.83 3.63 1.74 6.14-1 8.8-.2.18-.35.42-.54.6a16.34 16.34 0 0 0-4.67 11 13 13 0 0 1-1.41 4.92 22.64 22.64 0 0 1-15.2 12.26 13.48 13.48 0 0 0-9.51 8.17 11.36 11.36 0 0 1-3.21 3.88 42.2 42.2 0 0 1-6 4.24c-5.23 3-10.37 6.32-15.87 8.77-6.3 2.8-13.3 2.44-20.08 2.78q-12.62.65-25.23 1.24l-9.76.43 1-1.9-12.38-.73c-2.15-.16-4.3-.7-6.42-.66-.8 0-1.6 1.1-2.4 1.72-4.42 0-8.9 2-13.25-.5-2.1-1.22-4.43-2.1-6.54-3.3-6.05-3.52-12.2-6.84-19.13-8.26a75.84 75.84 0 0 0-8.68-.88zm73.55-136.88l-1.4.33-2.67 2.8-2.18 2.57.64.43 1.47-3 2.7-2.83 1.33-.3.1-.46-.32.2zm20.25 130a12.74 12.74 0 0 0 2.72-1.25q14.42-11.6 28.73-23.3c.6-.5.76-1.55 1.12-2.35a7.52 7.52 0 0 0-2.52.88q-15 13-30 26.06l-.38.57.47-.07zm-58.06-149.6c3.4-1.23 6.73-2.87 10.25-3.6 6.14-1.27 14.95 2.7 17.77 7.3.44.73 1.8 1.67 2.22 1.47a3.84 3.84 0 0 0 1.89-2.42 6.72 6.72 0 0 0-3.28-7 72.81 72.81 0 0 0-9.87-5.05c-9.64-4.13-22.14 2.35-26.65 12.4a5.23 5.23 0 0 0 .16 2.12c.14.26 1.45.28 1.84-.05 1.96-1.64 3.84-3.45 5.67-5.2zm-5.46 65.74c-2.3.6-2.46 2.9-1.4 5.1 1.2 2.5 2.56 5.14 4.55 6.94a108.86 108.86 0 0 0 11.26 8.46c1.88 1.3 4 2.07 5.4-.83.1-.23.55-.36.86-.43 2.6-.64 3-1.18 1.54-3.55-3-4.94-6-9.92-9.43-14.57a34.62 34.62 0 0 0-7.07-6.64c-2.38-1.8-4.34-1.55-6.1.9-.65.9.2 2.87.38 4.63zm75.52 23.12c-.35-1.1-1-2.26-.76-2.54a19 19 0 0 1 3.58-2.76 13 13 0 0 1 2.42-.92c-.53-.76-.93-2-1.6-2.2-2.94-.66-6-1.55-8.94-1.32-6.92.53-12.65 4.14-17.9 8.43-.87.7-1.82 2.72-1.45 3.28 1.16 1.74 1.17 4.72 4.55 4.53 7.33-.4 13.83-3.1 20.08-6.5zm12.68-44.92a37.67 37.67 0 0 0-1.67-5.33c-1.4-2.8-5.48-4.42-7.8-3.32-6.2 2.93-8.08 12.83-3.4 17.8 2.6 2.74 6.93 3 8.76 0s2.87-6.32 4.1-9.14zM375.5 236.3l.2 1c9-3 17.26-.44 25.38 3.07a9 9 0 0 0 3.34 1.08 4.33 4.33 0 0 0 3.17-1.16c.4-.55-.2-2.12-.72-3a6.37 6.37 0 0 0-2-1.75c-6.66-4.68-14.1-5-21.63-3.27-2.77.56-5.22 2.62-7.73 4.03zm11.18 119.77l1-.68c-3.62-5.23-7.5-10.3-10.77-15.73s-6-11.3-9-17l-.88.5c3.8 12.63 11.4 22.97 19.65 32.9zM494.1 252.75c-2.08.5-3.7.5-4.8 1.25-.92.63-1.38 2.08-1.75 3.26-.1.4.7 1.53 1.1 1.54 4 .12 7.94.07 11.9.07l.1-1.1-9.42-2.54zM367 229.9c-3.13-1-7-2.22-10.88-3.3-.76-.2-1.72.3-2.6.46.58.67 1 1.68 1.76 1.94a21.69 21.69 0 0 0 11.71.9z" fill="#fbfbfc"/><path d="M425.33 598.05l25.53 21.1c16.23 13 33.7 24 53.27 31.27 5.7 2.1 11.9 3.1 18 3.85 11.2 1.4 22.5 1.72 33.47-1.4 5.6-1.6 10.93-4.3 16.2-6.9 3.2-1.56 4.92-4.47 5.9-8.06a195.59 195.59 0 0 0 6.89-42c.64-13.2 1-26.48.4-39.66-1-20-2.45-40-6.92-59.6-1-4.48-2.7-8.82-4.1-13.22-.67-2.06-1.88-3.47-4.32-3.12-.63 0-1.4-.34-1.87-.1-5.1 2.7-10.16 5.43-15.13 8.35-.68.4-.75 1.84-1.1 2.8l-10.08 7.82a15.34 15.34 0 0 1-1.74 1.29c-2.8 1.65-5.6 1.3-7.37-.86a5.2 5.2 0 0 1 .74-7.35A146 146 0 0 1 547 480.93a165.56 165.56 0 0 1 16.22-9.34c2.1-1.1 2.1-1.92.9-3.67l-27.14-40.1c-7.4-11.2-14.5-22.6-21.62-33.95-3.33-5.3-7.93-9.12-13.18-12.3l5.92-14.46 2.64 3.54L604 490.33a7.12 7.12 0 0 1 1.13 3.66l1.4 19.82a304.89 304.89 0 0 1-.34 52.51c-1.43 17.2-3.3 34.34-5.27 51.47a183 183 0 0 1-9.26 41.09 67.93 67.93 0 0 1-7.35 14.5c-7 10.45-17.24 15.78-29.57 16.5a123.23 123.23 0 0 1-22.22-.85c-10.43-1.3-19.22-6.9-27.94-12.32L477.1 659c-13.2-8.7-24.5-19.62-35.4-31l-21.66-22.74z" fill="#7d74fb"/><path d="M414.66 584.4c-6-5.5-11.84-11.27-18.16-16.4a59.5 59.5 0 0 0-12.72-7.72c-20.38-9.3-41.84-15.4-63.54-20.68-2.36-.57-3.2-1.47-3.26-3.93-.2-11 3.22-21 8.27-30.66.85-1.63 1.82-1.58 3.3-.93l22.8 9.75 5.45 2.88 1.07.6c1.34.43 3.44 1.62 3.9 1.16 1.5-1.5-.12-2.88-1.1-4.14a5.23 5.23 0 0 0-1.14-1.16c-5.4-3.78-10.64-7.88-16.33-11.2a36.4 36.4 0 0 0-16.41-5.2c1-2.66 1.87-5.37 3-8 .94-2.25 2.12-4.4 3.2-6.57 1.34.54 2.65 1.2 4 1.6 5.3 1.56 10.72 2.72 15.88 4.62 11.13 4.1 22.38 8 33.1 13 10.54 4.94 18.27 13.17 21.56 24.67a99.64 99.64 0 0 1 2.6 15c.34 2.7 1.25 4.66 3.85 5.67l.42 1.1 1.4-1c1.33-.67 3.13-1 3.9-2.06 3.08-4.25 5.84-8.72 6.25-14.2.15-1.93.5-3.85.76-5.78h.8c.2 4.46.6 8.92.52 13.37-.2 11.74-3.17 22.9-7.6 33.7-1.75 4.26-3.83 8.37-5.76 12.54z" fill="#fcfcfd"/><path d="M357.1 361a75.84 75.84 0 0 1 8.69.81c6.92 1.42 13.08 4.74 19.13 8.26 2.1 1.22 4.43 2.1 6.54 3.3 4.36 2.5 8.83.45 13.25.5a16.31 16.31 0 0 0 2.95 1.72c5.76 1.94 11.53 1.3 17.28-.15l9.76-.43q12.62-.6 25.23-1.24c6.78-.34 13.77 0 20.08-2.78 5.5-2.45 10.64-5.73 15.87-8.77a42.2 42.2 0 0 0 6-4.24 11.36 11.36 0 0 0 3.21-3.88 13.48 13.48 0 0 1 9.51-8.17 22.64 22.64 0 0 0 15.18-12.24 13 13 0 0 0 1.41-4.92 16.34 16.34 0 0 1 4.67-11c.2-.2.34-.43.54-.6 2.76-2.67 2.85-5.18 1-8.8-2.3-4.54-3.53-9.67-4.87-14.64a18.33 18.33 0 0 0-5.09-9.09c-4.88-4.56-8-10.3-10.3-16.47A85 85 0 0 0 499.51 240l-16.7-17.8c-.62-.64-1.5-1-2.2-1.6-5.53-4.8-11.53-5-18-2.15-1.3.56-3 .1-4.58.13 1.56-2.54 2.92-5.22 4.7-7.6 5.95-7.87 17.82-7 23 1.46 1.35 2.2 3.65 3.82 5.52 5.7l.83-.56a12.64 12.64 0 0 0-.19-2.84c-3.62-11.82-14.36-19.48-27.87-13.05a14.48 14.48 0 0 0-7.58 16.3l-2-1.36c-.4 3.28-.94 6.18-1.1 9.1a107.22 107.22 0 0 0 1.5 25.1 11.44 11.44 0 0 1 0 1.85l-2-3.82-.77.42c2.16 7.86 6.24 14.73 12.06 21.38h-9.66a5.75 5.75 0 0 0-.67-1.16c-9-9.38-9.3-20.82-7.74-32.68a83.4 83.4 0 0 1 2.08-11.48c1.1-4 2.83-7.82 4.27-11.72a10.23 10.23 0 0 0 .86-2.55c.7-8.38 5.16-13.7 13.1-16.2.5-.16 1-.38 2.17-.87-2.4-1.26-4.2-2.36-6.13-3.2l-12-5.08c-.34-.14-.78-.24-1-.5-2.16-3.3-5.14-2.1-8-1.5A182.34 182.34 0 0 1 404 188a51.88 51.88 0 0 1-7-.88c8.4-4 17.46-4.27 26.5-4.75a40.12 40.12 0 0 0 5.5-.19c1.15-.22 2.06-1.5 3.22-1.86 4.3-1.35 8.64-2.5 13-3.75 4 .24 8.05.73 11.92-.93l5.35.36.16.52-6.94 3.33a18 18 0 0 0-2.91 1.47 18.66 18.66 0 0 0-2.26 2.35 12.08 12.08 0 0 0 3.13.82c3.25 0 6.5-.26 10.2-.44-1.7 2.67-.37 3.26 1.7 4.05a54.56 54.56 0 0 1 10.06 4.9 125.91 125.91 0 0 1 14.21 10.47c2.35 2 3.68 5.24 5.52 7.88a7.38 7.38 0 0 0 1.53 1.28l.72 2.35.88 1.52.6 1.1v.05c5.47 10.43 10.57 21.1 16.56 31.22 3.32 5.64 8 10.54 12.28 15.55l21.23 24.1a26.65 26.65 0 0 1 2.3 3.64l-2.73 6.23a55.83 55.83 0 0 0-5.64.78c-.73.16-1.3 1-1.93 1.57.58.6 1.06 1.55 1.75 1.76a11.25 11.25 0 0 1 6.63 5.71c1.86 3.24 1.3 6.1-1.55 8.5a30.47 30.47 0 0 1-3.57 2.5c-2.47 1.54-4.65 3.1-4.1 6.64.15.93-.73 2.27-1.5 3.05a8.92 8.92 0 0 0-2.57 6.65c0 7.4-4.07 12.06-10.5 14.8a102.75 102.75 0 0 1-11.63 3.69c-2.9.83-4.8 2.52-5.3 5.52a6.45 6.45 0 0 1-5.36 5.69c-3.2.78-5.22 2.86-6.38 6.1-2 5.62-6.47 8.87-11.9 10.76a45.81 45.81 0 0 1-21.77 1.65 60.23 60.23 0 0 0-19.15.66c-1.78-.66-3.53-1.74-5.35-1.87a64.05 64.05 0 0 0-8.39.46c-13.9.83-27.86 1.57-41-4.3-5.2-2.3-9.95-5.54-15-8.24l-16.38-8.6a7.51 7.51 0 0 1-1.03-.83z" class="l"/><path d="M141.58 413.1a61.24 61.24 0 0 1-24.15-21c-1-1.48-2.28-2.75-3.4-4.16a3.11 3.11 0 0 1-.77-1.59c-.5-18.92-.58-37.92 4.57-56.26 6.46-23 21.66-38.1 44.44-45.47 3.57-1.15 4.2-1 5.83 2.37 1.8 3.8 3.2 7.8 4.84 11.9-1.7 1-3.3 1.82-4.78 2.82-9.2 6.26-15.67 14.74-20.06 24.88a52.19 52.19 0 0 0-2.11 5.3c-.2.63.27 1.46.44 2.2l2.38-.66c.14 0 .22-.28.32-.43 5.52-8.86 13.8-14.8 22-20.87A10.32 10.32 0 0 1 172 314c2 8.7-.4 16.6-5 23.77-3.73 5.77-8.18 11.06-12.18 16.65-4.4 6.13-8.68 12.34-9.72 20.1-.45 3.32-.63 6.67-1.17 10-1.58 9.5-3.02 18.94-2.35 28.6z" fill="#fbfbfc"/><path d="M457.5 173.9c-7.73-.15-15.53-.24-22.87 2.5-16.32 6.1-32.37 4.1-48-1.83a227.55 227.55 0 0 0-49.65-13c-6.46-.9-13-1.3-19.83-2l2.86-10.27a3 3 0 0 1 1.68-1.53l25.5-8.66-2.86 2.27L358 140c-.7 6.63.88 16.06 3.3 18.05-.57-6.46-1.4-12.7.8-18.72 10.17-2.46 20.5-2.25 30.84-2.06-2 9.82-1.77 23.15.72 28.32l.22-3 1.16-19.8c.16-1.9 1.22-3.75 1.86-5.63a93.85 93.85 0 0 1 28 5.63l-2.4 13.5a11.91 11.91 0 0 0 0 2.07l.67.1q2.28-7.1 4.57-14.18a18.91 18.91 0 0 1 2.06.65c10.14 4.43 17.7 11.95 24 20.8 1.65 2.4 2.48 5.43 3.7 8.16z" class="q"/><path d="M413.55 390.83c-7.06 1.56-11.82 5.68-13.15 12.86-1.48 8 1.7 14.18 8.6 18.53l-29.88 58.64a12.47 12.47 0 0 1-2.41 2.53c-.7-1.05-1.78-2-2.1-3.16q-17.55-63-35-126.13c-.12-.43-.17-.87-.33-1.74 2.86 2.4 5 4.6 6 8.06 4.34 14.3 8.8 28.6 13.67 42.72 1.8 5.18 4.8 9.95 7.47 14.8.6 1.1 2.24 2.55 3.12 2.38a5.08 5.08 0 0 0 2.95-3c5.1-13.7 14.33-23.13 28.25-27.82 1.1-.38 2.28-.57 3.4-.84l2.3.48z" class="m"/><path d="M443.1 501.6l-1.64 4.22-1 .07-20.4-82c12.58-5.88 15.28-12.28 11-25.7 1.1 1.1 2.28 2.15 3.3 3.34a50 50 0 0 1 11.48 22c.23 1.07.53 2.12.84 3.16.92 3.1 2.77 4.14 5.53 2.54a47.11 47.11 0 0 0 9.54-6.69c6.72-6.6 13.05-13.6 19.54-20.46l1.48-1.53a10 10 0 0 1-.43 2.07l-29.8 67.4c-3.6 8.3-6.68 16.85-9.67 25.4-.7 1.8.12 4.1.22 6.18zm102.1-293.97q1.53-10.12 3.07-20.22a4.54 4.54 0 0 1 1.19.58q8.34 7.9 16.64 15.8l6.9 6.8c-.67 7.7-2 15.2-5.33 22.26-3.57-1.52-7.2-2.9-10.7-4.6-8.6-4.16-17-8.6-24.55-14.55-4.8-3.78-10.2-6.8-15.3-10.16l1-6.26.47-1.6.2-1.05a63.55 63.55 0 0 0 3.1-27.2l7.27 2.88c.8 1.34 1.3 3.05 2.45 4 3.92 3.13 8.07 6 12.13 8.94.25 4.6.64 9.2.7 13.82.06 3.53-.3 7.06-.46 10.6q-1.18 5.4-2.38 10.78l.95.24z" class="q"/><path d="M517.1 203.55c5.12 3.36 10.5 6.38 15.3 10.16 7.57 5.95 16 10.4 24.55 14.55 3.5 1.7 7.12 3.07 10.7 4.6l-.4 2.58-1.18 2.73c-.13.2-.27.4-.38.6a7.3 7.3 0 0 0 .18.16l.3-.66 2.1-2.84a.88.88 0 0 1 .13-.52l.42-.43.52-.26c3 1.14 6 2.48 9.15 3.37l24.56 6.7-1.48 4.8-.5 1.88 1 .32 1.17-2.66 1-1.25 1.2-2.37 16.75 2.95 1.9.5.14-.85-2.6-.6-14.24-7.7.95-4.33h1.52c8.35 4.85 17.07 8.8 26.6 10.74 2.3.47 4.62.88 7.14 1.35v7.37l.5-.33 1.82-4.37 1.47-2.25c7.84.17 15.58-.37 22.87-3.65l.5 1a36.41 36.41 0 0 1-4 3.89c-2.4 1.75-5 3.23-7.5 4.83l-.44.3-.88.34-1.3.53-1.13.46-.13.14h-.18l-1.33.45-.13.14-.18-.05-1.3.4-.2.14h-.24l-1.17.34-1 .2-1.15.28-1.6.26-1.12.25-12 .4-1.1-.07-24-1.9-1.86-.28-.12.1-.13-.1c-3.1-.78-6.17-1.63-9.28-2.3-3.5-.76-7-1.38-10.5-2.05h-.23l-.18-.14-1.18-.45h-.25l-.2-.14-1.06-.46-.65-.3-.6-.33c-15.76-6.14-31.62-12-45.63-21.86-6-4.2-12.4-7.8-18.64-11.66l-.46-.3-2.26-1.26-.54-.35-.5-.26-.18-.6q1.45-4.92 2.93-9.83zM639 249.77l-.33 1 2.28.37c0-.22.1-.45.14-.67zm-99.58-23.54l.7.17.36-1.85-.5-.1c-.2.56-.4 1.2-.6 1.8zm80 24.65v.22h.8v-.22z" fill="#7d74fc"/><path d="M199.78 418.76l14.68-.47 51.5-.73c10.6-.2 8.8-.58 8.68-8.9q-1.12-75.2-2.45-150.38-.33-19.88-.77-39.76c-.1-4.58-.6-5-5.06-5l-22.07.1H241l6-7.63a3 3 0 0 1 1.95-.68c3.27-.12 6.53-.15 9.8-.2l4.18 1.66c1.8.77 2.5.13 2.33-1.72h9.33l3.9 218.13h-8.68q-34 .62-68.1 1.27a12.3 12.3 0 0 1-1.35-.12q-.3-2.77-.58-5.57z" class="k"/><path d="M414.66 584.4c1.93-4.17 4-8.28 5.75-12.53 4.44-10.8 7.4-22 7.6-33.7.08-4.45-.33-8.9-.52-13.37h-.8c-.26 1.93-.6 3.85-.76 5.78-.4 5.48-3.17 9.95-6.25 14.2-.78 1.07-2.58 1.4-3.9 2.06.87-2.13 1.83-4.22 2.55-6.4.2-.64-.3-1.5-.5-2.27v-.1c2.87-.73 2.84-3.57 3.6-5.54 3-7.6 3.37-15.54 2.25-23.58l-.46-3.5 15.06 5.15c.64.23 1 1.57 1.23 2.47a82.7 82.7 0 0 1-1.19 40.7c-3.12 11.35-7.4 22.37-11.24 33.5a49.49 49.49 0 0 1-2.75 5.54c-1.4-1.7-2.58-3-3.6-4.43-1.2-1.63-2.2-3.4-4.73-2.9-.37.08-.9-.7-1.36-1.1z" class="l"/><path d="M450.32 425.5c-2.6-15.53-11.28-26.75-22.68-36.66 4.55-.87 8.88-2.85 12.76-2.18 5.94 1 11-2.4 16.66-1.65 2.85.38 6 .32 8.44 1.53a25.8 25.8 0 0 0 20.83 1.13 9.35 9.35 0 0 1 1.47-.17c-11.54 13.7-22.33 27.55-37.48 38z" class="p"/><path d="M417.84 538.1v.1l-3.84 8.56c-2.6-1-3.5-3-3.85-5.67a99.64 99.64 0 0 0-2.6-15c-3.3-11.5-11-19.73-21.56-24.67-10.73-5-22-8.94-33.1-13-5.16-1.9-10.6-3.06-15.88-4.62-1.38-.4-2.7-1.07-4-1.6l2.13-4.4a27.37 27.37 0 0 0 3.51 1.33c10.77 2.44 22 3.68 32.23 7.5 15.87 5.9 32.4 10.55 46.62 20.53 2.84 2 3.4 3.8 3.56 6.6a72.78 72.78 0 0 1-3.21 24.37z" class="r"/><path d="M141.58 413.1c-.67-9.66.77-19.14 2.3-28.62.54-3.3.72-6.65 1.17-10 1-7.75 5.33-14 9.72-20.1 4-5.6 8.45-10.88 12.18-16.65 4.64-7.18 7.08-15.07 5-23.77a10.32 10.32 0 0 0-.89-1.91l3.7-2.53c5.1 8.3 10 16.35 12.38 25.72-11 7.48-21.65 15.5-30.2 25.86a53 53 0 0 0-7.2 11.41c-1.9 4.15-.26 8.64.74 12.83l8.4 33.25a42.51 42.51 0 0 1-17.29-5.5z" class="l"/><path d="M396.73 386.66c-13.35 5.5-21.88 14.95-27.1 28.13-9.46-16.67-15-34.3-19.8-52.86l2.25 1.25c3.4 1.92 6.65 4.14 10.2 5.7a79.76 79.76 0 0 1 17.83 10.79c3 2.4 7.08 3.54 10.73 5.1 1.73.75 3.6 1.17 5.87 1.9z" class="u"/><path d="M354.08 195l-4.78 1.27-5.55.5c-8.8-3.8-17.67-7.43-26.33-11.5-7.3-3.44-12.9-9-17.23-15.84-.9-1.43-1.6-3-2.64-5l2.6-.3a.46.46 0 0 0 0 .48c-.7 2.6 1.25 2.32 2.73 2.4a158.93 158.93 0 0 1 44.11 9c1.46.52 2.33 1 2.42 2.9a31.2 31.2 0 0 0 1.57 8 59.68 59.68 0 0 0 3.14 6.93z" class="m"/><path d="M492.53 165.85l2.16-.2 1.66-.23h14.15l1.67.24c5.63.3 6 .75 6 7.14l.1 1.12q-.15 7.35-.28 14.7c-1.5.65-1.2 1.43-.16 2.26l-.2 3.73-.18 1.06-.32 1.58-1 3.42-5.3-1.67-4.12-1.9-10.14-4.6-1.3-.27-1.4-.84-2.4-.83-.65-1.5q1.24-7.9 2.5-15.77c1.28-.92 1.3-1.83 0-2.74l-.75-3.3-.02-1.4z" fill="#fefefe"/><path d="M270.1 176.2l6.08-7.83 1.5 8.5c1.33-4.8 2.2-9.16 3.77-13.27a10.74 10.74 0 0 1 7.75-6.54l27.7-7.24-1.08 9.88-11.62 1c-2.26.2-4.5.48-6.76.78s-3.34 1.64-2.88 3.77a21.4 21.4 0 0 0 2.08 5.82 42.53 42.53 0 0 0 20.58 18.69c.87.38 1.74.8 2.83 1.3-3.47 1.65-41.35-9.8-49.95-14.86z" class="i"/><path d="M443.1 501.6c-.13-2.07-.93-4.38-.3-6.2 3-8.54 6.06-17.1 9.67-25.4l29.8-67.4a10 10 0 0 0 .43-2.07v.05l.23-.6c3-4.83 5.9-9.76 9.16-14.43 1.2-1.75 3.27-2.9 4.95-4.3l.6.45c-.25.7-.44 1.45-.75 2.14q-26.4 58.08-52.8 116.15a13.83 13.83 0 0 1-.96 1.61z" class="c"/><path d="M206.48 213.9l-28.3.33-5.44.1c-4.66.17-5.17.7-5.08 5.28q.28 15.24.6 30.48v2.9l-5-.6-.95-46.27h41.5c-.62 3.1.78 5.5 2.65 7.77z" class="i"/><path d="M199.78 418.76q.28 2.8.58 5.6H166.3c0-.42-.1-1.37-.12-2.34q-.57-22.58-1.16-45.16a38.45 38.45 0 0 0-.53-5.68 19.1 19.1 0 0 0-1.53-3.54l6.55-7.77.76.17v4.4l.8 46.54c.16 7.94.23 7.92 8 7.87l20.7-.1zM354.08 195v-1.2l-2.6-16 3.57 1.4 16.3 6.85c1.15.46 2.52.33 4.1.5-.6-3.48-3.08-4.62-5.27-5.62-5.5-2.54-11.08-5-16.8-7a193.41 193.41 0 0 0-46.18-9.94.25.25 0 0 0 0-.34c7 .1 14.08 0 21.1.35 4.4.24 8.75 1.26 13.12 1.93.7.8 1.28 2 2.15 2.33l28 8.9c7 2.1 14.1 4.1 20.28 8.32-4.1.68-8.22 1.25-12.28 2.1-3.43.72-6.8 1.8-10.2 2.67-2.54.65-5.1 1.2-7.66 1.8a7.44 7.44 0 0 0-.74.28z" class="n"/><g class="m"><path d="M230.25 317.83l-.1 20.33a2.84 2.84 0 0 1-1.94 1.92c-5.5.37-11 .48-16.56.75-2.13.1-3.23-.6-3.18-2.9l.35-17.93c0-.74 1-2.05 1.62-2.06 6.55-.15 13.02-.1 19.8-.1zm0-92.66l-.1 20.3a2.82 2.82 0 0 1-1.92 1.94c-5.6.37-11.22.5-16.83.75-2.1.1-3-.82-2.92-2.9l.33-17.93c0-.75 1-2.07 1.62-2.1 6.5-.14 13.02-.1 19.8-.1z"/><path d="M230.25 366.9l-.1 20.32a2.81 2.81 0 0 1-1.94 1.93c-5.5.37-11 .48-16.56.75-2.12.1-3.23-.6-3.18-2.9l.35-17.93c0-.74 1-2.06 1.62-2.07 6.55-.15 13.02-.1 19.8-.1zm0-98.12l-.1 20.33a2.8 2.8 0 0 1-1.95 1.91c-5.5.37-11 .5-16.56.75-2.13.1-3.22-.6-3.17-2.9l.35-17.93c0-.74 1-2.05 1.63-2.06 6.54-.15 13.02-.1 19.8-.1z"/></g><path d="M581.45 253.32l7 3.24c0 .36 0 .73.08 1.1L583.7 260c-15.8 6.6-31.67 3.8-47.53.24a10.21 10.21 0 0 0-2.11-.49c-5.45.07-8.8-3.15-11.6-7.26a19.08 19.08 0 0 0-1.58-1.79l1.3-.6.9.4 3.76.3 1.68.2 1.6.34 1.7.3 3.27.6 1 .2 1.7.3 1.57.26 2.24.3 1.58.24 2.24.3 2.1.26 2.8.3 1.58.22 3.33.3 2.12.26 3.88.28 2.66.25 3.3-.2 2.24.23c1.26.25 2.6 2 3.75-.2l2.78-.36 1-.26z" class="l"/><path d="M603.05 244.26l-24.56-6.7c-3.12-.9-6.1-2.23-9.15-3.37q3.5-9.63 7-19.25l2.4 1.72q13.14 10.5 26.25 21z" class="q"/><path d="M561.23 255.42l-3.88-.28-2.12-.26-3.33-.3-1.58-.22-2.8-.3-2.1-.26-2.24-.3-1.58-.24-2.24-.3-1.57-.26-1.7-.3-1-.2-3.27-.6-1.7-.3-1.6-.34-1.68-.2-3.76-.3-.9-.4-.7-1.54c3-4.9 4-10.34 4-16.8l38.4 20.8 3.27 2.9-3.3.2z" class="u"/><path d="M243.87 268.3h19.35l.54 12.36v7.88c-.05.7-.94 1.92-1.46 1.94-6 .13-12.1.08-18.4.08zm19.55 49.1l.28 20.67a2.27 2.27 0 0 1-1.61 1.51l-18.18.07V317.4zm-19.6-70.4v-22.26h19.3l.4 5.14.2 15c0 .72-1 2-1.6 2l-18.3.12zm-66.62-10v-9c0-1.8.87-2.37 2.5-2.4q6.95-.12 13.87-.34c1.6-.05 2.56.4 2.63 2.24l.83 17.1c.14 2.47-.8 3.72-3.4 3.74-4.26 0-8.52.2-12.77.38-2.05.1-3-.72-3-2.82-.07-3-.32-6-.5-9zm9.66 32h6.8c1.67-.05 2.48.56 2.55 2.33q.33 8.57.82 17.1c.14 2.54-1 3.64-3.5 3.66-4.26 0-8.5.24-12.77.36-1.5.05-2.8-.2-2.86-2.08l-.72-18.46c-.08-1.9.8-2.62 2.6-2.58 2.36.05 4.7 0 7.07 0zm-9.66 109.67v-9c0-1.63.75-2.28 2.3-2.3l14.13-.35c1.67-.05 2.5.54 2.57 2.32l.82 17.1c.14 2.53-.93 3.65-3.47 3.67-4.17.05-8.34.2-12.5.38-2.13.1-3.2-.62-3.24-2.9-.05-3-.3-6-.48-9z" class="p"/><path d="M237.22 141.4a18.35 18.35 0 0 0 5.29 10.05 26 26 0 0 0 17.58 8.28c5.86.35 11.76.07 17.63.07a6.68 6.68 0 0 1-.67 1.23l-9.47 12.3c-.9 1.23-1.73 1.72-3.1.8-6.74-4.4-13.67-8.55-20.18-13.28-4.1-3-6.47-7.64-7.8-12.5-.6-2.17-.1-4.65-.1-7zm255.3 24.45v1.43l-1.48-.53c1.54 7.88-.24 15.22-2.22 22.53-2.66-.77-5.53-1.14-7.94-2.38-4.77-2.45-9.28-5.4-13.9-8.12.5-.86 1.35-1.68 1.46-2.58.4-3.5 3.1-4.64 5.72-5.85a49.42 49.42 0 0 1 18.36-4.5z" class="i"/><path d="M457.5 173.9c-1.22-2.73-2.05-5.75-3.75-8.14-6.27-8.85-13.82-16.37-24-20.8a18.91 18.91 0 0 0-2.06-.65 2.18 2.18 0 0 1 .09-.52c2.78-5.5 3.35-5.75 8.86-3 11.88 6 21.1 14.67 26.52 27 .9 2.07 1.18 4.4 1.9 7.2z" class="c"/><path d="M491.45 190.6l2.4.83 1.4.84 1.3.26 14.26 6.5 5 3.16-2.05 9.08a7.82 7.82 0 0 1-1.12 1.91l-6-3.8-1.12-.65h.05l-1.72-1.07v.05c-1.85-2.6-4.2-4.3-7.52-4.4l-6.62-3.9a8.61 8.61 0 0 1-1.72-2.15l2.4-7.08z" class="r"/><path d="M605 237.7q-13.12-10.53-26.25-21c-.77-.62-1.6-1.15-2.4-1.72l1-8.64 2.2 2 24.38 22.13c2.47 2.2 1.32 4.72 1.08 7.23z" class="c"/><path d="M190.3 341.08c-.47-2.9-.55-5.6-1.37-8-1.64-4.86-3.7-9.57-5.84-15 4 0 7.65-.1 11.3.1.64 0 1.68 1.33 1.73 2.1.42 5.78.6 11.57.92 17.35.13 2.4-.94 3.55-3.34 3.5-1.35-.08-2.7-.06-3.4-.06z" class="i"/><path d="M213 205.8h29.54l-5.93 7.36a3.06 3.06 0 0 1-2 .51l-17.4.18c-1.48 0-2.37-.3-2.65-1.94l-1.57-6.1zm178.84-20.4c-6.17-4.22-13.24-6.2-20.28-8.32-9.38-2.8-18.7-5.82-28-8.9-.87-.28-1.44-1.53-2.15-2.33 9.9 2.6 19.9 4.84 29.66 7.84 10.62 3.27 20.82 8 32.1 8.86v.7z" class="d"/><path d="M573 210.6l-6.9-6.8q-8.3-7.92-16.64-15.8a4.54 4.54 0 0 0-1.19-.58l-.64-7a18.59 18.59 0 0 1 2.06 1.27l21.35 18.52c3 2.72 2.8 6.62 1.95 10.4z" class="c"/><path d="M502.9 212q15.62 9.82 31.2 19.66c1.42.9 2.72 2 4.08 3l-.23.68a7.35 7.35 0 0 1-1.71-.25q-14.46-5.8-28.9-11.65l-.85-2-3.6-9.44z" class="n"/><path d="M522.5 569.6a16.76 16.76 0 0 0-.24-3.19 145.6 145.6 0 0 1-4.72-45.28 15 15 0 0 1 .46-3.21c.1-.4.82-1 1.07-1a2 2 0 0 1 1.24 1.15 7.89 7.89 0 0 1 .11 2.7c-1.53 15.56 1.37 30.74 4 45.94.3 1.85.4 3.74.58 5.62l-2.5-2.06.55-.6-.56-.15z" class="g"/><path d="M467 178.78c4.62 2.73 9.13 5.67 13.9 8.12 2.4 1.24 5.28 1.6 7.94 2.38l-1.3 7.94-11.4-7.13c-1.6-1-2.83-2.63-5.24-1.54-.9.4-2.42-.54-3.52-1.4a25.47 25.47 0 0 0 3.92-.5c.75-.22 1.34-1 2-1.5-.64-.64-1.23-1.76-1.94-1.85-4.2-.55-8.4-.87-12.63-1.24a4.46 4.46 0 0 1-2-.42c1.73-.84 3.45-1.73 5.2-2.5.38-.17 1 .12 1.42.08 1.24-.12 2.44-.3 3.65-.45z" class="d"/><path d="M424.92 142.82a93.85 93.85 0 0 0-28-5.63c1.6-3.63 3.38-4.85 7.12-4.28 6.78 1 13.55 2.22 20.3 3.4a24.33 24.33 0 0 1 2.87.87l-2.3 5.65z" class="c"/><path d="M392.94 137.3c-10.33-.2-20.67-.4-30.84 2.06.5-3.05 2.1-4.67 5.36-4.93l24.76-2.32a23.26 23.26 0 0 1 3.18.17l-2.46 5.02z" class="d"/><path d="M156.75 397.94c-1.7-7.1-3.6-14.16-5-21.32a9.64 9.64 0 0 1 1.22-6c4.6-8.28 11.18-14.84 18.52-20.7.12-.1.34-.07.52-.1l-.5 2.18-5.93 7.2c-2.68 3.43-5.42 6.8-7.84 10.4-3.25 4.84-4.26 10.14-2.23 15.8a13.21 13.21 0 0 0-.08 2.08l1.33 10.45z" class="k"/><path d="M326.8 496.76a36.4 36.4 0 0 1 16.41 5.2c5.7 3.32 10.92 7.42 16.33 11.2a5.23 5.23 0 0 1 1.14 1.16c1 1.26 2.6 2.64 1.1 4.14-.45.46-2.55-.73-3.9-1.16l.3-2-.7-.23-.67 1.7-5.45-2.88v-1l3.2.63 1.64 1.6v-1c-.5-.25-1-.47-1.55-.7a3.93 3.93 0 0 0-4.37-2.12c-.3-.58-.46-1.43-.94-1.7l-17-9.44c-1.87-1-3.67-2.2-5.5-3.3z" class="g"/><path d="M509.36 226.6l11.82 3.87a2.29 2.29 0 0 1 1.28 1.66l-.25 8.6c-.17 2.12-.64 4.22-1 6.33a11.8 11.8 0 0 1-1.8-1.88c-2.07-3.4-4.14-6.8-6-10.3-1.5-2.7-2.72-5.5-4.05-8.27z" class="i"/><path d="M163.6,256.7l4.82.52V282l-4.82-1.27Z" class="n"/><path d="M567.18 255.46l-3.27-2.9c1.72-1.47-.16-1.6-.82-2l-15.72-9.47 1.3-.78q14.18 5.5 28.36 11l4.43 2-4.45 1.57-1 .26-2.78.36a29.28 29.28 0 0 0-2.92-.52c-.26 0-.56.46-.83.7z" class="e"/><path d="M509.36 226.6l4 8.27c1.9 3.5 4 6.9 6 10.3a11.8 11.8 0 0 0 1.8 1.88l.26 1.5.7 1.54-1.3.6-15.8-24.4.62-.73zM502.9 212l3.6 9.46.85 2c-2.75.1-4.9-.6-5.53-3.75a8.14 8.14 0 0 0-1.36-2.32l-.84-1.5-.65-1.22-2.1-2-1.8-5.9 7.24 4.78.62.55z" class="d"/><path d="M326.86 496.83l5.5 3.3 17 9.44c.48.27.64 1.12.94 1.7l-6.45-2.76-16.24-7.77c-2.5-1.2-2.6-1.6-.75-3.9zM156.4 317.7l14.82-14.55c2.7 3.84 2.67 3.8-.58 6.1-3.62 2.55-7.14 5.24-10.74 7.8a25.46 25.46 0 0 1-2.81 1.55z" class="e"/><path d="M543.74 183.2c-4.06-3-8.2-5.8-12.13-8.94-1.15-.9-1.65-2.62-2.45-4 4.14 2 8.4 3.8 12.4 6 2.58 1.52 1.96 4.48 2.2 6.94z" class="c"/><path d="M622.15 247.88l-16.75-2.95 2-5.7 14.24 7.7z" class="n"/><path d="M171.5 352l.5-2.2 1-.66 6.86-5.93a61.51 61.51 0 0 1 8.23-5.61c-.36 1.14-.35 2.74-1.13 3.36-4.8 3.8-9.77 7.4-14.7 11-.13.23-.5.08-.76.03zm-10.23 18.63v20.9c-2.4-7-6.4-13.98 0-20.9z" class="e"/><path d="M206.48 213.9c-1.87-2.26-3.27-4.67-2.6-7.77 5.45-.35 5.46-.35 6.73 4.85l.6 2.92z" class="d"/><path d="M487.53 197.22l1.3-7.94c2-7.3 3.76-14.65 2.22-22.53l1.48.53.75 3.3v2.74q-1.26 7.9-2.5 15.77l-.33 1.14-2.4 7.08a1 1 0 0 1-.52-.09z" class="f"/><path d="M358 140l-13.67 1.35 2.86-2.27 12.36-3L358 140z" class="d"/><path d="M156.75 397.94l-1.33-10.42a13.21 13.21 0 0 1 .08-2.08c2.24 7.75 4.43 15.5 4.68 23.62l-.78.18-1.54-6.9-.57-2.3v.05l-.58-2.22zm256.8-7.1l-7-1.67-2.3-.48c4.53.05 9.08-.17 13.57.28 2.27.23 4.4 1.7 6.6 2.6l-.27.85z" class="h"/><path d="M512.67 213.18a7.82 7.82 0 0 0 1.12-1.91l2.05-9.08.27-1.57 1-3.42 1 .1-1 6.26q-1.5 4.9-3 9.8a2.19 2.19 0 0 1-.39.29z" class="f"/><path d="M586.67 251.32l10.5 2.05 9.28 2.3a62.89 62.89 0 0 1-19.79-4.36z" class="c"/><path d="M263 199.82c1.7-1.14 14-1.38 15.47-.2.45.38.55 1.2.8 1.8-1.36-.54-2.7-1.46-4.1-1.53-4.05-.2-8.12-.08-12.18-.1zm16.56 2.9c.3.47.88.94.9 1.4v14c0 .3-.3.6-.47.9z" class="e"/><path d="M118.6 533.6l8.73 13.67z" class="h"/><path d="M545.2 207.63l-2.64 11-.95-.24q1.2-5.4 2.38-10.78z" class="f"/><path d="M548.74 298.3l2.73-6.23c1.18 1.54 2.36 3.3.93 5-.68.92-2.4.86-3.66 1.23zM280.2 234.34c.22.14.63.28.63.42l-.28 11q-.18-5.7-.35-11.42z" class="e"/><path d="M457.1 175.6c-3.87 1.66-7.9 1.17-11.92.93zm81.9 61.02c2.12-1 7 1.5 8.2 4.5zm-42.6-33.26c3.3.1 5.67 1.8 7.52 4.4zm-231.14 1.7c.17 1.85-.53 2.5-2.33 1.72l-4.18-1.66z" class="h"/><path d="M343.75 196.74l5.55-.5 1.88.9-2.5.8-4.9-.52zM336.6 198l-5 1.33.74-2z" class="e"/><path d="M350.3,511.28a3.93,3.93,0,0,1,4.37,2.12l-.08.08-3.2-.63Z" class="f"/><path d="M307.2 163.58a.25.25 0 0 1 0 .34l-7 .7a.46.46 0 0 1 0-.48z" class="h"/><path d="M603.2 248.6l-1.2 2.66-1-.32.5-1.88z" class="c"/><path d="M296.3 242.3l1.1-1.93 1.64 1.4z" class="e"/><path d="M568.27 235.4l-2.1 2.84-.1-.1 1.18-2.73z" class="c"/><path d="M296.1 238.2l-.84-2.85z" class="e"/><path d="M647.34 247.37l-1.47 2.25c.3-.88-.6-2.52 1.47-2.25z" class="c"/><path d="M517.85 190.83c-1.05-.83-1.33-1.6.16-2.26-.01.75-.1 1.5-.16 2.26zm-21.5-25.4l-1.66.23zm15.82.18l-1.67-.24z" class="i"/><path d="M280.7 257.23l1.45.6-1.33.58z" class="e"/><path d="M499.63 215.8l.84 1.5-1.37.26v-.05l.4-1.6z" class="g"/><path d="M609.82 234.86h-1.52c.3-1.15.3-1.15 1.52 0zm60.9 9.84l-.5-1 1.32-.68.4.46z" class="c"/><path d="M291.94 222.34l1.1-.54z" class="e"/><path d="M604.2 247.3l-1 1.25 1-1.25z" class="c"/><path d="M518.3 173.87l-.1-1.12.1 1.12z" class="i"/><path d="M632.58 257.86l1.1.07z" class="c"/><path d="M548.66 240.3l-1.3.78-.7-1.28z" class="h"/><path d="M297.4 190.8l-1.1-.37zm9.26 2.7l-1.1-.36zm2.17.58l-1.1-.34zm2.17.5l-1.12-.3z" class="e"/><g class="k"><path d="M157.3 400.05l.57 2.3z"/><path d="M156.73,397.88l.58,2.22Z"/></g><path d="M293.45 231.65l-.5-1.08zm20.85-36.5l-1.1-.2zm-23.03 31.6l-.4-1.1z" class="e"/><path d="M517.47 195.62l.18-1.06 1.14.07-.2 1.05z" class="f"/><path d="M318.12 195.64l-1.13-.17zm4.88.56l-1.1-.2zm-22.85 27.2l1.1.3zm-9.3.6l.52-1.1zm16.46-.3l.48-1.35zm-12.62-1.9l1.1.34zm33.22-25.02l-1.12-.16zm2.16 7.28l1.1-.23zm-3.28.48l1.1-.2zm-4.35.54l1.1-.16zm-5.45.5l1.12-.1z" class="e"/><path d="M503.9,207.7l1.72,1.07Z" class="h"/><path d="M606.7 255.68l1.86.28z" class="c"/><path d="M173,349.22l-1,.66Z" class="k"/><path d="M127.83 547.78l.62.9zm-9.75-15.28l.55 1.14zm387.5-323.76l1.12.65z" class="h"/><path d="M655.5 255.05l1.13-.46z" class="c"/><path d="M117.6 531.42l.5 1.1z" class="h"/><path d="M653.85 255.6l1.33-.45zm-68.77-4.85l1.18.45zm60.66 6.8l1.12-.25zm6.5-1.44l1.3-.4zm-1.6.45l1.17-.34z" class="c"/><path d="M583.56,250.16l1.06.46Z" class="k"/><path d="M656.62 254.6l1.3-.53z" class="c"/><path d="M538.7 234.56c.23.4.56.8.5.92s-.54.38-.83.55c-.15-.26-.44-.54-.4-.78s.4-.4.74-.7z" class="n"/><path d="M648.45,257l1.15-.28Z" class="c"/><path d="M482.9,400l-.23.6Z" class="q"/><path d="M568.82 234.46l-.42.43zM644.05 254l-.5.33zm14.75-.28l.44-.3z" class="c"/><path d="M517.65 215.82l.46.3zm-2.8-1.62l.54.35zm-1.08-.55a2.19 2.19 0 0 0 .39-.29l.18.6zm68.6 36l.6.33z" class="k"/><path d="M127.32,547.23l.57.6Z" class="h"/><path d="M502.93,212l-.62-.55Z" class="n"/><path d="M233.33 562a2.22 2.22 0 0 1 .16.36l-.16.16a1.47 1.47 0 0 1-.15-.34s.1-.18.15-.18z" fill="#fdfdfe"/><path d="M522.46 569.56l.56.15-.55.6zm7.6 6.64l-.52-.5.86.12a3.92 3.92 0 0 1-.34.37z" fill="#fdfdfd"/><g fill="#fdfdfe"><path d="M693.7 182.08l-.7 1.06-.4-.4 1-.78z"/><path d="M693.6 182l.26-.37-.16.48z"/></g><path d="M3.8 240.7v-37.84h31.46v37.84z" class="m"/><path d="M366 5.07l31.87-1 1 27.32-31.62 1.18L366 5.07z" class="p"/><path d="M87.18 51.8v27.24H56l-.88-27.24zm123.92 64.3l-28.6 1.2-1.86-24.72 29.3-1.54 1.17 25.06z" class="m"/><path d="M551.53 491.35c.34-1 .4-2.4 1.1-2.8 5-2.92 10-5.64 15.13-8.35.47-.25 1.24.05 1.87.1l-5.68 3.92-9.78 6.37a10.15 10.15 0 0 1-2.63.77z" class="g"/><path d="M491.07 324.23l-.55 1.73-.67.2-3.24-6.4-4.16 3.27-20.3 17.33c-8.64 7.07-18.48 12.2-29.52 13.7-13.85 1.87-27.56.5-40.1-6.56-7-3.95-12-9.8-15.8-16.85a334.21 334.21 0 0 1-21.2-47.32c-.2-.58-.47-1.14-1-2.46-1.16 2.38-1.94 4.3-3 6.06-.5.82-1.6 1.28-2.43 1.9a13.91 13.91 0 0 1-.52-2.86c.16-5.6 4.57-7.62 8.55-9.92 1.23-.7 2.43-.48 2.7 1.3a2.23 2.23 0 0 0 .35.86l13 18.72c2.47 3.47 5.14 6.8 7.72 10.2 4.7 6.2 11.2 8.35 18.68 8.1a77.67 77.67 0 0 0 10.58-.85c9.36-1.62 18.2 1 27.15 2.88 1.5.3 3 .45 4.54.67.43.55.8 1.5 1.32 1.6 2.8.5 5.7 1.37 8.45 1.1 7.65-.76 15.24-2.05 22.86-3.08 2.82-.4 5.65-.66 8.6-1-1.1-2.07-4.46-2.2-3.82-5.25l.65-.24c1.66.85 3.3 2.4 5 2.4 3.9.05 4.74 2.7 5.53 5.46a33.24 33.24 0 0 1 .66 5.32zm-45.48 21.25l.7-.4 10-5.2a3.26 3.26 0 0 0 1.42-1.54l5.77-15.7-3.55.78c-6.77 1-13.6 3-20-1.35l-5.95 27.7 10.52-3.8 1.13-.52zm-8.4-24.06c-11.8-5.3-23.56-4.92-34.7-2.48l-1.52 26.3a2.87 2.87 0 0 0 1.43 2.28c9.1 3.1 18.47 3.6 28 2.6 1.57-.16 2-.9 2.24-2.42l3-19.07c.4-2.4 1.03-4.77 1.56-7.2zm-38.73 24.7V319c-7.8-.06-15-1.7-20.2-8.38-.9 8.37-.56 15.7 4.44 22.37 4.18 5.53 8.9 10.15 15.76 13.13zm-28.13-45c-2.6 7.32 2.2 12.24 5.2 17.72-1.5-5.96.67-12.97-5.2-17.74z" class="t"/><path d="M454.48 270.67h9.66c-5.82-6.65-9.9-13.52-12.06-21.38l.77-.42 2 3.82a.6.6 0 0 0 .25.22.22.22 0 0 0 0 .38l2.55 4.5.63 1 .47.65a74.87 74.87 0 0 0 5.14 7.27 29.7 29.7 0 0 0 6 5c2.7 1.75 5.67 3.12 8.53 4.65l.52.6.5.7c.13.24.25.48.4.72 6.15 10.2 1.87 17.56-6.54 23.75l-2.15 1.54-1.53-.76a67.12 67.12 0 0 0 5.57-6.27c6.08-8.78 2.1-20.37-7.78-22.5-2.95-.63-6.1-.37-9.15-.52l-17.4 1c-14.3 1-27.35-2.35-38.9-11.05-2.4-1.8-4.8-3.6-7.32-5.2-5.5-3.5-11.08-2.9-16.5.16-4.92 2.77-6.13 7.5-6.38 12.74-.45 9.45 3.62 17.22 8.95 24.54l7.1 9.65a12 12 0 0 1 1.64 2.81 6.92 6.92 0 0 1 .05 2.28c-.8-.25-1.86-.25-2.33-.78-6.62-7.5-13-15.18-17.08-24.44a29.74 29.74 0 0 1-1.7-17.65c1.78-9.4 11.53-15.8 21.55-14.65a14.76 14.76 0 0 0 5.83-.55 45.91 45.91 0 0 0 18.55-10.93 10.3 10.3 0 0 1 1.47-1.05h.8c-2.35 2.6-4.36 5.67-7.13 7.7-3.83 2.78-8.23 4.77-12.26 7 16.85 12.26 35.8 18.66 57.27 15.5z" class="j"/><path d="M458.17 273.54c3.05.15 6.2-.1 9.15.52 9.87 2.13 13.86 13.72 7.78 22.5a67.12 67.12 0 0 1-5.57 6.27c-7.28 6.23-16 9.52-24.93 12.56.87-2.2 1.22-4.87 2.7-6.5a70 70 0 0 1 9.2-7.93c3.07-2.38 6.43-4.38 9.5-6.74 6.26-4.8 5.63-12.58-1.2-16.53-2.26-1.3-4.43-2.75-6.64-4.14z" class="l"/><path d="M387.37 270.26c-.2-1.76-1-3.72-.38-4.63 1.75-2.45 3.7-2.7 6.1-.9a34.62 34.62 0 0 1 7.07 6.64c3.43 4.65 6.42 9.63 9.43 14.57 1.44 2.37 1.07 2.9-1.54 3.55-.3.07-.75.2-.86.43-1.42 2.9-3.53 2.14-5.4.83a108.86 108.86 0 0 1-11.26-8.46c-2-1.8-3.35-4.45-4.55-6.94-1.05-2.2-.9-4.48 1.4-5.1zm75.53 23.12c-6.25 3.4-12.75 6.1-20.08 6.5-3.38.2-3.4-2.8-4.55-4.53-.37-.56.58-2.57 1.45-3.28 5.24-4.3 11-7.9 17.9-8.43 2.94-.23 6 .66 8.94 1.32.66.15 1.06 1.43 1.6 2.2a13 13 0 0 0-2.42.92 19 19 0 0 0-3.58 2.76c-.26.28.4 1.45.76 2.54zM456.45 218a14.48 14.48 0 0 1 7.55-16.33c13.5-6.43 24.25 1.23 27.87 13.05a12.64 12.64 0 0 1 .19 2.84l-.83.56c-1.87-1.9-4.17-3.5-5.52-5.7-5.2-8.42-17.06-9.33-23-1.46-1.8 2.37-3.15 5.05-4.7 7.6z" class="o"/><path d="M385.16 207.66c4.5-10.06 17-16.54 26.65-12.4a72.81 72.81 0 0 1 9.87 5.05 6.72 6.72 0 0 1 3.28 7 3.84 3.84 0 0 1-1.89 2.42c-.4.2-1.78-.74-2.22-1.47-2.82-4.62-11.63-8.58-17.77-7.3-3.52.72-6.84 2.36-10.25 3.6-.7-1.8-1.5-.63-2.33-.1l-5.34 3.24z" fill="#090909"/><path d="M475.57 248.46c-1.23 2.82-2.28 6.22-4.1 9.15s-6.16 2.73-8.76 0c-4.7-5-2.8-14.86 3.4-17.8 2.32-1.1 6.4.53 7.8 3.32a37.67 37.67 0 0 1 1.67 5.32z" class="o"/><path d="M479.22 311.3c-.64 3 2.72 3.18 3.82 5.25l-8.6 1c-7.62 1-15.2 2.32-22.86 3.08-2.76.28-5.65-.58-8.45-1.1-.52-.1-.9-1-1.32-1.6l1.67-1.2a25.38 25.38 0 0 0 2.9-.46l8.6-2.42a16.81 16.81 0 0 0 4 .41l18.1-2.9a17 17 0 0 1 2.15-.07z" class="c"/><path d="M375.5 236.3c2.55-1.4 5-3.47 7.7-4.08 7.52-1.7 15-1.4 21.63 3.27a6.37 6.37 0 0 1 2 1.75c.5.93 1.13 2.5.72 3a4.33 4.33 0 0 1-3.17 1.16 9 9 0 0 1-3.34-1.08c-8.12-3.5-16.37-6-25.38-3.07z" class="t"/><path d="M491.07 324.23a33.24 33.24 0 0 0-.69-5.31c-.8-2.75-1.64-5.4-5.53-5.46-1.67 0-3.32-1.56-5-2.4a16.76 16.76 0 0 0 2.27-2.44c1.58-2.6 3.93-3.42 6.72-2.18 4.05 1.8 7.74 7.94 7.46 12.4-.2 3.26-1.87 5-5.23 5.4z" class="s"/><path d="M386.67 356.07c-8.26-9.94-15.85-20.28-19.66-32.9l.88-.5c3 5.67 5.67 11.5 9 17s7.15 10.5 10.77 15.73z" class="f"/><path d="M424.93 375.46c-5.75 1.45-11.52 2.1-17.28.15a16.31 16.31 0 0 1-2.95-1.72c.8-.6 1.6-1.7 2.4-1.72 2.13 0 4.27.5 6.42.66l12.38.73z" class="j"/><path d="M451 354.18q15-13 30-26.05a7.52 7.52 0 0 1 2.52-.88c-.36.8-.5 1.85-1.12 2.35q-14.4 11.72-28.8 23.3a12.74 12.74 0 0 1-2.72 1.25z" class="f"/><path d="M478.4 276.33l-8.53-4.65a29.7 29.7 0 0 1-6-5 74.87 74.87 0 0 1-5.14-7.27c.26.06.62 0 .75.2 3.9 4.7 9.45 7.2 14.17 10.77 1.97 1.5 3.2 3.95 4.75 5.96z" class="d"/><path d="M455 313.84l-8.6 2.42a25.38 25.38 0 0 1-2.9.46l1.12-1.33c8.88-3 17.64-6.33 24.92-12.56l1.53.76zm39.1-61.1l-2.85 2.47 9.42 2.54-.1 1.1c-4 0-7.94.05-11.9-.07-.4 0-1.22-1.15-1.1-1.54.37-1.18.83-2.63 1.75-3.26 1.1-.75 2.7-.76 4.8-1.25zM367 229.9a21.69 21.69 0 0 1-11.71-.9c-.72-.26-1.18-1.27-1.76-1.94.87-.17 1.83-.67 2.6-.46 3.88 1.08 7.77 2.34 10.88 3.3z" class="g"/><g class="f"><path d="M385.16 207.66l5.34-3.25c.83-.52 1.63-1.7 2.33.1l-5.67 5.2c-.4.33-1.7.3-1.84.05a5.23 5.23 0 0 1-.16-2.12zM419 237.64q2.36-3.72 4.7-7.45l.9.64-5.58 6.8zm-2.48 2.76h-.8l3.3-2.74zm10.06-13.12l2.67-2.8v-.07l-2.7 2.84z"/><path d="M426.5 227.24l-1.47 3-.64-.43 2.18-2.57zm24.4 126.9l.17.54-.47.07.38-.57z"/></g><path d="M458.3,258.82l-.63-1Z" class="d"/><path d="M429.25 224.47l1.4-.33h-.08l-1.34.3z" class="f"/><g class="d"><path d="M479.36,277.58l-.5-.7Z"/><path d="M478.88 276.9l-.52-.6z"/></g><path d="M430.64 224.14l-.3-.3.32-.2c0 .16-.07.3-.1.47z" class="f"/><path d="M458.75,259.44l-.47-.65Z" class="d"/><path d="M455.12 253.3a.22.22 0 0 1 0-.38l.22.3z" class="l"/><path d="M414 546.77l3.87-8.56c.18.76.7 1.63.5 2.27-.72 2.17-1.68 4.26-2.55 6.4l-1.4 1zm-57.2-30.07l.67-1.7.7.23-.3 2z" class="f"/><path d="M496.88,212.57l2.1,2-1.38.33Z" class="o"/><path d="M497.6 214.92l1.38-.33.65 1.22-.15.12-1 .5z" class="g"/><path d="M498.48 216.44l1-.5-.4 1.6zm19-20.82l1.1.06-.47 1.6-1-.1c.15-.53.26-1.05.36-1.58z" class="o"/><path d="M639 249.77l2.1.7-.14.67-2.28-.37zm-16.85-1.9l-.56-.94 2.6.6-.14.85z" class="c"/><path d="M539.4 226.23l.58-1.8.5.1-.36 1.85z" class="k"/><path d="M619.4 250.88h.8v.22h-.8zm-53.22-12.63l-.3.66c-.06 0-.2-.14-.18-.16.1-.2.25-.4.38-.6z" class="c"/><path d="M300.18 164.6l7-.7a193.41 193.41 0 0 1 46.18 9.94c5.73 2 11.3 4.5 16.8 7 2.2 1 4.66 2.14 5.27 5.62-1.57-.18-2.94 0-4.1-.5l-16.3-6.85c-.9-.38-1.8-.7-3.57-1.4l2.6 16a59.68 59.68 0 0 1-3.14-6.93 31.2 31.2 0 0 1-1.57-8c-.1-1.92-1-2.38-2.42-2.9a158.93 158.93 0 0 0-44.07-9c-1.45.03-3.4.32-2.7-2.3z" class="j"/><path d="M506.7 197.14l-10.14-4.62zm9.4 3.48l-.27 1.57-5-3.16zm-22.8-27.3v-2.74c1.3.9 1.28 1.82 0 2.74zm-2.83 16.9l.33-1.14.65 1.5zm4.78 2.03l-1.4-.84z" class="i"/><path d="M569.42 255.7c.27-.25.57-.73.83-.7a29.28 29.28 0 0 1 2.92.52c-1.17 2.15-2.5.44-3.75.2zm-46.35-5.2l3.76.3zm38.16 4.92l2.66.25zm-15.8-1.62l2.1.26zm9.8 1.08l2.12.26zm-17.43-2.18l1.57.26zm3.8.56l1.58.24zm8.72 1.1l1.58.22zM528.5 251l1.6.34zm3.3.6l1.56.3zm3.26.62l1 .2zm40.94 2.92l1-.26z" class="d"/><path d="M354.67 513.4l1.55.7v1l-1.64-1.6z" class="f"/><path d="M437.2 321.42l-1.56 7.2-3 19.07c-.2 1.52-.67 2.26-2.24 2.42-9.5 1-18.87.5-28-2.6a2.87 2.87 0 0 1-1.43-2.28l1.52-26.3c11.15-2.44 22.9-2.8 34.7 2.48z" class="m"/><path d="M398.47 346.12c-6.85-3-11.58-7.6-15.76-13.17-5-6.67-5.35-14-4.44-22.37 5.25 6.67 12.4 8.32 20.2 8.38zm46.03-.12l-10.5 3.83 5.95-27.7c6.38 4.38 13.2 2.32 20 1.35l-13.66 21.65-.7.4z" class="u"/><path d="M446.24 345.12l13.66-21.65 3.55-.78-5.77 15.7a3.26 3.26 0 0 1-1.42 1.54c-3.26 1.78-6.68 3.47-10.02 5.2z" class="d"/><path d="M370.34 301.1c5.88 4.77 3.72 11.78 5.2 17.72-3-5.48-7.8-10.4-5.2-17.72z" class="e"/><path d="M444.5 346l1.13-.52zm1.1-.52l.7-.4z" class="d"/></svg>