<svg xmlns="http://www.w3.org/2000/svg" viewBox="0 0 739.97 511.97"><style><![CDATA[.b{fill:#c7c6d5}.c{fill:#7a70f2}.d{fill:#6d6d6d}.e{fill:#f9f9fa}.f{fill:#3f3f3f}.g{fill:#1b1b1b}.h{fill:#7c72f7}.i{fill:#0c0c0d}.j{fill:#0d0d10}.k{fill:#101010}.l{fill:#efeff1}.m{fill:#fbfbfc}.n{fill:#292929}.o{fill:#09090d}.p{fill:#fafafe}.q{fill:#fdfdfe}.r{fill:#f7f7f7}.s{fill:#7d74fd}]]></style><path d="M303.1.57V0h3.82v.55z" class="b"/><path d="M534.67 197.52c7.12-2.28 14.35-4 21.9-3.48a23.4 23.4 0 0 1 3.68.7l11.34 2.6a3.94 3.94 0 0 0 2.65-.38c1.27-.84 2.93-1.85 3.28-3.1s-.6-3.06-1.6-3.94c-6.82-6-9.43-14.72-6.67-23.34a37.14 37.14 0 0 1 8.75-15.24c8.85-8.87 19.7-10.1 31-6.65 10.86 3.3 17.14 11.13 18.9 22.45a35.62 35.62 0 0 1-.83 16.41c-2.6 8.33-8.3 12.46-16.7 13.32-4.8.5-8.7 2.45-11.18 6.75-1.54 2.66-1.35 4.43.87 6.6 1.75 1.7 3.67 3.24 5.47 4.9a107.87 107.87 0 0 1 17.58 20.71c2.9 4.5 4.65 10.3 11.25 11.5 1.46-1.44 3.08-3.26 4.93-4.82 6.5-5.5 14.07-7.27 22.4-6 2.34.36 4.7.65 6.1-1.68s.7-4.7-1-6.52a35.7 35.7 0 0 0-5.93-5.12 8.47 8.47 0 0 1-4.07-7.24c-.37-11.1 1.7-21.4 9.88-29.56 8.35-8.3 19.52-10.33 28.35-5.28a28.93 28.93 0 0 1 10.8 10.92c6.22 11 6.46 22.24.8 33.62-1.9 3.84-4.7 5.87-9.06 5.54a9 9 0 0 0-1.37 0 6.64 6.64 0 0 0-6 5.15c-.48 2.26.95 4.68 3.64 6.1l6.27 3.27c9.9 4.88 15.63 13.28 19.48 23.22 4.35 11.25 6.66 23 8.07 34.93 1 8.45 2.45 16.86 3.23 25.33.34 3.78-.36 7.68-.77 11.5-2.25 21.16-12.18 38.78-25.62 54.67-16.62 19.66-37 34.7-59 47.75-32.07 19-66.47 32.57-102 43.37a572.14 572.14 0 0 1-81.49 18.4c-15 2.24-30 4.1-45.13 5.08-19.55 1.27-39.18 2.2-58.76 2-36.22-.4-72.06-4.58-107.16-13.95-25.78-6.87-50.06-17.07-72.6-31.57-12.94-8.32-23.46-18.5-30.84-31.94-6.17-11.22-8.88-23.16-7-36a6.72 6.72 0 0 0 0-1.22 16.48 16.48 0 0 0-2.16-.17c-23.6 1-45.67-5.13-67-14.57-8.2-3.64-16.16-7.8-24.22-11.78a10.55 10.55 0 0 1-2.46-1.69c-9.47-8.8-18.3-18.17-24.85-29.46a55.07 55.07 0 0 1-7.21-29.78c.32-12.2 1.75-24.17 7.45-35.13 3.48-6.67 7.6-13 11.44-19.5 1.06-1.8 2.25-3.53 3.18-5.4 3.3-6.66.45-12.88-6.8-14.73a43.26 43.26 0 0 0-6.72-1c-11.35-1-17.68-6.8-20.16-18-2.42-10.94-.63-20.46 7.87-28.37 4.44-4.14 10-5.06 15.46-6 13.25-2.34 23 3.87 31.1 13.44a38 38 0 0 1 5.42 8.75c2.38 5.22 5.8 7.06 10.7 4.34a82.62 82.62 0 0 1 29.35-9.43 29.09 29.09 0 0 0-.32-3.13c-.36-1.78-.9-3.52-1.27-5.3-1.33-6.4-3-7.65-9.5-8.72-3.88-.64-8-1.36-11.33-3.3-7.22-4.24-10.65-11.3-11.3-19.5-1.37-17.1 8.38-29.4 22.47-36.18 3.9-1.87 8.24-2.47 12.4-.55 7.44 3.43 14.87 7.06 20.4 13.28 8 9 10.13 19.65 7 31.26a18.23 18.23 0 0 1-2.67 5c-1.24 1.9-.8 3.24 1.5 3.44a4 4 0 0 0 2.8-.62c8.13-7.36 17.95-10.26 28.58-11.32 1.34-.13 3.42-1.4 3.6-2.43a6.38 6.38 0 0 0-1.49-4.82 35.49 35.49 0 0 0-7.35-6c-5.83-3.56-7.22-9.08-7.1-15.22.15-7.42 1.5-14.48 7.7-19.62 6-4.94 12.58-7.1 20.24-5 1.92.5 3.78 1.25 5.68 1.86 7.72 2.5 11 8.23 12 15.9a38.53 38.53 0 0 1-6.27 27.2 10.33 10.33 0 0 0-1.26 3c-.57 2.13.3 4 2.45 4 9.3.1 17.4 3.83 25.4 8a3.19 3.19 0 0 0 2.5-.28c2.18-1.12 4.24-2.46 6.38-3.65L235 159a31.92 31.92 0 0 1-15-19.61c-2.72-9.54-2.28-18.85 2.68-27.7a16.06 16.06 0 0 1 12.5-8.59c7-.92 14-1.42 20.12 3.18 8 6 11.2 14 10.35 23.8-.28 3.16-.82 6.3-1.14 9.45-.46 4.57-2.76 8.14-5.73 11.47a11.23 11.23 0 0 0-2.51 4.42c-1.16 4.6.88 7.4 5.64 8.34l12 2.53 1.82 7.82.17 1.06.4 1.67.16 1.05.38 1.68.16 1 .38 1.67.15 1.06q1 5.46 2.06 10.92l.15 1.08q1.8 9.27 3.65 18.55c0 .37.08.73.13 1.1l.45 2.74.1 1.07.4 2.74.1 1.1.45 3.27.14 1.62.42 3.3.13 1.62.43 3.85.1 1.07.43 3.82.12 1.63.43 3.83c0 .36.07.72.1 1.08l.44 2.74.12 1.08.44 2.74.12 1.07.42 3.3c0 1.46.06 2.9.08 4.36.36 2.4.63 4.8 1.1 7.2.3 1.5.7 1.67 2.12 1.56l1 .34-.93 5.13c-.05.37-.1.73-.13 1.1l-.4 2.18-.12 1.07-.45 2.75-.1 1.08-.4 2.74-.13 1.62-.4 3.84c0 .72-.1 1.44-.13 2.16l-.45 3.83c0 .35 0 .7-.08 1.07l-.44 3.3c0 .54-.08 1.08-.13 1.62l-.42 3.28-.1 1.07-.43 3.85-.13 2.14-.54 1.66a10.46 10.46 0 0 1-1.77-.35 38.3 38.3 0 0 0-25.63-.54c-16.94 5.4-27.8 25.23-23.44 42.52 1.32 5.25 3.15 10.47 8.15 13.33 3.25 1.86 4.56 3.8 3.5 7.57-1 3.6-1.46 7.36-2 10.24l-18.9-1a58.86 58.86 0 0 0-1.13-6.4c-.76-2.8-.1-5 1.53-7.35a42.23 42.23 0 0 0 4.4-8.69c1-2.57.06-5.08-2-6.92a6.32 6.32 0 0 0-7.13-.94c-1 .42-1.9.93-3.13 1.55v-4c-.16-4.44-.18-8.9-.63-13.3-.12-1.2-1.57-2.26-2.4-3.4-1 1-2.46 1.8-3 3a45.64 45.64 0 0 0-1.86 6.69 22 22 0 0 0-1.63-3.92c-.66-1-1.9-2.35-2.66-2.22-1 .16-2.13 1.45-2.7 2.53a20.31 20.31 0 0 0-1.26 4.07c-1.42-1.05-2.7-2.76-4.1-2.85-2.23-.16-3 2.1-3.27 4-.42 2.77-.55 5.57-.9 8.35a12 12 0 0 1-.73 2.42c-.5 1.5-1.4 2.94-1.54 4.46-.5 5.4 2.4 9.93 4 14.82a19.87 19.87 0 0 1 .53 7.39 19.6 19.6 0 0 1-1.69 5.71c-.73 1.78-1.8 3.4-2.66 5.14-.94 1.93-1.8 3.9-2.7 5.87l.82.58c1.83-1 4.7-1.6 5.34-3.1 3.1-7.48 6.48-15 2.53-23.46-1.82-3.9-2.43-8.4-3.67-12.88 3.84.3 4 .1 4-2.93v-9.74h.86a36.1 36.1 0 0 0 1.54 5.71c.5 1.12 1.78 1.9 2.7 2.82.65-1.12 1.68-2.18 1.86-3.37.47-3 .55-6 .78-9l.7-.08a71.11 71.11 0 0 0 2.37 6.76c.5 1.07 1.67 1.8 2.54 2.7.62-1.1 1.55-2.14 1.78-3.32a66.41 66.41 0 0 0 .74-6.93 6.2 6.2 0 0 1 .62 3.45c-.2 3.72-.55 7.44-.6 11.15 0 1.22.4 3 1.22 3.5s2.37-.4 3.5-.9c1-.44 1.74-1.37 2.72-1.77a15.3 15.3 0 0 1 3.21-.58c.13 1.27.73 2.73.3 3.78-1 2.43-2.7 4.56-3.58 7a17.93 17.93 0 0 0-1.14 7c.17 2.93 1.12 5.8 1.76 8.85a7.85 7.85 0 0 1-.84.48l-16.08 7.24c-.7.33-1.07 1.42-1.6 2.17.82.55 1.62 1.5 2.47 1.56a8.44 8.44 0 0 0 3.64-.85c7.47-3.17 15-6.13 23.33-5.6 3.6.23 7.18.9 10.77 1.36 3 .4 4.36-.8 4.6-3.8.34-4.24.78-8.48 1.4-12.7.46-3.17.4-5.95-2.9-7.68a7.8 7.8 0 0 1-1.95-1.86c-6.57-7.44-7.93-16.32-6-25.56 3.8-18.52 18.27-28.4 37.08-25.9 2.43.32 4.87.54 7.3.84 2.13.27 3.06-.57 2.6-2.74l5 .75 2-14.8-.2 13c-.05 1.65-.22 3.08 1.38 4.35 5.55 4.38 8.8 10.26 10.54 17.05A52 52 0 0 1 307 356.5c-1 9.42-3 18.5-9.37 25.95-1.53 1.78-3.2 3.42-5 5.27a33.56 33.56 0 0 1 3 2.85L310.47 409c1.08 1.38 1.85 1.57 3.55.87a84.75 84.75 0 0 1 12.07-4.06c3.82-.93 7.8-1.2 12.12-1.8-.78-.93-1.42-1.55-1.9-2.27-2-3.1-4.52-6-5.9-9.4-7.3-17.64-4.7-34 7.4-48.66 8.1-9.86 19.5-12.88 31.38-12.95 7.45 0 14.3 3.82 19.9 9.13 19.9 18.93 16 54.38-7.52 68.73-.62.38-1.22.8-2.06 1.37l2.8 1.3 2.75 1.2c15.66 7.22 27.05 19.3 37.17 32.8.26.35.18 1 .26 1.46l-10.2-9.27c.2 6.35 8.7 16.2 13.44 15.38l-2.2-5.05 4.4-4.83c-1.2-2.54-2.48-4.2-2.73-6-.7-5.12-1-10.28-1.4-15.44-.92-11.7-1.46-23.4.08-35.08 2.82-21.26 9.28-41.6 16.14-61.8.66-1.94 1.4-3.85 2.1-5.78-2.4 2.53-6.23 3.1-7.82 6.6-1 2.08-4.07 1.68-5-.66-1.7-4.37-3.2-8.72-1.3-13.65a85.76 85.76 0 0 1 21.66-31.94c7.26-6.87 15.6-12.12 24.15-17.14a8.49 8.49 0 0 0 2.55-2l27.83-36.65c16.53-22.7 29-47.82 42.2-72.44 8.2-15.24 16.38-30.22 31.24-40.17.62-.42.8-1.5 1.2-2.25a5.88 5.88 0 0 0 1.67.82 22.74 22.74 0 0 0 3 0c-.36-1-.45-2.3-1.14-2.9-1.87-1.63-4-3-6-4.42l.1-4.17c3.07 2.47 6.2 4.86 9.14 7.48a5.84 5.84 0 0 1 1.23 3.19c.46 2.68-1 4.4-3.1 5.86-2.73 1.92-5.76 3.6-8 6a78 78 0 0 0-7.22 10.22c-11.94 18.45-23.22 37.26-33.7 56.62-11.6 21.42-25.9 41.17-40 61-7.5 10.52-15.05 21-25.6 28.76a4.52 4.52 0 0 0-1.44 1.61c-.58 1.3.06 1.67 1.3 1.3l.56.6c-3.32 4.76-6.83 9.4-9.9 14.32-1.66 2.65-2.45 5.83-3.82 8.68-3.07 6.36-6.86 12.43-9.3 19-11.77 31.77-17.46 64.82-19.76 98.5a15 15 0 0 0 .21 4.34c.2.8 1.15 1.4 1.76 2.1.68-.62 1.8-1.13 2-1.87a41 41 0 0 0 1-7A355.55 355.55 0 0 1 448.52 329c5.48-16.76 13.17-32 24.42-45.78 12.82-15.66 24.93-31.92 36.8-48.32 8.77-12.15 16.65-24.9 24.93-37.38zM430.92 321.2l3.43-7.14q5.22-11.2 10.4-22.4a19.86 19.86 0 0 0 .66-2l-.68-.52a10.73 10.73 0 0 0-2.65 1.92 29 29 0 0 0-4.07 6.38c-2.16 5.47-4 11.07-5.8 16.7a54 54 0 0 0-1.28 7.07zM277.48 193.6l.17.16-.2-.13a21.69 21.69 0 0 0-15.3-5.72c-10.77.3-18.42 5.86-23.78 14.9-6.35 10.7-6 23.75 1 32.52 5.22 6.55 12.08 11.15 19.26 15.28a3.21 3.21 0 0 0 1 .19l.47-.6c-.77-.68-1.48-1.44-2.3-2-5.22-3.75-10.72-7.2-14.2-12.85-6.37-10.34-6.3-20.72-.22-31.15 6-10.28 15.38-12.56 26.32-11.27l7.8.68zm-220 93l-.32-.3c.73-1.25 1.5-2.47 2.18-3.75 1-1.94 2.43-4.2.46-6s-4.25-.36-5.9 1c-3.65 3.12-7.24 6.33-10.6 9.76-2.35 2.4-4.28 5.23-6.46 7.94a74.31 74.31 0 0 0 .69-9.09c-.06-1.46-1.27-2.88-2-4.32-1.35.7-3.1 1.08-4 2.15A38.35 38.35 0 0 0 23 301.71c-.74 3.92-1.57 8 .5 11.7.6 1.07 2.37 1.48 3.6 2.2.46-1.16 1.26-2.3 1.32-3.47.17-3.7-.36-7.46.17-11.08a29.26 29.26 0 0 1 5.17-13.15c0 3.3-.33 6.55-.37 9.8 0 1.1.7 2.23 1.1 3.35a19.09 19.09 0 0 0 2.82-2l14.86-15.08.35.35c-1.6 2.73-3.28 5.4-4.75 8.2-.7 1.3-1.5 3.18.3 4.05 1 .46 2.72-.05 3.8-.7 2.6-1.57 5-3.46 7.54-5.22l.3.3c-1.12 2.47-2.4 4.9-3.3 7.44-.33.94.2 2.2.33 3.3a11.88 11.88 0 0 0 2.9-.63c2.77-1.37 5.47-2.9 8.2-4.36-2 7.54-6.16 14-6.34 21.85a2.62 2.62 0 0 0 1.87-1c3.1-6.05 6.23-12.08 9.06-18.24.84-1.82 1.1-4.2-.8-5.8s-4.06-1.07-6.07.1a10.31 10.31 0 0 1-1.25.44c.8-1.95 1.74-3.46 2-5.1.2-1.2 0-3-.78-3.67a5.17 5.17 0 0 0-3.92-.69c-1.47.28-2.77 1.3-4.13 2zm206.2 165.2a12.55 12.55 0 0 1-2.14-.32c-9.15-2.92-17.94-1-26.6 2.1-1.07.38-2.5 1.78-2.47 2.68s1.46 2 2.42 2.86c.57.52 1.63.57 2 1.15 1.26 1.75 2.32 3.66 3.52 5.62-2.44 2.6-2.33 4.92 1.1 7a25.8 25.8 0 0 0 7.7 3.3c5.22 1.07 10.55 1.7 15.87 2.26 3.72.38 6.6 1.7 8.25 5.22.88 1.9 1.74 3.8 2.76 5.6a26.22 26.22 0 0 0 2.32 3c.86-1.1 1.28-1.93 1.1-2.6a88.05 88.05 0 0 0-3.18-10.32 7.36 7.36 0 0 0-5.94-4.32l-16.6-2.75c-3.63-.58-7.12-1.5-10.05-4.13a19.65 19.65 0 0 1 5.83-.42c2.26.15 4.5.64 6.75.7.65 0 1.33-.9 2-1.4-.55-.6-1-1.45-1.67-1.78a19 19 0 0 0-2.91-.61l-10.42-3a115.62 115.62 0 0 1 13.24-.68c.74 0 1.47-.7 2.2-1.1a18.7 18.7 0 0 0-1.79-2 2.44 2.44 0 0 0-1.31-.26l-13.5-1.1c-.73-.06-1.45-.2-2.84-.4a33.35 33.35 0 0 1 18.07-1.83c3.7.8 7.37 1.88 11.1 2.62 1 .2 2.14-.42 3.2-.66a10.6 10.6 0 0 0-1.09-3 11.69 11.69 0 0 0-2.67-2l.77-.86c1 .35 2 .64 3 1.07q6.6 2.87 13.2 5.8c2.76 1.23 3.63.86 4.4-1.8s1.54-5.4 2.53-8c3.42-9 7.45-17.58 15.3-23.74.62-.48.57-1.82.83-2.75-1.07-.22-2.47-1-3.16-.54a26.33 26.33 0 0 0-5.45 4.42c-5.74 6.16-8.63 13.75-10.52 21.8-.5 2.2-1.15 4.4-1.78 6.78a13.32 13.32 0 0 0-1.77-1.12l-20.2-7.88a3.45 3.45 0 0 0-3.2 1.06c-.5.92-.16 2.5.22 3.67.28.87 1.2 1.55 1.83 2.32zM588.12 378l.15.16a12.7 12.7 0 0 1-1.23 2.34c-1.3 1.62-2.85 3.06-4.07 4.74-.48.65-.35 1.75-.5 2.64a23.9 23.9 0 0 0 2.4-.34c1-.23 2-.6 2.94-.9l.48.92c-2.27 2-4.66 3.94-6.73 6.16-.86.92-1.75 2.7-1.42 3.7 1.73 5.23 3.82 10.33 5.88 15.44a2 2 0 0 0 1.69.88c.45-.12.87-1 1-1.64a3.69 3.69 0 0 0-.49-1.79l-5.1-11.38c-.83-1.76-1-3.12.8-4.4s3.52-2.85 5.25-4.33c2.62-2.24 2.38-4.5-.6-6a24.67 24.67 0 0 0 2.9-4.56c.52-1.37.78-3.33.14-4.45-.4-.7-2.66-.4-4.1-.47a5.77 5.77 0 0 0-1.34.22l-.24-.23c.63-2.1 3.3-4.25.85-6.36s-4.6.28-6.6 1.5c-2.42 1.5-4.68 3.26-7.63 5.36a23.73 23.73 0 0 0 1.38-4.18 4.14 4.14 0 0 0-.63-2.94c-.36-.4-2-.2-2.67.26a83.26 83.26 0 0 0-9.87 7.15c-3.36 3.06-5.84 6.93-4.65 11.83a119.41 119.41 0 0 0 3.63 11.63c.73 2.1 1.84 4 3 6.5-11-5.54-22.2-6.65-33.82-6.2-.48-3.16-.75-6.06-1.42-8.86a4.48 4.48 0 0 1 1.41-4.82c5.48-5.33 8.88-11.75 9.05-19.5.2-9.1-3.7-16.2-10.36-22.43-11.63-10.9-30.5-10.78-41.9-3.95-16.48 9.88-23.23 28.63-16.8 46.73 1.88 5.3 4.23 10.52 10 13a1.9 1.9 0 0 1 .89 1.43c0 7 1.4 6.7-5.47 9.7-.66.3-1.35.53-2 .8a85.55 85.55 0 0 0-27.7 18.41 31.91 31.91 0 0 0-4.34 6.2c-.26.43.15 1.58.6 2 .3.28 1.42.07 1.88-.3a32.48 32.48 0 0 0 2.64-2.73c9.72-9.86 20.45-18.2 33.78-22.67 4.9-1.64 6.2-3.55 5.9-8.72a22.22 22.22 0 0 0-.86-5.34 10.32 10.32 0 0 0-2.11-3c-1.88-2.3-4.34-4.27-5.63-6.84-5.74-11.5-5.53-26.15 4-36.93 8-9 17.77-12.88 29.6-11.54 6.8.78 12.22 4.36 16.8 9.3 6.1 6.6 8.5 14.26 5.3 22.8-1.4 3.7-4.18 6.9-6.6 10.13-1.47 2-3.47 3.6-3.12 6.35.5 3.87 1.16 7.72 1.76 11.57.43 2.73 2.06 3.94 4.78 4.33l30.62 4.67a38.45 38.45 0 0 0 5.37 0c.86-3.37-.38-6.12-1.5-8.88-1.48-3.7-3.13-7.33-4.37-11.1-.6-1.8-1.1-4.14-.45-5.77 2.4-6 7.24-9.84 13-12.73-1.16 3.06-2.7 5.9-4.06 8.8-.3.6 0 1.5 0 2.24.77-.05 1.7.15 2.26-.2 1.66-1.1 3.1-2.5 4.76-3.6 2.66-1.8 5.42-3.46 8.13-5.17-1.8 2.57-3.66 5.1-5.36 7.74a10.6 10.6 0 0 0-.88 2.81 16.91 16.91 0 0 0 2.77-.77l8.77-4.38zm3.3-52.35a21.06 21.06 0 0 1 .76-2.24c2.4-5.13 2.3-10-1.37-14.55-.9-1.13-1.7-2.35-2.58-3.5-8.8-11.68-8.5-23.86-1.83-36.28 2.66-4.94 7-8 12.2-9.92 4.73-1.74 9.94-.75 13.82 1a31.19 31.19 0 0 1 17.23 18.38 94.18 94.18 0 0 0 4.14 10.07c3.56 7.15 10.26 9.67 17.6 6.93-1 2.13-1.93 4.67-3.7 6-4.4 3.27-9.16 6-13.86 8.87-1 .62-2.07 1.3-.66 1.92 1.6.7 1.26 1.7 1.3 2.8l.58 15.76c.1 1.78.2 3.76 2.68 4.7 0-4.1.15-7.9-.05-11.68s-.75-7.54-1.16-11.4a14.08 14.08 0 0 1 2-.81 21.62 21.62 0 0 0 11-6.76c4.9-5.3 6.2-11.54 4.47-18.44-.17-.67-1.15-1.14-1.76-1.7a11.53 11.53 0 0 0-1.35 1.71c-.33.62-.38 1.4-.66 2.06-1.5 3.4-3.47 4.2-6.7 2.27a13.09 13.09 0 0 1-4.49-4.19 61.16 61.16 0 0 1-4.43-9.62 32.6 32.6 0 0 0-7.9-12.58c-5.5-5.2-10.95-10.66-19.63-9a2.1 2.1 0 0 1-.8-.13 22.24 22.24 0 0 0-23.75 10.93 36.24 36.24 0 0 0-3.79 28.62c1.5 5.67 4.66 10.38 8.12 15 1.9 2.5 3.3 5.2 2.1 8.36-9.06-4.82-18.64-6.1-29.1-5.46a102.33 102.33 0 0 0-.1-10.51 6.16 6.16 0 0 1 1.5-5.14 24.9 24.9 0 0 0 5.91-19.47c-1.1-10-6.18-18-12.72-25.34-7.37-8.33-20.62-9.24-29.48-5.78-15.95 6.2-26.24 27.9-22.06 44.52 2.23 8.82 12 19 22.1 17.27a8.21 8.21 0 0 1 2 .15l-.53 8.7c-1.6-.15-3-.4-4.44-.42-5.43 0-11-.6-16.28.1-12.2 1.63-21.83 8.27-30.48 16.7a32.17 32.17 0 0 0-9.22 18.03 8.84 8.84 0 0 0 .26 2.42 8.19 8.19 0 0 0 2-1.74c.82-1.4 1.32-3 2.07-4.43 1.45-2.8 2.6-5.88 4.56-8.3 9.37-11.75 21.5-18.64 36.68-19.06 5.52-.15 11.08 1.15 16.64 1.56.8.06 2.4-1.1 2.44-1.78.3-4.12.35-8.27.25-12.4 0-1.7-1.32-2.4-3.06-2.37a18.17 18.17 0 0 1-4.84-.37 21.92 21.92 0 0 1-16.5-21.46c-.05-12.9 5.24-23.38 15.44-31.28 6.3-4.9 13-5.56 20-1.4.54.33 1.23 1 1.64.86 3-1 4.4 1.38 5.83 2.95a59.52 59.52 0 0 1 7.47 9.68c6 10.27 8.12 20.95 1.88 32-.8 1.42-2.45 2.7-2.53 4.1-.33 5.85-.35 11.73-.2 17.6 0 1.57 1.38 1.86 2.83.82a5.27 5.27 0 0 1 3.06-1.3l25.86 2.94a59 59 0 0 0-3.34 5.85c-.48 1.12-.85 2.74-.36 3.67.34.65 2.25.85 3.37.67 6.77-1.1 12.34-4.6 17.28-9.18a7.17 7.17 0 0 0 1.25-2zM207.08 277l.4-.5c1.16.4 2.3.87 3.5 1.24 2.5.77 4.13-.73 3.45-3.3a15.78 15.78 0 0 0-1.5-3.49c-2-3.57-4.14-7-6-10.7a13.16 13.16 0 0 1-1.36-5.12c-.48-8.42-.46-16.88-1.24-25.27-.83-9-4-17.3-10.7-23.83-8-7.82-18.24-9.7-28.46-5.3a4.81 4.81 0 0 1-2.81 0c-4.4-1.08-8.82-2.54-13.36-1.13-11.4 3.56-18.4 11.55-21.92 22.7-2.57 8.14-.9 16.3.2 24.5 1.2 8.83.77 14.15-8.7 20.47-1.58 1.05-3.36 1.82-4.9 2.92a3 3 0 0 0-1.17 2.17c0 .5 1.1 1.3 1.74 1.38 2.5.23 5.1.64 7.5.2 3.77-.7 7.42-2 11.43-3.16a36.69 36.69 0 0 0-.93 5.63c0 .95.82 1.92 1.28 2.88a28.67 28.67 0 0 0 3-2.31c-1.24-2 .8-3.33 1-5a37.29 37.29 0 0 0 .41-4.57 2.34 2.34 0 0 0-1.43-1.6c-.38-.14-1.17.57-1.6 1.06s-.64 1.6-1.15 1.74c-4.53 1.4-9.1 2.66-13.66 3.95l-.3-.8a20.11 20.11 0 0 0 9.77-12.51c1.62-6.15.63-12.26 0-18.38-.75-7.7-.77-15.33 3.15-22.28 6.4-11.4 15.63-18.86 30.5-13.3 1.12.42 2.7-.27 4-.57 3.14-.68 6.33-2.26 9.37-2a23.1 23.1 0 0 1 18 10.91 38.93 38.93 0 0 1 6 16.76c.93 7.82 1.52 15.7 2.2 23.55a3 3 0 0 1-.57 2.18 4.07 4.07 0 0 0-1 5.18 73 73 0 0 0 3.86 7.45c1 1.65 2.2 3.14 3.33 4.7a17 17 0 0 1-4-1.17c-.84-.25-2.35-.34-2.63.1a3.56 3.56 0 0 0-.22 3c.58 1.16 1.82 2 2.66 3a6.07 6.07 0 0 1 1.38 2.43 7.49 7.49 0 0 0 7.11 5.87zm475 59a1.85 1.85 0 0 1-.74 0 58.25 58.25 0 0 0-20.59-4.54c-6.65-.2-13.33-.1-19 4.1a13.33 13.33 0 0 0-3.26 3.88 2.53 2.53 0 0 0 .46 2.39c.4.38 1.65.17 2.35-.15 1.8-.83 3.44-2.05 5.28-2.8 12.56-5.07 24.93-2.68 37.2 1.2 2.6.8 3.76.42 3.63-2.25-.1-2.44-.5-4.87-.83-7.3-.94-7.18-2.3-14.33-.94-21.63.26-1.4-.3-2.62-1.93-3.66-3-1.9-5.5-4.48-8.23-6.77l.52-.83a15.15 15.15 0 0 0 3.4 1.15 4.89 4.89 0 0 0 3.23-.68c.56-.43.36-1.83.5-2.78 2.77-.82 2.77-.82 4.9-5.18.68 1.17 1.22 3.4 2.38 3.8s3.07-.9 4.5-1.4a26.38 26.38 0 0 0 .06 4.69 14.72 14.72 0 0 0 1.72 5.54 57.06 57.06 0 0 1 7.61 16.78 103.55 103.55 0 0 0 3.12 9.56c.32.85 1.43 1.4 2.17 2.08.44-.87 1.24-1.73 1.27-2.62.35-10.86-3.67-20.16-10.27-28.56a5.8 5.8 0 0 1-.94-3.61c.08-2.15.82-4.3.83-6.43 0-3.3-3-4.7-5.73-2.87-.7.46-1.34 1-2.24 1.66-.23-2.55-.15-4.68-.7-6.65-.33-1.2-1.52-2.83-2.5-3s-2.6 1-3.33 2.06c-1.07 1.48-1.6 3.35-2.56 5.44a37.19 37.19 0 0 0-2-5.67 4.27 4.27 0 0 0-2.76-2c-.53-.07-1.7 1.46-1.87 2.4a28.89 28.89 0 0 0-.33 6c.06 2.56.3 5.12.5 8a28.39 28.39 0 0 0-5.26-1.68c-1.45-.17-3.4-.13-4.38.7-1.62 1.4-.44 3.18.65 4.58 3.88 5 8.26 9.4 14.1 11.74zM464.5 468.74a8.57 8.57 0 0 0 2.48-1.3c.92-1.07 2.22-2.37 2.2-3.54 0-.9-1.8-1.84-2.9-2.58a4.61 4.61 0 0 0-2.09-.45l-10.7-.72a18.58 18.58 0 0 0 2.62-2.06 25.47 25.47 0 0 0 2-3c-1.12-.6-2.23-1.7-3.38-1.75a122.85 122.85 0 0 0-14.36 0c-4.25.32-8.65 1.26-11.66 4.56a35.68 35.68 0 0 0-8.79 15.73c-.15.63.32 1.42.5 2.14.57-.45 1.34-.78 1.66-1.36 1.68-3 3.3-6 4.82-9.1 2.3-4.65 6-7 11.1-7.6 4.66-.56 9.3-1.34 13.93-2a77.48 77.48 0 0 1-9.7 5.76c-1.38.74-2.95 1.66-2.23 3.53s2.4 1.4 4 1a70.91 70.91 0 0 1 8.25-1.67c3.77-.43 7.58-.53 11.37-.78l.1.95-11.17 2.8c-1.64.4-3.56.86-3.06 3 .45 1.9 2.36 1.46 3.92 1.37l13.15-.65.1.68-2.2.65a28.45 28.45 0 0 0-4.88 1.6c-.78.4-1.12 1.63-1.66 2.48.8.46 1.58 1.22 2.42 1.3a59.77 59.77 0 0 0 6 .08h4v-.76l-1.33-.72a6.62 6.62 0 0 0 2.21-.8c1-.92 2.23-2 2.4-3.12.1-.68-1.52-2-2.6-2.38a48.39 48.39 0 0 0-6.51-1.31zM593.6 244.3l-.22 1.4-5.55.87-20.7 2.84a13.11 13.11 0 0 0-3 1.25l.32.82c8.94.1 17.9.46 26.65-2.17 5.7-1.72 6.17-3.44 2.1-7.4a22.67 22.67 0 0 0 4.6-1.1 4 4 0 0 0 2.11-2.5c.12-.74-.93-1.8-1.67-2.5a14.6 14.6 0 0 0-2.87-1.6 37.44 37.44 0 0 0 5.64-.4c.9-.2 2.13-1.12 2.25-1.87s-.9-1.76-1.6-2.45a4 4 0 0 0-2-.85c-4.67-1-9.34-2-14-2.77-3.05-.5-6.17-.58-9.55-.87a25.52 25.52 0 0 0 2.68-3.15 29.48 29.48 0 0 0 3.35-6.44c.84-2.84-1.08-4.57-3.82-3.53-7.3 2.78-13.54 7.3-19.3 12.5-.48.43-.44 1.42-.64 2.16.83.14 1.82.63 2.45.35a24.36 24.36 0 0 0 4.11-2.61l9.17-6.82a43.26 43.26 0 0 1 4.54-2.49l.7.78c-2 2.6-4.16 5.14-6.07 7.83a15.34 15.34 0 0 0-1.36 3.58 18 18 0 0 0 3.24.8c4.6.3 9.24.34 13.84.74 3 .27 6.06 1 9.1 1.48a5.22 5.22 0 0 1-2.54.56c-3.33.3-6.67.56-10 1.07-.77.12-1.4 1.15-2.08 1.76a8.23 8.23 0 0 0 2.15 1.56 30.51 30.51 0 0 0 3.75.56c2.18.42 4.34.9 6.5 1.38l-.16.7c-3.9 0-7.8-.1-11.7.07-.83 0-1.62.95-2.44 1.46.77.6 1.5 1.27 2.3 1.8.35.23.9.12 1.3.26l8.4 2.97zm-335.18 20.5c-2 0-3.66-.32-5.18 0A133 133 0 0 0 238.6 269c-17.2 6.4-28 18.56-31.9 36.63a37.47 37.47 0 0 0-.6 6.45c0 .48.56 1 .86 1.5.45-.36 1.1-.63 1.32-1.1a23.74 23.74 0 0 0 1.1-3.34c2.8-9.78 7-18.82 15.07-25.35 6.9-5.62 14.54-10.18 23.42-12.23a105.27 105.27 0 0 0 9.42-2.66c1-.33 2.5-1.28 2.54-2 .25-4.17.12-8.35.12-12.53h-.28l-1.23 10.43zM132 280.38c-7.43.15-14.63 1.32-21.08 5.3-12.55 7.75-20.5 19-24.62 33a10.69 10.69 0 0 0-.39 4.27c.1.76 1.15 1.4 1.78 2.07.62-.66 1.5-1.22 1.8-2 .8-2.12 1.14-4.4 2-6.48 7.15-17.57 18.12-30.82 38.35-33.22 3.7-.43 7.55-1.2 11.05 1.2a3.45 3.45 0 0 0 2.84.46 2.66 2.66 0 0 0 .7-2.55 3.83 3.83 0 0 0-2.52-2c-3.33-.2-6.64-.06-9.9-.06zm340.65 198.17c-2.4.32-4.68.8-7 .9l-21.5.52c-2.64.06-4.68 1.3-5.38 3.8a97.49 97.49 0 0 0-2.19 10.59c-.13.77.6 1.67.92 2.52.8-.6 2-1 2.3-1.83a62.53 62.53 0 0 0 2.14-7.27c.95-3.7 1.12-3.92 5-3.87s7.64.5 11.42.22a66.51 66.51 0 0 0 11.16-2c1.48-.4 3.3-1.13 3.13-3.58zM605.53 350.9l1.3-.1c.32-1.33 1-2.7.87-4a69.71 69.71 0 0 0-1.56-7.18c-.78-3.63-1.45-7.28-2.38-10.87-.23-.9-1.26-1.58-1.92-2.36-.38 1-1.18 2-1.07 3 .56 4.76 1.17 9.53 2.12 14.23.5 2.48 1.74 4.84 2.65 7.27z" class="s"/><path d="M275.75 174l-1.82-7.82c-1.17-7.72-2.07-15.5-3.58-23.15-1.92-9.73-1-19.4.16-29l6.6-50.5 1.27-9.5c-6.63-4.2-4.9-10.82-.67-13.63.28-6.08.06-11.74.9-17.23 1.12-7.2 6.3-11.34 13.45-12.1a3.4 3.4 0 0 0 2.14-1.78c1.95-4 4.47-7.26 8.88-8.68h3.8l5.82 3.12c.74-.47 1.62-1.1 2.57-1.6A7.87 7.87 0 0 1 326.19 5c2.94 4.73 3.95 9.74.8 14.9 2.8 3 3.2 6.63 2.55 10.47a22 22 0 0 1-.74 3.45l-6.67 19.25c-2.1 5.83-4.54 11.53-6.4 17.42-2.75 8.68-2.4 17.75-3 26.7-1.2 17.2 3.28 33.32 8.85 49.23.6 1.7 3 2.77 4.58 4.1 3.43 2.85 6.47 2 9.4-.93s6-5.74 9-8.53c-6.55-13.5-13.17-26.58-14.35-41.5-1.16-14.68.6-29 6.3-42.7-2.37-1-6.2.93-6.82-3.73l5.15 1.3-2-2.74c-3.72-5.22-1.8-14.06 3.76-17.2a4 4 0 0 1 1.32-.22l1.05.07c-1.3 3.8-2.32 7.63-1.42 12.35 3-4.55 2.9-10.8 9.45-12.57a7.83 7.83 0 0 1-.58 1.92 15.47 15.47 0 0 0-2.79 13.36 18.73 18.73 0 0 0 4.32 8.56c10.52 12.24 20.82 24.7 30.67 37.48 2.77 3.6 5.05 6.5 9.9 6.1a6 6 0 0 1 1.83.49l1.33.2-1.22-1.37a27.91 27.91 0 0 1-2.35-3.81c-.32-.75 0-1.78 0-2.68.83.13 1.87 0 2.47.43 2.57 1.92 5 4 7.5 6l-1.3 1.26-2.9-2.1-.36-.4-2.43-2-.52.56 2.3 2.18.48.26c.74.88 1.5 1.73 2.2 2.65 1 1.3 1.92 2.66 2.88 4-1.3-.62-2.57-1.56-4-1.8-4.5-.78-9-1.3-13.56-1.92l-3.07.44-8 3.74-1.13-.22 5.87-5.34 4-1-6.12-8.22Q360.6 77.85 348.7 62.8l-.47-.56h.05l-1.06-.67h.06l-1.15-1.6-.62-1-3-2.8-2.46-1.7-.37.4.46 1.2-.05 1.18c-.37.62-1.07 1.26-1.05 1.87.1 4.16.37 8.32.58 12.48l5.95 30.4c.1.63.22 1.25.28 1.88l1.85 20c.1 1.2-.52 2.44-.8 3.66h-1a14.19 14.19 0 0 1-1-2.79c-.7-5.58-1.13-11.2-2-16.76l-6.2-39.77v-2.65l-.34-.1-.55 2.2a99 99 0 0 0-3 28.07c.4 15.4 7.65 28.66 13.37 42.55a25.4 25.4 0 0 1 2.49-2.89 7.27 7.27 0 0 1 2.31-.89c-.06.8.16 1.76-.23 2.33a68.82 68.82 0 0 1-14.55 16.37c-.52.4-1 .9-1.52 1.38l10.63 6.26a19.3 19.3 0 0 0-.75-1.8c-2.52-4.25-1.75-7.65 2.52-10.06a24.88 24.88 0 0 1 4.6-1.55c1.27-.42 3.2.42 3.58-1.83a1.72 1.72 0 0 1 1.21-.14c1.5.55 3 1.2 4.43 1.83l-.2.4-2.87.3 2.27 1.55 18.24 10a49 49 0 0 1-8.77-1.77c-1.2-.32-2.26-.55-1.94 1.3-1.36 5.07-5.24 7.6-10.38 6.62-2.2-.42-4.36-1.1-6.54-1.66l-2.1-1.08-.36.63 1.67 1.2.42 2.58-2.43 1.08a38.14 38.14 0 0 0 3.85 17c1.73-.4 3.26-.76 4.8-1a5.19 5.19 0 0 1 .45 1.09l-2.27 1.43c-3.1 2-4.4 1.66-5.83-1.66-.88-2.05-1.56-4.2-2.33-6.3l-.24-1.17-.33-1.56-.26-1.7-.3-2.66v-3.7h-3.7l-3.2-.27-2.8-.27-3.2-.32-3.37-.53-2.16.77-6.12-1.9c.3-1.3-.08-2.07-1.55-1.94a20.66 20.66 0 0 1-3.09-3.56c-.45-.83-.05-2.12 0-3.2l3.48-.66-3.62-.87-7.05-2.62.1-1 5.87 1.5 6 1.7c-1.35-4.67-3.57-8.24-8.17-9.76a5.23 5.23 0 0 1 1.82-.69 8.56 8.56 0 0 1 2.33.77l-1.17-4.1c-1.95-6.9-4.82-13.67-5.66-20.7A151.69 151.69 0 0 1 311.61 77c.92-5.4 3-10.6 4.57-15.9l.58-1.7v.06l.6-3.43-6.53-4.82c-3.2-1.26-6.3-2.86-9.58-3.72-5.9-1.5-11.9-2.5-17.8-3.85-1.74-.38-3.47-.9-4.6 1s-.7 3.58.6 5.3c.8 1 1.74 2.35 1.75 3.56a95.64 95.64 0 0 1-.48 12.51l-6.25 50.83c-.87 7.3-1.75 14.63-.4 22q5.4 29.57 10.72 59.17a650 650 0 0 1 8.2 68.16c.05.6.6 1.18.9 1.77l-.4 2.1-1.27 1.6c-1.4.1-1.82-.06-2.12-1.56-.47-2.38-.74-4.8-1.1-7.2 0-1.45 0-2.9-.08-4.36l-.42-3.3-.12-1.07-.44-2.74-.12-1.08-.44-2.74c0-.36-.06-.72-.1-1.08l-.43-3.83-.12-1.63-.43-3.82-.1-1.07-.43-3.85-.13-1.62-.42-3.3-.14-1.62-.45-3.27c0-.37-.07-.73-.1-1.1l-.4-2.74-.1-1.07-.45-2.74-.13-1.1q-1.83-9.27-3.65-18.55l-.15-1.08q-1-5.46-2.06-10.92l-.15-1.06-.38-1.67-.16-1-.38-1.68-.16-1.05-.4-1.67zM321.07 5.4l-3.73-.56-3.3 1.17 1.14 2.25.42.47h-.08v9.06l2.15-.28 5.2 1.22c2.92-3.6 2.74-8.14-.52-12.26zm-20.2 26.26v-3.1h-.46v3.1l-1.7 3.2c-3.4.82-4.36-1.6-5.5-4-1-2.12-1-6.22.72-7 1.45-.7 3.43-.3 5.33-.37.36-3.17-1.12-7-3.83-8.2a7.76 7.76 0 0 0-9.08 1.64 16.17 16.17 0 0 0-4.31 7.28c-.87 4-.56 8.3-.86 12.44-.15 2.1.83 2.8 2.76 3.08 5.1.73 10.2 1.62 15.3 2.44l3.78 1 9.56 4.07 5.4 4.4 6.58-14.33a35.22 35.22 0 0 0 2.22-7.55c.52-2.93.63-6-1.34-8.23-1.43.1-2.55.28-3.66.25-1.57 0-3.14-.2-4.7-.3-3.45.28-6.5 1.1-8.2 4.67a4.42 4.42 0 0 1-2.68 2.05c-2 .45-1.9 1.4-1.3 2.9a45 45 0 0 1 4.7-1.65 2.6 2.6 0 0 1 2.17.57c.33.36 0 1.38-.12 2.1-.17 1.16-.4 2.33-.78 4.44l7.78-2.2 6.46-2.6c-2 4.52-5.75 6-9.34 7.56-3.77.55-7.94-.75-11.12 2.5-.32.33-1 .28-1.54.4l-3.82-.82-.43-5.18c.85-1.44 3.56-2.06 1.98-4.56zm8.8-12.6c2.3-2.66 3.14-5.58 2-8.83-1-3-3.18-5.4-6.44-5.52-4.68-.18-6.7 3.66-8.76 6.54 1.56 2.07 3.3 3.76 4.25 5.82s1.18 4.53 1.7 6.7a50.38 50.38 0 0 1 2.29-5c1.6-2.7 3.44-2.6 4.97.28zM318.15 159c2.5 2.73 4.72 5.2 8.22 5.56 5.85.6 11.73.92 17.6 1.33a7.11 7.11 0 0 0 1.56-.24l.1-.9c-8.42-1.55-15.6-7.9-25-5.77a15.06 15.06 0 0 1-2.47.01zm36.74-4.93l10.36 4.57c-1.82-3.84-6.64-6.05-10.36-4.55zm-17.14-99.55c-2.34-5-4.28-10.1-1.9-15.7-3.6 5.22-2.92 11.56 1.9 15.7zm-9 102.83l10.15 3.17.25-.87c-3.3-.73-5.43-5.43-10.42-2.3zm-5.86-6.83l1.36 5 4.38-1.7zM336 37.77l-.08.18h.32a1 1 0 0 0-.08-.18s-.16.01-.16 0zm4.1 122.83l-.18-.2-.2.18.3.2zm.9.5l-.08.1h.1z" class="i"/><path d="M534.67 197.52c-8.28 12.48-16.16 25.23-24.93 37.35-11.87 16.4-24 32.66-36.8 48.32-11.25 13.75-18.94 29-24.42 45.78a355.55 355.55 0 0 0-16.76 89.75 41 41 0 0 1-1 7c-.17.74-1.28 1.25-2 1.87-.6-.7-1.57-1.3-1.76-2.1a15 15 0 0 1-.21-4.34c2.3-33.7 8-66.74 19.76-98.5 2.44-6.6 6.23-12.66 9.3-19 1.37-2.85 2.16-6 3.82-8.68 3.07-4.92 6.58-9.56 9.9-14.32l.26-.8-.82.2c-1.23.36-1.87 0-1.3-1.3a4.52 4.52 0 0 1 1.44-1.61c10.55-7.8 18.1-18.24 25.6-28.76 14.13-19.8 28.45-39.56 40-61 10.47-19.36 21.75-38.17 33.7-56.62a78 78 0 0 1 7.22-10.22c2.2-2.42 5.22-4.1 8-6 2.07-1.45 3.55-3.18 3.1-5.86a5.84 5.84 0 0 0-1.23-3.19c-2.93-2.62-6.07-5-9.14-7.48a40 40 0 0 0-3.83-1.28c-8.45-1.88-16.1.55-23.58 4.26a8.91 8.91 0 0 0-4.55 5A284.38 284.38 0 0 1 506 171.37c-11.68 15-24.85 28.34-40.9 38.7l-4.47 1.94a35.11 35.11 0 0 1-3.3 1.53c-3.43 1.2-6.9 2.33-10.35 3.48l-.05-1.06 1.33-.42 1.44-.5a67.21 67.21 0 0 0 18.14-10.66l1.44-1.06-.22-.4-1.87.63c-4 .35-8.08.8-12.13 1-.8 0-1.63-1-2.45-1.6.74-.65 1.37-1.63 2.23-1.9 2.32-.7 4.84-.84 7.1-1.7a62.9 62.9 0 0 0 19-11.89L483 186h-.06a2.36 2.36 0 0 1 .46-.1l.68 1.2q-3.87 4.28-7.75 8.54l-2.54 2 .32.47 2.3-1.18c3-2.6 6.13-5.07 8.95-7.86 11.75-11.6 21.36-24.92 30.86-38.35a265.88 265.88 0 0 0 25.94-46.8c1-2.2 1.9-4.3 4.44-5.17a2.06 2.06 0 0 0 1.21-1.47c-.14-6.74-.72-13.3-4.46-19.34-4.36-7-3.86-10.52 1.4-16.95 1-1.26 2.16-2.42 3.22-3.6-3.74-8.1-2.6-14.45 3.72-19.5 6.1-4.9 11-5.13 19.08 1.2 2.6-1.4 4.84-3.16 7.4-3.88 5.78-1.62 11.1 1.06 13.85 6.42a19.34 19.34 0 0 1 1.62 14l-4.1 5.5c-3.7 1.77-8.33 1.5-11.06 5.43-.44.63-2.2.36-3.33.5l-2.52-2.92c-.26.68-.46 1.16-.62 1.66-1.66 5.14-5.3 7.85-10.77 7.8-1.67 0-3.53 0-4.16-2.17 2.35-.44 4.74-.7 7-1.35s4.3-2.14 4.76-4.47L564 63.08l-.37-2 1.86-3.57-4.15-.5c-6.5-.65-10.73 2.94-14.43 7.62-2.7 3.42-3.37 6.8-.7 10.66A25.92 25.92 0 0 1 551 90.66c0 1.86-.27 3.72-.44 6 8.93-4.52 17.92-5.2 27.14-2l6.57 4.28 5.88-21.47a11.67 11.67 0 0 0-3 1.36c-1.64 1.43-3.22 2-5.1.6 0-1.54-.47-3.38.2-4.58a9.58 9.58 0 0 0 1.18-5.51h1.55a4.45 4.45 0 0 0 1.64-.07c2.2-1 3.78-.54 4.56 1.87l-.77 3.9a26.66 26.66 0 0 0 4.3 0c4.7-.78 7.6-5.7 7-11.58-.4-3.6-1.65-5-5.28-5.32-1.63-.14-2.08-.75-1.76-2.2 2.45-2.53 7.37-.84 9 1.73 4.7 7.24-.2 20-8.43 20.4l-1.06.1h-2.07l-.66.2c.1.3.2.58.3.87h-.06c1.88 1.75 1.46 3.85.92 6l-.1 1.07-1.44 6-.45 1.55-3 8.73c.75 1.43 1.66 3 2.42 4.63.66 1.45-.06 2.7-.37 4.17-1.2 5.63-6 7.24-9.77 10.1a10.09 10.09 0 0 0-2.23 2.7c-13.36 21.16-27 42.16-38.16 64.62-1.48 2.9-3.2 5.78-4.8 8.72zm38.7-141.22c.38.08 1 .32 1.1.22 2-3.6 4.9-3 8-1.8l1.33 4.18a5.93 5.93 0 0 0 5.92-4.06c1.5-3.87 0-10.63-3.13-13.43-2.93-2.6-6.35-2.76-9.9-1.24-2.4.84-3.38 2.44-2.85 5a10.64 10.64 0 0 1-2.13 9.2l-2.08 1.44.2.63a10.19 10.19 0 0 1 1.53-.26 19.52 19.52 0 0 1 1.99.12zm-11.06-3.4l1.54.47 2.2-2.72 2 2.5c3.54-2.8 2.34-7 2.26-10.7 0-1.13-3.1-2.2-4.77-3.3-5.68-2-10.1-.73-13.88 4.15-2.64 3.4-2.94 8.4-1.1 11.24z" class="o"/><path d="M627.85 121.17c-3.45-3.23-7.1-6.12-10.13-9.55-11.5-13-9.9-28.8 3.77-39.5 9.6-7.5 20.8-10.9 32.64-12.63 11-1.6 21.82-.8 32.8.67a82.1 82.1 0 0 1 31.72 11.26c8.7 5.24 15.77 12.16 18.2 22.46 2.55 10.73-1.76 19.24-9.78 26.06-9.9 8.44-21.85 12-34.45 13.67a108.62 108.62 0 0 1-39.47-2.24 4.49 4.49 0 0 0-3.19.68c-11.58 7.87-24.22 10.26-37.9 7.52A9.86 9.86 0 0 1 610 139c-2-.88-2.25-2.8-.4-4a23.49 23.49 0 0 1 4.19-1.95 26.63 26.63 0 0 0 14.07-11.88zm-8.74 15.08c.6 0 1.2.1 1.82.1a54.29 54.29 0 0 0 28.57-8.59 5.05 5.05 0 0 1 3.45-.69 104.2 104.2 0 0 0 35.65 2.74c10.4-1.07 20.4-3.52 29.52-8.8 6.26-3.63 11.64-8.24 14-15.35 3-9-.46-16.4-6.5-22.84-11-11.68-25.58-16.25-40.56-19.5-9.88-2.15-20.06-1.9-30.1-.54-11.66 1.58-22.7 4.9-32.06 12.5-10.75 8.73-12.5 21.2-3.8 31.9 3.25 4 7.7 7.1 11.74 10.42 1.18 1 1.75 1.62 1 3.1-1 1.93-1.8 4-2.77 5.9-2.18 4.33-6.06 6.83-9.95 9.67z" fill="#837afd"/><path d="M396.8 102.1l1.3-1.26 4.53 3.9c-.4-1.73-.9-2.86-.84-4a22.58 22.58 0 0 1 1-4.12c1.22.57 2.73.86 3.6 1.77a50.08 50.08 0 0 1 4.06 5.35c1.34-.44 2.8-1.44 3.87-1.12s1.94 1.92 2.84 3c.3.33.36 1.07.65 1.14 5 1.17 9.38 5.68 15.3 1.9 6.26-4 12.9-7.4 19.54-10.76 10.84-5.5 21.74-10.93 33.54-14.14a71.87 71.87 0 0 1 11.49-2.07c1.93-.2 3-.9 3.66-2.56l6.05-16.3a4.36 4.36 0 0 1 1.09-1.79c1.5 4.88.7 9.55-1 14.16l-.74 1.8.6.37 1.4-1.7c4.35-4.47 7.76-9.9 13.6-13-2 7.1-7.5 11.74-12.14 17l-2.68.6-1.77 1h-2.1l-.07.4 2.1.75a9.88 9.88 0 0 1 .15 3.14c-5.77 20.9-10.2 42.2-19.72 61.9-4.27 8.82-9 17.26-17.48 22.83-.1.07-.1.34-.2.78 4.7.6 9.32 1.18 13.92-.46a9.4 9.4 0 0 1 2.3-.8 2.29 2.29 0 0 1 1.87.61 2 2 0 0 1-.46 1.87c-1.7 1.5-3.54 2.82-5.33 4.2-5.13 4-10.54 7.42-17 8.94l-5.24.07c-1.1-.8-1.1-1.2.32-1.7 4.92-1.8 9.8-3.72 14.65-5.66.6-.24 1-.9 1.9-1.75l-10.38-1.17c-3.22-.43-6.5-.84-9.68-1.52s-6.05-1.6-9.07-2.43c4.92-.35 9.72-.3 14.52-.4a7.37 7.37 0 0 0 3-.87c9.4-4.78 14.22-13.32 18.54-22.4 7.2-15.16 11.7-31.23 16.42-47.24l4.5-15.87-3.4.37c-12.2 1.4-23.92 4.43-34.76 10.4l-23.27 12.1c-4.24 2.16-8.57 4.15-12.86 6.22-6.56-.6-12-3.3-15.93-8.93-.3.55-.53.9-.7 1.3-1.14 2.7-2.4 2.9-4.44.66-.68-.76-1.34-1.54-2-2.3l-.48.3 1 3.3-.8 1.18zm110-24.43l-.13-.16c-.05 0-.13.1-.13.15s.07.1.12.17z" class="j"/><path d="M134.08 84.63c-3.5-1.25-6.63-2.18-9.6-3.47-5.57-2.43-10.15-6.1-12.7-11.77-3.4-7.6-1.4-14.63 2.86-21.16 5.44-8.36 13.24-14.12 21.88-18.8A96.69 96.69 0 0 1 165 19.76c12.4-2.3 24.58-2 36.36 2.72 7.76 3.1 13.44 8.47 14.7 17.16 1.07 7.43-2.14 13.7-6.62 19.3-8.07 10.12-18.93 16.22-30.78 20.76A90.28 90.28 0 0 1 153 85.32a4.47 4.47 0 0 0-3.61 2.19c-5.1 6.77-11.4 12.24-19.3 15.5a10.6 10.6 0 0 1-4 .67 3.24 3.24 0 0 1-2.51-1c-.3-.58.2-1.87.73-2.58 2.36-3.2 5-6.23 7.2-9.52 1.18-1.77 1.72-3.92 2.56-5.94zm-4.76 14.75a15.86 15.86 0 0 0 2.73-1.09 53.92 53.92 0 0 0 15.22-14.2 5.25 5.25 0 0 1 3.42-2 88 88 0 0 0 41.4-12.91c7.63-4.63 14.28-10.36 18.22-18.63 3.86-8.1 2.15-15.9-4.75-21.18a33 33 0 0 0-6.31-3.71c-10.58-4.85-21.78-4.47-32.86-3A81.57 81.57 0 0 0 130 36.88c-6.24 4.4-11.67 9.56-14.92 16.62-4.24 9.2-1.62 18 7.22 22.88a49.61 49.61 0 0 0 11.64 4.37c2.6.67 3.1 1.62 2.62 4.08-1.12 5.52-4.17 10-7.37 14.4l-.34.3z" fill="#847bfd"/><path d="M32.13 120.56c-3.56-1.15-7.13-2-10.4-3.43-13.54-6-15.2-18.88-3.87-28.6 8.22-7.06 17.88-11 28.32-13.17 6.67-1.4 13.45-1.32 20.27-1.45A35.73 35.73 0 0 1 85 78.64c5 2.8 8.58 6.88 8.5 13-.08 4.87-2.56 8.84-5.83 12.27C81 111 72.5 115 63.33 117.7c-3.46 1-7.1 1.5-10.6 2.38a8.48 8.48 0 0 0-3.55 1.76c-6.1 5.65-11.68 11.7-14.16 20-.22.72-1.35 1.17-2.05 1.75-.6-.8-1.57-1.5-1.76-2.38-1.4-6.43-.62-12.8.7-19.16l.2-1.5zm1.7 13.28l13.58-14.94a9.49 9.49 0 0 1 4.25-2.12c5.66-1.6 11.52-2.6 17-4.6 6.94-2.52 13.42-6.08 18.12-12.1 5.74-7.32 4.32-15.25-4.17-19.08A59 59 0 0 0 66 76.6c-10.82-1.38-21.32.8-31.37 4.9C27.56 84.37 21 88 16.2 94.18c-5.2 6.7-4.15 13.6 3 18.08a25.17 25.17 0 0 0 6.15 2.82c3.63 1.06 7.36 1.75 11.35 2.66-2.02 5.32-3.4 10.8-2.86 16.1z" fill="#857cfd"/><path d="M696.46 140.63c9.47.94 21.54 2.26 32.52 8.18 4 2.13 7.47 4.87 9.63 8.95 2.54 4.8 1.5 9.73-3.06 12.63a31.68 31.68 0 0 1-8.48 3.47c-1.7.48-2.6 1-3 2.8a26.51 26.51 0 0 1-8.6 13.6c-.84.74-2.16.95-3.26 1.4-.14-1.1-.34-2.17-.42-3.26l-.76-11.6c-.14-1.7-1.24-2.3-2.93-2.56-8.2-1.27-16.25-3.32-23.44-7.55a39.28 39.28 0 0 1-9.84-8c-4.9-5.7-3.17-12 3.62-15.42 3.97-1.95 8.2-2.7 18.02-2.66zm18.92 46.45c3.84-4.4 6.33-9.12 6.83-14.67.17-1.82.77-2.42 2.5-2.78a26 26 0 0 0 6.66-2.19c4.07-2.1 4.66-5.32 1.88-9-3.83-5-9.3-7.75-14.8-10.35a49.78 49.78 0 0 0-35-3.14c-3.28.87-6.74 2.17-7.37 6s2.1 6.2 4.78 8.3c8.35 6.52 18.1 9.56 28.43 10.55 3.33.32 4.3 1.94 5 4.5a6.09 6.09 0 0 1 .28 1.32l.8 11.48z" fill="#847bfd"/><path d="M266.1 73.6c-.07 2.5-2.25 5.92-5.1 9.13a8.94 8.94 0 0 0-2.12 4.16c-.76 4.48-.32 8.83 2.34 12.76a6.87 6.87 0 0 1 .5 2.43c-.94.1-2 .55-2.8.26a25.51 25.51 0 0 1-12.05-9c-1.23-1.7-2.37-2-4.3-1.53-9 2.14-18 2.3-26.83-.76-4.27-1.48-8.12-3.72-10.52-7.77-3.16-5.28-2.2-11.2 2.6-16.45 5.66-6.13 13-9.1 20.93-10.9 10.54-2.4 20.77-1.64 30.27 3.93 4.82 2.83 7.17 7 7.1 13.74zM256 98.55l.83-.62a45.36 45.36 0 0 1-1.31-5.16c-.65-4.75-.68-9.15 3.34-13 6.33-6.08 5-13.7-2.7-18a13.64 13.64 0 0 0-2.2-1.09c-14.5-4.93-28.24-3.4-41 5.14-4.14 2.77-7.33 6.63-6.67 12s4.77 8.13 9.4 10c9.42 3.82 19 3.42 28.52.48 1.64-.5 2.35-.25 3.48 1.18 2.48 3.24 5.46 6.08 8.3 9.07z" fill="#857cfd"/><path d="M594.6 55.8c-.32 1.46.13 2.07 1.76 2.2 3.63.32 4.9 1.7 5.28 5.32.65 5.87-2.26 10.8-7 11.58a26.66 26.66 0 0 1-4.3 0l.77-3.9c1.36-1.77 3.1-3.37 4-5.35 1-2.26-.63-4.24-3.17-4.5-.8-.1-1.62 0-2.43 0l4.1-5.5z" class="c"/><path d="M507.48 80.22l2.68-.6-1 2.3 14.12-5c-.46 1.37-.5 2.1-.9 2.55a11.91 11.91 0 0 1-2.66 2.3c-3.85 2.32-8.2 3.92-10.82 8-.45.7-1.44 1-2.4 1.72l1.54-6.4.25.14c-.1-1.16-.16-2.32-.3-3.47a9.64 9.64 0 0 0-.5-1.56zm-42.65-11.6c2.38-2.8 4.66-5.7 7.2-8.34.57-.6 2-.3 3.1-.43-.1 1.1.2 2.48-.37 3.23-2.3 3.1-5.15 5.6-9.13 6.38zm-35.9-15.46c.7-3.86 1.3-7.74 2.2-11.55.2-.87 1.54-1.47 2.35-2.2.4 1 1.2 2 1.1 3-.45 4.08-1.4 8-4.62 11z" class="k"/><path d="M458.5 185.47l5.24-.07a7.16 7.16 0 0 0 2.25.6l16.07-1.6a10.81 10.81 0 0 1 2.76.48l-.8 2.23-.68-1.2-.46.1h.06l-2.3.6-10.75 1-7.13-.4-5.16-.68z" class="f"/><path d="M386.36 51.84c-3.9-.92-7.2-5.75-6.9-8.94.06-.66.82-1.8 1.2-1.77a2.8 2.8 0 0 1 2.13 1.21c1.3 3.1 2.4 6.32 3.55 9.5z" class="k"/><path d="M476.4 197l-2.3 1.18-.32-.47 2.54-2z" class="b"/><path d="M338.92 34.34l-1.05-.07 1.28-2 .48.17zM508.7 75.62l-1.4 1.7-.6-.37.75-1.73z" class="d"/><path d="M390.44 100.87l1.22 1.37-1.33-.2.1-1.16z" class="j"/><path d="M464.83 68.62l.8.84-2 1-.22-.34z" class="d"/><path d="M505.66 82.37l-2.1-.75.07-.4h2.1z" class="k"/><path d="M594.14 78l1.06-.1zm-1.7 8.16l.1-1.07zm-1.9 7.57l.45-1.55zm.84-15.5l.66-.2-.43 1.08h.06l-.3-.88z" class="i"/><path d="M465.08 210.06c16-10.35 29.2-23.65 40.9-38.7a284.38 284.38 0 0 0 38.48-65.46 8.91 8.91 0 0 1 4.55-5c7.48-3.7 15.13-6.14 23.58-4.26a40 40 0 0 1 3.83 1.35c0 1.4-.06 2.78-.1 4.17-5.24-1.83-10.44-2.65-15.52.67a20.33 20.33 0 0 0 6.23 1 17.57 17.57 0 0 1 11.82 4.81c-.4.76-.58 1.83-1.2 2.25-14.86 10-23 24.93-31.24 40.17-13.23 24.62-25.67 49.75-42.2 72.44-9 12.4-18.5 24.47-27.83 36.65a8.49 8.49 0 0 1-2.55 2c-8.54 5-16.9 10.27-24.15 17.14A85.76 85.76 0 0 0 428 311.17c-1.9 4.93-.4 9.28 1.3 13.65.9 2.34 4 2.74 5 .66 1.6-3.5 5.42-4.06 7.82-6.6l-2.1 5.78c-6.86 20.22-13.32 40.55-16.14 61.8-1.54 11.67-1 23.4-.08 35.08.4 5.16.7 10.32 1.4 15.44.25 1.8 1.53 3.44 2.73 6-1 1.14-2.73 3-4.4 4.83l-1.16-1.16c-.08-.5 0-1.1-.26-1.46-10.12-13.5-21.5-25.6-37.17-32.8-.9-.42-1.84-.8-2.75-1.2l-2.8-1.3c.84-.56 1.44-1 2.06-1.37 23.54-14.35 27.43-49.8 7.52-68.73-5.6-5.3-12.44-9.17-19.9-9.13-11.88.07-23.28 3.1-31.38 12.95-12.1 14.7-14.7 31-7.4 48.66 1.4 3.37 3.9 6.3 5.9 9.4.48.72 1.12 1.34 1.9 2.27-4.3.6-8.3.86-12.12 1.8a84.75 84.75 0 0 0-11.98 4.14c-1.7.7-2.47.5-3.55-.87l-14.84-18.44a33.56 33.56 0 0 0-3-2.85c1.74-1.85 3.42-3.5 5-5.27 6.4-7.45 8.4-16.53 9.4-25.95a52 52 0 0 0-1.05-18.65c-1.74-6.8-5-12.67-10.54-17.05-1.6-1.27-1.43-2.7-1.38-4.35.13-4.34.13-8.68.2-13l6-45.62c.84-6.1 2.05-12.17 3-18.27.12-.83-.53-1.76-.83-2.65-.7.7-1.8 1.3-2 2.13l-6.45 28.9c-.3-.6-.85-1.16-.9-1.77A650 650 0 0 0 284.8 198q-5.3-29.62-10.72-59.22c-1.35-7.36-.47-14.7.4-22l6.25-50.83a95.64 95.64 0 0 0 .48-12.44c0-1.2-.94-2.52-1.75-3.56-1.3-1.7-1.7-3.43-.6-5.3s2.85-1.42 4.6-1c5.92 1.3 11.92 2.36 17.78 3.9 3.3.86 6.4 2.46 9.58 3.72q-1.1 3.9-2.2 7.78l-1.08-.94-.37.63 1.43.6a11.1 11.1 0 0 1 0 1.63l-4.62 29.58c-2 12.57-1.8 24.92 2.8 37 1.87 4.9 3.1 10.05 4.63 15.08l-1.18-.32-3.87-1.83-.42.82 4.3 2.1 2.17 1.43.23.4q1.23 4 2.47 7.95l-5.87-1.5-6.1-1.65L293 147.6l-.14.6 10.24 2.8 6 1.7 7.05 2.62c0 .5.1 1 .14 1.53 0 1.1-.42 2.38 0 3.2a20.66 20.66 0 0 0 3.09 3.56l-6.44.16h-8.6v.1l8 .83c1 2.17 1.64 4.68 3.14 6.43a81.85 81.85 0 0 0 8.09 7.58c1.8 1.6 3.67 3.08 5.68 4.77-9.9 3.45-12.33 4.94-12.94 7.44h11.2l.1 1.05c-2.25.55-2.18 1.6-.52 2.8a11.41 11.41 0 0 0 2.18 1l.34 1.15c-1.22 2.6.9 3.34 2.5 4.18a48.7 48.7 0 0 0 5 2 9.46 9.46 0 0 1-1.06.64c-3.6 1.36-3.6 1.36-2.16 4.86.08.2-.14.54-.06.74.4 1 .63 2.3 1.38 2.75a30.82 30.82 0 0 0 4.76 1.82 3.14 3.14 0 0 1 1.56 1.12l5.9 11.47c1.32 2.63 2.73 5.23 3.8 8 .85 2.17 1.2 4.55 1.87 6.8.4 1.4.55 3.5 2.7 3s1.26-2.45 1.17-3.9a3.33 3.33 0 0 0-.36-1.3l-5.65-11c.22-.2.43-.43.64-.65 5 4.2 9.67 8.77 15 12.46 7.46 5.2 15.9 6.53 25 4.23a9.73 9.73 0 0 0-2-.72c-8.43-.88-15.82-4.64-22.74-9.06-5.22-3.33-9.76-7.72-14.56-11.7-1.1-.92-2-2.37-3.5-.64l-1.22.1-3.8-6.87a16.54 16.54 0 0 1 5.11 1.93c6.94 4 14.15 7.52 20.67 12.07 5.94 4.14 12 7.3 19.18 8.53 7.6 1.3 14.58.1 20.74-4.78l.48-.32c2.8-.1 5.6-.1 8.38-.3s5.57-.65 8.35-1l-24.1 12.85-11.1 3.34a2.39 2.39 0 0 0-1.28 1.46c-.1.36.47 1.2.9 1.36 2.27.85 4.56 2 6.9 2.2 5.18.46 10.4.4 15.62.57l.9-.48c7.73-1.13 11.74-7 16-12.58.1-.15-.06-.5-.1-.76l.78-.93c1.08-1 2.1-2 3.24-2.9l17.94-14a15.5 15.5 0 0 0 2.38-1.56c3.5-3.24 6.9-6.57 10.32-9.87zM298.7 137.48c-.24-.17-.47-.35-.1-.06-.48-.06-.17 0 .13 0l.85.54.15-.4zm8.54-78.67l.46-.76a10 10 0 0 0-1.9-1.84l-17.2-9.15c-.9-.45-2.22 0-3.34 0a34.32 34.32 0 0 0 1.86 3 3.62 3.62 0 0 0 1.41.77l15.82 7.13a23.73 23.73 0 0 0 2.9.85zm63.35 192.94c.4.5.93 1.87 1.9 2.3a37.55 37.55 0 0 0 7.41 2.34c1.76.37 3.53-.08 3.92-2.33a3.47 3.47 0 0 0-2.58-4.2 17.59 17.59 0 0 0-3.43-.61c-1.45-.2-2.92-.28-4.37-.48-1.77-.24-2.85.3-2.85 3zm-69.93-113.92l-.34.67 5.45 2.67.4-.86zm-10.2 9.58v.23h1.48v-.23z" fill="#fcfcfd"/><path d="M591.4 325.62l14.6-6.06a7.17 7.17 0 0 1-1.25 2c-4.94 4.58-10.5 8.08-17.28 9.18-1.12.18-3 0-3.37-.67-.5-.93-.12-2.55.36-3.67a59 59 0 0 1 3.34-5.85l-25.86-2.94a5.27 5.27 0 0 0-3.06 1.3c-1.45 1-2.78.75-2.83-.82-.16-5.86-.14-11.74.2-17.6.08-1.4 1.73-2.68 2.53-4.1 6.24-11.06 4.15-21.74-1.88-32a59.52 59.52 0 0 0-7.47-9.68c-1.43-1.57-2.87-3.9-5.83-2.95-.4.13-1.1-.53-1.64-.86-7-4.17-13.7-3.5-20 1.4-10.2 7.9-15.5 18.37-15.44 31.28A21.92 21.92 0 0 0 523 305.05a18.17 18.17 0 0 0 4.84.37c1.74 0 3 .68 3.06 2.37.1 4.14 0 8.3-.25 12.4-.05.68-1.64 1.84-2.44 1.78-5.56-.4-11.12-1.7-16.64-1.56-15.18.42-27.3 7.3-36.68 19.06-1.95 2.43-3.1 5.5-4.56 8.3-.75 1.45-1.25 3-2.07 4.43a8.19 8.19 0 0 1-2 1.74 8.84 8.84 0 0 1-.26-2.42 32.17 32.17 0 0 1 9.19-18.09c8.65-8.44 18.3-15.08 30.48-16.7 5.33-.72 10.85-.15 16.28-.1 1.42 0 2.84.27 4.44.42l.53-8.7a8.21 8.21 0 0 0-2-.15c-10.1 1.77-19.88-8.45-22.1-17.27-4.18-16.6 6.1-38.32 22.06-44.52 8.86-3.46 22.1-2.55 29.48 5.78 6.54 7.38 11.62 15.32 12.72 25.34a24.9 24.9 0 0 1-5.9 19.46 6.16 6.16 0 0 0-1.5 5.14 102.33 102.33 0 0 1 .1 10.51c10.47-.64 20.05.64 29.1 5.46 1.2-3.16-.2-5.85-2.1-8.36-3.46-4.58-6.6-9.3-8.12-15a36.24 36.24 0 0 1 3.79-28.62 22.24 22.24 0 0 1 23.75-10.93 2.1 2.1 0 0 0 .8.13c8.68-1.7 14.14 3.78 19.63 9a32.6 32.6 0 0 1 7.9 12.58 61.16 61.16 0 0 0 4.43 9.62 13.09 13.09 0 0 0 4.49 4.19c3.23 1.94 5.2 1.14 6.7-2.27.28-.66.33-1.44.66-2.06a11.53 11.53 0 0 1 1.35-1.71c.6.57 1.6 1 1.76 1.7 1.74 6.9.42 13.15-4.47 18.44a21.62 21.62 0 0 1-11 6.76 14.08 14.08 0 0 0-2 .81c.4 3.87 1 7.63 1.16 11.4s.05 7.6.05 11.68c-2.48-.93-2.6-2.9-2.68-4.7L634.4 315c0-1.08.32-2.08-1.3-2.8-1.4-.62-.37-1.3.66-1.92 4.7-2.83 9.47-5.6 13.86-8.87 1.78-1.32 2.66-3.86 3.7-6-7.33 2.74-14 .22-17.6-6.93a94.18 94.18 0 0 1-4.14-10.07 31.19 31.19 0 0 0-17.23-18.38c-3.88-1.7-9.1-2.7-13.82-1-5.2 1.9-9.54 5-12.2 9.92-6.67 12.42-7 24.6 1.83 36.28.87 1.16 1.67 2.38 2.58 3.5 3.66 4.55 3.76 9.42 1.37 14.55a21.06 21.06 0 0 0-.76 2.24l-.28.18h.15a.63.63 0 0 0 .15-.14zM588.12 378l-8.9 4.35a16.91 16.91 0 0 1-2.77.77 10.6 10.6 0 0 1 .88-2.81l5.36-7.74a.86.86 0 0 0 .23-.13v-.17l-.18.33-8.13 5.17c-1.65 1.1-3.1 2.52-4.76 3.6-.56.36-1.5.16-2.26.2 0-.75-.27-1.63 0-2.24l4.06-8.8c-5.73 2.9-10.57 6.7-13 12.73-.65 1.63-.14 4 .45 5.77 1.24 3.78 2.9 7.42 4.37 11.1 1.1 2.76 2.35 5.5 1.5 8.88a38.45 38.45 0 0 1-5.37 0l-30.62-4.67c-2.72-.4-4.35-1.6-4.78-4.33l-1.76-11.57c-.35-2.74 1.65-4.38 3.12-6.35 2.42-3.23 5.2-6.44 6.6-10.13 3.2-8.54.82-16.2-5.3-22.8-4.6-4.93-10-8.5-16.8-9.3-11.84-1.34-21.64 2.56-29.6 11.54-9.56 10.78-9.77 25.42-4 36.93 1.3 2.57 3.75 4.55 5.63 6.84a10.32 10.32 0 0 1 2.11 3 22.22 22.22 0 0 1 .86 5.34c.3 5.17-1 7.08-5.9 8.72-13.33 4.48-24.06 12.8-33.78 22.67a32.48 32.48 0 0 1-2.64 2.73c-.46.37-1.6.58-1.88.3-.45-.44-.86-1.6-.6-2a31.91 31.91 0 0 1 4.34-6.2 85.55 85.55 0 0 1 27.7-18.41c.67-.28 1.36-.52 2-.8 6.88-3 5.48-2.66 5.47-9.7a1.9 1.9 0 0 0-.89-1.43c-5.77-2.46-8.12-7.67-10-13-6.44-18.1.3-36.85 16.8-46.73 11.4-6.83 30.27-6.94 41.9 3.95 6.65 6.23 10.56 13.33 10.36 22.43-.17 7.76-3.57 14.18-9.05 19.5a4.48 4.48 0 0 0-1.41 4.82c.67 2.8.94 5.7 1.42 8.86 11.6-.45 22.86.66 33.82 6.2-1.15-2.47-2.26-4.42-3-6.5a119.41 119.41 0 0 1-3.63-11.63c-1.2-4.9 1.3-8.77 4.65-11.83a83.26 83.26 0 0 1 9.87-7.15c.7-.46 2.3-.67 2.67-.26a4.14 4.14 0 0 1 .63 2.94 23.73 23.73 0 0 1-1.38 4.18c3-2.1 5.2-3.87 7.63-5.36 2-1.22 4.2-3.53 6.6-1.5s-.22 4.26-.85 6.36l-.3.3.55-.08a5.77 5.77 0 0 1 1.34-.22c1.43.08 3.7-.24 4.1.47.64 1.12.38 3.08-.14 4.45a25.14 25.14 0 0 1-2.89 4.56c3 1.52 3.22 3.77.6 6-1.73 1.48-3.42 3-5.25 4.33s-1.64 2.64-.8 4.4c1.78 3.75 3.42 7.57 5.1 11.38a3.69 3.69 0 0 1 .49 1.79c-.1.6-.5 1.52-1 1.64a2 2 0 0 1-1.69-.88c-2.06-5.1-4.15-10.2-5.88-15.44-.33-1 .56-2.78 1.42-3.7 2.07-2.22 4.46-4.13 6.73-6.16l-.48-.92c-1 .3-1.94.66-2.94.9a23.9 23.9 0 0 1-2.4.34c.14-.9 0-2 .5-2.64 1.22-1.68 2.76-3.12 4.07-4.74a12.47 12.47 0 0 0 1.23-2.35c.06-.12.12-.24.2-.36zm-300.86-60.53c.45 2.17-.48 3-2.6 2.74l-7.3-.84c-18.8-2.5-33.28 7.37-37.08 25.9-1.9 9.24-.54 18.12 6 25.56a7.8 7.8 0 0 0 1.95 1.86c3.3 1.73 3.35 4.5 2.9 7.68-.6 4.2-1 8.45-1.4 12.7-.24 3-1.55 4.2-4.6 3.8-3.6-.47-7.16-1.13-10.77-1.36-8.32-.52-15.86 2.44-23.33 5.6a8.44 8.44 0 0 1-3.64.85c-.85-.06-1.65-1-2.47-1.56.52-.75.88-1.84 1.6-2.17 5.32-2.5 10.7-4.84 16.08-7.24a7.85 7.85 0 0 0 .84-.48c-.64-3-1.6-5.92-1.76-8.85a17.93 17.93 0 0 1 1.14-7c.88-2.45 2.62-4.58 3.58-7 .42-1.05-.18-2.5-.3-3.78a15.3 15.3 0 0 0-3.21.58c-1 .4-1.74 1.33-2.72 1.77-1.14.5-2.78 1.34-3.5.9s-1.24-2.27-1.22-3.5c.05-3.7.4-7.43.6-11.15a6.2 6.2 0 0 0-.62-3.45 66.41 66.41 0 0 1-.74 6.93c-.23 1.18-1.16 2.22-1.78 3.32-.87-.9-2.05-1.64-2.54-2.7a71.11 71.11 0 0 1-2.37-6.76l-.7.08c-.23 3-.3 6-.78 9-.18 1.2-1.2 2.25-1.86 3.37-.93-.92-2.2-1.7-2.7-2.82a36.1 36.1 0 0 1-1.54-5.71h-.86v9.74c0 3-.2 3.22-4 2.93 1.24 4.5 1.85 9 3.67 12.88 4 8.48.58 16-2.53 23.46-.63 1.5-3.5 2.1-5.34 3.1l-.82-.58 2.7-5.87c.85-1.73 1.93-3.36 2.66-5.14a19.6 19.6 0 0 0 1.69-5.71 19.87 19.87 0 0 0-.53-7.39c-1.58-4.9-4.46-9.42-4-14.82.14-1.52 1-3 1.54-4.46a12 12 0 0 0 .73-2.42c.34-2.78.47-5.58.9-8.35.3-1.92 1-4.18 3.27-4 1.4.1 2.7 1.8 4.1 2.85a20.31 20.31 0 0 1 1.26-4.07c.57-1.08 1.67-2.37 2.7-2.53.77-.13 2 1.26 2.66 2.22a22 22 0 0 1 1.63 3.92 45.64 45.64 0 0 1 1.86-6.69c.54-1.2 2-2 3-3 .84 1.13 2.3 2.2 2.4 3.4.45 4.4.47 8.86.63 13.3v4c1.23-.62 2.16-1.13 3.13-1.55a6.32 6.32 0 0 1 7.13.94c2.05 1.84 3 4.35 2 6.92a42.23 42.23 0 0 1-4.4 8.69c-1.62 2.37-2.3 4.55-1.53 7.35a58.86 58.86 0 0 1 1.13 6.4l18.9 1c.54-2.88 1-6.64 2-10.24 1.07-3.77-.24-5.7-3.5-7.57-5-2.86-6.83-8.08-8.15-13.33-4.37-17.3 6.5-37.13 23.44-42.52a38.3 38.3 0 0 1 25.63.54 10.46 10.46 0 0 0 1.77.35zM207.08 277l5.55 9.64a7.49 7.49 0 0 1-7.11-5.87 6.07 6.07 0 0 0-1.38-2.43c-.84-1.05-2.08-1.87-2.66-3a3.56 3.56 0 0 1 .22-3c.28-.43 1.8-.34 2.63-.1a17 17 0 0 0 4 1.17c-1.12-1.55-2.37-3-3.33-4.7a73 73 0 0 1-3.86-7.45 4.07 4.07 0 0 1 1-5.18 3 3 0 0 0 .57-2.18l-2.2-23.55a38.93 38.93 0 0 0-6-16.76 23.1 23.1 0 0 0-18-10.91c-3-.27-6.23 1.3-9.37 2-1.33.3-2.9 1-4 .57-14.88-5.56-24.1 1.9-30.5 13.3-3.92 6.95-3.9 14.6-3.15 22.28.6 6.12 1.58 12.23 0 18.38a20.11 20.11 0 0 1-9.77 12.51l.3.8 13.66-3.95c.5-.15.67-1.23 1.15-1.74s1.23-1.2 1.6-1.06a2.34 2.34 0 0 1 1.43 1.6 37.29 37.29 0 0 1-.41 4.57c-.15 1.65-2.2 2.95-1 5a28.67 28.67 0 0 1-3 2.31c-.46-1-1.3-1.93-1.28-2.88a36.69 36.69 0 0 1 .93-5.63c-4 1.14-7.66 2.47-11.43 3.16-2.42.44-5 0-7.5-.2-.65-.07-1.7-.87-1.74-1.38a3 3 0 0 1 1.17-2.17c1.54-1.1 3.32-1.87 4.9-2.92 9.48-6.32 9.9-11.64 8.7-20.47-1.1-8.2-2.76-16.35-.2-24.5 3.52-11.15 10.52-19.14 21.92-22.7 4.54-1.4 9 0 13.36 1.13a4.81 4.81 0 0 0 2.81 0c10.22-4.4 20.48-2.52 28.46 5.3 6.7 6.54 9.87 14.78 10.7 23.83.78 8.4.76 16.85 1.24 25.27a13.16 13.16 0 0 0 1.36 5.12c1.84 3.64 4 7.12 6 10.7a15.78 15.78 0 0 1 1.5 3.49c.68 2.57-.94 4.07-3.45 3.3-1.18-.37-2.33-.83-3.5-1.24zm475.02 58.9v-25.33c-5.85-2.34-10.23-6.75-14.1-11.74-1.1-1.4-2.27-3.2-.65-4.58 1-.83 2.93-.87 4.38-.7a28.39 28.39 0 0 1 5.26 1.68c-.2-2.88-.44-5.44-.5-8a28.89 28.89 0 0 1 .33-6c.17-.94 1.34-2.47 1.87-2.4a4.27 4.27 0 0 1 2.76 2 37.19 37.19 0 0 1 2 5.67c1-2.1 1.5-4 2.56-5.44.74-1 2.32-2.2 3.33-2.06s2.18 1.78 2.5 3c.54 2 .46 4.1.7 6.65.9-.67 1.54-1.2 2.24-1.66 2.78-1.84 5.75-.44 5.73 2.87 0 2.14-.75 4.28-.83 6.43a5.8 5.8 0 0 0 .94 3.61c6.6 8.4 10.62 17.7 10.27 28.56 0 .9-.83 1.75-1.27 2.62-.74-.68-1.85-1.23-2.17-2.08a103.55 103.55 0 0 1-3.12-9.56 57.06 57.06 0 0 0-7.61-16.78 14.72 14.72 0 0 1-1.72-5.54 26.38 26.38 0 0 1-.06-4.69c-1.42.5-3.24 1.82-4.5 1.4s-1.7-2.62-2.38-3.8c-2.14 4.36-2.14 4.36-4.9 5.18-.13.95.07 2.35-.5 2.78a4.89 4.89 0 0 1-3.23.68 15.15 15.15 0 0 1-3.4-1.15l-.52.83c2.72 2.3 5.26 4.88 8.23 6.77 1.63 1 2.2 2.25 1.93 3.66-1.35 7.3 0 14.45.94 21.63.32 2.43.72 4.86.83 7.3.13 2.67-1 3.06-3.63 2.25-12.27-3.88-24.64-6.27-37.2-1.2-1.84.74-3.47 2-5.28 2.8-.7.32-1.95.53-2.35.15a2.53 2.53 0 0 1-.46-2.39 13.33 13.33 0 0 1 3.26-3.88c5.7-4.18 12.38-4.3 19-4.1a58.25 58.25 0 0 1 20.59 4.54 1.85 1.85 0 0 0 .73.01zM264 451.52c-.64-.77-1.55-1.45-1.83-2.32-.38-1.17-.73-2.75-.22-3.67a3.45 3.45 0 0 1 3.2-1.06c6.8 2.48 13.5 5.2 20.2 7.88a13.32 13.32 0 0 1 1.77 1.12l1.78-6.78c1.9-8.06 4.78-15.65 10.52-21.8a26.33 26.33 0 0 1 5.45-4.42c.7-.42 2.1.32 3.16.54-.26.93-.2 2.27-.83 2.75-7.84 6.16-11.87 14.76-15.3 23.74-1 2.6-1.74 5.32-2.53 8s-1.65 3-4.4 1.8q-6.6-2.9-13.2-5.8c-1-.43-2-.72-3-1.07l-.77.86a11.69 11.69 0 0 1 2.67 2 10.6 10.6 0 0 1 1.09 3c-1.07.24-2.22.85-3.2.66-3.73-.74-7.4-1.83-11.1-2.62a33.35 33.35 0 0 0-18.07 1.83c1.4.2 2.1.34 2.84.4l13.5 1.1a2.44 2.44 0 0 1 1.31.26 18.7 18.7 0 0 1 1.79 2c-.73.4-1.46 1.08-2.2 1.1a115.62 115.62 0 0 0-13.24.68l10.42 3a19 19 0 0 1 2.91.61c.68.33 1.12 1.17 1.67 1.78-.67.5-1.35 1.42-2 1.4-2.25-.07-4.5-.56-6.75-.7a19.65 19.65 0 0 0-5.83.42c2.93 2.63 6.42 3.55 10.05 4.13l16.56 2.67a7.36 7.36 0 0 1 5.94 4.32 88.05 88.05 0 0 1 3.18 10.32c.2.67-.23 1.5-1.1 2.6a26.22 26.22 0 0 1-2.32-3c-1-1.8-1.88-3.72-2.76-5.6-1.64-3.53-4.53-4.84-8.25-5.22-5.32-.55-10.65-1.2-15.87-2.26a25.8 25.8 0 0 1-7.7-3.3c-3.42-2-3.53-4.34-1.1-7-1.2-2-2.26-3.87-3.52-5.62-.4-.58-1.47-.63-2-1.15-1-.86-2.4-1.88-2.42-2.86s1.4-2.3 2.47-2.68c8.65-3.1 17.44-5 26.6-2.1a12.55 12.55 0 0 0 2.14.32l.84.3.1-.25zM59.37 290.65l-7.54 5.22c-1.07.64-2.84 1.15-3.8.7-1.8-.87-1-2.74-.3-4.05l5.15-8.9a1.23 1.23 0 0 0 .23-.11v-.18l-.18.33-.8.3-14.86 15.1a19.09 19.09 0 0 1-2.82 2c-.4-1.12-1.12-2.24-1.1-3.35l.37-9.8a29.26 29.26 0 0 0-5.17 13.15c-.53 3.62 0 7.4-.17 11.08-.06 1.17-.86 2.3-1.32 3.47-1.23-.7-3-1.12-3.6-2.2-2.08-3.7-1.25-7.78-.5-11.7A38.35 38.35 0 0 1 31.59 284c.9-1.07 2.64-1.45 4-2.15.68 1.44 1.9 2.86 2 4.32a74.31 74.31 0 0 1-.69 9.09c2.18-2.7 4.1-5.53 6.46-7.94 3.36-3.43 7-6.64 10.6-9.76 1.65-1.4 4-2.8 5.9-1s.55 4-.46 6c-.67 1.28-1.45 2.5-2.18 3.75l-.3.4.62-.1c1.36-.7 2.66-1.72 4.1-2a5.17 5.17 0 0 1 3.92.69c.78.67 1 2.48.78 3.67-.28 1.63-1.2 3.14-2 5.1a10.31 10.31 0 0 0 1.25-.44c2-1.16 4.12-1.72 6.07-.1s1.64 4 .8 5.8c-2.83 6.16-6 12.2-9.06 18.24a2.62 2.62 0 0 1-1.87 1c.18-7.8 4.3-14.3 6.34-21.85-2.72 1.47-5.42 3-8.2 4.36a11.88 11.88 0 0 1-2.9.63c-.14-1.1-.66-2.36-.33-3.3.9-2.55 2.17-5 3.3-7.44 0-.2 0-.4.07-.6zm405.13 178.1a48.39 48.39 0 0 1 6.49 1.32c1.08.38 2.7 1.7 2.6 2.38-.17 1.15-1.43 2.2-2.4 3.12a6.62 6.62 0 0 1-2.21.8l1.33.72v.76h-4a59.77 59.77 0 0 1-6-.08c-.84-.1-1.6-.85-2.42-1.3.54-.85.88-2.08 1.66-2.48a28.45 28.45 0 0 1 4.88-1.6l2.2-.65-.1-.68-13.15.65c-1.56.1-3.47.54-3.92-1.37-.5-2.13 1.42-2.58 3.06-3l11.17-2.8-.1-.95c-3.8.25-7.6.35-11.37.78A70.91 70.91 0 0 0 444 466c-1.57.38-3.24.86-4-1s.85-2.8 2.23-3.53a77.48 77.48 0 0 0 9.7-5.76l-13.93 2c-5.08.6-8.82 2.94-11.1 7.6-1.5 3.08-3.14 6.1-4.82 9.1-.32.58-1.1.9-1.66 1.36-.18-.72-.65-1.5-.5-2.14a35.68 35.68 0 0 1 8.79-15.73c3-3.3 7.4-4.24 11.66-4.56a122.85 122.85 0 0 1 14.36 0c1.15 0 2.26 1.14 3.38 1.75a25.47 25.47 0 0 1-2 3 18.58 18.58 0 0 1-2.62 2.06l10.7.72a4.61 4.61 0 0 1 2.09.45c1.1.74 2.87 1.68 2.9 2.58 0 1.17-1.27 2.47-2.2 3.54a8.57 8.57 0 0 1-2.48 1.3zM593.6 244.3l-8.44-3c-.42-.14-1 0-1.3-.26-.82-.52-1.54-1.2-2.3-1.8.82-.5 1.6-1.43 2.44-1.46 3.9-.16 7.8-.07 11.7-.07a22.85 22.85 0 0 0 .16-.7c-2.17-.47-4.33-1-6.5-1.38a30.51 30.51 0 0 1-3.75-.56 8.23 8.23 0 0 1-2.15-1.56c.7-.6 1.3-1.64 2.08-1.76 3.3-.5 6.64-.76 10-1.07a5.22 5.22 0 0 0 2.54-.56c-3-.5-6-1.2-9.1-1.48-4.6-.4-9.23-.44-13.84-.74a18 18 0 0 1-3.24-.8 15.34 15.34 0 0 1 1.36-3.58c1.9-2.7 4-5.23 6.07-7.83l-.7-.78a43.26 43.26 0 0 0-4.54 2.49c-3.1 2.2-6.1 4.57-9.17 6.82a24.36 24.36 0 0 1-4.11 2.61c-.63.28-1.62-.2-2.45-.35.2-.74.16-1.73.64-2.16 5.77-5.2 12-9.7 19.3-12.5 2.74-1 4.66.7 3.82 3.53a29.48 29.48 0 0 1-3.35 6.44 25.52 25.52 0 0 1-2.68 3.15c3.38.3 6.5.37 9.55.87 4.7.77 9.38 1.8 14 2.77a4 4 0 0 1 2 .85c.7.7 1.72 1.72 1.6 2.45s-1.35 1.67-2.25 1.87a37.44 37.44 0 0 1-5.64.4 14.6 14.6 0 0 1 2.87 1.6c.74.7 1.8 1.76 1.67 2.5a4 4 0 0 1-2.11 2.5 22.67 22.67 0 0 1-4.6 1.1c4.07 4 3.6 5.68-2.1 7.4-8.74 2.63-17.7 2.27-26.65 2.17l-.32-.82a13.11 13.11 0 0 1 3-1.25l20.7-2.84c1.86-.25 3.7-.58 5.55-.87zm-316.12-50.7l-7.83-.72c-10.94-1.3-20.34 1-26.32 11.27-6.07 10.43-6.15 20.8.22 31.15 3.5 5.66 9 9.1 14.2 12.85.83.6 1.54 1.36 2.3 2l-.47.6a3.21 3.21 0 0 1-1-.19c-7.18-4.13-14-8.73-19.26-15.28-7-8.77-7.37-21.83-1-32.52 5.36-9 13-14.58 23.78-14.9a21.69 21.69 0 0 1 15.3 5.72zm-19.05 71.2l1.23-10.5h.28c0 4.18.13 8.36-.12 12.53 0 .73-1.54 1.68-2.54 2-3.1 1-6.24 1.92-9.42 2.66-8.88 2.05-16.5 6.6-23.42 12.23-8 6.53-12.27 15.57-15.07 25.35a23.74 23.74 0 0 1-1.1 3.34c-.22.47-.87.74-1.32 1.1-.3-.5-.88-1-.86-1.5a37.47 37.47 0 0 1 .6-6.45c3.9-18.07 14.7-30.22 31.9-36.63a133 133 0 0 1 14.65-4.11c1.52-.34 3.2-.02 5.18-.02z" class="p"/><path d="M293.85 267.93l6.45-28.9c.2-.82 1.3-1.43 2-2.13.3.9.95 1.82.83 2.65l-3 18.27-8 60.4-5-.75.54-1.66.13-2.14.43-3.85.1-1.07.42-3.28.13-1.62.44-3.3.08-1.07.45-3.83c0-.72.1-1.44.13-2.16l.4-3.84.13-1.62.4-2.74.1-1.08.45-2.75.12-1.07.4-2.18c0-.37.08-.73.13-1.1l.93-5.13.27-2c.26-.65.4-1.35.53-2.05z" class="o"/><path d="M132 280.38l9.9.1a3.83 3.83 0 0 1 2.52 2 2.66 2.66 0 0 1-.7 2.55 3.45 3.45 0 0 1-2.84-.46c-3.5-2.42-7.36-1.64-11.05-1.2-20.23 2.4-31.2 15.65-38.35 33.22-.84 2.08-1.2 4.36-2 6.48-.3.78-1.18 1.34-1.8 2-.63-.68-1.7-1.3-1.78-2.07a10.69 10.69 0 0 1 .39-4.27c4.1-14.06 12.07-25.3 24.62-33 6.44-4.02 13.64-5.2 21.1-5.34zm340.65 198.17c.18 2.4-1.64 3.2-3.12 3.56a66.51 66.51 0 0 1-11.16 2c-3.78.28-7.6-.17-11.42-.22s-4 .17-5 3.87a62.53 62.53 0 0 1-2.14 7.27c-.3.8-1.5 1.23-2.3 1.83-.33-.85-1-1.75-.92-2.52a97.49 97.49 0 0 1 2.19-10.59c.7-2.5 2.74-3.75 5.38-3.8l21.5-.52c2.34-.06 4.6-.55 7-.87z" class="p"/><path d="M430.92 321.2a54 54 0 0 1 1.28-7.11c1.77-5.62 3.64-11.22 5.8-16.7a29 29 0 0 1 4.07-6.38 10.73 10.73 0 0 1 2.65-1.92l.68.52a19.86 19.86 0 0 1-.66 2q-5.17 11.22-10.4 22.4l-3.43 7.14z" class="j"/><path d="M605.53 350.9c-.9-2.43-2.14-4.8-2.65-7.3-1-4.7-1.56-9.47-2.12-14.23-.1-.94.7-2 1.07-3 .66.78 1.7 1.47 1.92 2.36.93 3.6 1.6 7.24 2.38 10.87a69.71 69.71 0 0 1 1.56 7.18c.14 1.3-.55 2.67-.87 4z" class="p"/><path d="M578.84 108.6a17.57 17.57 0 0 0-11.84-4.81 20.33 20.33 0 0 1-6.23-1c5.08-3.32 10.28-2.5 15.52-.67 2 1.45 4.17 2.8 6 4.42.7.6.78 1.9 1.14 2.9a22.74 22.74 0 0 1-3 0 5.88 5.88 0 0 1-1.59-.84z" class="j"/><path d="M423.52 447.8l2.2 5.05c-4.73.8-13.23-9-13.44-15.38l10.2 9.27 1.16 1.16z" class="p"/><path d="M288.88 258.53l.08 4.36-.08-4.36zm4.57 11.47l-.27 2-1-.34zm-5.52 43.67l-.13 2.14.13-2.14zm2.17-20.17c0 .72-.1 1.44-.13 2.16l.13-2.16zm.54-5.5c0 .54-.08 1.08-.13 1.62zM289 303.85c0 .54-.08 1.08-.13 1.62l.13-1.62zm-3.95-78.05l.14 1.62zm1.65 15.27l.12 1.63zm-1.1-10.37c0 .54.08 1.08.13 1.62zm-6-36.54l.15 1.08zm3.8 19.64l.13 1.1-.13-1.1zm3.84 32.73c0 .36.07.72.1 1.08l-.1-1.08zm1.2 62.22l-.1 1.07zM284 217.63l.1 1.07zm-6.6-35.45l.15 1.06zm10.38 68.17l.12 1.08zm-10.93-70.9l.16 1zm9.32 56.72l.1 1.07zm3.35 63.3c0 .35 0 .7-.08 1.07l.08-1.07zm-5.02-78.04c0 .36.07.72.1 1.1zm-8.2-44.7l.16 1.05zm14.86 107.47l-.1 1.08zm.57-3.8l-.12 1.07zm.52-3.3l-.13 1.1zM275.75 174l.17 1.06zm12.6 80.17l.12 1.07z" class="j"/><path d="M277.45,193.64l.2.13-.17-.16Z" class="p"/><path d="M430.92 321.2z" class="f"/><path d="M405.6 109.07l.8-1.18a39.87 39.87 0 0 1 5 3c3.9 3.14 8.1 5.4 13.25 5.28 1.87 0 3.6-.53 4.28-2.6l12.86-6.22 23.27-12.08c0 2.2 1.7 1.3 2.5 1.1 2.7-.72 5.3-1.76 8-2.62l14.77-4.7-.4 1.85c-4 1.5-8 3.1-12.08 4.48-10.33 3.46-20.3 7.5-28.86 14.56-3.38 2.78-7.38 4.82-11.13 7.16-1.53 1-4.26 1.28-3.46 3.73s3.35 1.5 5.2 1.1c4.45-1 8.1-3.42 11.55-6.34s7.3-5.85 11-8.77l.85.68-4.7 6.52c-7.05 3.44-10.58 9.64-12.88 16.7-.44 1.36-.33 3.08 1.74 3.57 1.66-6 5.95-13.28 9.8-16-1.5 2.8-2.7 4.88-3.7 7.07-.3.68 0 1.66.1 2.5a8.79 8.79 0 0 0 2.4-.58c1.8-1 3.5-2.2 5.26-3.3.6 1 2.95.47 2.3 2.6-.85 1.45-1.78 2.86-2.5 4.37-.25.54 0 1.32.08 2l1.9-.4L465 132l1.84 1.76-2.64 4.28.76.68 3-1.5 2.28 1.38-7.7 8a25.42 25.42 0 0 0-6.91 15.07c-.08.83.54 1.72.84 2.6.6-.65 1.57-1.22 1.76-2 1.94-7.8 6.55-14 12.27-19.26a53.89 53.89 0 0 0 13.08-18.52c2.45-5.66 4.73-11.4 7.08-17.1l.7-.08-10.76 28.74a60.78 60.78 0 0 1-10.93 18.39c-5 5.7-10.15 11.2-18 12.9l-14.52-.35-3.28.28-27 2.08c-5.64.6-11.2 1.85-16.8 2.92a10.3 10.3 0 0 0-2.69 1.43l.36.85 9.83-1.5-.75 2.48-.44 1.64c-1.05.7-2.06 1.48-3.15 2.1-7 4-14.15 7.27-22.25 3.35a67.35 67.35 0 0 1-7.83-5.06c-.58-.4-.93-1.18-1.53-1.5a11.15 11.15 0 0 0-2.35-.65 11.2 11.2 0 0 0-.15 2.23c.14 1.14.46 2.26.7 3.38l-.47 2.5-2.3 1.88a5.19 5.19 0 0 0-.45-1.09c-1.55.28-3.08.65-4.8 1a38.14 38.14 0 0 1-3.85-17l2.43-1.08-.42-2.58.8-.74c2.18.56 4.33 1.24 6.54 1.66 5.14 1 9-1.55 10.38-6.6 3.14 1.3 6.46 2.24 7.94 5.92a3.39 3.39 0 0 0 2.72 1.78 7.89 7.89 0 0 0 4.55-2.06c1.67-2 1-4.3-.64-6.17-4.9-5.57-11.34-8.23-18.42-9.52-1.16-.2-2.45.34-3.68.54l-2.3-1.46 2.87-.3.2-.4c-1.47-.62-2.93-1.28-4.43-1.83a1.72 1.72 0 0 0-1.21.14c-.38 2.25-2.3 1.4-3.58 1.83a24.88 24.88 0 0 0-4.6 1.55c-4.27 2.4-5 5.8-2.52 10.06a19.3 19.3 0 0 1 .75 1.8l-10.63-6.26c.54-.5 1-1 1.52-1.38a68.82 68.82 0 0 0 14.64-16.37c.4-.57.17-1.54.23-2.33a7.27 7.27 0 0 0-2.31.89 25.4 25.4 0 0 0-2.49 2.89c-5.72-13.9-13-27.14-13.37-42.55a99 99 0 0 1 3-28.07l.9.53 6.2 39.77c.83 5.56 1.27 11.18 2 16.76a14.19 14.19 0 0 0 1 2.79h1c.28-1.22.9-2.47.8-3.66l-1.85-20c-.06-.63-.2-1.25-.28-1.88l1.12-.07c.9 3.17 1.4 6.55 2.84 9.45 1.33 2.7 3.68 4.9 5.58 7.3l-2.45 4c.44.58.84 1.62 1.3 1.65a10.55 10.55 0 0 0 3.44-.56c7.05-2 11.93.1 15.2 6.66l1.54 3.15.67-.33a19.62 19.62 0 0 0-5.68-12.09l-4-4.23a7.32 7.32 0 0 0-1.33-7c-1.63-4.7-3.6-9.32-4.84-14.13-2.45-9.66-4.36-19.47-10.3-27.82a9.25 9.25 0 0 1 2.23 1.78c1.93 3 3.66 6 5.54 9 5.27 8.38 11 16.44 18.1 23.38l-5.87 5.34c0 .3-.06.62-.08.94l1.2-.72 8-3.74 3.07-.44c4.52.62 9.06 1.14 13.56 1.92 1.38.24 2.64 1.18 4 1.8 1.07.78 2.1 1.65 3.24 2.32 1.3.78 2.73 1.38 3.84-.45zM417 161.9l6-1.22-.1-.52-5.9 1.13-3.26.57a111.9 111.9 0 0 0-11.16 1.84c-6.63 1.75-13.18 3.83-19.7 5.93-1.35.44-3.18 1-2.67 3.66 1.78-.7 3.3-1.44 4.9-1.94l28.65-8.9zm-4.86-38.1l-.7-.53a13.81 13.81 0 0 0-9.51-2.29c-4.1.38-8.15 3.9-8.4 7.55a7.46 7.46 0 0 0 .86 2.62l2.32-.87c1 .58 1.9 1.56 2.92 1.65s2.2-.66 3.3-1.06c5.54-2 10.88-2.93 15.32 2.4a37.62 37.62 0 0 0 3.8 3.54 7.59 7.59 0 0 0-.72-4.22c-2.1-3.9-4.3-7.75-9.17-8.8zm5.6 25.8a21.06 21.06 0 0 0-12.17-6.6 14.08 14.08 0 0 0-12.15 4.08 8.23 8.23 0 0 0-1.94 3.18c-.2.65.4 1.57.65 2.36.63-.37 1.5-.6 1.86-1.13a10.21 10.21 0 0 1 9.55-4.6 41.68 41.68 0 0 1 6.1 1.14zm-67.18-7.4a7.87 7.87 0 0 0 2.34.58c4.34-.3 8.23.38 11.05 4.15.26.34 1.3.1 2 .14 0-.83.35-1.82 0-2.45-3.2-5.82-10.43-6.92-15.42-2.42zm50.4 7.74l.1 1.4 7-.78-.1-1.2zm24.05-3.1l-.32-.62a19.3 19.3 0 0 0-3.43.51c-.6.2-1 1-1.46 1.47.7.14 1.5.57 2.08.37a19.63 19.63 0 0 0 3.13-1.73z" class="e"/><path d="M357 185.45l2.3-1.88 8.2 6.22a2.28 2.28 0 0 1 .82 1.34l1.6 11.78-.54.07-3.1-1.9c-.6-1.28-1.14-1.24-1.65.05q-.5 3.06-1 6.12l.28 1.13 1 4c.64 1.83 1 4.07 2.3 5.28a21 21 0 0 0 6.83 4.09c1.5.6 3.4.1 5.14.1l.07-.82-3.2-1.25-2.9-2.07c-2.54-.65-3.63-2.44-3.82-4.92l1.26-1.22 3.3.66 7 1.6 1.1-.8c2.68-.37 3.8-2.48 5.12-4.46q8.6-13 17.24-25.88l2.17.58c1.24 0 2.87.58 3.6 0s.65-2.3.83-3.53a4 4 0 0 0-.25-1.29l1.9-1.4 1.56.32 1.2.14 9 1.17-.37-.88-2.36-1-.86-.14-.6-.16-1.55-.68-9.14-1.8c-1.5 0-2.55-.48-2.4-2.24l1.54-.3c.68 1.1 1.27 1.18 1.73-.16l2.1-.35 1.73-.17 2.63-.42 1.18-.1 2.64-.37 1.18-.15 12-1.74 3.75-.15 6.58-.33.05 2.73c.17 1.13-.07 2.7.58 3.3 2.8 2.66 4.13 6.86 8.43 7.95.9.22 1.6 1.12 2.4 1.7v.5c-.62 1.5-2.12 3.38-1.68 4.45.8 2 .07 2.9-1.08 3.93l-11.3 9.78a110.37 110.37 0 0 1-36.89 20.33c-9.68 3.2-19.64 4-29.7 4.24l-19.83-11.24c-3.87-2.32-7.65-4.43-12.38-4.08a21.54 21.54 0 0 1-4.18-.44l.25-3.8 3.25-3.72-2.56-1-2.4-2.95-2-1.75-1.67-.93-.47-.33-.5-.24-2.25-1.48-.12-1.76v-.25l3.2-.74c-1.87-2.64-4.3-2.15-6.35-2.63l.54-2.5 1-.27 1.16-.2 5.6-.88c-6.68-2.56-9.86-8.18-14.4-12.23l.66-2.53 1 .3c1.05 1.6 2.15 1.52 3.28.08 1.5-.74 3.78-.37 4.1-2.82l2.5-.83 3.2.32c.8 1.57 1.77 1.17 2.8.27l3.2.27 3.7 3.7.3 2.66.26 1.7.33 1.56.24 1.17c.77 2.1 1.45 4.26 2.33 6.3 1.43 3.32 2.74 3.65 5.83 1.66zm69.76-7l-1.65-.2-.07.43 1.72.36 2.42.47.07-.44zM400.1 210l.48-1.8-.73-.14-.28 1.82c-3 4.2-6.68 7.68-11.7 9.65 3.53 2.97 10.7-2.88 12.24-9.54zm30.22-30.4l.13.36.9-.15v-.2z" class="q"/><path d="M312.6 145.24l-.23-.4c1.78-1.7-1.16-1.24-1-2.2-1.52-5-2.76-10.17-4.63-15.08-4.6-12.1-4.82-24.45-2.8-37l4.62-29.58a11.1 11.1 0 0 0 0-1.63.44.44 0 0 1 0-.3q1.1-3.9 2.2-7.78l6.53 4.82-.6 3.43v-.06l-.58 1.7c-1.56 5.3-3.65 10.5-4.57 15.9a151.69 151.69 0 0 0-1.39 43.38c.84 7 3.7 13.8 5.66 20.7l1.17 4.1a8.56 8.56 0 0 0-2.33-.77 5.23 5.23 0 0 0-1.82.69zm42.5-26.56c-1.9-2.4-4.25-4.6-5.58-7.3-1.44-2.9-1.93-6.28-2.84-9.45l-2.15-8.68-4.83-21.67-.58-12.48c0-.6.68-1.25 1.05-1.87l5.6 7.77 1.63 4.25c1.8 5.07 3.78 10.1 5.35 15.26 1 3.27 1.05 6.84 2.15 10.07a125.53 125.53 0 0 0 5.75 13.65c.4.87 2.1 1.13 3.2 1.67a7.35 7.35 0 0 1 1.32 7c-3.7-1.27-6.9.2-10.07 1.78zm-3.5-18.24c-.26 4.2 2.8 8.5 6 8.64z" class="h"/><path d="M298.87 36.23l.43 5.18-.05.75-15.3-2.44c-1.93-.27-2.9-1-2.76-3.08.3-4.15 0-8.42.86-12.44a16.17 16.17 0 0 1 4.31-7.28 7.76 7.76 0 0 1 9.08-1.64c2.7 1.23 4.2 5 3.83 8.2-1.9.08-3.88-.33-5.33.37-1.7.82-1.73 4.92-.72 7 1.13 2.38 2.1 4.8 5.5 4z" class="r"/><path d="M374.6 102.1c-7.14-6.94-12.84-15-18.1-23.38l-5.54-9a9.39 9.39 0 0 0-2.22-1.78l-2-3-.84-3a4.4 4.4 0 0 0 .39-.35h1.06l1.06.67.46.56q11.87 15.06 23.73 30.13c2.06 2.62 4 5.34 6.12 8.22zm-58.82-62.78c3.6-1.6 7.3-3 9.34-7.56l-6.45 2.6a8.33 8.33 0 0 1 .39-1.29c1.6-3.55 2.56-7-1.2-9.93-.44-.34-.54-1.1-.8-1.67 1.57.1 3.14.28 4.7.3 1.1 0 2.23-.14 3.66-.25 2 2.27 1.86 5.3 1.34 8.23a35.22 35.22 0 0 1-2.22 7.55c-2 4.8-4.34 9.5-6.58 14.33l-5.4-4.38q1.6-3.96 3.2-7.94z" class="c"/><path d="M330.1 168.08c-.33 2.45-2.6 2.08-4.1 2.82l-3.28-.08-1-.3-3.27-1.5-1.6-1.17h-.25s-.07 0-.1.06l.38-.1.88 1.92L321 173c4.54 4.05 7.72 9.67 14.4 12.23l-5.6.88-1.16.2-1 .27-5.83 2 .2.5h5.1c2.06.48 4.48 0 6.35 2.63l-3.2.74-2.73-1.45h-11.2c.6-2.5 3.05-4 12.94-7.44l-5.68-4.77a81.85 81.85 0 0 1-8.09-7.58c-1.5-1.75-2.12-4.26-3.14-6.43l.6-.92 6.44-.16c1.47-.13 1.84.64 1.55 1.94l-2.7-.22c3 2.24 6 4 10.36 3.25l-1.53-1.13 2.16-.77z" class="g"/><path d="M309.67 19.08c-1.53-2.88-3.38-3-4.95-.3a50.38 50.38 0 0 0-2.29 5c-.5-2.18-.72-4.63-1.7-6.7s-2.7-3.75-4.25-5.82c2.07-2.88 4.08-6.72 8.76-6.54 3.26.13 5.4 2.5 6.44 5.52 1.12 3.26.3 6.18-2.02 8.84z" class="l"/><path d="M360.1 149.56c1.23-.2 2.52-.75 3.68-.54 7.08 1.3 13.53 3.95 18.42 9.52 1.65 1.88 2.3 4.2.64 6.17a7.89 7.89 0 0 1-4.55 2.06 3.39 3.39 0 0 1-2.72-1.78c-1.48-3.68-4.8-4.62-7.94-5.92-.32-1.87.75-1.64 1.94-1.32a49 49 0 0 0 8.77 1.77z" class="h"/><path d="M317.07 21.47c.26.57.36 1.33.8 1.67 3.75 2.94 2.8 6.38 1.2 9.93a8.33 8.33 0 0 0-.39 1.29l-7.8 2.2.78-4.44c.1-.72.45-1.74.12-2.1a2.6 2.6 0 0 0-2.17-.57 45 45 0 0 0-4.7 1.65c-.6-1.52-.7-2.46 1.3-2.9a4.42 4.42 0 0 0 2.68-2.05c1.68-3.56 4.74-4.4 8.2-4.67z" class="r"/><path d="M318.15 159a15.06 15.06 0 0 0 2.49 0c9.37-2.14 16.56 4.22 25 5.77l-.1.9a7.11 7.11 0 0 1-1.56.24l-17.6-1.33c-3.52-.34-5.73-2.82-8.24-5.57z" class="l"/><path d="M322.4 6.46c3.26 4.12 3.44 8.65.52 12.26l-5.2-1.22c3.25-4.72 3.25-4.72-1.25-8.18-.3-.22-.6-.4-.9-.6h.08l-.42-.47L314.1 6l3.3-1.17 3.73.56z" class="c"/><path d="M315.78 39.32q-1.6 4-3.2 7.94L303 43.2l.1-1c.52-.13 1.22-.08 1.54-.4 3.2-3.2 7.37-1.9 11.15-2.46z" class="l"/><path d="M312.6 145.24l.3-.1c4.6 1.52 6.82 5.1 8.17 9.76l-6-1.7q-1.25-3.98-2.48-7.95z" class="c"/><path d="M339.7 71.58l4.83 21.67 2.15 8.68-1.12.07q-2.92-15.2-5.86-30.42z" class="b"/><path d="M405.6 109.07c-1.1 1.83-2.55 1.23-3.9.44-1.14-.67-2.17-1.54-3.24-2.32l-2.88-4-2.2-2.65.52-.55 2.9 2.1z" class="c"/><path d="M315.57 8.72l.9.6c4.5 3.46 4.5 3.46 1.25 8.18l-2.15.28z" class="l"/><path d="M354.9 154.1c3.72-1.5 8.54.7 10.36 4.57zm-17.15-99.58c-4.83-4.13-5.52-10.47-1.9-15.7-2.37 5.6-.43 10.66 1.9 15.7zm-10.7 112.98l1.53 1.13c-4.34.78-7.4-1-10.36-3.25l2.7.22zm1.67-10.15c5-3.13 7.1 1.57 10.4 2.3l-.25.87z" class="b"/><path d="M345.85 61.9l.84 3-.93.1-5.6-7.76.05-1.18.82.13z" class="n"/><path d="M322.87 150.52l5.74 3.3-4.38 1.7-1.36-5.02z" class="b"/><path d="M345.85 61.9l-4.8-5.7h1.55l3 2.8.62 1v1.6a4.4 4.4 0 0 1-.36.29z" class="c"/><path d="M309.08 152.73l-6-1.7v-1l6.1 1.65z" class="f"/><path d="M345.48 171.82l-3.7-3.7h3.7z" class="e"/><path d="M298.87 36.23l-.15-1.35 1.7-3.2h.46c1.58 2.5-1.13 3.1-2 4.55z" class="b"/><path d="M381,103.47l-3.07.44Z" class="j"/><path d="M303.12 42.23l-.1 1-3.78-1 .05-.75z" class="b"/><path d="M316.27 156.88c0-.5-.1-1-.14-1.53l3.62.87z" class="c"/><path d="M342.6 56.15h-1.55l-.82-.13-.46-1.2.37-.4z" class="b"/><path d="M330.1 168.08l-.87-1.36 3.37.53z" class="e"/><path d="M321.1 5.44l-3.73-.56z" class="b"/><path d="M392.9 100.3l-2.3-2.18.52-.56 2.43 2c-.2.28-.43.5-.64.74z" class="d"/><path d="M338.57 167.84c-1 .9-2 1.3-2.8-.27z" class="e"/><path d="M336.75 68.2l-.9-.53.55-2.2.34.1zm-20.02-8.7l.6-3.43-.6 3.43zm34 104.5l-.8.74-1.67-1.2.36-.63z" class="b"/><path d="M300.87 31.67h-.46v-3.1h.46z" class="d"/><path d="M346.24 61.54v-1.6l1.15 1.6z" class="b"/><path d="M346 176.18l-.26-1.7c.12.57.26 1.14.26 1.7z" class="e"/><path d="M322.4 6.46l-1.34-1z" class="b"/><path d="M346.6 178.9l-.24-1.17z" class="e"/><path d="M369.85 107.65l-1.2.72c0-.32.05-.63.08-.94z" class="f"/><path d="M316.18 61.15l.58-1.7-.58 1.7zm32.18 1.03l-1.06-.67zM346.2 60l-.62-1z" class="b"/><path d="M392.9 100.3l.64-.7.36.4-.52.55z" class="c"/><path d="M315.23,8.3l.42.47Z" class="l"/><path d="M336 37.78h.16a1 1 0 0 1 .08.18h-.32zm4.06 122.82l-.1.17-.3-.2.2-.18zm.9.5l.07.12h-.15l.08-.1z" class="d"/><path d="M348.78 62.7l-.46-.56z" class="b"/><path d="M455.7 183.27c-.8-.6-1.5-1.5-2.4-1.7-4.3-1.1-5.64-5.3-8.43-7.95-.65-.62-.4-2.18-.58-3.3l7.22-2.9h.17c7.84-1.72 13-7.22 18-12.9a60.78 60.78 0 0 0 10.93-18.39l10.76-28.73.83-3.26.58-1.4 6.44-13.92a14.52 14.52 0 0 0 .64-3.2v-.83l3.4-.37-4.5 15.87c-4.7 16-9.22 32.08-16.42 47.24-4.32 9.07-9.13 17.6-18.54 22.4a7.37 7.37 0 0 1-3 .87c-4.8.1-9.6 0-14.52.4 3 .82 6 1.8 9.07 2.43s6.44 1.1 9.68 1.52 6.45.73 10.38 1.17c-.9.85-1.32 1.5-1.9 1.75l-14.65 5.66c-1.4.5-1.4.9-.32 1.7l-.86 1.05 5.16.68c2.24 2.6 4.73.72 7.13.4l10.75-1 .2.82a62.9 62.9 0 0 1-19 11.89c-2.25.85-4.77 1-7.1 1.7-.86.27-1.5 1.25-2.23 1.9.82.56 1.65 1.62 2.45 1.6 4.05-.17 8.1-.62 12.13-1l.65.84A67.21 67.21 0 0 1 449.71 215l-1.44.5-1.33.42-7.1 1.17c-1.42.22-2.1.8-1.13 2.24l2.37 1.14h3.7l2-.15 1.87 1.73c-.25.26-.46.63-.77.76-15.55 6.46-31.3 11.1-48.2 5.25l-1.26-.1 1.08 1.25 3.76 1.6 1 1c-2.14-.24-4.28-.56-6.43-.7-7.82-.48-15.68-.63-22.8-4.6 10.06-.27 20-1 29.7-4.24a110.37 110.37 0 0 0 36.89-20.33l11.3-9.78c1.15-1 1.9-2 1.08-3.93-.44-1.07 1.06-2.94 1.68-4.45z" fill="#7b72f8"/><path d="M589.5 61.14h2.43c2.54.27 4.16 2.25 3.17 4.5-.88 2-2.6 3.58-4 5.35-.78-2.4-2.35-2.83-4.56-1.87a4.45 4.45 0 0 1-1.64.07l-.67-2.2-.88 2.24a9.58 9.58 0 0 1-1.18 5.51c-.66 1.2-.17 3-.2 4.58q-2.17 7.62-4.34 15.22c-9.22-3.2-18.2-2.5-27.14 2 .17-2.23.4-4.1.44-6a25.92 25.92 0 0 0-4.77-15.37c-2.67-3.87-2-7.24.7-10.66 3.7-4.68 7.93-8.27 14.43-7.62l2.3 4.05.37 2-3.27 3.2c-1.45 1.33-3 2.6-4.42 3.9-1.68 2.93-1.38 6 1.33 7.27a16.65 16.65 0 0 0 8 1.73c5.52-.5 9-5.4 9.45-12.13 1.14-.14 2.9.13 3.33-.5 2.77-3.8 7.4-3.52 11.1-5.3z" class="e"/><path d="M562.3 52.9l-11.7 1.66c-1.85-2.84-1.55-7.83 1.1-11.24 3.78-4.88 8.2-6.2 13.88-4.15-.25 4.77-.5 9.55-3.26 13.73z" class="r"/><path d="M577.68 94.6q2.16-7.6 4.32-15.22c1.88 1.35 3.46.82 5.1-.6a11.67 11.67 0 0 1 3-1.36l-5.88 21.47zm-1.02-54.43c3.54-1.52 7-1.36 9.9 1.24 3.16 2.8 4.62 9.56 3.13 13.43a5.93 5.93 0 0 1-5.92 4.06l-1.33-4.18c.33-1.84 1-3.7.9-5.52-.2-4.4-2.33-7.6-6.67-9.03z" class="c"/><path d="M575.12 67.07c-.45 6.74-3.93 11.64-9.45 12.13a16.65 16.65 0 0 1-8-1.73c-2.7-1.24-3-4.34-1.33-7.27l.27.23.48 1.06c.63 2.17 2.5 2.16 4.16 2.17 5.46 0 9.1-2.67 10.77-7.8.16-.5.36-1 .62-1.66z" class="h"/><path d="M576.66 40.17c4.35 1.44 6.46 4.64 6.67 9 .1 1.82-.57 3.68-.9 5.52-3.07-1.24-6-1.8-8 1.8-.05.1-.72-.14-1.1-.22l-1.68-1.9a10.64 10.64 0 0 0 2.13-9.2c-.5-2.55.47-4.16 2.88-5z" class="r"/><path d="M562.3 52.9c2.76-4.18 3-9 3.26-13.73 1.68 1.1 4.74 2.16 4.77 3.3.08 3.65 1.28 7.88-2.26 10.7l-2-2.5-2.2 2.72z" class="c"/><path d="M446.8 220.3l-2 .15h-3.7l-2.37-1.14.8-.7a75.93 75.93 0 0 0 9.19-.42c4.6-.75 8.93-2.32 11.95-6.25l4.44-1.9-10.26 9.9a15.5 15.5 0 0 1-2.38 1.56l.1-1.57 1.2-1.4z" class="n"/><path d="M556.33 70.2l4.42-3.9 3.27-3.2 4.82 2.55c-.46 2.33-2.34 3.78-4.76 4.47s-4.68.9-7 1.35l-.48-1.06z" class="c"/><path d="M460.64 212c-3 3.93-7.35 5.5-11.95 6.25a75.93 75.93 0 0 1-9.19.42c.14-.23.3-.46.44-.7l7.05-1 10.35-3.48a35.11 35.11 0 0 0 3.3-1.5z" class="b"/><path d="M563.65,61.06,561.34,57l4.17.48Z" class="c"/><path d="M447,217l-7.05,1-.1-.86,7.1-1.17Z" class="g"/><path d="M571.68 54.4l1.68 1.9a19.52 19.52 0 0 0-2-.1 10.19 10.19 0 0 0-1.53.26l-.2-.63zM467.85 204.35l-.65-.84 1.87-.63.22.4z" class="b"/><path d="M583.4 69.28l.88-2.24.67 2.2z" class="i"/><path d="M480.9 187.4l-.2-.82 2.3-.6z" class="b"/><path d="M448.27 215.5l1.44-.5z" class="g"/><path d="M469 280l.82-.2-.26.8z" class="s"/><path d="M482.93 186l.46-.1a2.36 2.36 0 0 0-.46.1z" class="b"/><path d="M591.4 78.24l.3.87-.3-.87z" class="c"/><path d="M619.1 136.25c3.87-2.84 7.77-5.34 10-9.67 1-1.94 1.77-4 2.77-5.9.75-1.47.18-2.13-1-3.1-4.05-3.33-8.5-6.4-11.74-10.42-8.7-10.7-7-23.17 3.8-31.9 9.37-7.6 20.4-10.9 32.06-12.5 10-1.36 20.22-1.6 30.1.54 15 3.25 29.57 7.82 40.56 19.5 6 6.43 9.54 13.83 6.5 22.84-2.38 7.1-7.76 11.72-14 15.35-9.12 5.3-19.12 7.74-29.52 8.8a104.2 104.2 0 0 1-35.65-2.74 5.05 5.05 0 0 0-3.45.69 54.29 54.29 0 0 1-28.57 8.59c-.66.01-1.26-.06-1.87-.1zm57.74-7.5c12.17-1.66 23.8-4.6 34.48-10.58 4.94-2.76 9.64-5.87 12.42-11 .44-.82.24-2 .34-3-.94.28-2.12.28-2.78.87-10.6 9.4-23.43 13.47-37.07 15.54-4.3.66-8.64 1-12.9 1.8a3.84 3.84 0 0 0-2.45 2.6c-.12.72 1.26 2.1 2.25 2.5a34.67 34.67 0 0 0 5.71 1.28z" class="q"/><path d="M499.86 84.85v.83a18.38 18.38 0 0 0-2.65 1l-7.25 4.18.4-1.85-14.77 4.7-8 2.62c-.8.22-2.5 1.1-2.5-1.1 10.85-5.97 22.56-9 34.77-10.4zM429 113.57c-.7 2.07-2.4 2.55-4.28 2.6-5.15.13-9.34-2.14-13.25-5.28a39.87 39.87 0 0 0-5-3l-1-3.3.48-.3 2 2.3c2 2.23 3.3 2 4.44-.66.17-.4.4-.75.7-1.3 3.9 5.62 9.32 8.36 15.9 8.93z" class="c"/><path d="M506.8,77.67l-.14.16c-.05-.06-.13-.12-.12-.17s.08-.1.13-.15Z" class="d"/><g class="q"><path d="M129.16 99.22c3.2-4.4 6.25-8.87 7.37-14.4.5-2.46 0-3.4-2.62-4.08a49.61 49.61 0 0 1-11.64-4.37c-8.84-4.92-11.46-13.68-7.22-22.88 3.25-7.06 8.68-12.23 14.92-16.62a81.57 81.57 0 0 1 36.42-14.23c11.08-1.48 22.28-1.86 32.86 3a33 33 0 0 1 6.31 3.71c6.9 5.3 8.6 13.07 4.75 21.18-3.94 8.27-10.6 14-18.22 18.63a88 88 0 0 1-41.4 12.91 5.25 5.25 0 0 0-3.42 2 53.92 53.92 0 0 1-15.22 14.2 15.86 15.86 0 0 1-2.73 1.09zm34.93-21.9a29.81 29.81 0 0 0 4.55-1.4c4.94-2.3 9.84-4.66 14.68-7.15a66.6 66.6 0 0 0 19.84-16 48.87 48.87 0 0 0 5.66-8.59c.5-.92-.17-2.47-.3-3.73a10.58 10.58 0 0 0-2.82 1.81c-8.52 10.65-18.08 19.9-31.4 24.37-4.2 1.4-8.45 2.75-12.6 4.35-1.68.65-4.25 1.5-3.4 3.77.46 1.24 3 1.73 4.57 2.53.12.1.35.04 1.2.04z"/><path d="M129.32 99.38l-.5.13.34-.3z"/></g><path d="M33.84 133.84c-.53-5.3.84-10.78 2.84-16.1-4-.9-7.72-1.6-11.35-2.66a25.17 25.17 0 0 1-6.15-2.82c-7.13-4.48-8.18-11.4-3-18.08C21 88 27.56 84.37 34.58 81.5c10.05-4.1 20.55-6.28 31.42-4.9A59 59 0 0 1 82.64 81c8.5 3.83 9.9 11.76 4.17 19.08-4.7 6-11.18 9.57-18.12 12.1-5.5 2-11.36 3-17 4.6a9.49 9.49 0 0 0-4.25 2.12c-4.68 4.9-9.13 10-13.6 14.95zm22-20.26c9.66-2.24 19.52-4.63 26.53-13a4.39 4.39 0 0 0 1.22-2.36 10.33 10.33 0 0 0-.89-3.08c-.85.3-1.92.36-2.52.92a30.89 30.89 0 0 1-15.12 8.1c-4.06.87-8.18 1.56-12.16 2.72-1.15.33-2.67 2.06-2.63 3.1s1.74 2.13 2.87 3c.6.44 1.57.38 2.7.6z" fill="#fcfcfe"/><path d="M715.38 187.08l-.76-11.42a6.09 6.09 0 0 0-.28-1.32c-.73-2.55-1.7-4.17-5-4.5-10.33-1-20.08-4-28.43-10.55-2.67-2.08-5.4-4.52-4.78-8.3s4.1-5.15 7.37-6a49.78 49.78 0 0 1 35 3.14c5.5 2.6 11 5.34 14.8 10.35 2.78 3.64 2.2 6.86-1.88 9a26 26 0 0 1-6.66 2.19c-1.72.36-2.32 1-2.5 2.78-.55 5.53-3.04 10.2-6.88 14.6zm6.08-20l.15.45c2.1-.72 4.34-1.16 6.2-2.25 1-.58 1.3-2.28 1.94-3.47-1.3-.6-2.6-1.74-3.9-1.7a15.63 15.63 0 0 0-6 1.44c-1.4.63-3.42 2.07-3.4 3.12 0 2.1 2.32 2.32 4.17 2.42.28-.03.55-.08.82-.08z" fill="#fcfbfe"/><path d="M256 98.55c-2.8-3-5.78-5.83-8.3-9-1.13-1.43-1.84-1.7-3.48-1.18-9.54 2.94-19.1 3.34-28.52-.48-4.64-1.88-8.75-4.63-9.4-10s2.53-9.23 6.67-12c12.76-8.53 26.5-10.07 41-5.14a13.64 13.64 0 0 1 2.2 1.09c7.7 4.27 9 11.88 2.7 18-4 3.86-4 8.26-3.34 13a45.36 45.36 0 0 0 1.31 5.16zM231.9 88.5l15.78-4.75a7.94 7.94 0 0 0 3.45-2.92 3.27 3.27 0 0 0-.17-2.86c-.2-.37-1.77-.22-2.6.06-3.66 1.24-7.22 2.77-10.92 3.84-2 .57-4.17.23-6.2.6-1.78.33-4.43.47-4.28 2.85s2.76 2.33 4.9 3.17z" fill="#fcfcfe"/><path d="M469.94 187.6c-2.4.32-4.9 2.2-7.13-.4z" class="l"/><path d="M375.06 226.5c7.1 4 15 4.12 22.8 4.6 2.15.14 4.3.46 6.43.7l5.25 1.17c-6.16 4.88-13.14 6.08-20.74 4.78-7.14-1.22-13.24-4.4-19.18-8.53-6.52-4.55-13.73-8.1-20.67-12.07a16.54 16.54 0 0 0-5.11-1.93l3.8 6.87 3.35 6 5.65 11a3.33 3.33 0 0 1 .36 1.3c.1 1.46.93 3.42-1.17 3.9s-2.28-1.6-2.7-3c-.67-2.25-1-4.63-1.87-6.8-1.07-2.74-2.48-5.34-3.8-8l-5.9-11.47a3.14 3.14 0 0 0-1.56-1.12 30.82 30.82 0 0 1-4.76-1.82c-.75-.45-1-1.8-1.38-2.75-.08-.2.14-.53.06-.74-1.43-3.5-1.43-3.5 2.16-4.86a9.46 9.46 0 0 0 1.06-.64 48.7 48.7 0 0 1-5-2c-1.6-.84-3.72-1.57-2.5-4.18h.72l.53.5c1.9 3.45 5.7 3.42 8.75 4.75l2.56 1-3.25 3.72-.25 3.8a21.54 21.54 0 0 0 4.18.44c4.73-.35 8.5 1.76 12.38 4.08 6.48 3.96 13.17 7.56 19.8 11.3z" class="i"/><path d="M452.53 219.94l-.1 1.57-17.94 14c-1.14.9-2.16 1.93-3.24 2.9l-.78.93a16 16 0 0 0-1.66.67c-2.5 1.4-4.7 3.36-7.94 3.13-2.14-.15-3.55 1.1-4.08 3.43a28.77 28.77 0 0 1-2.06 4.93 1 1 0 0 0-.52 0l1-6.77h-8v-.84l10.08-3.9a33.9 33.9 0 0 0 13.11-9.35l-3.6.74-8.35 1s-5.6.2-8.38.3l-6.73-1.87-3.76-1.6.18-1.16c16.9 5.84 32.64 1.2 48.2-5.25.3-.13.52-.5.77-.76zm-14.28 8.6l1-.5.65-.42-.6.45-1 .48-.52.3.18.16zm-4.58 1.26l-2.1.28.07.5h2c2.22 2.3 2.27-1.13 3.5-1.56z" class="o"/><path d="M348.86 222c1.53-1.73 2.4-.28 3.5.64 4.8 4 9.34 8.36 14.56 11.7 6.92 4.42 14.3 8.18 22.74 9.06a9.73 9.73 0 0 1 2 .72c-9.14 2.3-17.58 1-25-4.23-5.3-3.7-10-8.27-15-12.46z" class="j"/><path d="M407.2 244.7h8l-1 6.77-.53 1.65c-5.2-.16-10.44-.1-15.62-.57-2.35-.2-4.64-1.35-6.9-2.2-.43-.16-1-1-.9-1.36a2.39 2.39 0 0 1 1.28-1.46c3.68-1.18 7.4-2.24 11.1-3.34.14.1.28.23.43.33z" class="h"/><path d="M307.24 58.8a23.73 23.73 0 0 1-2.9-.89l-15.82-7.13a3.62 3.62 0 0 1-1.41-.77 34.32 34.32 0 0 1-1.86-3c1.12 0 2.45-.45 3.34 0 5.8 2.93 11.5 6 17.2 9.15a10 10 0 0 1 1.9 1.84z" class="k"/><path d="M414.74 251.47a28.77 28.77 0 0 0 2.06-4.93c.53-2.34 1.94-3.58 4.08-3.43 3.25.23 5.43-1.74 7.94-3.13a16 16 0 0 1 1.66-.67c0 .26.2.6.1.76-4.24 5.57-8.25 11.45-16 12.58.07-.4.1-.8.16-1.18z" class="h"/><path d="M370.6 251.75c0-2.68 1.08-3.23 2.85-3l4.37.48a17.59 17.59 0 0 1 3.43.61 3.47 3.47 0 0 1 2.58 4.2c-.4 2.25-2.16 2.7-3.92 2.33a37.55 37.55 0 0 1-7.41-2.34c-.97-.4-1.5-1.8-1.9-2.28z" fill="#8076fd"/><path d="M426.74 231.35l3.6-.74a33.9 33.9 0 0 1-13.11 9.39l-10.08 3.9-4.1.66c-.15-.1-.3-.22-.43-.33z" class="h"/><path d="M330.86 197.45l-.53-.5-1.06-1.13a11.41 11.41 0 0 1-2.18-1c-1.66-1.2-1.73-2.25.52-2.8l.7 1.15 2 1.37 2.25 1.48.5.24.47.33-.86.78-1.05.08z" class="g"/><path d="M303.1,150.05v1l-10.24-2.84.14-.6Z" class="d"/><path d="M348.86,222l2.77,5.42-.64.65-3.35-6Z" class="b"/><path d="M403.28,230.78l6.73,1.87-.48.32-5.25-1.17Z" class="g"/><path d="M313 163.8l-.6.92-8-.83v-.1zm-12.34-25.97l5.5 2.48-.4.86-5.45-2.67z" class="d"/><path d="M310.2 143.4l-4.3-2.1.42-.82 3.87 1.83.01 1.1z" class="f"/><path d="M328.3 193.15l-.7-1.15-.1-1.05 2.7 1.56v.25z" class="n"/><path d="M310.2 143.4v-1.1l1.18.32c-.16 1 2.78.5 1 2.2z" class="i"/><path d="M414.74 251.47l-.14 1.18-.9.48.53-1.65a1 1 0 0 1 .52-.01z" class="f"/><path d="M290.45 147.4h1.48v.23h-1.48z" class="d"/><path d="M329.27 195.8l1.06 1.13h-.72z" class="n"/><path d="M308.6 59a.44.44 0 0 0 0 .3l-1.43-.6.37-.63zm-9.9 78.48l1 .1-.15.4-.85-.54z" class="d"/><path d="M430.48,239.34l.78-.93Z" class="h"/><path d="M298.74 137.44c-.3 0-.6-.08-.13 0-.38-.3-.15-.1.1.06z" class="d"/><g class="s"><path d="M423 447.3l-.58-.58zm.56.54l-.58-.58zM591.4 325.62a.63.63 0 0 1-.1.2h-.15l.28-.18zm-8.68 46.95l.18-.33v.17a.86.86 0 0 1-.23.13zm3.43 2.33l-.55.08.3-.3zm1.97 3.1l.34-.2-.2.36zM264 451.52l.67.33-.1.25-.84-.3zM52.93 283.66l.18-.33v.18a1.23 1.23 0 0 1-.23.11z"/><path d="M52.9 283.62l-.4.7-.35-.35.8-.3zm4.58 2.96l-.62.1.3-.4zm1.9 4.07l.37-.3c0 .2-.05.4-.07.6z"/></g><path d="M370 202.9l-1.6-11.78a2.28 2.28 0 0 0-.82-1.34l-8.2-6.22.47-2.5a35.28 35.28 0 0 1 3.9 1.5c3.5 1.8 6.73 4.6 10.42 5.4 7.33 1.6 14.32-.3 20.75-4.33 2.06-1.3 4-2.32 3.94-5.1l-2.45-1.32.44-1.64a12.15 12.15 0 0 1 9.91 4.19c1.06 1.2 1.3 2.35-.06 3.5l-2.17-.58q-8.62 12.93-17.24 25.88c-1.3 2-2.44 4.1-5.12 4.46l-1.1.8-7-1.6c-1.1-.24-2.2-.44-3.3-.66l-2.34-.77 1.08 2c.2 2.48 1.28 4.27 3.82 4.92l2.9 2.07 3.2 1.25-.07.82c-1.73 0-3.64.48-5.14-.1a21 21 0 0 1-6.83-4.09c-1.3-1.2-1.66-3.45-2.3-5.28-.46-1.3-.7-2.66-1-4l-.28-1.13q.48-3.06 1-6.12l1.65-.05 3.1 1.9.52.6zm16.45 4l-4.92-4.3-.9.3a33.27 33.27 0 0 0-.36 5.7 3.57 3.57 0 0 0 1.87 2.55c.55.23 1.8-.84 2.5-1.55a16.26 16.26 0 0 0 1.74-2.72zm-19.63-2.4l-.57.4c.52 1-.9 3.45 2.5 2.52z" fill="#070708"/><path d="M470.25 138.62l-2.25-1.38c1.3-1.7 3.3-3.5 1.5-5.6-.66-.78-3-.14-4.54-.15l-1.26-.53 3.64-5c1-1.58 1.77-3.74 0-4.9-1.25-.8-3.34-.57-5-.4-1.2.14-2.32 1-3.94 1.67l1.37-4.7c.45-1.6.12-2.87-1.5-3.6l4.7-6.52 2.5-2.86v.05l.6-.55.87-.57 11.9-6.47.2-.1 1.2-.5 1.66-.45 13.5-5.94a6.6 6.6 0 0 1-1 2.85l-9.18 17.84c-3.24 6.67-6.1 13.55-9.43 20.17-1.48 2.76-3.73 5.1-5.6 7.63z" fill="#7b72f8"/><path d="M470.25 138.62c1.86-2.53 4.1-4.87 5.5-7.64 3.34-6.62 6.2-13.5 9.43-20.17 2.92-6 6.1-11.9 9.18-17.84a6.6 6.6 0 0 0 1-2.85l-13.5 5.94-1.66.45-1.2.5-.13-.1-.07.2-11.9 6.47-.87.57-.6.55v-.05l-3.36 2.18-11 8.77c-3.6 3.04-7.1 5.38-11.55 6.34-1.84.4-4.37 1.45-5.2-1.1s1.93-2.77 3.46-3.73c3.75-2.34 7.75-4.38 11.13-7.16 8.56-7.07 18.53-11.1 28.86-14.56 4.07-1.37 8.06-3 12.08-4.48l7.25-4.18a18.38 18.38 0 0 1 2.65-1 14.52 14.52 0 0 1-.64 3.2l-6.44 13.92-.58 1.4-1.54 3.33-7.08 17.1a53.89 53.89 0 0 1-13.08 18.52c-5.72 5.26-10.33 11.45-12.27 19.26-.2.75-1.16 1.32-1.76 2-.3-.87-.92-1.76-.84-2.6a25.42 25.42 0 0 1 6.91-15.07c2.62-2.84 5.25-5.47 7.82-8.14z" class="i"/><path d="M396.36 177.22l2.45 1.32c0 2.8-1.88 3.8-3.94 5.1-6.43 4-13.42 5.92-20.75 4.33-3.7-.8-6.93-3.6-10.42-5.4a35.28 35.28 0 0 0-3.9-1.5c-.24-1.12-.56-2.24-.7-3.38a11.2 11.2 0 0 1 .15-2.23 11.15 11.15 0 0 1 2.35.65c.6.33.95 1.12 1.53 1.5a67.35 67.35 0 0 0 7.83 5.06c8.1 3.92 15.27.68 22.25-3.35 1.1-.63 2.1-1.4 3.15-2.1z" class="h"/><path d="M458.25 114c1.62.72 1.95 2 1.5 3.6l-1.37 4.7c1.62-.7 2.74-1.53 3.94-1.67 1.67-.18 3.76-.42 5 .4 1.8 1.16 1 3.32 0 4.9-1.06 1.75-2.4 3.34-3.64 5l-1 1.58-1.9.4c0-.67-.33-1.45-.08-2 .7-1.5 1.64-2.92 2.5-4.37l2.3-3.67-.5-.83-4 1.9-5.26 3.3a8.79 8.79 0 0 1-2.4.58c-.05-.84-.4-1.82-.1-2.5 1-2.2 2.2-4.27 3.7-7.07-3.85 2.77-8.14 10.08-9.8 16-2.07-.5-2.18-2.2-1.74-3.57 2.27-7 5.8-13.2 12.85-16.64z" class="k"/><path d="M345.76 65l.93-.1 2 3c5.92 8.35 7.83 18.16 10.28 27.82 1.23 4.8 3.2 9.43 4.84 14.13-1.1-.54-2.8-.8-3.2-1.67a125.53 125.53 0 0 1-5.75-13.65c-1.1-3.23-1.16-6.8-2.15-10.07-1.57-5.16-3.54-10.2-5.35-15.26-.48-1.4-1.06-2.8-1.6-4.2z" class="i"/><path d="M412.1 123.8c4.86 1 7.07 4.9 9.17 8.8a7.59 7.59 0 0 1 .72 4.22 37.62 37.62 0 0 1-3.8-3.54c-4.44-5.32-9.78-4.42-15.32-2.4-1.1.4-2.23 1.16-3.3 1.06s-1.95-1.07-2.92-1.66c.84-2.58 2.36-4.6 5.23-4.7a48.59 48.59 0 0 1 7.17.75c1.26.16 2.5.42 4.12.7l-1.08-3.25z" class="h"/><path d="M417.7 149.6l-8.1-1.6a41.68 41.68 0 0 0-6.1-1.14 10.21 10.21 0 0 0-9.55 4.6c-.37.54-1.23.76-1.86 1.13-.24-.8-.86-1.7-.65-2.36a8.23 8.23 0 0 1 1.94-3.18 14.08 14.08 0 0 1 12.15-4.05 21.06 21.06 0 0 1 12.17 6.61z" class="k"/><path d="M416.9 170.42l-2.63.42-1.73.17-2.1.35-1.73.16-1.54.3-4.48.58-5.16.7-9.83 1.5-.36-.85a10.3 10.3 0 0 1 2.69-1.43c5.6-1.07 11.16-2.33 16.8-2.92 9-.94 18-1.4 27-2.08l.05.73-12 1.74-1.18.15-2.64.37z" class="g"/><path d="M412.1 123.8l1.08 3.25-4.12-.7a48.59 48.59 0 0 0-7.17-.75c-2.87.08-4.4 2.1-5.23 4.7l-2.32.88a7.46 7.46 0 0 1-.86-2.62c.26-3.64 4.3-7.17 8.4-7.55a13.81 13.81 0 0 1 9.51 2.29l.7.53z" class="i"/><path d="M413.7 162.46l-28.65 8.9c-1.6.5-3.1 1.23-4.9 1.94-.5-2.66 1.32-3.22 2.67-3.66 6.53-2.1 13.08-4.18 19.7-5.93a111.9 111.9 0 0 1 11.16-1.84z" class="g"/><path d="M397.55 173.1l5.16-.7 6 2.86 1.2 1.16.92 2a4 4 0 0 1 .25 1.29c-.18 1.23-.1 2.92-.83 3.53s-2.35.05-3.6 0c1.36-1.15 1.12-2.3.06-3.5a12.15 12.15 0 0 0-9.91-4.19z" class="c"/><path d="M355.1 118.68c3.18-1.58 6.38-3.05 10.07-1.74l4 4.23c.15 2.07-1.12 2.2-2.36 1.37-3.25-2.16-6.47-1.73-9.87-.52a22 22 0 0 1-4.25.67z" class="o"/><path d="M352.65 122.7a22 22 0 0 0 4.25-.67c3.4-1.2 6.62-1.64 9.87.52 1.24.84 2.5.7 2.36-1.37a19.62 19.62 0 0 1 5.68 12.09l-.67.33-1.54-3.15c-3.27-6.57-8.15-8.7-15.2-6.66a10.55 10.55 0 0 1-3.44.56c-.47-.03-.87-1.07-1.3-1.65z" class="c"/><path d="M350.52 142.2c5-4.5 12.2-3.4 15.35 2.43.35.63 0 1.62 0 2.45-.67 0-1.7.2-2-.14-2.82-3.77-6.7-4.45-11.05-4.15a7.6 7.6 0 0 1-2.3-.59z" class="k"/><path d="M464.94 131.48c1.56 0 3.88-.63 4.54.15 1.8 2.1-.2 3.92-1.5 5.6l-3 1.5-.76-.68 2.64-4.28.84-1.74z" class="g"/><path d="M400.92,150l7.05-.58.1,1.2-7,.78Z" class="n"/><path d="M461 123.92l4-1.9.6.82-2.3 3.67c.63-2.12-1.72-1.58-2.3-2.6z" class="c"/><path d="M451.7 167.43h-.17l-.16.06-7.1.1-6.58.33-.52-.86z" class="d"/><path d="M425 146.87a19.63 19.63 0 0 1-3.13 1.73c-.58.2-1.38-.23-2.08-.37.48-.5.87-1.28 1.46-1.47a19.3 19.3 0 0 1 3.43-.51z" class="f"/><path d="M417,161.3l5.88-1.13.1.52-6,1.22Z" class="d"/><path d="M464.94 131.48l2.72.56-.84 1.74L465 132c0-.06.1-.13.1-.2a2.62 2.62 0 0 0-.11-.4z" class="c"/><path d="M437.15,167l.52.86-3.75.15-.05-.73Z" class="f"/><path d="M462.1 106.8l3.36-2.18-2.46 2.86zm28.56.67l1.54-3.33-.83 3.26z" class="b"/><path d="M417 161.3v.6l-3.26.55v-.6z" class="f"/><path d="M465 131.43a2.62 2.62 0 0 1 .11.4c0 .06-.07.13-.1.2l-2.22.46 1-1.58z" class="g"/><path d="M412.1 123.8l-.7-.53z" class="h"/><path d="M400.1 210c-1.55 6.66-8.7 12.5-12.24 9.54 5-2 8.68-5.46 11.7-9.65zm9.8-33.57l-1.2-1.16.87-1.2 9.14 1.8 1.55.68.6.16.86.14 2.36 1 .37.88-9-1.17-1.2-.14-1.56-.32z" class="g"/><path d="M330.86 197.45H332l2.13.62 3.1 1.24 2.4 2.95c-3.06-1.4-6.85-1.36-8.75-4.8zm-3.8-8.3H322l-.2-.5 5.83-2z" class="e"/><path d="M444.25 167.57l7.1-.1-7.06 2.83-.05-2.73zm-34.67 6.5l-.87 1.2-6-2.86 4.48-.58c-.2 1.76.9 2.25 2.4 2.24z" class="m"/><path d="M321 173l-3.28-3.3.7-.7 3.24 1.48z" class="e"/><path d="M337.2 199.25l-3.1-1.25 1.1-.5z" class="f"/><path d="M322.7 170.82l3.28.08c-1.13 1.44-2.23 1.53-3.28-.08z" class="e"/><path d="M409.9 176.43l2.8.62-1.9 1.4zm-33.78 43.34l-2.9-2.07zm-6.72-7l-1.08-2 2.34.77zm30.7-2.78l-.53-.1.28-1.82.73.14z" class="m"/><path d="M328.3 193.15l1.9-.4.12 1.76z" class="e"/><path d="M426.8 178.44l2.5.6-.07.44-2.42-.47z" class="d"/><path d="M408.73 171.52l1.73-.16c-.46 1.34-1.05 1.26-1.73.16zm3.82-.52l1.73-.17z" class="m"/><path d="M335.23 197.5l-1.1.5-2.13-.62h.7l.86-.78z" class="n"/><path d="M366.32 201.07l-1.65.05c.5-1.3 1.06-1.33 1.65-.05z" class="e"/><path d="M414.27 177.37l1.2.14z" class="m"/><path d="M363.7 207.24l.28 1.13zm-35.06-20.88l1.16-.2z" class="e"/><path d="M381 213.82l1.1-.8zm39.27-37.27l-1.55-.68zm-3.37-6.13l1.18-.1zm3.83-.48l1.18-.15z" class="m"/><path d="M426.8 178.44v.56l-1.72-.36.07-.43z" class="f"/><path d="M430.3 179.6h1v.2l-.9.15z" class="d"/><path d="M370 202.9v.67l-.52-.6z" class="e"/><path d="M421.73,176.85l-.86-.14Z" class="m"/><path d="M424.46,178.68l-.37-.88Z" class="f"/><path d="M455.7 183.27z" class="m"/><path d="M333.1 196.24l-.5-.24z" class="e"/><path d="M351.6 100.44l6 8.64c-3.2-.14-6.26-4.44-6-8.64z" class="g"/><g class="b"><path d="M318.43 169l-.7.7-.88-1.92v.05z"/><path d="M316.85 167.8l-.38.1s.07-.06.1-.06h.25zm135.68 52.14l-3.87 2.06-1.87-1.73 6.95-1.76z"/></g><path d="M439.84 217.1l.1.86-.44.7-.8.7c-.97-1.43-.3-2.02 1.13-2.24z" class="f"/><path d="M441.08 220.47h3.7z" class="b"/><path d="M399.7,228l-.18,1.16-1.08-1.25Z" class="g"/><path d="M492.17 104.2l.58-1.4z" class="b"/><path d="M556.6,70.43l.48,1.06Z" class="o"/><path d="M676.85 128.74a34.67 34.67 0 0 1-5.71-1.31c-1-.38-2.37-1.77-2.25-2.5a3.84 3.84 0 0 1 2.45-2.6c4.26-.8 8.6-1.14 12.9-1.8 13.64-2.07 26.46-6.15 37.07-15.54.66-.6 1.84-.6 2.78-.87-.1 1 .1 2.16-.34 3-2.78 5.18-7.48 8.3-12.42 11-10.7 6-22.33 8.95-34.48 10.6zM164.1 77.32c-.86 0-1.07.07-1.2 0-1.6-.8-4.1-1.3-4.57-2.53-.84-2.26 1.73-3.12 3.4-3.77 4.14-1.6 8.38-2.94 12.6-4.35 13.3-4.46 22.87-13.72 31.4-24.37a10.58 10.58 0 0 1 2.82-1.81c.13 1.26.8 2.8.3 3.73a48.87 48.87 0 0 1-5.66 8.59 66.6 66.6 0 0 1-19.84 16c-4.84 2.5-9.74 4.86-14.68 7.15a29.81 29.81 0 0 1-4.55 1.36zM55.85 113.58c-1.14-.23-2.1-.17-2.7-.6-1.13-.84-2.82-1.92-2.87-3s1.48-2.76 2.63-3.1c4-1.16 8.1-1.85 12.16-2.72a30.89 30.89 0 0 0 15.12-8.1c.6-.56 1.67-.62 2.52-.92a10.33 10.33 0 0 1 .89 3.08 4.39 4.39 0 0 1-1.22 2.36c-7 8.42-16.87 10.76-26.53 13zM721.46 167h-.8c-1.85-.1-4.13-.3-4.17-2.42 0-1.05 2-2.5 3.4-3.12a15.63 15.63 0 0 1 6-1.44c1.28 0 2.6 1.1 3.9 1.7-.63 1.2-1 2.9-1.94 3.47-1.87 1.1-4.12 1.53-6.2 2.25zm-489.6-78.5c-2.14-.84-4.78-.65-4.94-3.17s2.5-2.52 4.28-2.85c2-.38 4.24 0 6.2-.6 3.7-1.07 7.26-2.6 10.92-3.84.83-.28 2.4-.43 2.6-.06a3.27 3.27 0 0 1 .17 2.86 7.94 7.94 0 0 1-3.45 2.92c-5.2 1.75-10.5 3.2-15.78 4.75z" fill="#8076fd"/><path d="M433.67 229.8l3.46-.78c-1.22.43-1.27 3.86-3.5 1.56z" class="b"/><path d="M403.07 244.53l4.1-.66v.84z" class="f"/><path d="M433.67 229.8v.78h-2l-.07-.5zm5.6-1.72l.6-.46-.65.42z" class="g"/><path d="M439.23 228l-1 .5 1-.47zm-.98.54l-.33.48-.18-.16.52-.3z" class="d"/><path d="M332.7 197.35h-1.05z" class="q"/><path d="M386.4 206.88a16.26 16.26 0 0 1-1.79 2.69c-.72.7-2 1.78-2.5 1.55a3.57 3.57 0 0 1-1.87-2.55 33.27 33.27 0 0 1 .36-5.7l.9-.3z" class="l"/><path d="M366.77 204.47l1.93 2.93c-3.4.93-2-1.53-2.5-2.52z" class="b"/><path d="M480.2 96.5l1.66-.45z" class="c"/><path d="M466,104.16l.87-.57Z" class="b"/><path d="M478.8 97.12l.07-.2.13.1-.2.1z" class="c"/><path d="M465.43,104.68l.6-.55Z" class="b"/></svg>