<svg xmlns="http://www.w3.org/2000/svg" viewBox="0 0 654.76 428.23"><style><![CDATA[.d{fill:#323232}.e{fill:#7870f0}.f{fill:#f6f6f8}.g{fill:#7c73f6}.h{fill:#cecde0}.i{fill:#7c73f8}.j{fill:#ededed}.k{fill:#0b0b0e}.l{fill:#766def}.m{fill:#7f76fb}.n{fill:#1d1d1d}.o{fill:#fbfbfc}.p{fill:#fafafb}.q{fill:#09090b}.r{fill:#131313}.s{fill:#7970f5}.t{fill:#f3f3f3}.u{fill:#f7f7fa}.v{fill:#0e0d1c}]]></style><path d="M516.34 164.72L417.9 364.14s28.1 61 91.58 57.58 113.47-19.4 113.47-19.4l29.84-13.67s-5.64-153.42-21.4-154.38-11.82-51.5-42.23-51.57" fill="#fdfdfd"/><path d="M518.25 106.05c2.27 2.4 5 4.48 6.7 7.24 2.15 3.6 1.28 7.22-2.36 9.68 7.3 16.64 6.88 19.6-4 27.67 1.9 4.67-2.07 6.23-5.28 9 5.1 1.12 9.65 2.62 14.3 3.06a272.2 272.2 0 0 1 52.78 10.52c8 2.4 15.72 5.6 23.54 8.5 4.5 1.68 7.7 4.8 10.3 8.88 20.5 32.1 32.54 67.15 37.16 104.9 2.26 18.54 2.82 37.15 3.2 55.78.2 9.8.13 19.6.15 29.4 0 5.3-1.64 9.4-6.7 12.3a150.34 150.34 0 0 1-33.68 14.46c-21.1 6.07-42.26 12-64.12 14.82-18.75 2.4-37.47 2.42-56.1-1.35a27 27 0 0 1-2.72-.91 13.46 13.46 0 0 1 2.67-.73c4.63-.08 9.3-.46 13.88-.06 25.5 2.2 50.4-1.36 74.92-7.95 15.58-4.2 31.06-8.85 46.33-14 6.7-2.28 12.8-6.35 19.12-9.73a3.62 3.62 0 0 0 1.73-2.43c.44-5.8.93-11.6.88-17.4-.06-7.54-.6-15.07-.92-22.6-.05-3.16 0-6.34-.15-9.5l-1.08-21.72c-.23-3.43-.26-6.9-.74-10.28q-1.82-13-4-25.92c-.75-4.43-1.84-8.8-2.77-13.2q-2.13-6.74-4.27-13.47L636 247.9l-1.68-5.45-2.9-8.2c-5.2-14.58-12.48-28.1-20.73-41.18a19 19 0 0 0-11.2-8.36l-10.27-3.9c-9.2-2.7-18.2-5.78-27.54-8.02-7.68-1.85-15.6-2.7-23.42-4-.2-.18-.38-.5-.6-.53l-22.72-3.78-2.74 7.05-13.32 29.2q-27.76 61.4-55.5 122.82l-5.7 13a45.63 45.63 0 0 1-2.48 4.22l4 4.7 7.2-15.63c.67-1.4 2-2.5 2.74-3.87q18.5-33.8 36.9-67.66l17.7-32.8 16-28.87h1.46l-4.9 9.22-.35.5-9.88 19.1Q480 275.27 453.78 325c-.45.86-.87 1.73-1.4 2.78h9.6c.72 0 1.44.08 2.15.1l38.5.12c5.7.05 11.37.4 17.06.6l41.9 2-.18-.56c-.82-1.5-1.57-3.07-2.48-4.52a190.85 190.85 0 0 1-19.74-41.11 100.37 100.37 0 0 1-2.42-10.66l.65-.4a12.08 12.08 0 0 1 1.89 2.95c4.87 17.17 14.22 32.12 23.24 47.24 1.3 2.17 2.32 4.5 3.55 6.94 6.26-2.05 12.65-3.34 19.35-1.4l-11.93 2.4v.63l7.22 1.32 12.75 2.78a13.87 13.87 0 0 1 4 1.68c.65.4.94 1.37 1.4 2.1-.76.35-1.52 1-2.27 1a24.39 24.39 0 0 1-4-.65l-15-2.78a16.76 16.76 0 0 0-2.36-.62l-43.78-4.88c-24.9-2.2-49.83-2.1-74.78-1-2 .1-4.1 0-6.75 0 .64 1.9.73 3.68 1.66 4.65 8.32 8.77 12.2 19.66 14.85 31.07 2.1 9.1 3.7 18.3 5.54 27.46l1.1 18.22a2.14 2.14 0 0 0 1.93 2.37c3.35.82 6.7 1.67 10 2.63a16.94 16.94 0 0 1 3 1.51l-.1.87a8.73 8.73 0 0 1-2.86.51c-4.55-.76-9.1-1.63-13.6-2.6a6.28 6.28 0 0 1-2.53-1.5l-14.6-12.5-5.4 7.95c-1.42 2.2-2.84 2.5-5.14 1l-30.52-20c-.68 1.2-1.5 2.48-2.14 3.83-1 2.14-2.76 2.8-4.7 1.8-4.35-2.25-8.56-4.76-12.8-7.2a2.11 2.11 0 0 1-1-1.25c-.9-6.06-6.07-6.3-10.13-6.4l-94.25-1.8c-3.17-.05-6.35 0-10 0a50 50 0 0 0 1.8 4.94c.2.43 1.17.66 1.8.7q44 3.53 88 7l23.9 1.86a36.76 36.76 0 0 1 5.57 1.08c.54.13 1.33.68 1.38 1.1a42 42 0 0 1 .36 7c0 .58-1.32 1.43-2.15 1.6l-99.6 19.83c-10.5 2.15-20.93 1.38-31.4 1l-74.6-2.95q-55.8-2.16-111.63-4.26-9.4-.36-18.78-.68c-5.07-.16-5.3-.25-6.9-5.16L33.9 346.57Q17.66 297 1.28 247.45c-2.3-7-2-7.45 5.27-7.23q53 1.56 105.93 3.17c2.1.06 2.8-.68 3.32-2.54a89.49 89.49 0 0 1 15-29.72c12.55-16.6 36.82-18 50.3-11.44 12.56 6.12 21 15.46 26.6 27.9 1.82 4.07 3.58 8.16 5.13 12.33.66 1.77.72 3.77 1.14 6.16 3.77.17 8.16.52 12.55.48 2.73 0 4.13.67 5 3.55 2.08 6.66 4.7 13.16 7.08 19.72l2.94 8.34c.37 1.22.7 2.45 1.12 3.64q13.38 37.46 26.8 74.9l7.55 21.46c20.56-3 35.52-14.77 49.1-29.47-19-5.5-33.82-16.06-44.76-31.9-7.23-10.46-11.8-21.87-11.3-34.9.6-15.44 10.3-27.3 25.3-30.88a44.42 44.42 0 0 1 20.54-.1c26.52 6.12 44.86 22.14 55.4 47.06a41.41 41.41 0 0 1 1.91 28 97.76 97.76 0 0 1-3.73 9.38l6.7 4.54 6.9 4.64c9.4-9.3 9.4-9.3 23-15.26-.78-1.92-1.64-3.82-2.33-5.77q-9.84-27.58-19.6-55.18-10.3-29.3-20.4-58.66c-.32-.9.32-2.14.5-3.23.7.77 1.7 1.4 2.1 2.32 1.1 2.6 1.93 5.28 2.86 7.94q18.54 52.82 37 105.65c.77 2.2 1.33 4.46 2 6.73l6-.37-1-3.4q-17.94-61.9-35.86-123.77c-.47-1.62-.87-2.77-2.8-3.45-1.5-.52-2.74-2.2-3.68-3.66a27.51 27.51 0 0 1-2-4.92l1.36-.72a24.79 24.79 0 0 1 3.11 3c1.7 2.33 3.86 2.84 6.48 2.07a43.7 43.7 0 0 0 3.34-1.13c4.3-1.67 8.63-2.66 13.28-1.42 3.24.86 6.64 1.16 9.83 2.14 7.15 2.2 13.18.06 18.84-4.2C433.53 183 440 175 443.5 165c1.4-3.94 2.4-8 3.83-12.9-2.5.54-4 1-5.58 1.18a7.38 7.38 0 0 1-2.11-.28c.32-.68.46-1.6 1-2a25.19 25.19 0 0 1 3.62-1.86L450 149c4.5 1.38 6.05 3.7 4.2 6.3l-4.25-2.2-5.25 25.43-.66 2.3v-.08l-.54 2-1.55 3.7c-2 4.6-3.9 9.27-6.14 13.77-2.13 4.3-5 8-9.42 10.33-5.82 3.06-11.8 5.54-18.56 5.44a49.13 49.13 0 0 1-5.7-.17c-4.88-.66-10.12-.5-13.38-5.32-.16-.24-.76-.2-1.26-.3A16 16 0 0 0 402.21 222c15.68.83 29.74-3.2 40.37-15.5 5.45-6.3 10.45-13 15.54-19.6 4.45-5.78 9.78-9.6 17.5-9a87.41 87.41 0 0 0 10.61.23 67.38 67.38 0 0 0 11-1.35c1.3-.28 2.28-2 3.4-3q-1.83-4.1-3.67-8.2v-1.94a13.37 13.37 0 0 1 3.22-1.15c5.83-.56 10.3-3.72 14.48-7.42a2.32 2.32 0 0 0 .52-2c-1.57-3.87-1.62-3.85 1.73-6.3 5.56-4 6.68-7.33 4.43-13.85-.94-2.73-2.3-5.3-3.43-8-.76-1.8-1-3.52 1.13-4.7 3.37-1.9 3.7-3 1.5-6.23-1.72-2.54-3.74-4.88-5.62-7.3.8-2.36 2.3.02 3.34-.63zM199.9 221.7v.05l-.6-1.24c-1.14-1.5-2.2-3.1-3.44-4.52-9.1-10.5-20.18-16.54-34.47-16-10.13.4-18.68 4-25.67 11.37-8.2 8.68-12.86 19.25-16.36 30.44-.25.8.23 1.85 0 2.68-.78 2.84-1.84 5.6-2.56 8.45-.6 2.4 1 3.92 2.65 5.8l.84-3a80.14 80.14 0 0 1 5.36-7.24c5.44-5.95 11-11.76 16.66-17.54.56-.57 1.7-.55 2.58-.8a12.06 12.06 0 0 1 .26 2.78 32.63 32.63 0 0 1-1 3.67c-1.45 5.52-2.63 11.12-4.42 16.52-1.68 5-4 9.86-6.12 14.94 4 1.6 7.62 3.27 11.4 4.42a5.58 5.58 0 0 0 4.42-.9 56.81 56.81 0 0 0 6.52-6.55c5.23-5.78 10.13-11.87 15.65-17.36 3.84-3.84 8.48-6.88 12.77-10.28l1.36.7-7.66 6.8.26.75h18.77c3.7 0 7.4.14 11.1.2l2.85.18-7.4-17.82v.06l-3.27-6.06zm299.66-31.1l-.77 1.3c-.2.18-.5.3-.6.53q-11.8 22-23.56 44.1c-.2.4-.36.83-.6 1.2-1.23 1.92-2.6 1.9-3.63-.1a19.86 19.86 0 0 1-1-2.52A36.69 36.69 0 0 0 455.24 216c-7.28-5-12.12-5.86-18.9 1.62 4.62 1.68 7.94 4.56 7.9 9.8 0 6.46-4.37 9.56-9.93 11.54l17.3 58.5c.43-.72.64-1 .8-1.32l14.3-31.18q14.94-32.8 29.83-65.6c1.05-2.3 2.3-4.5 3.47-6.77l.74-1.72 2.37-4.88-.87-.42q-1.35 2.5-2.7 5.02zm-65-6.5l-1.36 2-11.82 11.58 3.34 11c5.8-2.86 8.7-7.75 10.27-13.67l.9-1.67q3.4-9.7 6.82-19.4l-.5-.2zM289.83 377.24l-6 .57v.45h6.1l46.26.77-5.78-29.8-5.12 5.52c-8.16 8.7-17.37 15.93-28.5 20.48a64.64 64.64 0 0 1-6.97 2zm210.8-197.74c-2.06.67-4.1 1.82-6.18 1.93a175.44 175.44 0 0 1-18.2.2c-7.43-.4-12.57 2.73-16.65 8.73-3.92 5.78-8.35 11.2-12.54 16.8-.4.5-.7 1.08-1.25 1.93 7.45-.14 11.74 4.87 16.57 8.74 5.17 4.13 7.18 10.34 9.62 16.26.2-.23.36-.33.43-.48q14-26.18 27.95-52.38a5.3 5.3 0 0 0 .24-1.8l.23.35.25-.24zm-245.54 243a2.76 2.76 0 0 0 .75.25q15.75.68 31.5 1.3c.3 0 .6-.28.92-.43-.24-1-.4-1.94-.74-2.86l-9-25.66Q253.75 324 229.1 253a3.14 3.14 0 0 0-3.47-2.52q-24.37-.6-48.74-1.43a4.49 4.49 0 0 0-3.95 1.73l-20.47 22.64c-3 3.25-6.4 3.74-10.4 2-3-1.28-6.1-2.36-9.16-3.48s-3.8-2.4-2.57-5.57 2.7-6.35 4-9.54a24.59 24.59 0 0 0 .78-2.7 4.26 4.26 0 0 0-2.47 1.39q-4.12 4.36-8.2 8.75c-2 2.17-3.12 2.22-5.13.07-4.27-4.57-8-9.33-5.6-16.22.07-.2-.1-.5-.17-.92l-109.1-3.36 1.08 3.57 9.13 28q22.83 69.24 45.63 138.5c.6 1.83 1.72 1.78 3.1 1.83l45.74 1.67q52.85 1.9 105.64 3.8l40.3 1.26zM407.6 395c1.5-2.3 2.66-4.37 4.12-6.2 10.22-12.75 18.3-13.4 30.93-3.2l15.86 12.86a10 10 0 0 1 3.1 3.95c1 2.72 3 4.07 5.72 5.87 0-6.4.68-12.38-.17-18.13-1.14-7.78-3.42-15.4-5.27-23.05-.6-2.44-1.36-4.83-2-7.2l-6.84.94a6.53 6.53 0 0 1-6.45-2.43c-5.95-6.62-12.08-13.07-18.23-19.5-5.8-6.06-12.83-7.57-20.95-5.86-15.4 3.25-29.15 20.1-31.87 34.1a3.57 3.57 0 0 0 .53 2.75c3.08 3.27 6.33 6.38 9.8 9.8a53.69 53.69 0 0 1 17.72-22.54c.88-.64 2.4-.4 3.63-.55a15.6 15.6 0 0 1-.18 3.5 9.21 9.21 0 0 1-1.62 2.82c-5.05 6.88-7.73 14.75-9.45 23-.17.84-.07 2.32.44 2.63 3.6 2.23 7.46 4.27 11.2 6.4zm-46.18-68.28c-.45-2.2-.76-6-2-9.43-9.4-25.72-26.62-44.25-51.87-54.86a41.62 41.62 0 0 0-15.64-2.74c-10 0-16.17 7.55-15.05 17.47a41 41 0 0 0 1.46 6.91c5.52 18.75 17.13 33.2 32.22 45.1a67.37 67.37 0 0 0 26.93 13.14c5.13 1.18 10.37 1.55 15.23-.72 8-3.77 8.5-4.43 8.72-14.9zm18.95-123.85Q387 225 393.72 247.05l13.75 45 21.95-52.9c-8.48-3-10.54-8.28-7.68-15.28l-2.2.28c-5 .5-10.07 1.22-15.12 1.44S395 224 391 221.15s-6.2-7.14-7-12.24l2.38-.5c-1.27-3.07-3.9-5.5-6.02-5.58zM379.8 380l.6-.44c-7.16-5-10.9-11-6.06-19.17l-19-12.88c-3 .65-6.38 1.62-9.85 2.1s-7.2.5-10.5.7l5.12 28.8zm-15.12-45.15a18.09 18.09 0 0 0 1.88-2.33 33.14 33.14 0 0 0 3.56-23.45c-5.12-26.47-29.28-49.84-56.37-54.58-6.12-1.08-12.23-1.14-18.28.86 9.87 1.14 18.73 4.92 26.94 10.24 17.9 11.6 31.8 26.68 39.56 46.83 2.72 7.1 4.25 14.4 2.7 22.45zm-65.9 75.18l-.22.83c1.9.9 3.83 2.55 5.72 2.53 3.68-.05 7.36-1 11-1.66q24.33-4.6 48.65-9.27l16-3-.06-.63-98.3-7.66c1.1 3.1 2 6.2 3.33 9.2a3 3 0 0 0 2.55 1.1c2.42-.3 4.8-1 7.18-1.5.1 0 .12-.23.2-.36l-1.63-1.47 11.18.82-2.33 1.48c4.67 1.23 8.4 5.17 13.7 4l-2 1.2 3.6 2.7c-3.52.9-5.86-2.62-9.36-1.15a92.22 92.22 0 0 1-9.18 2.86zm-5.72 14l13.12-2.74q44.2-8.73 88.42-17.37c2.2-.43 3-1.24 2-3.73-35.42 3.86-69.7 14.13-105.4 18l1.86 5.88zm-19.16-145c-.12 1.24-.28 2.3-.32 3.35a50 50 0 0 0 6.29 25.64 75.53 75.53 0 0 0 19.57 23c10.25 8.28 21.66 13.43 34.75 14.86a21.26 21.26 0 0 0 3-.16c-33.02-11.26-53.7-33.4-63.3-66.65zM451.54 402l-27-20.32-10 8.77 31 19.88zm-70.07-55.57l-14-9L360 347l15 10.48zm28.36-133.28c-1.6-4.54-3.2-8.18-4.12-12-.73-3-2-4.68-5.1-5.25a51.06 51.06 0 0 1-6.84-2.34l5.53 17c.1.3.3.78.53.83l10 1.76zm-2.52-14.68l3.18 12.88a2.22 2.22 0 0 0 1.88 1c3.56-.7 7.08-1.62 10.64-2.46l-4.14-11.44zm-266.48 38a84.52 84.52 0 0 0-19.53 23.33c-.32.57.25 1.66.4 2.5l-.18-1q8-7.35 16.07-14.7c3-2.76 2.7-6.6 3.24-10.15zm256.36-25.25l.48-.57-7.75-16.4-6.63 3.23 10.4 12.06c.8.85 2.3 1.1 3.5 1.66zm-107.73 193c2.56 1.45 4.85 3.8 7.14 3.8 3.57 0 7.15-1.58 10.77-2.5-5.54-4.7-11.32-4.65-17.9-1.3zm211.4-239.3l2.8 5.2a14.2 14.2 0 0 0 1.2 1.6c.6-.5 1.43-.85 1.73-1.47 1.42-2.88 2.7-5.83 4.15-9.06zm-56 176.77l-3.13 5.4c-.2.34-.34 1-.16 1.2 2 2.67 4.15 5.3 6.24 7.94l.3-.34zm-145 72.55c-4.42-3.6-6.28-3.8-10.6-1.2l1.25 3.18zm-13.25-9.9c1 6 1.3 6.27 6 4.6l-6-4.6zM342 345.9l-.1-.16-4.86-.64-.07.8z" class="q"/><path d="M518.25 106.05c-1 .65-2.54-1.73-3.32.53a8.35 8.35 0 0 0-2.74-.94 67.33 67.33 0 0 1-21.47-2.36l-4.58-2.28-8.9-5.16.37-1c16.6 6.9 33.47 8.32 50.94 2.9-1.94-.6-3.57-1.23-5.27-1.57-12.26-2.45-24.5-5.1-37.1-5.35a52.73 52.73 0 0 1-9.39-1.34c-1.1-.22-2-1.2-3.58-2.2l19 .78a4.1 4.1 0 0 0 2.75-.64c4-4 7.88-8.23 11.8-12.38l4.9-6-.46-.7-9.46 3.62-9.1 2.8a82.62 82.62 0 0 1-32.09 2.62c-1.56-.17-3.86.1-3-2.82a23.43 23.43 0 0 1 3.52-.29c14.7 1 28.7-1.93 42.2-7.63 1.25-.53 2.54-1 3.8-1.46a3.56 3.56 0 0 0-2.3-.47c-11.95 1.52-24.15 1.06-35.86 4.5a15.27 15.27 0 0 1-3.4.25l-.26-1 2.9-2.1 19.46-4.93-14.5-2.94-15.35-3.6-12.3-4.54-.26.7 12.45 4.88 2.45 1.7a33.48 33.48 0 0 1-19.18-4.68c-5.78-3.47-10-8.14-11-15.37-4.3 5.1-4.3 5.1-7.3 5.4l-1.4-.16c0-.73-.05-1.47-.07-2.2a10.15 10.15 0 0 1 1.2-.58 9.24 9.24 0 0 0 5.39-11.33c0-2.18.08-4.35 0-6.53A3.35 3.35 0 0 0 427 20c-4.5-3.84-9.22-7.4-15-9.12a3 3 0 0 0-2.68.94c-1.45 2.6-2.57 5.35-3.8 8.06l-.43 2.3.08.95-.16 1.1-.34 3.2-.2 1.7-.25 3.8L403 33q-.1-4.1-.2-8.2l.2-1.7.3-2.12.28-1.75 4.17-9.95c-4.1-.44-8.32-1.3-12.52-1.27-11.93.08-18 7.3-19.1 18.65v3.53l.17 1.16.32 2.12.3 1.12.22 1.06 2.55 7.17-.73 1.14-4.86-9.4-.34-1.12-.25-1.6-.33-2.23 1.28-10.43c-.13 0-.35 0-.45.15-7 7.5-14.37 14.67-19.15 23.86-1.2 2.27-1.1 5.2-1.6 7.82l1.56 4.82 2.5 5 .6 1.55-1 1v.08l-.15-.16-5.8-10.22V45.3c-.7.65-1.32 1.27-2 1.85C345 50.78 341 54.72 336.6 58a15.57 15.57 0 0 0-6.42 10.47c0 .76-.1 1.53-.12 2.3v4.3l-.85.1-1.22-5.74q.52-3.2 1-6.42h.24l-.15-.2v.24c-3.08.92-6.1 2.16-9.26 2.68a5.15 5.15 0 0 0-4.77 4.86l-.95 1.87c-.36-.44-.6-.6-.66-.84a12.49 12.49 0 0 1-.23-1.51l.78-3.33c-2.6-1.2-5.42-2-7.7-3.67a10 10 0 0 1-1.33-15l.65 1.1c-2.34 4-.6 9.6 3.77 12 3.66 2 7.5 1.87 11.4.88 8.63-2.18 15.82-7 21.93-13.15 7.22-7.28 13.84-15.14 20.84-22.65 4.2-4.5 8.5-8.95 13-13.17 7.8-7.32 17-9.2 27.5-7.4 9.27 1.6 17.6 4.84 24.7 10.9A40.34 40.34 0 0 1 457.83.43C476.1-1.3 493.27 2.08 508.2 13.6l14.15 10.62c9.46 6.84 19.44 12.8 30.74 16.07 13.22 3.84 26.5 6.38 40 .83a40.58 40.58 0 0 0 15.72-10.92c5.9-6.83 5.74-12.3-.82-19.2a16.41 16.41 0 0 1 2.52.59c3.1 1.3 5.87 2.85 7.58 6.16 6 11.63 4.26 23.83-4.78 33.77-7.4 8.12-16.77 12.5-27.32 14.14-8.2 1.3-16.58 1.52-24.88 2.2a15.09 15.09 0 0 0-3.63.41c2.74.76 5.52 1.42 8.22 2.32a119.24 119.24 0 0 1 11.2 4.15c3.45 1.55 3.57 4.1.36 6-8.26 4.93-16.37 10.2-25 14.42-6 3-12.78 4.53-19.3 6.46-4.34 1.28-8.83 2-13.23 3.14-.54.17-1 .87-1.5 1.3zM601.08 45c-.3-.9-.6-1.78-1-2.82-8.55 4.4-17.42 6.77-27 6.3l.84 4.15c-.47 2.83-.36 5.84-2.76 8.15V52.5c-.24-2.84-1.4-4.37-4.56-5-6.65-1.28-13.2-3.13-19.75-4.84-2.07-.54-4.07-1.38-6.38-2.18l.47 6.54-1.63 6.35-.62-.17v-7.13c-.52-2.62.46-5.7-2.5-7.54q-7.86-4.86-15.7-9.77l-6.82-4.3-1.32 7.77c-.44 3.72.2 7.67-2.3 11q.44-6.4.88-12.78a9.44 9.44 0 0 0 .44-2.91c-.35-2.13-.3-4.94-1.62-6.18a72.51 72.51 0 0 0-11.68-8.78 40.21 40.21 0 0 0-15.64-6.07l2.86 11q-.8 6.94-1.57 13.88l-.95.56c.1-1.17.28-2.34.26-3.5l-.33-12.08c-1.28-3.32-2.1-6.94-4-9.83-.85-1.27-3.93-1.06-6-1.5-.16 0-.34.06-.52.1l-11.1-.42-9.22 1.17 4.23 11c1.18 8.26-.88 15.78-5.17 22.8a3 3 0 0 1 0-1.89c1.07-4.33 2.36-8.63 3.16-13 .4-2.15-.12-4.46-.22-6.7-1-3.1-1.88-6.22-3.07-9.23a2.73 2.73 0 0 0-2.44-1.09A80.54 80.54 0 0 0 437 14.3c-4.7 3.56-6 10.32-3.66 16 1.2 6.85 5.17 12 10.76 15.6a29.84 29.84 0 0 0 9.79 4c13.1 2.87 26.2 5.9 39.46 7.92 11.37 1.74 23 2 34.42 3.28 15.26 1.7 30.5 3.53 45.9 2.27 10-.82 19.92-2.56 28.52-8.14 9.27-6 15.73-14 15.65-25.8l-1.1-5.63-.8.14c-2.15 7-6.63 12.17-12.58 16.1-2.07 1.37-2.18 2.7-1 4.58l-.66.5zm-30.6 34.48l4.57-2.07-5.15-2.06-25.82-6.47c-7.64-2-15.4-2.3-23.22-2-2.92.12-5.25.7-6.26 3.92a24.87 24.87 0 0 1-2.48 4.5l-12 13.1 26.12 5.2a8.88 8.88 0 0 0 3.25 0l16.4-3.1c.67-.13 1.53-.43 2-.15 1.6.9 1.6 1 2.56.47l12.64-7.63zM351.7 44.65l-.1.14h.12zm23.44-26.2l-.1.17h.14z" fill="#0a0a0c"/><path d="M421.22 42.8l1.4.16c-1.13.5-2.23 1.35-3.38 1.43-5.6.4-11.18.8-16.18 3.76-2.22 1.8-4.5 3.55-6.63 5.44-.55.48-1.2 1.6-1 2.1 1.4 3.6-1.24 3.45-3.34 3.78-1.25.2-2.53.2-3.78.38-4.6.66-9.62.6-11 6.74-.27 1.23-1.85 2.22-2 3.4-.4 3.56-2.2 6.25-4.54 8.73l-5.3 5.42-.65 2 1.78-.42c2.7-2.18 5.67-3.3 9.18-2.47 5.9 2.9 10.48 6.8 10.63 14-.65-.63-1.28-1.3-2-1.9l-5.52-4.65a.41.41 0 0 1-.38-.31l-.1-.23h-.25c-6.42-5.22-9.62-.14-13.37 5.08l-1-4.53 1.55-4-1.28-.88-.58 2.65-1.1-.73.3-3.75-10.36 2.7 7.17 5.93-2.2.42a65.46 65.46 0 0 1-6.59-4.07c-1.32-1-2.35-1.4-3.85-.65l-23.05 11.6a32.06 32.06 0 0 0-2.91 1.87c7.43 3.36 14.7 4.12 22.12 1.7 4-1.3 7.8-2.9 11.74-4.3 2.28-.8 4.6-1.48 6.9-2.2l-1.7 5.12-2.17 1.9c2 3.26 2 3.33-1.25 4.9a25.83 25.83 0 0 0-2.5 1.54c-2.08 1.12-1.82 2.76-.75 4.32.64.95 1.77 1.55 2.5 2.46a3.37 3.37 0 0 1 .88 2.26c-.06.43-1.24.94-1.95 1-1.8.13-3.63-.16-5.42 0-3.64.4-4.62 2.5-2.26 5.33 1.6 1.92 3.85 3.27 5.62 5 .7.72.9 1.93 1.35 2.92a9.17 9.17 0 0 1-2.78 1.12c-1.6.1-3.24-.3-4.87-.34-2.28-.05-2.85.76-1.9 2.78a18.92 18.92 0 0 0 8.14 8.46c7.3 4.7 8.2 5.16 14.8-.3 5.45-4.5 9.22-10.48 12.5-16.72.5-1 1-1.74-.76-1.48l.9-1.56c.76-.57 1.82-1 2.2-1.74 3.2-6.15 3.48-12.92 3.94-19.64-.05-1.57-.16-3.13-.12-4.7 0-.43.42-.86.65-1.3a14.45 14.45 0 0 1 .58 2.09 54.85 54.85 0 0 1-7.36 35.42c-3.52 5.94-7.7 11.34-13.7 15.16l13.47 4.36c4.47 1.36 9 2 13.27-.3a60.66 60.66 0 0 1 22.73-7l1.2.3c4.32 1.13 7.27 3.73 8.08 8.2 1.33 7.32-2.2 13.23-5.9 19l-1.46-.87c3.35-5 4.9-10.34 3.4-16.33-1.14-4.48-3.65-6.3-8.5-5.1a165.64 165.64 0 0 0-18.07 5.62c-6.54 2.46-12.82 3.18-19-.6a32 32 0 0 0-17.19-5c-3.33 0-6.47 2.18-6.05 5.07.54 3.74 2 7.35 3 11l1.05 2.74 8.8 12.53-.1 1.45A29.58 29.58 0 0 1 354 175.18l-2-4.3-14.5 5c-20 6.83-37.6 17.25-51.72 33.4-14.76 16.88-28 34.76-38.76 54.45-1.23 2.24-3.14 4.1-4.73 6.15l-.7-.4c.42-1 .87-2 1.24-3s.7-2.16 1.05-3.24c9.1-16.24 19.24-31.9 31.2-46.24a301.07 301.07 0 0 1 23.4-24.67c10.18-9.7 23-15 36-19.73 5.28-1.9 10.66-3.53 16.14-5.33-1.87-5.65-1.77-11.16 2.86-15.6-2.8-2.24-5.77-4.34-8.38-6.83a20 20 0 0 1-4.09-5.7c-2.33-4.82-.77-7.6 4.95-8.88-2.15-2.8-4.52-5.6-3.28-9.3 1.33-3.92 5-4 8.08-4.2 0-2.46-.66-5 .2-6.87s3.2-3 5.1-4.55l-.25-2.78c-5.58 1.57-11.18 3.3-16.87 4.7a28.66 28.66 0 0 1-16.61-1.1 41.84 41.84 0 0 0-5.47-1.62c-2.73-.55-3.67-2-1.9-4.14 3.22-3.9 6.8-7.5 10.34-11.12 1.18-1.2 2.72-2 4.1-3.36-6.37.84-12.47-.38-18.54-1.88l.14-1.4c5 0 10.07.7 14.9-.1a111.21 111.21 0 0 0 35.62-12.26 7.1 7.1 0 0 0 1.32-1.2l11.2-4.4a3.3 3.3 0 0 0 1.27-.95 17.71 17.71 0 0 1 9.28-5.83l1.67-.33 2.14-.2c1.45-.54 4.1 1.33 4.12-2.06 1.57-2.5 2.7-5.45 4.8-7.38 6.26-5.8 13.77-7.66 22.14-5.66zm-83.5 43.07l-.6.53-13.35 8 .68 1.16 10.4-6.32.76-.5c7.9-3.15 15.86-6.2 24.4-7.07 5.08-.5 8.23-3.8 11.4-7.12 1-1.05 1.26-2.8 1.87-4.24l-.63-.46-4.86 2.3-21.94 9.52c-2.55 1.13-5 2.42-7.55 3.64z" class="k"/><path d="M591.72 179.2l10.52 4.2 2.1 3.3c-4.8 0-8.44 2.72-12.85 4.83.77.18 1.06.34 1.27.28 3.4-1 6.85-2 10.2-3.15.62-.22.92-1.3 1.37-2 .73.42 1.7.66 2.16 1.26a61.89 61.89 0 0 1 5.82 8.35l23.33 46.07 2.7 5.53 1.08 3.1q2 6.82 4.06 13.65c0 .64 0 1.27.13 1.9l6.33 47.93.56 21.86c.06 3.18-.06 6.37-.1 9.55l-1.8-15.72c-2.76-29.23-8.74-57.8-19.3-85.35-4.8-12.58-10.6-24.8-16-37.18-2.57-5.9-7-10.38-12.16-14.13a5.76 5.76 0 0 0-4.36-.44c-8.13 2.36-14.93 7.2-21.93 11.6-3.23 2-6.24 4.37-9.42 6.48a15.7 15.7 0 0 1-4.4 2.34c-1.3.34-3.55.37-4.06-.35a4.92 4.92 0 0 1 0-4.23c2.36-5 6.46-8.73 10.9-12s9.42-6.3 14.14-9.45c.52-.35 1-.73 2-1.4l-8.93-2.6-39-10.82c-7.8-2-15.78-3.23-23.7-4.8l3-7 23.4 4.4c.23 0 .4.35.6.54a40.27 40.27 0 0 0 3.92 1.22c11.22 2.35 22.47 4.44 33.3 8.37 4.86 1.78 10.07 2.6 15.12 3.87z" class="m"/><path d="M472 394.3l-5.54-27.46c-2.64-11.4-6.53-22.3-14.85-31.07-.93-1-1-2.74-1.66-4.65 2.66 0 4.7.08 6.75 0 24.95-1.1 49.9-1.22 74.78 1 14.62 1.3 29.2 3.22 43.78 4.88a16.76 16.76 0 0 1 2.36.62c0 2.46-1.94 2.44-3.5 2.4-5.8-.1-11.65 0-17.4-.66-14.27-1.62-28.5-.88-42.67.62-8.1.86-16.12 2.48-24.12 4a21.6 21.6 0 0 0-6.65 3c-3.5 2.12-5.1 5.48-5.53 9.52l-3.3 30c-.32 2.7-1.6 5.22-2.46 7.8z" class="i"/><path d="M243.93 263.24l-1.05 3.24-1.24 3 .7.4c1.6-2 3.5-3.9 4.73-6.15 10.77-19.7 24-37.57 38.76-54.45 14.12-16.16 31.7-26.58 51.72-33.4l14.5-5 2 4.3c-12.23 3.5-24.3 7.4-34.65 15.2L303 203c-19.83 15.77-35.8 34.84-48.66 56.66-3.8 6.45-8.5 12.37-12.8 18.53l-2.94-8.34z" class="g"/><path d="M535.2 243.27a32.61 32.61 0 0 1 1-3.59c2.82-6.6 5.8-13.1 11.7-17.73 1.3-1 2.38-1.74 3.8-.65a2.83 2.83 0 0 1 .62 4.12c-1.82 2.8-3.8 5.5-5.55 8.36-1.88 3.07-3.58 6.26-5.35 9.4-.18.3-.22.8-.48.95-1.08.65-2.34 1.8-3.3 1.6s-1.77-1.73-2.45-2.46z" class="m"/><path d="M311.07 82.68l-.14 1.4c-4.4-.7-8.54-1.9-12.2-4.68-6.58-5-7-18.8-3.77-25.85 3.08-6.67 7.87-11.26 15.16-12.78 1.65-.35 3.48.14 5.22.24l.05 1.2-2 .64-6.66 2-5.37 4.26c-5.35 5.67-6.82 12.4-5.7 19.9.95 6.46 4.4 10.67 10.72 12.45l4.7 1.23z" class="r"/><path d="M280.17 165.68c-1.28-1.75-2.92-3.35-3.76-5.3-2.45-5.63-4.6-11.4-6.8-17.13a2.41 2.41 0 0 1 .35-2.15 2.32 2.32 0 0 1 2.19-.12 8.14 8.14 0 0 1 2.72 2.56c3.94 6.65 5.66 14 6.47 21.52zm-32.1 30.75c-2-.66-4.3-1-6-2.06-4.46-2.88-8.75-6-12.93-9.3-.78-.6-.72-2.3-1-3.48 1.22.13 2.77-.17 3.62.46 5.75 4.3 11.36 8.78 17 13.2z" class="k"/><path d="M519.73 328.6l-17.06-.6-38.5-.12c-.7 0-1.43-.06-2.15-.1 4.8-.74 9.64-2.22 14.42-2.06 14.2.5 28.37 1.63 42.56 2.53a2.5 2.5 0 0 1 .73.33z" class="e"/><path d="M308.8 137.25c4 2 4.3 5.63 4.2 9.17a63.21 63.21 0 0 1-1.5 10.7c-2.9-6.4-2.6-13.12-2.7-19.87z" class="r"/><path d="M306.7 44.9l6.66-2-7.74 6.36-.65-1.1a15.55 15.55 0 0 0 1.74-1.9c.2-.35.01-.93-.01-1.37z" class="d"/><path d="M521.23 196.66h-1.46zM516 206.4l.35-.5z" class="n"/><path d="M255.1 422.46l-40.3-1.26q-52.8-1.87-105.64-3.82L63.4 415.7c-1.37 0-2.5 0-3.1-1.83Q37.58 344.6 14.7 275.4l-9.13-28-1.08-3.57 109.1 3.36c.08.43.24.72.17.92-2.4 6.9 1.32 11.65 5.6 16.22 2 2.15 3.13 2.1 5.13-.07q4.06-4.4 8.2-8.75a4.26 4.26 0 0 1 2.47-1.39 24.59 24.59 0 0 1-.78 2.7c-1.3 3.2-2.78 6.32-4 9.54s-.53 4.44 2.57 5.57 6.16 2.2 9.16 3.48c4 1.7 7.44 1.2 10.4-2l20.47-22.64a4.49 4.49 0 0 1 3.95-1.73q24.36.8 48.74 1.43a3.14 3.14 0 0 1 3.47 2.52q24.63 71.07 49.4 142.1l9 25.66c.33.92.5 1.9.74 2.86L264 422.54c-3-.14-5.95-.07-8.92-.08zm-37.92-68.25l1-.4a14.05 14.05 0 0 0 .2-2.8c-.58-4.95-.7-10-2-14.78-2.62-9.43-5.9-18.67-8.94-28l-11.87-36.2a21.47 21.47 0 0 0-3.38-5.8 2.85 2.85 0 0 0-2.65-.6 3 3 0 0 0-1.48 2.31 16.81 16.81 0 0 0 .77 5.07l18.66 59.16c1.77 5.52 4 10.88 6.27 16.23a47.79 47.79 0 0 0 3.42 5.8zm9.2-98.54l-1 .28c.48 1.78.86 3.58 1.46 5.32Q249.16 326 271.56 390.7l10.17 29.33c.25.7 1.27 1.13 1.94 1.68a9.07 9.07 0 0 0 .29-2.6 24 24 0 0 0-1.21-3.32q-12.56-36-25.12-72-14.8-42.27-29.63-84.52c-.46-1.28-1.1-2.4-1.64-3.6zM230 398.23l.8-.2c.2-1.73.8-3.5.53-5.17-.9-5.7-2.06-11.37-3.23-17a11.49 11.49 0 0 0-1.48-3.46c-1-1.63-2.35-3-4.4-2.32s-1.9 2.83-1.53 4.43c1.68 7.5 3.43 15 7.52 21.68a15.81 15.81 0 0 0 1.79 2.04zm-95.2-65.76c.07-6-4.53-10.3-11.1-10.3a10.43 10.43 0 0 0-10.26 10.25 10.68 10.68 0 1 0 21.36.06z" fill="#7c73fc"/><path d="M419.08 175.6c3.7-5.8 7.23-11.72 5.9-19-.8-4.46-3.76-7.06-8.08-8.2l-1.2-.3c-2.76-.94-5.47-2.28-8.3-2.73-5-.8-9.7 1-14.05 3.3-4.64 2.46-9.24 3.6-14.18 1l-.6-1.2c1.44-1.24 3-2.38 4.3-3.72 10-10 13.88-22.18 13.33-36.1-.42-10.77-5.7-18.64-14.27-24.62-1.84-1.3-3.9-1.9-6.13-.77-3.5-.83-6.5.3-9.18 2.47l-1.13-1.6 5.3-5.42a8.83 8.83 0 0 0 6.94-3.12c1.57-1.75 3.1-3.56 4.8-5.16A21.61 21.61 0 0 1 394.73 65c3.77-.54 5.45-2.1 5.06-4.82-.5-3.5.78-6.37 2.33-9.27a16.8 16.8 0 0 0 .94-2.72c5-3 10.58-3.36 16.18-3.76 1.15-.08 2.25-.93 3.38-1.43 3-.28 3-.28 7.3-5.4 1 7.23 5.24 11.9 11 15.37a33.48 33.48 0 0 0 19.18 4.68l-2.45-1.7.12-1 15.35 3.6 14.5 2.94-19.46 4.93-15.42-.58c-3.3-1.62-6.7-3.05-9.85-4.9-6.06-3.58-12.38-7.05-13.93-14.9-.06-.3-.35-.55-.8-1.25a7.49 7.49 0 0 0 .87 8c2.55 3.44 5.8 6.35 8.76 9.48 5.17 6.4 10.4 12.7 19.77 12.38-.83 2.9 1.47 2.65 3 2.82a82.62 82.62 0 0 0 32.09-2.62l9.1-2.8c.9 2.32 3 2.65 5 3.12L495 87.4a4.1 4.1 0 0 1-2.75.64l-19-.78c1.56 1 2.5 2 3.58 2.2a52.73 52.73 0 0 0 9.39 1.34c12.6.26 24.83 2.9 37.1 5.35 1.7.34 3.33 1 5.27 1.57-17.47 5.42-34.33 4-50.94-2.9l-.37 1 8.9 5.16c1.5.83 3.05 1.52 4.6 2.28 1.54 1.66 2.88 3.6 4.66 5 4.94 3.8 10.1 7.3 15.1 11 2.16 1.63 2.4 4 2.23 6.6a46.09 46.09 0 0 0 .37 10.17 7.34 7.34 0 0 1-1.92 6.88 16.08 16.08 0 0 0-3.91 6.63 7.14 7.14 0 0 1-3.81 5c-3.37 2-6.5 4.44-6.46 9v1.94c0 2.32-.1 4.66.15 7 .32 2.87 1.22 3.12 3.52 1.26-1.12 1.05-2.1 2.75-3.4 3a67.38 67.38 0 0 1-11 1.35 87.41 87.41 0 0 1-10.61-.23c-7.72-.56-13.05 3.27-17.5 9-5.17 6.6-10.17 13.3-15.6 19.6-10.58 12.3-24.7 16.33-40.37 15.5a16 16 0 0 1-14.74-11.85c.5.1 1.1 0 1.26.3 3.26 4.82 8.5 4.66 13.38 5.32a49.13 49.13 0 0 0 5.7.17c-.3 2.35 1 3.2 3.06 2.94a38.35 38.35 0 0 0 20.06-8.24c8.8-7.2 10.7-17.58 12.55-27.94l.54-2v.07l.66-2.3 5.25-25.43 4.25 2.2c1.86-2.62.32-4.93-4.18-6.3a31.36 31.36 0 0 1 5.34.92c2 .67 3.8 1 5.16-.86s.9-3.72-.77-5.3c-2.92-2.8-11.86-3.17-15.28.87-1.3 1.54-1 3-.15 4.52a25.19 25.19 0 0 0-3.62 1.86c-.53.37-.67 1.3-1 2a7.38 7.38 0 0 0 2.11.28c1.55-.23 3.08-.64 5.58-1.18-1.43 4.88-2.43 9-3.83 12.9-3.56 10.06-10 18-18.45 24.4-5.66 4.26-11.7 6.4-18.84 4.2-3.2-1-6.6-1.28-9.83-2.14-4.65-1.24-9-.25-13.28 1.42a43.7 43.7 0 0 1-3.34 1.13c-2.62.77-4.77.26-6.48-2.07a24.79 24.79 0 0 0-3.11-3l-5.2-4.22-8.8-12.53-1.05-2.74c.25-1.4.45-2.8.75-4.2 1.1-5.12 2.7-6.1 7.6-4.4 3.93 1.37 7.73 3.1 11.68 4.42 2.27.76 4.83 1.7 7 1.32a98.15 98.15 0 0 0 17.07-4.14c7.07-2.58 14.1-4.63 21.68-4 1.5 6-.06 11.35-3.4 16.33l-.54.5a.33.33 0 0 0-.38.25l-1.66.92c-4 1.23-6.55 4.17-8.62 7.6l-1.06 1.84.45.44 1.8-1.08 7.74-7.34 1.48-.85 1.07-.6zm20.78-86.12l.48-.48a5.06 5.06 0 0 0-.67-1.77c-4.5-4.95-9.57-8.7-16.66-9.12a15.36 15.36 0 0 0-16.57 16.22 8.27 8.27 0 0 0 1.25 3.78c.43.68 1.6.9 2.44 1.32.25-.85.86-1.8.68-2.55-.77-3.26.18-6.12 1.7-8.85 2.4-4.3 5.23-5.55 10.12-5 6.26.74 12.36 1.8 17.22 6.45zm-27.28 79.08c0-2.75-1.33-4-3.45-3.6-2.66.48-5.56.7-7.84 2a32.79 32.79 0 0 0-7.81 6.4 4.51 4.51 0 0 0-.19 4.36c.67.9 3.1 1.38 4.24.86a118.38 118.38 0 0 0 12.59-6.8c1.25-.8 1.88-2.5 2.46-3.23zM377.06 176a16.48 16.48 0 0 0-1.59-3.29 23.2 23.2 0 0 0-10.68-8.11 5.06 5.06 0 0 0-3.16-.2 2.68 2.68 0 0 0-1.45 2.12c.6 5.5 7.4 12.38 12.9 13.32 2.45.43 3.97-.77 3.98-3.84zm67-56l.16-1c-1.1-.36-2.25-1.16-3.25-1-4 .67-8.13 1.13-11.8 2.65-3.07 1.27-5.64 3.83-8.25 6-.5.42-.12 1.87-.15 2.84.82-.08 1.92.15 2.4-.3 4.3-3.9 9.63-5.67 15-7.37a181.97 181.97 0 0 0 5.9-1.82zm15.2-2.86l-.34-.78a9.08 9.08 0 0 0-2.15 0 84.61 84.61 0 0 0-9 2.49c-.77.28-1.06 1.9-1.58 2.92a9.6 9.6 0 0 0 3.09.15 27.35 27.35 0 0 0 4.16-1.92zm-13.5-1.62l.67 1.37 4.76-2.5-.47-1z" class="o"/><path d="M241.56 278.18c4.3-6.16 9-12.08 12.8-18.53 12.86-21.82 28.83-40.9 48.64-56.65 5.4-4.3 10.87-8.48 16.37-12.62 10.35-7.8 22.42-11.7 34.65-15.2a29.58 29.58 0 0 0 10.88 10.91l3.9 3.5a27.51 27.51 0 0 0 2 4.92c.94 1.45 2.2 3.14 3.68 3.66 1.93.68 2.33 1.83 2.8 3.45q17.9 61.9 35.86 123.77l1 3.4-6 .37c-.68-2.27-1.24-4.54-2-6.73q-18.5-52.83-37-105.65c-.93-2.66-1.77-5.35-2.86-7.94-.38-.9-1.38-1.55-2.1-2.32-.2 1.1-.83 2.32-.5 3.23q10.1 29.37 20.4 58.66 9.74 27.62 19.6 55.18c.7 1.95 1.55 3.85 2.33 5.77-13.55 6-13.55 6-23 15.26l-6.9-4.64-6.7-4.54a97.76 97.76 0 0 0 3.73-9.38 41.41 41.41 0 0 0-1.91-28c-10.53-24.92-28.87-40.94-55.4-47.06a44.42 44.42 0 0 0-20.54.1c-15 3.58-24.7 15.44-25.3 30.88-.5 13 4.07 24.43 11.3 34.9 10.94 15.84 25.73 26.4 44.76 31.9-13.57 14.7-28.53 26.46-49.1 29.47l-7.55-21.46q-13.38-37.46-26.8-74.9c-.4-1.24-.73-2.47-1.1-3.7zm108.88-23.5l.85-1c-1.54-1.5-2.84-3.5-4.68-4.42-7.1-3.52-14.37-6.76-21.66-9.93a7.48 7.48 0 0 0-4.49-.28 4 4 0 0 0-2.42 2.46c-.2.78.7 2.23 1.53 2.75a19 19 0 0 0 4.73 2l21.46 6.7c1.6.42 3.12 1.1 4.68 1.7zm1-8.9l.8-.78c-1.47-1.56-2.67-3.63-4.47-4.58-5.76-3.08-11.76-5.82-17.76-8.5a4.61 4.61 0 0 0-3.61.31 4.11 4.11 0 0 0-1.89 2.93c0 .72 1.37 1.73 2.34 2.15s2.32.3 3.46.54c7.4 1.63 14.6 3.86 21.16 7.92z" fill="#fcfcfc"/><path d="M407.6 395c-3.73-2.1-7.55-4.14-11.22-6.42-.5-.3-.6-1.8-.44-2.63 1.72-8.24 4.4-16.1 9.45-23a9.21 9.21 0 0 0 1.62-2.85 15.6 15.6 0 0 0 .18-3.5c-1.23.16-2.75-.1-3.63.55a53.69 53.69 0 0 0-17.72 22.54l-9.8-9.8a3.57 3.57 0 0 1-.53-2.75c2.72-14 16.47-30.86 31.87-34.1 8.12-1.7 15.16-.2 20.95 5.86l18.23 19.5a6.53 6.53 0 0 0 6.44 2.43c2.14-.35 4.3-.6 6.84-.94.67 2.37 1.44 4.76 2 7.2 1.85 7.66 4.13 15.27 5.27 23.05.85 5.75.17 11.72.17 18.13-2.73-1.8-4.75-3.15-5.72-5.87a10 10 0 0 0-3.1-3.95l-15.86-12.86c-12.63-10.2-20.7-9.54-30.93 3.2-1.42 1.82-2.57 3.9-4.08 6.23z" fill="#fbfbfb"/><path d="M208.23 245.9l-11.1-.2h-18.77l-.26-.75 7.66-6.8 2.2-1.9-.6-.83-3 2c-4.3 3.4-8.93 6.44-12.77 10.28-5.52 5.5-10.42 11.58-15.65 17.36a56.81 56.81 0 0 1-6.52 6.55 5.58 5.58 0 0 1-4.42.9c-3.78-1.15-7.4-2.82-11.4-4.42 2.1-5.08 4.44-9.9 6.12-14.94 1.8-5.4 3-11 4.42-16.52a32.63 32.63 0 0 0 1-3.67 12.06 12.06 0 0 0-.26-2.78c-.87.26-2 .24-2.58.8l-16.66 17.54a80.14 80.14 0 0 0-5.36 7.24 8 8 0 0 1 .11-2.65c1.55-3.86 3.36-7.62 4.87-11.5 4-10.18 10.54-18.48 18.24-26.1 10.95-10.84 32.5-8.62 40.48-1.16 5.36 5 10.4 10.36 15.5 15.63a16.34 16.34 0 0 1 2.61 3.8c2.12 4.02 4.1 8.08 6.13 12.12z" class="o"/><path d="M361.4 326.68c-.2 10.48-.72 11.14-8.74 14.87-4.86 2.27-10.1 1.9-15.23.72a67.37 67.37 0 0 1-26.93-13.14c-15.1-11.9-26.7-26.35-32.22-45.1a41 41 0 0 1-1.46-6.91c-1.12-9.92 5.07-17.5 15.05-17.47a41.62 41.62 0 0 1 15.64 2.74c25.25 10.6 42.48 29.14 51.87 54.86 1.26 3.44 1.6 7.24 2.02 9.43zm-13.53 2.9c-.35-1.58-.56-3.2-1.05-4.75-2.1-6.6-6.65-11.34-11.8-15.66-6.85-5.77-14-11-22.8-13.46-7.23-2-11-.4-14.42 6.1-.1.16-.13.4-.27.47-3.66 2.16-1.9 4.75-.5 7.2 4.36 7.65 10.67 13.52 17.7 18.6 6.82 4.93 14.1 8.95 22.6 10.2 5.85.87 10.3-2.86 10.5-8.7zm-12.52-38.05l.68-.42c-1.67-2.72-3-5.77-5.07-8.1-5.42-6.05-12.77-9.5-19.62-13.58a57 57 0 0 0-7.9-3.62c-1.92-.78-6 .27-6 1.6a10.51 10.51 0 0 0 1.69 5.34 8.52 8.52 0 0 0 3.7 2.66 75.83 75.83 0 0 1 22.87 15.6 18.47 18.47 0 0 0 5.08 3.6c2.55 1.18 4.63-.35 4.57-3.08zm17.8 21.72c-1.63-5.24-3.15-10.24-7.5-13.55-2.45-1.9-4.54-1.93-6.3-.08s-.8 4 .47 5.62c2.7 3.4 5.58 6.64 8.55 9.8a3.15 3.15 0 0 0 2.81.72c.87-.4 1.35-1.67 1.96-2.5z" fill="#f8f8fa"/><path d="M500 192.57l-3.47 6.77q-14.94 32.8-29.83 65.6l-14.3 31.18c-.15.3-.36.6-.8 1.32l-17.3-58.5c5.56-2 9.9-5.08 9.93-11.54 0-5.25-3.3-8.13-7.9-9.8 6.8-7.48 11.63-6.64 18.9-1.62a36.69 36.69 0 0 1 14.1 19.13 19.86 19.86 0 0 0 1 2.52c1 2 2.4 2 3.63.1.25-.38.4-.8.6-1.2q11.77-22.07 23.56-44.1c.12-.22.4-.35.6-.53zm-119.64 10.26c2.13.1 4.75 2.5 5.95 5.58l-2.38.5c.82 5.1 2.86 9.3 7 12.24s8.52 4.67 13.48 4.46 10.08-.94 15.12-1.44c.7-.07 1.4-.18 2.2-.28-2.86 7-.8 12.3 7.68 15.28l-21.95 52.9-13.75-45-13.34-44.23z" fill="#fafafa"/><path d="M500.62 179.42a5.35 5.35 0 0 1-.24 1.82q-13.94 26.2-27.95 52.38c-.07.15-.22.25-.43.48-2.44-5.92-4.45-12.13-9.62-16.26-4.83-3.87-9.12-8.88-16.57-8.74.55-.85.86-1.42 1.25-1.93 4.2-5.6 8.62-11 12.54-16.8 4.08-6 9.22-9.12 16.65-8.73a175.44 175.44 0 0 0 18.2-.2c2.1-.1 4.12-1.26 6.18-1.93z" class="p"/><path d="M379.8 380l-39.66-.88-5.12-28.8c3.3-.2 6.92-.22 10.5-.7s6.88-1.45 9.85-2.1l19 12.88c-4.84 8.16-1.1 14.18 6.06 19.17z" fill="#f8f8fa"/><path d="M364.68 334.87c1.54-8 0-15.36-2.7-22.43-7.76-20.15-21.65-35.23-39.56-46.83-8.2-5.32-17.07-9.1-26.94-10.24 6-2 12.16-1.94 18.28-.86 27.1 4.74 51.25 28.1 56.37 54.58a33.14 33.14 0 0 1-3.56 23.45 18.09 18.09 0 0 1-1.88 2.33z" class="s"/><path d="M298.78 410.05a92.22 92.22 0 0 0 9.22-2.85c3.5-1.47 5.84 2.05 9.36 1.15l-3.6-2.7 2-1.2c-5.3 1.2-9-2.74-13.7-4l2.33-1.46-11.18-.82 1.62 1.48c-.06.12-.1.33-.18.35-2.4.53-4.76 1.18-7.18 1.5a3 3 0 0 1-2.55-1.1c-1.28-3-2.24-6.1-3.33-9.2l98.3 7.66.06.63-16 3q-24.33 4.62-48.65 9.27c-3.66.7-7.34 1.6-11 1.66-1.9 0-3.8-1.64-5.72-2.53z" fill="#786ff3"/><path d="M208.23 245.9l-6.1-12.1a16.34 16.34 0 0 0-2.61-3.8c-5.1-5.27-10.14-10.63-15.5-15.63-8-7.46-29.53-9.68-40.48 1.16-7.7 7.63-14.25 15.93-18.24 26.1-1.5 3.87-3.32 7.63-4.87 11.5a8 8 0 0 0-.11 2.65l-.84 3c-1.63-1.87-3.25-3.38-2.65-5.8.72-2.85 1.78-5.6 2.56-8.45.23-.83-.25-1.87 0-2.68 3.5-11.2 8.16-21.76 16.36-30.44 7-7.4 15.54-11 25.67-11.37 14.3-.58 25.38 5.45 34.47 16 1.23 1.43 2.3 3 3.44 4.52l.6 1.24v-.05l.57.6 3.27 6.06v-.06l.48 1.12 6.92 16.7zM497 163.54c0-4.56 3.1-7 6.46-9a7.14 7.14 0 0 0 3.81-5 16.08 16.08 0 0 1 3.91-6.63 7.34 7.34 0 0 0 1.92-6.88 46.09 46.09 0 0 1-.37-10.17c.16-2.64-.07-5-2.23-6.6l-15.1-11c-1.78-1.36-3.12-3.3-4.66-5a67.24 67.24 0 0 0 21.46 2.36 8.35 8.35 0 0 1 2.74.94c1.88 2.43 3.9 4.77 5.62 7.3 2.2 3.25 1.88 4.34-1.5 6.23-2.1 1.17-1.9 2.88-1.13 4.7 1.13 2.67 2.5 5.25 3.43 8 2.25 6.52 1.13 9.8-4.43 13.85-3.35 2.44-3.3 2.42-1.73 6.3a2.32 2.32 0 0 1-.52 2c-4.18 3.7-8.65 6.86-14.48 7.42a13.37 13.37 0 0 0-3.22 1.2z" class="i"/><path d="M289.83 377.24a64.64 64.64 0 0 0 7-2c11.12-4.55 20.33-11.8 28.5-20.48l5.12-5.52 5.78 29.8-46.26-.77z" class="f"/><path d="M293.06 424.07l-1.87-5.82c35.7-3.9 70-14.16 105.4-18 1 2.5.22 3.3-2 3.73q-44.22 8.6-88.42 17.37l-13.1 2.72z" class="l"/><path d="M273.9 279.07c9.6 33.24 30.27 55.4 63.27 66.72a21.26 21.26 0 0 1-3 .16c-13.1-1.43-24.5-6.58-34.75-14.86a75.53 75.53 0 0 1-19.57-23 50 50 0 0 1-6.29-25.64c.06-1.1.22-2.14.34-3.38z" class="e"/><path d="M451.54 402l-6 8.33-31-19.88 10-8.77zm-70.07-55.57l-6.44 11L360 347l7.54-9.58z" class="s"/><path d="M409.83 213.15l-10-1.73c-.22 0-.43-.52-.53-.83l-5.53-17a51.06 51.06 0 0 0 6.84 2.34c3.1.57 4.36 2.27 5.1 5.25.93 3.82 2.53 7.43 4.13 11.97z" class="t"/><path d="M435 195c-1.56 5.92-4.47 10.8-10.27 13.67l-3.34-11 11.82-11.58z" class="f"/><path d="M407.3 198.47h11.56L423 209.9c-3.56.84-7.08 1.75-10.64 2.46a2.22 2.22 0 0 1-1.88-1c-1.16-4.3-2.15-8.6-3.18-12.9z" class="t"/><path d="M443.48 182.7c-1.86 10.36-3.76 20.74-12.55 27.94a38.35 38.35 0 0 1-20.06 8.24c-2.08.25-3.36-.6-3.06-2.94 6.75.1 12.74-2.38 18.56-5.44 4.38-2.3 7.3-6 9.42-10.33 2.24-4.5 4.12-9.17 6.14-13.77.54-1.22 1.07-2.47 1.55-3.7z" class="g"/><path d="M140.83 236.44c-.54 3.58-.25 7.4-3.24 10.14q-8 7.36-16.07 14.7l.18 1c-.15-.84-.72-1.93-.4-2.5a84.52 84.52 0 0 1 19.53-23.35z" class="j"/><path d="M444.26 149.1c-.83-1.53-1.15-3 .15-4.52 3.42-4 12.36-3.66 15.28-.87 1.67 1.6 2.23 3.38.77 5.3s-3.17 1.53-5.16.86a31.36 31.36 0 0 0-5.3-.88z" class="m"/><path d="M397.2 211.2c-1.18-.55-2.68-.8-3.5-1.7-3.5-3.85-6.83-7.87-10.4-12.06l6.63-3.23 7.75 16.4z" class="j"/><path d="M289.46 404.22c6.6-3.36 12.37-3.42 17.9 1.3-3.62.92-7.2 2.5-10.77 2.5-2.3-.01-4.6-2.34-7.14-3.8z" class="l"/><path d="M434.55 184.08l7.66-10.3.5.2q-3.4 9.7-6.82 19.4-.67-4.63-1.34-9.3z" class="j"/><path d="M500.85 164.9l9.9-3.72-4.15 9.06c-.3.62-1.14 1-1.73 1.47a14.2 14.2 0 0 1-1.2-1.6l-2.8-5.2z" class="e"/><path d="M444.8 341.68l3.25 14.22-.3.34-6.24-7.94c-.18-.23 0-.87.16-1.2l3.13-5.4z" class="j"/><path d="M299.85 414.23l-9.36 2-1.25-3.18c4.33-2.6 6.2-2.42 10.6 1.18z" class="l"/><path d="M255.1 422.46l8.93.06 24.23 1.06c-.3.15-.62.44-.92.43q-15.75-.6-31.5-1.3a2.76 2.76 0 0 1-.75-.25zM500.6 173.7c-2.3 1.86-3.2 1.6-3.52-1.26-.26-2.3-.1-4.63-.15-7q1.85 4.16 3.67 8.26z" class="e"/><path d="M286.6 404.32l6 4.6c-4.7 1.66-5.04 1.4-6-4.6z" class="l"/><path d="M434.55 184.08q.66 4.65 1.34 9.3L435 195l-1.8-8.95zm-65.73 5.5l-3.9-3.5.1-1.45 5.15 4.22z" class="d"/><path d="M499.55 190.6q1.33-2.52 2.7-5l.87.42-2.37 4.88zM203.7 228.3l-3.27-6.06z" class="h"/><path d="M289.83 377.24l.1 1h-6.1v-.45zM184.4 237.42l3-2 .6.83-2.2 1.9z" class="d"/><path d="M342 345.9h-5l.07-.8 4.86.64z" class="l"/><path d="M637.07 251l-1.07-3.1z" class="h"/><path d="M499.55 190.6l1.2.26-.74 1.72-1.22-.7z" fill="#fafafa"/><g class="g"><path d="M444.64 178.5l-.66 2.3z"/><path d="M444,180.74l-.54,2Z"/></g><path d="M204.16 229.37l-.48-1.12zm-4.23-7.63l-.6-1.24z" class="h"/><path d="M561.45 330.1l.18.56h-.65z" fill="#fdfdfd"/><path d="M500.63 179.5l.47.05-.25.24c-.08-.1-.15-.23-.23-.36s.01.07.01.07z" class="p"/><path d="M200.47 222.28l-.57-.6z" class="h"/><path d="M483.76 31.32q.78-6.94 1.57-13.88a27.19 27.19 0 0 1 4.1 1.42l21.54 11.55q-.44 6.4-.88 12.78c2.5-3.3 1.85-7.24 2.3-11 1.06.46 2.16.83 3.17 1.37q11.6 6.23 23.17 12.48v7.15l.62.17q.82-3.18 1.63-6.35c9.74 3.68 19.93 4.86 30.22 5.46v8.22c2.4-2.3 2.3-5.32 2.76-8.15 2.34-.2 4.7-.3 7-.58 6.9-.8 13.54-2.47 19.5-6.23l1.15-.64.66-.5c5.82-3.4 11.1-7.35 14.1-13.66a7.17 7.17 0 0 1 1.4-1.53c.08 11.8-6.38 19.8-15.65 25.8-8.6 5.58-18.5 7.32-28.52 8.14-15.38 1.26-30.63-.58-45.9-2.27-11.46-1.26-23.05-1.54-34.42-3.28-13.25-2-26.36-5-39.46-7.92a29.84 29.84 0 0 1-9.79-4c-5.6-3.66-9.57-8.76-10.76-15.6 3.13-2.2 6.32-4.3 9.37-6.62 3.4-2.6 6.85-5 11.16-5.7.1 2.24.6 4.55.22 6.7-.8 4.38-2.1 8.68-3.16 13a3 3 0 0 0 0 1.89c4.3-7 6.35-14.55 5.17-22.82a56.08 56.08 0 0 1 26.64-.49l.33 12.08c0 1.16-.17 2.33-.26 3.5q-1.65 6.63-3.32 13.27l.9.2q1.75-6.95 3.43-13.97zM509 45l-.6 2.12.83.3 1.13-2.55-.6-1.3z" class="p"/><path d="M388.46 57.4l-2.14.2-1.67.33a17.71 17.71 0 0 0-9.28 5.83 3.3 3.3 0 0 1-1.27.95l-11.2 4.4-2-2.33-2.9-4.4-.6-1.55-2.5-5-1.56-4.82 18.22-19.74 2 .57.25 1.6.34 1.12L379 44l3.46 5.4a7.84 7.84 0 0 0 5.23 4.48q-2.25-2.82-4.52-5.63l-2.9-5.4-3.1-7.15-.18-1.06-.3-1.12-.32-2.12-.17-1.16V26.7c3.53-2 6.94-4.25 10.6-5.93a24.38 24.38 0 0 1 15.85-1.53l.7 1.78-.3 2.12-.2 1.7q.1 4.1.2 8.2l.68 4.06.46-.12V33l.25-3.8.2-1.7.34-3.2.25-1.15-.08-.95 1.34-2.2c3.73 1.3 7.53 2.46 11.18 4 3.44 1.42 6.74 3.2 10.1 4.8a9.24 9.24 0 0 1-5.4 11.22 10.15 10.15 0 0 0-1.2.58l-1.63 1.7c-8.37-2-15.88-.13-22.14 5.66-2.1 1.93-3.23 4.9-4.8 7.38z" fill="#fefefe"/><path d="M360.9 66.8l2 2.33a7.1 7.1 0 0 1-1.32 1.2A111.21 111.21 0 0 1 326 82.58c-4.83.8-9.92.1-14.9.1l-4.7-1.25c-6.3-1.78-9.77-6-10.72-12.45-1.1-7.5.34-14.2 5.68-19.83-.07.54-.1 1.08-.22 1.6-1.64 8 4.25 17.35 12.1 19.3a12.49 12.49 0 0 0 .23 1.51c.06.23.3.4.66.84l.95-1.87L328 69.37l1.22 5.74.85-.1v-4.3c0-.77.08-1.54.12-2.3 8.85-2.52 15-8.76 20.9-15.3l5.8 10.22 3.05 4a7 7 0 0 0 .96-.56z" class="f"/><path d="M563.13 83.25l-12.64 7.63c-1 .58-1 .44-2.56-.47-.48-.28-1.34 0-2 .15l-16.4 3.1a8.88 8.88 0 0 1-3.25 0l-26.12-5.2 12-13.1 28.43 3.8c7.52 1.13 15.02 2.7 22.54 4.08z" class="p"/><path d="M563.13 83.25c-7.52-1.4-15-3-22.57-4.1-9.45-1.44-18.95-2.55-28.43-3.8a24.87 24.87 0 0 0 2.48-4.5c1-3.23 3.34-3.8 6.26-3.92 7.83-.34 15.58 0 23.22 2l25.82 6.47.58 4.13z" class="i"/><path d="M452.76 65.76l15.42.58-2.9 2.1.26 1a15.27 15.27 0 0 0 3.4-.25c11.7-3.43 23.9-3 35.86-4.5a3.56 3.56 0 0 1 2.3.47c-1.27.48-2.56.93-3.8 1.46-13.5 5.7-27.5 8.62-42.2 7.63a23.43 23.43 0 0 0-3.52.29c-9.36.3-14.6-6-19.77-12.38l11.63 3.66a11.63 11.63 0 0 0 3.33-.06z" fill="#786ff3"/><path d="M402.65 19.24a24.38 24.38 0 0 0-15.85 1.53c-3.67 1.68-7.08 3.93-10.6 5.93 1.12-11.34 7.16-18.57 19.1-18.65 4.2 0 8.4.83 12.52 1.27l-4.17 10zm80.1-2.94a56.08 56.08 0 0 0-26.64.49l-4.23-11 9.22-1.17 11.1.42c.18 0 .36-.13.52-.1 2.07.44 5.15.23 6 1.5 1.92 2.9 2.75 6.55 4.03 9.85z" class="i"/><path d="M511 30.4l-21.54-11.55a27.19 27.19 0 0 0-4.1-1.42l-2.86-11a40.21 40.21 0 0 1 15.64 6.07 72.51 72.51 0 0 1 11.68 8.78c1.32 1.24 1.27 4.05 1.62 6.18a9.44 9.44 0 0 1-.44 2.94z" class="g"/><path d="M453.86 18c-4.3.73-7.77 3.1-11.16 5.7-3.05 2.3-6.24 4.42-9.37 6.62-2.3-5.7-1-12.46 3.66-16a80.54 80.54 0 0 1 11.36-6.61 2.73 2.73 0 0 1 2.44 1.09c1.2 3 2.08 6.13 3.07 9.2z" class="i"/><path d="M427.74 28.7c-3.36-1.6-6.66-3.38-10.1-4.8-3.65-1.5-7.45-2.65-11.18-4l-.9-.1c1.24-2.7 2.36-5.47 3.8-8.06a3 3 0 0 1 2.68-.94c5.78 1.7 10.5 5.28 15 9.12a3.35 3.35 0 0 1 .7 2.2c.08 2.22.01 4.4 0 6.57zm110.98 17.38q-11.58-6.24-23.17-12.48c-1-.54-2.1-.9-3.17-1.37l1.32-7.77 6.82 4.3q7.83 4.9 15.7 9.77c2.97 1.83 2 4.92 2.5 7.54zM371.53 31.3L353.3 51.05c.5-2.62.4-5.55 1.6-7.82 4.78-9.2 12.2-16.36 19.15-23.86.1-.1.32-.1.45-.15l-1.28 10.43zM571.2 52.5c-10.3-.6-20.48-1.78-30.22-5.46l-.47-6.54c2.3.8 4.3 1.64 6.38 2.18 6.56 1.7 13.1 3.56 19.75 4.84 3.15.6 4.37 2.14 4.56 4.98zm-220.12.63c-5.92 6.53-12.05 12.77-20.9 15.3A15.57 15.57 0 0 1 336.6 58c4.44-3.23 8.36-7.17 12.5-10.8.66-.58 1.28-1.2 2-1.85zm249.42-7.36c-6 3.76-12.6 5.43-19.5 6.23-2.34.27-4.7.4-7 .58l-.84-4.15c9.6.47 18.46-1.9 27-6.3l1 2.82z" class="g"/><path d="M617.82 29.44a7.17 7.17 0 0 0-1.4 1.53c-3 6.3-8.3 10.26-14.1 13.66-1.15-1.87-1-3.2 1-4.58 5.95-3.93 10.43-9.13 12.58-16.1l.8-.14zM328 69.37l-12.94 1.17a5.15 5.15 0 0 1 4.77-4.86c3.15-.52 6.18-1.76 9.26-2.68h-.1q-.48 3.16-1 6.37zm-14.8.7c-7.86-2-13.75-11.35-12.1-19.3.1-.53.15-1.07.22-1.6l5.37-4.26c0 .44.22 1 0 1.32a15.55 15.55 0 0 1-1.74 1.9 10 10 0 0 0 1.33 15c2.28 1.62 5.1 2.47 7.7 3.67l-.77 3.28z" class="e"/><path d="M506.8 75c-2-.47-4.14-.8-5-3.12l9.46-3.62.46.7z" class="l"/><path d="M483.76 31.32q-1.7 7-3.38 14l-.9-.2q1.67-6.63 3.32-13.27z" class="d"/><path d="M457.8 54.87l-.12 1L445.22 51l.26-.7z" class="h"/><path d="M380.27 42.84l2.9 5.4-.7 1.15L379 44l.73-1.14z" class="d"/><path d="M570.5 79.48l-.58-4.13 5.15 2.06z" class="h"/><path d="M472.2 5.06l-11.1-.42z" class="e"/><path d="M380.27 42.84h-.54l-2.55-7.17z" class="f"/><path d="M360.9 66.8a7 7 0 0 1-1 .58l-3.05-4 .14-.08v.15l1-1z" class="d"/><path d="M354.87 55.87l2.5 5-2.5-5z" class="f"/><path d="M404.17,33v4l-.46.12L403,33Z" class="d"/><path d="M419.52 42.3l1.63-1.7.07 2.2zm-48-11l1.7-1.66.33 2.23zm34.02-11.46l.9.1-1.34 2.2.43-2.3zm-2.9-.6h1l-.28 1.75zm.2 5.6l.2-1.7zm1.76 2.6l-.2 1.7.2-1.7zm.6-4.34l-.2 1.15z" class="f"/><path d="M600.5,45.77l.58-.82.57.18Z" class="e"/><path d="M376.65 33.5l.3 1.12-.3-1.12zm-2.5 1.1l-.34-1.12.34 1.12zm2.02-4.37l.17 1.16-.17-1.16z" class="f"/><path d="M357.02 63.43v-.15l-.14.08v-.01l.14.16v-.08z" fill="#fefefe"/><path d="M351.7 44.65l.03.17-.12-.03.1-.14zm23.43-26.2l.04.2-.14-.02.1-.17z" class="g"/><path d="M329.08 63v-.24l.15.2H329z" class="e"/><path d="M386.25 104.4c-.46 6.73-.75 13.5-3.94 19.65-.4.76-1.45 1.17-2.2 1.74.56-4 .2-7.8-2.9-10.84-2.7-2.64-5.6-2.27-7.8.8-2.5 3.5-1.67 7-.33 10.6.9 2.37 2.3 4.13 5 4.47s4.15-1.24 5.16-3.46c1.74-.26 1.26.52.76 1.48-3.3 6.24-7.06 12.2-12.5 16.72-6.6 5.46-7.5 5-14.8.3-.33-.74-.6-1.5-1-2.2-1.4-2.52-.93-3.6 1.83-4.26q7.35-1.72 3.43-8.1l-2.46-4.12a12.58 12.58 0 0 1 1.24-.32c6.18-.83 7.83-4.1 5-9.63a4.11 4.11 0 0 1 .24-2.57c.56-1.86 2-3.8 1.73-5.5-.5-3.2.26-6.07.9-9.05.25-1.2.28-2.43.46-4.1l-2.37 1c-2.3.73-4.63 1.4-6.9 2.2-3.93 1.4-7.78 3-11.74 4.3-7.42 2.43-14.7 1.67-22.12-1.7a32.06 32.06 0 0 1 2.91-1.87l23.05-11.6c1.5-.76 2.53-.38 3.85.65a65.46 65.46 0 0 0 6.66 4.12c.63.23 1.32.76 1.86.63 1.85-.44 3.6-1.14 4.62-3l1 4.53c3.75-5.22 7-10.3 13.36-5.08l.35.25a.41.41 0 0 0 .38.31c3.5 4.02 6.47 8.24 7.3 13.64z" class="u"/><path d="M379.2 149.7c4.94 2.56 9.54 1.4 14.18-1 4.36-2.3 9-4.1 14.05-3.3 2.84.45 5.55 1.8 8.3 2.73A60.66 60.66 0 0 0 393 155c-4.25 2.28-8.84 1.64-13.27.3s-8.8-2.84-13.47-4.36c6-3.82 10.18-9.22 13.7-15.16a54.85 54.85 0 0 0 7.39-35.31 14.45 14.45 0 0 0-.58-2.09l-.3-1.07c-.15-7.26-4.73-11.16-10.63-14 2.22-1.14 4.3-.53 6.13.77 8.56 6 13.85 13.85 14.27 24.62.55 13.9-3.37 26.1-13.33 36.1-1.33 1.34-2.87 2.48-4.3 3.72l-.8.75z" class="i"/><path d="M421 158.4c-7.6-.64-14.6 1.4-21.68 4a98.15 98.15 0 0 1-17.07 4.14c-2.22.37-4.78-.56-7-1.32-4-1.3-7.75-3.05-11.68-4.42-4.9-1.72-6.5-.73-7.6 4.4-.3 1.4-.5 2.8-.75 4.2-1-3.67-2.46-7.28-3-11-.42-2.9 2.72-5.06 6.05-5.07a32 32 0 0 1 17.19 5c6.2 3.8 12.5 3.07 19 .6a165.64 165.64 0 0 1 18.07-5.62c4.85-1.22 7.36.6 8.47 5.1zM361.7 97l2.37-1-.46 4.1c-.64 3-1.4 5.85-.9 9.05.26 1.7-1.17 3.64-1.73 5.5a4.11 4.11 0 0 0-.24 2.57c2.8 5.54 1.15 8.8-5 9.63a12.58 12.58 0 0 0-1.24.32l2.46 4.12q3.9 6.4-3.43 8.1c-2.76.65-3.22 1.74-1.83 4.26.4.7.66 1.46 1 2.2a18.92 18.92 0 0 1-8.14-8.46c-1-2-.4-2.83 1.9-2.78 1.63 0 3.26.43 4.87.34a9.17 9.17 0 0 0 2.78-1.12c-.44-1-.64-2.2-1.35-2.92-1.77-1.78-4-3.13-5.62-5-2.36-2.82-1.38-4.94 2.26-5.33 1.8-.2 3.62.1 5.42 0 .7 0 1.9-.56 1.95-1a3.37 3.37 0 0 0-.88-2.26c-.73-.9-1.86-1.5-2.5-2.46-1.07-1.56-1.33-3.2.75-4.32a22.34 22.34 0 0 0 4.36-1.14c3.25-1.57 3.75-4.36 1.5-7.22zm41.36-48.85a16.8 16.8 0 0 1-.94 2.72c-1.55 2.9-2.82 5.76-2.33 9.27.4 2.73-1.3 4.28-5.06 4.82a21.61 21.61 0 0 0-12.14 5.5c-1.72 1.6-3.24 3.4-4.8 5.16a8.83 8.83 0 0 1-6.94 3.12c2.33-2.48 4.13-5.17 4.54-8.73.13-1.2 1.7-2.18 2-3.4 1.35-6.14 6.36-6.08 11-6.74 1.25-.18 2.53-.18 3.78-.38 2.1-.33 4.75-.18 3.34-3.78-.2-.5.43-1.63 1-2.1 2.07-1.9 4.34-3.6 6.56-5.44z" class="g"/><path d="M379.2 127.35c-1 2.22-2.5 3.8-5.16 3.46s-4.07-2.1-5-4.47c-1.34-3.58-2.17-7.1.33-10.6 2.2-3.07 5.1-3.44 7.8-.8 3.08 3 3.45 6.82 2.9 10.84z" class="q"/><path d="M338.38 85.3l7.55-3.64 21.94-9.52 4.86-2.3.63.46c-.6 1.43-.87 3.2-1.87 4.24-3.16 3.3-6.3 6.6-11.4 7.12-8.53.88-16.5 3.92-24.4 7.07l1.48-2.4.6-.53z" class="e"/><path d="M363.87 90.8c-1 1.82-2.77 2.52-4.62 3-.54.13-1.23-.4-1.86-.63l2.2-.42-7.17-5.93 10.36-2.7-.3 3.75 1.1.73.58-2.65 1.28.88z" class="j"/><path d="M386.48 97.35l.3 1.07c-.23.43-.64.86-.65 1.3l.12 4.7c-.82-5.4-3.8-9.63-7.26-13.6l5.52 4.65c.7.6 1.32 1.26 1.97 1.9z" class="d"/><path d="M337.2 86.33l-1.48 2.4-.76.5-10.43 6.28-.68-1.16z" class="h"/><path d="M360 102.1c2.24 2.86 1.74 5.65-1.5 7.22a22.34 22.34 0 0 1-4.36 1.14 25.83 25.83 0 0 1 2.5-1.54c3.24-1.56 3.28-1.63 1.25-4.9z" class="j"/><path d="M388.46 57.4l4.12-2.06c-.02 3.4-2.67 1.52-4.12 2.06z" class="f"/><path d="M355.18,169.37l1.05,2.74Z" class="g"/><path d="M365.54 84.16l1.13 1.6-1.78.42z" class="u"/><path d="M384.65,57.93l1.67-.33Z" class="f"/><path d="M417.08 175.23l.54-.5 1.46.87-1.2.82z" class="n"/><path d="M415.7 148.07l1.2.3z" class="i"/><path d="M378.6 90.5l-.35-.25h.26z" class="d"/><path d="M334.93 89.18l.76-.5z" class="e"/><path d="M337.76 85.84l-.6.53zm.62-.54l-.65.58z" class="h"/><path d="M604.18 186.88c-.42.7-.68 1.76-1.27 2-3.22 1.26-6.5 2.3-9.8 3.4-.2.07-.48-.08-1.23-.24 4.2-2.2 7.65-5 12.3-5.14z" class="v"/><path d="M217.17 354.2a47.79 47.79 0 0 1-3.42-5.79c-2.24-5.35-4.5-10.7-6.27-16.23L188.82 273a16.81 16.81 0 0 1-.77-5.07 3 3 0 0 1 1.48-2.31 2.85 2.85 0 0 1 2.65.6 21.47 21.47 0 0 1 3.38 5.8l11.87 36.2c3 9.32 6.32 18.56 8.94 28 1.32 4.75 1.43 9.83 2 14.78a14.05 14.05 0 0 1-.2 2.8z" class="o"/><path d="M226.36 255.67l1.62 3.6q14.85 42.26 29.65 84.52 12.58 36 25.12 72a24 24 0 0 1 1.21 3.32 9.07 9.07 0 0 1-.29 2.6c-.67-.55-1.7-1-1.94-1.68l-10.17-29.33Q249.18 326 226.8 261.27c-.6-1.74-1-3.54-1.46-5.32z" class="v"/><path d="M230 398.23a15.81 15.81 0 0 1-1.79-2.07c-4.1-6.67-5.84-14.17-7.52-21.68-.36-1.6-.6-3.7 1.53-4.43s3.44.7 4.4 2.32a11.49 11.49 0 0 1 1.48 3.46c1.17 5.66 2.32 11.33 3.23 17 .26 1.66-.33 3.44-.53 5.17z" class="o"/><path d="M134.8 332.47a10.68 10.68 0 1 1-21.36-.06 10.43 10.43 0 0 1 10.26-10.25c6.57.01 11.17 4.28 11.1 10.3zm-10.32-8.14a8.44 8.44 0 0 0-8.62 8.57A8.17 8.17 0 0 0 124 341a8.26 8.26 0 0 0 8.08-8.23c-.08-4.08-4.03-8.46-7.6-8.44zM439.86 89.5c-4.87-4.64-11-5.7-17.22-6.43-4.9-.57-7.72.67-10.12 5-1.53 2.73-2.48 5.6-1.7 8.85.18.75-.43 1.7-.68 2.55-.84-.42-2-.64-2.44-1.32a8.27 8.27 0 0 1-1.25-3.78A15.36 15.36 0 0 1 423 78.12c7.1.4 12.16 4.17 16.66 9.12a5.06 5.06 0 0 1 .67 1.77z" class="k"/><path d="M412.58 168.57c-.54.73-1.2 2.43-2.46 3.2a118.38 118.38 0 0 1-12.59 6.8c-1.13.52-3.57 0-4.24-.86a4.51 4.51 0 0 1 .19-4.36 32.79 32.79 0 0 1 7.81-6.4c2.28-1.26 5.18-1.48 7.84-2 2.12-.34 3.5.88 3.45 3.63zM377.06 176c0 3.06-1.53 4.26-4 3.84-5.5-.94-12.3-7.82-12.9-13.32a2.68 2.68 0 0 1 1.45-2.12 5.06 5.06 0 0 1 3.16.2 23.2 23.2 0 0 1 10.68 8.11 16.48 16.48 0 0 1 1.61 3.29z" class="q"/><path d="M452.76 65.76a11.63 11.63 0 0 1-3.33 0c-3.9-1.12-7.75-2.42-11.63-3.66-3-3.13-6.2-6-8.76-9.48a7.49 7.49 0 0 1-.87-8c.46.7.75 1 .8 1.25 1.55 7.86 7.87 11.33 13.93 14.9 3.15 1.93 6.56 3.36 9.85 4.98z" class="v"/><path d="M444.07 120l-5.9 1.85c-5.37 1.7-10.7 3.47-15 7.37-.5.45-1.6.22-2.4.3 0-1-.34-2.42.15-2.84 2.6-2.2 5.18-4.77 8.25-6 3.68-1.52 7.82-2 11.8-2.65 1-.16 2.16.64 3.25 1z" class="k"/><path d="M459.27 117.17l-5.87 2.88a27.35 27.35 0 0 1-4.16 1.92 9.6 9.6 0 0 1-3.09-.15c.52-1 .8-2.64 1.58-2.92a84.61 84.61 0 0 1 9-2.49 9.08 9.08 0 0 1 2.15 0z" class="r"/><path d="M415.34 177.87l-7.74 7.34-1.18-1.2c2.07-3.44 4.6-6.38 8.62-7.6z" class="k"/><path d="M445.78,115.55l5-2.14.47,1-4.76,2.5Z" class="d"/><path d="M406.42 184l1.18 1.2-1.8 1.08-.45-.44 1.06-1.84zm8.92-6.13l-.3-1.47 1.66-.92.12 1.54z" class="n"/><path d="M416.82 177l-.12-1.54a.33.33 0 0 1 .38-.25l.8 1.2z" class="k"/><path d="M379.2 149.7l-1.38-.45.8-.75z" class="u"/><path d="M350.44 254.7l-4.68-1.8-21.46-6.7a19 19 0 0 1-4.73-2c-.82-.52-1.72-2-1.53-2.75a4 4 0 0 1 2.42-2.46 7.48 7.48 0 0 1 4.49.28c7.3 3.17 14.55 6.4 21.66 9.93 1.84.9 3.14 2.92 4.68 4.42zm1.02-8.92c-6.55-4.06-13.77-6.3-21.2-7.92-1.14-.25-2.43-.08-3.46-.54s-2.36-1.43-2.34-2.15a4.11 4.11 0 0 1 1.89-2.93 4.61 4.61 0 0 1 3.61-.31c6 2.67 12 5.4 17.83 8.5 1.8 1 3 3 4.47 4.58z" class="m"/><path d="M347.88 329.57c-.2 5.85-4.66 9.58-10.5 8.7-8.5-1.26-15.78-5.28-22.6-10.2-7-5.08-13.35-10.95-17.7-18.6-1.4-2.45-3.17-5 .5-7.2.14-.08.18-.3.27-.47 3.45-6.5 7.2-8.13 14.42-6.1 8.78 2.47 15.95 7.7 22.8 13.46 5.14 4.32 9.7 9.07 11.8 15.66.5 1.54.7 3.18 1.05 4.75z" fill="#7e75fd"/><path d="M335.36 291.52c.06 2.73-2 4.26-4.57 3a18.47 18.47 0 0 1-5.08-3.6 75.83 75.83 0 0 0-22.83-15.56 8.52 8.52 0 0 1-3.7-2.66 10.51 10.51 0 0 1-1.69-5.34c0-1.34 4-2.4 6-1.6a57 57 0 0 1 7.9 3.62c6.85 4.07 14.2 7.53 19.62 13.58 2.1 2.34 3.4 5.4 5.07 8.1zm-36.55-23.76c.45 1.33.48 2.22.94 2.6a27.66 27.66 0 0 0 5.6 4.12 70.39 70.39 0 0 1 20.07 13.75 35.56 35.56 0 0 0 5.09 4.06c.6.42 1.63.24 2.46.34 0-.77.36-1.7 0-2.27a24.58 24.58 0 0 0-3.56-5.67c-6.74-6.9-15.07-11.54-23.63-15.73-1.84-.96-4.26-.77-6.97-1.2zm54.34 45.48c-.6.84-1.1 2.12-2 2.5a3.15 3.15 0 0 1-2.81-.72c-3-3.16-5.85-6.4-8.55-9.8-1.28-1.6-2.37-3.64-.47-5.62s3.85-1.8 6.3.08c4.38 3.3 5.9 8.3 7.53 13.55zm-3.08.58c.4-.5.58-.63.6-.77a1.92 1.92 0 0 0-.08-1.05c-2.1-3.52-4.17-7.07-6.46-10.47-.37-.55-1.8-.38-2.73-.54.1.9-.1 2 .36 2.64 2.64 3.37 5.45 6.7 8.32 10.2z" class="n"/><path d="M510.33 44.83l-1.13 2.55-.83-.3.6-2.12z" class="d"/><path d="M510.33,44.83,509,45l.74-1.42Z" fill="#0a0a0c"/><path d="M382.46 49.4l.7-1.15q2.26 2.8 4.52 5.63a7.84 7.84 0 0 1-5.23-4.48z" class="f"/><path d="M124.48 324.33c3.57 0 7.5 4.36 7.58 8.48A8.26 8.26 0 0 1 124 341a8.17 8.17 0 0 1-8.12-8.14 8.44 8.44 0 0 1 8.6-8.53z" class="s"/><path d="M298.8 267.76c2.7.43 5.13.27 7 1.2 8.56 4.2 16.9 8.82 23.63 15.73a24.58 24.58 0 0 1 3.56 5.67c.3.58 0 1.5 0 2.27-.83-.1-1.85.08-2.46-.34a35.56 35.56 0 0 1-5.09-4.06 70.39 70.39 0 0 0-20.07-13.75 27.66 27.66 0 0 1-5.6-4.12c-.5-.36-.52-1.27-.97-2.6z" class="t"/><path d="M350.07 313.82l-8.32-10.2c-.47-.6-.26-1.75-.36-2.64.94.16 2.36 0 2.73.54 2.3 3.4 4.36 7 6.46 10.47a1.92 1.92 0 0 1 .08 1.05c-.01.14-.2.27-.6.77z" class="j"/></svg>