<svg xmlns="http://www.w3.org/2000/svg" viewBox="0 0 957.69 859.62"><defs><style>.cls-1{fill:#050506;}.cls-2{fill:#131313;}.cls-3{fill:#7d74f9;}.cls-4{fill:#0f0f0f;}.cls-5{fill:#242149;}.cls-6{fill:#fdfdfd;}.cls-7{fill:#7b72fa;}.cls-8{fill:#fcfcfc;}.cls-9{fill:#7c73fb;}.cls-10{fill:#f9f9fb;}.cls-11{fill:#fcfcfd;}.cls-12{fill:#7c73fa;}.cls-13{fill:#7c73f8;}.cls-14{fill:#7c73f9;}.cls-15{fill:#fbfbfc;}.cls-16{fill:#7a71f7;}.cls-17{fill:#7e75fa;}.cls-18{fill:#f7f7f7;}.cls-19{fill:#776ff0;}.cls-20{fill:#080710;}.cls-21{fill:#fefefe;}.cls-22{fill:#0b0a16;}.cls-23{fill:#0b0b0b;}</style></defs><title>Asset 5</title><g id="Layer_2" data-name="Layer 2"><g id="Layer_0_Image" data-name="Layer 0 Image"><path class="cls-1" d="M364.89,412.21c-2.6-2.39-5.32-4.66-7.77-7.19-22.4-23-25.54-56.11-1.06-80.48A37.67,37.67,0,0,1,377,314.08c9.39-1.51,18.88-2.55,28.36-3.35,7.27-.6,14,1.62,20.15,5.55,4.76,3.05,9.72,5.94,13.41,10.33a54.93,54.93,0,0,1,5.95,8.71,9.26,9.26,0,0,0,6.7,4.95c11.66,2.69,23.33,5.49,34.77,9,12.66,3.87,25.07,8.54,37.29,12.76,1.88-2.47,3.57-5.41,5.95-7.59s5.43-3.58,8.43-5.48c-.45-.4-1-.93-1.55-1.39-15.1-12.06-25.61-27.09-30.11-46.1a4.73,4.73,0,0,0-2.23-2.59c-18.17-10.25-31.33-24.59-36.83-45.13a31.4,31.4,0,0,1-.93-8.09c0-12.07,8.32-19.41,20.35-18.22a41.36,41.36,0,0,1,15.47,4.91l2.45,1.33c.74-4,1.51-7.76,2.13-11.56A85,85,0,0,1,526.78,179a39,39,0,0,1,8.16-7.13,96.24,96.24,0,0,1,64.45-15.13,115.88,115.88,0,0,1,16.1,2.59,53.79,53.79,0,0,1,13.59,5.37c11.08,6.51,20.62,14.85,27.75,25.7,3,4.63,6.16,9.2,9.31,13.9,6-5.27,12-4,17.91,0a34.05,34.05,0,0,1,6.07,5,3.55,3.55,0,0,0,4.19,1.24,24.28,24.28,0,0,1,13.7-.28,11.49,11.49,0,0,1,7.85,7c1.1,2.69,2,5.44,3.07,8.16a36.53,36.53,0,0,0,1.52,3.79c3,5.79,4.84,6.67,11.25,5.9,10.18-1.24,20.35-2.59,30.56-3.47,16.15-1.4,32.09.82,48,3.48,14.61,2.44,29.13,5.34,43,10.71C884.87,258,911,277.22,929,306.49c8.31,13.5,13.28,28.43,17.85,43.5,6,19.8,10.66,39.91,10.8,60.7a319.53,319.53,0,0,1-1.86,33.44c-2.05,20.83-5.62,41.41-11.78,61.46a217.46,217.46,0,0,1-43.49,78.59,470.51,470.51,0,0,1-44.3,45.45c-3.06,2.71-5.77,5.82-8.88,8.46-14.59,12.38-21.85,46.83-9.25,66.17,1.55,2.37,3.53,5.1,2,8.1-2.37,4.69-3.76,10.25-9.49,12.41a26.7,26.7,0,0,1-19.94-.27,45.75,45.75,0,0,1-16.47-11.37,104.23,104.23,0,0,1-22.84-37.39,11.06,11.06,0,0,0-.55-1.06l-5.61,1.42c2.81,13.45,6.7,26.36,13.69,38.07,4.88,8.18,10.35,16,15.38,24.11a17.7,17.7,0,0,1,2.19,6.06c.37,1.94-.91,3.07-2.92,3a5.75,5.75,0,0,1-2.08-.59C774.88,739,760.35,728.48,748.91,714c-1.95-2.47-3.61-5.19-5.69-8.22-.84,4.52-1.61,8.57-.54,12.81,6.5,25.71,13.24,51.36,19.29,77.18,2.87,12.26,4.39,24.84,6.47,37.29.36,2.13.52,4.29.75,6.45.3,2.76-.9,4.43-3.33,5.9-11.33,6.87-23.84,10.27-36.68,12.41-25.61,4.26-50.35,1.15-73.71-10.44-7-3.48-13-8.45-14.9-16.76a6.81,6.81,0,0,0-.5-1.25c-8.78,1-17.4,2.55-26.07,2.92a72.45,72.45,0,0,1-36.62-7.86,24,24,0,0,1-13.14-16.73c-3.46-14.79-4.6-29.77-4.66-44.9-.11-27.29.62-54.53,4.31-81.62,1.08-7.91,2.23-15.82,3.41-24.12-2.14.36-4,.7-6,1-4.78.72-8.93-.71-13.25-2.87-10.94-5.46-18.72-14.9-28.5-21.79s-19.25-14.3-29-21.34c-5.57-4-11.35-7.79-17.18-11.76-1.43,1.92-2.48,3.5-3.69,4.94-6.07,7.16-12.67,13.78-22.35,15.52a38.91,38.91,0,0,1-21.91-2.24c-9.58-3.89-19.33-7.37-29.1-10.78A137.45,137.45,0,0,1,365.1,592c-9-6-18.24-11.58-27.33-17.42-13.11-8.42-20.88-20.5-23.48-35.76-1.77-10.38-2.9-20.87-4.38-31.3-2.73-19.37-10-37.09-19.76-53.9-.71-1.22-1.65-2.31-2.81-3.94a25,25,0,0,0-1.89,4c-2.94,11.8-6,23.57-8.64,35.43-2.16,9.71-2.52,19.62-2.29,29.56.4,16.92.22,33.84-3.27,50.5-5.48,26.23-16.41,49.88-35.16,69.28a53.35,53.35,0,0,1-31.43,16.18,15.42,15.42,0,0,1-7.68-.87c-12.68-5.2-25.33-10.52-37.8-16.19-6.26-2.84-12.15-6.5-18.2-9.81-5.77-3.17-8.7-8.25-9.95-14.56-1.54-7.83-3.19-15.65-4.88-23.46a41,41,0,0,0-1.78-4.82c-4.68,11.38-7.63,22.45-8.44,34.08s-1.17,23.45-2.87,35c-2.29,15.61-10.69,27.55-24.49,35.52a23.24,23.24,0,0,1-18.93,2c-2.13-.63-4-2.29-5.88-3.61s-3.8-3.13-5.85-4.45c-17.85-11.5-33.16-26-47.85-41.13-3-3.07-6.08-6-9-9.15C.4,632.47.35,631.1,0,630a12.13,12.13,0,0,1,3.36.61c6.23,3.13,12.17,7,18.68,9.36,4.13,1.49,9.12,1.3,13.63.85,4.32-.42,7.49-3.34,9.43-7.44a36.78,36.78,0,0,0,3.29-16.14c0-11-1.82-21.69-3.71-32.44a65.65,65.65,0,0,1,1.43-29.73c6.78-23.65,26.18-35.2,50.15-29.76,18.3,4.15,34.76,12.55,50.11,23.21,4.7,3.26,9.42,6.5,14,9.91a4.75,4.75,0,0,0,5.74.34,19.37,19.37,0,0,0,8.63-9.83,64.93,64.93,0,0,0,5.08-31.17c-1.55-21.86-1.17-43.58,3.56-65.1,3.6-16.35,10.66-30.76,22.53-42.79,11.17-11.32,24.85-16.5,40.26-19.24,15.07-2.67,28.78,1.62,42.76,5.41,19.32,5.23,38,12.34,56.45,20,11,4.56,20.19,12.11,28.36,20.8,1.37,1.46,2.73,2.92,4.11,4.37.11.12.32.15.72.33a43,43,0,0,0,4.75-16.24q.39-8.83.77-17.69c.28-3.49.56-7,.83-10.23A64.28,64.28,0,0,1,368.25,386l0,.06-.59-.61.06.05-.27-2.74c1.87-1.55,3.25,0,4.59.87q5.31,3.59,10.46,7.38c1.85,1.36,3.51,1.47,5.28-.08-6.74-6-8.83-12.53-5.44-18.76a18.29,18.29,0,0,1,6-6c4-2.65,8.55-2.42,13.4-.51-2.29-8.23-4.6-16.11,3.87-21.76,6.79-4.52,13.16-3.61,19.19,2.21.26-8-3.89-16.29,3.86-22.56-5.41-4.15-11-7.58-17.73-8.19-10.69-1-21.17.85-31.59,3a33.4,33.4,0,0,0-19.9,9.19c-22.56,22.22-20.47,52.57.67,74.51,2.57,2.67,5.63,4.86,8.46,7.28,1.48,1.27,2.93,2.56,4.4,3.85-.16.37-.31.73-.46,1.1a13.32,13.32,0,0,1-3.13.18,17.33,17.33,0,0,1-3.22-1.23l0,0-.63-.52,0,0ZM761.15,334.3c.18.37.37.73.56,1.09l.54,1.63.57,1.08,1.06,2.2.35.72.32-.17-.42-.76-1-2.24-.57-1.08c-.2-.53-.39-1.07-.58-1.61l-.56-1.07-.55-1.08-.3-.72-.33.16c.14.25.27.5.41.74S761,333.93,761.15,334.3ZM776,720.84l.09.06-.6-1.13h0a4.73,4.73,0,0,0-.3-1c-7-13.08-12.56-26.67-14.29-41.8l-7.81,1.78c-1,.11-2,.26-3,.3-2.11.1-3,.93-3.24,3.27a68.88,68.88,0,0,1-2,11.76,10.39,10.39,0,0,0,1.08,8,45.91,45.91,0,0,0,3.56,5.69c9.73,13.24,22.26,23.21,36.54,31.11a9.13,9.13,0,0,0,2,.56l.16.3c0-.06,0-.14,0-.16a.88.88,0,0,0-.22-.1l-11.22-18ZM531.31,180.45l0,0-.73,1,0,0-.51.62,0,0c-.23.11-.54.17-.68.35-6.3,7.92-12.48,16.06-15,26-2.65,10.55-4.75,21.26-6.48,32-1.1,6.82-1.07,13.82-1.6,21.36l8.35-6.41C525,249.46,536,248.08,547.92,249c-.68-1.2-1.14-2-1.64-2.89a72,72,0,0,1-8.38-20.86c-1.82-7.94-.41-15.58,2.41-22.82,2.17-5.58,7-9.16,12.7-11.25a31.49,31.49,0,0,1,20.08-.7c26.65,7.86,43.66,25.67,51.89,51.89,1.46,4.68.9,10,1.27,15l-.15,1.46-2.71,10.57a51,51,0,0,1,7.45.77c1.11.27,2.69,1.65,2.74,2.59.1,1.88-1.71,1.89-3.24,1.85-2.39-.06-4.78,0-7.67,0,6.66,12.84,5.22,25.91,5.58,38.74.38,13.56-4.46,25.36-12.11,36.22-1.22-.17-2.89.1-3.58-.6a44.6,44.6,0,0,1-5.61-6.94c-3.78-5.75-4.66-12.54-6.45-19-.2-.73-.38-1.45-.57-2.18l-.77.05a5.4,5.4,0,0,0-.14,1.81c2.26,8.27,4.46,16.56,6.89,24.78,2,6.89,9.38,11,16.15,8.46a30.71,30.71,0,0,0,18.25-18.6,14.24,14.24,0,0,0,1.53-3.11c1.7-7.84,3.28-15.7,4.92-23.56.26-1.29.59-2.57.88-3.86l1.08.13v13.65l.71.14c.39-1,.79-1.89,1.18-2.84a10,10,0,0,0,1-1.49c3.1-6.53,6.27-13,9.22-19.62,1.43-3.2,2.42-6.59,3.61-9.89a2.18,2.18,0,0,0,.32-.43c7.15-18.56,12.31-37.46,9.59-57.65-.28-2-.54-4.29-1.57-6-6.48-10.7-12.85-21.49-19.89-31.82-7.52-11-17.87-19.06-30-24.58-8.09-3.7-17-4.4-25.73-5.31a91.38,91.38,0,0,0-59.34,13.62,54.65,54.65,0,0,0-6,5ZM589,358.64l-.46.57a19.05,19.05,0,0,1-2.38,3.19c-3.55,3.14-7.88,3-12.07,2.14-5.42-1.15-10.74-2.81-16.1-4.26l0,.06-1.16-.59c-3.53-1.82-7.25-3.35-10.53-5.54-3.64-2.45-6.62-1.34-9.73.67a6.49,6.49,0,0,1-1.57,1c-4.27,1.18-5.65,4.58-6.73,8.41a64.63,64.63,0,0,1,6.46,3.15c3.9,2.45,8.22,4.59,11.32,7.84a94.69,94.69,0,0,1,11.4,15.2c2,3.22,2.8,7.2,4.14,10.84.18.47.34,1.32.59,1.35,2.92.4,5.6,3.3,8.89.91a13.62,13.62,0,0,1,3.59-10.21c5.92-5.48,11.34-6.1,18.32-2.1a25.17,25.17,0,0,1,11.3,13.5c1.31,3.48,2.4,7,3.75,10.51a3,3,0,0,0,1.9,1.62c13.2,2.36,26.41,4.63,39.62,6.92l1.52.39.1,0,3.29,1,14,6.38,5.74,4.87-.49.68-3.42-.65a90.39,90.39,0,0,0-24.41-9c-11.19-2.22-22.44-4.23-33.67-6.3-3.53-.65-5,.7-4.55,4.35a63.6,63.6,0,0,1-1.3,23l-3,1.91a30.2,30.2,0,0,1-1.49-3.47,7.26,7.26,0,0,1,.11-2.16c.36-8,1.1-16.11,1-24.15A34.2,34.2,0,0,0,594.59,398c-3.66-4.16-8.22-5.2-13.31-4-4.68,1.06-6.13,4.93-6.95,9.13-.69,3.5-.69,3.5,3.42,3.86a10,10,0,0,1-.56-2.76,4.43,4.43,0,0,1,.95-2.82,2.68,2.68,0,0,1,2.64.12,30.2,30.2,0,0,1,5.45,5.92c1.52,2.43,2.33,5.29,3.45,8,.14.4.29.81.43,1.22l0,0c0,.8,0,1.62.13,2.41,1.38,8.89,1.6,17.9-.58,26.55-3.52,13.9-7.69,27.64-12,41.29-1.44,4.52-4.53,8.48-6.45,12.88a11.59,11.59,0,0,1-5.34,5.56c-.12.07-.14.31-.21.47.29,1.05.51,2.12.87,3.14,2.61,7.38,4.15,7.05,9.8,4.28,3.83-1.87,7.59-3.92,11.5-5.6a8.59,8.59,0,0,1,5.25-.73c7.23,2,14.39,4.41,21.54,6.76,8.26,2.72,16.32,6.32,24.77,8.13,12.49,2.67,25.26,4.06,37.89,6.09,6.28,1,12.5,2.29,18.78,3.28a5.1,5.1,0,0,0,3.75-.69c4.42-3.9,8.62-8,12.9-12.09,9.67-8.67,17-19.11,22.87-30.61,5.51-10.85,10.55-21.93,15.94-32.84a186.14,186.14,0,0,0,17.67-55.58c1.14-7.75,3.49-15.49-.43-23.14a6.16,6.16,0,0,1-.36-1.59c-.83-4.09-1.17-8.37-2.6-12.24-3.37-9.09-7.14-18-11-27-7.27-17-17.91-31.65-30.5-45.14a111.17,111.17,0,0,1-15.09-20.7c-2.83-5-3.82-11.08-5.16-16.79-2-8.64-3.6-17.39-5.51-26.07a24.75,24.75,0,0,0-2.15-4.74c.95,8.78,2.48,17.37-2.29,26.21-1.14-8.27-2.23-15.72-3.15-23.19a22.76,22.76,0,0,0-4.86-12c-3-3.6-6.95-6.6-11.89-7.13-2-.21-4.18.8-6.66,1.33l3,5.68c3.14-1.06,4-.53,5.22,2.61,4.84,12.11,4.7,24.75,3.53,37.35-1.6,17.22-8.17,33.1-15.06,48.7-4.72,10.68-10.8,20.76-16.27,31.11-1.6,2.47-3.24,4.93-4.81,7.43-1.21,1.94-.59,3.36,1.4,4.3,1.23-.1,2.71.21,3.63-.37,2.88-1.82,5.9-3.65,8.2-6.11,2.63-2.81,4.56-6.28,6.77-9.49,1.34-1.92,2.58-3.92,4-5.8.55-.75,1.49-1.63,1.31.42-.14.41-.3.81-.42,1.23-3.05,11.12-7.62,21.06-19.58,25.27-3.32.24-6.33-.29-8.12-3.52-1.94,2.26-3.62,4.53-5.63,6.44a77.35,77.35,0,0,1-6.8,5.39c-7.59,5.69-22,3.53-24.77-9.51-1.59-7.35-3.58-14.61-5.42-21.9-.27-1.08-.73-2.11-1.23-3.55l-12.36,6.91c-.52,1.12-1.46,2.23-1.49,3.37a31.09,31.09,0,0,0,5.18,18.23c1.52,2.33,2.22,4.72,1.18,7.42Zm48.46,460.9c-.85-4-1.71-8-2.58-12.12-6.78,2-12.45,4.9-15.22,11.54l-3.45,8.44,22.61-3.18C638.35,822.59,637.91,821.07,637.46,819.54Zm-42.65-9.37c-.43,3.48-1.08,6.94-1.24,10.44-.21,4.47-.06,4.57,4.46,5.29,4.15.67,8.33,1.1,13.17,1.72l-3-11.23a77.28,77.28,0,0,0-3.39-7.92c-1.23-2.2-2.5-5.44-5.42-5C596.26,804,595.55,807.35,594.81,810.17ZM523.58,423.86c4.62-1.39,5.44-5.61,6.2-9.33.64-3.09-2.06-5.08-4.46-6.76l-7-6.28c-3.44,6.88-6.84,13.65-10.35,20.66a41.47,41.47,0,0,0,6.08,1.49C517.21,423.9,520.41,423.81,523.58,423.86ZM707.33,852.91l-.6-1.08-.21-1.1-.26-1.1c-.1-.73-.21-1.45-.31-2.17-.08-.37-.17-.73-.25-1.1-.11-.72-.21-1.45-.31-2.17-1.31-4.48-2.07-9.24-4.07-13.39-2.68-5.55-9.29-6.91-13.21-3.12-3.57,3.46-4.69,8.13-5.15,13-.15.46-.29.92-.44,1.38l-.3,2.16-.21,1.11-.27,4.36.43,1.85,1.73.31,1.09.27,2.16.32,1.11.26,2.16.28,1.12.22,2.71.29,1.65.28,3.8.29,2.19.28,5.44.16c13.15,1,25.7-2.06,38.17-5.62-4.34-.51-5.06-1-8.14-5.82-1.27-3-2.24-6.14-3.88-8.92-2.85-4.84-7.71-5.47-11.92-1.77A25.76,25.76,0,0,0,714,844.66c-.62,2-1.3,3.9-1.84,5.88-.82,3-2,3.61-4.87,2.37Zm-35.46-17.37c-2.1-3.87-3.87-8-6.41-11.53-2.81-3.94-5.73-3.75-9.24-.17-3.93,3-5.07,6.95-4.84,11.72a6.17,6.17,0,0,0,3.79,5.87c4.92,2.31,9.8,4.68,14.77,6.87a64.65,64.65,0,0,0,6.9,2.12C675,844.92,673.44,840.23,671.87,835.54ZM472.2,238.19a11.31,11.31,0,0,0-.85,1.66c-2.07,6.13-.91,12.08,1.35,17.83,6,15.27,16.44,26.8,30.26,35.41a20.84,20.84,0,0,0,1.91.86c-.66-4.47-1.25-8.55-1.85-12.62-.24-6-.8-11.95-.64-17.91.21-7.87,1-15.73,1.49-23.6.06-.88,0-2.37-.5-2.61-7.17-3.57-14.49-6.87-22.83-5.28A10.82,10.82,0,0,0,472.2,238.19ZM787.27,669.6l-11.9,3.93a7.33,7.33,0,0,0,.28,2.5c6.26,11.37,12.36,22.84,21.42,32.37,4.36,4.59,9.11,8.73,15.09,10.91,3.23,1.18,6.83,1.35,10.27,2,4.46,0,8.16-1.13,10.7-5.4,2.19-3.67,2.45-6.68.08-10.45-2.1-3.32-3.19-7.28-4.76-10.94a13.21,13.21,0,0,0-1.68-3.36c-5.27-6.24-8.22-13.66-10.83-21.23-1.6-4.64-2.58-9.47-1.57-14.45a10.14,10.14,0,0,1,1.6,2.16c1.82,4.6,3.53,9.23,5.28,13.85l4.27,9.78.7-.19c0-.67.13-1.34.16-2,.89-19,6.86-35.75,21.7-48.54,2.69-2.31,5.22-4.8,7.77-7.25,7-6.75,14.21-13.31,20.91-20.34,15.69-16.45,31.12-33.18,42.39-53.15,4.85-8.58,9.09-17.52,13.74-26.56L928,520.58c-4.61-2.54-9.26-5-13.79-7.68-.8-.47-1.09-1.79-1.62-2.72,1-.16,2.31-.77,3.09-.4a58,58,0,0,1,7.77,4.45c3.2,2.18,6.22,4.62,9.28,6.92.32-.29.51-.39.57-.53.61-1.52,1.22-3,1.79-4.57,7.1-19.1,11.26-38.93,13.57-59.09a450.16,450.16,0,0,0,3.39-45.34c.28-21.54-4.88-42.34-11.22-62.81-4.64-15-9.93-29.66-18.65-42.83-18.78-28.37-45.24-46.55-77.06-57.27-19.28-6.49-39.32-9.63-59.52-11.42-8.28-.73-16.67-.15-25-.17l-32.92,3.63a17.43,17.43,0,0,0,1,2.47c6.21,9.92,12.19,20,18.75,29.69,10.18,15,20.87,29.73,31.12,44.73,3.48,5.09,6.32,10.63,9.36,16,1.62,2.87,3,5.86,4.6,8.91.71-.34,1.27-.58,1.82-.87,7.94-4.18,15.85-8.42,23.82-12.55,5.2-2.68,10.48-5.2,15.73-7.79l3.07-1.2.45,1.31-1.4.7-13.82,7.17q-13.41,7-26.8,14a18.55,18.55,0,0,0-1.92,1.35c1.22,2.82,2.38,5.39,3.46,8,9.17,22.09,17.89,44.38,21.78,68.09,2.28,13.87,3.52,27.91,4.82,41.92a345,345,0,0,1,.3,59.61c-1.47,18.19-3.19,36.37-4.61,54.56-1.61,20.45-3.33,40.86-7.1,61.05-.29-5.43-1.13-10.9-.78-16.29,1.56-23.82,3.45-47.63,5.22-71.44,1-13.4,2.32-26.79,2.9-40.21,1-24-.53-47.92-3.12-71.78-2.47-22.73-8.62-44.5-17-65.69q-2.65-6.75-5.3-13.51c-4.28-9.12-7.69-18.78-13-27.23-11.28-17.89-23.35-35.31-35.51-52.62-8.07-11.47-15.68-23.15-21.71-35.85-.94-2-2.55-3.67-3.73-5.56-2-3.2-4.11-6.36-5.81-9.73-1.48-2.91-2.33-6.14-3.74-9.09-.5-1.06-1.83-1.72-2.78-2.56-.77-.47-1.51-1.31-2.29-1.35-3.14-.16-6.28-.06-10.09-.06.72,1.34,1.17,2.32,1.74,3.22,1.67,2.66,4,5.09,5,8,1.83,5.3,2.93,10.84,4.26,16.3,1.83,7.48,3.54,15,5.45,22.45a8.57,8.57,0,0,0,2.22,3.29c1.23,1.29,2.78,2.28,4,3.58,2.29,2.45,4.48,5,6.65,7.57,9.79,11.59,20,22.89,29.22,34.88,10.21,13.22,17.47,28.07,20.32,44.74A46,46,0,0,0,778,370.75a107.41,107.41,0,0,1,7.19,21.34,183.14,183.14,0,0,1,3.65,25c1.32,15.38,2.83,30.8,3,46.21.16,19.88-.79,39.79-1.59,59.67-.8,19.61-1.92,39.21-3.08,58.81-.49,8.27-.42,16.26,4.24,23.66a15.59,15.59,0,0,1,1.81,11.64c-1.59,7.24,1.08,12.33,7.28,15.91a3.67,3.67,0,0,0,.5.17L812,639.38c2.35,2,4.32,4.2,3.47,7.53a33.09,33.09,0,0,1-2.22,5.1,36.57,36.57,0,0,1-12.84,11.16C796.13,665.45,791.67,667.47,787.27,669.6ZM568.57,494.23a28.24,28.24,0,0,0,2.4-4.54c4.46-14.18,9.16-28.31,13.11-42.65,2.49-9.08,2.26-18.48.81-27.86-.64-4.18-3-5.92-6.55-6.89-2.18-.6-4.41-1.06-6.61-1.61-13.55-3.38-27.08-6.84-40.67-10.09-2.66-.64-5.51-.51-8.28-.73,5.28,4.27,11,7.87,10.48,15.44-.5,7.15-4,12.31-11.81,13.52,7.38,11.05,7.67,13.46,2.57,19.73l-8.78,2.79c1.26,1.79,2.83,3.67,4,5.76,5.2,9.13,2.89,14.8-7.3,17.32-3.28.81-6.79.67-10.53,1,6.39,2.6,12.65,5,18.76,7.67,14.32,6.3,29.23,10.8,44.21,15.15,1.51.44,2.43.16,3-1.3C567.78,496,568.18,495.13,568.57,494.23ZM618,268.78c4.75-6,5.35-13,3.86-19.95-5.89-27.31-22.74-45-49-53.92a30.56,30.56,0,0,0-15.89-.82,20.19,20.19,0,0,0-15.52,13.42c-2.47,6.85-1.38,14.37,1.21,21.39a29.81,29.81,0,0,0,.87,3.11,74.92,74.92,0,0,0,27.06,34.38c8.25,5.9,17.24,10.1,27.54,10.71C606,277.57,612.89,275.22,618,268.78Zm-14.35,12.44c-4.67-.44-9.47-.35-14-1.44-14.93-3.59-26.62-12.41-36.43-23.91-1.41-1.66-2.85-2.66-5-2.59-4.7.15-9.45,0-14.11.53-7,.86-13.63,2.95-19.19,7.59-1.07.83-2.23,1.57-3.21,2.49-3.39,3.19-5.46,6.78-4.66,11.79.93,5.82,1.15,11.75,2,17.58,5.19,34.75,32.65,60.74,64.74,67.37a20.85,20.85,0,0,0,7.79.21c3.77-.68,5.11-4.26,3.06-7.42a36.41,36.41,0,0,1-5.79-19.85c-.05-3.42,1-6,3.81-7.9,1.37-.89,2.8-1.67,4.2-2.52,5.18-3.17,10.6-6,15.46-9.64a26.52,26.52,0,0,0,7.94-8.75,143.1,143.1,0,0,0,7.37-19c1-2.9,1.1-6.11-.67-8.32ZM794,660.47l1.7-.64c5.21-2.52,9.86-5.75,13.14-10.65,2.22-3.31,1.9-4.16-1.55-6.11-5.05-2.85-10.13-5.68-15-8.83a15.53,15.53,0,0,1-7.49-13.78,26.56,26.56,0,0,0-3.74-14,32.87,32.87,0,0,1-4.24-16.71c0-7,0-14,.26-21,.34-9.53.29-19.13,1.51-28.56,2.52-19.54,2.73-39.12,2.73-58.75,0-8.81-.09-17.63.27-26.43a217.68,217.68,0,0,0-6.12-59.43,25.07,25.07,0,0,0-.88-2.39c-.33,1.93-.54,3.09-.73,4.26-2.78,17.17-6.55,34-14.06,49.9-4.47,9.44-8.77,19-13,28.52-8,18.31-18.23,35.14-33.07,48.83-3.07,2.83-6.26,5.55-9.14,8.56s-6,3.66-9.89,3c-10.47-1.75-20.95-3.54-31.47-4.94-17-2.26-33.68-5.41-49.53-12.3-6-2.59-12.25-4.42-18.3-6.83-3.1-1.24-5.75-.67-8.56.74-4.52,2.27-9.14,4.33-13.72,6.48-4.33.67-7.43-1.19-8.72-5.19-1.11-3.48-1.45-7.21-2.18-11.15L557.6,502a8,8,0,0,0-.08,1.26,80.44,80.44,0,0,1-1.62,27.64c-3.39,15-7.39,29.77-11.24,44.62-3.3,12.69-5.86,25.49-6.2,38.65a5.1,5.1,0,0,0,2.17,4.65c3.06,2.28,5.94,4.8,9,7,9.16,6.59,18.62,12.64,29.42,16.29,1.48.5,3.78,1.84,3.76,2.75,0,1.58-1.36,3.32-2.54,4.65s-2.77,2.14-4.71,3.56c9,2.56,17.37,5,25.76,7.28,19.67,5.35,39.81,8.2,59.93,11.17,25.45,3.75,51,6.68,76.77,4,18.14-1.86,35.82-5.8,52.64-13.09a31.15,31.15,0,0,0,3.41-2Zm-212-.78-11.15-4.41c-.54,5.24-.88,10.11-1.56,14.94-5.18,36.73-5.74,73.63-4.11,110.61.29,6.45,1.51,12.87,2.31,19.31a11,11,0,0,0,2-3.19c2.12-4.06,5.7-5.74,9.71-4.44a26.35,26.35,0,0,1,3.84,2q3.79,6.22,7.61,12.45c.45-.89,1-2.09,1.67-3.25,3.65-6.45,9.54-7.24,13.88-1.28,2.88,4,4.61,8.75,6.82,13.19a36.21,36.21,0,0,1,1.23,3.46c3.94-9.29,10.31-14.47,19.53-16.27-.71-4.24-1.32-8.26-2.08-12.25-2.4-12.5-5-25-3.92-37.82q1.9-22.8,4.49-45.54c1.31-11.35,3.2-22.63,4.87-34.18l-2.89-.58c-9.94-2.08-19.94-3.95-29.81-6.32C596.94,664.29,589.53,661.85,582,659.69ZM16.36,642.59l-.69-.14L16,643q3.15,3.18,6.28,6.38c13.51,13.88,30,24.09,44.84,36.31a2.35,2.35,0,0,0,.73.35c6.55,2,12.89,2.48,19.14-1.33,12.09-7.38,19.46-18,21.6-31.87a277.88,277.88,0,0,0,2.7-30.1A106.72,106.72,0,0,1,122.47,579c5.94-11.85,15.23-19,28.78-19.78a8,8,0,0,0,1.24-.3c-.08-.31-.07-.55-.18-.64-.54-.48-1.1-.95-1.68-1.38a163.26,163.26,0,0,0-47-24.86c-8.53-2.8-17.27-4.57-26.25-2.46-3.71.87-7.28,2.33-11.35,3.67l5,4.46-.35.7a35.67,35.67,0,0,1-5.14-1.85,3,3,0,0,0-4.06.66c-5,5-8.91,10.57-10.93,17.34a64.05,64.05,0,0,0-1.29,31.29A177.77,177.77,0,0,1,53.08,618a37.21,37.21,0,0,1-4,17.64,17.27,17.27,0,0,1-12.54,9.56C29.58,646.62,22.86,645.3,16.36,642.59ZM764,835.87c-1.38-9-2.16-18.06-4.23-26.86-7-29.58-14.47-59-21.59-88.58a38,38,0,0,1-.64-10.5c.24-5.12,1-10.23,1.47-15.34a7.38,7.38,0,0,1,.29-1c1.06-4.27,2.11-8.54,3.26-13.15-1.37.06-1.9.06-2.43.12-20.25,2.12-40.42.9-60.55-1.49-8.37-1-16.72-2.17-25.08-3.26l-14.08-2.41c-.18.8-.29,1.14-.33,1.5-1.69,13.87-3.47,27.74-5,41.63-1.23,11.1-2.31,22.22-3.16,33.36s.64,21.93,3,32.71q4.86,22.75,9.82,45.49a46.14,46.14,0,0,0,1.92,5.47c.37-6,3.09-10.47,7.3-14.22,7.08-4.49,11.52-3.85,16.34,3.16,2.69,3.91,4.48,8.44,6.64,12.71.42.82.69,1.72,1.18,3,1.12-3.16,2-5.85,3-8.43,2.1-5.1,5.79-8.44,11.41-8.79s9.94,2.3,12.71,6.94c1.78,3,2.66,6.5,3.9,9.79.32.85.5,1.75.72,2.54,2.63-3.68,4.73-7.47,7.62-10.51,7.19-7.56,17-5.76,21.48,3.71,1.3,2.78,2.27,5.72,3.38,8.58.48,2.48,2.23,3.41,4.5,4,5.5,1.45,10-1,14.53-3.47C765.24,840.43,765.35,840.3,764,835.87ZM205.82,418.71c-.65.38-1.54.6-1.9,1.16-3,4.72-6.41,9.3-8.88,14.31-7,14.1-9.35,29.45-10.27,44.88-.78,13.29-.16,26.68,0,40,.17,10.37-.78,20.5-4.67,30.21-2.49,6.21-6.17,11.31-12.53,14-.29.12-.49.44-.73.67.23.34.36.58.53.79a5.6,5.6,0,0,0,.78.76c8.78,6.79,13.57,15.88,15.6,26.65a4.65,4.65,0,0,0,2.2,2.71c5.82,3.16,11.76,6.11,17.6,9.24,1.8,1,3.44,2.24,5.15,3.37l-.44.82L185,598.52a49.14,49.14,0,0,1,.73,7.28c-.24,4.79,2.2,7.54,6,9.92s7.28,5.32,10.9,8l-.53.86c-2.56-1.27-5.16-2.45-7.67-3.82s-5-3-8.12-4.85c0,5.69-.09,10.59.05,15.49a22.56,22.56,0,0,0,1,5.62,17,17,0,0,0,21.8,11.62c11.14-3.75,20.89-9.63,28.38-18.95a143.64,143.64,0,0,0,27.05-53.61c4.75-17.8,5.49-36.06,5.05-54.38a165,165,0,0,1,3.67-39.52c3.39-15.51,6.5-30.95,15.54-44.7,8.27-12.58,19.18-20.53,33.5-24.25a12.22,12.22,0,0,0,1.44-.63c-9.79-5.37-55.83-18.82-62-18.14,5.62,3.72,12.54,5.28,17.94,10.73a11,11,0,0,1-2.9-.25c-7.23-3.35-14.43-6.8-21.67-10.14a8.35,8.35,0,0,0-3.78-.82c-7.32.47-14.16,2.8-20.94,5.48a61.42,61.42,0,0,0-24,17.38,5.78,5.78,0,0,0-.68,1.9Zm183.79-22.86-.49.92v8l-.07,1.73c0,1.36-.05,2.72-.07,4.09,0,.72,0,1.45,0,2.18.42,11.08-.9,21.78-6.67,31.57-.41.69,0,2.17.44,3,3.65,6.37,7.53,12.61,11.08,19a7,7,0,0,0,4,3.6Q426,480.24,454,490.75c2.36.89,4.55,2.22,6.82,3.34l-.29.73L397,472.77l.59,1.89c2.36,7.24,4.65,14.5,7.13,21.7a6,6,0,0,0,2.42,2.87c3.52,2.19,7.17,4.16,10.77,6.21l.05,0-11.81-2.63c.33,6.66.81,13.62.93,20.6.05,2.44.64,3.66,3.06,4.53,15.21,5.46,30.35,11.09,45.5,16.71,2.21.82,4.32,1.93,6.48,2.91l-.42,1.13-54.34-18c-.34,8-.72,15.94-.93,23.9,0,.67.95,1.64,1.7,2,3.48,1.76,7.1,3.25,10.55,5.06,2.37,1.24,4.55,2.84,6.81,4.28l-.51,1-19.2-7c.27,5.25.59,10.2.74,15.15.07,2.24,1,3.24,3.15,4,10.89,4,21.71,8.27,32.53,12.48a26,26,0,0,1,3.47,2.13,8.91,8.91,0,0,1-2.12.09c-11.95-4.2-23.9-8.41-36-12.68a11.54,11.54,0,0,0,.37,2.27c2.28,6.1,4.14,12.42,7,18.25,8.62,17.54,31.63,19.76,44.28,8,7.61-7,12.86-15.5,16.95-24.77,10.32-23.34,14.43-48.23,16.1-73.37,1-15.43-.17-31.06-1.09-46.55-1-17.54-1.8-35,.29-52.52,1.3-10.86,3.87-21.22,9.86-30.58a28.4,28.4,0,0,1,20.79-13.44c.53-.08,1-.28,2.38-.64-26-9.14-51.19-18.24-77.42-24.19a63.17,63.17,0,0,1-15,23c-6.58,6.59-13.66,12.67-20.24,18.7,10.14,3.27,21.07,6.53,31.8,10.33s21.91,6.85,31.7,13.2a39.86,39.86,0,0,1-6.89-1.59q-30-9.48-60-18.92a5.44,5.44,0,0,0-3.51.38C399.76,391,394.7,393.47,389.61,395.85Zm41.18-34.17c-1.4-2.4-2.29-4.55-3.71-6.25a73.93,73.93,0,0,0-8.32-8.82c-3.06-2.62-6.62-1.81-9.94,0s-5.41,4.35-5.18,8.24a32.92,32.92,0,0,0,10,22.46ZM539,621.91a85.32,85.32,0,0,0,7.46,24.82,11.51,11.51,0,0,0,9.65,7.06c9,.88,16.43-3,23.47-8.16C563.86,641.49,551,633.07,539,621.91ZM496.18,469.27c6.16,2,11.73,3.1,17.48.6,4.21-1.84,5.17-3.75,3.57-8.11-3-8.05-9.06-12.08-17.71-13.62Zm4.51-25.19c5.19,2.52,13.67,3.51,18.34,2.63a5.93,5.93,0,0,0,4.59-6.84c-1.09-6.24-10.33-13.73-17.28-13.95ZM410.13,379.8c-2.71-3.12-4.81-5.73-7.11-8.15-3-3.16-6.71-4.27-10.89-2.71-3.9,1.45-6.63,4-7,8.46-.44,4.75,1.71,8.24,5.43,10.83a3.49,3.49,0,0,0,3,.33C399,385.81,404.34,382.88,410.13,379.8Zm23-22.24,1.38.1c3.17-5.22,6.35-10.44,9.47-15.69a1.65,1.65,0,0,0,0-1.47c-2.9-3.92-5.68-7.95-8.88-11.63-2.6-3-5.36-2.2-6.6,1.67a11.07,11.07,0,0,0-.49,4.28,100.43,100.43,0,0,0,1.61,12.39C430.34,350.75,431.88,354.12,433.09,357.56Zm155.72,466.2c-1.77-8.63-2.26-17-7.08-24a8.88,8.88,0,0,0-3.71-3,4.09,4.09,0,0,0-3.44.58c-3.15,2.47-3.85,15-1.17,18l.19.19C577.72,819.58,583,821.45,588.81,823.76ZM765.55,343.38l-.14-.21c-.06.06-.18.16-.17.17a2,2,0,0,0,.24.26Zm-.72-1.18.09-.15-.14,0Z"/><path class="cls-2" d="M552,72.31c-8.48,20.39-19.09,39.71-30,58.85-17.3,30.4-35.48,60.28-57.18,87.82-12.27,15.58-25.35,30.46-40.41,43.45-8.45,7.29-17.62,13.39-28.65,16.23-10.49,2.7-19.93.75-28.45-6-9.14-7.19-16.17-16.17-21.91-26.17-4-7-7.58-14.26-11.42-21.37-1.46-2.72-3-5.39-4.7-8-8.58-13.26-18.59-17.23-34-13.58a92.32,92.32,0,0,0-29.43,13.19c-55.93,36.78-94,86.34-108.37,152.68C155.39,379,154,388.6,152.6,398.2a91.81,91.81,0,0,0-.67,12.64,28.73,28.73,0,0,0,1,5.51l-.65.42a13.18,13.18,0,0,1-1.53-2.92c-1.79-8-1.12-16.14,0-24.13,4.22-29.25,12.07-57.39,26.78-83.26,22.91-40.29,54.13-72.44,94.23-95.78,9.15-5.32,18.88-9.34,29.57-10.45s20,1.86,26.4,10.77a214,214,0,0,1,13.7,22.53c6.11,11.31,12.39,22.44,21.6,31.58,5.07,5,10.56,9.52,17.78,11.09s14.26-.09,21-2.91c8.65-3.64,16.11-9.14,22.95-15.44a384.34,384.34,0,0,0,56.86-66.61,889.75,889.75,0,0,0,67-115.55c1-2.09,2.26-4,3.4-6.07l1.45.33.13.8v0l-1.45,1.16C552.08,72,552,72.16,552,72.31Z"/><path class="cls-3" d="M384.1,407.61q-.39,8.85-.77,17.69c-2.44-.77-5.35-.94-7.23-2.43-3.61-2.86-6.64-6.46-9.91-9.76a17.33,17.33,0,0,0,3.22,1.23,13.32,13.32,0,0,0,3.13-.18c.15-.37.3-.73.46-1.1-1.47-1.29-2.92-2.58-4.4-3.85-2.83-2.42-5.89-4.61-8.46-7.28-21.14-21.94-23.23-52.29-.67-74.51a33.4,33.4,0,0,1,19.89-9.19c-2.32,1.72-4.63,3.46-6.95,5.17-12.44,9.18-17.32,21.55-15,36.67,1.25,8.1,3.57,15.93,8.49,22.72l1.84,2.66-.06-.05.59.61,0-.06a20.3,20.3,0,0,0,1.52,2.84C374.52,395.09,379.32,401.34,384.1,407.61Z"/><path class="cls-4" d="M552.94,67.86l2.41-6.53-.81-.43c-6.19,5.37-11.32,12.09-18.71,15.94l-.7-.62a5.8,5.8,0,0,1,.84-1.75c6.37-6,12.73-12.08,19.24-18,.79-.72,2.4-.54,3.63-.78a12.46,12.46,0,0,1,.47,3.42c-1.26,8.89-2.62,17.76-4,26.62a11.44,11.44,0,0,1-1.24,3.48c-1.8-4-1.12-8.13-.84-12.21.14-2.11.24-4.22.36-6.33v0l.85-1.13C555.73,67.49,552.9,68.91,552.94,67.86Z"/><path class="cls-4" d="M725.73,165.81c1.93-2.22,3.61-4.74,5.83-6.6,6-5,12.27-9.85,18.51-14.64,1.21-.93,3-2.15,4.29-.28s-.15,3.37-1.55,4.35c-6.79,4.82-13.66,9.53-20.54,14.24-1.88,1.29-3.88,2.42-5.82,3.63Z"/><path class="cls-4" d="M661.14,125.12c-1.86-8.19-.84-16.38,0-24.57a24.42,24.42,0,0,1,.89-5.35c.4-1.2,1.52-2.15,2.32-3.22.72,1.22,2,2.41,2,3.65a43.64,43.64,0,0,1-.51,8.92c-1.1,6.91-2.43,13.78-3.67,20.67Z"/><path class="cls-4" d="M585.66,120.72c-2.32-2.84-4.7-5.63-6.93-8.54-1-1.27-1.5-3,.1-4.1,1.77-1.24,3.25-.06,3.93,1.52,1.48,3.43,2.68,7,4,10.46Z"/><path class="cls-5" d="M556.56,0c0,1.05,2.79-.37,1.51,1.76l-1,.33-1.46-.33Z"/><path class="cls-5" d="M552,72.31c0-.15.11-.3.17-.45A.6.6,0,0,1,552,72.31Z"/><path class="cls-3" d="M365.58,412.62l.63.52Z"/><path class="cls-3" d="M364.89,412.21l.73.44Z"/><path class="cls-6" d="M837,320.16l-3.07,1.2c-2.68-.65-5.43-1.1-8-2-4.29-1.47-8.45-3.3-12.72-4.84-6.26-2.25-12.47-4.59-17.6-9-10.71-9.22-19.21-20.28-26.57-32.26a45.91,45.91,0,0,1-6.68-24.1c0-4-1.11-8-1.71-12,8.34,0,16.73-.56,25,.17,20.2,1.79,40.24,4.93,59.52,11.42C877,259.43,903.42,277.61,922.2,306c8.72,13.17,14,27.87,18.65,42.83,6.34,20.47,11.5,41.27,11.22,62.81A450.16,450.16,0,0,1,948.68,457c-2.31,20.16-6.47,40-13.57,59.09-.57,1.54-1.18,3.05-1.79,4.57-.06.14-.25.24-.57.53-3.06-2.3-6.08-4.74-9.28-6.92a58,58,0,0,0-7.77-4.45c-.78-.37-2,.24-3.09.4.53.93.82,2.25,1.62,2.72,4.53,2.67,9.18,5.14,13.79,7.68l4.87,2.63c-4.65,9-8.89,18-13.74,26.56-11.27,20-26.7,36.7-42.39,53.15-6.7,7-13.91,13.59-20.91,20.34-2.55,2.45-5.08,4.94-7.77,7.25-14.84,12.79-20.81,29.52-21.7,48.54,0,.66-.11,1.33-.16,2l-.7.19-4.27-9.78c.09-2.43.24-4.85.25-7.27,0-4.17-.31-8.36,0-12.51.53-8.41,1.37-16.8,2-25.2.66-8.22,1.06-16.47,2-24.67,1.37-12.7,3.24-25.35,4.57-38.06,1-9.55,1.5-19.16,2.19-28.75.25-3.56.69-7,3.7-9.5,2.26-1.91,3.92-4.74,6.42-6.1a255.39,255.39,0,0,0,35-22.48,124.47,124.47,0,0,0,10-8.82c2.57-2.47,2.78-4.39,1.34-7-1.7-2.31-3.91-1.78-5.81-.66-3.57,2.11-7,4.54-10.43,6.83l-1,.61-.69.39-1,.58-1.08.56-1.09.53-1.1.53-1.12.54-1.11.51c-2.6,1.06-5.23,2.05-7.78,3.21-5.71,2.57-11.38,5.22-17.05,7.87-2.17,1-3.62.71-4.12-1.91-.6-3.11-1.5-6.18-1.88-9.32-1.1-9.09-1.65-18.26-3.07-27.3-1.92-12.15-4.45-24.2-6.73-36.29-2.57-13.63-4.9-27.31-7.85-40.85-1.91-8.76-4.52-17.39-7.23-25.95-2-6.34-.46-11.57,3.66-16.34a26.71,26.71,0,0,1,4.58-4.62c6.2-4.32,11.74-9.65,18.82-12.68A4.89,4.89,0,0,0,837,326.3c1.71-1.75,1.41-2.95-.93-3.92l.11-.22-.19,0,0,.05,1.4-.7,10.13-5.19c-.18-.37-.37-.74-.56-1.11Zm36-26.93.49-.63,0,0,.71-1v0c3.56-3.7,7.18-7.34,10.58-11.18.38-.44-.55-2-.87-3.09l.07-.81-.23-.08-.35,1,.06,0-1,.07-.66.46,0,0-1,.7,0,0-.6.53v0l-.57.55v0l-.56.56v0l-.86.79,0,.05c-.45.16-1.07.17-1.33.48-6.65,7.91-13.42,15.71-19.79,23.83-2.91,3.72-2.34,9.19,1,12.88,6.53,7.34,13.39,14.45,22.11,19.16,7.88,4.27,16.28,7.55,24.22,11.73,5.64,3,11.6,3.73,17.74,4.17h0l2.8,1-.06,0,1.58.8,1.16.32.24.09.24-.08,4.18,1.21.75.41,1.5.61.25-.57-1.31-1.1-.4-.53h0c-1.46-2-2.66-4.21-4.44-5.81-2.13-1.92-5-3-7.13-4.93-6.42-5.8-13.84-9.85-21.69-13.28-8.22-3.58-16.39-7.3-24.58-10.95a22.81,22.81,0,0,1-10.34-8.91c-1.25-2-1.64-4-.45-6.16a6.74,6.74,0,0,0,.42-1.77h0l.52-.61,0,0,.72-1,0,0,.64-.71,5.68-7.58.67-.58Zm52.41,126.6h0c-1.27,1.44-2.9,2.69-3.76,4.35-7.12,13.69-14.37,27.32-21,41.24a43.25,43.25,0,0,0-4.17,21.21c.38,6.35,3.08,11.56,9,14.21a98.35,98.35,0,0,0,13.95,4.53c2.56.71,4.28-.84,3.64-3.41a15.91,15.91,0,0,0-3.08-5.9c-1.93-2.38-4.48-4.27-6.48-6.61a10.11,10.11,0,0,1-2.34-4.69c-1.13-7.61.64-14.88,3.85-21.68,5.54-11.75,11.48-23.3,17.15-35a61.49,61.49,0,0,0,3.72-9.33c1.34-4.54-.39-6.12-5-4.92l1.14-4.78-.7-.31-5.26,9.86Z"/><path class="cls-6" d="M668.4,322.89c.18-2.05-.76-1.17-1.31-.42-1.38,1.88-2.62,3.88-4,5.8-2.21,3.21-4.14,6.68-6.77,9.49-2.3,2.46-5.32,4.29-8.2,6.11-.92.58-2.4.27-3.62.37q1.69-5.87,3.4-11.73c5.47-10.35,11.55-20.43,16.27-31.11,6.89-15.6,13.46-31.48,15.06-48.7,1.17-12.6,1.31-25.24-3.53-37.35-1.26-3.14-2.08-3.67-5.22-2.61l-3-5.68c2.48-.53,4.64-1.54,6.66-1.33,4.94.53,8.86,3.53,11.89,7.13a22.76,22.76,0,0,1,4.86,12c.92,7.47,2,14.92,3.15,23.19,4.77-8.84,3.24-17.43,2.29-26.21a24.75,24.75,0,0,1,2.15,4.74c1.91,8.68,3.48,17.43,5.51,26.07,1.34,5.71,2.33,11.82,5.16,16.79a111.17,111.17,0,0,0,15.09,20.7c12.59,13.49,23.23,28.15,30.5,45.14,3.82,8.92,7.59,17.87,11,27,1.43,3.87,1.77,8.15,2.6,12.24a6.16,6.16,0,0,0,.36,1.59c3.92,7.65,1.57,15.39.43,23.14a186.14,186.14,0,0,1-17.67,55.58c-5.39,10.91-10.43,22-15.94,32.84-5.84,11.5-13.2,21.94-22.87,30.61a10.18,10.18,0,0,0-7.39-.14c-7.69,2.28-15.55,4.14-23.59,2.89-11.37-1.77-22.77-3.55-33.94-6.23-11.45-2.75-22.71-6.37-33.92-10-9.42-3.05-18.63-3.56-27.92.26a35.69,35.69,0,0,1-4,1.12c-2-2.46-1.62-4.27.05-6.69,12.31-17.93,19.58-37.33,16.95-59.61a52.66,52.66,0,0,0-8.81-23.33l0,0c-.14-.41-.29-.82-.43-1.22-1.12-2.68-1.93-5.54-3.45-8a30.2,30.2,0,0,0-5.45-5.92,2.68,2.68,0,0,0-2.64-.12,4.43,4.43,0,0,0-.95,2.82,10,10,0,0,0,.56,2.76c-4.11-.36-4.11-.36-3.42-3.86.82-4.2,2.27-8.07,6.95-9.13,5.09-1.16,9.65-.12,13.31,4A34.2,34.2,0,0,1,603,420.69c.12,8-.62,16.1-1,24.15a7.26,7.26,0,0,0-.11,2.16,30.2,30.2,0,0,0,1.49,3.47l3-1.91c3.4.95,5.59.07,6.9-3.36,1.13-2.95,1.77-6.08,2.62-9.14,1-3.56,1.57-3.83,5.19-3.39Q644,435.51,667,438.11c1,.12,2.21-1,3.33-1.57l3.42.65.49-.68-5.74-4.87a16.51,16.51,0,0,0,.8-2.3c.68-3.42,1.88-6.07,6-6.56,2-.23,2.57-2.74,1.67-4.69a24,24,0,0,1-1.92-4.47c-.82-3.61-1.42-7.28-2-10.94-.57-3.4-1.61-4.58-4.63-5-2.43-.66-3.22,1.15-3.93,2.79-2.69,6.23-5.14,12.57-8,18.71-1,2.16-2,5-5.25,5l-.1,0-1.52-.39c-13.21-2.29-26.42-4.56-39.62-6.92a3,3,0,0,1-1.9-1.62c-1.35-3.47-2.44-7-3.75-10.51a25.17,25.17,0,0,0-11.3-13.5c-7-4-12.4-3.38-18.32,2.09-.23-.38-.61-.73-.68-1.14-2.16-11.43-8-21-15.15-29.84a7.72,7.72,0,0,1-.86-2.1c5.36,1.45,10.68,3.11,16.1,4.26,4.19.88,8.52,1,12.07-2.14a19.05,19.05,0,0,0,2.38-3.19l.46-.57-.06,0c.4-1.11,1.27-2.29,1.12-3.32-.44-2.92-1.27-5.79-2-8.67-1.43-5.65-4.64-10.89-4-17l12.36-6.91c.5,1.44,1,2.47,1.23,3.55,1.84,7.29,3.83,14.55,5.42,21.9,2.81,13,17.18,15.2,24.77,9.51a77.35,77.35,0,0,0,6.8-5.39c2-1.91,3.69-4.18,5.63-6.44,1.79,3.23,4.8,3.76,8.12,3.52,2.92,3.77,7.36,4.73,12.46,2.27,6.79-3.28,11.94-8.45,16-14.76,2-3.17,3.76-6.42,3.34-10.4-.32-3-1.6-5.37-4.58-6.48s-4.9.13-6.53,2.45C668.94,322.67,668.63,322.75,668.4,322.89Zm38.11-3.14-.71-.61a21.15,21.15,0,0,0-2.11,1.76c-4.92,5.2-9.85,10.4-14.71,15.66a71.12,71.12,0,0,1-23.24,16.26c-1.38.63-2.92.91-4.36,1.43a23.28,23.28,0,0,0-2.35,1.16c.8.71,1.62,2,2.41,2a14.92,14.92,0,0,0,5.51-1.14c10.14-4.34,19.08-10.38,26.11-19,3.32-4.08,6.7-8.1,10-12.23C704.32,323.36,705.36,321.51,706.51,319.75Zm-29-18.27.9.28c5.21-3.29,12.35-29.64,9.64-35Zm16.77-2a24.86,24.86,0,0,0-1.76-4.59c-1.66-2.79-5.08-2.83-6.58.06a15.61,15.61,0,0,0-1.83,6.94,4.43,4.43,0,0,0,6.61,3.93C693,304.66,693.84,302.51,694.23,299.52Z"/><path class="cls-6" d="M573.2,519.44c4.58-2.15,9.2-4.21,13.72-6.48,2.81-1.41,5.46-2,8.56-.74,6,2.41,12.34,4.24,18.3,6.83,15.85,6.89,32.55,10,49.53,12.3,10.52,1.4,21,3.19,31.47,4.94,3.88.65,7.07-.06,9.89-3s6.07-5.73,9.14-8.56c14.84-13.69,25-30.52,33.07-48.83,4.2-9.56,8.5-19.08,13-28.52,7.51-15.85,11.28-32.73,14.06-49.9.19-1.17.4-2.33.73-4.26a25.07,25.07,0,0,1,.88,2.39A217.68,217.68,0,0,1,781.64,455c-.36,8.8-.26,17.62-.27,26.43,0,19.63-.21,39.21-2.73,58.75-1.22,9.43-1.17,19-1.51,28.56-.24,7-.21,14-.26,21a32.87,32.87,0,0,0,4.24,16.71,26.56,26.56,0,0,1,3.74,14,15.53,15.53,0,0,0,7.49,13.78c4.86,3.15,9.94,6,15,8.83,3.45,1.95,3.77,2.8,1.55,6.11-3.28,4.9-7.93,8.13-13.14,10.65l-1.7.64.06,0c-1.4.3-2.79.59-4.18.92-24.16,5.57-48.55,8.54-73.39,6.5-7.59-.62-15.23-.84-22.78-1.71-31.58-3.66-60-16-86.74-32.53-15.26-9.44-26.88-22.87-37.79-36.93a8.57,8.57,0,0,1-1.87-7c1.93-13.65,3.93-27.29,5.62-41C574.18,539,574.91,529.22,573.2,519.44ZM763.63,642.88c5.11-1.78,10.24-3.51,15.33-5.36a15.49,15.49,0,0,0,4-2.14,3,3,0,0,0,1.07-2.44c-.19-.61-1.53-1.21-2.34-1.19a35.17,35.17,0,0,0-5.05.82c-.24-1.6-1.19-1.75-2.58-1.46s-2.84.74-4,.34c-3.39-1.17-6.43,0-9.58.77-4.33,1-8.61,2.34-13,2.95q-18.16,2.54-36.42,4.53a131.85,131.85,0,0,1-33.68-1c-12.28-1.85-24.43-4.54-36.7-6.54A139.15,139.15,0,0,0,625,631a3.06,3.06,0,0,0-2.33,1.35c-.24.42.5,1.61,1.05,2.23a13.45,13.45,0,0,0,2.38,1.81,78,78,0,0,0,23.16,10.7c18.92,5.61,38.21,8.44,58.06,6.85,14.14-1.13,28.18-2.74,41.92-6.3C754.13,646.39,758.84,644.49,763.63,642.88Zm-30.54,21.55c0,.21,0,.42.08.62a12.85,12.85,0,0,0,2.81.23c6.44-.82,12.85-1.88,19.31-2.56,13-1.38,25.1-5.67,37-10.63a11.22,11.22,0,0,0,3.42-2.14c.61-.58.7-1.7,1-2.58-.91-.22-1.9-.81-2.7-.62-3.7.91-7.36,2-11,3.1-5.2,1.6-10.32,3.48-15.56,4.94-11.08,3.09-22.21,6-33.31,9A4.52,4.52,0,0,0,733.09,664.43Z"/><path class="cls-7" d="M389,410.54c0-1.37,0-2.73.07-4.09,16.72,5.74,33.42,11.54,50.86,14.82a7.21,7.21,0,0,0-2.09-1.3c-15.07-5.16-30.14-10.33-45.25-15.39-1-.34-2.29.07-3.45.14v-8l.49-.92c5.09-2.38,10.15-4.82,15.28-7.1a5.44,5.44,0,0,1,3.51-.38q30,9.38,60,18.92a39.86,39.86,0,0,0,6.89,1.59c-9.79-6.35-20.92-9.38-31.7-13.2s-21.66-7.06-31.8-10.33c6.58-6,13.66-12.11,20.24-18.7a63.17,63.17,0,0,0,15-23c26.23,5.95,51.39,15.05,77.42,24.19-1.33.36-1.85.56-2.38.64a28.4,28.4,0,0,0-20.79,13.44c-6,9.36-8.56,19.72-9.86,30.58-2.09,17.5-1.33,35-.29,52.52.92,15.49,2.12,31.12,1.09,46.55-1.67,25.14-5.78,50-16.1,73.37-4.09,9.27-9.34,17.74-16.95,24.77-12.65,11.71-35.66,9.49-44.28-8-2.86-5.83-4.72-12.15-7-18.25a11.54,11.54,0,0,1-.37-2.27c12.08,4.27,24,8.48,36,12.68a8.91,8.91,0,0,0,2.12-.09,26,26,0,0,0-3.47-2.13c-10.82-4.21-21.64-8.44-32.53-12.48-2.11-.78-3.08-1.78-3.15-4-.15-5-.47-9.9-.74-15.15l19.2,7,.51-1c-2.26-1.44-4.44-3-6.81-4.28-3.45-1.81-7.07-3.3-10.55-5.06-.75-.38-1.72-1.35-1.7-2,.21-8,.59-15.92.93-23.9l54.34,18,.42-1.13c-2.16-1-4.27-2.09-6.48-2.91-15.15-5.62-30.29-11.25-45.5-16.71-2.42-.87-3-2.09-3.06-4.53-.12-7-.6-13.94-.93-20.6l11.81,2.63.44.37a.88.88,0,0,0,0-.14l-.5-.19c-3.6-2.05-7.25-4-10.77-6.21a6,6,0,0,1-2.42-2.87c-2.48-7.2-4.77-14.46-7.13-21.7l-.59-1.89,63.56,22.05.29-.73c-2.27-1.12-4.46-2.45-6.82-3.34q-28-10.5-56.12-20.82a7,7,0,0,1-4-3.6c-3.55-6.43-7.43-12.67-11.08-19-.48-.83-.85-2.31-.44-3,5.77-9.79,7.09-20.49,6.67-31.57C389,412,389,411.26,389,410.54Zm82.64,42.59.36-.93c-1.63-.83-3.21-1.79-4.91-2.46A527,527,0,0,0,394,426.43a8.48,8.48,0,0,0-2.41-.39,6,6,0,0,0-1.85.79c.35.66.56,1.52,1.1,1.93a7.25,7.25,0,0,0,2.5,1c4.29,1.17,8.63,2.17,12.88,3.48,16.82,5.18,33.6,10.49,50.42,15.68C461.59,450.45,466.62,451.73,471.62,453.13Zm-35,9.62.24-.72a35.53,35.53,0,0,0-4.74-2.46q-22.05-7.74-44.17-15.33a3.73,3.73,0,0,0-1.59-.29,6.73,6.73,0,0,0-1.62.7c.25.53.37,1.3.79,1.55a23,23,0,0,0,4.16,2c9.1,3.09,18.18,6.25,27.35,9.12C423.48,459.33,430.07,461,436.6,462.75Zm44.88-74.55.43-.81c-1.89-1.14-3.69-2.46-5.67-3.4-5.82-2.76-11.62-5.59-17.59-8-7.4-3-14.95-5.56-22.47-8.19-.71-.25-1.71.36-2.58.58.41.83.6,2,1.27,2.42a28.86,28.86,0,0,0,4.95,2.19q18.62,6.9,37.25,13.75C478.52,387.3,480,387.72,481.48,388.2ZM457.2,521.41l.19-1q-11.88-4.55-23.76-9.08a3.2,3.2,0,0,0-1.59-.28,8,8,0,0,0-1.79.82,9.6,9.6,0,0,0,1.09,1.67,3.68,3.68,0,0,0,1.47.67c6.44,2.13,12.87,4.3,19.34,6.33A35,35,0,0,0,457.2,521.41Zm9.3-154.62.46-1.25q-9.58-4-19.17-7.93a2.7,2.7,0,0,0-1.59-.23,13.55,13.55,0,0,0-2.27,1c.55.59,1,1.51,1.67,1.73C452.54,362.42,459.53,364.59,466.5,366.79Zm3.67,67.58.38-1a62.81,62.81,0,0,0-16.63-7.61,1.41,1.41,0,0,0-.81,0,16.42,16.42,0,0,0-1.59.75c.34.55.55,1.4,1,1.61,2.26.95,4.58,1.74,6.89,2.55C463,431.91,466.6,433.13,470.17,434.37ZM452.3,579.49c-6.14-3.89-12.39-7.42-19.45-9l-.56,1.34C438.65,575.16,445.55,577.21,452.3,579.49ZM463.22,472.8c-5-3.38-10.25-6.11-16.47-6.23C451.46,470.69,457.23,472,463.22,472.8Zm25.45-98.72.69-1.52c-3.55-2-7.08-4.1-10.69-6-.48-.25-1.38.31-2.09.5.29.69.4,1.77.91,2C481.17,370.83,484.93,372.42,488.67,374.08ZM458.73,521.59v-.09h-.24Z"/><path class="cls-7" d="M205.78,418.75a5.78,5.78,0,0,1,.68-1.9,61.42,61.42,0,0,1,24-17.38c6.78-2.68,13.62-5,20.94-5.48a8.35,8.35,0,0,1,3.78.82c7.24,3.34,14.44,6.79,21.67,10.14a11,11,0,0,0,2.9.25c-5.4-5.45-12.32-7-17.94-10.73,6.14-.68,52.18,12.77,62,18.14a12.22,12.22,0,0,1-1.44.63c-14.32,3.72-25.23,11.67-33.5,24.25-9,13.75-12.15,29.19-15.54,44.7a165,165,0,0,0-3.67,39.52c.44,18.32-.3,36.58-5.05,54.38a143.64,143.64,0,0,1-27.05,53.61c-7.49,9.32-17.24,15.2-28.38,18.95A17,17,0,0,1,187.39,637a22.56,22.56,0,0,1-1-5.62c-.14-4.9-.05-9.8-.05-15.49,3.1,1.86,5.56,3.45,8.12,4.85s5.11,2.55,7.67,3.82l.53-.86c-3.62-2.69-7.08-5.64-10.9-8s-6.26-5.13-6-9.92a49.14,49.14,0,0,0-.73-7.28l23.29,9.82.44-.82c-1.71-1.13-3.35-2.41-5.15-3.37-5.84-3.13-11.78-6.08-17.6-9.24a4.65,4.65,0,0,1-2.2-2.71c-2-10.77-6.82-19.86-15.6-26.65a5.6,5.6,0,0,1-.78-.76c-.17-.21-.3-.45-.53-.79.24-.23.44-.55.73-.67,6.36-2.73,10-7.83,12.53-14,3.89-9.71,4.84-19.84,4.67-30.21-.21-13.34-.83-26.73,0-40,.92-15.43,3.31-30.78,10.27-44.88,2.47-5,5.84-9.59,8.88-14.31.36-.56,1.25-.78,1.9-1.16-.24,1.84.84,2.8,2.32,3.51q14.58,7,29.18,13.9c.39.19.94,0,2.17,0a16.82,16.82,0,0,0-2.21-2c-8-4.49-15.93-9.06-24-13.32C211,419.64,208.28,419.41,205.78,418.75ZM240,591.19l.42-.84a46.88,46.88,0,0,0-4.78-3q-22.27-10.5-44.6-20.85-6.54-3-13.25-5.66c-.88-.34-2.11.23-3.18.38.7.79,1.24,1.92,2.12,2.31q29.91,13.37,59.89,26.59A29.44,29.44,0,0,0,240,591.19Zm10.35-68.82.39-.73a71.83,71.83,0,0,0-6.59-4.13c-17.31-8.54-34.67-17-52-25.45a3.88,3.88,0,0,0-1.48-.64,26.74,26.74,0,0,0-3.18.45c.54.83.89,2,1.64,2.44a55,55,0,0,0,6.45,3.49q24.93,11.51,49.9,22.9A51.17,51.17,0,0,0,250.34,522.37ZM276.86,433l.6-.79a26.16,26.16,0,0,0-3.3-2.4c-4.75-2.46-9.56-4.81-14.34-7.21-9.81-4.92-19.6-9.88-29.44-14.74a26.38,26.38,0,0,0-5.65-1.87c-.58-.13-1.36.56-2,.88a9.76,9.76,0,0,0,1.15,1.87,7.34,7.34,0,0,0,1.65.93c14.94,8.74,31.12,14.76,46.92,21.63C273.86,431.92,275.37,432.43,276.86,433ZM228.43,563.42l.38-.77a30.61,30.61,0,0,0-4.27-3q-16.72-7.87-33.58-15.52c-1.39-.63-3.16-.39-4.76-.56-.14,2.55,2.14,2.72,3.62,3.37,10.79,4.77,21.63,9.4,32.47,14C224.31,561.88,226.39,562.62,228.43,563.42Zm34.72-88.75.36-1c-1.3-.78-2.56-1.63-3.91-2.3-6.1-3-12.2-6-18.34-8.95-3.85-1.83-7.74-3.58-11.68-5.2a20.86,20.86,0,0,0-4.15-.78l-.29,1.08A235.34,235.34,0,0,0,263.15,474.67Zm-36.77,65.14.17-.61a17.11,17.11,0,0,0-2.88-2.27c-8.22-4-16.46-8-24.76-11.8-.83-.39-2.1.15-3.16.25.64.92,1.25,1.87,2,2.74a3.06,3.06,0,0,0,1.18.65c8.24,3.5,16.48,7,24.74,10.47A14.58,14.58,0,0,0,226.38,539.81Zm27.69-40.88.35-.6a27.52,27.52,0,0,0-3.45-2.68c-5.48-3-11-6-16.55-8.88a11.59,11.59,0,0,0-3.79-1.46c-1.07-.13-2.22.49-3.34.77.73.8,1.32,1.94,2.23,2.35,6.69,3,13.45,5.93,20.2,8.84C251.14,497.88,252.62,498.38,254.07,498.93Zm-39.93-18.74.45-1.15c-6.61-4.58-14.13-7.4-21.42-10.67a.85.85,0,0,0-.53-.09c-.69.27-1.38.58-2.07.87.37.65.7,1.33,1.11,2,.13.2.46.28.71.38ZM195.82,441.3l-.61,1.32A52.58,52.58,0,0,0,212.79,449C207.67,445.18,202.34,441.85,195.82,441.3Zm46.9-4.31-.64,1.28,17.39,8.54.45-.91Zm-.93.64.27-.71c-.5-.18-1-.36-1.51-.51a3.86,3.86,0,0,0-.35.62Zm19.68,9.69c0,.07.1.19.14.18a2.09,2.09,0,0,0,.43-.11c-.05-.06-.11-.17-.16-.17A2,2,0,0,0,261.47,447.32Zm-.68-.5c-.07-.06-.13-.17-.2-.17s-.14.1-.21.15.13.17.2.17S260.72,446.87,260.79,446.82Z"/><path class="cls-6" d="M654.49,675.79c8.36,1.09,16.71,2.26,25.08,3.26,20.13,2.39,40.3,3.61,60.55,1.49.53-.06,1.06-.06,2.43-.12-1.15,4.61-2.2,8.88-3.26,13.15a7.38,7.38,0,0,0-.29,1c-.52,5.11-1.23,10.22-1.47,15.34a38,38,0,0,0,.64,10.5c7.12,29.54,14.61,59,21.59,88.58,2.07,8.8,2.85,17.9,4.23,26.87-1,.22-2,.4-2.9.68q-9.4,2.7-18.79,5.43c-1.11-2.86-2.08-5.8-3.38-8.58-4.43-9.47-14.29-11.27-21.48-3.71-2.89,3-5,6.83-7.62,10.51-.22-.79-.4-1.69-.72-2.54-1.24-3.29-2.12-6.81-3.9-9.79-2.77-4.64-7.16-7.29-12.71-6.94s-9.31,3.69-11.41,8.79c-1.07,2.58-1.9,5.27-3,8.43-.49-1.25-.76-2.15-1.18-3-2.16-4.27-4-8.8-6.64-12.71-4.82-7-9.26-7.65-16.34-3.16-.54-1.53-1.18-3-1.61-4.6a228.34,228.34,0,0,1-7.47-46.91c-.19-3.19,0-6.4,0-9.69,9.21,1.85,17.71.54,26.16-1a30.36,30.36,0,0,0,6.78-2.62,2.1,2.1,0,0,0,1.09-1.64c-.08-.51-.9-1.1-1.51-1.29-1.47-.46-3-.71-4.5-1l1-.23L679,750l11.75-.88H678.94c-1.07-.08-2.15-.23-3.22-.24-9.78-.07-19.57.06-29.21-1.93-.23-1.66.07-2.69,2.15-2.2a14.56,14.56,0,0,0,3.24.18c10.66.14,21-2.11,31.33-4.34,2.82-.61,5.48-1.92,8.22-2.91v0l1.32-.42,2.56-.75,2.89-2.47-.15-.85a18.28,18.28,0,0,0-4-.78c-6.07.22-12.13.89-18.2.85-7.94-.06-15.88-.64-23.82-1-3.51-.16-3.92-1.07-2.35-3.77,2.87-.37,5.36-.57,7.79-1,1.83-.35,1.79-1.53.41-2.38-2.27-1.4-4.69-2.56-7-3.82C652.06,706.33,653.27,691.06,654.49,675.79Z"/><path class="cls-8" d="M531.9,179.8a54.65,54.65,0,0,1,6-5,91.38,91.38,0,0,1,59.34-13.62c8.77.91,17.64,1.61,25.73,5.31,12.09,5.52,22.44,13.56,30,24.58,7,10.33,13.41,21.12,19.89,31.82,1,1.7,1.29,4,1.57,6,2.72,20.19-2.44,39.09-9.59,57.65a2.18,2.18,0,0,1-.32.43c-1.91-1.89-4.24-1.93-6.54-1.18a3.37,3.37,0,0,0-1.82,2.17c-2,9.34-3.93,18.7-5.81,28.06a6.15,6.15,0,0,0,.29,1.95c-.39.95-.79,1.89-1.18,2.84l-.71-.14V307l-1.08-.13c-.29,1.29-.62,2.57-.88,3.86-1.64,7.86-3.22,15.72-4.92,23.56a14.24,14.24,0,0,1-1.53,3.11c-.72.91-1.47,1.81-2.15,2.74-4.45,6.07-9.28,11.63-17.65,11.53-1.46,0-2.91-1.34-4.37-2.06,7.65-10.86,12.49-22.66,12.11-36.22-.36-12.83,1.08-25.9-5.58-38.74,2.89,0,5.28,0,7.67,0,1.53,0,3.34,0,3.24-1.85-.05-.94-1.63-2.32-2.74-2.59a51,51,0,0,0-7.45-.77l2.71-10.57a11.45,11.45,0,0,1,10.47,3.26c1.27,1.27,2.77,2.32,4.17,3.47-2.18-7.22-8.23-10.4-14.49-8.19-.37-5,.19-10.34-1.27-15-8.23-26.22-25.24-44-51.89-51.89a31.49,31.49,0,0,0-20.08.7c-5.69,2.09-10.53,5.67-12.7,11.25-2.82,7.24-4.23,14.88-2.41,22.82a72,72,0,0,0,8.38,20.86c.5.84,1,1.69,1.64,2.89-11.89-1-23,.42-33.16,6.27-.26-6.23-1.11-12.49-.68-18.67,1-15,6.33-28.95,11.27-42.95,1.41-4,3.19-7.81,4.81-11.71l0,0,.51-.62,0,0,.73-1,0,0Zm99.86,24.43c-3.9,1.91-10.66,10.94-11.6,14.62a10.82,10.82,0,0,0,0,2.61l.78.21Zm5.21,10.4-.76-.84c-2.77,2.07-5.59,4.08-8.28,6.24-.45.36-.36,1.39-.52,2.11.71-.15,1.64-.06,2.11-.48C632.06,219.38,634.5,217,637,214.63Z"/><path class="cls-7" d="M16.36,642.59c6.5,2.71,13.22,4,20.21,2.61a17.27,17.27,0,0,0,12.54-9.56,37.21,37.21,0,0,0,4-17.64,177.77,177.77,0,0,0-3.84-32.15,64.05,64.05,0,0,1,1.29-31.29c2-6.77,6-12.38,10.93-17.34a3,3,0,0,1,4.06-.66,35.67,35.67,0,0,0,5.14,1.85l.35-.7-5-4.46c4.07-1.34,7.64-2.8,11.35-3.67,9-2.11,17.72-.34,26.25,2.46a163.26,163.26,0,0,1,47,24.86c.58.43,1.14.9,1.68,1.38.11.09.1.33.18.64a8,8,0,0,1-1.24.3c-13.55.82-22.84,7.93-28.78,19.78a106.72,106.72,0,0,0-11.19,43.74,277.88,277.88,0,0,1-2.7,30.1c-2.14,13.83-9.51,24.49-21.6,31.87-6.25,3.81-12.59,3.37-19.14,1.33a2.35,2.35,0,0,1-.73-.35c-14.86-12.22-31.33-22.43-44.84-36.31Q19.15,646.17,16,643ZM94.53,632l.12,0h-.16c-.78-3-3.36-4-5.69-5.21-.52-.27-1.41.17-2.13.29.32.65.48,1.63,1,1.89C89.9,630.15,92.23,631.06,94.53,632Zm-31-52.39c.18.11.36.22.11.06.29,0,.07,0-.15,0-2.81-2.12-5.6-4.28-8.46-6.32-.34-.24-1.11.15-1.68.24.2.62.23,1.6.63,1.79C57.08,576.9,60.3,578.25,63.49,579.65ZM69,636.29l0,0A36.34,36.34,0,0,0,55.06,629c-.13.72-.08,1.21.14,1.31C59.79,632.31,64.41,634.29,69,636.29Zm19.55,11c.15.1.3.19.1.07.23,0,0,0-.14,0-2.44-3.91-11.35-8.48-15.18-7.11A41.52,41.52,0,0,0,88.56,647.29ZM101.93,577l.53-.89A50.93,50.93,0,0,0,97,572c-10.85-6.21-21.76-12.31-32.67-18.4a23.66,23.66,0,0,0-4.51-1.86c-.58-.18-1.33.19-2,.32.17.73.1,1.75.56,2.14a26.58,26.58,0,0,0,4.85,3.42q16.67,8.6,33.42,17C98.39,575.51,100.18,576.22,101.93,577Zm-5,32.42.35-.64a19,19,0,0,0-3-2.41q-19.78-10.3-39.64-20.43c-.8-.4-2.06.11-3.11.2.63.86,1.06,2.11,1.91,2.53Q73.06,598.45,92.75,608A32.28,32.28,0,0,0,97,609.42Zm27.88-52,.48-.71c-.49-.4-.94-.84-1.46-1.2-2.19-1.53-4.34-3.13-6.61-4.54q-13.86-8.61-27.79-17.07c-1.24-.75-3.17-2.35-4.26-.37s1.36,2.67,2.61,3.38c10.25,5.79,20.55,11.47,30.84,17.18C120.72,555.26,122.79,556.34,124.86,557.45Zm-39,102.66.33-.61a36.07,36.07,0,0,0-4-3C73,651.4,63.72,646.4,54.47,641.38a8.47,8.47,0,0,0-2.26-.92,4.87,4.87,0,0,0-1.69.26c.13.58.09,1.33.45,1.7a10.49,10.49,0,0,0,2.59,2q14.3,7.32,28.63,14.55A24.08,24.08,0,0,0,85.88,660.11ZM78,622.24l.69-1.11c-.82-.54-1.62-1.14-2.49-1.61-5.53-3-11.06-6.12-16.66-9-.73-.39-1.83-.07-2.76-.07.52.82.85,2,1.6,2.4,5.37,3,10.82,5.82,16.29,8.61A14.38,14.38,0,0,0,78,622.24Zm12.44-30.07c-3.77-3.56-7.63-7-13-7.9C80.92,588.38,86,589.83,90.45,592.17Zm-6.14-42.85.76-1.22c-1.91-1.42-3.76-2.92-5.75-4.2-.49-.31-1.44.12-2.18.21.24.7.27,1.77.75,2C80,547.34,82.16,548.29,84.31,549.32Z"/><path class="cls-8" d="M582.05,659.69c7.48,2.16,14.89,4.6,22.46,6.41,9.87,2.37,19.87,4.24,29.81,6.32l2.89.58c-1.67,11.55-3.56,22.83-4.87,34.18q-2.62,22.73-4.49,45.54c-1.07,12.81,1.52,25.32,3.92,37.82.76,4,1.37,8,2.08,12.25-9.22,1.8-15.59,7-19.53,16.27a36.21,36.21,0,0,0-1.23-3.46c-2.21-4.44-3.94-9.24-6.82-13.19-4.34-6-10.23-5.17-13.88,1.28-.66,1.16-1.22,2.36-1.67,3.25q-3.83-6.24-7.61-12.45c-.75-6.47-2-12.93-2.13-19.42-.3-13.16,0-26.33,0-39.5,0-.61.12-1.22.21-2.15,4.16,0,8.26.35,12.27-.08a141.93,141.93,0,0,0,15.15-2.75c1-.23,1.81-1.56,2.7-2.38-1-.76-2-1.92-3.12-2.21-3.76-1-7.6-1.62-11.41-2.39a12.7,12.7,0,0,0-1.87-.52c-4.64-.6-9.28-1.17-13.92-1.75.07-.78.13-1.57.21-2.48.68.08,1.11.16,1.55.19,5,.41,10.08,1,15.13,1.09,1.58,0,3.17-1.55,4.76-2.39-1.21-1.21-2.22-2.84-3.68-3.54-3.66-1.76-7.51-3.1-11.29-4.61h4.95a40.44,40.44,0,0,0-6.58-2.76,4.93,4.93,0,0,0-1.76.16l.51,1.83c-3.81-.48-3.89-.48-3.81-4.25Q581.49,682.14,582.05,659.69Z"/><path class="cls-9" d="M573.2,519.44c1.71,9.78,1,19.57-.23,29.3-1.69,13.68-3.69,27.32-5.62,41a8.57,8.57,0,0,0,1.87,7c10.91,14.06,22.53,27.49,37.79,36.93,26.73,16.54,55.16,28.87,86.74,32.53,7.55.87,15.19,1.09,22.78,1.71,24.84,2,49.23-.93,73.39-6.5,1.39-.33,2.78-.62,4.18-.92a31.15,31.15,0,0,1-3.41,2c-16.82,7.29-34.5,11.23-52.64,13.09-25.78,2.64-51.32-.29-76.77-4-20.12-3-40.26-5.82-59.93-11.17-8.39-2.28-16.73-4.72-25.76-7.28,1.94-1.42,3.57-2.27,4.71-3.56s2.51-3.07,2.54-4.65c0-.91-2.28-2.25-3.76-2.75-10.8-3.65-20.26-9.7-29.42-16.29-3.09-2.23-6-4.75-9-7a5.1,5.1,0,0,1-2.17-4.65c.34-13.16,2.9-26,6.2-38.65,3.85-14.85,7.85-29.67,11.24-44.62a80.44,80.44,0,0,0,1.62-27.64,8,8,0,0,1,.08-1.26l4.7,1.13c.73,3.94,1.07,7.67,2.18,11.15C565.77,518.25,568.87,520.11,573.2,519.44Z"/><path class="cls-10" d="M707.74,216.29c1,.84,2.28,1.5,2.78,2.56,1.41,3,2.26,6.18,3.74,9.09,1.7,3.37,3.8,6.53,5.81,9.73,1.18,1.89,2.79,3.57,3.73,5.56,6,12.7,13.64,24.38,21.71,35.85,12.16,17.31,24.23,34.73,35.51,52.62,5.33,8.45,8.74,18.11,13,27.23.23,2.22.3,4.48.73,6.67.55,2.87,1.54,5.58,4.57,6.84,8.41,21.19,14.56,43,17,65.69,2.59,23.86,4.16,47.78,3.12,71.78-.58,13.42-1.91,26.81-2.9,40.21-1.77,23.81-3.66,47.62-5.22,71.44-.35,5.39.49,10.86.78,16.29,0,.51-.08,1-.11,1.53L800.9,633.2c2-4.42,1.41-8.86.11-13.3A94.8,94.8,0,0,1,797.34,587c.91-14,2.09-28,3.41-42.06,1.66-17.63,3.28-35.26,3-53-.17-11-.35-22-1-33-.83-14.67-1.27-29.44-3.34-44-5-35.14-14.65-68.9-32.84-99.76-7.42-12.58-15.91-24.4-27.16-33.84a67.62,67.62,0,0,1-23.51-39.12c-1.35-6.45-3.47-12.73-5.39-19C709.83,220.89,708.69,218.62,707.74,216.29Z"/><path class="cls-11" d="M514.87,261.4c5.56-4.64,12.21-6.73,19.19-7.59,4.66-.57,9.41-.38,14.11-.53,2.17-.07,3.61.93,5,2.59,9.81,11.5,21.5,20.32,36.43,23.91,4.52,1.09,9.32,1,14,1.44l11.48-.81a8.21,8.21,0,0,1,.12.91,10.39,10.39,0,0,1-.11,1.36,37.85,37.85,0,0,1-14,24.5c-4.09,3.31-9,5.63-13.77,8.06-6.46,3.3-11.83,7.44-12.17,15.35-.14,3.1.62,6.26,1.19,9.35.4,2.16,1.17,4.25,1.89,6.77-11.46-5.62-21.71-12-30.72-20.4-13-12.09-23.2-26-27.91-43.4C517.72,275.83,516.44,268.58,514.87,261.4Zm20,25.08c2-4,.08-7.73-.75-11.51-.15-.69-1.07-1.22-1.64-1.82-.54.64-1.34,1.2-1.58,1.94C529.78,278.47,531.85,284.25,534.84,286.48Z"/><path class="cls-12" d="M707.74,216.29c1,2.33,2.09,4.6,2.81,7,1.92,6.31,4,12.59,5.39,19a67.62,67.62,0,0,0,23.51,39.12c11.25,9.44,19.74,21.26,27.16,33.84,18.19,30.86,27.85,64.62,32.84,99.76,2.07,14.52,2.51,29.29,3.34,44,.62,11,.8,22,1,33,.27,17.73-1.35,35.36-3,53-1.32,14-2.5,28-3.41,42.06A94.8,94.8,0,0,0,801,619.9c1.3,4.44,1.86,8.88-.11,13.3a3.67,3.67,0,0,1-.5-.17c-6.2-3.58-8.87-8.67-7.28-15.91a15.59,15.59,0,0,0-1.81-11.64c-4.66-7.4-4.73-15.39-4.24-23.66,1.16-19.6,2.28-39.2,3.08-58.81.8-19.88,1.75-39.79,1.59-59.67-.12-15.41-1.63-30.83-3-46.21a183.14,183.14,0,0,0-3.65-25A107.41,107.41,0,0,0,778,370.75a46,46,0,0,1-3.77-11.87c-2.85-16.67-10.11-31.52-20.32-44.74-9.26-12-19.43-23.29-29.22-34.88-2.17-2.56-4.36-5.12-6.65-7.57-1.22-1.3-2.77-2.29-4-3.58a8.57,8.57,0,0,1-2.22-3.29c-1.91-7.46-3.62-15-5.45-22.45-1.33-5.46-2.43-11-4.26-16.3-1-2.88-3.29-5.31-5-8-.57-.9-1-1.88-1.74-3.22,3.81,0,6.95-.1,10.09.06C706.23,215,707,215.82,707.74,216.29Z"/><path class="cls-8" d="M542.67,228.9c-2.59-7-3.68-14.54-1.21-21.39A20.19,20.19,0,0,1,557,194.09a30.56,30.56,0,0,1,15.89.82c26.21,8.93,43.06,26.61,49,53.92,1.49,6.92.89,14-3.86,19.95a32.16,32.16,0,0,1-4,.78c-5.29.4-10.65,1.33-15.89.91-12.24-1-22.14-7.76-31.58-14.81C556.82,248.43,548.34,239.84,542.67,228.9Zm54.71,28.38c-.4-4.36-3.64-7.84-7.4-10.94-1.69-1.4-4-2.28-5.73-.81a8.25,8.25,0,0,0-2.44,5.3c-.27,4.72,4.08,10.28,8.78,12C594.41,264.26,597.36,262.22,597.38,257.28Z"/><path class="cls-8" d="M524,448.55c5.1-6.27,4.81-8.68-2.57-19.73,7.77-1.21,11.31-6.37,11.81-13.52.54-7.57-5.2-11.17-10.48-15.44,2.77.22,5.62.09,8.28.73,13.59,3.25,27.12,6.71,40.67,10.09,2.2.55,4.43,1,6.61,1.61,3.55,1,5.91,2.71,6.55,6.89,1.45,9.38,1.68,18.78-.81,27.86-4,14.34-8.65,28.47-13.11,42.65a27.52,27.52,0,0,1-2.41,4.54,16.57,16.57,0,0,0-2.1-2c-8-5.5-16.11-10.77-23.93-16.47C533.18,468.94,526.29,460.28,524,448.55Z"/><path class="cls-13" d="M812,639.38c0-.51.07-1,.11-1.53,3.77-20.19,5.49-40.6,7.1-61.05,1.42-18.19,3.14-36.37,4.61-54.56a345,345,0,0,0-.3-59.61c-1.3-14-2.54-28.05-4.82-41.92-3.89-23.71-12.61-46-21.78-68.09-1.08-2.59-2.24-5.16-3.46-8a18.55,18.55,0,0,1,1.92-1.35q13.4-7,26.8-14L836,322.17l0-.05a.35.35,0,0,1,.08.26c2.34,1,2.64,2.17.93,3.92a4.89,4.89,0,0,1-1.55,1.07c-7.08,3-12.62,8.36-18.82,12.68a26.71,26.71,0,0,0-4.58,4.62c-4.12,4.77-5.66,10-3.66,16.34,2.71,8.56,5.32,17.19,7.23,25.95,3,13.54,5.28,27.22,7.85,40.85,2.28,12.09,4.81,24.14,6.73,36.29,1.42,9,2,18.21,3.07,27.3.38,3.14,1.28,6.21,1.88,9.32.5,2.62,2,2.92,4.12,1.91,5.67-2.65,11.34-5.3,17.05-7.87,2.55-1.16,5.18-2.15,7.78-3.21l.28.33c-11.4,6.26-23,12.23-33.52,20.09a18.15,18.15,0,0,0,5.91-1.75q19-9.8,37.92-19.74c3.53-1.85,7-3.8,10.43-5.88a18.4,18.4,0,0,0,3-3l.49-.5c1.44,2.58,1.23,4.5-1.34,7a124.47,124.47,0,0,1-10,8.82,255.39,255.39,0,0,1-35,22.48c-2.5,1.36-4.16,4.19-6.42,6.1-3,2.55-3.45,5.94-3.7,9.5-.69,9.59-1.19,19.2-2.19,28.75-1.33,12.71-3.2,25.36-4.57,38.06-.89,8.2-1.29,16.45-2,24.67-.67,8.4-1.51,16.79-2,25.2-.26,4.15.06,8.34,0,12.51,0,2.42-.16,4.84-.25,7.27-1.75-4.62-3.46-9.25-5.28-13.85a10.14,10.14,0,0,0-1.6-2.16L813.29,652a33.09,33.09,0,0,0,2.22-5.1C816.36,643.58,814.39,641.34,812,639.38Z"/><path class="cls-8" d="M365.92,382.79c-4.92-6.79-7.24-14.62-8.49-22.72-2.34-15.12,2.54-27.49,15-36.67,2.32-1.71,4.63-3.45,6.95-5.17,10.43-2.11,20.91-3.94,31.6-3,6.74.61,12.32,4,17.73,8.19-7.75,6.27-3.6,14.54-3.86,22.56-6-5.82-12.4-6.73-19.19-2.21-8.47,5.65-6.16,13.53-3.87,21.76-4.85-1.91-9.38-2.14-13.4.51a18.29,18.29,0,0,0-6,6c-3.39,6.23-1.3,12.73,5.44,18.76-1.77,1.55-3.43,1.44-5.28.08q-5.16-3.79-10.46-7.38c-1.34-.91-2.72-2.42-4.59-.87Z"/><path class="cls-9" d="M760.61,237.12c.6,4,1.67,8,1.71,12a45.91,45.91,0,0,0,6.68,24.1c7.36,12,15.86,23,26.57,32.26,5.13,4.41,11.34,6.75,17.6,9,4.27,1.54,8.43,3.37,12.72,4.84,2.6.89,5.35,1.34,8,2-5.25,2.59-10.53,5.11-15.73,7.79-8,4.13-15.88,8.37-23.82,12.55-.55.29-1.11.53-1.82.87-1.57-3.05-3-6-4.6-8.91-3-5.39-5.88-10.93-9.36-16-10.25-15-20.94-29.69-31.12-44.73-6.56-9.68-12.54-19.77-18.75-29.69a17.43,17.43,0,0,1-1-2.47Z"/><path class="cls-13" d="M691.45,737.69c-2.74,1-5.4,2.3-8.22,2.91-10.33,2.23-20.67,4.48-31.33,4.34a14.56,14.56,0,0,1-3.24-.18c-2.08-.49-2.38.54-2.15,2.2l-10.44-2.06-.58.59c.75.9,1.34,2.18,2.31,2.62a15.61,15.61,0,0,0,5.93,1.77c9.68.27,19.37.27,29,.37a.52.52,0,0,0,0,.25c1.5.33,3,.58,4.5,1,.61.19,1.43.78,1.51,1.29a2.1,2.1,0,0,1-1.09,1.64,30.36,30.36,0,0,1-6.78,2.62c-8.45,1.57-17,2.88-26.16,1,0,3.29-.16,6.5,0,9.69a228.34,228.34,0,0,0,7.47,46.91c.43,1.56,1.07,3.07,1.61,4.6-4.21,3.75-6.93,8.23-7.3,14.22a46.14,46.14,0,0,1-1.92-5.47q-5-22.73-9.82-45.49c-2.31-10.78-3.8-21.67-3-32.71s1.93-22.26,3.16-33.36c1.54-13.89,3.32-27.76,5-41.63,0-.36.15-.7.33-1.5l14.08,2.41c-1.22,15.27-2.43,30.54-3.62,45.52,2.36,1.26,4.78,2.42,7,3.82,1.38.85,1.42,2-.41,2.38-2.43.46-4.92.66-7.79,1-1.57,2.7-1.16,3.61,2.35,3.77,7.94.36,15.88.94,23.82,1,6.07,0,12.13-.63,18.2-.85a18.28,18.28,0,0,1,4,.78l.15.85-2.89,2.47c-3.89.14-7.8,0-11.65.45-11.28,1.36-22.55,2.51-33.91,1.26-3-.33-5.9-1-8.86-1.4a7.31,7.31,0,0,0-2.62.72c.47.87.74,2,1.47,2.55a9.55,9.55,0,0,0,3.55,1.27,71,71,0,0,0,28.12,0C678.09,740.1,684.78,738.94,691.45,737.69Z"/><path class="cls-14" d="M587.7,709.6c3.78,1.51,7.63,2.85,11.29,4.61,1.46.7,2.47,2.33,3.68,3.54-1.59.84-3.18,2.4-4.76,2.39-5,0-10.09-.68-15.13-1.09-.44,0-.87-.11-1.55-.19-.08.91-.14,1.7-.21,2.48-3.12-.57-6.22-1.21-9.35-1.66-.63-.09-1.37.52-2.06.8.42.62.71,1.46,1.29,1.81a6.57,6.57,0,0,0,2.83.89q10.29.63,20.58,1.09a8.58,8.58,0,0,0,2.5-.66c3.81.77,7.65,1.42,11.41,2.39,1.15.29,2.09,1.45,3.12,2.21-.89.82-1.67,2.15-2.7,2.38a141.93,141.93,0,0,1-15.15,2.75c-4,.43-8.11.08-12.27.08-.09.93-.2,1.54-.21,2.15,0,13.17-.33,26.34,0,39.5.15,6.49,1.38,12.95,2.13,19.42a26.35,26.35,0,0,0-3.84-2c-4-1.3-7.59.38-9.71,4.44a11,11,0,0,1-2,3.19c-.8-6.44-2-12.86-2.31-19.31-1.63-37-1.07-73.88,4.11-110.61.68-4.83,1-9.7,1.56-14.94l11.16,4.41q-.52,22.44-1,44.89c-.08,3.77,0,3.77,3.81,4.25Zm9.47,6.17c-1.27-.28-2.32-.52-3.38-.73-4.24-.85-8.48-1.77-12.75-2.46-.84-.13-1.83.64-2.75,1,.71.67,1.36,1.83,2.14,1.94C586,716.24,591.5,717.38,597.17,715.77Z"/><path class="cls-12" d="M514.87,261.4c1.57,7.18,2.85,14.43,4.76,21.51,4.71,17.37,14.87,31.31,27.91,43.4,9,8.35,19.26,14.78,30.72,20.4-.72-2.52-1.49-4.61-1.89-6.77-.57-3.09-1.33-6.25-1.19-9.35.34-7.91,5.71-12,12.17-15.35,4.73-2.43,9.68-4.75,13.77-8.06a37.85,37.85,0,0,0,14-24.5,10.39,10.39,0,0,0,.11-1.36,8.21,8.21,0,0,0-.12-.91l-11.48.81,13.32-3.74c1.77,2.21,1.65,5.42.67,8.32a143.1,143.1,0,0,1-7.37,19,26.52,26.52,0,0,1-7.94,8.75c-4.86,3.61-10.28,6.47-15.46,9.64-1.4.85-2.83,1.63-4.2,2.52-2.84,1.86-3.86,4.48-3.81,7.9a36.41,36.41,0,0,0,5.79,19.85c2,3.16.71,6.74-3.06,7.42a20.85,20.85,0,0,1-7.79-.21C541.67,354,514.21,328,509,293.26c-.87-5.83-1.09-11.76-2-17.58-.8-5,1.27-8.6,4.66-11.79C512.64,263,513.8,262.23,514.87,261.4Z"/><path class="cls-13" d="M590.09,416.54a52.66,52.66,0,0,1,8.81,23.33c2.63,22.28-4.64,41.68-16.95,59.61-1.67,2.42-2,4.23-.05,6.69a35.69,35.69,0,0,0,4-1.12c9.29-3.82,18.5-3.31,27.92-.26,11.21,3.63,22.47,7.25,33.92,10,11.17,2.68,22.57,4.46,33.94,6.23,8,1.25,15.9-.61,23.59-2.89a10.18,10.18,0,0,1,7.39.14c-4.28,4.06-8.48,8.19-12.9,12.09a5.1,5.1,0,0,1-3.75.69c-6.28-1-12.5-2.27-18.78-3.28-12.63-2-25.4-3.42-37.89-6.09-8.45-1.81-16.51-5.41-24.77-8.13-7.15-2.35-14.31-4.71-21.54-6.76a8.59,8.59,0,0,0-5.25.73c-3.91,1.68-7.67,3.73-11.5,5.6-5.65,2.77-7.19,3.1-9.8-4.28-.36-1-.58-2.09-.87-3.14.07-.16.09-.4.21-.47a11.59,11.59,0,0,0,5.34-5.56c1.92-4.4,5-8.36,6.45-12.88,4.36-13.65,8.53-27.39,12-41.29,2.18-8.65,2-17.66.58-26.55C590.1,418.16,590.13,417.34,590.09,416.54Z"/><path class="cls-15" d="M813.29,652l1.08,3.44c-1,5,0,9.81,1.57,14.45,2.61,7.57,5.56,15,10.83,21.23a13.21,13.21,0,0,1,1.68,3.36c1.57,3.66,2.66,7.62,4.76,10.94,2.37,3.77,2.11,6.78-.08,10.45-2.54,4.27-6.24,5.39-10.7,5.4-1.1-1.7-1.91-3.71-3.35-5.06C805,703,795,687.13,787.27,669.6c4.4-2.13,8.86-4.15,13.18-6.43A36.57,36.57,0,0,0,813.29,652Z"/><path class="cls-15" d="M472.2,238.19a10.82,10.82,0,0,1,8.34-6.26c8.34-1.59,15.66,1.71,22.83,5.28.49.24.56,1.73.5,2.61-.48,7.87-1.28,15.73-1.49,23.6-.16,6,.4,11.94.64,17.91-5.41-4.82-11-9.45-16.2-14.5C478.78,259,472.87,249.89,472.2,238.19Z"/><path class="cls-12" d="M558,360.28a7.72,7.72,0,0,0,.86,2.1c7.2,8.86,13,18.41,15.15,29.84.07.41.45.76.68,1.14a13.66,13.66,0,0,0-3.59,10.22c-3.29,2.39-6-.51-8.89-.91-.25,0-.41-.88-.59-1.35-1.34-3.64-2.13-7.62-4.14-10.84a94.69,94.69,0,0,0-11.4-15.2c-3.1-3.25-7.42-5.39-11.32-7.84a64.63,64.63,0,0,0-6.46-3.15c1.08-3.83,2.46-7.23,6.73-8.41a6.49,6.49,0,0,0,1.57-1c3.11-2,6.09-3.12,9.73-.67,3.28,2.19,7,3.72,10.53,5.54l1.16.59Z"/><path class="cls-14" d="M524,448.55c2.27,11.73,9.16,20.39,18.51,27.2,7.82,5.7,16,11,23.93,16.47a16.57,16.57,0,0,1,2.1,2c-.38.9-.78,1.79-1.14,2.7-.58,1.46-1.5,1.74-3,1.3-15-4.35-29.89-8.85-44.21-15.15-6.11-2.69-12.37-5.07-18.76-7.67,3.74-.32,7.25-.18,10.53-1,10.19-2.52,12.5-8.19,7.3-17.32-1.2-2.09-2.77-4-4-5.76Z"/><path class="cls-14" d="M787.27,669.6C795,687.13,805,703,819.08,716.22c1.44,1.35,2.25,3.36,3.35,5.06-3.44-.62-7-.79-10.27-2-6-2.18-10.73-6.32-15.09-10.91-9.06-9.53-15.16-21-21.42-32.37a7.33,7.33,0,0,1-.28-2.5Z"/><path class="cls-13" d="M788.05,739.42a9.13,9.13,0,0,1-2-.56c-14.28-7.9-26.81-17.87-36.54-31.11a45.91,45.91,0,0,1-3.56-5.69,10.39,10.39,0,0,1-1.08-8,68.88,68.88,0,0,0,2-11.76c.2-2.34,1.13-3.17,3.24-3.27,1,0,2-.19,3-.3.38,1.68.84,3.34,1.13,5,1,5.52.87,11.4,4.33,16.13,4.64,6.35,9.6,12.47,14.52,18.62.51.64,1.6.83,2.42,1.23h0l.6,1.13-.09-.06.77.63,11.22,18Z"/><path class="cls-13" d="M670.29,436.54c-1.12.55-2.29,1.69-3.33,1.57q-23-2.57-45.89-5.44c-3.62-.44-4.21-.17-5.19,3.39-.85,3.06-1.49,6.19-2.62,9.14-1.31,3.43-3.5,4.31-6.9,3.36a63.6,63.6,0,0,0,1.3-23c-.46-3.65,1-5,4.55-4.35,11.23,2.07,22.48,4.08,33.67,6.3A90.39,90.39,0,0,1,670.29,436.54Z"/><path class="cls-10" d="M430.79,361.68l-17.16,15.61a32.92,32.92,0,0,1-10-22.46c-.23-3.89,1.9-6.47,5.18-8.24s6.88-2.6,9.94,0a73.93,73.93,0,0,1,8.32,8.82C428.5,357.13,429.39,359.28,430.79,361.68Z"/><path class="cls-16" d="M539,621.91c12,11.16,24.91,19.58,40.58,23.72-7,5.11-14.44,9-23.47,8.16a11.51,11.51,0,0,1-9.65-7.06A85.32,85.32,0,0,1,539,621.91Z"/><path class="cls-13" d="M542.67,228.9c5.67,10.94,14.15,19.53,23.84,26.76,9.44,7,19.34,13.82,31.58,14.81,5.24.42,10.6-.51,15.89-.91a32.16,32.16,0,0,0,4-.78c-5.07,6.44-11.92,8.79-19.82,8.32-10.3-.61-19.29-4.81-27.54-10.71A74.92,74.92,0,0,1,543.54,232,29.81,29.81,0,0,1,542.67,228.9Z"/><path class="cls-16" d="M472.2,238.19c.67,11.7,6.58,20.78,14.62,28.64,5.18,5.05,10.79,9.68,16.2,14.5.6,4.07,1.19,8.15,1.85,12.62a20.84,20.84,0,0,1-1.91-.86c-13.82-8.61-24.27-20.14-30.26-35.41-2.26-5.75-3.42-11.7-1.35-17.83A11.31,11.31,0,0,1,472.2,238.19Z"/><path class="cls-17" d="M668.4,322.89c.23-.14.54-.22.68-.42,1.63-2.32,3.67-3.51,6.53-2.45s4.26,3.45,4.58,6.48c.42,4-1.31,7.23-3.34,10.4-4.05,6.31-9.2,11.48-16,14.76-5.1,2.46-9.54,1.5-12.46-2.27,12-4.21,16.53-14.15,19.58-25.27C668.1,323.7,668.26,323.3,668.4,322.89Z"/><path class="cls-13" d="M530.16,182c-1.62,3.9-3.4,7.73-4.81,11.71-4.94,14-10.24,28-11.27,42.95-.43,6.18.42,12.44.68,18.67l-8.35,6.41c.53-7.54.5-14.54,1.6-21.36,1.73-10.75,3.83-21.46,6.48-32,2.51-10,8.69-18.1,15-26C529.62,182.15,529.93,182.09,530.16,182Z"/><path class="cls-16" d="M496.18,469.27l3.34-21.13c8.65,1.54,14.74,5.57,17.71,13.62,1.6,4.36.64,6.27-3.57,8.11C507.91,472.37,502.34,471.3,496.18,469.27Z"/><path class="cls-16" d="M500.69,444.08l5.65-18.16c6.95.22,16.19,7.71,17.28,13.95a5.93,5.93,0,0,1-4.59,6.84C514.36,447.59,505.88,446.6,500.69,444.08Z"/><path class="cls-16" d="M671.87,835.54c1.57,4.69,3.13,9.38,5,14.88a64.65,64.65,0,0,1-6.9-2.12c-5-2.19-9.85-4.56-14.77-6.87a6.17,6.17,0,0,1-3.79-5.87c-.23-4.77.91-8.76,4.84-11.72l2.55,2.39C662.73,829.91,666.68,833.6,671.87,835.54Z"/><path class="cls-18" d="M410.13,379.8c-5.79,3.08-11.17,6-16.65,8.76a3.49,3.49,0,0,1-3-.33c-3.72-2.59-5.87-6.08-5.43-10.83.41-4.44,3.14-7,7-8.46,4.18-1.56,7.88-.45,10.89,2.71C405.32,374.07,407.42,376.68,410.13,379.8Z"/><path class="cls-18" d="M433.09,357.56c-1.21-3.44-2.75-6.81-3.53-10.35A100.43,100.43,0,0,1,428,334.82a11.07,11.07,0,0,1,.49-4.28c1.24-3.87,4-4.66,6.6-1.67,3.2,3.68,6,7.71,8.88,11.63a1.65,1.65,0,0,1,0,1.47c-3.12,5.25-6.3,10.47-9.47,15.69Z"/><path class="cls-10" d="M683,840.63c.46-4.82,1.58-9.49,5.15-13,3.92-3.79,10.53-2.43,13.21,3.12,2,4.15,2.76,8.91,4.07,13.39l-22-3.53A.38.38,0,0,0,683,840.63Z"/><path class="cls-16" d="M588.81,823.76c-5.82-2.31-11.09-4.18-15.21-8.24l-.19-.19c-2.68-3-2-15.53,1.17-18a4.09,4.09,0,0,1,3.44-.58,8.88,8.88,0,0,1,3.71,3C586.55,806.8,587,815.13,588.81,823.76Z"/><path class="cls-18" d="M775.51,719.78c-.82-.4-1.91-.59-2.42-1.23-4.92-6.15-9.88-12.27-14.52-18.62-3.46-4.73-3.37-10.61-4.33-16.13-.29-1.69-.75-3.35-1.13-5l7.81-1.78c1.73,15.13,7.26,28.72,14.29,41.8A4.73,4.73,0,0,1,775.51,719.78Z"/><path class="cls-16" d="M668.38,397.72c3,.38,4.06,1.56,4.63,5,.61,3.66,1.21,7.33,2,10.94a24,24,0,0,0,1.92,4.47c.9,2,.31,4.46-1.67,4.69-4.15.49-5.35,3.14-6,6.56a16.51,16.51,0,0,1-.8,2.3l-14-6.38c.7-.51,1.35-1.37,2.11-1.48,3.89-.54,7.81-.9,11.73-1.29,2.14-.22,4.29-.37,6.43-.55,0-.36,0-.72,0-1.09l-12.89-2c.39-.76.81-1.43,1.09-2.15,2-5,4-9.88,5.8-14.91C669.2,400.65,668.54,399.1,668.38,397.72Z"/><path class="cls-19" d="M737.36,843c3.08,4.81,3.8,5.31,8.14,5.82-12.47,3.56-25,6.6-38.17,5.62v-1.54c2.92,1.24,4,.66,4.87-2.37.54-2,1.22-3.92,1.84-5.88Z"/><path class="cls-17" d="M707.33,852.91v1.54l-5.44-.16L699.7,854l-3.8-.29-1.65-.28-2.71-.29-1.12-.22-2.16-.28-1.11-.26-2.16-.32-1.09-.27-1.73-.31c-.14-.62-.29-1.23-.43-1.85l.27-4.36.21-1.11.3-2.16c.28-.45.56-.9.85-1.35l22,3.53c.1.72.2,1.45.31,2.17l.25,1.1.31,2.17.26,1.1.21,1.1.6,1.08Z"/><path class="cls-16" d="M523.58,423.86c-3.17-.05-6.37,0-9.53-.22a41.47,41.47,0,0,1-6.08-1.49c3.51-7,6.91-13.78,10.35-20.66l7,6.28Z"/><path class="cls-18" d="M737.36,843,714,844.66a25.76,25.76,0,0,1,7.52-12.34c4.21-3.7,9.07-3.07,11.92,1.77C735.12,836.87,736.09,840,737.36,843Z"/><path class="cls-16" d="M608.23,816.39l3,11.23c-4.84-.62-9-1-13.17-1.72-4.52-.72-4.67-.82-4.46-5.29.16-3.5.81-7,1.24-10.44a27.37,27.37,0,0,0,2.8,1.65C601.13,813.38,604.68,814.87,608.23,816.39Z"/><path class="cls-19" d="M616.14,349.61c1.46.72,2.91,2,4.37,2.06,8.37.1,13.2-5.46,17.65-11.53.68-.93,1.43-1.83,2.15-2.74A30.71,30.71,0,0,1,622.06,356c-6.77,2.58-14.11-1.57-16.15-8.46-2.43-8.22-4.63-16.51-6.89-24.78a5.4,5.4,0,0,1,.14-1.81l.77-.05c.19.73.37,1.45.57,2.18,1.79,6.45,2.67,13.24,6.45,19a44.6,44.6,0,0,0,5.61,6.94C613.25,349.71,614.92,349.44,616.14,349.61Z"/><path class="cls-20" d="M668.38,397.72c.16,1.38.82,2.93.41,4.11-1.76,5-3.82,9.95-5.8,14.91-.28.72-.7,1.39-1.09,2.15l12.89,2c0,.37,0,.73,0,1.09-2.14.18-4.29.33-6.43.55-3.92.39-7.84.75-11.73,1.29-.76.11-1.41,1-2.11,1.48l-3.29-1c3.27-.05,4.24-2.85,5.25-5,2.87-6.14,5.32-12.48,8-18.71C665.16,398.87,666,397.06,668.38,397.72Z"/><path class="cls-20" d="M389.12,404.72c1.16-.07,2.43-.48,3.45-.14,15.11,5.06,30.18,10.23,45.25,15.39a7.21,7.21,0,0,1,2.09,1.3c-17.44-3.28-34.14-9.08-50.86-14.82C389.07,405.87,389.1,405.29,389.12,404.72Z"/><path class="cls-13" d="M650.61,318a6.15,6.15,0,0,1-.29-1.95c1.88-9.36,3.79-18.72,5.81-28.06a3.37,3.37,0,0,1,1.82-2.17c2.3-.75,4.63-.71,6.54,1.18-1.19,3.3-2.18,6.69-3.61,9.89-3,6.6-6.12,13.09-9.22,19.62A10,10,0,0,1,650.61,318Z"/><path class="cls-18" d="M619.66,819c2.77-6.64,8.44-9.5,15.22-11.54.87,4.09,1.73,8.1,2.58,12.12Z"/><path class="cls-16" d="M742.3,842q9.39-2.72,18.79-5.43c.95-.28,1.93-.46,2.9-.68,1.36,4.42,1.25,4.55-2.66,6.64-4.56,2.43-9,4.92-14.53,3.47C744.53,845.4,742.78,844.47,742.3,842Z"/><path class="cls-19" d="M619.66,819l17.8.58c.45,1.53.89,3.05,1.36,4.68l-22.61,3.18Z"/><path class="cls-18" d="M608.23,816.39c-3.55-1.52-7.1-3-10.62-4.57a27.37,27.37,0,0,1-2.8-1.65c.74-2.82,1.45-6.22,4.61-6.7,2.92-.44,4.19,2.8,5.42,5A77.28,77.28,0,0,1,608.23,816.39Z"/><path class="cls-18" d="M671.87,835.54c-5.19-1.94-9.14-5.63-13.1-9.31l-2.55-2.39c3.51-3.58,6.43-3.77,9.24.17C668,827.56,669.77,831.67,671.87,835.54Z"/><path class="cls-18" d="M384.1,407.61c-4.78-6.27-9.58-12.52-14.33-18.82a20.3,20.3,0,0,1-1.52-2.84,64.28,64.28,0,0,0,16.68,11.43C384.66,400.63,384.38,404.12,384.1,407.61Z"/><path class="cls-18" d="M523.58,423.86l1.74-16.09c2.4,1.68,5.1,3.67,4.46,6.76C529,418.25,528.2,422.47,523.58,423.86Z"/><path class="cls-19" d="M584.07,329.65c-.65,6.14,2.56,11.38,4,17,.73,2.88,1.56,5.75,2,8.67.15,1-.72,2.21-1.12,3.32,1-2.7.34-5.09-1.18-7.42A31.09,31.09,0,0,1,582.58,333C582.61,331.88,583.55,330.77,584.07,329.65Z"/><path class="cls-2" d="M626.25,257.43c6.26-2.21,12.31,1,14.49,8.19-1.4-1.15-2.9-2.2-4.17-3.47a11.45,11.45,0,0,0-10.47-3.26Z"/><path class="cls-19" d="M647.94,332.51q-1.7,5.87-3.4,11.73c-2-.94-2.62-2.36-1.41-4.3C644.7,337.44,646.34,335,647.94,332.51Z"/><path class="cls-19" d="M799.34,372.44c-3-1.26-4-4-4.57-6.84-.43-2.19-.5-4.45-.73-6.67Q796.68,365.68,799.34,372.44Z"/><path class="cls-5" d="M837,320.16l10-5c.19.37.38.74.56,1.11l-10.13,5.19Z"/><path class="cls-18" d="M365.92,382.79l1.57-.08.27,2.74Z"/><path class="cls-19" d="M699.7,854l2.19.28Z"/><path class="cls-20" d="M389,410.54c0,.72,0,1.45,0,2.18C389,412,389,411.26,389,410.54Z"/><path class="cls-19" d="M694.25,853.44l1.65.28Z"/><path class="cls-19" d="M681.74,849.64c.14.62.29,1.23.43,1.85C682,850.87,681.88,850.26,681.74,849.64Z"/><path class="cls-5" d="M763.11,337.85l1,2.24-.25.21-1.06-2.2A3.47,3.47,0,0,1,763.11,337.85Z"/><path class="cls-19" d="M690.42,852.93l1.12.22Z"/><path class="cls-19" d="M707.33,852.91l-.6-1.08Z"/><path class="cls-19" d="M687.15,852.39l1.11.26Z"/><path class="cls-19" d="M683.9,851.8l1.09.27Z"/><path class="cls-19" d="M706.52,850.73l-.26-1.1Z"/><path class="cls-19" d="M706,847.46c-.08-.37-.17-.73-.25-1.1C705.78,846.73,705.87,847.09,706,847.46Z"/><path class="cls-19" d="M682.22,844.17l-.21,1.11Z"/><path class="cls-19" d="M683.37,840.66c-.29.45-.57.9-.85,1.35.15-.46.29-.92.44-1.38A.38.38,0,0,1,683.37,840.66Z"/><path class="cls-5" d="M762,335.16l.57,1.61-.28.25-.54-1.63Z"/><path class="cls-20" d="M649.57,423.82l1.52.39Z"/><path class="cls-9" d="M794,660.47l1.7-.64Z"/><path class="cls-20" d="M389.61,395.85l-.49.92Z"/><path class="cls-5" d="M762.82,338.1l-.57-1.08.28-.25c.2.36.39.72.58,1.08A3.47,3.47,0,0,0,762.82,338.1Z"/><path class="cls-6" d="M558,360.34l-1.16-.59Z"/><path class="cls-13" d="M531.35,180.41l-.73,1Z"/><path class="cls-13" d="M589.68,415.35c.14.4.29.81.43,1.22C590,416.16,589.82,415.75,589.68,415.35Z"/><path class="cls-5" d="M765.55,343.38l-.07.22a2,2,0,0,1-.24-.26s.11-.11.17-.17Z"/><path class="cls-18" d="M776.1,720.9l-.6-1.13Z"/><path class="cls-5" d="M760.63,333.2l-.41-.75.33-.16.3.72Z"/><path class="cls-5" d="M760.85,333l.55,1.08-.26.22-.51-1.12Z"/><path class="cls-5" d="M764.13,340.09l.42.76-.32.17-.35-.72Z"/><path class="cls-5" d="M761.4,334.09l.56,1.07-.25.23c-.19-.36-.38-.72-.56-1.09Z"/><path class="cls-13" d="M788,739.46a.88.88,0,0,1,.22.1s0,.1,0,.16c-.06-.1-.11-.2-.16-.3Z"/><path class="cls-18" d="M776.78,721.47l-.77-.63Z"/><polygon class="cls-5" points="764.83 342.2 764.78 342.03 764.92 342.05 764.83 342.2"/><path class="cls-13" d="M531.9,179.8l-.58.65Z"/><path class="cls-13" d="M530.65,181.38l-.51.62Z"/><path class="cls-19" d="M589,358.64l-.46.57Z"/><path class="cls-7" d="M16,643l-.32-.55.69.14Z"/><path class="cls-18" d="M368.29,386l-.59-.61Z"/><path class="cls-21" d="M557.09,2.09l1-.33-.85,1.13C557.17,2.62,557.13,2.36,557.09,2.09Z"/><path class="cls-17" d="M930.9,413.83c4.59-1.2,6.32.38,5,4.92a61.49,61.49,0,0,1-3.72,9.33c-5.67,11.69-11.61,23.24-17.15,35-3.21,6.8-5,14.07-3.85,21.68a10.11,10.11,0,0,0,2.34,4.69c2,2.34,4.55,4.23,6.48,6.61a15.91,15.91,0,0,1,3.08,5.9c.64,2.57-1.08,4.12-3.64,3.41a98.35,98.35,0,0,1-13.95-4.53c-5.9-2.65-8.6-7.86-9-14.21a43.25,43.25,0,0,1,4.17-21.21c6.62-13.92,13.87-27.55,21-41.24.86-1.66,2.49-2.91,3.76-4.35-.65,1.66-1.18,3.37-2,5-4.91,10.13-9.89,20.22-14.81,30.34-1,2.14-1.94,4.34-3.1,7,.84-.29,1.32-.31,1.44-.52C915.51,445.94,924.32,430.44,930.9,413.83Z"/><path class="cls-3" d="M922.14,353.26c-6.14-.44-12.1-1.19-17.74-4.17-7.94-4.18-16.34-7.46-24.22-11.73-8.72-4.71-15.58-11.82-22.11-19.16-3.29-3.69-3.86-9.16-1-12.88,6.37-8.12,13.14-15.92,19.79-23.83.26-.31.88-.32,1.33-.47-.48.73-.91,1.5-1.45,2.18-5.72,7.25-11.5,14.45-17.17,21.74a29.4,29.4,0,0,0-2.38,4.39l.75.49,6.88-6.21a6.74,6.74,0,0,1-.42,1.77c-1.19,2.17-.8,4.17.45,6.16a22.81,22.81,0,0,0,10.34,8.91c8.19,3.65,16.36,7.37,24.58,10.95,7.85,3.43,15.27,7.48,21.69,13.28,2.13,1.92,5,3,7.13,4.93,1.78,1.6,3,3.85,4.44,5.81l-3.34-1-50.18-22.2a4.29,4.29,0,0,0,2,2.5c8.81,4.44,17.59,8.94,26.51,13.14C912.64,349.94,917.45,351.46,922.14,353.26Z"/><path class="cls-22" d="M930.9,413.83c-6.58,16.61-15.39,32.11-23.92,47.74-.12.21-.6.23-1.44.52,1.16-2.62,2.06-4.82,3.1-7,4.92-10.12,9.9-20.21,14.81-30.34.78-1.6,1.31-3.31,2-5h0c.23-.41.46-.82.68-1.23l5.26-9.86.7.31Z"/><path class="cls-22" d="M922.14,353.26c-4.69-1.8-9.5-3.32-14-5.44-8.92-4.2-17.7-8.7-26.51-13.14a4.29,4.29,0,0,1-2-2.5l50.18,22.2-1.66,1-.24.08-.24-.09-1.17-1-1.57-.13.06,0-2.8-1Z"/><path class="cls-22" d="M864.87,303.61,858,309.82l-.75-.49a29.4,29.4,0,0,1,2.38-4.39c5.67-7.29,11.45-14.49,17.17-21.74.54-.68,1-1.45,1.45-2.18l0-.07.86-.78v0l.56-.56v0l.57-.55v0l.6-.53,0,0,1-.7,0,0,.66-.46,1-.07c-1.9,3-3.8,5.93-5.72,8.88-1.16,1.8-2.36,3.57-3.54,5.36v0l-.71,1,0,0-.49.63,0,0-.67.58-5.68,7.58-.64.71,0,0-.72,1,0,0-.51.61Z"/><path class="cls-19" d="M874.15,291.65c1.18-1.79,2.38-3.56,3.54-5.36,1.92-3,3.82-5.92,5.72-8.88l-.06,0,.25-.1.26,0c.32,1.06,1.25,2.65.87,3.09C881.33,284.31,877.71,288,874.15,291.65Z"/><path class="cls-13" d="M872.39,487.3c3.46-2.29,6.86-4.72,10.43-6.83,1.9-1.12,4.11-1.65,5.81.66l-.49.5a26.37,26.37,0,0,0-4.37,1.1c-3.69,1.6-7.31,3.38-10.95,5.09C872.67,487.65,872.53,487.47,872.39,487.3Z"/><path class="cls-5" d="M928.08,355.38l1.66-1,3.34,1h0l.4.53,1.31,1.1-.25.57L933,357l-.75-.41Z"/><path class="cls-3" d="M922.12,353.25l2.8,1Z"/><path class="cls-3" d="M924.86,354.25l1.57.13v.67Z"/><path class="cls-22" d="M883.86,277.38l-.26,0-.25.1c.12-.32.23-.64.35-1l.23.08Z"/><path class="cls-5" d="M926.44,355.05v-.67l1.17,1Z"/><path class="cls-13" d="M864.1,491.55l1.11-.51.27.3-1.1.54Z"/><path class="cls-13" d="M867.43,490l1.09-.52.26.3-1.1.53C867.6,490.17,867.51,490.07,867.43,490Z"/><path class="cls-13" d="M868.52,489.44l1.08-.56.28.32-1.1.54Z"/><path class="cls-13" d="M869.6,488.88l1-.58.33.36-1.1.54Z"/><path class="cls-13" d="M871.34,487.91l1-.61.43.52-1.09.53Z"/><path class="cls-13" d="M866.33,490.5l1.1-.53.25.3-1.1.54C866.5,490.7,866.41,490.6,866.33,490.5Z"/><path class="cls-3" d="M879.06,280.17l-.86.78Z"/><path class="cls-19" d="M873.45,292.63l.71-1Z"/><path class="cls-13" d="M865.21,491l1.12-.54c.08.1.17.2.25.31l-1.1.53Z"/><path class="cls-17" d="M926.08,418.6c-.22.41-.45.82-.68,1.23Z"/><path class="cls-3" d="M865.34,303.05l.72-1Z"/><path class="cls-3" d="M881.75,277.92l-1,.7Z"/><path class="cls-3" d="M880.17,279.1l-.57.55Z"/><path class="cls-5" d="M836.07,322.38a.35.35,0,0,0-.08-.26l.19,0Z"/><path class="cls-3" d="M864.86,303.62l.51-.61Z"/><path class="cls-3" d="M882.38,277.48l-.66.46Z"/><path class="cls-3" d="M866,302.07l.64-.71Z"/><path class="cls-19" d="M872.35,293.78l.67-.58Z"/><path class="cls-19" d="M873,293.23l.49-.63Z"/><path class="cls-3" d="M880.76,278.59l-.6.53Z"/><path class="cls-3" d="M933.45,355.94l-.4-.53Z"/><path class="cls-13" d="M870.65,488.3l.69-.39.39.44-.75.31Z"/><path class="cls-22" d="M932.26,356.59l.75.41Z"/><path class="cls-3" d="M879.61,279.63l-.56.56Z"/><path class="cls-4" d="M706.51,319.75c-1.15,1.76-2.19,3.61-3.49,5.26-3.26,4.13-6.64,8.15-10,12.23-7,8.64-16,14.68-26.11,19a14.92,14.92,0,0,1-5.51,1.14c-.79,0-1.61-1.28-2.41-2a23.28,23.28,0,0,1,2.35-1.16c1.44-.52,3-.8,4.36-1.43A71.12,71.12,0,0,0,689,336.56c4.86-5.26,9.79-10.46,14.71-15.66a21.15,21.15,0,0,1,2.11-1.76Z"/><path class="cls-4" d="M677.46,301.48,688,266.75c2.71,5.37-4.43,31.72-9.64,35Z"/><path class="cls-17" d="M694.23,299.52c-.39,3-1.24,5.14-3.56,6.34a4.43,4.43,0,0,1-6.61-3.93,15.61,15.61,0,0,1,1.83-6.94c1.5-2.89,4.92-2.85,6.58-.06A24.86,24.86,0,0,1,694.23,299.52Z"/><path class="cls-3" d="M763.63,642.88c-4.79,1.61-9.5,3.51-14.38,4.77-13.74,3.56-27.78,5.17-41.92,6.3-19.85,1.59-39.14-1.24-58.06-6.85a78,78,0,0,1-23.16-10.7,13.45,13.45,0,0,1-2.38-1.81c-.55-.62-1.29-1.81-1.05-2.23A3.06,3.06,0,0,1,625,631a139.15,139.15,0,0,1,15.71,1.2c12.27,2,24.42,4.69,36.7,6.54a131.85,131.85,0,0,0,33.68,1q18.24-2,36.42-4.53c4.39-.61,8.67-1.95,13-2.95,3.15-.72,6.19-1.94,9.58-.77,1.16.4,2.68-.06,4-.34s2.34-.14,2.58,1.46c-.57.25-1.13.55-1.71.75-15.67,5.57-32,8.38-48.37,10.39-11.83,1.46-23.91.93-35.87,1.29-1.14,0-2.28.15-3.41.23l0,.72a22.28,22.28,0,0,0,2.26.31c6,.2,12,.62,18,.51,13.06-.22,26.13-.48,39.17-1.19C752.4,645.27,758,643.81,763.63,642.88ZM686.11,646l.74-.47-.76-.53h-7.57v.54Z"/><path class="cls-20" d="M763.63,642.88c-5.63.93-11.23,2.39-16.89,2.7-13,.71-26.11,1-39.17,1.19-6,.11-12-.31-18-.51a22.28,22.28,0,0,1-2.26-.31l0-.72c1.13-.08,2.27-.19,3.41-.23,12-.36,24,.17,35.87-1.29,16.37-2,32.7-4.82,48.37-10.39.58-.2,1.14-.5,1.71-.75a35.17,35.17,0,0,1,5.05-.82c.81,0,2.15.58,2.34,1.19a3,3,0,0,1-1.07,2.44,15.49,15.49,0,0,1-4,2.14C773.87,639.37,768.74,641.1,763.63,642.88Z"/><path class="cls-23" d="M733.09,664.43a4.52,4.52,0,0,1,1.11-.66c11.1-3,22.23-5.89,33.31-9,5.24-1.46,10.36-3.34,15.56-4.94,3.64-1.13,7.3-2.19,11-3.1.8-.19,1.79.4,2.7.62-.32.88-.41,2-1,2.58a11.22,11.22,0,0,1-3.42,2.14c-11.94,5-24.06,9.25-37,10.63-6.46.68-12.87,1.74-19.31,2.56a12.85,12.85,0,0,1-2.81-.23C733.14,664.85,733.12,664.64,733.09,664.43Z"/><path class="cls-20" d="M471.62,453.13c-5-1.4-10-2.68-15-4.21-16.82-5.19-33.6-10.5-50.42-15.68-4.25-1.31-8.59-2.31-12.88-3.48a7.25,7.25,0,0,1-2.5-1c-.54-.41-.75-1.27-1.1-1.93a6,6,0,0,1,1.85-.79,8.48,8.48,0,0,1,2.41.39,527,527,0,0,1,73.07,23.31c1.7.67,3.28,1.63,4.91,2.46Z"/><path class="cls-20" d="M436.6,462.75c-6.53-1.8-13.12-3.42-19.58-5.45-9.17-2.87-18.25-6-27.35-9.12a23,23,0,0,1-4.16-2c-.42-.25-.54-1-.79-1.55a6.73,6.73,0,0,1,1.62-.7,3.73,3.73,0,0,1,1.59.29q22.1,7.63,44.17,15.33a35.53,35.53,0,0,1,4.74,2.46Z"/><path class="cls-20" d="M481.48,388.2c-1.47-.48-3-.9-4.41-1.44q-18.63-6.86-37.25-13.75a28.86,28.86,0,0,1-4.95-2.19c-.67-.41-.86-1.59-1.27-2.42.87-.22,1.87-.83,2.58-.58,7.52,2.63,15.07,5.23,22.47,8.19,6,2.39,11.77,5.22,17.59,8,2,.94,3.78,2.26,5.67,3.4Z"/><path class="cls-22" d="M457.2,521.41a35,35,0,0,1-5.05-.84c-6.47-2-12.9-4.2-19.34-6.33a3.68,3.68,0,0,1-1.47-.67,9.6,9.6,0,0,1-1.09-1.67,8,8,0,0,1,1.79-.82,3.2,3.2,0,0,1,1.59.28q11.89,4.51,23.76,9.08Z"/><path class="cls-22" d="M466.5,366.79c-7-2.2-14-4.37-20.9-6.65-.67-.22-1.12-1.14-1.67-1.73a13.55,13.55,0,0,1,2.27-1,2.7,2.7,0,0,1,1.59.23q9.6,3.94,19.17,7.93Z"/><path class="cls-22" d="M470.17,434.37c-3.57-1.24-7.15-2.46-10.72-3.72-2.31-.81-4.63-1.6-6.89-2.55-.49-.21-.7-1.06-1-1.61a16.42,16.42,0,0,1,1.59-.75,1.41,1.41,0,0,1,.81,0,62.81,62.81,0,0,1,16.63,7.61Z"/><path class="cls-22" d="M452.3,579.49c-6.75-2.28-13.65-4.33-20-7.65l.56-1.34C439.91,572.07,446.16,575.6,452.3,579.49Z"/><path class="cls-22" d="M463.22,472.8c-6-.77-11.76-2.11-16.47-6.23C453,466.69,458.21,469.42,463.22,472.8Z"/><path class="cls-22" d="M488.67,374.08c-3.74-1.66-7.5-3.25-11.18-5-.51-.25-.62-1.33-.91-2,.71-.19,1.61-.75,2.09-.5,3.61,1.92,7.14,4,10.69,6Z"/><path class="cls-1" d="M417.86,505.44l.5.19a.88.88,0,0,1,0,.14l-.44-.37Z"/><polygon class="cls-22" points="458.73 521.59 458.5 521.51 458.74 521.5 458.73 521.59"/><path class="cls-20" d="M240,591.19a29.44,29.44,0,0,1-3.38-1.05q-30-13.25-59.89-26.59c-.88-.39-1.42-1.52-2.12-2.31,1.07-.15,2.3-.72,3.18-.38q6.71,2.63,13.25,5.66,22.33,10.35,44.6,20.85a46.88,46.88,0,0,1,4.78,3Z"/><path class="cls-20" d="M250.34,522.37a51.17,51.17,0,0,1-4.89-1.67q-25-11.4-49.9-22.9a55,55,0,0,1-6.45-3.49c-.75-.48-1.1-1.61-1.64-2.44a26.74,26.74,0,0,1,3.18-.45,3.88,3.88,0,0,1,1.48.64c17.35,8.47,34.71,16.91,52,25.45a71.83,71.83,0,0,1,6.59,4.13Z"/><path class="cls-20" d="M276.86,433c-1.49-.56-3-1.07-4.46-1.7-15.8-6.87-32-12.89-46.92-21.63a7.34,7.34,0,0,1-1.65-.93,9.76,9.76,0,0,1-1.15-1.87c.69-.32,1.47-1,2-.88a26.38,26.38,0,0,1,5.65,1.87c9.84,4.86,19.63,9.82,29.44,14.74,4.78,2.4,9.59,4.75,14.34,7.21a26.16,26.16,0,0,1,3.3,2.4Z"/><path class="cls-20" d="M228.43,563.42c-2-.8-4.12-1.54-6.14-2.41-10.84-4.65-21.68-9.28-32.47-14-1.48-.65-3.76-.82-3.62-3.37,1.6.17,3.37-.07,4.76.56q16.86,7.61,33.58,15.52a30.61,30.61,0,0,1,4.27,3Z"/><path class="cls-20" d="M205.78,418.75c2.5.66,5.24.89,7.47,2.06,8.1,4.26,16,8.83,24,13.32a16.82,16.82,0,0,1,2.21,2c-1.23,0-1.78.17-2.17,0q-14.59-6.92-29.18-13.9c-1.48-.71-2.56-1.67-2.32-3.51Z"/><path class="cls-22" d="M263.15,474.67a235.34,235.34,0,0,1-38-17.12l.29-1.08a20.86,20.86,0,0,1,4.15.78c3.94,1.62,7.83,3.37,11.68,5.2,6.14,2.92,12.24,5.93,18.34,8.95,1.35.67,2.61,1.52,3.91,2.3Z"/><path class="cls-20" d="M226.38,539.81a14.58,14.58,0,0,1-2.75-.57c-8.26-3.46-16.5-7-24.74-10.47a3.06,3.06,0,0,1-1.18-.65c-.71-.87-1.32-1.82-2-2.74,1.06-.1,2.33-.64,3.16-.25,8.3,3.83,16.54,7.79,24.76,11.8a17.11,17.11,0,0,1,2.88,2.27Z"/><path class="cls-22" d="M254.07,498.93c-1.45-.55-2.93-1.05-4.35-1.66-6.75-2.91-13.51-5.81-20.2-8.84-.91-.41-1.5-1.55-2.23-2.35,1.12-.28,2.27-.9,3.34-.77a11.59,11.59,0,0,1,3.79,1.46c5.54,2.91,11.07,5.85,16.55,8.88a27.52,27.52,0,0,1,3.45,2.68Z"/><path class="cls-20" d="M214.14,480.19l-21.75-8.71c-.25-.1-.58-.18-.71-.38-.41-.62-.74-1.3-1.11-2,.69-.29,1.38-.6,2.07-.87a.85.85,0,0,1,.53.09c7.29,3.27,14.81,6.09,21.42,10.67Z"/><path class="cls-22" d="M195.82,441.3c6.52.55,11.85,3.88,17,7.71a52.58,52.58,0,0,1-17.58-6.39Z"/><path class="cls-5" d="M242.72,437l17.2,8.91-.45.91-17.39-8.54Z"/><path class="cls-5" d="M241.79,437.63l-1.59-.6a3.86,3.86,0,0,1,.35-.62c.51.15,1,.33,1.51.51Z"/><path class="cls-5" d="M261.47,447.32a2,2,0,0,1,.41-.1c.05,0,.11.11.16.17a2.09,2.09,0,0,1-.43.11S261.52,447.39,261.47,447.32Z"/><path class="cls-5" d="M260.79,446.82c-.07.05-.15.15-.21.15s-.13-.11-.2-.17.15-.15.21-.15S260.72,446.76,260.79,446.82Z"/><path class="cls-20" d="M691.45,737.69c-6.67,1.25-13.36,2.41-20,3.75a71,71,0,0,1-28.12,0,9.55,9.55,0,0,1-3.55-1.27c-.73-.51-1-1.68-1.47-2.55a7.31,7.31,0,0,1,2.62-.72c3,.35,5.89,1.07,8.86,1.4,11.36,1.25,22.63.1,33.91-1.26,3.85-.46,7.76-.31,11.65-.45l-2.56.75-1.32.42Z"/><path class="cls-20" d="M672.78,750.25c-9.68-.1-19.37-.1-29-.37a15.61,15.61,0,0,1-5.93-1.77c-1-.44-1.56-1.72-2.31-2.62l.58-.59L646.51,747c9.64,2,19.43,1.86,29.21,1.93,1.07,0,2.15.16,3.22.24,0,.3,0,.59,0,.88l-5.1.26Z"/><path class="cls-5" d="M679,750c0-.29,0-.58,0-.88H690.7Z"/><path class="cls-5" d="M672.78,750.25l1.07,0-1,.23A.52.52,0,0,1,672.78,750.25Z"/><path class="cls-13" d="M691.46,737.73l1.32-.42Z"/><path class="cls-2" d="M631.76,204.23l-10.85,17.44-.78-.21a10.82,10.82,0,0,1,0-2.61C621.1,215.17,627.86,206.14,631.76,204.23Z"/><path class="cls-2" d="M637,214.63c-2.47,2.35-4.91,4.75-7.45,7-.47.42-1.4.33-2.11.48.16-.72.07-1.75.52-2.11,2.69-2.16,5.51-4.17,8.28-6.24Z"/><path class="cls-20" d="M101.93,577c-1.75-.78-3.54-1.49-5.25-2.36q-16.73-8.46-33.42-17a26.58,26.58,0,0,1-4.85-3.42c-.46-.39-.39-1.41-.56-2.14.67-.13,1.42-.5,2-.32a23.66,23.66,0,0,1,4.51,1.86C75.27,559.69,86.18,565.79,97,572a50.93,50.93,0,0,1,5.43,4.11Z"/><path class="cls-20" d="M97,609.42A32.28,32.28,0,0,1,92.75,608q-19.68-9.59-39.28-19.34c-.85-.42-1.28-1.67-1.91-2.53,1-.09,2.31-.6,3.11-.2Q74.55,596,94.31,606.37a19,19,0,0,1,3,2.41Z"/><path class="cls-20" d="M124.86,557.45c-2.07-1.11-4.14-2.19-6.19-3.33-10.29-5.71-20.59-11.39-30.84-17.18-1.25-.71-3.71-1.38-2.61-3.38s3-.38,4.26.37q14,8.43,27.79,17.07c2.27,1.41,4.42,3,6.61,4.54.52.36,1,.8,1.46,1.2Z"/><path class="cls-20" d="M85.88,660.11a24.08,24.08,0,0,1-3.69-1.19q-14.34-7.21-28.63-14.55a10.49,10.49,0,0,1-2.59-2c-.36-.37-.32-1.12-.45-1.7a4.87,4.87,0,0,1,1.69-.26,8.47,8.47,0,0,1,2.26.92c9.25,5,18.5,10,27.71,15.11a36.07,36.07,0,0,1,4,3Z"/><path class="cls-20" d="M78,622.24a14.38,14.38,0,0,1-3.33-.83c-5.47-2.79-10.92-5.65-16.29-8.61-.75-.42-1.08-1.58-1.6-2.4.93,0,2-.32,2.76.07,5.6,2.93,11.13,6,16.66,9,.87.47,1.67,1.07,2.49,1.61Z"/><path class="cls-22" d="M88.56,647.3a41.71,41.71,0,0,1-15.22-7.07c3.83-1.37,12.74,3.2,15.18,7.11Z"/><path class="cls-2" d="M69,636.28c-4.6-2-9.22-4-13.81-6-.22-.1-.27-.59-.14-1.31A36.34,36.34,0,0,1,69,636.32Z"/><path class="cls-22" d="M90.45,592.17c-4.5-2.34-9.53-3.79-13-7.9C82.82,585.2,86.68,588.61,90.45,592.17Z"/><path class="cls-22" d="M63.49,579.65c-3.19-1.4-6.41-2.75-9.55-4.25-.4-.19-.43-1.17-.63-1.79.57-.09,1.34-.48,1.68-.24,2.86,2,5.65,4.2,8.46,6.32Z"/><path class="cls-22" d="M84.31,549.32c-2.15-1-4.35-2-6.42-3.16-.48-.28-.51-1.35-.75-2,.74-.09,1.69-.52,2.18-.21,2,1.28,3.84,2.78,5.75,4.2Z"/><path class="cls-22" d="M94.53,632c-2.3-1-4.63-1.89-6.87-3-.51-.26-.67-1.24-1-1.89.72-.12,1.61-.56,2.13-.29,2.33,1.21,4.91,2.26,5.69,5.21Z"/><path class="cls-22" d="M88.52,647.34c.19,0,.37,0,.14,0l-.1-.06Z"/><path class="cls-22" d="M63.45,579.69c.22,0,.44.07.15,0,.25.16.07,0-.11-.06Z"/><path class="cls-22" d="M94.49,632.07h.16l-.12,0Z"/><path class="cls-2" d="M69,636.32l0,0Z"/><path class="cls-22" d="M596.81,723.61a8.58,8.58,0,0,1-2.5.66q-10.29-.45-20.58-1.09a6.57,6.57,0,0,1-2.83-.89c-.58-.35-.87-1.19-1.29-1.81.69-.28,1.43-.89,2.06-.8,3.13.45,6.23,1.09,9.35,1.66,4.64.58,9.28,1.15,13.92,1.75A12.7,12.7,0,0,1,596.81,723.61Z"/><path class="cls-5" d="M587.7,709.6l-2.88-.77-.51-1.83a4.93,4.93,0,0,1,1.76-.16,40.44,40.44,0,0,1,6.58,2.76Z"/><path class="cls-2" d="M534.84,286.48c-3-2.23-5.06-8-4-11.39.24-.74,1-1.3,1.58-1.94.57.6,1.49,1.13,1.64,1.82C534.92,278.75,536.8,282.49,534.84,286.48Z"/><path class="cls-1" d="M597.38,257.28c0,4.94-3,7-6.79,5.57-4.7-1.74-9.05-7.3-8.78-12a8.25,8.25,0,0,1,2.44-5.3c1.69-1.47,4-.59,5.73.81C593.74,249.44,597,252.92,597.38,257.28Z"/><path class="cls-20" d="M871,488.66l.75-.31,1.09-.53c3.64-1.71,7.26-3.49,10.95-5.09a26.37,26.37,0,0,1,4.37-1.1,18.4,18.4,0,0,1-3,3c-3.41,2.08-6.9,4-10.43,5.88q-18.93,9.94-37.92,19.74a18.15,18.15,0,0,1-5.91,1.75c10.54-7.86,22.12-13.83,33.52-20.09l1.1-.54,1.1-.53,1.1-.54,1.1-.53,1.1-.54Z"/><path class="cls-22" d="M597.17,715.77c-5.67,1.61-11.22.47-16.74-.25-.78-.11-1.43-1.27-2.14-1.94.92-.36,1.91-1.13,2.75-1,4.27.69,8.51,1.61,12.75,2.46C594.85,715.25,595.9,715.49,597.17,715.77Z"/><path class="cls-5" d="M686.11,646l-7.6-.46V645h7.57C686.1,645.3,686.1,645.63,686.11,646Z"/><path class="cls-20" d="M686.11,646c0-.34,0-.67,0-1l.76.53Z"/></g></g></svg>