<svg xmlns="http://www.w3.org/2000/svg" viewBox="0 0 739.97 511.97"><defs><style>.cls-1{fill:#c7c6d5;}.cls-2{fill:#7d74fd;}.cls-3{fill:#0c0c0d;}.cls-4{fill:#09090d;}.cls-5{fill:#837afd;}.cls-6{fill:#0d0d10;}.cls-7{fill:#847bfd;}.cls-8{fill:#857cfd;}.cls-9{fill:#7a70f2;}.cls-10{fill:#101010;}.cls-11{fill:#3f3f3f;}.cls-12{fill:#6d6d6d;}.cls-13{fill:#fcfcfd;}.cls-14{fill:#fafafe;}.cls-15{fill:#f9f9fa;}.cls-16{fill:#fdfdfe;}.cls-17{fill:#7c72f7;}.cls-18{fill:#f7f7f7;}.cls-19{fill:#1b1b1b;}.cls-20{fill:#efeff1;}.cls-21{fill:#292929;}.cls-22{fill:#7b72f8;}.cls-23{fill:#fcfcfe;}.cls-24{fill:#fcfbfe;}.cls-25{fill:#8076fd;}.cls-26{fill:#070708;}.cls-27{fill:#fbfbfc;}</style></defs><title>Asset 3</title><g id="Layer_2" data-name="Layer 2"><g id="Layer_0_Image" data-name="Layer 0 Image"><path class="cls-1" d="M303.1.57l0-.57h3.82V.55Z"/><path class="cls-2" d="M534.67,197.52c7.12-2.28,14.35-4,21.9-3.48a23.4,23.4,0,0,1,3.68.7c3.78.86,7.55,1.81,11.34,2.59a3.94,3.94,0,0,0,2.65-.38c1.27-.84,2.93-1.85,3.28-3.1s-.61-3.06-1.6-3.94c-6.82-6-9.43-14.72-6.67-23.34A37.14,37.14,0,0,1,578,151.33c8.85-8.87,19.71-10.09,31-6.65,10.86,3.31,17.14,11.13,18.89,22.45a35.62,35.62,0,0,1-.83,16.41c-2.59,8.33-8.31,12.46-16.71,13.32-4.81.49-8.7,2.45-11.18,6.75-1.54,2.66-1.35,4.43.87,6.59,1.75,1.7,3.67,3.24,5.47,4.9a107.87,107.87,0,0,1,17.58,20.71c2.91,4.5,4.65,10.3,11.25,11.49,1.46-1.44,3.08-3.26,4.93-4.82,6.51-5.49,14.07-7.27,22.4-6,2.34.36,4.69.65,6.11-1.68s.69-4.69-1-6.52a35.7,35.7,0,0,0-5.93-5.12,8.47,8.47,0,0,1-4.07-7.24c-.37-11.09,1.69-21.41,9.88-29.56,8.35-8.31,19.52-10.33,28.35-5.28A28.93,28.93,0,0,1,705.81,192c6.22,11,6.46,22.24.81,33.62-1.91,3.84-4.71,5.87-9.06,5.54a9,9,0,0,0-1.37,0,6.64,6.64,0,0,0-6,5.15c-.48,2.26.95,4.68,3.64,6.11,2.08,1.11,4.16,2.23,6.27,3.27,9.91,4.88,15.63,13.28,19.48,23.22,4.35,11.25,6.66,23,8.07,34.93,1,8.45,2.45,16.86,3.23,25.33.34,3.78-.36,7.68-.77,11.51-2.25,21.16-12.18,38.78-25.62,54.67-16.62,19.66-37,34.7-59,47.75-32.07,19-66.47,32.57-102,43.37A572.14,572.14,0,0,1,462,504.87c-15,2.24-30,4.1-45.13,5.08-19.55,1.27-39.18,2.2-58.76,2-36.22-.4-72.06-4.58-107.16-13.95-25.78-6.87-50.06-17.07-72.61-31.57-12.94-8.32-23.46-18.51-30.84-31.94-6.17-11.22-8.88-23.16-7-36a6.72,6.72,0,0,0,0-1.22,16.48,16.48,0,0,0-2.16-.17c-23.6,1-45.67-5.13-67-14.57-8.2-3.64-16.16-7.81-24.22-11.78a10.55,10.55,0,0,1-2.46-1.69c-9.47-8.81-18.3-18.17-24.85-29.46a55.07,55.07,0,0,1-7.21-29.78c.32-12.19,1.75-24.17,7.45-35.13,3.48-6.67,7.6-13,11.44-19.49,1.06-1.8,2.25-3.53,3.18-5.39,3.31-6.66.45-12.88-6.79-14.73a43.26,43.26,0,0,0-6.72-1c-11.35-1-17.68-6.79-20.16-18-2.42-10.94-.63-20.46,7.87-28.37,4.44-4.14,10-5.06,15.46-6,13.25-2.34,23,3.87,31.09,13.44a38,38,0,0,1,5.42,8.75c2.38,5.22,5.8,7.06,10.69,4.34a82.62,82.62,0,0,1,29.35-9.43,29.09,29.09,0,0,0-.32-3.13c-.36-1.78-.9-3.52-1.27-5.29-1.33-6.41-3-7.65-9.49-8.72-3.88-.64-8-1.36-11.33-3.29-7.22-4.24-10.65-11.3-11.3-19.49-1.37-17.09,8.38-29.41,22.47-36.18,3.91-1.87,8.24-2.47,12.41-.55,7.44,3.43,14.87,7.06,20.4,13.28,8,9,10.13,19.65,7,31.26a18.23,18.23,0,0,1-2.67,5c-1.24,1.89-.79,3.24,1.49,3.44a4,4,0,0,0,2.8-.62c8.13-7.36,17.95-10.26,28.58-11.32,1.34-.13,3.42-1.41,3.61-2.43a6.38,6.38,0,0,0-1.49-4.82,35.49,35.49,0,0,0-7.35-6c-5.83-3.56-7.22-9.08-7.09-15.22.15-7.42,1.51-14.48,7.69-19.62,6-4.94,12.58-7.09,20.24-5,1.92.51,3.78,1.25,5.68,1.86,7.72,2.5,11,8.23,12,15.9a38.53,38.53,0,0,1-6.27,27.2,10.33,10.33,0,0,0-1.26,3c-.57,2.13.3,4,2.45,4,9.31.11,17.4,3.83,25.41,8a3.19,3.19,0,0,0,2.5-.28c2.18-1.12,4.24-2.46,6.38-3.65,4.25-2.39,8.52-4.73,12.84-7.13a31.92,31.92,0,0,1-15-19.61c-2.72-9.54-2.28-18.85,2.68-27.69a16.06,16.06,0,0,1,12.5-8.59c7-.92,14-1.42,20.12,3.18,8,6,11.21,14,10.35,23.8-.28,3.16-.82,6.29-1.14,9.45-.46,4.57-2.76,8.14-5.73,11.47a11.23,11.23,0,0,0-2.51,4.42c-1.16,4.6.88,7.39,5.64,8.34,4,.81,8,1.69,12,2.53.6,2.61,1.21,5.21,1.82,7.82l.17,1.06.39,1.67.16,1.05.38,1.68.16,1,.38,1.67.15,1.06q1,5.46,2.06,10.92l.15,1.08q1.81,9.27,3.65,18.55c0,.37.08.73.13,1.1l.45,2.74.11,1.07c.14.91.27,1.82.41,2.74l.1,1.09.45,3.27.14,1.62.42,3.29.13,1.62.43,3.85.09,1.07c.14,1.27.28,2.55.43,3.82l.12,1.63c.14,1.28.29,2.55.43,3.83,0,.36.07.72.1,1.08.15.91.29,1.83.44,2.74l.12,1.08.44,2.74.12,1.07.42,3.29c0,1.46.06,2.91.08,4.36.36,2.4.63,4.81,1.1,7.19.3,1.5.71,1.67,2.12,1.56l1,.34-.93,5.13c-.05.37-.09.73-.13,1.1l-.39,2.18-.12,1.07-.45,2.75-.11,1.08c-.13.91-.27,1.83-.41,2.74l-.13,1.62-.41,3.84c0,.72-.09,1.44-.13,2.16l-.45,3.83c0,.35,0,.71-.08,1.07-.15,1.1-.29,2.2-.44,3.3,0,.54-.08,1.08-.13,1.62l-.42,3.28-.09,1.07-.43,3.85c-.05.72-.09,1.43-.13,2.14l-.54,1.66a10.46,10.46,0,0,1-1.77-.35,38.3,38.3,0,0,0-25.63-.54c-16.94,5.39-27.81,25.23-23.44,42.52,1.32,5.25,3.15,10.47,8.15,13.33,3.25,1.86,4.56,3.8,3.49,7.57-1,3.6-1.46,7.36-2,10.24l-18.9-1a58.86,58.86,0,0,0-1.13-6.4c-.76-2.8-.09-5,1.53-7.35a42.23,42.23,0,0,0,4.4-8.69c1-2.57.06-5.08-2-6.92a6.32,6.32,0,0,0-7.13-.94c-1,.42-1.9.93-3.13,1.55,0-1.54,0-2.79,0-4-.16-4.44-.18-8.89-.63-13.3-.12-1.2-1.57-2.26-2.41-3.39-1,1-2.46,1.79-3,3a45.64,45.64,0,0,0-1.86,6.69,22,22,0,0,0-1.63-3.92c-.66-1-1.89-2.35-2.66-2.22-1,.16-2.13,1.45-2.7,2.53a20.31,20.31,0,0,0-1.26,4.07c-1.42-1.05-2.71-2.76-4.11-2.85-2.23-.16-3,2.1-3.27,4-.42,2.77-.55,5.57-.89,8.35a12,12,0,0,1-.73,2.42c-.51,1.49-1.4,2.94-1.54,4.46-.49,5.4,2.39,9.93,4,14.82a19.87,19.87,0,0,1,.53,7.39,19.6,19.6,0,0,1-1.69,5.71c-.73,1.78-1.81,3.41-2.66,5.14-.94,1.93-1.8,3.91-2.69,5.87l.82.58c1.83-1,4.71-1.59,5.34-3.1,3.11-7.48,6.48-15,2.53-23.46-1.82-3.91-2.43-8.39-3.67-12.88,3.84.29,4,.11,4-2.93v-9.74h.86a36.1,36.1,0,0,0,1.54,5.71c.5,1.12,1.78,1.9,2.71,2.82.65-1.12,1.68-2.18,1.86-3.37.47-3,.55-6,.78-9l.71-.08a71.11,71.11,0,0,0,2.37,6.76c.49,1.07,1.67,1.81,2.54,2.71.62-1.1,1.55-2.14,1.78-3.32a66.41,66.41,0,0,0,.74-6.93,6.2,6.2,0,0,1,.62,3.45c-.2,3.72-.55,7.44-.6,11.15,0,1.22.39,3,1.22,3.49s2.37-.39,3.51-.89c1-.44,1.74-1.37,2.72-1.77a15.3,15.3,0,0,1,3.21-.58c.13,1.27.73,2.73.31,3.78-1,2.43-2.7,4.56-3.58,7a17.93,17.93,0,0,0-1.14,7c.17,2.93,1.12,5.81,1.76,8.85a7.85,7.85,0,0,1-.84.48c-5.37,2.4-10.76,4.74-16.08,7.24-.71.33-1.07,1.42-1.59,2.17.82.55,1.62,1.5,2.47,1.56a8.44,8.44,0,0,0,3.64-.85c7.47-3.17,15-6.13,23.33-5.61,3.61.23,7.18.89,10.77,1.36,3,.41,4.36-.8,4.6-3.79.34-4.24.78-8.48,1.39-12.69.46-3.17.41-5.95-2.89-7.68a7.8,7.8,0,0,1-1.95-1.86c-6.57-7.44-7.93-16.32-6-25.56,3.8-18.52,18.27-28.4,37.08-25.89,2.43.32,4.87.54,7.3.84,2.13.27,3.06-.57,2.61-2.74l5,.75,2-14.8c-.06,4.35-.06,8.69-.19,13-.05,1.65-.22,3.08,1.38,4.35,5.55,4.38,8.8,10.26,10.54,17.05A52,52,0,0,1,307,356.5c-1,9.42-3,18.5-9.37,25.95-1.53,1.78-3.21,3.42-5,5.27a33.56,33.56,0,0,1,3,2.85c5,6.11,10,12.24,14.84,18.44,1.08,1.38,1.85,1.57,3.55.87a84.75,84.75,0,0,1,12.07-4.06c3.82-.93,7.81-1.19,12.12-1.79-.78-.93-1.42-1.55-1.9-2.27-2-3.11-4.52-6-5.91-9.4-7.29-17.64-4.69-34,7.4-48.66,8.1-9.86,19.5-12.88,31.38-12.95,7.45,0,14.3,3.82,19.89,9.13,19.91,18.93,16,54.38-7.52,68.73-.62.38-1.22.81-2.06,1.37l2.81,1.3c.91.41,1.84.78,2.75,1.2,15.66,7.22,27.05,19.3,37.17,32.81.26.35.18,1,.26,1.46l-10.19-9.27c.21,6.35,8.71,16.19,13.44,15.38-.78-1.79-1.49-3.42-2.19-5.05,1.68-1.85,3.37-3.69,4.41-4.83-1.2-2.54-2.48-4.19-2.73-6-.7-5.12-1-10.28-1.41-15.44-.92-11.69-1.46-23.41.08-35.08,2.82-21.26,9.28-41.59,16.14-61.81.66-1.94,1.4-3.85,2.1-5.78-2.4,2.53-6.23,3.09-7.82,6.59-1,2.08-4.07,1.68-5-.66-1.69-4.37-3.19-8.72-1.3-13.65a85.76,85.76,0,0,1,21.66-31.94c7.26-6.87,15.61-12.12,24.15-17.14a8.49,8.49,0,0,0,2.55-2c9.33-12.18,18.81-24.25,27.83-36.65,16.53-22.69,29-47.82,42.2-72.44,8.19-15.24,16.38-30.22,31.24-40.17.62-.42.81-1.49,1.2-2.25a5.88,5.88,0,0,0,1.67.82,22.74,22.74,0,0,0,3,0c-.36-1-.45-2.3-1.14-2.9-1.87-1.63-4-3-6-4.42l.1-4.17c3.07,2.47,6.21,4.86,9.14,7.48a5.84,5.84,0,0,1,1.23,3.19c.46,2.68-1,4.41-3.09,5.86-2.73,1.92-5.76,3.61-8,6a78,78,0,0,0-7.22,10.22c-11.94,18.45-23.22,37.26-33.69,56.62-11.59,21.42-25.91,41.17-40,61-7.51,10.52-15.05,21-25.6,28.76a4.52,4.52,0,0,0-1.44,1.61c-.58,1.3.06,1.67,1.29,1.31l.56.6c-3.32,4.76-6.83,9.4-9.9,14.32-1.66,2.65-2.45,5.83-3.82,8.68-3.07,6.36-6.86,12.43-9.3,19-11.77,31.77-17.46,64.82-19.76,98.51a15,15,0,0,0,.21,4.34c.19.79,1.15,1.4,1.76,2.09.68-.62,1.79-1.13,2-1.87a41,41,0,0,0,1-7A355.55,355.55,0,0,1,448.52,329c5.48-16.76,13.17-32,24.42-45.78,12.82-15.66,24.93-31.92,36.8-48.32C518.51,222.75,526.39,210,534.67,197.52ZM430.92,321.21v0c1.14-2.38,2.31-4.74,3.43-7.14q5.22-11.19,10.39-22.4a19.86,19.86,0,0,0,.66-2l-.68-.52a10.73,10.73,0,0,0-2.65,1.92,29,29,0,0,0-4.07,6.38c-2.16,5.47-4,11.07-5.8,16.69A54,54,0,0,0,430.92,321.21ZM277.48,193.61l.17.16-.2-.13a21.69,21.69,0,0,0-15.3-5.72c-10.77.31-18.42,5.86-23.78,14.89-6.35,10.69-6,23.75,1,32.52,5.22,6.55,12.08,11.15,19.26,15.28a3.21,3.21,0,0,0,1,.19l.47-.6c-.77-.68-1.48-1.44-2.31-2-5.22-3.75-10.72-7.19-14.21-12.85-6.37-10.34-6.29-20.72-.22-31.15,6-10.28,15.38-12.56,26.32-11.27C272.25,193.19,274.87,193.37,277.48,193.61Zm-220,93-.32-.31c.73-1.25,1.51-2.47,2.18-3.75,1-1.94,2.43-4.21.46-6s-4.25-.36-5.9,1c-3.65,3.12-7.24,6.33-10.6,9.76-2.35,2.41-4.28,5.23-6.46,7.94a74.31,74.31,0,0,0,.69-9.09c-.06-1.46-1.27-2.88-2-4.32-1.35.7-3.09,1.08-4,2.15A38.35,38.35,0,0,0,23,301.71c-.74,3.92-1.57,8,.51,11.7.6,1.07,2.37,1.48,3.6,2.19.46-1.16,1.26-2.3,1.32-3.47.17-3.69-.36-7.46.17-11.08a29.26,29.26,0,0,1,5.17-13.15c0,3.31-.33,6.55-.37,9.79,0,1.11.71,2.23,1.1,3.35a19.09,19.09,0,0,0,2.82-2c5-5,9.91-10.05,14.86-15.08l.35.35c-1.59,2.73-3.28,5.4-4.75,8.2-.69,1.31-1.51,3.18.3,4.05,1,.46,2.72-.05,3.79-.69,2.61-1.57,5-3.46,7.54-5.22l.3.3c-1.12,2.47-2.39,4.89-3.29,7.44-.33.94.19,2.19.33,3.3a11.88,11.88,0,0,0,2.9-.63c2.77-1.37,5.47-2.89,8.19-4.36-2,7.54-6.16,14-6.34,21.85a2.62,2.62,0,0,0,1.87-1c3.09-6.05,6.23-12.08,9.06-18.24.84-1.82,1.11-4.21-.8-5.81s-4.06-1.07-6.07.09a10.31,10.31,0,0,1-1.25.44c.81-1.95,1.74-3.46,2-5.09.21-1.19,0-3-.78-3.67a5.17,5.17,0,0,0-3.92-.69C60.14,284.86,58.84,285.88,57.48,286.58ZM263.69,451.8a12.55,12.55,0,0,1-2.14-.32c-9.15-2.92-17.94-1-26.59,2.11-1.07.38-2.49,1.78-2.47,2.68s1.46,2,2.42,2.86c.57.52,1.63.57,2,1.15,1.26,1.75,2.32,3.66,3.52,5.62-2.44,2.61-2.33,4.92,1.09,7a25.8,25.8,0,0,0,7.7,3.3c5.22,1.07,10.55,1.71,15.87,2.26,3.72.38,6.61,1.69,8.25,5.22.88,1.89,1.74,3.8,2.76,5.61a26.22,26.22,0,0,0,2.32,3c.86-1.09,1.28-1.93,1.09-2.6a88.05,88.05,0,0,0-3.18-10.32,7.36,7.36,0,0,0-5.94-4.32L253.8,472.3c-3.63-.58-7.12-1.5-10.05-4.13a19.65,19.65,0,0,1,5.83-.42c2.26.15,4.5.64,6.75.71.65,0,1.33-.91,2-1.4-.55-.61-1-1.45-1.67-1.78a19,19,0,0,0-2.91-.61c-3.48-1-6.95-2-10.42-3a115.62,115.62,0,0,1,13.24-.68c.74,0,1.47-.71,2.2-1.1a18.7,18.7,0,0,0-1.79-2,2.44,2.44,0,0,0-1.31-.26c-4.5-.38-9-.73-13.51-1.11-.73-.06-1.45-.2-2.84-.4a33.35,33.35,0,0,1,18.07-1.83c3.71.79,7.37,1.88,11.1,2.62,1,.19,2.14-.42,3.21-.66a10.6,10.6,0,0,0-1.09-3,11.69,11.69,0,0,0-2.67-2l.77-.86c1,.35,2,.64,3,1.07q6.61,2.87,13.2,5.79c2.76,1.23,3.63.86,4.41-1.79s1.54-5.4,2.53-8c3.42-9,7.45-17.58,15.29-23.74.62-.48.57-1.82.83-2.75-1.07-.22-2.47-1-3.16-.54a26.33,26.33,0,0,0-5.45,4.42c-5.74,6.16-8.63,13.75-10.52,21.81-.51,2.21-1.15,4.39-1.78,6.78a13.32,13.32,0,0,0-1.77-1.12c-6.72-2.68-13.42-5.4-20.21-7.88a3.45,3.45,0,0,0-3.2,1.06c-.51.92-.16,2.5.22,3.67.28.87,1.19,1.55,1.83,2.32ZM588.12,378l.15.16a12.7,12.7,0,0,1-1.23,2.34c-1.31,1.62-2.85,3.06-4.07,4.74-.48.65-.35,1.75-.49,2.64a23.9,23.9,0,0,0,2.4-.34c1-.23,2-.59,2.94-.89l.48.92c-2.27,2-4.66,3.94-6.73,6.16-.86.92-1.75,2.71-1.42,3.7,1.73,5.23,3.82,10.33,5.88,15.44a2,2,0,0,0,1.69.88c.45-.12.87-1,1-1.64a3.69,3.69,0,0,0-.49-1.79c-1.68-3.81-3.32-7.63-5.1-11.38-.83-1.76-1-3.12.81-4.4s3.52-2.85,5.25-4.33c2.62-2.24,2.38-4.49-.61-6a24.67,24.67,0,0,0,2.9-4.56c.52-1.37.78-3.33.14-4.45-.4-.71-2.66-.39-4.09-.47a5.77,5.77,0,0,0-1.34.22l-.24-.23c.63-2.1,3.3-4.25.85-6.36s-4.59.28-6.59,1.5c-2.42,1.49-4.68,3.26-7.63,5.36a23.73,23.73,0,0,0,1.38-4.18,4.14,4.14,0,0,0-.63-2.94c-.36-.41-2-.2-2.67.26a83.26,83.26,0,0,0-9.87,7.15c-3.36,3.06-5.84,6.93-4.65,11.83a119.41,119.41,0,0,0,3.63,11.63c.73,2.09,1.84,4,3,6.51-11-5.54-22.21-6.65-33.82-6.2-.48-3.16-.75-6.06-1.42-8.86a4.48,4.48,0,0,1,1.41-4.82c5.48-5.33,8.88-11.75,9.05-19.51.2-9.1-3.71-16.2-10.36-22.43-11.63-10.89-30.51-10.78-41.9-3.95-16.48,9.88-23.23,28.63-16.79,46.73,1.88,5.31,4.23,10.52,10,13a1.9,1.9,0,0,1,.89,1.43c0,7,1.41,6.7-5.47,9.69-.66.29-1.35.53-2,.81a85.55,85.55,0,0,0-27.7,18.41,31.91,31.91,0,0,0-4.34,6.2c-.26.43.15,1.58.6,2,.29.28,1.42.07,1.88-.3a32.48,32.48,0,0,0,2.64-2.73c9.72-9.86,20.45-18.19,33.78-22.67,4.9-1.64,6.19-3.55,5.9-8.72a22.22,22.22,0,0,0-.86-5.34,10.32,10.32,0,0,0-2.11-3c-1.88-2.29-4.34-4.27-5.63-6.84-5.74-11.51-5.53-26.15,4-36.93,8-9,17.77-12.88,29.61-11.54,6.81.78,12.22,4.36,16.81,9.29,6.11,6.59,8.5,14.26,5.29,22.8-1.39,3.69-4.18,6.9-6.6,10.13-1.47,2-3.47,3.61-3.12,6.35.5,3.87,1.16,7.72,1.76,11.57.43,2.73,2.06,3.94,4.78,4.33,10.22,1.48,20.41,3.16,30.62,4.67a38.45,38.45,0,0,0,5.37,0c.86-3.37-.38-6.12-1.49-8.88-1.48-3.69-3.13-7.33-4.37-11.11-.59-1.81-1.1-4.14-.45-5.77,2.4-6,7.24-9.84,13-12.73-1.16,3.06-2.69,5.89-4.06,8.79-.3.61,0,1.49,0,2.24.77-.05,1.7.15,2.26-.21,1.66-1.09,3.11-2.5,4.76-3.61,2.66-1.8,5.42-3.46,8.13-5.17l0,0c-1.8,2.57-3.66,5.1-5.36,7.74a10.6,10.6,0,0,0-.88,2.81,16.91,16.91,0,0,0,2.77-.77C582.2,380.92,585.15,379.42,588.12,378Zm3.29-52.35,0,0a21.06,21.06,0,0,1,.76-2.24c2.39-5.13,2.29-10-1.37-14.55-.91-1.13-1.71-2.35-2.58-3.51-8.81-11.68-8.5-23.86-1.83-36.28,2.66-4.94,7-8,12.2-9.92,4.73-1.74,9.94-.75,13.82,1a31.19,31.19,0,0,1,17.23,18.38,94.18,94.18,0,0,0,4.14,10.07c3.56,7.15,10.26,9.67,17.59,6.93-1,2.13-1.93,4.67-3.71,6-4.39,3.27-9.16,6-13.86,8.87-1,.62-2.07,1.3-.66,1.92,1.61.71,1.26,1.71,1.29,2.79.2,5.25.31,10.51.58,15.76.09,1.78.2,3.76,2.68,4.69,0-4.09.15-7.89-.05-11.68s-.75-7.54-1.16-11.41a14.08,14.08,0,0,1,2-.81,21.62,21.62,0,0,0,11-6.76c4.89-5.29,6.21-11.54,4.47-18.44-.17-.67-1.15-1.14-1.76-1.71a11.53,11.53,0,0,0-1.35,1.71c-.33.62-.38,1.4-.66,2.06-1.49,3.41-3.47,4.21-6.7,2.27a13.09,13.09,0,0,1-4.49-4.19,61.16,61.16,0,0,1-4.43-9.62,32.6,32.6,0,0,0-7.9-12.58c-5.49-5.19-10.95-10.66-19.63-9a2.1,2.1,0,0,1-.8-.13,22.24,22.24,0,0,0-23.75,10.93,36.24,36.24,0,0,0-3.79,28.62c1.51,5.67,4.66,10.38,8.12,15,1.9,2.51,3.29,5.2,2.09,8.36-9.06-4.82-18.64-6.1-29.11-5.46a102.33,102.33,0,0,0-.1-10.51,6.16,6.16,0,0,1,1.5-5.14,24.9,24.9,0,0,0,5.91-19.47c-1.1-10-6.18-18-12.72-25.34-7.37-8.33-20.62-9.24-29.48-5.78-15.95,6.2-26.24,27.91-22.06,44.52,2.23,8.82,12,19,22.11,17.27a8.21,8.21,0,0,1,2,.15c-.18,2.92-.34,5.68-.53,8.69-1.6-.15-3-.4-4.44-.42-5.43,0-11-.61-16.28.11-12.19,1.63-21.83,8.27-30.48,16.71A32.17,32.17,0,0,0,466,351.54a8.84,8.84,0,0,0,.26,2.42,8.19,8.19,0,0,0,2-1.74c.82-1.39,1.32-3,2.07-4.43,1.45-2.81,2.61-5.88,4.56-8.31,9.37-11.75,21.5-18.64,36.68-19.06,5.52-.15,11.08,1.15,16.64,1.56.8.06,2.39-1.1,2.44-1.78.29-4.12.35-8.27.25-12.41,0-1.69-1.32-2.4-3.06-2.37a18.17,18.17,0,0,1-4.84-.37,21.92,21.92,0,0,1-16.5-21.46c-.05-12.91,5.24-23.38,15.44-31.28,6.31-4.9,13-5.56,20-1.39.54.33,1.23,1,1.64.86,3-1,4.4,1.38,5.83,2.95a59.52,59.52,0,0,1,7.47,9.68c6,10.27,8.12,20.95,1.88,32-.8,1.42-2.45,2.7-2.53,4.1-.33,5.85-.35,11.73-.19,17.59,0,1.57,1.38,1.86,2.83.82a5.27,5.27,0,0,1,3.06-1.3c8.47.86,16.93,1.9,25.86,2.94a59,59,0,0,0-3.34,5.85c-.48,1.12-.85,2.74-.36,3.67.34.65,2.25.85,3.37.67,6.77-1.1,12.34-4.6,17.28-9.18a7.17,7.17,0,0,0,1.25-2ZM207.08,277l.39-.51c1.16.41,2.31.87,3.49,1.24,2.51.77,4.13-.73,3.45-3.3a15.78,15.78,0,0,0-1.5-3.49c-2-3.57-4.14-7-6-10.69a13.16,13.16,0,0,1-1.36-5.12c-.48-8.42-.46-16.88-1.24-25.27-.83-9-4-17.29-10.7-23.83-8-7.82-18.24-9.69-28.46-5.3a4.81,4.81,0,0,1-2.81,0c-4.4-1.08-8.82-2.54-13.36-1.13-11.4,3.56-18.4,11.55-21.92,22.7-2.57,8.14-.91,16.29.19,24.49,1.19,8.83.77,14.15-8.71,20.47-1.58,1.05-3.36,1.82-4.9,2.92a3,3,0,0,0-1.17,2.17c0,.51,1.09,1.31,1.74,1.38,2.5.23,5.09.64,7.51.2,3.77-.69,7.42-2,11.43-3.16a36.69,36.69,0,0,0-.93,5.63c0,.95.82,1.92,1.28,2.88a28.67,28.67,0,0,0,3-2.31c-1.24-2,.8-3.33,1-5a37.29,37.29,0,0,0,.41-4.57,2.34,2.34,0,0,0-1.43-1.6c-.38-.14-1.17.57-1.61,1.06s-.64,1.59-1.15,1.74c-4.53,1.41-9.1,2.66-13.66,3.95l-.31-.8a20.11,20.11,0,0,0,9.77-12.51c1.62-6.15.63-12.26,0-18.38-.75-7.69-.77-15.33,3.15-22.28,6.41-11.4,15.63-18.86,30.51-13.3,1.12.42,2.7-.27,4-.57,3.14-.68,6.33-2.26,9.37-2a23.1,23.1,0,0,1,18,10.91,38.93,38.93,0,0,1,6,16.76c.93,7.82,1.52,15.69,2.19,23.55a3,3,0,0,1-.57,2.18,4.07,4.07,0,0,0-1,5.18,73,73,0,0,0,3.86,7.45c1,1.65,2.21,3.14,3.33,4.69a17,17,0,0,1-4-1.17c-.84-.25-2.35-.34-2.63.09a3.56,3.56,0,0,0-.22,3c.58,1.16,1.82,2,2.66,3a6.07,6.07,0,0,1,1.38,2.43,7.49,7.49,0,0,0,7.11,5.87Zm475,59a1.85,1.85,0,0,1-.74,0,58.25,58.25,0,0,0-20.59-4.54c-6.65-.2-13.33-.09-19,4.09a13.33,13.33,0,0,0-3.26,3.88,2.53,2.53,0,0,0,.46,2.39c.4.38,1.65.17,2.35-.15,1.81-.83,3.44-2.05,5.28-2.79,12.56-5.07,24.93-2.68,37.2,1.2,2.59.81,3.76.42,3.63-2.25-.11-2.44-.51-4.87-.83-7.3-.94-7.18-2.29-14.33-.94-21.63.26-1.41-.3-2.62-1.93-3.66-3-1.89-5.51-4.48-8.23-6.77l.52-.83a15.15,15.15,0,0,0,3.4,1.15,4.89,4.89,0,0,0,3.23-.68c.56-.43.36-1.83.49-2.78,2.77-.82,2.77-.82,4.91-5.18.68,1.17,1.22,3.4,2.38,3.79s3.07-.9,4.49-1.4a26.38,26.38,0,0,0,.06,4.69,14.72,14.72,0,0,0,1.72,5.54,57.06,57.06,0,0,1,7.61,16.78c.88,3.23,1.93,6.43,3.12,9.56.32.85,1.43,1.4,2.17,2.08.44-.87,1.24-1.73,1.27-2.62.35-10.86-3.67-20.16-10.27-28.56a5.8,5.8,0,0,1-.94-3.61c.08-2.15.82-4.29.83-6.43,0-3.31-3-4.71-5.73-2.87-.7.46-1.34,1-2.24,1.66-.23-2.55-.15-4.68-.69-6.65-.33-1.2-1.52-2.83-2.51-3s-2.59,1-3.33,2.06c-1.07,1.48-1.61,3.35-2.56,5.44a37.19,37.19,0,0,0-2-5.67,4.27,4.27,0,0,0-2.76-2c-.53-.07-1.7,1.46-1.87,2.4a28.89,28.89,0,0,0-.33,6c.06,2.56.31,5.12.5,8a28.39,28.39,0,0,0-5.26-1.68c-1.45-.17-3.41-.13-4.38.7-1.62,1.39-.44,3.18.65,4.58,3.88,5,8.26,9.4,14.11,11.74ZM464.51,468.74a8.57,8.57,0,0,0,2.48-1.3c.92-1.07,2.22-2.37,2.19-3.54,0-.9-1.79-1.84-2.9-2.58a4.61,4.61,0,0,0-2.09-.45c-3.45-.25-6.9-.47-10.71-.72a18.58,18.58,0,0,0,2.62-2.06,25.47,25.47,0,0,0,2-3c-1.12-.61-2.23-1.71-3.38-1.75a122.85,122.85,0,0,0-14.36,0c-4.25.32-8.65,1.26-11.66,4.56a35.68,35.68,0,0,0-8.79,15.73c-.15.63.32,1.42.5,2.14.57-.45,1.34-.78,1.66-1.36,1.68-3,3.31-6,4.82-9.11,2.29-4.65,6-7,11.11-7.59,4.66-.56,9.29-1.34,13.93-2a77.48,77.48,0,0,1-9.7,5.76c-1.38.74-2.95,1.66-2.23,3.53s2.4,1.39,4,1a70.91,70.91,0,0,1,8.25-1.67c3.77-.43,7.58-.53,11.37-.78l.11.95c-3.72.94-7.44,1.9-11.17,2.81-1.64.41-3.56.86-3.06,3,.45,1.91,2.36,1.46,3.92,1.37,4.38-.26,8.77-.44,13.15-.65l.09.68-2.2.65a28.45,28.45,0,0,0-4.88,1.6c-.78.4-1.12,1.63-1.66,2.48.81.46,1.58,1.22,2.42,1.31a59.77,59.77,0,0,0,6,.08c1.33,0,2.66,0,4,0l0-.76-1.33-.72a6.62,6.62,0,0,0,2.21-.8c1-.92,2.23-2,2.4-3.12.1-.68-1.52-2-2.6-2.38A48.39,48.39,0,0,0,464.51,468.74Zm129.1-224.45-.22,1.39c-1.85.29-3.69.62-5.55.87-6.9.95-13.81,1.83-20.7,2.84a13.11,13.11,0,0,0-3,1.25l.32.82c8.94.1,17.91.46,26.65-2.17,5.71-1.72,6.17-3.44,2.1-7.4a22.67,22.67,0,0,0,4.6-1.1,4,4,0,0,0,2.11-2.5c.12-.74-.93-1.81-1.67-2.5a14.6,14.6,0,0,0-2.87-1.6,37.44,37.44,0,0,0,5.64-.4c.9-.2,2.13-1.12,2.25-1.87s-.89-1.76-1.6-2.45a4,4,0,0,0-2-.85c-4.67-1-9.34-2-14-2.77-3.05-.5-6.17-.58-9.55-.87a25.52,25.52,0,0,0,2.68-3.15,29.48,29.48,0,0,0,3.35-6.44c.84-2.84-1.08-4.57-3.82-3.53-7.3,2.78-13.54,7.3-19.31,12.49-.48.43-.44,1.42-.64,2.16.83.14,1.82.63,2.45.35a24.36,24.36,0,0,0,4.11-2.61c3.07-2.25,6.06-4.63,9.17-6.82a43.26,43.26,0,0,1,4.54-2.49l.7.78c-2,2.6-4.16,5.14-6.07,7.83a15.34,15.34,0,0,0-1.36,3.58,18,18,0,0,0,3.24.8c4.61.3,9.24.34,13.84.74,3,.27,6.06,1,9.09,1.48a5.22,5.22,0,0,1-2.54.56c-3.33.31-6.67.56-10,1.07-.77.12-1.39,1.15-2.08,1.76a8.23,8.23,0,0,0,2.15,1.56,30.51,30.51,0,0,0,3.75.56c2.18.42,4.34.91,6.51,1.38-.05.23-.1.46-.16.7-3.9,0-7.8-.09-11.7.07-.83,0-1.62.95-2.44,1.46.77.6,1.49,1.27,2.31,1.79.35.23.89.12,1.31.26C588,242.3,590.8,243.3,593.61,244.29Zm-335.18,20.5c-2,0-3.66-.32-5.18,0A133,133,0,0,0,238.6,269c-17.2,6.41-28,18.56-31.91,36.63a37.47,37.47,0,0,0-.6,6.45c0,.48.56,1,.86,1.49.45-.36,1.1-.63,1.32-1.1a23.74,23.74,0,0,0,1.1-3.34c2.8-9.78,7-18.82,15.07-25.35,6.91-5.62,14.54-10.18,23.42-12.23,3.18-.74,6.33-1.63,9.42-2.66,1-.33,2.5-1.28,2.54-2,.25-4.17.12-8.35.12-12.53l-.28,0C259.25,257.75,258.85,261.21,258.43,264.79ZM132,280.38c-7.43.15-14.63,1.32-21.08,5.3-12.55,7.75-20.51,19-24.62,33a10.69,10.69,0,0,0-.39,4.27c.09.76,1.15,1.39,1.78,2.07.62-.66,1.51-1.22,1.8-2,.79-2.12,1.14-4.4,2-6.48,7.15-17.57,18.12-30.82,38.35-33.22,3.69-.43,7.55-1.21,11.05,1.21a3.45,3.45,0,0,0,2.84.46,2.66,2.66,0,0,0,.7-2.55,3.83,3.83,0,0,0-2.52-2C138.58,280.24,135.27,280.38,132,280.38ZM472.65,478.55c-2.4.32-4.68.81-7,.89-7.16.26-14.33.35-21.5.52-2.64.06-4.68,1.3-5.38,3.81a97.49,97.49,0,0,0-2.19,10.59c-.13.77.59,1.67.92,2.52.79-.6,2-1,2.3-1.83a62.53,62.53,0,0,0,2.14-7.27c.95-3.7,1.12-3.92,5-3.87s7.64.5,11.42.22a66.51,66.51,0,0,0,11.16-2C471,481.74,472.83,481,472.65,478.55ZM605.53,350.89l1.29-.09c.32-1.33,1-2.71.87-4a69.71,69.71,0,0,0-1.56-7.18c-.78-3.63-1.45-7.28-2.38-10.87-.23-.89-1.26-1.58-1.92-2.36-.38,1-1.18,2-1.07,3,.56,4.76,1.17,9.53,2.12,14.23C603.39,346.1,604.62,348.46,605.53,350.89Z"/><path class="cls-3" d="M275.75,174c-.61-2.61-1.22-5.21-1.82-7.82-1.17-7.72-2.07-15.49-3.58-23.15-1.92-9.73-1-19.39.16-29,2.07-16.85,4.39-33.67,6.61-50.5.41-3.1.83-6.2,1.27-9.51-6.63-4.21-4.91-10.82-.67-13.63.28-6.08.06-11.74.91-17.23,1.12-7.19,6.31-11.34,13.45-12.1a3.4,3.4,0,0,0,2.14-1.78c1.95-4,4.47-7.26,8.88-8.68l3.79,0,5.82,3.12c.74-.47,1.62-1.1,2.57-1.6A7.87,7.87,0,0,1,326.19,5c2.94,4.73,3.95,9.74.81,14.9,2.8,3,3.21,6.63,2.55,10.47a22,22,0,0,1-.74,3.45c-2.18,6.43-4.38,12.86-6.67,19.25-2.09,5.83-4.54,11.53-6.41,17.42-2.75,8.68-2.39,17.75-3,26.71-1.2,17.21,3.28,33.32,8.85,49.23.59,1.69,3,2.77,4.58,4.1,3.43,2.85,6.47,2,9.39-.93s6-5.74,9-8.53c-6.55-13.51-13.17-26.58-14.35-41.49-1.16-14.68.6-29,6.3-42.7-2.37-1-6.2.93-6.82-3.73l5.15,1.31c-.95-1.31-1.48-2-2-2.74-3.72-5.22-1.8-14.06,3.76-17.19a4,4,0,0,1,1.32-.22l1.05.07c-1.29,3.8-2.32,7.63-1.42,12.35,3-4.55,2.89-10.79,9.45-12.57a7.83,7.83,0,0,1-.58,1.92,15.47,15.47,0,0,0-2.79,13.36A18.73,18.73,0,0,0,347.94,58c10.52,12.24,20.82,24.69,30.67,37.48,2.77,3.61,5.05,6.5,9.89,6.11a6,6,0,0,1,1.83.49l1.33.21-1.22-1.37a27.91,27.91,0,0,1-2.35-3.81c-.32-.75,0-1.78,0-2.68.83.13,1.87,0,2.47.43,2.57,1.92,5,4,7.49,6l-1.29,1.26-2.89-2.1-.36-.41-2.43-2-.52.56,2.31,2.18.48.26c.74.88,1.51,1.73,2.2,2.65,1,1.3,1.92,2.66,2.88,4-1.31-.62-2.57-1.56-4-1.8-4.5-.78-9-1.3-13.56-1.92l-3.07.44-8,3.74-1.13-.22,5.87-5.34,4-1c-2.14-2.88-4.06-5.6-6.12-8.22q-11.83-15.09-23.73-30.13l-.47-.56.05,0-1.06-.67.06,0-1.15-1.61v0l-.62-1-3-2.81-2.46-1.7-.37.41.46,1.19-.05,1.18c-.37.62-1.07,1.26-1.05,1.87.11,4.16.37,8.32.58,12.48L345.56,102c.09.63.22,1.25.28,1.88.64,6.65,1.33,13.3,1.85,20,.1,1.19-.52,2.44-.8,3.66l-1,0a14.19,14.19,0,0,1-1-2.79c-.69-5.58-1.13-11.2-2-16.76-2-13.27-4.11-26.51-6.19-39.77V65.57l-.34-.1c-.19.73-.37,1.46-.55,2.19a99,99,0,0,0-3,28.07c.41,15.41,7.65,28.66,13.37,42.55a25.4,25.4,0,0,1,2.49-2.89,7.27,7.27,0,0,1,2.31-.89c-.06.79.16,1.76-.23,2.33A68.82,68.82,0,0,1,336.2,153.2c-.52.41-1,.89-1.52,1.38l10.63,6.26a19.3,19.3,0,0,0-.75-1.8c-2.52-4.25-1.75-7.65,2.52-10.06a24.88,24.88,0,0,1,4.6-1.55c1.27-.42,3.2.42,3.58-1.83a1.72,1.72,0,0,1,1.21-.14c1.5.55,3,1.21,4.43,1.83l-.19.41-2.87.31,2.27,1.55,18.24,10a49,49,0,0,1-8.77-1.77c-1.19-.32-2.26-.55-1.94,1.31-1.36,5.07-5.24,7.6-10.38,6.62-2.21-.42-4.36-1.1-6.54-1.66l-2.1-1.08-.36.63,1.67,1.19c.14.85.27,1.69.42,2.58l-2.43,1.08a38.14,38.14,0,0,0,3.85,17c1.73-.39,3.26-.76,4.81-1a5.19,5.19,0,0,1,.45,1.09l-2.27,1.43c-3.09,2-4.4,1.66-5.83-1.66-.88-2.05-1.56-4.2-2.33-6.31l-.24-1.17-.33-1.56c-.08-.56-.17-1.13-.26-1.7-.1-.89-.19-1.77-.29-2.66v-3.71h-3.7l-3.21-.27-2.79-.27-3.19-.32-3.37-.53-2.16.77-6.12-1.9c.29-1.3-.08-2.07-1.55-1.94a20.66,20.66,0,0,1-3.09-3.56c-.45-.83-.05-2.12,0-3.21l3.48-.66-3.62-.87-7.05-2.62.11-1,5.87,1.49,6,1.7c-1.35-4.67-3.57-8.24-8.17-9.76a5.23,5.23,0,0,1,1.82-.69,8.56,8.56,0,0,1,2.33.77c-.48-1.67-.82-2.89-1.17-4.1-1.95-6.89-4.82-13.67-5.66-20.69A151.69,151.69,0,0,1,311.61,77c.92-5.4,3-10.6,4.57-15.89.19-.57.38-1.14.58-1.71l0,.06c.2-1.14.4-2.29.61-3.43l-6.53-4.82c-3.19-1.26-6.29-2.86-9.58-3.72C295.37,46,289.37,45,283.45,43.64c-1.74-.38-3.47-.89-4.59,1s-.71,3.58.6,5.29c.81,1,1.74,2.35,1.75,3.56A95.64,95.64,0,0,1,280.73,66c-2,17-4.23,33.88-6.25,50.83-.87,7.3-1.75,14.63-.4,22Q279.47,168.4,284.8,198A650,650,0,0,1,293,266.16c.05.61.59,1.18.9,1.77-.13.7-.27,1.4-.4,2.1l-1.27,1.61c-1.41.11-1.82-.06-2.12-1.56-.47-2.38-.74-4.79-1.1-7.19,0-1.45,0-2.9-.08-4.36l-.42-3.29-.12-1.07-.44-2.74-.12-1.08c-.15-.91-.29-1.83-.44-2.74,0-.36-.06-.72-.1-1.08-.14-1.28-.29-2.55-.43-3.83l-.12-1.63c-.15-1.27-.29-2.55-.43-3.82l-.09-1.07-.43-3.85c-.05-.54-.09-1.08-.13-1.62l-.42-3.29-.14-1.62-.45-3.27c0-.37-.07-.73-.1-1.09-.14-.92-.27-1.83-.41-2.74l-.11-1.07-.45-2.74-.13-1.1q-1.83-9.27-3.65-18.55l-.15-1.08q-1-5.46-2.06-10.92l-.15-1.06c-.13-.55-.25-1.11-.38-1.67l-.16-1-.38-1.68-.16-1.05-.39-1.67ZM321.07,5.41l0,0-3.73-.56-3.29,1.17,1.14,2.25.42.47-.08,0v9.06l2.15-.28,5.21,1.22c2.92-3.61,2.74-8.14-.52-12.26Zm-20.2,26.26V28.56h-.46v3.11l-1.69,3.2c-3.39.82-4.36-1.61-5.49-4-1-2.12-1-6.22.72-7,1.45-.7,3.43-.29,5.33-.37.36-3.17-1.12-7-3.83-8.2a7.76,7.76,0,0,0-9.08,1.64,16.17,16.17,0,0,0-4.31,7.28c-.87,4-.56,8.29-.86,12.44-.15,2.11.83,2.81,2.76,3.08,5.11.73,10.2,1.62,15.29,2.44l3.78,1,9.56,4.07L318,51.64c2.24-4.83,4.54-9.52,6.58-14.33a35.22,35.22,0,0,0,2.22-7.55c.52-2.93.63-6-1.34-8.23-1.43.11-2.55.28-3.66.25-1.57,0-3.14-.2-4.71-.31-3.45.28-6.51,1.11-8.19,4.67a4.42,4.42,0,0,1-2.68,2.05c-2,.45-1.9,1.39-1.29,2.91a45,45,0,0,1,4.7-1.65,2.6,2.6,0,0,1,2.17.57c.33.36,0,1.38-.12,2.1-.17,1.16-.4,2.33-.78,4.44l7.78-2.2,6.46-2.6c-2,4.52-5.75,6-9.34,7.56-3.77.55-7.94-.75-11.12,2.5-.32.33-1,.28-1.54.41l-3.82-.82-.43-5.18C299.74,34.79,302.45,34.17,300.87,31.67Zm8.8-12.59c2.3-2.66,3.14-5.58,2-8.83-1-3-3.18-5.39-6.44-5.52-4.68-.18-6.69,3.66-8.76,6.54,1.56,2.07,3.3,3.76,4.25,5.82s1.18,4.53,1.69,6.71a50.38,50.38,0,0,1,2.29-5C306.29,16.11,308.14,16.2,309.67,19.08ZM318.15,159c2.51,2.73,4.72,5.21,8.22,5.56,5.85.59,11.73.92,17.6,1.33a7.11,7.11,0,0,0,1.56-.24l.09-.89c-8.42-1.55-15.61-7.91-25-5.77A15.06,15.06,0,0,1,318.15,159Zm36.74-4.93,10.36,4.57C363.43,154.8,358.61,152.59,354.89,154.09ZM337.75,54.52c-2.34-5-4.28-10.09-1.91-15.69C332.23,44.05,332.92,50.39,337.75,54.52Zm-9,102.83,10.15,3.17.25-.87C335.84,158.92,333.72,154.22,328.73,157.35Zm-5.86-6.83c.56,2,.93,3.43,1.36,5l4.38-1.71ZM336,37.77l-.08.18h.32a1,1,0,0,0-.08-.18S336,37.78,336,37.77Zm4.09,122.83-.18-.2-.2.18.29.19Zm.89.49-.08.11H341Z"/><path class="cls-4" d="M534.67,197.52c-8.28,12.48-16.16,25.23-24.93,37.35-11.87,16.4-24,32.66-36.8,48.32-11.25,13.75-18.94,29-24.42,45.78a355.55,355.55,0,0,0-16.76,89.75,41,41,0,0,1-1,7c-.17.74-1.28,1.25-2,1.87-.61-.69-1.57-1.3-1.76-2.09a15,15,0,0,1-.21-4.34c2.3-33.69,8-66.74,19.76-98.51,2.44-6.59,6.23-12.66,9.3-19,1.37-2.85,2.16-6,3.82-8.68,3.07-4.92,6.58-9.56,9.9-14.32.09-.27.17-.54.26-.8l-.82.2c-1.23.36-1.87,0-1.29-1.31a4.52,4.52,0,0,1,1.44-1.61c10.55-7.79,18.09-18.24,25.6-28.76,14.13-19.81,28.45-39.56,40-61,10.47-19.36,21.75-38.17,33.69-56.62a78,78,0,0,1,7.22-10.22c2.19-2.42,5.22-4.11,8-6,2.07-1.45,3.55-3.18,3.09-5.86a5.84,5.84,0,0,0-1.23-3.19c-2.93-2.62-6.07-5-9.14-7.48a40,40,0,0,0-3.83-1.28c-8.45-1.88-16.1.55-23.58,4.26a8.91,8.91,0,0,0-4.55,5A284.38,284.38,0,0,1,506,171.37c-11.68,15-24.85,28.34-40.89,38.69L460.64,212a35.11,35.11,0,0,1-3.3,1.53c-3.43,1.21-6.9,2.33-10.35,3.48l-.05-1.06,1.33-.42,1.44-.49a67.21,67.21,0,0,0,18.14-10.66l1.44-1.06-.22-.41-1.87.63c-4,.35-8.08.8-12.13,1-.8,0-1.63-1-2.45-1.59.74-.65,1.37-1.63,2.23-1.9,2.32-.71,4.84-.84,7.09-1.69a62.9,62.9,0,0,0,19-11.89L483,186l-.06,0a2.36,2.36,0,0,1,.46-.1l.68,1.21q-3.87,4.28-7.75,8.54l-2.54,2,.32.47,2.31-1.18c3-2.61,6.13-5.07,8.95-7.86,11.75-11.59,21.36-24.92,30.86-38.35a265.88,265.88,0,0,0,25.94-46.8c1-2.2,1.89-4.31,4.44-5.17a2.06,2.06,0,0,0,1.21-1.47c-.14-6.74-.72-13.3-4.46-19.34-4.36-7-3.86-10.52,1.39-16.95,1-1.26,2.16-2.42,3.22-3.6-3.74-8.1-2.6-14.45,3.72-19.51,6.1-4.89,11-5.13,19.08,1.2,2.59-1.4,4.84-3.16,7.39-3.88,5.78-1.62,11.11,1.06,13.85,6.42a19.34,19.34,0,0,1,1.62,14l-4.11,5.5c-3.69,1.77-8.33,1.5-11.06,5.43-.44.63-2.19.36-3.33.5l-2.52-2.92c-.26.68-.46,1.16-.62,1.66-1.66,5.14-5.31,7.85-10.77,7.81-1.67,0-3.53,0-4.16-2.17,2.35-.44,4.74-.71,7-1.35s4.3-2.14,4.76-4.47L564,63.08c-.13-.68-.25-1.35-.37-2l1.86-3.57L561.34,57c-6.5-.65-10.73,2.94-14.43,7.62-2.69,3.42-3.37,6.79-.7,10.66A25.92,25.92,0,0,1,551,90.66c0,1.86-.27,3.72-.44,6,8.93-4.52,17.92-5.21,27.14-2l6.57,4.28c1.94-7.09,3.82-14,5.88-21.47a11.67,11.67,0,0,0-3,1.36c-1.64,1.43-3.22,2-5.1.61,0-1.54-.47-3.38.19-4.58a9.58,9.58,0,0,0,1.18-5.51l1.55,0a4.45,4.45,0,0,0,1.64-.07c2.21-1,3.78-.54,4.56,1.87-.22,1.14-.44,2.27-.77,3.89a26.66,26.66,0,0,0,4.3,0c4.7-.78,7.61-5.71,7-11.58-.39-3.61-1.65-5-5.28-5.32-1.63-.14-2.08-.75-1.76-2.21,2.45-2.53,7.37-.84,9,1.73,4.69,7.24-.2,20-8.43,20.4l-1.06.09-2.07,0-.66.2c.09.29.19.58.29.87h-.06c1.88,1.75,1.46,3.85.92,6l-.11,1.07-1.44,6-.45,1.55c-1,2.89-2,5.78-3,8.73.75,1.43,1.66,3,2.42,4.63.66,1.45-.06,2.71-.37,4.17-1.21,5.63-6,7.24-9.77,10.11a10.09,10.09,0,0,0-2.23,2.7c-13.36,21.16-27,42.16-38.16,64.62C538,191.69,536.27,194.58,534.67,197.52ZM573.36,56.3c.38.08,1,.32,1.1.22,2-3.61,4.9-3,8-1.8.43,1.35.86,2.69,1.33,4.18a5.93,5.93,0,0,0,5.92-4.06c1.49-3.87,0-10.63-3.13-13.43-2.93-2.6-6.35-2.76-9.89-1.24-2.41.84-3.38,2.44-2.85,5a10.64,10.64,0,0,1-2.13,9.2l-2.08,1.44.21.63a10.19,10.19,0,0,1,1.53-.26A19.52,19.52,0,0,1,573.36,56.3ZM562.3,52.89l1.54.47,2.21-2.72,2,2.5c3.54-2.81,2.34-7,2.26-10.69,0-1.13-3.09-2.2-4.77-3.29-5.68-2-10.1-.73-13.88,4.15-2.64,3.41-2.94,8.4-1.09,11.24Z"/><path class="cls-5" d="M627.85,121.17c-3.45-3.23-7.1-6.12-10.13-9.55-11.51-13-9.91-28.81,3.77-39.49,9.61-7.49,20.81-10.91,32.64-12.63,11-1.59,21.82-.8,32.8.67a82.1,82.1,0,0,1,31.72,11.26c8.71,5.24,15.77,12.16,18.21,22.46,2.55,10.73-1.76,19.24-9.78,26.06-9.91,8.44-21.85,12-34.45,13.67a108.62,108.62,0,0,1-39.47-2.24,4.49,4.49,0,0,0-3.19.68c-11.58,7.87-24.22,10.26-37.89,7.52A9.86,9.86,0,0,1,610,139c-2-.88-2.25-2.81-.41-4a23.49,23.49,0,0,1,4.19-1.95A26.63,26.63,0,0,0,627.85,121.17Zm-8.74,15.08c.61,0,1.21.11,1.82.1a54.29,54.29,0,0,0,28.57-8.59,5.05,5.05,0,0,1,3.45-.69,104.2,104.2,0,0,0,35.65,2.74c10.4-1.07,20.4-3.52,29.52-8.81,6.26-3.63,11.64-8.24,14-15.35,3-9-.46-16.41-6.51-22.84-11-11.68-25.58-16.25-40.56-19.5-9.88-2.15-20.06-1.9-30.1-.54-11.66,1.58-22.69,4.89-32.06,12.49-10.75,8.73-12.51,21.19-3.8,31.9,3.25,4,7.69,7.09,11.74,10.42,1.18,1,1.75,1.62,1,3.09-1,1.93-1.79,4-2.77,5.91C626.88,130.91,623,133.41,619.11,136.25Z"/><path class="cls-6" d="M396.8,102.1l1.29-1.26,4.53,3.89c-.39-1.73-.91-2.86-.84-4a22.58,22.58,0,0,1,1-4.12c1.22.57,2.73.86,3.6,1.77a50.08,50.08,0,0,1,4.06,5.35c1.34-.44,2.8-1.44,3.87-1.12s1.94,1.92,2.84,3c.29.33.36,1.07.65,1.14,5,1.17,9.38,5.68,15.3,1.91,6.26-4,12.91-7.39,19.54-10.76,10.84-5.5,21.74-10.93,33.54-14.14a71.87,71.87,0,0,1,11.49-2.07c1.93-.2,3-.9,3.66-2.56,2-5.43,4-10.88,6.05-16.31a4.36,4.36,0,0,1,1.09-1.79c1.5,4.88.71,9.55-1,14.16L506.73,77l.59.37,1.39-1.71c4.35-4.47,7.76-9.91,13.59-13-2,7.11-7.49,11.74-12.14,17l-2.68.6-1.77,1h-2.09l-.07.39,2.11.75a9.88,9.88,0,0,1,.15,3.14c-5.77,20.89-10.2,42.21-19.72,61.91-4.27,8.82-9,17.26-17.48,22.83-.11.07-.09.34-.2.78,4.7.61,9.32,1.18,13.92-.46a9.4,9.4,0,0,1,2.3-.8,2.29,2.29,0,0,1,1.87.61,2,2,0,0,1-.46,1.87c-1.7,1.49-3.54,2.82-5.33,4.21-5.13,4-10.54,7.42-17,8.94l-5.24.07c-1.09-.81-1.09-1.19.32-1.7,4.92-1.79,9.79-3.72,14.65-5.66.59-.24,1-.9,1.91-1.75-3.93-.44-7.16-.74-10.38-1.17s-6.49-.84-9.68-1.52-6.05-1.61-9.07-2.43c4.92-.35,9.72-.3,14.52-.39a7.37,7.37,0,0,0,3-.87c9.41-4.78,14.22-13.32,18.54-22.39,7.2-15.16,11.71-31.23,16.42-47.24,1.5-5.12,2.91-10.27,4.49-15.87l-3.41.37c-12.21,1.4-23.92,4.43-34.76,10.41-7.75,4-15.48,8.11-23.27,12.09-4.24,2.16-8.57,4.15-12.86,6.22-6.56-.59-12-3.31-15.93-8.93-.3.55-.53.91-.7,1.3-1.14,2.7-2.41,2.89-4.44.66-.68-.76-1.34-1.54-2-2.31l-.48.3,1,3.3-.81,1.18Zm110-24.43-.13-.16c-.05,0-.13.1-.13.15s.07.11.12.17Z"/><path class="cls-7" d="M134.08,84.63c-3.51-1.25-6.63-2.18-9.6-3.47-5.57-2.43-10.15-6.1-12.69-11.77-3.4-7.59-1.39-14.63,2.86-21.16,5.44-8.36,13.24-14.12,21.88-18.79A96.69,96.69,0,0,1,165,19.76c12.39-2.31,24.58-2,36.36,2.72,7.76,3.09,13.44,8.47,14.69,17.16,1.07,7.43-2.14,13.69-6.62,19.29-8.07,10.12-18.93,16.22-30.78,20.76A90.28,90.28,0,0,1,153,85.32a4.47,4.47,0,0,0-3.61,2.19C144.28,94.28,138,99.75,130.09,103a10.6,10.6,0,0,1-4,.67,3.24,3.24,0,0,1-2.51-1c-.31-.58.21-1.87.73-2.58,2.36-3.21,5-6.23,7.21-9.52C132.7,88.8,133.24,86.65,134.08,84.63Zm-4.76,14.75a15.86,15.86,0,0,0,2.73-1.09,53.92,53.92,0,0,0,15.22-14.2,5.25,5.25,0,0,1,3.42-2,88,88,0,0,0,41.4-12.91c7.63-4.63,14.28-10.36,18.22-18.63,3.86-8.11,2.15-15.89-4.75-21.18a33,33,0,0,0-6.31-3.71c-10.58-4.85-21.78-4.47-32.86-3A81.57,81.57,0,0,0,130,36.88c-6.24,4.39-11.67,9.56-14.92,16.62-4.24,9.2-1.62,18,7.22,22.88a49.61,49.61,0,0,0,11.64,4.37c2.6.67,3.11,1.62,2.62,4.08-1.12,5.52-4.17,10-7.37,14.39l-.34.29Z"/><path class="cls-8" d="M32.13,120.56c-3.56-1.15-7.13-2-10.41-3.43-13.54-6-15.19-18.88-3.87-28.59,8.22-7.06,17.88-11,28.32-13.17,6.67-1.39,13.45-1.32,20.27-1.45A35.73,35.73,0,0,1,85,78.64c5,2.79,8.58,6.88,8.49,13-.08,4.87-2.56,8.84-5.83,12.27C81,111,72.49,115,63.33,117.71c-3.46,1-7.09,1.49-10.6,2.38a8.48,8.48,0,0,0-3.55,1.76c-6.1,5.65-11.68,11.69-14.16,20-.22.72-1.35,1.17-2.05,1.75-.61-.79-1.57-1.5-1.76-2.38-1.4-6.43-.62-12.81.71-19.16C32,121.49,32.07,121,32.13,120.56Zm1.71,13.28c4.47-5,8.92-10,13.58-14.94a9.49,9.49,0,0,1,4.25-2.12c5.66-1.59,11.52-2.61,17-4.6,6.94-2.52,13.42-6.08,18.12-12.09,5.74-7.32,4.32-15.25-4.17-19.08A59,59,0,0,0,66,76.6c-10.82-1.38-21.32.79-31.37,4.9C27.56,84.37,21,88,16.2,94.18c-5.2,6.69-4.15,13.6,3,18.08a25.17,25.17,0,0,0,6.15,2.82c3.63,1.06,7.36,1.75,11.35,2.66C34.68,123.06,33.31,128.53,33.84,133.84Z"/><path class="cls-7" d="M696.46,140.63c9.47.94,21.54,2.26,32.52,8.18,4,2.13,7.47,4.87,9.63,8.95,2.54,4.79,1.51,9.73-3.06,12.63a31.68,31.68,0,0,1-8.48,3.47c-1.71.48-2.61,1-3,2.81a26.51,26.51,0,0,1-8.6,13.6c-.84.74-2.16.95-3.26,1.4-.14-1.09-.34-2.17-.42-3.26-.27-3.86-.44-7.73-.76-11.59-.14-1.69-1.24-2.3-2.93-2.56-8.21-1.27-16.25-3.32-23.44-7.55a39.28,39.28,0,0,1-9.84-8c-4.9-5.71-3.17-12,3.62-15.42C682.41,141.34,686.65,140.59,696.46,140.63Zm18.92,46.45c3.84-4.41,6.33-9.12,6.83-14.67.17-1.82.77-2.42,2.49-2.78a26,26,0,0,0,6.66-2.19c4.07-2.1,4.66-5.32,1.88-9-3.83-5-9.29-7.75-14.79-10.35a49.78,49.78,0,0,0-35-3.14c-3.28.87-6.74,2.17-7.37,6s2.11,6.21,4.78,8.29c8.35,6.52,18.1,9.56,28.43,10.55,3.33.32,4.3,1.94,5,4.49a6.09,6.09,0,0,1,.28,1.32C714.87,179.32,715.11,183,715.38,187.08Z"/><path class="cls-8" d="M266.1,73.6c-.07,2.49-2.25,5.92-5.11,9.13a8.94,8.94,0,0,0-2.12,4.16c-.76,4.48-.32,8.83,2.34,12.76a6.87,6.87,0,0,1,.5,2.43c-.94.1-2,.55-2.79.26a25.51,25.51,0,0,1-12.05-9c-1.23-1.7-2.37-2-4.31-1.53-9,2.14-18,2.31-26.83-.76-4.27-1.48-8.12-3.72-10.52-7.77C202.05,78,203,72.07,207.8,66.83c5.66-6.13,13-9.1,20.93-10.9,10.54-2.41,20.77-1.64,30.27,3.93C263.82,62.69,266.17,66.85,266.1,73.6ZM256,98.55l.83-.62a45.36,45.36,0,0,1-1.31-5.16c-.65-4.75-.68-9.15,3.34-13,6.33-6.08,5-13.69-2.7-18a13.64,13.64,0,0,0-2.2-1.09c-14.49-4.93-28.24-3.39-41,5.14-4.14,2.77-7.33,6.63-6.67,12s4.77,8.13,9.41,10c9.42,3.82,19,3.42,28.52.48,1.64-.51,2.35-.25,3.48,1.18C250.18,92.72,253.16,95.56,256,98.55Z"/><path class="cls-9" d="M594.59,55.79c-.32,1.46.13,2.07,1.76,2.21,3.63.32,4.89,1.71,5.28,5.32.65,5.87-2.26,10.8-7,11.58a26.66,26.66,0,0,1-4.3,0c.33-1.62.55-2.75.77-3.89,1.36-1.77,3.09-3.37,4-5.35,1-2.26-.63-4.24-3.17-4.51-.8-.09-1.62,0-2.43,0l4.11-5.5Z"/><path class="cls-10" d="M507.48,80.22l2.68-.6-1,2.31,14.12-5c-.46,1.37-.51,2.11-.9,2.55a11.91,11.91,0,0,1-2.66,2.3c-3.85,2.32-8.2,3.92-10.82,8-.45.7-1.44,1-2.4,1.72.55-2.32,1-4.36,1.54-6.39l.25.14c-.1-1.16-.16-2.32-.31-3.47A9.64,9.64,0,0,0,507.48,80.22Z"/><path class="cls-10" d="M464.83,68.62c2.38-2.81,4.66-5.7,7.2-8.34.57-.59,2-.31,3.11-.43-.1,1.09.19,2.48-.37,3.23-2.31,3.09-5.15,5.59-9.13,6.38Z"/><path class="cls-10" d="M428.92,53.16c.7-3.86,1.29-7.74,2.2-11.55.2-.87,1.54-1.47,2.35-2.2.39,1,1.2,2,1.1,3-.45,4.08-1.41,8-4.62,11Z"/><path class="cls-11" d="M458.51,185.47l5.24-.07A7.16,7.16,0,0,0,466,186c5.37-.48,10.71-1.11,16.07-1.6a10.81,10.81,0,0,1,2.76.48l-.79,2.23-.68-1.21-.46.1.06,0-2.3.6-10.75,1-7.13-.4-5.16-.68Z"/><path class="cls-10" d="M386.36,51.84c-3.91-.92-7.2-5.75-6.89-8.94.06-.66.82-1.79,1.21-1.77a2.8,2.8,0,0,1,2.13,1.21C384.12,45.45,385.2,48.66,386.36,51.84Z"/><path class="cls-1" d="M476.41,197l-2.31,1.18-.32-.47,2.54-2Z"/><path class="cls-12" d="M338.92,34.34l-1.05-.07,1.28-2,.48.17Z"/><path class="cls-12" d="M508.71,75.62l-1.39,1.71-.59-.37.75-1.73Z"/><path class="cls-6" d="M390.44,100.87l1.22,1.37-1.33-.21C390.37,101.64,390.41,101.26,390.44,100.87Z"/><path class="cls-12" d="M464.83,68.62l.81.84-2,1-.22-.34Z"/><path class="cls-10" d="M505.66,82.37l-2.11-.75.07-.39h2.09Z"/><path class="cls-3" d="M594.14,78l1.06-.09Z"/><path class="cls-3" d="M592.45,86.16l.11-1.07Z"/><path class="cls-3" d="M590.56,93.73l.45-1.55Z"/><path class="cls-3" d="M591.41,78.24l.66-.2c-.14.36-.28.72-.43,1.08h.06C591.6,78.82,591.5,78.53,591.41,78.24Z"/><path class="cls-13" d="M465.08,210.06c16-10.35,29.21-23.65,40.89-38.69a284.38,284.38,0,0,0,38.48-65.46,8.91,8.91,0,0,1,4.55-5c7.48-3.71,15.13-6.14,23.58-4.26A40,40,0,0,1,576.41,98c0,1.39-.06,2.78-.1,4.17-5.24-1.83-10.44-2.65-15.52.67a20.33,20.33,0,0,0,6.23,1,17.57,17.57,0,0,1,11.82,4.81c-.39.76-.58,1.83-1.2,2.25-14.86,10-23,24.93-31.24,40.17-13.23,24.62-25.67,49.75-42.2,72.44-9,12.4-18.5,24.47-27.83,36.65a8.49,8.49,0,0,1-2.55,2c-8.54,5-16.89,10.27-24.15,17.14A85.76,85.76,0,0,0,428,311.17c-1.89,4.93-.39,9.28,1.3,13.65.91,2.34,4,2.74,5,.66,1.59-3.5,5.42-4.06,7.82-6.59-.7,1.93-1.44,3.84-2.1,5.78-6.86,20.22-13.32,40.55-16.14,61.81-1.54,11.67-1,23.39-.08,35.08.4,5.16.71,10.32,1.41,15.44.25,1.79,1.53,3.44,2.73,6-1,1.14-2.73,3-4.41,4.83l0,0-.58-.58,0,0-.58-.58,0,0c-.08-.49,0-1.11-.26-1.46-10.12-13.51-21.51-25.59-37.17-32.81-.91-.42-1.84-.79-2.75-1.2l-2.81-1.3c.84-.56,1.44-1,2.06-1.37,23.54-14.35,27.43-49.8,7.52-68.73-5.59-5.31-12.44-9.17-19.89-9.13-11.88.07-23.28,3.09-31.38,12.95-12.09,14.7-14.69,31-7.4,48.66,1.39,3.37,3.89,6.29,5.91,9.4.48.72,1.12,1.34,1.9,2.27-4.31.6-8.3.86-12.12,1.79A84.75,84.75,0,0,0,314,409.88c-1.7.7-2.47.51-3.55-.87-4.88-6.2-9.85-12.33-14.84-18.44a33.56,33.56,0,0,0-3-2.85c1.74-1.85,3.42-3.49,5-5.27C304,375,306,365.92,307,356.5a52,52,0,0,0-1.05-18.65c-1.74-6.79-5-12.67-10.54-17.05-1.6-1.27-1.43-2.7-1.38-4.35.13-4.34.13-8.68.19-13,2-15.21,3.91-30.43,6-45.62.84-6.11,2.05-12.17,3-18.27.12-.83-.53-1.76-.83-2.65-.69.7-1.81,1.31-2,2.13-2.23,9.61-4.32,19.26-6.45,28.91-.31-.59-.85-1.16-.9-1.77A650,650,0,0,0,284.8,198q-5.3-29.62-10.72-59.22c-1.35-7.36-.47-14.69.4-22,2-17,4.25-33.88,6.25-50.83a95.64,95.64,0,0,0,.48-12.44c0-1.21-.94-2.52-1.75-3.56-1.31-1.71-1.69-3.43-.6-5.29s2.85-1.42,4.59-1c5.92,1.31,11.92,2.36,17.78,3.89,3.29.86,6.39,2.46,9.58,3.72q-1.11,3.9-2.2,7.78l-1.08-.94-.37.63,1.43.61a11.1,11.1,0,0,1,0,1.63c-1.52,9.86-3,19.73-4.62,29.58-2,12.57-1.8,24.92,2.81,37,1.87,4.91,3.11,10.05,4.63,15.08l-1.18-.32-3.87-1.83-.42.82,4.3,2.1,2.17,1.43.23.4q1.23,4,2.47,7.95l-5.87-1.49-6.09-1.65L293,147.59l-.14.6L303.1,151l6,1.7,7.05,2.62c0,.51.09,1,.14,1.53,0,1.09-.42,2.38,0,3.21a20.66,20.66,0,0,0,3.09,3.56l-6.44.16h-8.59v.09l8,.83c1,2.17,1.64,4.68,3.14,6.43a81.85,81.85,0,0,0,8.09,7.58c1.79,1.59,3.67,3.08,5.68,4.77-9.89,3.45-12.33,4.94-12.94,7.44h11.2l.09,1.05c-2.25.55-2.18,1.59-.52,2.8a11.41,11.41,0,0,0,2.18,1l.34,1.15c-1.22,2.61.91,3.34,2.5,4.18a48.7,48.7,0,0,0,5,2,9.46,9.46,0,0,1-1.06.64c-3.59,1.36-3.59,1.36-2.16,4.86.08.21-.14.54-.06.74.41,1,.63,2.3,1.38,2.75a30.82,30.82,0,0,0,4.76,1.82,3.14,3.14,0,0,1,1.56,1.12c2,3.79,4,7.63,5.9,11.47,1.32,2.63,2.73,5.23,3.8,8,.85,2.17,1.2,4.55,1.87,6.8.41,1.41.55,3.51,2.69,3s1.26-2.45,1.17-3.91a3.33,3.33,0,0,0-.36-1.3c-1.87-3.68-3.76-7.34-5.65-11,.22-.21.43-.43.64-.65,5,4.19,9.67,8.77,15,12.46,7.46,5.19,15.9,6.53,25,4.23a9.73,9.73,0,0,0-2-.72c-8.43-.88-15.82-4.64-22.74-9.06-5.22-3.33-9.76-7.72-14.56-11.69-1.11-.92-2-2.37-3.51-.64l-1.22.09-3.81-6.87a16.54,16.54,0,0,1,5.11,1.93c6.94,4,14.15,7.52,20.67,12.07,5.94,4.14,12,7.31,19.18,8.53,7.6,1.3,14.58.1,20.74-4.78l.48-.32c2.79-.1,5.59-.1,8.38-.31s5.57-.65,8.35-1l-24.1,12.85c-3.7,1.1-7.42,2.16-11.1,3.34a2.39,2.39,0,0,0-1.28,1.46c-.1.36.47,1.2.9,1.36,2.27.85,4.56,2,6.91,2.2,5.18.46,10.41.41,15.62.57l.91-.48c7.73-1.13,11.74-7,16-12.58.11-.15-.06-.5-.1-.76v0l.78-.93c1.08-1,2.1-2,3.24-2.9,6-4.69,12-9.34,17.94-14a15.5,15.5,0,0,0,2.38-1.56C458.27,216.69,461.66,213.36,465.08,210.06ZM298.7,137.48c-.24-.17-.47-.35-.09-.06-.48-.06-.17,0,.13,0l.85.54.15-.41Zm8.54-78.67.46-.76a10,10,0,0,0-1.9-1.84c-5.7-3.12-11.42-6.22-17.21-9.15-.89-.45-2.22,0-3.34,0a34.32,34.32,0,0,0,1.86,3,3.62,3.62,0,0,0,1.41.77c5.27,2.39,10.53,4.79,15.82,7.13A23.73,23.73,0,0,0,307.24,58.81Zm63.35,192.94c.39.49.93,1.87,1.9,2.29a37.55,37.55,0,0,0,7.41,2.34c1.76.37,3.53-.08,3.92-2.33a3.47,3.47,0,0,0-2.58-4.2,17.59,17.59,0,0,0-3.43-.61c-1.45-.19-2.92-.28-4.37-.48C371.67,248.52,370.59,249.07,370.59,251.75ZM300.66,137.83l-.34.67,5.45,2.67c.13-.28.27-.57.4-.86Zm-10.21,9.58v.23h1.48v-.23Z"/><path class="cls-14" d="M591.41,325.62,606,319.56a7.17,7.17,0,0,1-1.25,2c-4.94,4.58-10.51,8.08-17.28,9.18-1.12.18-3,0-3.37-.67-.49-.93-.12-2.55.36-3.67a59,59,0,0,1,3.34-5.85c-8.93-1-17.39-2.08-25.86-2.94a5.27,5.27,0,0,0-3.06,1.3c-1.45,1-2.78.75-2.83-.82-.16-5.86-.14-11.74.19-17.59.08-1.4,1.73-2.68,2.53-4.1,6.24-11.06,4.15-21.74-1.88-32a59.52,59.52,0,0,0-7.47-9.68c-1.43-1.57-2.87-3.91-5.83-2.95-.41.13-1.1-.53-1.64-.86-7-4.17-13.69-3.51-20,1.39-10.2,7.9-15.49,18.37-15.44,31.28A21.92,21.92,0,0,0,523,305.05a18.17,18.17,0,0,0,4.84.37c1.74,0,3,.68,3.06,2.37.1,4.14,0,8.29-.25,12.41-.05.68-1.64,1.84-2.44,1.78-5.56-.41-11.12-1.71-16.64-1.56-15.18.42-27.31,7.31-36.68,19.06-1.95,2.43-3.11,5.5-4.56,8.31-.75,1.45-1.25,3-2.07,4.43a8.19,8.19,0,0,1-2,1.74,8.84,8.84,0,0,1-.26-2.42,32.17,32.17,0,0,1,9.19-18.09c8.65-8.44,18.29-15.08,30.48-16.71,5.33-.72,10.85-.15,16.28-.11,1.42,0,2.84.27,4.44.42.19-3,.35-5.77.53-8.69a8.21,8.21,0,0,0-2-.15c-10.11,1.77-19.88-8.45-22.11-17.27-4.18-16.61,6.11-38.32,22.06-44.52,8.86-3.46,22.11-2.55,29.48,5.78,6.54,7.38,11.62,15.32,12.72,25.34A24.9,24.9,0,0,1,561.17,297a6.16,6.16,0,0,0-1.5,5.14,102.33,102.33,0,0,1,.1,10.51c10.47-.64,20.05.64,29.11,5.46,1.2-3.16-.19-5.85-2.09-8.36-3.46-4.58-6.61-9.29-8.12-15a36.24,36.24,0,0,1,3.79-28.62,22.24,22.24,0,0,1,23.75-10.93,2.1,2.1,0,0,0,.8.13c8.68-1.69,14.14,3.78,19.63,9a32.6,32.6,0,0,1,7.9,12.58,61.16,61.16,0,0,0,4.43,9.62,13.09,13.09,0,0,0,4.49,4.19c3.23,1.94,5.21,1.14,6.7-2.27.28-.66.33-1.44.66-2.06a11.53,11.53,0,0,1,1.35-1.71c.61.57,1.59,1,1.76,1.71,1.74,6.9.42,13.15-4.47,18.44a21.62,21.62,0,0,1-11,6.76,14.08,14.08,0,0,0-2,.81c.41,3.87,1,7.63,1.16,11.41s.05,7.59.05,11.68c-2.48-.93-2.59-2.91-2.68-4.69-.27-5.25-.38-10.51-.58-15.76,0-1.08.32-2.08-1.29-2.79-1.41-.62-.37-1.3.66-1.92,4.7-2.83,9.47-5.6,13.86-8.87,1.78-1.32,2.66-3.86,3.71-6-7.33,2.74-14,.22-17.59-6.93a94.18,94.18,0,0,1-4.14-10.07,31.19,31.19,0,0,0-17.23-18.38c-3.88-1.71-9.09-2.7-13.82-1-5.19,1.91-9.54,5-12.2,9.92-6.67,12.42-7,24.6,1.83,36.28.87,1.16,1.67,2.38,2.58,3.51,3.66,4.55,3.76,9.42,1.37,14.55a21.06,21.06,0,0,0-.76,2.24l-.28.18c.05,0,.13,0,.15,0A.63.63,0,0,0,591.41,325.62Z"/><path class="cls-14" d="M588.12,378c-3,1.45-5.92,2.95-8.91,4.35a16.91,16.91,0,0,1-2.77.77,10.6,10.6,0,0,1,.88-2.81c1.7-2.64,3.56-5.17,5.36-7.74a.86.86,0,0,0,.23-.13s0-.11,0-.17l-.18.33c-2.71,1.71-5.47,3.37-8.13,5.17-1.65,1.11-3.1,2.52-4.76,3.61-.56.36-1.49.16-2.26.21,0-.75-.27-1.63,0-2.24,1.37-2.9,2.9-5.73,4.06-8.79-5.73,2.89-10.57,6.71-13,12.73-.65,1.63-.14,4,.45,5.77,1.24,3.78,2.89,7.42,4.37,11.11,1.11,2.76,2.35,5.51,1.49,8.88a38.45,38.45,0,0,1-5.37,0c-10.21-1.51-20.4-3.19-30.62-4.67-2.72-.39-4.35-1.6-4.78-4.33-.6-3.85-1.26-7.7-1.76-11.57-.35-2.74,1.65-4.38,3.12-6.35,2.42-3.23,5.21-6.44,6.6-10.13,3.21-8.54.82-16.21-5.29-22.8-4.59-4.93-10-8.51-16.81-9.29-11.84-1.34-21.64,2.56-29.61,11.54-9.56,10.78-9.77,25.42-4,36.93,1.29,2.57,3.75,4.55,5.63,6.84a10.32,10.32,0,0,1,2.11,3,22.22,22.22,0,0,1,.86,5.34c.29,5.17-1,7.08-5.9,8.72-13.33,4.48-24.06,12.81-33.78,22.67a32.48,32.48,0,0,1-2.64,2.73c-.46.37-1.59.58-1.88.3-.45-.44-.86-1.59-.6-2a31.91,31.91,0,0,1,4.34-6.2,85.55,85.55,0,0,1,27.7-18.41c.67-.28,1.36-.52,2-.81,6.88-3,5.48-2.66,5.47-9.69a1.9,1.9,0,0,0-.89-1.43c-5.77-2.46-8.12-7.67-10-13-6.44-18.1.31-36.85,16.79-46.73,11.39-6.83,30.27-6.94,41.9,3.95,6.65,6.23,10.56,13.33,10.36,22.43-.17,7.76-3.57,14.18-9.05,19.51a4.48,4.48,0,0,0-1.41,4.82c.67,2.8.94,5.7,1.42,8.86,11.61-.45,22.86.66,33.82,6.2-1.15-2.47-2.26-4.42-3-6.51a119.41,119.41,0,0,1-3.63-11.63c-1.19-4.9,1.29-8.77,4.65-11.83a83.26,83.26,0,0,1,9.87-7.15c.7-.46,2.31-.67,2.67-.26a4.14,4.14,0,0,1,.63,2.94,23.73,23.73,0,0,1-1.38,4.18c3-2.1,5.21-3.87,7.63-5.36,2-1.22,4.21-3.53,6.59-1.5s-.22,4.26-.85,6.36l-.31.31.55-.08a5.77,5.77,0,0,1,1.34-.22c1.43.08,3.69-.24,4.09.47.64,1.12.38,3.08-.14,4.45a25.14,25.14,0,0,1-2.89,4.56c3,1.52,3.22,3.77.6,6-1.73,1.48-3.42,3-5.25,4.33s-1.64,2.64-.81,4.4c1.78,3.75,3.42,7.57,5.1,11.38a3.69,3.69,0,0,1,.49,1.79c-.09.61-.51,1.52-1,1.64a2,2,0,0,1-1.69-.88c-2.06-5.11-4.15-10.21-5.88-15.44-.33-1,.56-2.78,1.42-3.7,2.07-2.22,4.46-4.13,6.73-6.16l-.48-.92c-1,.3-1.94.66-2.94.89a23.9,23.9,0,0,1-2.4.34c.14-.89,0-2,.49-2.64,1.22-1.68,2.76-3.12,4.07-4.74a12.47,12.47,0,0,0,1.23-2.35c.06-.12.12-.24.19-.36Z"/><path class="cls-14" d="M287.26,317.47c.45,2.17-.48,3-2.61,2.74-2.43-.3-4.87-.52-7.3-.84-18.81-2.51-33.28,7.37-37.08,25.89-1.9,9.24-.54,18.12,6,25.56a7.8,7.8,0,0,0,1.95,1.86c3.3,1.73,3.35,4.51,2.89,7.68-.61,4.21-1,8.45-1.39,12.69-.24,3-1.55,4.2-4.6,3.79-3.59-.47-7.16-1.13-10.77-1.36-8.32-.52-15.86,2.44-23.33,5.61a8.44,8.44,0,0,1-3.64.85c-.85-.06-1.65-1-2.47-1.56.52-.75.88-1.84,1.59-2.17,5.32-2.5,10.71-4.84,16.08-7.24a7.85,7.85,0,0,0,.84-.48c-.64-3-1.59-5.92-1.76-8.85a17.93,17.93,0,0,1,1.14-7c.88-2.45,2.62-4.58,3.58-7,.42-1.05-.18-2.51-.31-3.78a15.3,15.3,0,0,0-3.21.58c-1,.4-1.74,1.33-2.72,1.77-1.14.5-2.78,1.34-3.51.89s-1.24-2.27-1.22-3.49c.05-3.71.4-7.43.6-11.15a6.2,6.2,0,0,0-.62-3.45,66.41,66.41,0,0,1-.74,6.93c-.23,1.18-1.16,2.22-1.78,3.32-.87-.9-2.05-1.64-2.54-2.71a71.11,71.11,0,0,1-2.37-6.76l-.71.08c-.23,3-.31,6-.78,9-.18,1.19-1.21,2.25-1.86,3.37-.93-.92-2.21-1.7-2.71-2.82a36.1,36.1,0,0,1-1.54-5.71h-.86v9.74c0,3-.2,3.22-4,2.93,1.24,4.49,1.85,9,3.67,12.88,4,8.48.58,16-2.53,23.46-.63,1.51-3.51,2.09-5.34,3.1l-.82-.58c.89-2,1.75-3.94,2.69-5.87.85-1.73,1.93-3.36,2.66-5.14a19.6,19.6,0,0,0,1.69-5.71,19.87,19.87,0,0,0-.53-7.39c-1.58-4.89-4.46-9.42-4-14.82.14-1.52,1-3,1.54-4.46a12,12,0,0,0,.73-2.42c.34-2.78.47-5.58.89-8.35.29-1.92,1-4.18,3.27-4,1.4.09,2.69,1.8,4.11,2.85a20.31,20.31,0,0,1,1.26-4.07c.57-1.08,1.67-2.37,2.7-2.53.77-.13,2,1.26,2.66,2.22a22,22,0,0,1,1.63,3.92,45.64,45.64,0,0,1,1.86-6.69c.54-1.2,2-2,3-3,.84,1.13,2.29,2.19,2.41,3.39.45,4.41.47,8.86.63,13.3,0,1.24,0,2.49,0,4,1.23-.62,2.16-1.13,3.13-1.55a6.32,6.32,0,0,1,7.13.94c2.05,1.84,3,4.35,2,6.92a42.23,42.23,0,0,1-4.4,8.69c-1.62,2.37-2.29,4.55-1.53,7.35a58.86,58.86,0,0,1,1.13,6.4l18.9,1c.54-2.88,1-6.64,2-10.24,1.07-3.77-.24-5.71-3.49-7.57-5-2.86-6.83-8.08-8.15-13.33-4.37-17.29,6.5-37.13,23.44-42.52a38.3,38.3,0,0,1,25.63.54,10.46,10.46,0,0,0,1.77.35Z"/><path class="cls-14" d="M207.08,277l5.55,9.64a7.49,7.49,0,0,1-7.11-5.87,6.07,6.07,0,0,0-1.38-2.43c-.84-1.05-2.08-1.87-2.66-3a3.56,3.56,0,0,1,.22-3c.28-.43,1.79-.34,2.63-.09a17,17,0,0,0,4,1.17c-1.12-1.55-2.37-3-3.33-4.69a73,73,0,0,1-3.86-7.45,4.07,4.07,0,0,1,1-5.18,3,3,0,0,0,.57-2.18c-.67-7.86-1.26-15.73-2.19-23.55a38.93,38.93,0,0,0-6-16.76,23.1,23.1,0,0,0-18-10.91c-3-.27-6.23,1.31-9.37,2-1.33.3-2.91,1-4,.57-14.88-5.56-24.1,1.9-30.51,13.3-3.92,6.95-3.9,14.59-3.15,22.28.59,6.12,1.58,12.23,0,18.38a20.11,20.11,0,0,1-9.77,12.51l.31.8c4.56-1.29,9.13-2.54,13.66-3.95.51-.15.67-1.23,1.15-1.74s1.23-1.2,1.61-1.06a2.34,2.34,0,0,1,1.43,1.6,37.29,37.29,0,0,1-.41,4.57c-.15,1.65-2.19,2.95-1,5a28.67,28.67,0,0,1-3,2.31c-.46-1-1.31-1.93-1.28-2.88a36.69,36.69,0,0,1,.93-5.63c-4,1.14-7.66,2.47-11.43,3.16-2.42.44-5,0-7.51-.2-.65-.07-1.71-.87-1.74-1.38a3,3,0,0,1,1.17-2.17c1.54-1.1,3.32-1.87,4.9-2.92,9.48-6.32,9.9-11.64,8.71-20.47-1.1-8.2-2.76-16.35-.19-24.49,3.52-11.15,10.52-19.14,21.92-22.7,4.54-1.41,9,0,13.36,1.13a4.81,4.81,0,0,0,2.81,0c10.22-4.39,20.48-2.52,28.46,5.3,6.69,6.54,9.87,14.78,10.7,23.83.78,8.39.76,16.85,1.24,25.27a13.16,13.16,0,0,0,1.36,5.12c1.84,3.64,4,7.12,6,10.69a15.78,15.78,0,0,1,1.5,3.49c.68,2.57-.94,4.07-3.45,3.3-1.18-.37-2.33-.83-3.49-1.24Z"/><path class="cls-14" d="M682.1,335.91V310.58c-5.85-2.34-10.23-6.75-14.11-11.74-1.09-1.4-2.27-3.19-.65-4.58,1-.83,2.93-.87,4.38-.7a28.39,28.39,0,0,1,5.26,1.68c-.19-2.88-.44-5.44-.5-8a28.89,28.89,0,0,1,.33-6c.17-.94,1.34-2.47,1.87-2.4a4.27,4.27,0,0,1,2.76,2,37.19,37.19,0,0,1,2,5.67c1-2.09,1.49-4,2.56-5.44.74-1,2.32-2.21,3.33-2.06s2.18,1.78,2.51,3c.54,2,.46,4.1.69,6.65.9-.67,1.54-1.2,2.24-1.66,2.78-1.84,5.75-.44,5.73,2.87,0,2.14-.75,4.28-.83,6.43a5.8,5.8,0,0,0,.94,3.61c6.6,8.4,10.62,17.7,10.27,28.56,0,.89-.83,1.75-1.27,2.62-.74-.68-1.85-1.23-2.17-2.08-1.19-3.13-2.24-6.33-3.12-9.56a57.06,57.06,0,0,0-7.61-16.78,14.72,14.72,0,0,1-1.72-5.54,26.38,26.38,0,0,1-.06-4.69c-1.42.5-3.24,1.82-4.49,1.4s-1.7-2.62-2.38-3.79c-2.14,4.36-2.14,4.36-4.91,5.18-.13.95.07,2.35-.49,2.78a4.89,4.89,0,0,1-3.23.68,15.15,15.15,0,0,1-3.4-1.15l-.52.83c2.72,2.29,5.26,4.88,8.23,6.77,1.63,1,2.19,2.25,1.93,3.66-1.35,7.3,0,14.45.94,21.63.32,2.43.72,4.86.83,7.3.13,2.67-1,3.06-3.63,2.25-12.27-3.88-24.64-6.27-37.2-1.2-1.84.74-3.47,2-5.28,2.79-.7.32-1.95.53-2.35.15a2.53,2.53,0,0,1-.46-2.39,13.33,13.33,0,0,1,3.26-3.88c5.7-4.18,12.38-4.29,19-4.09a58.25,58.25,0,0,1,20.59,4.54A1.85,1.85,0,0,0,682.1,335.91Z"/><path class="cls-14" d="M264,451.52c-.64-.77-1.55-1.45-1.83-2.32-.38-1.17-.73-2.75-.22-3.67a3.45,3.45,0,0,1,3.2-1.06c6.79,2.48,13.49,5.2,20.21,7.88a13.32,13.32,0,0,1,1.77,1.12c.63-2.39,1.27-4.57,1.78-6.78,1.89-8.06,4.78-15.65,10.52-21.81a26.33,26.33,0,0,1,5.45-4.42c.69-.42,2.09.32,3.16.54-.26.93-.21,2.27-.83,2.75-7.84,6.16-11.87,14.76-15.29,23.74-1,2.61-1.74,5.32-2.53,8s-1.65,3-4.41,1.79q-6.6-2.91-13.2-5.79c-1-.43-2-.72-3-1.07l-.77.86a11.69,11.69,0,0,1,2.67,2,10.6,10.6,0,0,1,1.09,3c-1.07.24-2.22.85-3.21.66-3.73-.74-7.39-1.83-11.1-2.62a33.35,33.35,0,0,0-18.07,1.83c1.39.2,2.11.34,2.84.4,4.5.38,9,.73,13.51,1.11a2.44,2.44,0,0,1,1.31.26,18.7,18.7,0,0,1,1.79,2c-.73.39-1.46,1.08-2.2,1.1a115.62,115.62,0,0,0-13.24.68c3.47,1,6.94,2.05,10.42,3a19,19,0,0,1,2.91.61c.68.33,1.12,1.17,1.67,1.78-.67.49-1.35,1.42-2,1.4-2.25-.07-4.49-.56-6.75-.71a19.65,19.65,0,0,0-5.83.42c2.93,2.63,6.42,3.55,10.05,4.13L270.43,475a7.36,7.36,0,0,1,5.94,4.32,88.05,88.05,0,0,1,3.18,10.32c.19.67-.23,1.51-1.09,2.6a26.22,26.22,0,0,1-2.32-3c-1-1.81-1.88-3.72-2.76-5.61-1.64-3.53-4.53-4.84-8.25-5.22-5.32-.55-10.65-1.19-15.87-2.26a25.8,25.8,0,0,1-7.7-3.3c-3.42-2-3.53-4.34-1.09-7-1.2-2-2.26-3.87-3.52-5.62-.41-.58-1.47-.63-2-1.15-1-.86-2.41-1.88-2.42-2.86s1.4-2.3,2.47-2.68c8.65-3.09,17.44-5,26.59-2.11a12.55,12.55,0,0,0,2.14.32l.84.3.09-.25Z"/><path class="cls-14" d="M59.37,290.65c-2.5,1.76-4.93,3.65-7.54,5.22-1.07.64-2.84,1.15-3.79.69-1.81-.87-1-2.74-.3-4.05,1.47-2.8,3.16-5.47,4.75-8.2.14-.23.27-.46.4-.69a1.23,1.23,0,0,0,.23-.11s0-.12,0-.18l-.18.33-.79.29c-5,5-9.87,10.1-14.86,15.09a19.09,19.09,0,0,1-2.82,2c-.39-1.12-1.12-2.24-1.1-3.35,0-3.24.38-6.48.37-9.79a29.26,29.26,0,0,0-5.17,13.15c-.53,3.62,0,7.39-.17,11.08-.06,1.17-.86,2.31-1.32,3.47-1.23-.71-3-1.12-3.6-2.19-2.08-3.71-1.25-7.78-.51-11.7A38.35,38.35,0,0,1,31.59,284c.9-1.07,2.64-1.45,4-2.15.68,1.44,1.89,2.86,2,4.32a74.31,74.31,0,0,1-.69,9.09c2.18-2.71,4.11-5.53,6.46-7.94,3.36-3.43,7-6.64,10.6-9.76,1.65-1.41,4-2.79,5.9-1s.55,4-.46,6c-.67,1.28-1.45,2.5-2.18,3.75l-.3.4.62-.09c1.36-.7,2.66-1.72,4.11-2a5.17,5.17,0,0,1,3.92.69c.78.67,1,2.48.78,3.67-.28,1.63-1.21,3.14-2,5.09a10.31,10.31,0,0,0,1.25-.44c2-1.16,4.12-1.72,6.07-.09s1.64,4,.8,5.81c-2.83,6.16-6,12.19-9.06,18.24a2.62,2.62,0,0,1-1.87,1c.18-7.81,4.3-14.31,6.34-21.85-2.72,1.47-5.42,3-8.19,4.36a11.88,11.88,0,0,1-2.9.63c-.14-1.11-.66-2.36-.33-3.3.9-2.55,2.17-5,3.29-7.44,0-.2,0-.4.07-.6Z"/><path class="cls-14" d="M464.51,468.74a48.39,48.39,0,0,1,6.49,1.32c1.08.38,2.7,1.7,2.6,2.38-.17,1.15-1.43,2.2-2.4,3.12a6.62,6.62,0,0,1-2.21.8l1.33.72,0,.76c-1.33,0-2.66,0-4,0a59.77,59.77,0,0,1-6-.08c-.84-.09-1.61-.85-2.42-1.31.54-.85.88-2.08,1.66-2.48a28.45,28.45,0,0,1,4.88-1.6l2.2-.65-.09-.68c-4.38.21-8.77.39-13.15.65-1.56.09-3.47.54-3.92-1.37-.5-2.13,1.42-2.58,3.06-3,3.73-.91,7.45-1.87,11.17-2.81l-.11-.95c-3.79.25-7.6.35-11.37.78A70.91,70.91,0,0,0,444,466c-1.57.38-3.24.86-4-1s.85-2.79,2.23-3.53a77.48,77.48,0,0,0,9.7-5.76c-4.64.68-9.27,1.46-13.93,2-5.08.6-8.82,2.94-11.11,7.59-1.51,3.08-3.14,6.11-4.82,9.11-.32.58-1.09.91-1.66,1.36-.18-.72-.65-1.51-.5-2.14a35.68,35.68,0,0,1,8.79-15.73c3-3.3,7.41-4.24,11.66-4.56a122.85,122.85,0,0,1,14.36,0c1.15,0,2.26,1.14,3.38,1.75a25.47,25.47,0,0,1-2,3,18.58,18.58,0,0,1-2.62,2.06c3.81.25,7.26.47,10.71.72a4.61,4.61,0,0,1,2.09.45c1.11.74,2.87,1.68,2.9,2.58,0,1.17-1.27,2.47-2.19,3.54A8.57,8.57,0,0,1,464.51,468.74Z"/><path class="cls-14" d="M593.61,244.29c-2.81-1-5.62-2-8.44-3-.42-.14-1,0-1.31-.26-.82-.52-1.54-1.19-2.31-1.79.82-.51,1.61-1.43,2.44-1.46,3.9-.16,7.8-.07,11.7-.07.06-.24.11-.47.16-.7-2.17-.47-4.33-1-6.51-1.38a30.51,30.51,0,0,1-3.75-.56,8.23,8.23,0,0,1-2.15-1.56c.69-.61,1.31-1.64,2.08-1.76,3.3-.51,6.64-.76,10-1.07a5.22,5.22,0,0,0,2.54-.56c-3-.51-6-1.21-9.09-1.48-4.6-.4-9.23-.44-13.84-.74a18,18,0,0,1-3.24-.8,15.34,15.34,0,0,1,1.36-3.58c1.91-2.69,4-5.23,6.07-7.83l-.7-.78a43.26,43.26,0,0,0-4.54,2.49c-3.11,2.19-6.1,4.57-9.17,6.82a24.36,24.36,0,0,1-4.11,2.61c-.63.28-1.62-.21-2.45-.35.2-.74.16-1.73.64-2.16,5.77-5.19,12-9.71,19.31-12.49,2.74-1,4.66.69,3.82,3.53a29.48,29.48,0,0,1-3.35,6.44,25.52,25.52,0,0,1-2.68,3.15c3.38.29,6.5.37,9.55.87,4.71.77,9.38,1.8,14,2.77a4,4,0,0,1,2,.85c.71.69,1.72,1.72,1.6,2.45s-1.35,1.67-2.25,1.87a37.44,37.44,0,0,1-5.64.4,14.6,14.6,0,0,1,2.87,1.6c.74.69,1.79,1.76,1.67,2.5a4,4,0,0,1-2.11,2.5,22.67,22.67,0,0,1-4.6,1.1c4.07,4,3.61,5.68-2.1,7.4-8.74,2.63-17.71,2.27-26.65,2.17l-.32-.82a13.11,13.11,0,0,1,3-1.25c6.89-1,13.8-1.89,20.7-2.84,1.86-.25,3.7-.58,5.55-.87Z"/><path class="cls-14" d="M277.48,193.61c-2.61-.24-5.23-.42-7.83-.72-10.94-1.29-20.34,1-26.32,11.27-6.07,10.43-6.15,20.81.22,31.15,3.49,5.66,9,9.1,14.21,12.85.83.6,1.54,1.36,2.31,2l-.47.6a3.21,3.21,0,0,1-1-.19c-7.18-4.13-14-8.73-19.26-15.28-7-8.77-7.37-21.83-1-32.52,5.36-9,13-14.58,23.78-14.89a21.69,21.69,0,0,1,15.3,5.72Z"/><path class="cls-14" d="M258.43,264.79c.42-3.58.82-7,1.23-10.51l.28,0c0,4.18.13,8.36-.12,12.53,0,.73-1.54,1.68-2.54,2-3.09,1-6.24,1.92-9.42,2.66-8.88,2.05-16.51,6.61-23.42,12.23-8,6.53-12.27,15.57-15.07,25.35a23.74,23.74,0,0,1-1.1,3.34c-.22.47-.87.74-1.32,1.1-.3-.5-.88-1-.86-1.49a37.47,37.47,0,0,1,.6-6.45c3.89-18.07,14.71-30.22,31.91-36.63a133,133,0,0,1,14.65-4.11C254.77,264.47,256.46,264.79,258.43,264.79Z"/><path class="cls-4" d="M293.85,267.93c2.13-9.65,4.22-19.3,6.45-28.91.19-.82,1.31-1.43,2-2.13.3.89.95,1.82.83,2.65-.91,6.1-2.12,12.16-3,18.27-2.07,15.19-4,30.41-6,45.62-.66,4.95-1.32,9.9-2,14.79l-5-.75h0l.54-1.66.13-2.14c.14-1.28.29-2.57.43-3.85l.09-1.07.42-3.28c.05-.54.09-1.08.13-1.62.15-1.1.29-2.2.44-3.3l.08-1.07.45-3.83c0-.72.09-1.44.13-2.16l.41-3.84.13-1.62.41-2.74.11-1.08.45-2.75.12-1.07.39-2.18c0-.37.08-.73.13-1.1l.93-5.13.27-2C293.58,269.33,293.72,268.63,293.85,267.93Z"/><path class="cls-14" d="M132,280.38c3.3,0,6.61-.14,9.89.1a3.83,3.83,0,0,1,2.52,2,2.66,2.66,0,0,1-.7,2.55,3.45,3.45,0,0,1-2.84-.46c-3.5-2.42-7.36-1.64-11.05-1.21-20.23,2.4-31.2,15.65-38.35,33.22-.84,2.08-1.19,4.36-2,6.48-.29.78-1.18,1.34-1.8,2-.63-.68-1.69-1.31-1.78-2.07a10.69,10.69,0,0,1,.39-4.27c4.11-14.06,12.07-25.29,24.62-33C117.34,281.7,124.54,280.53,132,280.38Z"/><path class="cls-14" d="M472.65,478.55c.18,2.41-1.64,3.19-3.12,3.56a66.51,66.51,0,0,1-11.16,2c-3.78.28-7.61-.17-11.42-.22s-4,.17-5,3.87a62.53,62.53,0,0,1-2.14,7.27c-.31.79-1.51,1.23-2.3,1.83-.33-.85-1-1.75-.92-2.52a97.49,97.49,0,0,1,2.19-10.59c.7-2.51,2.74-3.75,5.38-3.81,7.17-.17,14.34-.26,21.5-.52C468,479.36,470.25,478.87,472.65,478.55Z"/><path class="cls-6" d="M430.92,321.21a54,54,0,0,1,1.28-7.11c1.77-5.62,3.64-11.22,5.8-16.69a29,29,0,0,1,4.07-6.38,10.73,10.73,0,0,1,2.65-1.92l.68.52a19.86,19.86,0,0,1-.66,2q-5.17,11.22-10.39,22.4c-1.12,2.4-2.29,4.76-3.43,7.14Z"/><path class="cls-14" d="M605.53,350.89c-.91-2.43-2.14-4.79-2.65-7.29-1-4.7-1.56-9.47-2.12-14.23-.11-.94.69-2,1.07-3,.66.78,1.69,1.47,1.92,2.36.93,3.59,1.6,7.24,2.38,10.87a69.71,69.71,0,0,1,1.56,7.18c.14,1.29-.55,2.67-.87,4Z"/><path class="cls-6" d="M578.84,108.6A17.57,17.57,0,0,0,567,103.79a20.33,20.33,0,0,1-6.23-1c5.08-3.32,10.28-2.5,15.52-.67,2,1.45,4.17,2.79,6,4.42.69.6.78,1.91,1.14,2.9a22.74,22.74,0,0,1-3,0A5.88,5.88,0,0,1,578.84,108.6Z"/><path class="cls-14" d="M423.52,447.81c.7,1.63,1.41,3.26,2.19,5.05-4.73.81-13.23-9-13.44-15.38l10.19,9.27,0,0,.58.58,0,0,.58.58Z"/><path class="cls-6" d="M288.88,258.53c0,1.46.06,2.91.08,4.36C288.94,261.44,288.91,260,288.88,258.53Z"/><path class="cls-6" d="M293.45,270l-.27,2-1-.34Z"/><path class="cls-6" d="M287.93,313.67l-.13,2.14C287.84,315.1,287.88,314.39,287.93,313.67Z"/><path class="cls-6" d="M290.1,293.49c0,.72-.09,1.44-.13,2.16C290,294.93,290.06,294.21,290.1,293.49Z"/><path class="cls-6" d="M290.64,288c0,.54-.08,1.08-.13,1.62Z"/><path class="cls-6" d="M289,303.85c0,.54-.08,1.08-.13,1.62C288.92,304.93,289,304.39,289,303.85Z"/><path class="cls-6" d="M285.05,225.8l.14,1.62Z"/><path class="cls-6" d="M286.69,241.07l.12,1.63Z"/><path class="cls-6" d="M285.61,230.71c0,.54.08,1.08.13,1.62Z"/><path class="cls-6" d="M279.6,194.16l.15,1.08Z"/><path class="cls-6" d="M283.4,213.79l.13,1.1C283.48,214.52,283.44,214.16,283.4,213.79Z"/><path class="cls-6" d="M287.24,246.53c0,.36.07.72.1,1.08C287.31,247.25,287.28,246.89,287.24,246.53Z"/><path class="cls-6" d="M288.45,308.75l-.09,1.07Z"/><path class="cls-6" d="M284,217.63l.11,1.07Z"/><path class="cls-6" d="M277.39,182.18l.15,1.06Z"/><path class="cls-6" d="M287.78,250.35l.12,1.08Z"/><path class="cls-6" d="M276.85,179.46l.16,1Z"/><path class="cls-6" d="M286.17,236.18l.09,1.07Z"/><path class="cls-6" d="M289.52,299.48c0,.35,0,.71-.08,1.07C289.47,300.19,289.49,299.83,289.52,299.48Z"/><path class="cls-6" d="M284.5,221.44c0,.36.07.72.1,1.09Z"/><path class="cls-6" d="M276.31,176.73l.16,1.05Z"/><path class="cls-6" d="M291.16,284.21l-.11,1.08Z"/><path class="cls-6" d="M291.73,280.39l-.12,1.07Z"/><path class="cls-6" d="M292.25,277.11l-.13,1.1Z"/><path class="cls-6" d="M275.75,174l.17,1.06Z"/><path class="cls-6" d="M288.34,254.17l.12,1.07Z"/><path class="cls-14" d="M277.45,193.64l.2.13-.17-.16Z"/><path class="cls-11" d="M430.92,321.21v0Z"/><path class="cls-15" d="M405.61,109.07l.81-1.18a39.87,39.87,0,0,1,5,3c3.91,3.14,8.1,5.41,13.25,5.28,1.87,0,3.59-.53,4.28-2.6,4.29-2.07,8.62-4.06,12.86-6.22,7.79-4,15.52-8,23.27-12.08,0,2.2,1.7,1.31,2.51,1.09,2.69-.72,5.3-1.76,8-2.62,4.79-1.55,9.6-3.06,14.77-4.71-.22,1-.32,1.43-.41,1.85-4,1.5-8,3.11-12.08,4.48-10.33,3.46-20.3,7.49-28.86,14.56-3.38,2.78-7.38,4.82-11.13,7.16-1.53,1-4.26,1.28-3.46,3.73s3.35,1.51,5.19,1.11c4.45-1,8.11-3.42,11.55-6.34s7.3-5.85,11-8.77l.85.68-4.7,6.52c-7.05,3.44-10.58,9.64-12.88,16.7-.44,1.36-.33,3.08,1.74,3.57,1.66-6,5.95-13.28,9.8-16-1.49,2.8-2.71,4.88-3.69,7.07-.3.68,0,1.66.09,2.5a8.79,8.79,0,0,0,2.4-.58c1.8-1,3.51-2.19,5.26-3.3.6,1,2.95.47,2.3,2.59-.85,1.45-1.78,2.86-2.49,4.37-.25.54,0,1.32.08,2l1.9-.39L465,132l1.84,1.76-2.64,4.28.76.68,3-1.5,2.28,1.38c-2.57,2.67-5.2,5.3-7.71,8a25.42,25.42,0,0,0-6.91,15.07c-.08.83.54,1.72.84,2.59.6-.65,1.57-1.22,1.76-2,1.94-7.81,6.55-14,12.27-19.26a53.89,53.89,0,0,0,13.08-18.52c2.45-5.66,4.73-11.39,7.08-17.09l.71-.08c-3.58,9.59-7.09,19.19-10.76,28.74a60.78,60.78,0,0,1-10.93,18.39c-5,5.69-10.15,11.19-18,12.91L437.15,167l-3.28.28c-9,.67-18,1.14-27,2.08-5.64.59-11.21,1.85-16.8,2.92a10.3,10.3,0,0,0-2.69,1.43l.36.85,9.83-1.5-.75,2.48-.44,1.64c-1.05.71-2.06,1.48-3.15,2.11-7,4-14.15,7.27-22.25,3.35a67.35,67.35,0,0,1-7.83-5.06c-.58-.39-.93-1.18-1.53-1.51a11.15,11.15,0,0,0-2.35-.65,11.2,11.2,0,0,0-.15,2.23c.14,1.14.46,2.26.7,3.38-.15.84-.31,1.67-.47,2.5l-2.3,1.88a5.19,5.19,0,0,0-.45-1.09c-1.55.28-3.08.65-4.81,1a38.14,38.14,0,0,1-3.85-17l2.43-1.08c-.15-.89-.28-1.73-.42-2.58l.79-.74c2.18.56,4.33,1.24,6.54,1.66,5.14,1,9-1.55,10.38-6.61,3.14,1.3,6.46,2.24,7.94,5.92a3.39,3.39,0,0,0,2.72,1.78,7.89,7.89,0,0,0,4.55-2.06c1.67-2,1-4.29-.64-6.17-4.89-5.57-11.34-8.23-18.42-9.52-1.16-.21-2.45.34-3.68.54L357.84,148l2.87-.31.19-.41c-1.47-.62-2.93-1.28-4.43-1.83a1.72,1.72,0,0,0-1.21.14c-.38,2.25-2.31,1.41-3.58,1.83a24.88,24.88,0,0,0-4.6,1.55c-4.27,2.41-5,5.81-2.52,10.06a19.3,19.3,0,0,1,.75,1.8l-10.63-6.26c.54-.49,1-1,1.52-1.38a68.82,68.82,0,0,0,14.64-16.37c.39-.57.17-1.54.23-2.33a7.27,7.27,0,0,0-2.31.89,25.4,25.4,0,0,0-2.49,2.89c-5.72-13.89-13-27.14-13.37-42.55a99,99,0,0,1,3-28.07l.89.53c2.08,13.26,4.22,26.5,6.19,39.77.83,5.56,1.27,11.18,2,16.76a14.19,14.19,0,0,0,1,2.79l1,0c.28-1.22.9-2.47.8-3.66-.52-6.65-1.21-13.3-1.85-20-.06-.63-.19-1.25-.28-1.88l1.12-.07c.91,3.17,1.4,6.55,2.84,9.45,1.33,2.7,3.68,4.89,5.58,7.3l-2.45,4c.44.58.84,1.62,1.31,1.65a10.55,10.55,0,0,0,3.44-.56c7.05-2,11.93.09,15.2,6.66.52,1.05,1,2.1,1.54,3.15l.67-.33a19.62,19.62,0,0,0-5.68-12.09l-4-4.23a7.32,7.32,0,0,0-1.33-7c-1.63-4.7-3.61-9.32-4.84-14.13-2.45-9.66-4.36-19.47-10.29-27.82a9.25,9.25,0,0,1,2.23,1.78c1.93,3,3.66,6,5.54,9,5.27,8.38,11,16.44,18.11,23.38l-5.87,5.34c0,.31-.06.62-.08.94l1.21-.72,8-3.74,3.07-.44c4.52.62,9.06,1.14,13.56,1.92,1.38.24,2.64,1.18,4,1.8,1.07.78,2.1,1.65,3.24,2.32C403.06,110.3,404.5,110.9,405.61,109.07ZM417,161.91l6-1.22-.1-.52L417,161.3l-3.26.57a111.9,111.9,0,0,0-11.16,1.84c-6.63,1.75-13.18,3.83-19.71,5.93-1.35.44-3.18,1-2.67,3.66,1.78-.71,3.3-1.44,4.89-1.94,9.54-3,19.1-5.94,28.65-8.9Zm-4.86-38.1-.71-.53a13.81,13.81,0,0,0-9.51-2.29c-4.1.38-8.15,3.91-8.41,7.55a7.46,7.46,0,0,0,.86,2.62l2.32-.87c1,.58,1.91,1.56,2.92,1.65s2.19-.66,3.29-1.06c5.54-2,10.88-2.93,15.32,2.39a37.62,37.62,0,0,0,3.8,3.54,7.59,7.59,0,0,0-.72-4.22c-2.1-3.89-4.31-7.75-9.17-8.8Zm5.59,25.8a21.06,21.06,0,0,0-12.17-6.6,14.08,14.08,0,0,0-12.15,4.08,8.23,8.23,0,0,0-1.94,3.18c-.21.65.41,1.57.65,2.36.63-.37,1.49-.59,1.86-1.13a10.21,10.21,0,0,1,9.55-4.6,41.68,41.68,0,0,1,6.1,1.14Zm-67.18-7.39a7.87,7.87,0,0,0,2.34.58c4.34-.3,8.23.38,11.05,4.15.26.34,1.29.11,2,.14,0-.83.35-1.82,0-2.45C362.73,138.82,355.51,137.72,350.52,142.22Zm50.4,7.74.11,1.4,7-.78-.1-1.2ZM425,146.87l-.32-.62a19.3,19.3,0,0,0-3.43.51c-.59.19-1,1-1.46,1.47.7.14,1.5.57,2.08.37A19.63,19.63,0,0,0,425,146.87Z"/><path class="cls-16" d="M357,185.45l2.3-1.88c2.74,2.07,5.48,4.11,8.19,6.22a2.28,2.28,0,0,1,.82,1.34c.58,3.92,1.08,7.85,1.61,11.78l-.54.07-3.09-1.91c-.59-1.28-1.14-1.24-1.65.05q-.5,3.06-1,6.12l.28,1.13c.33,1.33.56,2.7,1,4,.64,1.83,1,4.07,2.3,5.28a21,21,0,0,0,6.83,4.09c1.5.59,3.41.11,5.14.11l.07-.82-3.21-1.25-2.89-2.07c-2.54-.65-3.63-2.44-3.82-4.92l1.26-1.22c1.1.22,2.21.42,3.31.66,2.34.52,4.69,1.06,7,1.6l1.11-.79c2.68-.37,3.81-2.48,5.12-4.46q8.6-13,17.24-25.88l2.17.58c1.24,0,2.87.58,3.59,0s.65-2.3.83-3.53a4,4,0,0,0-.25-1.29l1.89-1.39,1.56.32,1.19.14,9,1.17-.37-.88-2.36-1-.86-.14-.6-.16-1.55-.68-9.14-1.8c-1.5,0-2.55-.48-2.39-2.24l1.54-.31c.68,1.1,1.27,1.18,1.73-.16l2.09-.35,1.73-.17,2.63-.42,1.18-.11,2.64-.37,1.18-.15,12-1.74,3.75-.15,6.58-.33c0,.91,0,1.82.05,2.73.17,1.13-.07,2.69.58,3.31,2.79,2.66,4.13,6.86,8.43,7.95.89.22,1.6,1.12,2.39,1.71v.5c-.62,1.51-2.12,3.38-1.68,4.45.81,2,.07,2.91-1.08,3.93-3.73,3.29-7.49,6.57-11.29,9.78a110.37,110.37,0,0,1-36.89,20.33c-9.68,3.21-19.64,4-29.7,4.24-6.62-3.73-13.31-7.33-19.83-11.24-3.87-2.32-7.65-4.43-12.38-4.08a21.54,21.54,0,0,1-4.18-.44c.1-1.56.18-2.83.25-3.79,1.11-1.26,2.18-2.49,3.25-3.72l-2.56-1-2.4-2.95-2-1.75-1.67-.93-.47-.33-.5-.24-2.25-1.48-.12-1.76v-.25l3.19-.74c-1.87-2.64-4.29-2.15-6.35-2.63l.54-2.51,1-.27,1.16-.21,5.61-.88c-6.68-2.56-9.86-8.18-14.4-12.23l.66-2.53,1,.31c1.05,1.61,2.15,1.52,3.28.08,1.5-.74,3.78-.37,4.11-2.82l2.5-.83,3.19.32c.79,1.57,1.77,1.17,2.79.27l3.21.27,3.7,3.71c.1.89.19,1.77.29,2.66l.26,1.7.33,1.56.24,1.17c.77,2.11,1.45,4.26,2.33,6.31,1.43,3.32,2.74,3.65,5.83,1.66Zm69.76-7-1.65-.21-.07.43,1.72.36,2.42.47.07-.44ZM400.09,210l.48-1.79-.73-.14-.28,1.82c-3,4.19-6.68,7.68-11.71,9.65C391.38,222.51,398.54,216.66,400.09,210Zm30.22-30.41.13.36.91-.15,0-.21Z"/><path class="cls-17" d="M312.59,145.24l-.23-.4c1.78-1.69-1.16-1.24-1-2.2-1.52-5-2.76-10.17-4.63-15.08-4.61-12.1-4.82-24.45-2.81-37,1.58-9.85,3.1-19.72,4.62-29.58a11.1,11.1,0,0,0,0-1.63.44.44,0,0,1,0-.3q1.09-3.89,2.2-7.78l6.53,4.82c-.21,1.14-.41,2.29-.61,3.43l0-.06c-.2.57-.39,1.14-.58,1.71-1.56,5.29-3.65,10.49-4.57,15.89a151.69,151.69,0,0,0-1.39,43.38c.84,7,3.71,13.8,5.66,20.69.35,1.21.69,2.43,1.17,4.1a8.56,8.56,0,0,0-2.33-.77,5.23,5.23,0,0,0-1.82.69Z"/><path class="cls-17" d="M355.1,118.68c-1.9-2.41-4.25-4.6-5.58-7.3-1.44-2.9-1.93-6.28-2.84-9.45-.72-2.89-1.49-5.77-2.15-8.68C342.9,86,341.31,78.8,339.7,71.58c-.21-4.16-.47-8.32-.58-12.48,0-.61.68-1.25,1.05-1.87L345.76,65c.54,1.41,1.12,2.82,1.63,4.25,1.81,5.07,3.78,10.1,5.35,15.26,1,3.27,1.05,6.84,2.15,10.07a125.53,125.53,0,0,0,5.75,13.65c.41.87,2.1,1.13,3.21,1.67a7.35,7.35,0,0,1,1.32,7C361.48,115.63,358.28,117.1,355.1,118.68Zm-3.5-18.24c-.26,4.2,2.79,8.5,6,8.64Z"/><path class="cls-18" d="M298.87,36.23c.14,1.72.29,3.45.43,5.18l-.05.75c-5.09-.82-10.18-1.71-15.29-2.44-1.93-.27-2.91-1-2.76-3.08.3-4.15,0-8.42.86-12.44a16.17,16.17,0,0,1,4.31-7.28,7.76,7.76,0,0,1,9.08-1.64c2.71,1.23,4.19,5,3.83,8.2-1.9.08-3.88-.33-5.33.37-1.7.82-1.73,4.92-.72,7,1.13,2.38,2.1,4.81,5.49,4Z"/><path class="cls-9" d="M374.59,102.09c-7.14-6.94-12.84-15-18.11-23.38-1.88-3-3.61-6-5.54-9a9.39,9.39,0,0,0-2.22-1.78c-.68-1-1.35-2-2-3l-.84-3a4.4,4.4,0,0,0,.39-.35h1.12l-.06,0,1.06.67,0,0,.46.56q11.87,15.06,23.73,30.13c2.06,2.62,4,5.34,6.12,8.22Z"/><path class="cls-9" d="M315.78,39.32c3.59-1.6,7.31-3,9.34-7.56l-6.45,2.6a8.33,8.33,0,0,1,.39-1.29c1.61-3.55,2.56-7-1.19-9.93-.44-.34-.54-1.1-.8-1.67,1.57.11,3.14.28,4.71.31,1.11,0,2.23-.14,3.66-.25,2,2.27,1.86,5.3,1.34,8.23a35.22,35.22,0,0,1-2.22,7.55c-2,4.81-4.34,9.5-6.58,14.33l-5.39-4.38Q314.2,43.3,315.78,39.32Z"/><path class="cls-19" d="M330.09,168.08c-.33,2.45-2.61,2.08-4.11,2.82l-3.28-.08-1-.31L318.43,169l-1.61-1.17-.25,0s-.07,0-.1.06l.38-.09.88,1.92L321,173c4.54,4.05,7.72,9.67,14.4,12.23l-5.61.88-1.16.21-1,.27-5.83,2,.2.49h5.09c2.06.48,4.48,0,6.35,2.63l-3.19.74L327.52,191h-11.2c.61-2.5,3.05-4,12.94-7.44-2-1.69-3.89-3.18-5.68-4.77a81.85,81.85,0,0,1-8.09-7.58c-1.5-1.75-2.12-4.26-3.14-6.43l.6-.92,6.44-.16c1.47-.13,1.84.64,1.55,1.94l-2.71-.22c3,2.24,6,4,10.36,3.25l-1.53-1.13,2.16-.77Z"/><path class="cls-20" d="M309.67,19.08c-1.53-2.88-3.38-3-4.95-.29a50.38,50.38,0,0,0-2.29,5c-.51-2.18-.72-4.63-1.69-6.71s-2.69-3.75-4.25-5.82c2.07-2.88,4.08-6.72,8.76-6.54,3.26.13,5.4,2.5,6.44,5.52C312.81,13.5,312,16.42,309.67,19.08Z"/><path class="cls-17" d="M360.11,149.56c1.23-.2,2.52-.75,3.68-.54,7.08,1.29,13.53,3.95,18.42,9.52,1.65,1.88,2.31,4.21.64,6.17a7.89,7.89,0,0,1-4.55,2.06,3.39,3.39,0,0,1-2.72-1.78c-1.48-3.68-4.8-4.62-7.94-5.92-.32-1.87.75-1.64,1.94-1.32a49,49,0,0,0,8.77,1.77Z"/><path class="cls-18" d="M317.07,21.47c.26.57.36,1.33.8,1.67,3.75,2.94,2.8,6.38,1.19,9.93a8.33,8.33,0,0,0-.39,1.29l-7.79,2.2c.38-2.11.61-3.28.78-4.44.11-.72.45-1.74.12-2.1a2.6,2.6,0,0,0-2.17-.57,45,45,0,0,0-4.7,1.65c-.61-1.52-.7-2.46,1.29-2.91a4.42,4.42,0,0,0,2.68-2.05C310.56,22.58,313.62,21.75,317.07,21.47Z"/><path class="cls-20" d="M318.15,159a15.06,15.06,0,0,0,2.49,0c9.37-2.14,16.56,4.22,25,5.77l-.09.89a7.11,7.11,0,0,1-1.56.24c-5.87-.41-11.75-.74-17.6-1.33C322.87,164.23,320.66,161.75,318.15,159Z"/><path class="cls-9" d="M322.41,6.46c3.26,4.12,3.44,8.65.52,12.26l-5.21-1.22c3.25-4.72,3.25-4.72-1.25-8.18-.29-.22-.6-.4-.9-.6l.08,0-.42-.47-1.14-2.25,3.29-1.17,3.73.56,0,0Z"/><path class="cls-20" d="M315.78,39.32q-1.59,4-3.19,7.94L303,43.19l.09-1c.52-.13,1.22-.08,1.54-.41C307.84,38.57,312,39.87,315.78,39.32Z"/><path class="cls-9" d="M312.59,145.24l.31-.11c4.6,1.52,6.82,5.09,8.17,9.76l-6-1.7Q313.82,149.21,312.59,145.24Z"/><path class="cls-1" d="M339.7,71.58c1.61,7.22,3.2,14.45,4.83,21.67.66,2.91,1.43,5.79,2.15,8.68l-1.12.07Q342.64,86.79,339.7,71.58Z"/><path class="cls-9" d="M405.61,109.07c-1.11,1.83-2.55,1.23-3.9.44-1.14-.67-2.17-1.54-3.24-2.32-1-1.33-1.89-2.69-2.88-4-.69-.92-1.46-1.77-2.2-2.65l.52-.55,2.89,2.1Z"/><path class="cls-20" d="M315.57,8.72c.3.2.61.38.9.6,4.5,3.46,4.5,3.46,1.25,8.18l-2.15.28Z"/><path class="cls-1" d="M354.89,154.09c3.72-1.5,8.54.71,10.36,4.57Z"/><path class="cls-1" d="M337.75,54.52c-4.83-4.13-5.52-10.47-1.91-15.69C333.47,44.43,335.41,49.49,337.75,54.52Z"/><path class="cls-1" d="M327.06,167.49l1.53,1.13c-4.34.78-7.39-1-10.36-3.25l2.71.22Z"/><path class="cls-1" d="M328.73,157.35c5-3.13,7.11,1.57,10.4,2.3l-.25.87Z"/><path class="cls-21" d="M345.85,61.89l.84,3-.93.1-5.59-7.76c0-.4,0-.79.05-1.18l.82.13Z"/><path class="cls-1" d="M322.87,150.52l5.74,3.31-4.38,1.71C323.8,154,323.43,152.56,322.87,150.52Z"/><path class="cls-9" d="M345.85,61.89c-1.6-1.91-3.21-3.81-4.81-5.71l1.55,0,3,2.81.62,1v0l0,1.61A4.4,4.4,0,0,1,345.85,61.89Z"/><path class="cls-11" d="M309.08,152.73l-6-1.7v-1l6.09,1.65Z"/><path class="cls-15" d="M345.48,171.82l-3.7-3.71h3.7Z"/><path class="cls-1" d="M298.87,36.23l-.15-1.35,1.69-3.2h.46C302.45,34.17,299.74,34.79,298.87,36.23Z"/><path class="cls-6" d="M381,103.47l-3.07.44Z"/><path class="cls-1" d="M303.12,42.23l-.09,1-3.78-1,.05-.75Z"/><path class="cls-9" d="M316.27,156.88c0-.51-.1-1-.14-1.53l3.62.87Z"/><path class="cls-1" d="M342.59,56.15l-1.55,0-.82-.13c-.15-.4-.31-.79-.46-1.19l.37-.41Z"/><path class="cls-15" d="M330.09,168.08l-.87-1.36,3.37.53Z"/><path class="cls-1" d="M321.11,5.44l-3.73-.56Z"/><path class="cls-12" d="M392.91,100.29l-2.31-2.18.52-.56,2.43,2C393.34,99.83,393.12,100.06,392.91,100.29Z"/><path class="cls-15" d="M338.57,167.84c-1,.9-2,1.3-2.79-.27Z"/><path class="cls-1" d="M336.75,68.19l-.89-.53c.18-.73.36-1.46.55-2.19l.34.1Z"/><path class="cls-1" d="M316.73,59.5c.2-1.14.4-2.29.61-3.43C317.13,57.21,316.93,58.36,316.73,59.5Z"/><path class="cls-1" d="M350.72,164l-.79.74-1.67-1.19.36-.63Z"/><path class="cls-12" d="M300.87,31.67h-.46V28.57h.46Z"/><path class="cls-1" d="M346.24,61.54l0-1.61,1.15,1.61Z"/><path class="cls-15" d="M346,176.18c-.08-.56-.17-1.13-.26-1.7C345.86,175.05,346,175.62,346,176.18Z"/><path class="cls-1" d="M322.41,6.46l-1.34-1Z"/><path class="cls-15" d="M346.6,178.91l-.24-1.17Z"/><path class="cls-11" d="M369.85,107.65l-1.21.72c0-.32.05-.63.08-.94Z"/><path class="cls-1" d="M316.18,61.15c.19-.57.38-1.14.58-1.71C316.56,60,316.37,60.58,316.18,61.15Z"/><path class="cls-1" d="M348.36,62.18l-1.06-.67Z"/><path class="cls-1" d="M346.21,60l-.62-1Z"/><path class="cls-9" d="M392.91,100.29c.21-.23.43-.46.64-.7l.36.41c-.17.19-.35.37-.52.55Z"/><path class="cls-20" d="M315.23,8.3l.42.47Z"/><path class="cls-12" d="M336,37.78c.06,0,.13,0,.16,0a1,1,0,0,1,.08.18h-.32Z"/><path class="cls-12" d="M340.06,160.6l-.09.17-.29-.19.2-.18Z"/><polygon class="cls-12" points="340.95 161.09 341.02 161.21 340.87 161.19 340.95 161.09"/><path class="cls-1" d="M348.78,62.71l-.46-.56Z"/><path class="cls-22" d="M455.7,183.27c-.79-.59-1.5-1.49-2.39-1.71-4.3-1.09-5.64-5.29-8.43-7.95-.65-.62-.41-2.18-.58-3.31l7.06-2.83.16-.06.17,0c7.84-1.72,13-7.22,18-12.91a60.78,60.78,0,0,0,10.93-18.39c3.67-9.55,7.18-19.15,10.76-28.73.27-1.09.55-2.17.83-3.26l0,0,.58-1.39c2.16-4.64,4.35-9.25,6.44-13.92a14.52,14.52,0,0,0,.64-3.2l0-.83,3.41-.37c-1.58,5.6-3,10.75-4.49,15.87-4.71,16-9.22,32.08-16.42,47.24-4.32,9.07-9.13,17.61-18.54,22.39a7.37,7.37,0,0,1-3,.87c-4.8.09-9.6,0-14.52.39,3,.82,6,1.79,9.07,2.43s6.44,1.09,9.68,1.52,6.45.73,10.38,1.17c-.9.85-1.32,1.51-1.91,1.75-4.86,1.94-9.73,3.87-14.65,5.66-1.41.51-1.41.89-.32,1.7-.21.25-.42.5-.86,1.05l5.16.68c2.24,2.59,4.73.72,7.13.4l10.75-1,.21.82a62.9,62.9,0,0,1-19,11.89c-2.25.85-4.77,1-7.09,1.69-.86.27-1.49,1.25-2.23,1.9.82.56,1.65,1.62,2.45,1.59,4.05-.17,8.09-.62,12.13-1l.65.84A67.21,67.21,0,0,1,449.71,215l-1.44.49-1.33.42-7.1,1.17c-1.42.22-2.1.81-1.13,2.24l2.37,1.14,3.7,0,2-.15,1.87,1.73c-.25.26-.46.63-.77.76-15.55,6.46-31.3,11.09-48.19,5.25l-1.26-.09,1.08,1.25,3.76,1.59,1,1c-2.14-.24-4.28-.56-6.43-.7-7.82-.48-15.68-.63-22.79-4.6,10.06-.27,20-1,29.7-4.24a110.37,110.37,0,0,0,36.89-20.33c3.8-3.21,7.56-6.49,11.29-9.78,1.15-1,1.89-2,1.08-3.93-.44-1.07,1.06-2.94,1.68-4.45Z"/><path class="cls-15" d="M589.51,61.14c.81,0,1.63,0,2.43,0,2.54.27,4.16,2.25,3.17,4.51-.88,2-2.61,3.58-4,5.35-.78-2.41-2.35-2.83-4.56-1.87a4.45,4.45,0,0,1-1.64.07c-.16-.51-.31-1-.67-2.21-.47,1.19-.68,1.71-.88,2.24a9.58,9.58,0,0,1-1.18,5.51c-.66,1.2-.17,3-.19,4.58q-2.17,7.62-4.34,15.22c-9.22-3.19-18.21-2.5-27.14,2,.17-2.23.41-4.09.44-6a25.92,25.92,0,0,0-4.77-15.37c-2.67-3.87-2-7.24.7-10.66,3.7-4.68,7.93-8.27,14.43-7.62l2.31,4.05c.12.67.24,1.34.37,2-1.09,1.07-2.15,2.17-3.27,3.21-1.45,1.33-3,2.61-4.42,3.91-1.68,2.93-1.38,6,1.33,7.27a16.65,16.65,0,0,0,8,1.73c5.52-.49,9-5.39,9.45-12.13,1.14-.14,2.89.13,3.33-.5C581.18,62.64,585.82,62.91,589.51,61.14Z"/><path class="cls-18" d="M562.3,52.89l-11.71,1.66c-1.85-2.84-1.55-7.83,1.09-11.24,3.78-4.88,8.2-6.2,13.88-4.15C565.31,43.93,565.06,48.71,562.3,52.89Z"/><path class="cls-9" d="M577.68,94.59Q579.84,87,582,79.37c1.88,1.35,3.46.82,5.1-.61a11.67,11.67,0,0,1,3-1.36c-2.06,7.51-3.94,14.38-5.88,21.47Z"/><path class="cls-9" d="M576.66,40.17c3.54-1.52,7-1.36,9.89,1.24,3.16,2.8,4.62,9.56,3.13,13.43a5.93,5.93,0,0,1-5.92,4.06c-.47-1.49-.9-2.83-1.33-4.18.33-1.84,1-3.7.9-5.52C583.12,44.81,581,41.61,576.66,40.17Z"/><path class="cls-17" d="M575.12,67.07c-.45,6.74-3.93,11.64-9.45,12.13a16.65,16.65,0,0,1-8-1.73c-2.71-1.24-3-4.34-1.33-7.27l.27.23.48,1.06,0,0c.63,2.17,2.49,2.16,4.16,2.17,5.46,0,9.11-2.67,10.77-7.81.16-.5.36-1,.62-1.66Z"/><path class="cls-18" d="M576.66,40.17c4.35,1.44,6.46,4.64,6.67,9,.09,1.82-.57,3.68-.9,5.52-3.07-1.24-6-1.81-8,1.8-.05.1-.72-.14-1.1-.22l-1.68-1.91a10.64,10.64,0,0,0,2.13-9.2C573.28,42.61,574.25,41,576.66,40.17Z"/><path class="cls-9" d="M562.3,52.89c2.76-4.18,3-9,3.26-13.73,1.68,1.09,4.74,2.16,4.77,3.29.08,3.65,1.28,7.88-2.26,10.69l-2-2.5-2.21,2.72Z"/><path class="cls-21" d="M446.79,220.29l-2,.15-3.7,0-2.37-1.14.79-.69a75.93,75.93,0,0,0,9.19-.42c4.6-.75,8.93-2.32,11.95-6.25l4.44-1.91c-3.42,3.3-6.81,6.63-10.26,9.89a15.5,15.5,0,0,1-2.38,1.56l.09-1.57,1.21-1.41Z"/><path class="cls-9" d="M556.33,70.2c1.47-1.3,3-2.58,4.42-3.91,1.12-1,2.18-2.14,3.27-3.21l4.82,2.55c-.46,2.33-2.34,3.78-4.76,4.47s-4.68.91-7,1.35l0,0-.48-1.06Z"/><path class="cls-1" d="M460.64,212c-3,3.93-7.35,5.5-11.95,6.25a75.93,75.93,0,0,1-9.19.42c.14-.23.29-.46.44-.69l7.05-1c3.45-1.15,6.92-2.27,10.35-3.48A35.11,35.11,0,0,0,460.64,212Z"/><path class="cls-9" d="M563.65,61.06,561.34,57l4.17.48Z"/><path class="cls-19" d="M447,217l-7.05,1-.1-.86,7.1-1.17Z"/><path class="cls-1" d="M571.68,54.39l1.68,1.91a19.52,19.52,0,0,0-2-.1,10.19,10.19,0,0,0-1.53.26l-.21-.63Z"/><path class="cls-1" d="M467.85,204.35l-.65-.84,1.87-.63.22.41Z"/><path class="cls-3" d="M583.39,69.28c.2-.53.41-1,.88-2.24.36,1.19.51,1.7.67,2.21Z"/><path class="cls-1" d="M480.9,187.41l-.21-.82,2.3-.6Z"/><path class="cls-19" d="M448.27,215.5l1.44-.49Z"/><path class="cls-2" d="M469,280l.82-.2c-.09.26-.17.53-.26.8Z"/><path class="cls-1" d="M482.93,186l.46-.1A2.36,2.36,0,0,0,482.93,186Z"/><path class="cls-9" d="M591.41,78.24c.09.29.19.58.29.87C591.6,78.82,591.5,78.53,591.41,78.24Z"/><path class="cls-16" d="M619.11,136.25c3.87-2.84,7.77-5.34,10-9.67,1-1.94,1.77-4,2.77-5.91.75-1.47.18-2.13-1-3.09-4.05-3.33-8.49-6.41-11.74-10.42-8.71-10.71-7-23.17,3.8-31.9,9.37-7.6,20.4-10.91,32.06-12.49,10-1.36,20.22-1.61,30.1.54,15,3.25,29.57,7.82,40.56,19.5,6,6.43,9.54,13.83,6.51,22.84-2.38,7.11-7.76,11.72-14,15.35-9.12,5.29-19.12,7.74-29.52,8.81A104.2,104.2,0,0,1,653,127.07a5.05,5.05,0,0,0-3.45.69,54.29,54.29,0,0,1-28.57,8.59C620.32,136.36,619.72,136.29,619.11,136.25Zm57.74-7.51c12.17-1.66,23.79-4.61,34.48-10.58,4.94-2.76,9.64-5.87,12.42-11,.44-.82.24-2,.34-3-.94.28-2.12.28-2.78.87-10.61,9.39-23.43,13.47-37.07,15.54-4.3.66-8.64,1-12.9,1.8a3.84,3.84,0,0,0-2.45,2.6c-.12.72,1.26,2.11,2.25,2.49A34.67,34.67,0,0,0,676.85,128.74Z"/><path class="cls-9" d="M499.86,84.85l0,.83a18.38,18.38,0,0,0-2.65,1c-2.44,1.34-4.84,2.78-7.25,4.18l.41-1.85c-5.17,1.65-10,3.16-14.77,4.71-2.66.86-5.27,1.9-8,2.62-.81.22-2.5,1.11-2.51-1.09C475.94,89.28,487.65,86.25,499.86,84.85Z"/><path class="cls-9" d="M429,113.57c-.69,2.07-2.41,2.55-4.28,2.6-5.15.13-9.34-2.14-13.25-5.28a39.87,39.87,0,0,0-5-3c-.33-1.1-.67-2.2-1-3.3l.48-.3c.66.77,1.32,1.55,2,2.31,2,2.23,3.3,2,4.44-.66.17-.39.4-.75.7-1.3C417,110.26,422.41,113,429,113.57Z"/><path class="cls-12" d="M506.8,77.67l-.14.16c-.05-.06-.13-.12-.12-.17s.08-.1.13-.15Z"/><path class="cls-16" d="M129.16,99.22c3.2-4.41,6.25-8.87,7.37-14.39.49-2.46,0-3.41-2.62-4.08a49.61,49.61,0,0,1-11.64-4.37c-8.84-4.92-11.46-13.68-7.22-22.88,3.25-7.06,8.68-12.23,14.92-16.62a81.57,81.57,0,0,1,36.42-14.23c11.08-1.48,22.28-1.86,32.86,3a33,33,0,0,1,6.31,3.71c6.9,5.29,8.61,13.07,4.75,21.18-3.94,8.27-10.59,14-18.22,18.63a88,88,0,0,1-41.4,12.91,5.25,5.25,0,0,0-3.42,2,53.92,53.92,0,0,1-15.22,14.2,15.86,15.86,0,0,1-2.73,1.09Zm34.93-21.9a29.81,29.81,0,0,0,4.55-1.4c4.94-2.29,9.84-4.66,14.68-7.15a66.6,66.6,0,0,0,19.84-16,48.87,48.87,0,0,0,5.66-8.59c.5-.92-.17-2.47-.3-3.73a10.58,10.58,0,0,0-2.82,1.81c-8.52,10.65-18.08,19.91-31.39,24.37-4.21,1.41-8.45,2.75-12.59,4.35-1.68.65-4.25,1.51-3.41,3.77.46,1.24,3,1.73,4.57,2.53C163,77.39,163.23,77.32,164.09,77.32Z"/><path class="cls-16" d="M129.32,99.38l-.5.13.34-.29Z"/><path class="cls-23" d="M33.84,133.84c-.53-5.31.84-10.78,2.84-16.1-4-.91-7.72-1.6-11.35-2.66a25.17,25.17,0,0,1-6.15-2.82c-7.13-4.48-8.18-11.39-3-18.08C21,88,27.56,84.37,34.58,81.5,44.63,77.39,55.13,75.22,66,76.6A59,59,0,0,1,82.64,81c8.49,3.83,9.91,11.76,4.17,19.08-4.7,6-11.18,9.57-18.12,12.09-5.5,2-11.36,3-17,4.6a9.49,9.49,0,0,0-4.25,2.12C42.76,123.79,38.31,128.88,33.84,133.84Zm22-20.26c9.66-2.24,19.52-4.63,26.53-13a4.39,4.39,0,0,0,1.22-2.36,10.33,10.33,0,0,0-.89-3.08c-.85.3-1.92.36-2.52.92a30.89,30.89,0,0,1-15.12,8.1c-4.06.87-8.18,1.56-12.16,2.72-1.15.33-2.67,2.06-2.63,3.09s1.74,2.13,2.87,3C53.75,113.41,54.71,113.35,55.85,113.58Z"/><path class="cls-24" d="M715.38,187.08c-.27-4.1-.51-7.76-.76-11.42a6.09,6.09,0,0,0-.28-1.32c-.73-2.55-1.7-4.17-5-4.49-10.33-1-20.08-4-28.43-10.55-2.67-2.08-5.41-4.52-4.78-8.29s4.09-5.15,7.37-6a49.78,49.78,0,0,1,35,3.14c5.5,2.6,11,5.34,14.79,10.35,2.78,3.64,2.19,6.86-1.88,9a26,26,0,0,1-6.66,2.19c-1.72.36-2.32,1-2.49,2.78C721.71,178,719.22,182.67,715.38,187.08Zm6.08-20,.15.45c2.09-.72,4.34-1.16,6.21-2.25,1-.58,1.31-2.28,1.94-3.47-1.3-.61-2.61-1.74-3.89-1.71a15.63,15.63,0,0,0-6,1.44c-1.39.63-3.42,2.07-3.4,3.12,0,2.11,2.32,2.32,4.17,2.42C720.92,167.05,721.19,167,721.46,167Z"/><path class="cls-23" d="M256,98.55c-2.8-3-5.78-5.83-8.3-9-1.13-1.43-1.84-1.69-3.48-1.18-9.54,2.94-19.1,3.34-28.52-.48-4.64-1.88-8.75-4.63-9.41-10s2.53-9.23,6.67-12c12.76-8.53,26.51-10.07,41-5.14a13.64,13.64,0,0,1,2.2,1.09c7.69,4.27,9,11.88,2.7,18-4,3.86-4,8.26-3.34,13a45.36,45.36,0,0,0,1.31,5.16Zm-24.1-10.06c5.27-1.56,10.57-3,15.78-4.75a7.94,7.94,0,0,0,3.45-2.92,3.27,3.27,0,0,0-.17-2.86c-.21-.37-1.77-.22-2.6.06-3.66,1.24-7.22,2.77-10.92,3.84-2,.57-4.17.23-6.2.61-1.78.33-4.43.47-4.28,2.85S229.72,87.65,231.86,88.49Z"/><path class="cls-20" d="M469.94,187.6c-2.4.32-4.89,2.19-7.13-.4Z"/><path class="cls-3" d="M375.06,226.5c7.11,4,15,4.12,22.79,4.6,2.15.14,4.29.46,6.43.7l5.25,1.17c-6.16,4.88-13.14,6.08-20.74,4.78-7.14-1.22-13.24-4.39-19.18-8.53-6.52-4.55-13.73-8.11-20.67-12.07a16.54,16.54,0,0,0-5.11-1.93l3.81,6.87,3.35,6c1.89,3.67,3.78,7.33,5.65,11a3.33,3.33,0,0,1,.36,1.3c.09,1.46.93,3.42-1.17,3.91s-2.28-1.59-2.69-3c-.67-2.25-1-4.63-1.87-6.8-1.07-2.74-2.48-5.34-3.8-8-1.93-3.84-3.88-7.68-5.9-11.47a3.14,3.14,0,0,0-1.56-1.12,30.82,30.82,0,0,1-4.76-1.82c-.75-.45-1-1.79-1.38-2.75-.08-.2.14-.53.06-.74-1.43-3.5-1.43-3.5,2.16-4.86a9.46,9.46,0,0,0,1.06-.64,48.7,48.7,0,0,1-5-2c-1.59-.84-3.72-1.57-2.5-4.18l.72,0,.53.51c1.9,3.45,5.69,3.42,8.75,4.75l2.56,1c-1.07,1.23-2.14,2.46-3.25,3.72-.07,1-.15,2.23-.25,3.79a21.54,21.54,0,0,0,4.18.44c4.73-.35,8.51,1.76,12.38,4.08C361.75,219.17,368.44,222.77,375.06,226.5Z"/><path class="cls-4" d="M452.53,219.94l-.09,1.57c-6,4.66-12,9.31-17.94,14-1.14.89-2.16,1.93-3.24,2.9l-.78.93v0a16,16,0,0,0-1.66.67c-2.51,1.39-4.69,3.36-7.94,3.13-2.14-.15-3.55,1.09-4.08,3.43a28.77,28.77,0,0,1-2.06,4.93,1,1,0,0,0-.52,0c.35-2.31.69-4.62,1-6.77h-8c0-.28,0-.56,0-.84,3.36-1.3,6.73-2.57,10.08-3.91a33.9,33.9,0,0,0,13.11-9.35l-3.61.74c-2.78.34-5.56.77-8.35,1s-5.59.21-8.38.31l-6.73-1.87-3.76-1.59.18-1.16c16.89,5.84,32.64,1.21,48.19-5.25.31-.13.52-.5.77-.76Zm-14.28,8.6,1-.5.65-.42-.6.45-1,.48-.52.31.18.16Zm-4.58,1.26-2.11.28.07.5h2c2.22,2.3,2.27-1.13,3.49-1.56Z"/><path class="cls-6" d="M348.86,222c1.53-1.73,2.4-.28,3.51.64,4.8,4,9.34,8.36,14.56,11.69,6.92,4.42,14.31,8.18,22.74,9.06a9.73,9.73,0,0,1,2,.72c-9.14,2.3-17.58,1-25-4.23-5.31-3.69-10-8.27-15-12.46Z"/><path class="cls-17" d="M407.21,244.71h8c-.32,2.15-.66,4.46-1,6.77-.17.55-.35,1.1-.53,1.65-5.21-.16-10.44-.11-15.62-.57-2.35-.2-4.64-1.35-6.91-2.2-.43-.16-1-1-.9-1.36a2.39,2.39,0,0,1,1.28-1.46c3.68-1.18,7.4-2.24,11.1-3.34.14.11.28.23.43.33Z"/><path class="cls-10" d="M307.24,58.81a23.73,23.73,0,0,1-2.9-.89c-5.29-2.34-10.55-4.74-15.82-7.13a3.62,3.62,0,0,1-1.41-.77,34.32,34.32,0,0,1-1.86-3c1.12,0,2.45-.45,3.34,0,5.79,2.93,11.51,6,17.21,9.15a10,10,0,0,1,1.9,1.84Z"/><path class="cls-17" d="M414.74,251.47a28.77,28.77,0,0,0,2.06-4.93c.53-2.34,1.94-3.58,4.08-3.43,3.25.23,5.43-1.74,7.94-3.13a16,16,0,0,1,1.66-.67c0,.26.21.61.1.76-4.24,5.57-8.25,11.45-16,12.58C414.65,252.26,414.69,251.86,414.74,251.47Z"/><path class="cls-25" d="M370.59,251.75c0-2.68,1.08-3.23,2.85-3,1.45.2,2.92.29,4.37.48a17.59,17.59,0,0,1,3.43.61,3.47,3.47,0,0,1,2.58,4.2c-.39,2.25-2.16,2.7-3.92,2.33a37.55,37.55,0,0,1-7.41-2.34C371.52,253.62,371,252.24,370.59,251.75Z"/><path class="cls-17" d="M426.74,231.35l3.61-.74A33.9,33.9,0,0,1,417.24,240c-3.35,1.34-6.72,2.61-10.08,3.91l-4.09.66c-.15-.1-.29-.22-.43-.33Z"/><path class="cls-19" d="M330.86,197.45l-.53-.51-1.06-1.13a11.41,11.41,0,0,1-2.18-1c-1.66-1.21-1.73-2.25.52-2.8.23.38.47.76.7,1.15l2,1.37,2.25,1.48.5.24.47.33-.86.78-1.05.08Z"/><path class="cls-12" d="M303.1,150.05v1l-10.24-2.84.14-.6Z"/><path class="cls-1" d="M348.86,222l2.77,5.42-.64.65-3.35-6Z"/><path class="cls-19" d="M403.28,230.78l6.73,1.87-.48.32-5.25-1.17Z"/><path class="cls-12" d="M313,163.81l-.6.92-8-.83v-.09Z"/><path class="cls-12" d="M300.66,137.83l5.51,2.48c-.13.29-.27.58-.4.86l-5.45-2.67Z"/><path class="cls-11" d="M310.19,143.41l-4.3-2.1.42-.82,3.87,1.83C310.18,142.68,310.19,143.05,310.19,143.41Z"/><path class="cls-21" d="M328.31,193.15c-.23-.39-.47-.77-.7-1.15l-.09-1.05,2.71,1.56v.25Z"/><path class="cls-3" d="M310.19,143.41c0-.36,0-.73,0-1.09l1.18.32c-.16,1,2.78.51,1,2.2Z"/><path class="cls-11" d="M414.74,251.47c-.05.39-.09.79-.14,1.18l-.91.48c.18-.55.36-1.1.53-1.65A1,1,0,0,1,414.74,251.47Z"/><path class="cls-12" d="M290.45,147.41h1.48v.23h-1.48Z"/><path class="cls-21" d="M329.27,195.81l1.06,1.13-.72,0Z"/><path class="cls-12" d="M308.61,59a.44.44,0,0,0,0,.3l-1.43-.61.37-.63Z"/><path class="cls-12" d="M298.7,137.48l1,.09-.15.41-.85-.54Z"/><path class="cls-17" d="M430.48,239.34l.78-.93Z"/><path class="cls-12" d="M298.74,137.44c-.3,0-.61-.08-.13,0-.38-.29-.15-.11.09.06Z"/><path class="cls-2" d="M423,447.29l-.58-.58Z"/><path class="cls-2" d="M423.56,447.84l-.58-.58Z"/><path class="cls-2" d="M591.41,325.62a.63.63,0,0,1-.1.2s-.1,0-.15,0l.28-.18Z"/><path class="cls-2" d="M582.72,372.57l.18-.33c0,.06,0,.15,0,.17a.86.86,0,0,1-.23.13Z"/><path class="cls-2" d="M586.15,374.91l-.55.08.31-.31Z"/><path class="cls-2" d="M588.12,378l.34-.21c-.07.12-.13.24-.19.36Z"/><path class="cls-2" d="M264,451.52l.67.33-.09.25-.84-.3Z"/><path class="cls-2" d="M52.93,283.66l.18-.33c0,.06,0,.15,0,.18a1.23,1.23,0,0,1-.23.11Z"/><path class="cls-2" d="M52.89,283.62c-.13.23-.26.46-.4.69l-.35-.35.79-.3Z"/><path class="cls-2" d="M57.48,286.58l-.62.09.3-.4Z"/><path class="cls-2" d="M59.37,290.65l.37-.3c0,.2-.05.4-.07.6Z"/><path class="cls-26" d="M370,202.91c-.53-3.93-1-7.86-1.61-11.78a2.28,2.28,0,0,0-.82-1.34c-2.71-2.11-5.45-4.15-8.19-6.22.16-.83.32-1.66.47-2.5a35.28,35.28,0,0,1,3.9,1.5c3.49,1.81,6.73,4.61,10.42,5.41,7.33,1.59,14.32-.29,20.75-4.33,2.06-1.3,4-2.32,3.94-5.11l-2.45-1.32.44-1.64a12.15,12.15,0,0,1,9.91,4.19c1.06,1.2,1.3,2.35-.06,3.5l-2.17-.58q-8.62,12.93-17.24,25.88c-1.31,2-2.44,4.09-5.12,4.46l-1.11.79c-2.34-.54-4.69-1.08-7-1.6-1.1-.24-2.21-.44-3.31-.66l-2.34-.77c.52,1,.8,1.48,1.08,2,.19,2.48,1.28,4.27,3.82,4.92l2.89,2.07,3.21,1.25-.07.82c-1.73,0-3.64.48-5.14-.11a21,21,0,0,1-6.83-4.09c-1.29-1.21-1.66-3.45-2.3-5.28-.46-1.29-.69-2.66-1-4l-.28-1.13q.48-3.06,1-6.12l1.65-.05,3.09,1.91.52.6Zm16.45,4-4.92-4.3-.89.29a33.27,33.27,0,0,0-.36,5.7,3.57,3.57,0,0,0,1.87,2.55c.55.23,1.79-.84,2.51-1.55A16.26,16.26,0,0,0,386.4,206.88Zm-19.63-2.41-.57.41c.52,1-.91,3.45,2.5,2.52Z"/><path class="cls-22" d="M470.25,138.62,468,137.24c1.31-1.69,3.31-3.5,1.51-5.61-.66-.78-3-.14-4.54-.15l0,0-1.26-.53c1.23-1.65,2.58-3.24,3.64-5,1-1.58,1.77-3.74,0-4.9-1.25-.81-3.34-.57-5-.39-1.2.14-2.32,1-3.94,1.67.58-2,1-3.33,1.37-4.69.45-1.59.12-2.87-1.5-3.59l4.7-6.52,2.51-2.86,0,.05.6-.55,0,0,.87-.57,11.91-6.47.2-.1,1.21-.51,1.66-.45,13.51-5.94a6.6,6.6,0,0,1-1,2.85c-3.08,5.93-6.26,11.82-9.18,17.84-3.24,6.67-6.09,13.55-9.43,20.17C474.36,133.75,472.11,136.09,470.25,138.62Z"/><path class="cls-3" d="M470.25,138.62c1.86-2.53,4.11-4.87,5.51-7.64,3.34-6.62,6.19-13.5,9.43-20.17,2.92-6,6.1-11.91,9.18-17.84a6.6,6.6,0,0,0,1-2.85l-13.51,5.94-1.66.45L479,97l-.13-.1-.07.2-11.91,6.47-.87.57,0,0-.6.55,0-.05-3.36,2.18c-3.66,2.92-7.4,5.73-11,8.77s-7.1,5.38-11.55,6.34c-1.84.4-4.37,1.45-5.19-1.11s1.93-2.77,3.46-3.73c3.75-2.34,7.75-4.38,11.13-7.16,8.56-7.07,18.53-11.1,28.86-14.56,4.07-1.37,8.06-3,12.08-4.48,2.41-1.4,4.81-2.84,7.25-4.18a18.38,18.38,0,0,1,2.65-1,14.52,14.52,0,0,1-.64,3.2c-2.09,4.67-4.28,9.28-6.44,13.92-.19.46-.38.93-.58,1.39l0,0c-.52,1.11-1,2.22-1.54,3.33-2.35,5.7-4.63,11.43-7.08,17.09a53.89,53.89,0,0,1-13.08,18.52c-5.72,5.26-10.33,11.45-12.27,19.26-.19.75-1.16,1.32-1.76,2-.3-.87-.92-1.76-.84-2.59a25.42,25.42,0,0,1,6.91-15.07C465.05,143.92,467.68,141.29,470.25,138.62Z"/><path class="cls-17" d="M396.36,177.22l2.45,1.32c0,2.79-1.88,3.81-3.94,5.11-6.43,4-13.42,5.92-20.75,4.33-3.69-.8-6.93-3.6-10.42-5.41a35.28,35.28,0,0,0-3.9-1.5c-.24-1.12-.56-2.24-.7-3.38a11.2,11.2,0,0,1,.15-2.23,11.15,11.15,0,0,1,2.35.65c.6.33.95,1.12,1.53,1.51a67.35,67.35,0,0,0,7.83,5.06c8.1,3.92,15.27.68,22.25-3.35C394.3,178.7,395.31,177.93,396.36,177.22Z"/><path class="cls-10" d="M458.25,114c1.62.72,1.95,2,1.5,3.59-.39,1.36-.79,2.71-1.37,4.69,1.62-.71,2.74-1.53,3.94-1.67,1.67-.18,3.76-.42,5,.39,1.8,1.16,1,3.32,0,4.9-1.06,1.75-2.41,3.34-3.64,5l-1,1.58-1.9.39c0-.67-.33-1.45-.08-2,.71-1.51,1.64-2.92,2.49-4.37l2.31-3.67L465,122l-4,1.9c-1.75,1.11-3.46,2.29-5.26,3.3a8.79,8.79,0,0,1-2.4.58c-.05-.84-.39-1.82-.09-2.5,1-2.19,2.2-4.27,3.69-7.07-3.85,2.77-8.14,10.08-9.8,16-2.07-.49-2.18-2.21-1.74-3.57C447.67,123.65,451.2,117.45,458.25,114Z"/><path class="cls-3" d="M345.76,65l.93-.1c.68,1,1.35,2,2,3,5.92,8.35,7.83,18.16,10.28,27.82,1.23,4.81,3.21,9.43,4.84,14.13-1.1-.54-2.79-.8-3.2-1.67a125.53,125.53,0,0,1-5.75-13.65c-1.1-3.23-1.16-6.8-2.15-10.07-1.57-5.16-3.54-10.19-5.35-15.26C346.88,67.81,346.3,66.4,345.76,65Z"/><path class="cls-17" d="M412.1,123.79c4.86,1,7.07,4.91,9.17,8.8a7.59,7.59,0,0,1,.72,4.22,37.62,37.62,0,0,1-3.8-3.54c-4.44-5.32-9.78-4.42-15.32-2.39-1.1.4-2.23,1.16-3.29,1.06s-1.95-1.07-2.92-1.66c.84-2.58,2.36-4.61,5.23-4.69a48.59,48.59,0,0,1,7.17.75c1.26.16,2.51.42,4.12.7C412.71,125.63,412.41,124.71,412.1,123.79Z"/><path class="cls-10" d="M417.7,149.61,409.6,148a41.68,41.68,0,0,0-6.1-1.14,10.21,10.21,0,0,0-9.55,4.6c-.37.54-1.23.76-1.86,1.13-.24-.79-.86-1.71-.65-2.36a8.23,8.23,0,0,1,1.94-3.18A14.08,14.08,0,0,1,405.53,143,21.06,21.06,0,0,1,417.7,149.61Z"/><path class="cls-19" d="M416.91,170.42l-2.63.42-1.73.17-2.09.35-1.73.16-1.54.31-4.48.58-5.16.69-9.83,1.5-.36-.85a10.3,10.3,0,0,1,2.69-1.43c5.59-1.07,11.16-2.33,16.8-2.92,9-.94,18-1.41,27-2.08l.05.73-12,1.74-1.18.15-2.64.37Z"/><path class="cls-3" d="M412.1,123.79c.31.92.61,1.84,1.08,3.25-1.61-.28-2.86-.54-4.12-.7a48.59,48.59,0,0,0-7.17-.75c-2.87.08-4.39,2.11-5.23,4.69l-2.32.88a7.46,7.46,0,0,1-.86-2.62c.26-3.64,4.31-7.17,8.41-7.55a13.81,13.81,0,0,1,9.51,2.29l.71.53Z"/><path class="cls-19" d="M413.71,162.46c-9.55,3-19.11,5.9-28.65,8.9-1.59.5-3.11,1.23-4.89,1.94-.51-2.66,1.32-3.22,2.67-3.66,6.53-2.1,13.08-4.18,19.71-5.93a111.9,111.9,0,0,1,11.16-1.84Z"/><path class="cls-9" d="M397.55,173.1l5.16-.69,6,2.86,1.19,1.16.92,2a4,4,0,0,1,.25,1.29c-.18,1.23-.09,2.92-.83,3.53s-2.35.05-3.59,0c1.36-1.15,1.12-2.3.06-3.5a12.15,12.15,0,0,0-9.91-4.19Z"/><path class="cls-4" d="M355.1,118.68c3.18-1.58,6.38-3.05,10.07-1.74l4,4.23c.15,2.07-1.12,2.21-2.36,1.37-3.25-2.16-6.47-1.73-9.87-.52a22,22,0,0,1-4.25.67Z"/><path class="cls-9" d="M352.65,122.69a22,22,0,0,0,4.25-.67c3.4-1.21,6.62-1.64,9.87.52,1.24.84,2.51.7,2.36-1.37a19.62,19.62,0,0,1,5.68,12.09l-.67.33c-.51-1.05-1-2.1-1.54-3.15-3.27-6.57-8.15-8.69-15.2-6.66a10.55,10.55,0,0,1-3.44.56C353.49,124.31,353.09,123.27,352.65,122.69Z"/><path class="cls-10" d="M350.52,142.21c5-4.49,12.21-3.39,15.35,2.43.35.63,0,1.62,0,2.45-.67,0-1.7.2-2-.14-2.82-3.77-6.71-4.45-11.05-4.15A7.6,7.6,0,0,1,350.52,142.21Z"/><path class="cls-19" d="M464.94,131.48c1.56,0,3.88-.63,4.54.15,1.8,2.11-.2,3.92-1.51,5.61l-3,1.5-.76-.68,2.64-4.28.84-1.74Z"/><path class="cls-21" d="M400.92,150l7.05-.58.1,1.2-7,.78Z"/><path class="cls-9" d="M461,123.92l4-1.9.6.82-2.31,3.67C463.92,124.39,461.57,124.93,461,123.92Z"/><path class="cls-12" d="M451.69,167.43l-.17,0-.16.06-7.11.1-6.58.33-.52-.86Z"/><path class="cls-11" d="M425,146.87a19.63,19.63,0,0,1-3.13,1.73c-.58.2-1.38-.23-2.08-.37.48-.51.87-1.28,1.46-1.47a19.3,19.3,0,0,1,3.43-.51Z"/><path class="cls-12" d="M417,161.3l5.88-1.13.1.52-6,1.22Z"/><path class="cls-9" d="M464.94,131.48l2.72.56-.84,1.74L465,132c0-.06.11-.13.11-.19a2.62,2.62,0,0,0-.11-.4Z"/><path class="cls-11" d="M437.15,167l.52.86-3.75.15-.05-.73Z"/><path class="cls-1" d="M462.1,106.81l3.36-2.18L463,107.49Z"/><path class="cls-1" d="M490.66,107.47c.51-1.11,1-2.22,1.54-3.33-.28,1.09-.56,2.17-.83,3.26Z"/><path class="cls-11" d="M417,161.3v.61l-3.26.55v-.59Z"/><path class="cls-19" d="M465,131.43a2.62,2.62,0,0,1,.11.4c0,.06-.07.13-.11.19l-2.22.46,1-1.58Z"/><path class="cls-17" d="M412.11,123.81l-.71-.53Z"/><path class="cls-19" d="M400.09,210c-1.55,6.66-8.71,12.51-12.24,9.54,5-2,8.68-5.46,11.71-9.65Z"/><path class="cls-19" d="M409.9,176.43l-1.19-1.16.87-1.2,9.14,1.8,1.55.68.6.16.86.14,2.36,1,.37.88-9-1.17-1.19-.14-1.56-.32Z"/><path class="cls-15" d="M330.86,197.45l.79,0,.34,0,2.13.62,3.09,1.24,2.4,2.95C336.55,200.87,332.76,200.9,330.86,197.45Z"/><path class="cls-15" d="M327.07,189.14H322l-.2-.49,5.83-2Z"/><path class="cls-27" d="M444.25,167.57l7.11-.1-7.06,2.83C444.28,169.39,444.27,168.48,444.25,167.57Z"/><path class="cls-27" d="M409.58,174.07l-.87,1.2-6-2.86,4.48-.58C407,173.59,408.08,174.08,409.58,174.07Z"/><path class="cls-15" d="M321,173l-3.28-3.31.7-.7,3.24,1.48Z"/><path class="cls-11" d="M337.21,199.25,334.12,198l1.11-.51Z"/><path class="cls-15" d="M322.7,170.82l3.28.08C324.85,172.34,323.75,172.43,322.7,170.82Z"/><path class="cls-27" d="M409.9,176.43l2.81.62-1.89,1.39Z"/><path class="cls-27" d="M376.12,219.77l-2.89-2.07Z"/><path class="cls-27" d="M369.41,212.78c-.28-.51-.56-1-1.08-2l2.34.77Z"/><path class="cls-27" d="M400.09,210l-.53-.11.28-1.82.73.14Z"/><path class="cls-15" d="M328.31,193.15l1.91-.39.12,1.76Z"/><path class="cls-12" d="M426.79,178.44l2.49.61-.07.44-2.42-.47Z"/><path class="cls-27" d="M408.73,171.52l1.73-.16C410,172.7,409.41,172.62,408.73,171.52Z"/><path class="cls-27" d="M412.55,171l1.73-.17Z"/><path class="cls-21" d="M335.23,197.5l-1.11.51-2.13-.62.71,0,.86-.78Z"/><path class="cls-15" d="M366.32,201.07l-1.65.05C365.18,199.83,365.73,199.79,366.32,201.07Z"/><path class="cls-27" d="M414.27,177.37l1.19.14Z"/><path class="cls-15" d="M363.69,207.24l.28,1.13Z"/><path class="cls-15" d="M328.64,186.36l1.16-.21Z"/><path class="cls-27" d="M381,213.82l1.11-.79Z"/><path class="cls-27" d="M420.27,176.55l-1.55-.68Z"/><path class="cls-27" d="M416.91,170.42l1.18-.11Z"/><path class="cls-27" d="M420.73,169.94l1.18-.15Z"/><path class="cls-11" d="M426.79,178.44V179l-1.72-.36.07-.43Z"/><path class="cls-12" d="M430.31,179.59h1l0,.21-.91.15Z"/><path class="cls-15" d="M370,202.91l0,.67-.52-.6Z"/><path class="cls-27" d="M421.73,176.85l-.86-.14Z"/><path class="cls-11" d="M424.46,178.68l-.37-.88Z"/><path class="cls-27" d="M455.7,183.27v0Z"/><path class="cls-15" d="M333.09,196.24l-.5-.24Z"/><path class="cls-19" d="M351.6,100.44l6,8.64C354.39,108.94,351.34,104.64,351.6,100.44Z"/><path class="cls-1" d="M318.43,169l-.7.7-.88-1.92,0,.05Z"/><path class="cls-1" d="M316.85,167.81l-.38.09s.07-.06.1-.06l.25,0Z"/><path class="cls-1" d="M452.53,219.94,448.66,222l-1.87-1.73,6.95-1.76Z"/><path class="cls-11" d="M439.84,217.09l.1.86-.44.69-.79.69C437.74,217.9,438.42,217.31,439.84,217.09Z"/><path class="cls-1" d="M441.08,220.47l3.7,0Z"/><path class="cls-19" d="M399.7,228l-.18,1.16-1.08-1.25Z"/><path class="cls-1" d="M492.17,104.19c.2-.46.39-.93.58-1.39Z"/><path class="cls-4" d="M556.6,70.43l.48,1.06Z"/><path class="cls-25" d="M676.85,128.74a34.67,34.67,0,0,1-5.71-1.31c-1-.38-2.37-1.77-2.25-2.49a3.84,3.84,0,0,1,2.45-2.6c4.26-.8,8.6-1.14,12.9-1.8,13.64-2.07,26.46-6.15,37.07-15.54.66-.59,1.84-.59,2.78-.87-.1,1,.1,2.16-.34,3-2.78,5.18-7.48,8.29-12.42,11C700.64,124.13,689,127.08,676.85,128.74Z"/><path class="cls-25" d="M164.09,77.32c-.86,0-1.07.07-1.21,0-1.6-.8-4.11-1.29-4.57-2.53-.84-2.26,1.73-3.12,3.41-3.77,4.14-1.6,8.38-2.94,12.59-4.35,13.31-4.46,22.87-13.72,31.39-24.37a10.58,10.58,0,0,1,2.82-1.81c.13,1.26.8,2.81.3,3.73a48.87,48.87,0,0,1-5.66,8.59,66.6,66.6,0,0,1-19.84,16c-4.84,2.49-9.74,4.86-14.68,7.15A29.81,29.81,0,0,1,164.09,77.32Z"/><path class="cls-25" d="M55.85,113.58c-1.14-.23-2.1-.17-2.7-.61-1.13-.84-2.82-1.92-2.87-3s1.48-2.76,2.63-3.09c4-1.16,8.1-1.85,12.16-2.72a30.89,30.89,0,0,0,15.12-8.1c.6-.56,1.67-.62,2.52-.92a10.33,10.33,0,0,1,.89,3.08,4.39,4.39,0,0,1-1.22,2.36C75.37,109,65.51,111.34,55.85,113.58Z"/><path class="cls-25" d="M721.46,167c-.27,0-.54,0-.81,0-1.85-.1-4.13-.31-4.17-2.42,0-1.05,2-2.49,3.4-3.12a15.63,15.63,0,0,1,6-1.44c1.28,0,2.59,1.1,3.89,1.71-.63,1.19-1,2.89-1.94,3.47-1.87,1.09-4.12,1.53-6.21,2.25Z"/><path class="cls-25" d="M231.86,88.49c-2.14-.84-4.78-.65-4.94-3.17s2.5-2.52,4.28-2.85c2-.38,4.24,0,6.2-.61,3.7-1.07,7.26-2.6,10.92-3.84.83-.28,2.39-.43,2.6-.06a3.27,3.27,0,0,1,.17,2.86,7.94,7.94,0,0,1-3.45,2.92C242.43,85.49,237.13,86.93,231.86,88.49Z"/><path class="cls-1" d="M433.67,229.8l3.46-.78c-1.22.43-1.27,3.86-3.49,1.56Z"/><path class="cls-11" d="M403.07,244.53l4.09-.66c0,.28,0,.56,0,.84Z"/><path class="cls-19" d="M433.67,229.8l0,.78h-2l-.07-.5Z"/><path class="cls-19" d="M439.28,228.08l.6-.46-.65.42Z"/><path class="cls-12" d="M439.23,228l-1,.5h0l1-.47Z"/><path class="cls-12" d="M438.25,228.54l-.33.48-.18-.16.52-.31Z"/><path class="cls-16" d="M332.7,197.35l-.71,0-.34,0Z"/><path class="cls-20" d="M386.4,206.88a16.26,16.26,0,0,1-1.79,2.69c-.72.71-2,1.78-2.51,1.55a3.57,3.57,0,0,1-1.87-2.55,33.27,33.27,0,0,1,.36-5.7l.89-.29Z"/><path class="cls-1" d="M366.77,204.47l1.93,2.93c-3.41.93-2-1.53-2.5-2.52Z"/><path class="cls-9" d="M480.2,96.51l1.66-.45Z"/><path class="cls-1" d="M466,104.16l.87-.57Z"/><polygon class="cls-9" points="478.79 97.12 478.86 96.92 478.99 97.02 478.79 97.12"/><path class="cls-1" d="M465.43,104.68l.6-.55Z"/></g></g></svg>