<?xml version="1.0" encoding="utf-8"?>
<!-- Generator: Adobe Illustrator 23.1.1, SVG Export Plug-In . SVG Version: 6.00 Build 0)  -->
<svg version="1.1" id="Layer_1" xmlns="http://www.w3.org/2000/svg" xmlns:xlink="http://www.w3.org/1999/xlink" x="0px" y="0px"
	 viewBox="0 0 600 497.1" style="enable-background:new 0 0 600 497.1;" xml:space="preserve">
<style type="text/css">
	.st0{fill:#0B0A0C;}
	.st1{fill:#7970F5;}
	.st2{fill:#786FF3;}
	.st3{fill:#0D0D0D;}
	.st4{fill:#0F0F0F;}
	.st5{fill:#050507;}
	.st6{fill:#131313;}
	.st7{fill:#FCFCFC;}
	.st8{fill:#7C73FA;}
	.st9{fill:#7C73F9;}
	.st10{fill:#7B72F9;}
	.st11{fill:#7B73F8;}
	.st12{fill:#7B73F9;}
	.st13{fill:#FAFAFA;}
	.st14{fill:#F8F8F8;}
	.st15{fill:#E9E9E9;}
	.st16{fill:#756DEC;}
	.st17{fill:#7B72F4;}
	.st18{fill:#DCDCDC;}
	.st19{fill:#323232;}
	.st20{fill:#7A72F9;}
	.st21{fill:#FBFBFB;}
	.st22{fill:#F4F4F4;}
	.st23{fill:#0B0B0E;}
	.st24{fill:#8077FD;}
	.st25{fill:#191919;}
	.st26{fill:#080808;}
	.st27{fill:#676767;}
</style>
<title>Asset 2</title>
<g>
	<g id="Layer_0_Image">
		<path d="M211.1,358.5l0.4-3.8l0.2-3.8c0.1-1.5,0.2-2.9,0.4-4.4l0.2-3.8l0.4-5.5l0.2-6c0.1-1.6,0.2-3.3,0.4-4.9
			c0.1-1.3,0.1-2.5,0.2-3.8l0.4-7.1c0-0.9,0.1-1.8,0.2-2.7l0.4-3.3l0.2-3.3l0.1-1.2v-0.9l-1.3,0.5l-3.8,0.9h-5.9l-4.4-0.4l-2.2-0.2
			l-1.7-0.3l-1.1-0.2l-1.6-0.4l-1.1-0.2l-1.1-0.3l-1.1-0.2l-1.1-0.3l-1.5-0.4c-7.9-1.8-14.4-5.7-18.9-12.5c-0.8-1.2-1.6-2.4-2.4-3.6
			l-0.2-0.7l-0.3,0.6l-1.6-0.3l-1.6-0.3c-10.1-2.6-18.2-7.6-20.6-18.8c-0.5-2.3-0.2-4.8-0.2-7.2l1.6-0.3c0.6,8.9,4.4,15.8,12.6,19.9
			l2.4,1.1c3.7,1.2,7.3,2.3,11,3.5c0.5,0.2,0.9,0.6,1.1,1.1c4,7.2,10.5,11,18.2,13c3.6,0.9,7.2,1.7,10.8,2.6l1.1,0.1l6.5,0.5h2.2
			c1.2-0.2,2.5-0.5,3.8-0.7c2-0.2,2.8-1.2,2.7-3.4c-0.2-3.5,0-7.1,0-10.6c0-1.1,0-2.2,0-3.3V281c0-1.6,0-3.3,0-4.9v-6.5l1.9-0.1
			l0.8,6.1v2.7l0.5,7.1v1.1v24v1.1l-0.5,8.7l-0.1,3.8l-0.5,6.5l-0.1,2.2l-0.5,7.1l-0.1,2.2l-0.5,6l-0.1,1.1c-0.2,2-0.3,4-0.5,6
			l0,1.1c-0.2,1.8-0.3,3.6-0.5,5.4l-0.1,1.1l-0.5,4.9l-0.1,1.1l-1.5,13.6l-0.1,1.6c-0.2,1.3-0.3,2.5-0.5,3.8l-0.1,1.1l-0.5,3.8
			l-0.1,1.1l-0.5,3.8l-0.1,1.1l-0.5,3.8l-0.1,1.1l-0.4,2.7l-0.1,1.1c-0.3,2.6-0.5,5.2-1,7.7s-1.3,4.8-1.9,7.1l-1.3,1.2
			c-7.5,8.3-5.9,12.6,2,18.4c0.5,0.4,1.1,0.7,1.6,1c7.5,4.7,15.9,8,24.7,9.7c14.7,2.9,29.4,5.3,44.1,7.7c9.3,1.5,18.6,1.1,27.9,0.1
			c10.1-1.3,20.3-2.2,30.4-4c12-2,24-4.1,35.7-7.4c13.2-3.6,25.8-9.2,36.9-17.5l0.5-0.4l0.1-0.1h0.2l0.2-0.1l1.3-1l0.5-0.4v-0.1h0.1
			c0.1-0.1,0.3-0.2,0.4-0.3c0-0.2,0.2-0.3,0.3-0.3c0,0,0,0,0,0l0.1-0.1l3.9-3.9v-0.1c0-0.2,0.1-0.3,0.3-0.4c0.1-0.1,0.2-0.2,0.3-0.3
			c0.1-0.3,0.3-0.6,0.4-0.9v-0.7c-1.1-1.1-2-2.7-3.3-3.3c-2-0.9-3.5-2.7-3.8-4.9c-0.8-4.7-1.6-9.5-2.4-14.2
			c-4.2-25.4-4.3-51.1-4.4-76.8c0.1-1.5-0.5-3-1.8-3.8c-3.9-3.1-7.6-6.4-9-11.5l2.2-0.1c1.7,1.4,3.6,2.7,5.2,4.3
			c3.3,3.4,7.5,5.8,12.2,6.6c18.2,3.3,35.9-7.2,42.3-25.2c0.5-1,0.9-2,1.2-3c0.6-3.7,1-7.5,1.4-11.2c-0.1-1.2-0.2-2.4-0.3-3.6
			s-0.1-2.4-0.2-3.6l-0.2-0.7c-0.1-1-0.2-1.9-0.5-2.9c-0.2-0.5-0.7-1.3-1.2-1.4c-3.9-0.6-7.8-1.1-11.7-1.6l-23.5-0.7
			c-0.8-0.5-1.6-1-2.4-1.5l-0.8,2.4c-1,1.3-1.9,2.6-3,3.8c-3.7,4.2-7.4,8.5-11.4,12.6c-1.2,1.2-3.1,1.6-4.7,2.3h-1.6
			c-1.5-1.2-3.4-2.2-4.2-3.7c-3.2-5.8-5.1-12.3-5.4-19c-0.1-1.1-0.1-2.1-1.7-2.2c-2.8-0.1-5.6-0.4-8.4-0.8c-1.3-0.1-1.8,0.2-2.2,1.6
			c-0.5,2.5-1.4,4.9-2.6,7.1c-1.3,2.1-2.8,4.5-5.8,4.8c-12.3,0.9-24.6,1.8-36.9,2.5c-3.6,0.2-6.8-0.8-8.7-4.2
			c-0.6-0.7-1.4-1.2-2.4-1.3c-4.3-0.2-8.7-0.3-13.1-0.5c-6.5-0.2-6.5-0.2-6.5-6.8c0-2.4,1-3.9,3.4-4c3.9-0.2,7.8-0.2,11.7-0.1
			c1.5,0,2.1,0,1.9-1.8c-0.3-2.5-0.4-5.1-0.3-7.6c0.1-1.5-0.3-2.1-1.9-2c-3.2,0.1-6.3-0.1-9.5-0.2c-5.5-0.1-6.6-1.3-6.7-6.8
			c-0.1-3,0.8-4.1,3.7-4.1c5.5,0,11,0.3,16.6,0.5l1.7-0.3c2-1.5,3.7-3.8,5.9-4.3c3.2-0.7,6.7-0.3,10-0.1c11.1,0.6,22.1,1.4,33.2,2.1
			l1.7,0.5c1.4,2.9,2.7,5.9,4.2,8.7c0.4,0.9,1.2,1.5,2.1,1.9c3.5,0.6,7,0.9,10.5,1.6c1.3,0.2,1.8-0.1,2.1-1.3
			c1.7-9.7,6.9-18.3,14.6-24.4l16.7,1.4c-0.4-0.7-0.9-1.3-1.4-1.8c-3-2.5-6-4.9-9-7.4l-2.7-1.1l-1.6-0.6l-0.5-0.4l0,0l-1.1-0.5
			c-3.1-1-6.5-1.5-9.2-3.2c-6.6-4.2-7.5-4.4-4.9-12.1l0.3-0.8c1.5-2.8,3-5.6,4.5-8.4l1.5-1.1l3.7-4.2l0.2-0.3l-0.3,0.3l-2.5,1.3
			l-0.1-2.4c2-2.5,4.4-4.8,5.9-7.5c1.8-3.2,1-6-1.5-8.5l-0.7-0.4l-4.7-0.2l-2.2,0.5l-2.3,0.1l-0.8,0.2l-1.4,0.4l-2,1h-0.5
			c-1-0.6-3.1-0.5-1.6-2.6l12-3.7h2.1c3.6,0.1,6.3,1.6,7.8,4.9c1.7,3.6,1.2,7.9-1.2,11.1c-1.1,1.7-2,3.5-2.4,5.5
			c-0.8,2.9-2.2,5.5-4.1,7.8c-2.8,3.5-5.2,7.1-6.5,11.5c0,0.4,0,0.7,0,1.1l0.4,0.7c0,0.2,0.2,0.3,0.3,0.4c1.5,0.7,3,1.6,4.6,2.2
			c4.2,1.6,8.6,2.9,12.7,4.9c6.7,3.2,12.1,8.6,15.3,15.3c0.4,0.8,1.4,1.2,2.2,1.7c3.6,2,7.4,3.5,10.7,5.9c4.3,3.2,7.5,7.4,7.3,13.3
			v0.7l0.9-0.2c4.5,0,7.5,2.4,9.4,6.2c0.7,1.6,2.2,2.8,4,2.9c2.5,0.5,4.9,1.2,7.4,1.8l2.1,0.5h0.1c0.6,0.3,1.3,0.6,2,0.9
			c10.9,3,21.8,5.9,32.7,8.9l10.4,2.8l0.1-0.1l0.1,0.1l1.1,0.4l0.5,0.1l1.1,0.4l0.6,0.1l0.7,0.3c8.7,3.3,17.6,6.1,26.1,9.9
			c15.6,6.9,31.1,14.4,46.5,21.7c2.7,1.4,5.3,3.1,7.8,5c0.6,0.4,0.7,1.4,1,2l-2.2,0.6c-1.3-0.7-2.6-1.3-3.8-2
			c-39.1-21-80.8-36.9-124-47.2c-12.6-3.2-25.4-5.3-38.3-6.4c-5.1-0.4-8.5,1.3-10.9,5.5c0,0.1-0.1,0.1-0.2,0.2
			c-0.3,0.5-0.5,1.1-0.8,1.6c0.6,0.1,1.2,0.2,1.8,0.2c12.1-1,24.1,0.6,36,2.7c39.6,6.9,76.9,20.6,112.5,38.9
			c7.5,3.9,14.7,8.2,22.1,12.3c0.1,1.1,0.2,2.1,0.3,3.2c-1.1,0-2.4,0.3-3.2-0.2c-15.4-9.4-31.5-17.6-48.2-24.7
			c-0.2-0.1-0.3-0.2-0.4-0.3l-0.9-0.4l-1.8-0.7l-0.9-0.4l-0.8-0.3l-0.7-0.3h-0.2l-0.2-0.2l-0.8-0.4l-0.9-0.3l-0.6-0.3h-0.3l-0.2-0.2
			l-0.8-0.4l-2-0.7l-0.8-0.4c-9.1-3.2-18.1-6.8-27.4-9.5c-13.3-3.9-26.8-7.1-40.2-10.5c-3-0.8-3-0.6-2.4,2.3c0.4,2.2,0.7,4.5,1,6.7
			l0.1,2.2v4.9l-0.1,1.6c-1,3.7-1.4,7.7-3,11.2c-3.4,7.2-8.3,13.5-14.2,18.8c-3.9,3.5-8.7,5.8-13.8,6.5l-1.1,0.2l-7.6,0.9h-3.8
			L412,323l-1.1-0.1l-2.8-0.6l-0.8-0.2l0.2,0.8l0.1,11.5l0.1,2.2c0.1,2,0.3,4,0.5,6l0.1,10.4c0.5,3.6,0.4,3.5,3.6,1.7
			c7.5-4.3,15.2-8.3,23.6-10.4l1.1-0.2l1.7-0.4l1.1-0.1c4.8-1.1,7.5,0.8,7.7,5.6c0,2-0.2,4-0.5,5.9l-0.1,1.1c-2.6,8-4.7,16.2-8,23.8
			c-3.6,8.1-8.4,15.6-12.7,23.4c-2.2,4-4.3,8.2-6.4,12.2l0.2,1.1c3.5,4.4,3.5,7.3-0.4,11.2c-7.3,7.4-15.9,13.2-25.5,17.1l-1.4,0.5
			l1.2,0.6c12.4,5.5,23.5,12.8,32.3,23.2c2.9,3.4,5.3,7.1,6,11.7l0.1,1.1c1,4.9-1.1,9.4-5.8,12c-1.9,0.9-3.8,1.6-5.8,2.1l-1.1,0.2
			l-2.2,0.4l-1.6,0.2h-9.8l-1.6-0.1l-3.3-0.5l-1.1-0.1l-4.4-0.9l-1.1-0.2c-12.7-2.6-24.3-7.7-35.5-14.2c-8.7-5-16.8-10.9-23.4-18.5
			c-0.7-0.8-2.2-0.8-3.3-1.1l-1.1,0.1l-2.7,0.4l-1.1,0.1l-2.7,0.4l-1.1,0.1l-3.3,0.5l-1.1,0.1l-3.3,0.5l-1.1,0.1l-3.3,0.4l-1.6,0.1
			l-3.8,0.4l-2.7,0.1l-7.1,0.5l-9.2,0.3l-1.5,2l-1.2,1.1l-13.8,9.4l-1.4,0.8l-11.6,5.8l-2.6,1.2l-1.2,0.5l-1.5,0.7l-1.2,0.5
			l-1.6,0.6l-1.2,0.4l-1.5,0.6l-8.8,2.9l-2.7,0.8l-1.1,0.3l-1.1,0.3l-1.1,0.3l-1.1,0.3l-1.1,0.3l-1.1,0.2l-1.1,0.3l-1.1,0.2
			l-1.7,0.4l-1.1,0.2l-2.2,0.4l-1.1,0.2l-2.2,0.4l-2.2,0.3l-3.3,0.3h-9.2l-2.7-0.3l-1.6-0.3l-1.1-0.2l-3.7-1.2l-1.2-0.5l-1.4-0.8
			l-4.1-3.7l-1.8-5.1v-1.6c0.1-0.5,0.2-1.1,0.3-1.6l0.3-1.1l0.5-1.5c1.5-2.4,3.1-4.8,4.6-7.2l1.6-1.8l3.3-3.2l1.2-1
			c6-5.6,13-10,20.5-13.2l1-0.5l-0.8-0.5c-4.9-2.7-10.2-4.8-14.6-8.2c-8.3-6.4-8.5-14.2-1.4-21.9c0.5-0.5,1-1,1.6-1.5l0.3-1.1
			l0.3-1.7c0.1-0.5,0.1-1.1,0.2-1.6c0.1-0.7,0.3-1.5,0.4-2.2l0.1-1.1l0.4-2.2l0.2-1.6l0.4-2.2l0.2-1.6c0.1-0.9,0.3-1.8,0.4-2.8
			l0.1-1.6l0.4-2.8l0.1-1.6l0.4-3.3l0.1-2.2l0.4-3.3l0.2-2.2l0.4-3.3l0.1-1.6l0.4-3.3l0.1-1.6l0.4-3.3l0.2-2.2l0.4-2.7
			c0.1-0.7,0.1-1.5,0.2-2.2l0.4-3.3C211,360.7,211.1,359.6,211.1,358.5z M367.4,237.3l-0.6-0.4c-12.2-1-24.4-1.8-36.6-2.9
			c-4.5-0.4-5.7-0.1-8,4c-4.8,8.4-3.6,24.1,2.6,31.6c0.8,0.7,1.6,1.2,2.6,1.6l1.8-0.3c0.5-0.1,1.1-0.2,1.6-0.3
			c10.8-0.8,21.7-1.7,32.6-2.4c1.7-0.1,2.1-0.3,1.4-2.2c-2.6-7-2.3-14.2-1.2-21.4h1.7l4.1-0.6l-0.2-1l-0.2-1.1l-0.4-1.1l-0.1-0.6
			l-0.4-1.1l-0.2-0.6l-0.5-1.1L367.4,237.3z M433.3,232.5L433.3,232.5l-1.1-0.6h0.1l-5-2.2h0.1l-1.2-0.7l-10.8-3.4
			c-3.5-0.6-7.1-1.4-10.7-1.8c-1.1,0.1-2.2,0.6-2.9,1.5c-5.8,5.9-8.6,13.3-10.2,21.2c-2,10.1-2,20,2.7,29.5c1.9,4.3,2.2,4.4,5.8,1.4
			c2-1.6,3.8-3.4,5.4-5.3c3-3.8,5.8-7.9,8.7-11.8c5-6.6,10-13.2,17.1-17.8c1.3-0.7,2.7-1.2,4.2-1.6l0.6,0.8l-7,8.1
			c3.2,0,6.7-0.1,10.1,0c2.1,0.1,2.6-0.8,2.8-2.6c0.6-5.3-1.9-9.2-5.4-12.8L436,234l-1.3-1l0,0H434L433.3,232.5z M409.4,375.4
			c0.2,1.1,0.3,2.2,0.4,3.3l0.1,1.6c0,0.4,0.1,0.7,0.1,1c0.7,5.3,1.4,10.5,2.1,15.8l0.1,1.1l2.5,13.4l0.2,1.6l0.5,0.1l1-3.5
			l-0.1,0.1l0.6-0.6l8.7-15.2l0.4-0.7l1.6-2.7c0.1-0.1,0.1-0.2,0.1-0.2c0.4-0.9,0.9-1.8,1.4-2.6c5.2-9.1,9.2-19,11.8-29.2
			c0.5-2.6,0.9-5.2,1.1-7.8c0.3-2.3-0.8-2.9-2.9-2.4c-1.5,0.3-3,0.7-4.5,1.2c-8.4,3.7-16.7,7.5-25,11.3c-0.5,0.4-0.9,1-0.9,1.7
			c0,2,0.3,4,0.5,5.9h-0.2c0,1.2,0,2.5,0,3.8L409.4,375.4z M445.9,246.7l-0.4,0.3c-0.2,1.1-0.3,2.1-0.3,3.2c0,0.4,0.4,1.2,0.7,1.2
			c2.3,0.4,4.6,0.6,7,0.8l0.2-0.7L445.9,246.7z M386.8,249.9l-0.5-0.4l-3.8-0.3c-5-0.4-9.9-0.8-14.9-1.2c-1.7-0.1-2.5,0.6-2.3,2.4
			c0.1,0.6,0.1,1.3,0,1.9c-0.2,1.5,0.4,1.9,2,1.9c4.1,0.1,8.2,0.4,12.4,0.7c2,0.2,4.6,1.5,5.7,0.6S386.4,251.8,386.8,249.9
			L386.8,249.9z M309.3,265.2v0.2c1.8,0,3.6,0.1,5.4,0c0.7-0.2,1.4-0.4,2.1-0.8c-0.7-1-1.3-2.7-2.1-2.8c-4-0.3-7.9-0.4-11.9-0.2
			c-0.6,0-1.5,1-1.7,1.6c-0.2,1.1,0,2.1,1.6,2.1C305,265.1,307.2,265.2,309.3,265.2L309.3,265.2z M307.7,239.3L307.7,239.3
			c-2.1-0.1-4.2-0.3-6.2-0.2c-0.6,0.1-1.2,0.4-1.6,0.9c0.3,1,0.8,2.6,1.4,2.6c4.4,0.3,8.9,0.3,13.3,0.2c0.5,0,1-1.4,1.4-2.2
			c-0.4-0.4-0.9-0.8-1.4-0.9C312.2,239.4,310,239.4,307.7,239.3L307.7,239.3z M367.1,265.6h0.8c0.5-2,1.2-3.9,1.5-5.9
			c0.1-0.4-1.1-1.3-1.7-1.4s-1.8,0.8-1.7,1.1C366.2,261.5,366.7,263.5,367.1,265.6L367.1,265.6z M420.6,222.5l-0.5-0.2
			c-0.1,0.1-0.2,0.3-0.2,0.4s0.3,0.1,0.4,0.2C420.5,222.8,420.5,222.7,420.6,222.5L420.6,222.5z"/>
		<path d="M140.2,256l-1.7,0.4l-1.1,0.2l-1.1,0.3l-1.1,0.2l-5,1.3l-1.6,0.4l-2.3,0.7l-1.5,0.4L89.2,274l-0.8,0.4l-0.1,0.2h-0.2
			l-0.8,0.4c-7.8,4.5-15.8,8.8-23.5,13.6c-15.7,10-29.8,22.2-41.9,36.4c-1.1,1.2-1.8,3.4-4.2,2.6c0.4-1.2,0.5-2.7,1.2-3.7
			c2.8-3.8,5.8-7.5,9-11c15.1-15.9,32.8-28.3,52-38.7c22.3-12,45.9-20.5,71.1-24c4.8-0.7,9.7-1,14.7-1.5c-1.5-2.2-2.9-4.2-4.4-6.1
			c-0.6-0.6-1.4-0.9-2.3-0.8c-4.8,0.7-9.7,1.5-14.5,2.5c-27.1,5.6-53,14.7-77,28.5c-18.3,10.5-35.5,22.3-49.1,38.8
			c-2.8,3.4-6.1,6.5-9.1,9.7l-0.4,0.5l-1,1.3l0,0c-0.1,0.1-0.1,0.3,0,0.4l-3.8,1.8c0.4-1.3,0.4-2.8,1.2-3.8
			c16.7-22.5,37.9-39.9,62.5-53.1c0.3-0.2,0.7-0.3,1-0.4l0.6-0.4c0-0.1,0.2-0.2,0.3-0.2c0,0,0,0,0.1,0l0.7-0.4
			c0-0.1,0.1-0.2,0.3-0.2c0,0,0.1,0,0.1,0l0.8-0.4h0l1-0.5l6.6-3.3l1-0.5h0l1-0.5c0-0.1,0.2-0.2,0.3-0.2c0,0,0.1,0,0.1,0l0.7-0.4
			c0.1-0.2,0.2-0.2,0.4-0.2c0,0,0,0,0,0l0.7-0.4c12.1-5.8,24.7-10.4,37.7-13.7c4.9-1.3,9.8-2.5,14.7-3.7l1.1-0.1
			c1.2-0.2,2.4-0.5,3.6-0.9c0.7-0.3,1.2-1.2,1.8-1.8l0.1-1.1c2.3-6.6,5.7-12.6,11.5-16.7c5.4-3.7,11.4-6.3,17.8-7.7l1.1-0.2l1.7-0.4
			l1.6-0.1c3.5,0.2,5.7-1.7,7.9-4.3c4.2-4.8,9.7-7.8,15.7-10l1.5-0.7c4.7-2.6,9.5-5,14.1-7.7c3.9-2.2,4.1-4.8,1.1-8.2
			c-1.2-1.3-2.4-2.5-3.5-3.8c-5-6.4-2.9-14.6,4.6-17.8c4.5-1.9,9.1-2.3,13.7,0v2.5l-5.4-0.8h-3.3c-0.9,0.2-1.8,0.4-2.6,0.7
			c-6.7,1.9-8.5,7.7-3.8,12.9c1.8,2,3.7,3.7,5.6,5.6c0.5,0.6,1.4,1.4,1.3,1.9c-0.8,3.1,1.4,5.3,2.1,7.9c1,3.7,2.6,7.4,1.5,11.4
			l-0.7,0.5c-1.1-1.4-2.6-2.6-3.3-4.2c-0.8-2.2-1.5-4.5-2-6.8c-5.8,3.4-11.3,6.9-17,9.9s-11.6,5.9-16.5,10.3l-0.7,0.6l1.1,0.4
			c4.2,1.2,8.6,2.2,12.7,3.8c6,2.4,6.6,3.9,6.2,10.4v1.6v7.9l1.2,0.3l5.4,0.5l1.6,0.1l7.6,0.5l6.5,0.1l4.9,0.5l1.1,0.1l1.6,0.4
			l1.1-0.4l1.2-3.4c0.1-0.6,0.3-1.1,0.4-1.7c0.7-0.5,1.5-1,2.3-1.3c7.2-1.2,14.5-2.4,21.7-3.5l1.1-0.1l7.6-0.5l4.9-0.1h2.2l3.8,0.1
			c4.3,0,4.6,0.2,5.5,3.9c0.1,0.5,0.6,0.9,0.7,1.4c0.7,2.9,1.4,5.9,2,8.8c0,0.4,0,0.7,0,1.1c0,2.3,0,4.7,0,7l-0.1,1.7
			c-0.1,6.5-1.7,12.9-4.8,18.6c-1.2,2.1-2.2,3.9-5,3.2h-3.8l-5.5-0.7l-0.9-0.2c-3.2-0.6-6.4-1.1-9.6-1.7c-6.8-1.4-13.6-2.8-20.4-4.3
			c-1.3-0.3-3.3-1-3.7-2c-1-3.1-1.9-6.3-2.5-9.5v-2.2v-1.1l-0.8-1h-6.3l-3.8-0.1l-7.1-0.5l-1.6-0.1l-9.2-1l-0.8-0.4l-0.2,1
			c-1.7,7.9-3.3,15.7-5.2,23.6c-0.2,0.9-1.2,1.7-1.8,2.6l-2.4,0.5c-1.7-0.8-3.4-1.8-4.9-3c-2.7-2.5-5.1-5.2-7.7-7.9
			c-0.2,0-0.3,0.1-0.4,0.2c-11.8,11.3-32.7,6.8-38.7-8.4l-0.7-2.1l-1.5-1.2L140.2,256z M167.9,245h0.2v0.2c0,0.2,0.1,0.3,0.3,0.4
			l0.2,0.1v0.2c0,0.1,0.1,0.2,0.2,0.2c0,0,0,0,0,0c6.5,7.3,13.1,14.6,19.7,21.8c1.6,1.7,3.3,3.4,5,5c1.3,1.3,2.2,1.4,2.7-0.7
			s1.1-4.2,1.6-6.3c3.1-12.8,4.5-26,4.1-39.1c0-1.1-0.6-2.7-1.4-3.1c-7.5-4.1-15.8-6.6-24.2-5.4c-12.5,1.8-23.5,6.6-28.4,19.7
			c-0.2,0.4-0.4,0.8-0.7,1.2l-0.7,1.2l1-0.1l11.5-0.9h0.8l-0.6-0.7c-0.5-2-1-4-1.5-6h1.5l8,11.5l0.5,0.5l0.1,0.1L167.9,245z
			 M205.6,242.5l-0.1,1.4c-0.2,1.5-0.5,3-0.7,4.4h0.9c3.6,0,7.2,0,10.8,0.1c5.6,0.1,11.2,0.2,16.8,0.3c2.7,0.1,1.8-2.2,2.2-3.5
			c0.1-0.2-1.2-1.2-1.8-1.3c-5.9-0.4-11.7-0.7-17.6-1L205.6,242.5L205.6,242.5z M163.2,252.8l-18.6,2.4
			c6.4,13.4,21.1,18.2,33.4,11.5c0.2-0.2,0.5-0.3,0.7-0.4c2-0.6,2.3-1.4,0.7-3.1c-3.5-3.6-6.9-7.5-10.3-11.2l-0.6-0.7l-0.5,0.9
			l-3.2,0.6L163.2,252.8z M248.4,235.9l-0.8,0.2c-3.5-0.2-5.7,1.2-6.1,4.9c-0.1,0.2-0.1,0.3-0.2,0.5c-2.3,7-4.1,14.1-1.9,21.6
			c0.3,0.9,0.9,1.6,1.7,1.9c10.6,2,21.2,3.8,31.8,5.7c2,0.4,1.8-0.3,1.4-1.8c-2.8-9.8-2.2-19.6,0.9-29.2c0.6-1.9,1.2-3.7,1.9-5.6
			c-2.1,0-4.2-0.2-6.2-0.1C263.4,234.6,255.9,235.3,248.4,235.9L248.4,235.9z M280.9,261.4c0.6,0,1.3,0,1.9,0c1.4,0.3,2.6,0,2.2-1.6
			c-0.1-0.6-1.5-1.4-2.3-1.4c-1.5,0.1-3.1,0.4-4.5,0.9c-0.4,0.1-0.6,1-0.9,1.6c0.5,0.2,0.9,0.6,1.4,0.7
			C279.5,261.6,280.2,261.5,280.9,261.4L280.9,261.4z M284.1,243.2c-2,1-3.6,1.8-5.1,2.6c-0.3,0.1-0.2,0.8-0.3,1.2
			c0.4,0.1,0.8,0.2,1.2,0.2c1.3-0.1,2.7-0.3,4-0.6c0.8-0.3,1.6-0.7,2.4-1.2L284.1,243.2z"/>
		<path class="st0" d="M231.2,164v-2.6c0.3-0.7,0.6-1.5,0.8-2.3c0.6-7.1,1.2-14.3,1.8-21.4c0.4-2.4-0.1-4.9-1.4-7
			c-2.2-3.9,0-11.2,4-13.8c1-0.7,1.8-1.8,2.2-3c6.2-22.2,17.6-40.2,39.1-50.6c21.1-10.3,42.7-10.5,63.8-1.9
			c17.4,7.1,29.9,20.3,37.2,37.9c1.8,4.3,2.9,9,4.3,13.4c0.4,0.7,0.7,1.4,1,2.2c0.4,2.3,0.7,4.7,0.9,7.1c0.1,1.8-0.6,3.7-0.4,5.5
			c0.9,10.5,0.7,21.1-0.7,31.5c0,0.9,0.2,1.8,0.4,2.6c-1.5,2.1,0.6,2.1,1.6,2.6c-3.5,0-3,2.7-3.3,4.9c-0.1,1-0.3,2-0.5,3
			c-0.4,1.8,0,2.7,2,1.6c3-1.6,6.1-3.2,9.2-4.7c0.9-0.3,1.9-0.4,2.9-0.5c-0.2,1-0.6,1.9-1.1,2.8c-0.8,0.9-1.6,1.7-2.6,2.4
			c-5.6,3-11.1,6-16.8,8.8c-6.5,3.3-13,6.4-19.5,9.5c-9.5,4.4-19.4,7.7-29.8,8.8c-8.1,0.8-16.2,1.2-24.4,1.8
			c-9.1,0-18.2,0.3-26.9-3.4c-0.1-0.1-0.3-0.2-0.4-0.3c-16.7-8.2-33.4-16.5-50.2-24.7c-1-0.5-1.9-1.1-2.7-1.8
			c-1.7-1.5-1.6-3,0.5-3.6s4.6-0.5,6.9-0.7c0.9-0.1,1.8-0.3,2.7-0.4L231.2,164z M375.6,126.4c1.6,3.6-0.3,6.4-2.2,9.2
			c3.6-0.1,6.3-3.9,5.7-7.6c-0.3-1.2-0.2-2.4,0.1-3.6c1.6-4.7,1-6.2-3.6-8.1c-1.6-1.1-2.5-0.1-3.3,1.1
			C369.9,120.8,371,124,375.6,126.4L375.6,126.4z M238.6,133.6c-0.1-0.2-0.1-0.5-0.3-0.7c0-0.1-0.3,0-0.4,0.1l0.3,0.8
			c0,2.3,0.1,4.5,0,6.8c-0.6,10.7-1.3,21.3-2,32c-0.2,1.5,0.6,2.9,2,3.4c9.5,4.7,18.9,9.5,28.4,14.3c10.3,5.1,20.8,9.2,32.6,7.2
			c10.8-0.8,21.8-0.8,32.5-2.5c15.8-2.6,29.7-10.4,43.9-17.3c0.8-0.6,1.4-1.5,1.5-2.6c1.1-7.1,2.3-14.2,3.1-21.3
			c0.8-6.8,1.1-13.6,1.7-20.4l-0.8-0.2c-1.8,4-5.8,5.3-9,7.4c-0.4,0.1-0.7,0.1-1.1,0.1l-3.8-0.1c0.4-1.3,1-2.5,1.6-3.7
			c1.2-1.8,2.7-3.4,4-5.2c0.8-1.1,0.8-1.8-1-2.1c-3.9-0.7-6.2-3.5-6.7-7.5c-0.4-3.7,0.9-7.3,3.4-9.9c2.3-0.6,4.6-1.6,6.9-1.8
			c2-0.2,2.2-0.5,1.7-2.3c-5.4-17.7-17.7-32.6-34.2-41.2c-13-7-27.5-7.3-41.9-6.3c-3.6,0.3-7.1,1.3-10.6,2
			c-12.9,3.9-24.5,10.3-33.4,20.5c-7.5,8.7-11.7,19.3-15.3,30.2c-0.7,2-1.1,3.5,1.8,4.1c1,0.2,2.1,1.5,2.6,2.6
			c2.5,4.2,2.7,9.5,0.4,13.8c-0.9,1.6-2.5,2.7-4.3,3C241.1,136.9,239.8,134.8,238.6,133.6L238.6,133.6z M244.5,127.4
			c-0.5-2.3-0.9-4.8-1.6-7.2c-0.5-0.7-1.3-1-2.1-0.9c-3.5,0.9-4,4-4.5,7c-0.3,1.7,0.2,2.6,2.2,1.8s3.3,0,3.4,2.3
			c0,0.6,0.1,1.3,0.2,1.9c0.1,0.3,0.3,0.6,0.5,0.9c0.3-0.2,0.9-0.4,1-0.7C243.8,130.9,244.1,129.3,244.5,127.4L244.5,127.4z"/>
		<path class="st1" d="M9.3,321.4c3-3.2,6.3-6.3,9.1-9.7c13.6-16.4,30.8-28.3,49.1-38.8c24.1-13.8,49.9-22.9,77-28.5
			c4.8-1,9.6-1.8,14.5-2.5c0.8-0.1,1.7,0.2,2.3,0.8c1.5,1.9,2.9,3.9,4.4,6.1c-5.1,0.5-9.9,0.8-14.7,1.5c-25.2,3.5-48.8,11.9-71.1,24
			c-19.2,10.4-37,22.7-52,38.7c-3.2,3.5-6.2,7.2-9,11c-0.7,1-0.8,2.5-1.2,3.7c-0.5,0.8-0.7,1.9-1.4,2.3c-1.4,0.8-3.1,1.6-4.6,1.5
			c-2.3-0.2-3.5-2.1-3.8-4.3c-0.1-1.2-0.1-2.3,0-3.5c-0.1-0.1-0.1-0.3,0-0.4l0,0l1-1.3L9.3,321.4z"/>
		<path class="st2" d="M592.1,315c-7.4-4.1-14.6-8.5-22.1-12.3c-35.7-18.3-73-31.9-112.5-38.9c-11.9-2.1-23.9-3.6-36-2.7
			c-0.6,0-1.2-0.1-1.8-0.2c0.3-0.5,0.5-1.1,0.8-1.6c0-0.1,0.1-0.1,0.2-0.2c2.4-4.2,5.8-5.9,10.9-5.5c12.9,1.1,25.7,3.2,38.3,6.4
			c43.2,10.3,84.9,26.2,124,47.2c1.3,0.7,2.6,1.3,3.8,2C597.4,312.7,595.4,314.5,592.1,315z"/>
		<path class="st3" d="M309.7,18.4l-0.8,4.1c-0.9-1-1.6-2.2-2.2-3.4c-1.7-5.1-3.4-10.3-4.8-15.5c-0.3-1,0.4-3,1.1-3.4
			c1.8-0.9,2.6,1,3,2.3c1.5,5.2,2.8,10.4,4.3,15.6L309.7,18.4z"/>
		<path class="st4" d="M389,36.4c0-0.5-0.3-1.1-0.1-1.3c3.3-4.5,6.7-9,10.2-13.3c0.5-0.6,2.2-0.4,3.3-0.5c-0.2,1,0.1,2.4-0.5,3.1
			c-3.2,3.6-6.5,7-9.9,10.4C391.1,35.5,390.1,36,389,36.4z"/>
		<path class="st5" d="M514.3,268.5l-10.4-2.8c-10.9-2.9-21.8-5.9-32.7-8.9c-0.7-0.2-1.4-0.5-2-0.9c12.1,3.2,24.3,6.3,36.4,9.5
			C508.6,266.3,511.4,267.5,514.3,268.5z"/>
		<path class="st6" d="M418,97.2c2.8-2.3,5.4-4.7,8.3-6.7c0.8-0.6,2.4,0,3.6,0.1c-0.6,1-1,2.6-1.9,3.1c-3,1.7-6.3,3-9.4,4.5
			L418,97.2z"/>
		<path class="st4" d="M231.7,62.8c-2-1-4-1.8-5.9-2.9c-1.4-0.9-2.6-2-3.7-3.2c-0.4-0.5-0.3-1.4-0.4-2.2c0.8-0.1,1.9-0.6,2.4-0.2
			C227.2,56.4,230.4,58.5,231.7,62.8z"/>
		<path class="st5" d="M408.3,353l-0.1-10.4L408.3,353z"/>
		<path class="st5" d="M286.8,465.6l9.2-0.3L286.8,465.6z"/>
		<path class="st5" d="M203.4,496.9h9.2H203.4z"/>
		<path class="st0" d="M203.4,305.5L203.4,305.5z"/>
		<path class="st0" d="M212.8,331.2l-0.2,6L212.8,331.2z"/>
		<path class="st5" d="M185.7,485l1.8,5.2L185.7,485z"/>
		<path class="st0" d="M142.8,257l0.7,2.1l-1.1,0.2l-1.6,0.3L142.8,257z"/>
		<path class="st0" d="M212.2,342.7l-0.2,3.8L212.2,342.7z"/>
		<path class="st0" d="M211.7,350.9l-0.2,3.8L211.7,350.9z"/>
		<path class="st5" d="M416.5,323.5L416.5,323.5z"/>
		<path class="st0" d="M213.3,322.5c0,1.3-0.1,2.5-0.2,3.8C213.2,325,213.2,323.8,213.3,322.5z"/>
		<path class="st0" d="M211.1,358.5c-0.1,1.1-0.1,2.2-0.2,3.3C211,360.7,211.1,359.6,211.1,358.5z"/>
		<path class="st0" d="M214.4,306.1l-0.2,3.3L214.4,306.1z"/>
		<path class="st5" d="M194.2,495l3.7,1.1L194.2,495z"/>
		<path class="st0" d="M213.8,312.7c0,0.9-0.1,1.8-0.2,2.7C213.7,314.5,213.8,313.6,213.8,312.7z"/>
		<path class="st5" d="M303.1,464.8l2.7-0.1L303.1,464.8z"/>
		<path class="st5" d="M235,492.8l2.7-0.8L235,492.8z"/>
		<path class="st5" d="M460.1,279.4l-0.1-2.2L460.1,279.4z"/>
		<path class="st0" d="M398.4,157.9L398.4,157.9z"/>
		<path class="st0" d="M196.9,304.9l2.2,0.2L196.9,304.9z"/>
		<path class="st5" d="M254.6,485.8l2.6-1.2L254.6,485.8z"/>
		<path class="st5" d="M407.8,336.7l-0.1-2.2L407.8,336.7z"/>
		<path class="st0" d="M210.6,365c0,0.7-0.1,1.5-0.2,2.2C210.5,366.5,210.5,365.8,210.6,365z"/>
		<path class="st0" d="M208.4,385.2l-0.2,2.2L208.4,385.2z"/>
		<path class="st0" d="M207.9,390.7l-0.1,2.2L207.9,390.7z"/>
		<path class="st0" d="M210.1,370l-0.2,2.2L210.1,370z"/>
		<path class="st5" d="M215.9,496.6l2.2-0.3L215.9,496.6z"/>
		<path class="st5" d="M193,470.1l-1.6,1.8L193,470.1z"/>
		<path class="st5" d="M415.3,497.1l1.6-0.2L415.3,497.1z"/>
		<path class="st5" d="M403.9,496.9l1.6,0.1L403.9,496.9z"/>
		<path class="st5" d="M199.1,496.4l1.6,0.3L199.1,496.4z"/>
		<path class="st5" d="M186,481.7l-0.3,1.6L186,481.7z"/>
		<path class="st5" d="M309.6,464.3l1.6-0.1L309.6,464.3z"/>
		<path class="st5" d="M393.4,446.3l-1.2-0.6l1.4-0.5L393.4,446.3z"/>
		<path class="st0" d="M204.6,415.8l-0.2,1.6L204.6,415.8z"/>
		<path class="st0" d="M205.7,408.7l-0.2,1.6L205.7,408.7z"/>
		<path class="st0" d="M206.2,404.8l-0.2,1.6C206.1,405.9,206.2,405.4,206.2,404.8z"/>
		<path class="st0" d="M206.8,400.5l-0.1,1.6L206.8,400.5z"/>
		<path class="st0" d="M207.3,396.1l-0.1,1.6L207.3,396.1z"/>
		<path class="st0" d="M208.9,380.3l-0.1,1.6L208.9,380.3z"/>
		<path class="st0" d="M209.5,375.4l-0.1,1.6L209.5,375.4z"/>
		<path class="st0" d="M176.2,213.9l-1.6,0.1L176.2,213.9z"/>
		<path class="st0" d="M213.2,304.6l1.3-0.5v0.9L213.2,304.6z"/>
		<path class="st5" d="M460,285.9l0.1-1.6L460,285.9z"/>
		<path class="st5" d="M431.8,482.3l-0.1-1.1L431.8,482.3z"/>
		<path class="st0" d="M140.2,256l1.1-0.1L140.2,256z"/>
		<path class="st5" d="M419.4,416.8l-0.2-1.1L419.4,416.8z"/>
		<path class="st5" d="M419.2,496.5l1.1-0.2L419.2,496.5z"/>
		<path class="st5" d="M446.4,244.6l-0.9,0.2v-0.7L446.4,244.6z"/>
		<path class="st5" d="M399.6,496.4l1.1,0.1L399.6,496.4z"/>
		<path class="st5" d="M392,199.8c0-0.4,0-0.7,0-1.1C392,199.1,392,199.4,392,199.8z"/>
		<path class="st0" d="M124.9,259.9l1.5-0.4L124.9,259.9z"/>
		<path class="st5" d="M469.2,256l-2.1-0.5L469.2,256z"/>
		<path class="st0" d="M136.9,242.8l-1.1,0.1L136.9,242.8z"/>
		<path class="st5" d="M220.2,496l1.1-0.2L220.2,496z"/>
		<path class="st5" d="M394.1,495.3l1.1,0.2L394.1,495.3z"/>
		<path class="st0" d="M205.1,412.5l-0.1,1.1L205.1,412.5z"/>
		<path class="st5" d="M223.5,495.5l1.1-0.2L223.5,495.5z"/>
		<path class="st0" d="M161.5,285.7l1.6,0.3L161.5,285.7z"/>
		<path class="st0" d="M201.2,198.9l-1.5,0.7L201.2,198.9z"/>
		<path class="st5" d="M226.2,494.9l1.1-0.2L226.2,494.9z"/>
		<path class="st5" d="M228.5,494.4l1.1-0.2L228.5,494.4z"/>
		<path class="st5" d="M191.6,493.8l1.4,0.8L191.6,493.8z"/>
		<path class="st5" d="M230.6,493.9l1.1-0.3L230.6,493.9z"/>
		<path class="st5" d="M232.8,493.4l1.1-0.3L232.8,493.4z"/>
		<path class="st0" d="M186.6,302.6l1.5,0.4L186.6,302.6z"/>
		<path class="st0" d="M189.2,303.3l1.1,0.2L189.2,303.3z"/>
		<path class="st0" d="M191.4,303.8l1.1,0.2L191.4,303.8z"/>
		<path class="st0" d="M194.2,304.4l1.1,0.2L194.2,304.4z"/>
		<path class="st5" d="M246.4,489.1l1.5-0.6L246.4,489.1z"/>
		<path class="st0" d="M142.5,239.1l-0.1,1.1L142.5,239.1z"/>
		<path class="st5" d="M249.2,488l1.6-0.6L249.2,488z"/>
		<path class="st5" d="M407.6,323l-0.2-0.8l0.8,0.2L407.6,323z"/>
		<path class="st5" d="M427.9,322.6l1.1-0.2L427.9,322.6z"/>
		<path class="st5" d="M251.9,486.9l1.5-0.7L251.9,486.9z"/>
		<path class="st5" d="M411,323l1.1,0.1L411,323z"/>
		<path class="st0" d="M137.5,256.6l1.1-0.2L137.5,256.6z"/>
		<path class="st0" d="M204.1,419l-0.3,1.1L204.1,419z"/>
		<path class="st5" d="M186.8,479.1l-0.5,1.5L186.8,479.1z"/>
		<path class="st5" d="M268.8,478.8l1.5-0.8L268.8,478.8z"/>
		<path class="st5" d="M218.1,451.7l0.8,0.5l-1,0.5L218.1,451.7z"/>
		<path class="st5" d="M284,468.6l1.2-1.1L284,468.6z"/>
		<path class="st5" d="M197.4,465.9l-1.2,1.1L197.4,465.9z"/>
		<path class="st5" d="M439.3,343.7l-1.1,0.1L439.3,343.7z"/>
		<path class="st5" d="M330.9,461.6l1.1-0.1L330.9,461.6z"/>
		<path class="st5" d="M436.6,344.1l-1.1,0.2L436.6,344.1z"/>
		<path class="st0" d="M135.2,257.1l1.1-0.2L135.2,257.1z"/>
		<path class="st5" d="M446.4,356.3l0.1-1.1L446.4,356.3z"/>
		<path class="st5" d="M314.5,463.8l1.1-0.1L314.5,463.8z"/>
		<path class="st0" d="M172.9,214.4l-1.1,0.2L172.9,214.4z"/>
		<path class="st5" d="M318.9,463.2l1.1-0.1L318.9,463.2z"/>
		<path class="st5" d="M327.1,462.1l1.1-0.1L327.1,462.1z"/>
		<path class="st5" d="M323.2,462.6l1.1-0.1L323.2,462.6z"/>
		<path class="st0" d="M128.7,258.8l1.6-0.4L128.7,258.8z"/>
		<path class="st0" d="M80.2,262l-1.1,0.5L80.2,262z"/>
		<path class="st0" d="M72.6,265.8l-1,0.5L72.6,265.8z"/>
		<path class="st5" d="M515.6,269l-1.1-0.4L515.6,269z"/>
		<path class="st0" d="M81.3,261.5l-1,0.5L81.3,261.5z"/>
		<path class="st0" d="M164.7,286.3l0.3-0.6l0.2,0.7L164.7,286.3z"/>
		<path class="st5" d="M517.2,269.6l-1.1-0.4L517.2,269.6z"/>
		<path class="st5" d="M392.8,200.8c-0.2-0.1-0.3-0.2-0.3-0.4L392.8,200.8z"/>
		<path class="st0" d="M83.5,260.4l-0.7,0.4L83.5,260.4z"/>
		<path class="st0" d="M82.4,261l-0.7,0.4L82.4,261z"/>
		<path class="st0" d="M88.4,274.4l0.8-0.4L88.4,274.4z"/>
		<path class="st0" d="M71.5,266.4l-0.8,0.4L71.5,266.4z"/>
		<path class="st0" d="M70.4,266.9l-0.7,0.4L70.4,266.9z"/>
		<path class="st0" d="M69.4,267.5l-0.6,0.4L69.4,267.5z"/>
		<path class="st5" d="M518.5,270l-0.7-0.3L518.5,270z"/>
		<path class="st5" d="M539.7,292.6l0.9,0.4L539.7,292.6z"/>
		<path class="st5" d="M537.1,291.5l0.9,0.4L537.1,291.5z"/>
		<path class="st5" d="M535.6,290.9l0.7,0.3L535.6,290.9z"/>
		<path class="st5" d="M534.4,290.4l0.8,0.4L534.4,290.4z"/>
		<path class="st5" d="M532.9,289.8l0.6,0.3L532.9,289.8z"/>
		<path class="st5" d="M531.7,289.3l0.8,0.4L531.7,289.3z"/>
		<path class="st5" d="M529,288.2l0.8,0.4L529,288.2z"/>
		<path class="st0" d="M87.3,275l0.8-0.4L87.3,275z"/>
		<path class="st7" d="M142.4,259.4l1.1-0.2c6.1,15.2,27,19.7,38.7,8.4l0.4-0.2c2.5,2.6,5,5.4,7.7,7.9c1.5,1.2,3.2,2.2,4.9,3
			l2.4-0.5c0.6-0.9,1.6-1.6,1.8-2.6c1.8-7.8,3.5-15.7,5.2-23.6l1.1-0.6l9.2,1l1.6,0.1l7.1,0.5l3.8,0.1h6.3l0.8,1v1.1v2.2
			c0.6,3.2,1.5,6.4,2.5,9.5c0.4,1,2.3,1.7,3.7,2c6.8,1.5,13.6,2.9,20.4,4.3c3.2,0.6,6.4,1.2,9.6,1.7l0.9,0.2l5.5,0.7h3.8
			c2.8,0.7,3.8-1.1,5-3.2c3.1-5.7,4.7-12.1,4.8-18.6l0.1-1.7c0-2.4,0-4.7,0-7c0-0.4,0-0.7,0-1.1c-0.7-2.9-1.3-5.9-2-8.8
			c-0.1-0.5-0.6-0.9-0.7-1.4c-0.8-3.7-1.1-3.9-5.5-3.9l-3.8-0.1h-2.2l-4.9,0.1l-7.6,0.5l-1.1,0.1c-7.2,1.2-14.5,2.3-21.7,3.5
			c-0.8,0.3-1.6,0.7-2.3,1.3c-0.1,0.6-0.3,1.1-0.4,1.7l-1.3,3.4l-1.1,0.4l-1.6-0.4l-1.1-0.1l-4.9-0.5l-6.5-0.1l-7.6-0.5l-1.6-0.1
			l-5.4-0.5l-1.2-0.3v-7.9v-1.6c0.4-6.5-0.2-8-6.2-10.4c-4.1-1.6-8.4-2.6-12.7-3.8c-0.2-0.3-0.3-0.7-0.4-1
			c4.9-4.4,10.7-7.3,16.5-10.3s11.2-6.5,17-9.9c0.5,2.3,1.2,4.6,2,6.8c0.7,1.6,2.2,2.8,3.3,4.2l0.7-0.5c1.2-4-0.5-7.6-1.5-11.4
			c-0.7-2.6-2.8-4.9-2.1-7.9c0.1-0.5-0.7-1.4-1.3-1.9c-1.8-1.9-3.8-3.6-5.6-5.6c-4.7-5.2-2.9-11,3.8-12.9c0.9-0.2,1.8-0.4,2.6-0.7
			h3.3l5.6,0.7l0.8,3.7c-0.9,0.1-1.8,0.3-2.7,0.4c-2.3,0.2-4.7,0.1-6.9,0.7s-2.3,2.1-0.5,3.6c0.8,0.7,1.7,1.3,2.7,1.8
			c16.7,8.3,33.4,16.5,50.2,24.7c0.2,0.1,0.3,0.2,0.4,0.3c-1.6-0.2-3.2-0.4-4.8-0.4c-1.6,0-4.1-1.4-4.7,1s2.2,2.8,3.9,3.2
			c10.9,3.1,21.8,2.4,32.6-0.5c8.1-0.6,16.3-1,24.4-1.8c10.5-1.1,20.3-4.4,29.8-8.8c6.6-3.1,13.1-6.2,19.5-9.5
			c5.7-2.8,11.2-5.9,16.8-8.8l-6.2,10.5c-2.4,1.4-4.9,2.7-7.2,4.3c-22.9,15.4-48.1,23.2-75.8,22.8c-7.6-0.1-15.2,0.8-22.8,1.3
			c3.8,3.5,8.2,3.4,12.5,3.2c9.3-0.3,18.6-1,27.9-1.6l1.9,0.6c-6.1,2.1-12.3,3.6-18.5,5.2c-1,0.4-1.9,1-2.7,1.7
			c0.9,0.5,1.9,1.6,2.8,1.5c5.9-0.3,11.7-0.6,17.5-1.4c5.3-0.8,10.4-2.7,15.7-3.2c8.8-0.8,17.7-0.8,26.6-1.4
			c12.9-0.8,25.8,0.2,38.3,3c-7.7,6-13,14.7-14.6,24.4c-0.2,1.2-0.8,1.5-2.1,1.3c-3.5-0.6-7-0.9-10.5-1.6c-0.9-0.3-1.6-1-2.1-1.9
			c-1.5-2.9-2.8-5.8-4.2-8.7l-1.7-0.5c-11-0.7-22.1-1.4-33.2-2.1c-3.3-0.2-6.8-0.6-10,0.1c-2.2,0.5-3.9,2.8-5.9,4.3l-1.7,0.3
			c-5.5-0.2-11-0.5-16.6-0.5c-3,0-3.8,1.2-3.7,4.1c0.2,5.5,1.2,6.7,6.7,6.8c3.2,0.1,6.4,0.2,9.5,0.2c1.6,0,1.9,0.5,1.9,2
			c-0.1,2.5,0,5.1,0.3,7.6c0.2,1.8-0.4,1.8-1.9,1.8c-3.9-0.1-7.8,0-11.7,0.1c-2.4,0.1-3.4,1.6-3.4,4c0,6.6-0.1,6.6,6.5,6.8
			c4.4,0.1,8.7,0.2,13.1,0.5c0.9,0.1,1.8,0.5,2.4,1.3c2,3.5,5.1,4.5,8.7,4.2c12.3-0.8,24.6-1.7,36.9-2.5c3-0.2,4.5-2.6,5.8-4.8
			c1.2-2.2,2.1-4.6,2.6-7.1c0.3-1.4,0.8-1.8,2.2-1.6c2.8,0.3,5.6,0.6,8.4,0.8c1.6,0.1,1.6,1,1.7,2.2c0.3,6.7,2.2,13.2,5.4,19
			c0.9,1.5,2.8,2.5,4.2,3.7h1.6c1.6-0.8,3.6-1.1,4.7-2.3c4-4,7.6-8.3,11.4-12.6c1.1-1.2,2-2.5,3-3.8l3.3-0.9l23.4,0.7
			c-0.2,1.6-0.4,3.2-0.6,4.8c-0.1,0.1-0.1,0.3-0.1,0.5v-0.1c-0.6,0.1-1.2,0.2-1.8,0.4c-6.7,1.8-13.2,5.4-20.6,2.9
			c-0.5-0.1-1,0.1-1.3,0.5c-0.2,0.5,0,1,0.3,1.4c1,0.9,2.2,1.5,3.5,2c7.6,1.9,13.8-1,19.4-5.9c-1.3,9.4-3.9,18.1-10,25.8
			c-6.8,8.5-15.2,12.3-26,10.5c-3.2-0.5-6.4-1-9.6-1.6c-0.4-0.1-0.8-0.3-1.1-0.6c-1.3-1.8-3-1.3-4.7-0.7c-3.4,1.3-6,6.2-5.7,10
			c0.5,6.3,1.2,12.6,1.4,18.9c0.3,11.2,0.2,22.3,0.7,33.5c0.6,13.9-1.3,27.5-2.4,41.3c-0.5,6.2-0.8,12.4,2.3,18.1
			c0.6,1.1,1.6,1.9,2.8,2.1c3.3,0.2,6.4-1.3,8.3-4l5.2-3.5l0.8-0.6l0,0l0.5-0.6l0,0l4.1,1.1c-0.4,1.2-0.9,2.4-1.5,3.5
			c-0.8,1.1-1.8,2-3,2.7c-7.2,3.9-14.1,8.2-21.6,11.3c-23.7,9.8-49,13.5-74,18.6c-1.8,0.4-2.7,0.8-2.3,2.8c-9.3,1-18.6,1.4-27.9-0.1
			c-14.7-2.4-29.5-4.8-44.1-7.7c-8.8-1.6-17.2-4.9-24.8-9.6c-0.5-0.3-1.1-0.6-1.6-1c-7.8-5.8-9.5-10.1-2-18.4l1.3-1.2
			c0.7-2.4,1.5-4.7,1.9-7.1s0.7-5.1,1-7.7l0.1-1.1l0.4-2.7l0.1-1.1l0.5-3.8l0.1-1.1l0.5-3.8l0.1-1.1l0.5-3.8l0.1-1.1
			c0.2-1.3,0.3-2.5,0.5-3.8l0.1-1.6l1.6-13.7l0.1-1.1l0.5-4.9l0.1-1.1c0.2-1.8,0.3-3.6,0.5-5.4l0-1.1c0.2-2,0.3-4,0.5-6l0.1-1.1
			l0.5-6l0.1-2.2l0.5-7.1l0.1-2.2l0.5-6.5l0.1-3.8c0.2-2.9,0.3-5.8,0.5-8.7v-1.1v-24v-1.1l-0.5-7.1v-2.7l-0.8-6.1
			c-0.5-1.1-0.9-2.2-1.4-3.4l-0.9,0.1l0.3,3.3v6.5c0,1.6,0,3.3,0,4.9v2.2c0,1.1,0,2.2,0,3.3c0,3.5-0.2,7.1,0,10.6
			c0.1,2.2-0.7,3.1-2.7,3.4c-1.3,0.2-2.5,0.4-3.8,0.7h-2.2l-6.5-0.5l-1.1-0.1c-3.6-0.9-7.2-1.6-10.8-2.6c-7.7-2-14.2-5.8-18.2-13
			c-0.2-0.5-0.6-0.9-1.1-1.1c-3.7-1.2-7.3-2.4-11-3.5l-2.4-1.1C146.8,275.2,142.9,268.4,142.4,259.4z M380,308.4l1.7,1.5l0.7-0.4
			l-7.3-18.1c-0.3,1.3-0.5,2-0.7,2.8c-0.4-0.6-0.8-1.2-1.3-1.7c-0.7-0.7-1.5-1.3-2.3-1.9c-0.2,1-0.8,2.1-0.7,3
			c0.8,5.1,2.9,10,6.1,14.1c0.8,1.2,2.4,1.6,3.7,0.9C379.9,308.5,380,308.4,380,308.4L380,308.4z M235.7,280.1
			c-1.4,1.1-3.3,1.8-4.1,3.2c-4.2,6.7-7.1,14.1-8.5,21.9c-0.3,2.2-0.4,4.5-0.2,6.7c0,0.6,0.9,1.1,1.4,1.6c0.4-0.5,0.8-1.1,1-1.7
			c1.3-9,4.5-17.3,8.5-25.4c0.8-2.1,1.5-4.2,1.9-6.4l-0.1,0L235.7,280.1z M279.3,446.5l0.2-1.2c-1.2-0.6-2.5-1.2-3.9-1.6
			c-4.3-0.9-8.5-1.8-12.8-2.4c-11.5-1.5-22.7-3.7-33.2-9c-3.8-1.9-7.6-3.8-11.4-5.6c-0.9-0.3-1.8-0.4-2.8-0.4c0.2,1,0.1,2.1,0.6,2.9
			c0.8,1,1.8,1.8,2.9,2.4c6.3,3,12.6,6.1,19,8.6c9.9,3.9,20.4,5.2,30.8,6.3C272.4,446.6,275.9,446.7,279.3,446.5z M334.6,442.5v0.3
			c9.3-1.2,18.7-2.4,27.9-3.8c2-0.4,4-1.3,5.5-2.6c1-1,1.4-2.4,1.2-3.7c-0.3-0.9-1.9-1.9-3.1-2c-1.6-0.1-3.2,0.2-4.8,0.7
			c-8.8,2.6-17.6,5.4-26.5,8.1c-1.4,0.4-2.8,0.8-4.1,1.3c-0.6,0.3-1,0.8-1.5,1.3c0.5,0.2,1.1,0.4,1.7,0.5
			C332.2,442.6,333.4,442.5,334.6,442.5L334.6,442.5z M268,222c2,0,4,0.1,6,0c0.8-0.2,1.6-0.4,2.4-0.8c-0.8-0.4-1.6-0.8-2.5-1.2
			c-0.3-0.1-0.5-0.1-0.8-0.1c-6.8-1.5-13.8-2.4-20.4-4.6c-6.3-2.2-12.1-5.8-18.1-8.7c-0.8-0.2-1.6-0.3-2.3-0.3
			c0,0.8,0.2,1.7,0.6,2.4c0.7,0.8,1.5,1.6,2.4,2.2C245.1,217.9,255.8,222,268,222z M292.9,448.2c2.5-0.5,4.6-0.9,6.7-1.5
			c0.7-0.2,1.1-1,1.7-1.5c-0.6-0.3-1.2-0.8-1.8-0.8c-2.3,0.1-4.6,0.4-6.9,0.8c-0.7,0.1-1.2,1-1.8,1.6L292.9,448.2z M242.5,202.9
			l0.5-1c-0.8-0.7-1.6-1.4-2.5-1.9c-2.5-1.3-5-2.4-7.6-3.6c-0.7-0.2-1.4-0.4-2.1-0.5c0.4,0.7,0.7,1.8,1.4,2.1
			C235.5,199.7,239,201.3,242.5,202.9z"/>
		<path class="st8" d="M305.9,460.4c-0.4-1.9,0.6-2.4,2.3-2.8c24.9-5.1,50.2-8.8,74-18.6c7.5-3.1,14.5-7.4,21.6-11.3
			c1.2-0.7,2.2-1.6,3-2.7c0.6-1.1,1.2-2.3,1.5-3.5l-4.1-1.1c0.4-0.7,0.8-1.4,1.1-2.1c0.2-0.8,0.4-1.5,0.5-2.3
			c-0.8,0.1-1.9-0.2-2.5,0.2c-2.5,1.7-4.9,3.6-7.2,5.7c-1.6,1.6-0.9,2.9,1.6,3.2c-1.9,2.7-5,4.2-8.3,4c-1.2-0.3-2.2-1-2.8-2.1
			c-3.1-5.7-2.8-11.9-2.3-18.1c1.1-13.8,3-27.4,2.4-41.3c-0.5-11.1-0.3-22.3-0.7-33.5c-0.2-6.3-0.8-12.6-1.4-18.9
			c-0.3-3.8,2.3-8.7,5.7-10c1.6-0.6,3.3-1.1,4.7,0.7c0.3,0.3,0.7,0.5,1.1,0.6c3.2,0.5,6.4,1,9.6,1.6c10.8,1.8,19.2-2,26-10.5
			c6.1-7.6,8.7-16.4,10-25.8c0.2-0.5,0.4-0.9,0.6-1.3v0.1c0-0.1,0.1-0.1,0.1-0.2c0-0.1,0-0.2-0.1-0.3c0.2-1.6,0.4-3.2,0.6-4.8
			c3.9,0.5,7.8,1,11.7,1.6c0.5,0.1,1,0.8,1.2,1.4c0.2,0.9,0.4,1.9,0.5,2.9c0,0.1-0.1,0.2-0.1,0.2c0.1,0.2,0.1,0.3,0.2,0.5
			c0,1.2,0.1,2.4,0.2,3.6l-0.1,3.4l-2.2,14.4c-6.4,18-24.1,28.5-42.3,25.2c-4.7-0.9-8.9-3.2-12.2-6.6c-1.6-1.6-3.4-2.9-5.2-4.3
			l-2.3-1.1c0,0.4,0.1,0.8,0.2,1.2c1.4,5.1,5.2,8.5,9,11.5c1.2,0.9,1.9,2.3,1.8,3.8c0.1,25.7,0.2,51.4,4.4,76.8
			c0.8,4.7,1.7,9.5,2.4,14.2c0.3,2.2,1.7,4.1,3.8,4.9c1.3,0.7,2.2,2.2,3.3,3.3c0,0.2,0,0.5,0,0.7s-0.3,0.6-0.4,0.9
			c-0.1,0-0.3,0.1-0.3,0.3c0,0,0,0,0,0.1c-0.2,0-0.3,0.2-0.3,0.4h-0.1l0.1,0.1l-3.9,3.9l-0.1-0.1v0.1c-0.2,0-0.3,0.1-0.3,0.3
			c0,0,0,0,0,0c-0.2,0-0.3,0.1-0.4,0.3c0,0,0,0,0,0h-0.1v0.1l-0.5,0.4l-1.3,1h-0.2v0.2h-0.2l-0.1,0.1l-0.5,0.4
			c-11.1,8.4-23.7,13.9-36.9,17.5c-11.7,3.2-23.7,5.3-35.7,7.4C326.3,458.1,316.1,459.1,305.9,460.4z"/>
		<path class="st9" d="M402.5,220.1c-12.6-2.8-25.5-3.8-38.3-3c-8.9,0.6-17.8,0.6-26.6,1.4c-5.3,0.5-10.4,2.4-15.7,3.2
			c-5.8,0.8-11.7,1.1-17.5,1.4c-0.9,0.1-1.9-1-2.8-1.5c0.8-0.7,1.7-1.3,2.7-1.7c6.2-1.6,12.4-3.1,18.5-5.2l-1.9-0.6
			c0.9-0.2,1.8-0.5,2.6-0.6c13.3-2.8,26.7-5.4,38.8-12.1c7.7-4.2,15-9.1,22.4-13.8c1.1-0.7,3-1.5,1.6-3.6l6.2-10.5
			c0.9-0.7,1.8-1.5,2.6-2.4c0.5-0.9,0.9-1.8,1.1-2.8c-1,0-2,0.2-2.9,0.5c-3.1,1.5-6.1,3.1-9.1,4.8c-2,1.1-2.3,0.2-2-1.6
			c0.2-1,0.3-2,0.5-3c0.3-2.2-0.3-4.9,3.3-4.9h0.5l2-1l1.4-0.4l0.8-0.2l2.3-0.1l2.2-0.5l4.7,0.2l0.7,0.4c2.5,2.5,3.3,5.3,1.5,8.5
			c-1.5,2.8-3.9,5-5.9,7.5l-4.8,3.8l0.3,0.5l2.3-0.6c-0.2,0.9-0.3,1.8-0.5,2.6c-1.5,2.8-3,5.6-4.5,8.4c-0.1,0.3-0.2,0.5-0.3,0.8
			c-2.6,7.6-1.7,7.9,4.9,12.1c2.7,1.7,6.1,2.2,9.2,3.2l1.1,0.5l0,0l0.5,0.4l1.6,0.6l2.7,1.1c3,2.5,6,4.9,9,7.4
			c0.5,0.5,1,1.1,1.4,1.8L402.5,220.1z"/>
		<path class="st10" d="M367.9,238.5l0.2,0.6l0.4,1.1l0.1,0.6l0.4,1.1l0.2,1.1c0,0.3,0.1,0.6,0.2,1l-4.1,0.6l-0.8-2l-0.9,2.1
			c-1.1,7.2-1.3,14.5,1.2,21.4c0.7,1.9,0.3,2.1-1.4,2.2c-10.9,0.8-21.7,1.6-32.6,2.4c-0.5,0.1-1.1,0.2-1.6,0.3l-1.8,0.3
			c-0.9-0.4-1.8-0.9-2.6-1.6c-6.1-7.5-7.4-23.2-2.6-31.6c2.3-4.1,3.5-4.4,8-4c12.2,1.1,24.4,2,36.6,2.9l0.6,0.4l0.1,0.1L367.9,238.5
			z"/>
		<path class="st11" d="M425.7,393.9l-8.7,15.2l-0.6,0.6l0.1-0.1l-1.8,1.8c-0.8-4.5-1.7-8.9-2.5-13.4c0.1-0.2,0.2-0.5,0.3-0.7
			c5.2-9.3,7.3-19.6,9.3-29.9c0.3-1.3-0.3-1.4-1.6-1.1c-3.6,0.8-7.2,1.3-10.8,2c-0.2-2-0.4-4-0.5-5.9c0-0.7,0.3-1.3,0.9-1.7
			c8.3-3.8,16.6-7.6,25-11.3c1.5-0.5,2.9-0.9,4.5-1.2c2-0.5,3.2,0.1,2.9,2.4c-0.2,2.6-0.6,5.2-1.1,7.8c-2.6,10.2-6.6,20-11.8,29.1
			c-0.5,0.9-0.9,1.8-1.4,2.6l-0.2,0.1v0.2l-1.6,2.7L425.7,393.9z"/>
		<path class="st12" d="M434.8,233.1l1.3,1l0.4,0.4c3.4,3.6,6,7.4,5.4,12.8c-0.2,1.8-0.7,2.8-2.8,2.6c-3.4-0.2-6.8,0-10.1,0l7-8.1
			l-0.6-0.8c-1.4,0.4-2.8,0.9-4.2,1.6c-7.1,4.6-12.1,11.2-17.1,17.8c-3,3.9-5.7,8-8.7,11.8c-1.6,1.9-3.4,3.7-5.4,5.3
			c-3.6,3-3.9,2.9-5.8-1.4c4.3-14.7,12.5-28,23.8-38.4c1.8-1.7,1.7-2.9,0.4-4.8c-1.5-2.2-3.8-4.1-3-7.3l10.8,3.4l1.2,0.7h-0.1l5,2.2
			h-0.1l1.1,0.6l0,0l0.8,0.5L434.8,233.1l0.1,0.1L434.8,233.1z"/>
		<path class="st13" d="M415.4,225.7c-0.7,3.1,1.5,5.1,3,7.3c1.3,1.9,1.5,3.1-0.4,4.8c-11.3,10.4-19.5,23.7-23.8,38.4
			c-4.7-9.5-4.7-19.4-2.7-29.5c1.6-7.9,4.4-15.4,10.2-21.2c0.7-0.8,1.8-1.4,2.9-1.5C408.3,224.3,411.8,225.1,415.4,225.7z"/>
		<path class="st14" d="M409.4,368.4c3.6-0.6,7.2-1.2,10.8-2c1.2-0.3,1.8-0.2,1.6,1.1c-2,10.3-4.1,20.6-9.3,29.9l-0.4-0.4
			c-0.7-5.3-1.4-10.5-2.1-15.8c0-0.4-0.1-0.7-0.1-1l-0.1-1.6l-0.1-3.2l-0.2-3.8l-0.3-3.2L409.4,368.4z"/>
		<path class="st2" d="M386.8,249.9c-0.4,2-0.1,4.8-1.3,5.7c-1.2,0.9-3.7-0.5-5.7-0.6c-4.1-0.3-8.2-0.7-12.4-0.7
			c-1.6,0-2.1-0.4-2-1.9c0.1-0.6,0.1-1.3,0-1.9c-0.3-1.8,0.6-2.5,2.3-2.4c5,0.4,9.9,0.8,14.9,1.2l3.8,0.3L386.8,249.9z"/>
		<path class="st15" d="M309.3,265.2c-2.2,0-4.3-0.1-6.5,0c-1.7,0.1-1.9-1-1.6-2.1c0.2-0.7,1.1-1.6,1.7-1.6c4-0.1,7.9-0.1,11.9,0.2
			c0.8,0.1,1.4,1.8,2.1,2.8c-0.7,0.4-1.4,0.6-2.1,0.8C312.9,265.4,311.1,265.3,309.3,265.2L309.3,265.2z"/>
		<path class="st15" d="M307.7,239.3c2.3,0.1,4.5,0.1,6.8,0.4c0.6,0.1,1.1,0.5,1.4,0.9c-0.4,0.8-0.9,2.2-1.4,2.2
			c-4.4,0.1-8.9,0.1-13.3-0.2c-0.5,0-1-1.7-1.4-2.6c0.4-0.5,1-0.8,1.6-0.9C303.5,239,305.6,239.2,307.7,239.3L307.7,239.3z"/>
		<path class="st16" d="M445.9,246.7l7.1,4.8l-0.2,0.7c-2.3-0.3-4.6-0.5-7-0.8c-0.3,0-0.7-0.8-0.7-1.2c0.1-1.1,0.2-2.1,0.3-3.2
			L445.9,246.7z"/>
		<path class="st16" d="M367.1,265.6c-0.4-2.1-0.9-4.1-1.1-6.2c0-0.3,1.2-1.2,1.7-1.1s1.8,1,1.7,1.4c-0.3,2-1,3.9-1.5,5.9
			L367.1,265.6z"/>
		<path class="st17" d="M454.6,293.4l2.2-14.4c0.1,0.1,0.3,0.2,0.4,0.2c-0.5,3.8-0.9,7.5-1.4,11.2
			C455.5,291.5,455.1,292.5,454.6,293.4z"/>
		<path class="st5" d="M394.1,182.4l-2.3,0.6l-0.3-0.5l4.8-3.8c0,0.8,0.1,1.6,0.1,2.4l-1.1,0.9L394.1,182.4z"/>
		<path class="st0" d="M214.8,269.6l-0.3-3.3l0.9-0.1c0.5,1.1,0.9,2.2,1.4,3.4L214.8,269.6z"/>
		<path class="st5" d="M419.7,264.7l-3.3,0.9l0.8-2.4C418.1,263.7,418.9,264.2,419.7,264.7z"/>
		<path class="st16" d="M395.3,181.9l1.1-0.9l2.5-1.3l0.1,0.1l-3.7,4.2C395.2,183.3,395.2,182.6,395.3,181.9z"/>
		<path class="st0" d="M214.8,281c0-1.6,0-3.3,0-4.9C214.8,277.8,214.8,279.4,214.8,281z"/>
		<path class="st18" d="M432.3,231.9l-5-2.2L432.3,231.9z"/>
		<path class="st0" d="M217.6,320.3l-0.1,3.8L217.6,320.3z"/>
		<path class="st19" d="M395.3,181.9c0,0.7-0.1,1.4-0.1,2.1l-1.5,1.1c0.2-0.9,0.3-1.8,0.5-2.6L395.3,181.9z"/>
		<path class="st18" d="M414.8,411.5l1.8-1.8l-1,3.5l-0.5-0.1L414.8,411.5z"/>
		<path class="st0" d="M214.9,286.5c0-1.1,0-2.2,0-3.3C214.8,284.3,214.8,285.4,214.9,286.5z"/>
		<path class="st5" d="M363.5,244.5l0.9-2.1l0.8,2L363.5,244.5z"/>
		<path class="st0" d="M217.6,275.6v2.7V275.6z"/>
		<path class="st5" d="M408.8,212.3l-2.7-1.1L408.8,212.3z"/>
		<path class="st0" d="M395.2,162.1l-2.2,0.5L395.2,162.1z"/>
		<path class="st0" d="M206.1,301.1L206.1,301.1z"/>
		<path class="st5" d="M392.7,307.8c0-0.4-0.1-0.8-0.2-1.2l2.3,1.1L392.7,307.8z"/>
		<path class="st0" d="M217.1,330.6l-0.1,2.2L217.1,330.6z"/>
		<path class="st0" d="M216.5,339.9l-0.1,2.2L216.5,339.9z"/>
		<path class="st0" d="M155,279.3l2.4,1.1L155,279.3z"/>
		<path class="st5" d="M409.2,368.4c0.1,1.1,0.2,2.1,0.3,3.2l-0.3,0.5C409.2,370.9,409.2,369.6,409.2,368.4z"/>
		<path class="st11" d="M409.2,372.1l0.3-0.5l0.2,3.8c-0.1,0.1-0.3,0.1-0.4,0L409.2,372.1z"/>
		<path class="st0" d="M388.5,163.2l-2,1L388.5,163.2z"/>
		<path class="st0" d="M212.7,382.4l-0.1,1.6L212.7,382.4z"/>
		<path class="st5" d="M409.4,375.4c0.1,0.1,0.3,0.1,0.4,0c0,1.1,0.1,2.2,0.1,3.2C409.7,377.5,409.5,376.5,409.4,375.4z"/>
		<path class="st5" d="M316.7,235.7l1.7-0.3L316.7,235.7z"/>
		<path class="st5" d="M397.4,284.3L397.4,284.3z"/>
		<path class="st5" d="M457.2,279.2c-0.2-0.1-0.3-0.1-0.4-0.2l0.1-3.4C457,276.8,457.1,278,457.2,279.2z"/>
		<path class="st5" d="M367.4,233.1l1.7,0.5L367.4,233.1z"/>
		<path class="st0" d="M215.4,355.2l0,1.1L215.4,355.2z"/>
		<path class="st0" d="M206.9,422.4l-1.3,1.2L206.9,422.4z"/>
		<path class="st0" d="M218.1,285.4v1.1V285.4z"/>
		<path class="st0" d="M210,406.4l-0.1,1.1L210,406.4z"/>
		<path class="st0" d="M198.5,300.6l1.1,0.1L198.5,300.6z"/>
		<path class="st0" d="M210.5,402.6l-0.1,1.1L210.5,402.6z"/>
		<path class="st0" d="M211.1,397.7l-0.1,1.1L211.1,397.7z"/>
		<path class="st0" d="M218.1,310.5v1.1V310.5z"/>
		<path class="st0" d="M211.6,392.8l-0.1,1.1L211.6,392.8z"/>
		<path class="st0" d="M216,348.1l-0.1,1.1L216,348.1z"/>
		<path class="st0" d="M212.2,387.9l-0.1,1.1L212.2,387.9z"/>
		<path class="st0" d="M214.9,361.7l-0.1,1.1L214.9,361.7z"/>
		<path class="st5" d="M420.6,222.5c-0.1,0.1-0.1,0.3-0.2,0.5c-0.2-0.1-0.4-0.1-0.4-0.2s0.1-0.3,0.2-0.4L420.6,222.5z"/>
		<path class="st0" d="M214.3,367.7l-0.1,1.1L214.3,367.7z"/>
		<path class="st5" d="M327.4,271.1l1.8-0.3L327.4,271.1z"/>
		<path class="st5" d="M409.9,380.2c0,0.4,0.1,0.7,0.1,1L409.9,380.2z"/>
		<path class="st18" d="M427.4,229.8l-1.2-0.7L427.4,229.8z"/>
		<path class="st18" d="M433.3,232.5l-1.1-0.6L433.3,232.5z"/>
		<path class="st5" d="M403.9,210.1l-1.1-0.5L403.9,210.1z"/>
		<path class="st0" d="M390.7,162.7l-0.8,0.2L390.7,162.7z"/>
		<path class="st5" d="M367.9,238.5l-0.5-1.1L367.9,238.5z"/>
		<path class="st5" d="M412.1,397.1l0.4,0.4c-0.1,0.2-0.2,0.5-0.3,0.7C412.2,397.8,412.2,397.4,412.1,397.1z"/>
		<path class="st5" d="M368.5,240.1l-0.4-1.1L368.5,240.1z"/>
		<path class="st5" d="M417.4,423.2c0-0.2,0-0.5,0-0.7C417.4,422.7,417.4,422.9,417.4,423.2z"/>
		<path class="st5" d="M369,241.8l-0.4-1.1L369,241.8z"/>
		<path class="st5" d="M369.4,243.9c-0.1-0.3-0.1-0.6-0.2-1L369.4,243.9z"/>
		<path class="st18" d="M416.4,409.8l0.6-0.6L416.4,409.8z"/>
		<path class="st5" d="M416.7,424.4c0-0.1,0.1-0.3,0.2-0.3c0,0,0,0,0.1,0C416.9,424.2,416.8,424.3,416.7,424.4z"/>
		<polygon class="st5" points="416.4,424.9 416.3,424.8 416.4,424.8 		"/>
		<polygon class="st5" points="412.4,428.8 412.4,428.7 412.5,428.7 		"/>
		<path class="st5" d="M411.7,429.4c0-0.2,0.2-0.3,0.3-0.3c0,0,0,0,0,0C412,429.2,411.9,429.3,411.7,429.4z"/>
		<path class="st5" d="M411.1,429.9l0.5-0.4L411.1,429.9z"/>
		<path class="st5" d="M388.8,194.3c0.1-0.3,0.2-0.6,0.3-0.8C389,193.8,388.9,194,388.8,194.3z"/>
		<polygon class="st5" points="409.6,431 409.6,430.8 409.8,430.9 		"/>
		<path class="st5" d="M408.9,431.5l0.5-0.4L408.9,431.5z"/>
		<path class="st5" d="M398.8,179.7l0.3-0.3L398.8,179.7L398.8,179.7z"/>
		<path class="st5" d="M425.7,393.9l0.4-0.7L425.7,393.9z"/>
		<path class="st5" d="M427.8,390.5v-0.2l0.2-0.1C427.9,390.4,427.8,390.4,427.8,390.5z"/>
		<path class="st5" d="M386.8,249.9l-0.5-0.4L386.8,249.9z"/>
		<path class="st5" d="M445.9,246.7l-0.4,0.3L445.9,246.7z"/>
		<path class="st5" d="M456.7,272c-0.1-0.1-0.2-0.3-0.2-0.5c0-0.1,0-0.2,0.1-0.2C456.6,271.5,456.6,271.8,456.7,272z"/>
		<path class="st5" d="M400.6,162.6l-0.7-0.4L400.6,162.6z"/>
		<path class="st18" d="M434.1,233l-0.8-0.5L434.1,233z"/>
		<polygon class="st5" points="434.8,233.1 434.8,233.2 434.7,233.1 		"/>
		<path class="st5" d="M436.6,234.5l-0.4-0.4L436.6,234.5z"/>
		<path class="st5" d="M367.4,237.3l-0.6-0.4L367.4,237.3z"/>
		<path class="st5" d="M435.5,241l0.6,0.8C435.9,241.5,435.7,241.3,435.5,241z"/>
		<path class="st5" d="M404.4,210.6l-0.5-0.4L404.4,210.6z"/>
		<path class="st13" d="M158.8,239.2l-11.5,0.9L147,239c0.3-0.4,0.5-0.8,0.7-1.2c4.9-13.1,15.9-17.9,28.4-19.7
			c8.5-1.2,16.7,1.4,24.2,5.4c0.8,0.4,1.4,2,1.4,3.1c0.4,13.2-1,26.3-4.1,39.1c-0.5,2.1-1.1,4.2-1.6,6.3s-1.4,2-2.7,0.7
			c-1.7-1.6-3.4-3.3-5-5c-6.6-7.2-13.1-14.5-19.7-21.8v-0.2h-0.2v-0.2l-0.2-0.1l-0.3-0.4V245h-0.2l-0.4-0.4l-0.1-0.1l-0.5-0.5
			l-8-11.5c-0.5-1.2-1-1.1-1.5,0c0.5,2,1,4,1.5,6L158.8,239.2z"/>
		<path class="st20" d="M248.4,235.9c7.5-0.6,15-1.2,22.5-1.8c2-0.1,4.1,0.1,6.2,0.1c-0.6,1.9-1.3,3.7-1.9,5.6
			c-3,9.6-3.7,19.4-0.9,29.2c0.4,1.5,0.7,2.1-1.4,1.8c-10.6-2-21.2-3.8-31.8-5.7c-0.8-0.4-1.5-1.1-1.7-1.9
			c-2.2-7.4-0.4-14.5,1.9-21.6c0.1-0.2,0.2-0.3,0.2-0.5c0.4-3.6,2.5-5.1,6.1-4.9L248.4,235.9z"/>
		<path class="st14" d="M164.8,252.7l3.2-0.6l1.1-0.2c3.4,3.7,6.8,7.6,10.3,11.2c1.6,1.6,1.3,2.4-0.7,3.1c-0.3,0.1-0.5,0.2-0.7,0.4
			c-12.3,6.8-27,1.9-33.4-11.5l18.6-2.4L164.8,252.7z"/>
		<path class="st16" d="M205.4,244c0-0.5,0.1-0.9,0.1-1.4l0,0l10.4,0.5c5.9,0.3,11.8,0.6,17.6,1c0.7,0,1.9,1,1.8,1.3
			c-0.4,1.3,0.5,3.6-2.2,3.5c-5.6-0.1-11.2-0.2-16.8-0.3c-3.6-0.1-7.2-0.1-10.8-0.1L205.4,244z"/>
		<path class="st18" d="M280.9,261.4c-0.7,0.1-1.4,0.2-2.1,0.2c-0.5,0-0.9-0.4-1.4-0.7c0.3-0.6,0.5-1.5,0.9-1.6
			c1.4-0.5,3-0.8,4.5-0.9c0.8,0,2.2,0.8,2.3,1.4c0.3,1.6-0.8,1.9-2.2,1.6C282.2,261.4,281.5,261.4,280.9,261.4z"/>
		<path class="st18" d="M284,243.2l2.2,2.3c-0.8,0.5-1.6,0.9-2.4,1.2c-1.3,0.3-2.7,0.5-4,0.6c-0.4,0-0.8-0.1-1.2-0.2
			c0.1-0.4,0.1-1.1,0.3-1.2C280.4,244.9,282,244.2,284,243.2z"/>
		<path class="st0" d="M221.9,239.6l6.5,0.1L221.9,239.6z"/>
		<path class="st0" d="M271.5,229.8l4.9-0.1L271.5,229.8z"/>
		<path class="st0" d="M278.6,229.7l3.8,0.1L278.6,229.7z"/>
		<path class="st0" d="M227.4,252.7l-3.8-0.1L227.4,252.7z"/>
		<path class="st0" d="M280.8,275.6H277H280.8z"/>
		<path class="st0" d="M225.7,163.3L225.7,163.3z"/>
		<path class="st0" d="M205.4,244l0.1,4.4h-0.9C204.9,246.9,205.2,245.4,205.4,244z"/>
		<path class="st0" d="M234.5,257c0-0.7,0-1.4,0-2.2C234.5,255.6,234.5,256.3,234.5,257z"/>
		<path class="st0" d="M197.6,277.8l-2.4,0.5L197.6,277.8z"/>
		<path class="st0" d="M290.7,252.1l-0.1,1.7L290.7,252.1z"/>
		<path class="st0" d="M216.5,252.2l-1.6-0.1L216.5,252.2z"/>
		<path class="st0" d="M206.1,228.7L206.1,228.7z"/>
		<path class="st0" d="M212.6,239l1.6,0.1L212.6,239z"/>
		<path class="st0" d="M147,239l0.3,1.1l-1,0.1L147,239z"/>
		<path class="st0" d="M238.4,236.8c0.1-0.6,0.3-1.1,0.4-1.7C238.6,235.7,238.5,236.3,238.4,236.8z"/>
		<path class="st0" d="M290.6,244c0,0.4,0,0.7,0,1.1C290.6,244.7,290.6,244.3,290.6,244z"/>
		<path class="st0" d="M236.1,240.6l1.1-0.4L236.1,240.6z"/>
		<path class="st0" d="M233.3,240.1l1.1,0.1L233.3,240.1z"/>
		<path class="st0" d="M169.1,252l-1.1,0.2l0.5-0.9L169.1,252z"/>
		<path class="st0" d="M234.5,253.8l-0.8-1L234.5,253.8z"/>
		<path class="st0" d="M158.8,239.2l0.3-0.8l0.6,0.7L158.8,239.2z"/>
		<path class="st0" d="M206.1,238.2l1.2,0.3L206.1,238.2z"/>
		<path class="st0" d="M205.6,251.1l-1.1,0.6l0.2-1L205.6,251.1z"/>
		<path class="st0" d="M157.5,232.4c0.5-1.2,1-1.3,1.5,0H157.5z"/>
		<path class="st0" d="M262.8,230.3l1.1-0.1L262.8,230.3z"/>
		<path class="st0" d="M186.9,213.4c0.1,0.3,0.3,0.7,0.4,1l-1.1-0.4L186.9,213.4z"/>
		<path class="st0" d="M164.8,252.7l-1.6,0.1L164.8,252.7z"/>
		<path class="st0" d="M226.4,203.6l-0.7,0.5L226.4,203.6z"/>
		<path class="st0" d="M168.5,245.9h0.2v0.2C168.6,246,168.5,246,168.5,245.9z"/>
		<path class="st0" d="M182.6,267.4l-0.4,0.2C182.3,267.4,182.5,267.4,182.6,267.4z"/>
		<path class="st0" d="M248.4,235.9l-0.8,0.2L248.4,235.9z"/>
		<path class="st0" d="M205.6,242.6L205.6,242.6z"/>
		<path class="st0" d="M166.9,244l0.5,0.5L166.9,244z"/>
		<path class="st0" d="M168,245.2l0.3,0.4C168.1,245.5,168,245.4,168,245.2z"/>
		<path class="st0" d="M167.5,244.6l0.4,0.4L167.5,244.6z"/>
		<path class="st0" d="M271.5,274.9l-0.9-0.2L271.5,274.9z"/>
		<path class="st21" d="M368.6,112.2c-2.6,2.6-3.8,6.3-3.4,9.9c0.4,4,2.8,6.8,6.7,7.5c1.7,0.3,1.8,0.9,1,2.1c-1.3,1.8-2.8,3.4-4,5.2
			c-0.7,1.2-1.2,2.4-1.6,3.7l3.8,0.1c0.4,0,0.7-0.1,1.1-0.1c0,0.8-0.1,1.6-0.2,2.4c-2.9,11.9-9,22.3-15.2,32.7
			c-0.8,1.3-2,2.4-3.3,3.1c-11.5,6.1-23.2,11.7-36,14.6c-6.1,1.4-12.1,2.9-18.2,4.3c-11.8,2-22.3-2.1-32.6-7.2
			c-9.5-4.7-18.9-9.6-28.4-14.3c-1.4-0.5-2.2-1.9-2-3.4c0.7-10.7,1.4-21.3,2-32c0.1-2.2,0-4.5,0-6.8c0.1-0.1,0.2-0.2,0.4-0.2
			c1.3,1.1,2.6,3.2,3.8,3.2c1.8-0.3,3.4-1.4,4.3-3c2.2-4.4,2.1-9.6-0.4-13.8c-0.6-1.1-1.6-2.4-2.6-2.6c-2.9-0.6-2.5-2.2-1.8-4.1
			c3.6-10.8,7.7-21.5,15.3-30.2c8.9-10.2,20.5-16.6,33.4-20.5c2.9,0,5.7-0.2,8.6-0.1c7.1,0.3,14.3,0.4,21.4,1.1
			c12.5,1.2,23.4,6.3,31.9,15.8c5.1,5.8,9,12.6,11.5,19.9C365.3,103.6,367,107.9,368.6,112.2z M266.9,156l1.3-1.4
			c4.6-4.8,4.2-7.9-1.6-10.6c-0.6-0.9-1.2-2.4-2.2-0.3c-0.4-0.1-0.8-0.3-1.2-0.5c-4.8-3.1-10.8-4-16.3-2.2c-2.7,0.8-5.1,2.3-5.4,5.4
			c-0.4,3.1,1.4,6.1,4.4,7.2c2.9,1.1,5.8,1.9,8.8,2.6C258.7,157.2,262.9,157.8,266.9,156z M345.8,124.5c1.2-1.7,2.5-3.4,3.8-5.2
			c-2.7,0.2-7,3.6-7.6,5.7c0,0.6,0,1.2,0.2,1.7c0.6-0.1,1.2-0.4,1.8-0.6C344.7,125.6,345.3,125.1,345.8,124.5
			c0.1,0.9,0.2,1.8,0.3,2.7c1.1-0.3,2.1-0.7,3.1-1.2c1-0.7,2-1.4,2.9-2.2l-0.3-0.6c-1.2,0.3-2.3,0.7-3.5,1
			C347.4,124.3,346.6,124.4,345.8,124.5L345.8,124.5z M316.9,91.8l0.5,0.6l0.4-0.6c1.8-2.9,3.7-5.6,5.7-8.3
			c6.4-7.5,16.1-7.2,22.2,0.5c1.4,1.8,2.8,3.6,4.6,5.7c-1.2-8.1-5.1-13.2-10.9-14.9C326.8,71.2,317.8,81.1,316.9,91.8z M357.6,144.3
			c2-3.4,1.2-5.7-2.4-6.2c-7-0.9-13.1,1-17.8,6.4c-3.3,3.8-2,9,2.3,10.3c8.8,2.6,21.8-4.7,24.1-13.6c0.2-0.9-0.2-2-0.3-3.3l-4.3,6.8
			L357.6,144.3z M284.1,166.8c-2.6-9.3,3.3-23.1,11.8-27.5c1.3-0.6,2.7-0.8,4.1-0.6c3.1,0.7,6.1,1.8,9.1,2.6c0.7,0.1,1.3,0.1,2,0
			c-0.2-0.8-0.5-1.5-0.9-2.1c-3.8-4-12.9-5.4-17.8-2.8c-4.1,2.2-7.4,5.7-9.4,9.9c-4.4,9-5.7,18.2-0.2,27.3c0.6,1,2,2.3,3,2.3
			s2-1.5,2.7-2.5c1.4-1.8,2.6-3.8,3.9-5.6c1.7,7.9,3.3,15.4,5,22.8c0.9,3.8,2.5,4.3,5.6,2c6-4.3,10.6-10,15-15.8l1.3-1.1
			c0.5-0.4,1.3-0.7,1.5-1.2c1-2.6,2-5.2,2.8-7.9c2.3-7.4,2.6-14.8-0.2-22.1c-0.7-1.8-0.3-2.7,1.7-2.3c1.3,0.2,2.6,0.7,4,0.9
			c0.7,0,1.4-0.1,2-0.3c-0.1-0.7-0.3-1.3-0.5-1.9c-2.2-3.1-5.5-4-9.1-3.7c-1.2,0.1-2.4,0.9-3.6,1.3l1.3,3
			c-10.1,6.7-20.3,13.3-30.3,20.1C287.1,162.8,285.7,165,284.1,166.8L284.1,166.8z M255,102.9c0.5-0.5,0.7-0.6,0.7-0.7
			c1.7-4,3.3-8,5-11.9c3-6.8,9.7-9.6,16.6-7.1c3.9,1.4,7.1,4.1,9.2,7.7c0.4,0.5,0.8,0.9,1.3,1.2c0.2-0.6,0.7-1.1,0.6-1.6
			c-0.1-1.3-0.3-2.7-0.8-3.9c-2.5-5.6-12-11.7-20.3-8.4S255,88.6,254.6,99.3C254.6,100.5,254.8,101.7,255,102.9L255,102.9z
			 M268.3,129c-0.1,4,2,6.6,5.3,6.5c3.5,0,6.6-3.6,6.6-7.7c0-3.7-2.7-6.8-6-6.8C270.6,121,268.4,124,268.3,129L268.3,129z
			 M336.8,126.8c0-4.1-2.7-7.6-5.9-7.5c-3.4,0.1-5.5,3-5.6,7.7c-0.1,4,2.2,6.6,5.9,6.6C334.4,133.6,336.8,130.7,336.8,126.8
			L336.8,126.8z M256.5,122.6l-0.6,1c1.3,1,2.5,2.2,3.8,3.1c0.4,0.3,1.2,0,1.8,0c-0.1-0.6,0-1.7-0.4-1.9
			C259.6,123.9,258.1,123.2,256.5,122.6L256.5,122.6z M260.7,119c-0.2,3.1,0.9,4.6,2.8,5.6c0.3,0.2,0.9-0.1,1.4-0.1
			c0-0.4-0.2-0.8-0.4-1.2C263.5,122,262.3,120.8,260.7,119L260.7,119z"/>
		<path class="st11" d="M299.2,197.5c6-1.4,12.1-2.9,18.2-4.3c12.8-2.9,24.5-8.4,36-14.6c1.4-0.7,2.5-1.8,3.3-3.1
			c6.2-10.4,12.3-20.8,15.2-32.7c0.1-0.8,0.2-1.6,0.2-2.4c3.3-2.1,7.2-3.4,9-7.4l0.8,0.2c-0.5,6.8-0.9,13.7-1.7,20.4
			c-0.8,7.1-2,14.2-3.1,21.3c-0.1,1-0.7,2-1.5,2.6c-14.2,6.9-28.1,14.8-43.9,17.3C321.1,196.7,310.1,196.8,299.2,197.5z"/>
		<path class="st17" d="M368.6,112.2c-1.6-4.3-3.3-8.6-4.8-13c-2.4-7.3-6.3-14.1-11.5-19.9c-8.5-9.4-19.3-14.5-31.9-15.8
			c-7.1-0.7-14.3-0.8-21.4-1.1c-2.9-0.1-5.7,0.1-8.6,0.1c3.5-0.7,7.1-1.7,10.6-2c14.4-1,28.9-0.8,41.9,6.3
			c16.5,8.6,28.8,23.5,34.2,41.3c0.6,1.8,0.3,2.2-1.7,2.3C373.2,110.6,370.9,111.6,368.6,112.2z"/>
		<path class="st17" d="M302.1,202.6c-10.8,2.9-21.7,3.7-32.6,0.5c-1.7-0.5-4.4-0.7-3.9-3.2s3-1,4.7-1c1.6,0,3.2,0.2,4.8,0.4
			C283.8,202.8,292.9,202.6,302.1,202.6z"/>
		<path class="st15" d="M244.5,127.5c-0.4,1.8-0.7,3.5-1.1,5c-0.1,0.3-0.6,0.5-1,0.7c-0.2-0.3-0.4-0.6-0.5-0.9
			c-0.1-0.6-0.2-1.2-0.2-1.9c-0.1-2.3-1.2-3.2-3.4-2.3s-2.5-0.1-2.2-1.8c0.5-3,1-6.1,4.5-7c0.8-0.1,1.6,0.3,2.1,0.9
			C243.6,122.7,244,125.2,244.5,127.5z"/>
		<path class="st16" d="M375.6,116.3c4.6,1.9,5.2,3.4,3.6,8.1c-0.3,1.2-0.4,2.4-0.1,3.6c0.6,3.7-2.1,7.6-5.7,7.6
			c1.9-2.8,3.8-5.6,2.2-9.2L375.6,116.3z"/>
		<path class="st22" d="M375.6,116.3v10.2c-4.5-2.5-5.7-5.7-3.3-9.1C373.1,116.2,374,115.2,375.6,116.3z"/>
		<path class="st21" d="M238.2,133.9l-0.3-0.8c0.2,0,0.4-0.1,0.4-0.1c0.1,0.2,0.2,0.4,0.3,0.7C238.5,133.7,238.3,133.8,238.2,133.9z
			"/>
		<path class="st23" d="M386.3,184.1c1.4,2-0.5,2.9-1.6,3.6c-7.4,4.7-14.8,9.6-22.4,13.8c-12.1,6.7-25.5,9.2-38.8,12.1
			c-0.9,0.2-1.8,0.4-2.6,0.6c-9.3,0.5-18.6,1.2-27.9,1.6c-4.2,0.1-8.7,0.2-12.5-3.2c7.6-0.4,15.2-1.4,22.8-1.3
			c27.7,0.4,52.9-7.4,75.8-22.8C381.4,186.8,383.9,185.5,386.3,184.1z"/>
		<path class="st3" d="M279.3,446.5c-3.5,0.2-6.9,0.1-10.4-0.1c-10.5-1.1-21-2.4-30.8-6.3c-6.5-2.6-12.7-5.7-19-8.6
			c-1.1-0.6-2.1-1.4-2.9-2.4c-0.5-0.7-0.4-1.9-0.6-2.9c0.9,0,1.9,0.1,2.8,0.4c3.8,1.8,7.6,3.7,11.4,5.6c10.5,5.3,21.7,7.4,33.2,9
			c4.3,0.6,8.6,1.5,12.8,2.4c1.3,0.4,2.6,0.9,3.9,1.6L279.3,446.5z"/>
		<path class="st24" d="M334.6,442.5c-1.2,0-2.4,0-3.5,0c-0.6-0.1-1.1-0.3-1.7-0.5c0.4-0.5,0.9-1,1.5-1.3c1.3-0.5,2.7-0.9,4.1-1.3
			c8.8-2.7,17.6-5.4,26.5-8.1c1.5-0.5,3.2-0.8,4.8-0.7c1.1,0.1,2.8,1.1,3.1,2c0.2,1.4-0.2,2.7-1.2,3.7c-1.6,1.3-3.5,2.2-5.5,2.6
			c-9.3,1.4-18.6,2.6-27.9,3.8L334.6,442.5z"/>
		<path class="st4" d="M268,222c-12.2,0-22.9-4.1-32.7-11.1c-0.9-0.6-1.7-1.3-2.4-2.2c-0.3-0.8-0.5-1.6-0.6-2.4c0.8,0,1.6,0,2.3,0.3
			c6,2.9,11.8,6.5,18.1,8.7c6.5,2.2,13.6,3.1,20.4,4.6c0.3,0,0.5,0,0.8,0.1c0.8,0.4,1.6,0.8,2.5,1.2c-0.8,0.4-1.6,0.7-2.4,0.8
			C272,222.1,270,222,268,222z"/>
		<path class="st4" d="M235.7,280c-0.5,2.2-1.1,4.3-1.9,6.4c-4,8.1-7.2,16.4-8.5,25.4c-0.2,0.6-0.6,1.2-1,1.7
			c-0.5-0.5-1.4-1-1.4-1.6c-0.2-2.2-0.2-4.5,0.2-6.7c1.4-7.8,4.3-15.2,8.5-21.9c0.9-1.4,2.7-2.2,4.1-3.2L235.7,280z"/>
		<path class="st4" d="M442.6,270.6c-0.2,0.4-0.4,0.9-0.6,1.3c-5.6,4.9-11.8,7.8-19.4,5.9c-1.3-0.5-2.4-1.1-3.5-2
			c-0.3-0.4-0.5-0.9-0.3-1.4c0.3-0.4,0.8-0.6,1.3-0.5c7.4,2.4,13.8-1.1,20.6-2.9C441.4,270.8,442,270.7,442.6,270.6z"/>
		<path class="st11" d="M380,308.4c-1.2,0.9-2.9,0.6-3.7-0.6c0-0.1-0.1-0.1-0.1-0.2c-3.2-4.1-5.3-9-6-14.1c-0.2-0.9,0.4-2,0.7-3
			c0.8,0.6,1.6,1.2,2.3,1.9c0.5,0.5,0.9,1.1,1.3,1.7L380,308.4z"/>
		<path class="st23" d="M397.9,425.3c-2.5-0.3-3.2-1.6-1.6-3.2c2.2-2.1,4.6-4,7.2-5.7c0.6-0.4,1.6-0.2,2.5-0.2
			c-0.1,0.8-0.3,1.6-0.5,2.3c-0.3,0.7-0.7,1.4-1.1,2.1l0,0c-0.2,0.2-0.4,0.4-0.5,0.6l0,0l-0.8,0.6L397.9,425.3z"/>
		<path class="st25" d="M380,308.4l-5.6-14.3c0.2-0.7,0.3-1.4,0.7-2.8l7.3,18.1l-0.7,0.4L380,308.4z"/>
		<path class="st25" d="M292.9,448.2l-2.1-1.3c0.6-0.6,1.2-1.5,1.8-1.6c2.3-0.4,4.6-0.7,6.9-0.8c0.6,0,1.2,0.5,1.8,0.8
			c-0.6,0.5-1,1.3-1.7,1.5C297.5,447.3,295.4,447.6,292.9,448.2z"/>
		<path class="st19" d="M242.5,202.9c-3.5-1.6-7-3.2-10.3-5c-0.7-0.3-0.9-1.4-1.4-2.1c0.7,0.1,1.4,0.3,2.1,0.5
			c2.5,1.1,5.1,2.3,7.6,3.6c0.9,0.6,1.7,1.2,2.5,1.9L242.5,202.9z"/>
		<path class="st8" d="M403.8,421.1c0.2-0.2,0.4-0.4,0.5-0.6C404.2,420.7,404,420.9,403.8,421.1z"/>
		<path class="st8" d="M403.1,421.8l0.8-0.6L403.1,421.8z"/>
		<path class="st4" d="M442.6,270.2c0,0.1,0,0.2,0.1,0.3c0,0.1-0.1,0.1-0.1,0.2C442.5,270.5,442.5,270.4,442.6,270.2z"/>
		<path class="st4" d="M235.7,280.1l-0.1-0.1l0.1,0L235.7,280.1z"/>
		<path class="st26" d="M319.3,141.4l-1.3-3c1.2-0.5,2.4-1.3,3.6-1.3c3.6-0.2,6.9,0.6,9.1,3.7c0.3,0.6,0.5,1.3,0.5,1.9
			c-0.6,0.2-1.3,0.3-2,0.3c-1.3-0.2-2.6-0.7-4-0.9c-2-0.4-2.4,0.5-1.7,2.3c2.8,7.3,2.5,14.7,0.2,22.1c-0.8,2.7-1.8,5.3-2.8,7.9
			c-0.2,0.5-1,0.8-1.5,1.2l0.4-4.8c2-5.7,3.2-11.5,2-17.6c-2.2,12.2-9.5,21.4-17.3,30.4c-1,1.1-2.6,1.7-4,2.6
			c-0.4,0.2-1.2,0.5-1.2,0.5c0.3,1.2,0.7,2.4,1,3.6c0.6-0.2,1.1-0.5,1.6-0.8c4.7-4.2,9.4-8.5,14.1-12.8l2-0.2
			c-4.4,5.9-9,11.5-15,15.8c-3.1,2.2-4.7,1.7-5.6-2c-1.8-7.5-3.3-15-5-22.8c-1.3,1.9-2.5,3.8-3.9,5.6c-0.8,1-1.8,2.5-2.7,2.5
			s-2.3-1.3-3-2.3c-5.6-9.1-4.2-18.2,0.2-27.3c2-4.2,5.3-7.7,9.4-9.9c4.9-2.6,14-1.2,17.8,2.8c0.4,0.7,0.7,1.4,0.9,2.1
			c-0.7,0.1-1.3,0.1-2,0c-3-0.8-6-1.9-9.1-2.6c-1.4-0.3-2.9-0.1-4.1,0.6c-8.5,4.4-14.4,18.2-11.8,27.5c0.4,1.2,0.8,2.4,1.3,4
			c5.9-8.7,13.7-13.9,22.4-18c2.5-1.2,4.7-2.7,6.6-4.6C316.4,146.2,317.7,143.7,319.3,141.4z M296.4,165.1h-0.5v2.7h0.5V165.1z"/>
		<path class="st25" d="M359.2,144.7l4.3-6.8c0.1,1.4,0.5,2.4,0.3,3.3c-2.3,8.9-15.3,16.2-24.1,13.6c-4.3-1.3-5.6-6.5-2.3-10.3
			c4.7-5.4,10.8-7.4,17.8-6.4c3.6,0.5,4.4,2.8,2.4,6.2l-0.6,0.7l-2.4,1.8c-4.5,3.2-9.2,5.4-15,4.8l-1.5-0.2l1.4,1.2
			c0.3,0.2,0.6,0.3,0.9,0.4c7.1,1.4,12.5-1.6,17.2-6.5L359.2,144.7z M344.4,148.2c4.5-0.3,8-1.6,10.4-4.9c0.5-0.7,0.7-1.6,0.5-2.4
			c-0.1-0.4-1.5-0.8-2.1-0.5c-3.2,1.3-6.4,2.7-9.5,4.3c-0.8,0.4-1.2,1.8-1.8,2.7L344.4,148.2z"/>
		<path class="st4" d="M255,102.9c-0.2-1.2-0.3-2.4-0.4-3.6c0.4-10.7,4.3-17.8,12.7-21.2s17.8,2.8,20.3,8.4c0.5,1.3,0.7,2.6,0.8,3.9
			c0.1,0.5-0.4,1.1-0.6,1.6c-0.5-0.4-0.9-0.8-1.3-1.2c-2.1-3.6-5.3-6.3-9.2-7.7c-6.9-2.5-13.7,0.3-16.6,7.1c-1.7,3.9-3.3,8-5,11.9
			C255.6,102.3,255.5,102.4,255,102.9z"/>
		<path class="st4" d="M316.9,91.8c0.8-10.6,9.9-20.5,22.5-16.9c5.8,1.7,9.8,6.8,10.9,14.9c-1.7-2.1-3.2-3.9-4.6-5.7
			c-6.2-7.7-15.9-7.9-22.2-0.5c-2.1,2.7-4,5.4-5.7,8.3L316.9,91.8z"/>
		<path class="st6" d="M254.6,156.1c-3-0.7-5.9-1.5-8.8-2.6c-2.9-1.1-4.8-4-4.4-7.2c0.3-3.1,2.7-4.7,5.4-5.4
			c5.5-1.7,11.5-0.9,16.3,2.2c0.4,0.2,0.8,0.3,1.2,0.5c0.9,1.8,1.8,3.7,2.7,5.5c0,0.1,0,0.2,0,0.3l-1,1.8l-1.1-0.6l-0.6-2.2
			c0-0.2,0-0.4,0-0.5c-1-1.2-1.9-2.9-3.2-3.6c-5.2-2.6-10.2-1.5-15,1.2c-2.6,1.4-2.7,3.1,0.1,4.2c3.9,1.6,8,2.8,12.1,3.6
			c1.7,0.4,3.6-0.6,5.4-1l0.1,2.5l-5.4,0.7L254.6,156.1z"/>
		<path class="st17" d="M319.3,141.4c-1.6,2.3-2.9,4.9-4.9,6.8c-1.9,1.9-4.2,3.5-6.6,4.6c-8.7,4.1-16.5,9.3-22.4,18
			c-0.5-1.6-1-2.8-1.3-4c1.6-1.8,3-3.9,5-5.3C299,154.7,309.2,148.1,319.3,141.4z"/>
		<path class="st0" d="M268.3,129.1c0.1-5,2.3-8,5.9-8c3.3,0.1,6,3.1,6,6.8c0,4.1-3.1,7.7-6.6,7.7
			C270.3,135.6,268.2,133.1,268.3,129.1z"/>
		<path class="st0" d="M336.8,126.8c0,3.9-2.4,6.8-5.6,6.8c-3.7-0.1-6-2.6-5.9-6.6c0.1-4.7,2.2-7.6,5.6-7.7
			C334.2,119.2,336.8,122.7,336.8,126.8z"/>
		<path class="st19" d="M265,150.7l1.1,0.6l-0.9,2.2c2-0.2,3.5-0.7,3.7-2.9v0.1c1.8,0.4,1.6-1,1.2-1.7c-0.9-1.2-1.9-2.4-3-3.5
			c-0.3-0.3-0.2-0.9-0.3-1.4c5.8,2.8,6.2,5.9,1.6,10.6l-1.1-0.4l-3.3,0.7l-0.1-2.5L265,150.7z"/>
		<path class="st18" d="M266.6,144c0.1,0.5,0.1,1.1,0.3,1.4c1.1,1.1,2.1,2.3,3,3.5c0.5,0.7,0.6,2.1-1.2,1.7l-0.5-0.2v0.2l0.5-0.1
			c-0.2,2.2-1.7,2.7-3.7,2.9l0.9-2.2l1-1.8h0.5l-0.5-0.4c-0.9-1.8-1.8-3.7-2.7-5.5C265.5,141.6,266,143,266.6,144z"/>
		<path class="st6" d="M345.8,124.5c-0.5,0.6-1.1,1.1-1.8,1.6c-0.6,0.3-1.2,0.5-1.8,0.6c-0.2-0.5-0.3-1.1-0.2-1.7
			c0.6-2.2,4.9-5.5,7.6-5.7C348.2,121.1,347,122.8,345.8,124.5L345.8,124.5z"/>
		<path class="st25" d="M256.5,122.6c1.6,0.6,3.1,1.3,4.6,2.1c0.4,0.2,0.3,1.2,0.4,1.9c-0.6,0-1.4,0.3-1.8,0c-1.3-0.9-2.6-2-3.8-3.1
			L256.5,122.6z"/>
		<path class="st19" d="M345.8,124.5L345.8,124.5c0.8,0,1.7-0.1,2.5-0.3c1.2-0.3,2.3-0.7,3.5-1l0.3,0.6c-0.9,0.8-1.9,1.5-2.9,2.2
			c-1,0.5-2.1,0.9-3.2,1.2L345.8,124.5z"/>
		<path class="st25" d="M260.7,119c1.6,1.8,2.8,3,3.8,4.3c0.2,0.4,0.3,0.8,0.4,1.2c-0.5,0.1-1.1,0.3-1.4,0.1
			C261.7,123.6,260.5,122.1,260.7,119z"/>
		<path class="st27" d="M254.6,156.1l3.8-0.5l8-0.1l0.4,0.5C262.9,157.8,258.7,157.2,254.6,156.1z"/>
		<path class="st19" d="M318.2,176.7l-2,0.2l3.7-6l-0.4,4.8L318.2,176.7z"/>
		<path class="st18" d="M357,144.9l0.6-0.7l1.6,0.4l-1.5,1.7L357,144.9z"/>
		<path class="st27" d="M267.2,154.2l1.1,0.4l-1.3,1.4l-0.4-0.5L267.2,154.2z"/>
		<path class="st19" d="M316.9,91.8h0.9l-0.4,0.6L316.9,91.8z"/>
		<path class="st15" d="M319.9,170.9l-3.7,6c-4.7,4.3-9.4,8.5-14.1,12.8c-0.5,0.3-1,0.6-1.6,0.8c-0.3-1.2-0.7-2.4-1-3.6
			c0-0.1,0.8-0.3,1.2-0.5c1.3-0.8,3-1.4,4-2.6c7.7-9,15.1-18.2,17.3-30.4C323.1,159.4,321.8,165.2,319.9,170.9z"/>
		<path class="st19" d="M296.4,165.1v2.8h-0.5v-2.7L296.4,165.1z"/>
		<path class="st22" d="M344.4,148.1l-2.5-0.9c0.6-0.9,0.9-2.3,1.8-2.7c3.1-1.6,6.3-3,9.5-4.3c0.6-0.2,2,0.2,2.1,0.5
			c0.2,0.8,0,1.7-0.5,2.4C352.4,146.6,348.9,147.8,344.4,148.1z"/>
		<path class="st21" d="M357,144.9c0.2,0.5,0.5,1,0.7,1.4c-4.7,5-10.1,7.9-17.2,6.5c-0.3-0.1-0.6-0.3-0.9-0.4l0.1-1
			c5.7,0.7,10.5-1.6,15-4.8L357,144.9z"/>
		<path class="st18" d="M339.7,151.5l-0.1,1l-1.3-1.2L339.7,151.5z"/>
		<path class="st22" d="M265,150.7l-1.2,1.8c-1.8,0.4-3.7,1.3-5.4,1c-4.1-0.8-8.2-2-12.1-3.6c-2.7-1.1-2.7-2.8-0.1-4.2
			c4.8-2.6,9.9-3.8,15-1.2c1.3,0.7,2.1,2.4,3.2,3.6c-0.1-0.1-0.3-0.2-0.4-0.1c-4.3-0.9-8.6-0.9-12.7,1.2l-0.9,0.3
			c0.1,0.1,0.1,0.2,0.2,0.2c0.3-0.1,0.6-0.2,0.8-0.3l11.9-0.8l1,0.1C264.6,149.2,264.8,150,265,150.7z"/>
		<path class="st18" d="M267.2,154.2l-0.7,1.2l-8,0.1l5.4-0.7L267.2,154.2z"/>
		<path class="st19" d="M264.4,148.5l-1-0.1l0.6-0.6c0.2-0.1,0.3,0,0.4,0.1C264.5,148.2,264.5,148.4,264.4,148.5z"/>
		<path class="st19" d="M267.1,149.2l0.5,0.4h-0.5C267.1,149.4,267.1,149.3,267.1,149.2z"/>
		<path class="st19" d="M268.9,150.5l-0.5,0.1v-0.2L268.9,150.5L268.9,150.5z"/>
		<path class="st27" d="M264,147.9l-0.6,0.6l-11.9,0.8l-0.1-0.2C255.4,146.9,259.7,147,264,147.9z"/>
		<path class="st27" d="M251.5,149.2c-0.3,0.1-0.5,0.2-0.8,0.3c0,0-0.1-0.1-0.2-0.2l0.9-0.3L251.5,149.2z"/>
	</g>
</g>
</svg>
