<svg xmlns="http://www.w3.org/2000/svg" viewBox="0 0 705.71 762.45"><defs><style>.cls-1{fill:#f9f9f9;}.cls-2{fill:#070708;}.cls-3{fill:#8179fd;}.cls-4{fill:#7e75fa;}.cls-5{fill:#7d74fc;}.cls-6{fill:#8178fc;}.cls-7{fill:#090909;}.cls-8{fill:#0b0a0b;}.cls-9{fill:#0e0e0e;}.cls-10{fill:#121212;}.cls-11{fill:#7d74f6;}.cls-12{fill:#7b73f0;}.cls-13{fill:#fdfdfd;}.cls-14{fill:#fbfbfc;}.cls-15{fill:#7d74fb;}.cls-16{fill:#fcfcfd;}.cls-17{fill:#7d74f8;}.cls-18{fill:#fafafb;}.cls-19{fill:#fafafa;}.cls-20{fill:#756deb;}.cls-21{fill:#f7f6fa;}.cls-22{fill:#fefefe;}.cls-23{fill:#f5f5f5;}.cls-24{fill:#f0f0f2;}.cls-25{fill:#e9e9e9;}.cls-26{fill:#2b2b33;}.cls-27{fill:#adaad7;}.cls-28{fill:#fdfdfe;}</style></defs><title>Asset 2</title><g id="Layer_2" data-name="Layer 2"><g id="Layer_2-2" data-name="Layer 2"><path class="cls-1" d="M108.88,389.31l-1.89,98s7.38,41.93,21.46,53.1,35.9,40.73,58.73,31.93l22.82-8.8,33.91-39.41-3.47,30.67-26.5,101.91s-7.38,49.35,259,105.64"/><polyline class="cls-1" points="472.94 762.37 480.06 666.24 392.82 569.34 336.59 335.98 281.73 324.39 280.49 425.51 144.22 423.53 141.41 422.49"/></g><g id="Layer_0_Image" data-name="Layer 0 Image"><path class="cls-2" d="M548.58,319.36c-1.87,1-3.78,2-5.6,3.17a2.65,2.65,0,0,0-1.2,1.68,86,86,0,0,0-.63,11,19.63,19.63,0,0,1-12.42,19.31c-4.2,1.75-8.9,2.29-13.38,3.33-1.52.35-3.45-.14-3.88,2.13s-1.65,4,.67,6.5c5.32,5.69,10,12,14.84,18.11q41.32,52.23,82.61,104.5c1.28,1.62,2.11,3.15.37,5.07-.42.46-.27,1.54-.23,2.32.74,15,2.3,29.92,2.06,44.86-.27,16.94-1.81,33.9-3.45,50.78-1.39,14.35-3.19,28.7-5.81,42.87a173.66,173.66,0,0,1-8.23,29c-6,16.17-17.54,27-35,29.71-15.1,2.33-30.09,1.35-44.11-5.81a6.21,6.21,0,0,0-1-.29c-1,6.81-1.88,13.6-3.18,20.3-2.35,12.2-5,24.35-7.52,36.51a28.14,28.14,0,0,1-1.38,3.82c-.5-.61-1.44-1.24-1.42-1.83a73.29,73.29,0,0,1,.77-9.48c2.09-12.51,4.32-25,6.52-37.51.81-4.59,1.68-9.18,2.56-13.92-1.64-1-3.53-2-5.36-3.19q-12.63-8-25.21-16c-17.46-10.93-31.83-25.51-46.47-39.73a220,220,0,0,1-17.93-19.69,21.92,21.92,0,0,1-4.32-19.25,2.77,2.77,0,0,0-.94-3.27c-4.33-3.6-8.66-7.21-12.79-11-9.06-8.35-20.16-12.95-31.56-16.63-14.83-4.79-29.92-8.8-44.93-13-7.07-2-7-1.84-7.18-9.28a52.51,52.51,0,0,1,6.58-26.91c1-1.81,2.28-3.47,2.86-5.18,0-1.66-.48-3.5.08-4.94,2.71-7,5.67-13.93,8.62-20.84.92-2.16,2.83-2.55,5-2.41,10.67.7,20.95,3.32,31.17,6.28l2.85.84c-.39-1.53-.67-2.71-1-3.87Q353.46,417,336.83,356.6c-1.63-5.94-2.88-12-6.68-17.09a7.47,7.47,0,0,0-4.65-3.39c-9.7-2.36-19.31-5.08-28.94-7.69-4.8-1.29-9.6-2.61-14.83-4,0,1.18,0,2.3,0,3.41q.79,46.72,1.57,93.44c.1,6.18-.13,6.4-6.38,6.51q-53.81,1-107.6,1.84c-6.89.11-6.89,0-8-6.53-5.62,3-11.41,2.45-17.05.47-11.22-3.93-21.2-9.79-28.86-19.21-3-3.64-5.21-7.39-5.32-12.2a20.38,20.38,0,0,0-.42-2.77l-.74,0a44.5,44.5,0,0,0-1,5.9q-.57,12.65-.88,25.31c-.45,17.42-1.2,34.85-1.11,52.26,0,8.67,1.66,17.32,2.57,26,.33,2,.59,4.09,1,6.11,1.93,9.09,4.14,18.1,8.18,26.55l.5,1.11,0,0,.55,1.14,0,0,8.73,13.67,0,0,.57.6-.06-.05.62.91c9.59,11.49,20.45,21.38,34.33,27.5,8.27,3.65,16.69,5,25.73,2.92A109,109,0,0,0,229,560.37c3-2.21,5.64-4.29,7.63-8a160.67,160.67,0,0,0,14-35.63c1.5-5.89,3.23-11.72,5-17.54a20.55,20.55,0,0,1,2-3.65l1.23.51-9.47,36.43.57.36,8.32-13.38,6.37-9.48.83.38a29.54,29.54,0,0,1-1.67,4.88c-7.33,13.44-13.61,27.51-23.28,39.6-.76,1-.85,2.47-1.2,3.75-4.66,16.69-9.58,33.32-13.89,50.1-3.25,12.65-5.69,25.51-8.58,38.25-.76,3.31-1.88,6.54-2.83,9.81l-.85-.16c0-3.77-.44-7.6.07-11.3,3.32-24.17,9.54-47.67,16.9-70.89,1.17-3.72,2.21-7.48,3.3-11.23,0-.12-.13-.31-.39-.87-.81.58-1.58,1.09-2.32,1.64-14.08,10.25-29.47,17.45-46.8,20.15-7.95,1.24-15.34-.89-22.51-3.91-13.35-5.61-23.86-15-33.59-25.46-12.43-13.4-18.57-29.65-22.26-47.15s-4.58-34.94-4-52.57c.63-19.23,1.83-38.45,2.91-57.67.28-5.09,1.21-10.08,4.47-14.35.56-.73.49-2.06.47-3.1-.25-15.67.36-31.31,3.88-46.59,5.68-24.67,20.72-41.45,44.4-50.45l1.54-.56c-.22-8.08-.47-16-.61-23.95,0-1.57-.47-2.27-2.09-2.44-10.65-1.12-21.29-2.31-31.94-3.46a8.83,8.83,0,0,0-1.36,0l-9.33-1.14c-7.7-.92-15.41-1.83-23.12-2.79q-14.42-1.78-28.84-3.64a4.74,4.74,0,0,1-1.82-.46c-.46-.29-1-.95-1-1.36A1.74,1.74,0,0,1,60.38,242a36.88,36.88,0,0,1,5.15.15q24.89,2.53,49.75,5.1c.89.09,1.8,0,2.71.06l9.75,1.11,30.12,3.43v-30.2q-.09-4.66-.19-9.31c.05-2.25.15-4.5.13-6.75s1-3.46,3.42-3.54c4.14-.14,8.29-.39,12.43-.6l15.72-.33H208.1c-.82-3-1.55-5.71-2.27-8.37l-1.92-7.5c-1-4.6-2.12-9.17-2.93-13.8-.23-1.3.44-2.76.7-4.15a14.87,14.87,0,0,1,2.09,3.44c1.24,4.16,2.24,8.39,3.33,12.59.7,2.51,1.41,5,2.11,7.53.7,2.91,1.3,5.84,2.18,8.69a2.72,2.72,0,0,0,2.14,1.27c10.35-.12,20.7-.29,31-.63a5.39,5.39,0,0,0,3.56-1.83c4.89-6.08,9.6-12.31,14.36-18.49.42-.55.76-1.16,1.21-1.86l-5.77-2.84-8.77-5.67c-2.06-1.63-4.15-3.23-6.18-4.91a30.6,30.6,0,0,1-9.84-15.67,14.48,14.48,0,0,1-.12-6.71c1.35-6.25,3.86-12,9.72-15.35,1.28-.75,3-.71,4.55-1-1.8,3.78-3.49,7-4.85,10.28-1.58,3.87-.76,7.49,1.8,10.74,4,5.12,9.5,7.74,15.79,8.82a57.82,57.82,0,0,0,20.32-.6,5.65,5.65,0,0,0,2.86-2.2q41-52.53,81.87-105.1a25.4,25.4,0,0,1,3-3.53,8.59,8.59,0,0,1,2.75-1,9.94,9.94,0,0,1-.42,3A19.81,19.81,0,0,1,368,49.52q-39,50.61-78,101.21a6.22,6.22,0,0,0-1.41,2.84c3.93-1,7.93-1.71,11.78-2.92,13.59-4.27,27.07-8.88,40.69-13,14.42-4.36,28.85-8.9,44.1-9.29a141.48,141.48,0,0,1,42.33,4.85c18.85,5.35,32.72,16.81,40.68,34.7,4.42-1.68,8.67-3.8,13.16-4.93,20.33-5.07,39.92-3.37,58.62,6.71,12.79,6.9,23.53,16.33,33.92,26.26,8.86,8.47,17.37,17.31,26.34,25.66,11.66,10.87,25.23,18.28,41.09,21.11,6.86,1.23,13.75,1.56,20.53-.29,2.67-.73,5.14-2.17,7.7-3.28,5.55-3.07,7-6.9,5.64-14.6l-1.36-5,2.38,1.44c1.2,3.08,3.26,6.11,3.42,9.24a23.26,23.26,0,0,1-9.37,20.44c-3.29,2.53-6.81,4.77-10.23,7.14-10,4.32-20.46,5-31.21,4.13-12.74-1-25.53-1.44-37.07-4.88-2,1.89-3.26,3.93-5.11,4.8-10.78,5.12-22,7.7-34.06,5.56-6.22-1.11-12.47-2-19.23-3.14,1.23,1.32,2.19,2.36,3.17,3.39,6.83,7.18,13.4,14.58,18.29,23.26,3.45,6.14,1.06,10.53-5.22,10.91,1,3.38,2,6.85,3.08,10.31C552.4,315.15,550.69,317.37,548.58,319.36Zm108-64.77,1.32-.53.87-.34.44-.29c2.51-1.6,5.1-3.08,7.5-4.83a36.41,36.41,0,0,0,4-3.89l1.21-1.21-.4-.46-1.32.68c-7.29,3.28-15,3.82-22.87,3.65-2.06-.27-1.18,1.37-1.47,2.25-.61,1.46-1.22,2.91-1.82,4.37l-.5.33V247c-2.52-.47-4.84-.88-7.14-1.35-9.52-1.95-18.24-5.89-26.59-10.74-1.23-1.15-1.23-1.15-1.52,0-.32,1.45-.63,2.89-.95,4.33l-2,5.69-1.2,2.37-1,1.25,0,0-1.63.46,1.48-4.8,1.92-6.55c.27-2.51,1.42-5-1.05-7.27-8.17-7.32-16.26-14.74-24.38-22.13l-2.19-2-1,8.64q-3.48,9.63-7,19.25l-.53.26-.42.43a.88.88,0,0,0-.13.52l-1,0c.13-.86.27-1.72.41-2.58,3.28-7.06,4.66-14.57,5.33-22.26.86-3.77,1.06-7.67-2-10.43-6.95-6.35-14.21-12.38-21.35-18.52a18.59,18.59,0,0,0-2.06-1.27c.24,2.57.44,4.8.64,7l-3.07,20.23H544c.17-3.53.52-7.06.46-10.59-.07-4.61-.46-9.22-.71-13.82-.23-2.46.39-5.42-2.19-6.86-4-2.24-8.25-4-12.39-6l-7.27-2.88a63.55,63.55,0,0,1-3.1,27.2l-1.14-.07c.06-1.24.13-2.49.2-3.73l.16-2.26.28-14.7c0-.37-.07-.75-.1-1.12,0-6.39-.39-6.83-6-7.14l-1.67-.24-14.15,0-1.66.23-2.16.2a49.42,49.42,0,0,0-18.35,4.5c-2.61,1.21-5.31,2.35-5.72,5.85-.11.9-.95,1.72-1.46,2.58-1.21.15-2.41.33-3.62.45-.47,0-1-.25-1.42-.08-1.76.77-3.48,1.66-5.21,2.5a4.46,4.46,0,0,0,2,.42c4.22.37,8.44.69,12.63,1.24.71.09,1.3,1.21,1.94,1.85-.66.52-1.25,1.28-2,1.5a25.47,25.47,0,0,1-3.92.5c1.1.85,2.62,1.8,3.52,1.39,2.41-1.09,3.64.53,5.24,1.54,3.78,2.4,7.6,4.76,11.4,7.13a1,1,0,0,0,.53.09,8.61,8.61,0,0,0,1.72,2.15c2.14,1.4,4.41,2.61,6.62,3.9l7.52,4.39,0-.05,1.72,1.07-.05,0,1.12.65,6,3.79,1.1.47.57.3.51.26.54.35,2.26,1.26.46.31c6.23,3.87,12.65,7.45,18.64,11.66,14,9.85,29.87,15.72,45.63,21.86l.6.33.58.18,1.06.46.21.14h.25l1.18.45.18.14.23,0a62.89,62.89,0,0,0,19.79,4.36l.13.09.12-.09,1.86.28,24,1.9,1.11.07,12-.39,1.13-.25,1.58-.26,1.15-.28,1-.2,1.17-.34.24,0,.2-.14,1.31-.41.18.05.13-.14,1.33-.45.18,0,.13-.14,1.12-.46ZM157.31,400.1l0-.05.57,2.29c.51,2.3,1,4.6,1.54,6.9l.78-.18c-.25-8.11-2.44-15.87-4.68-23.62-2-5.66-1-11,2.23-15.8,2.42-3.6,5.16-7,7.84-10.41,1.91-2.45,4-4.8,5.93-7.2.27,0,.63.17.79.05,4.94-3.64,9.91-7.24,14.71-11,.78-.62.77-2.22,1.13-3.36a61.51,61.51,0,0,0-8.23,5.61c-2.35,1.89-4.58,3.95-6.86,5.93l-1,.66v0c-.18,0-.4,0-.52.11-7.34,5.85-13.93,12.41-18.52,20.69a9.64,9.64,0,0,0-1.22,6c1.41,7.16,3.29,14.22,5,21.32l0-.06Zm193,111.18,1.09,1.57,0,1c-7.61-3.24-15.22-6.45-22.8-9.75-1.49-.65-2.46-.7-3.31.93-5.05,9.61-8.48,19.61-8.27,30.66,0,2.46.9,3.36,3.26,3.93,21.7,5.28,43.16,11.37,63.54,20.68A59.5,59.5,0,0,1,396.5,568c6.32,5.14,12.13,10.91,18.16,16.41.46.39,1,1.18,1.35,1.11,2.54-.48,3.53,1.28,4.73,2.91,1,1.42,2.21,2.73,3.61,4.43a49.49,49.49,0,0,0,2.75-5.54c3.85-11.14,8.12-22.16,11.24-33.51a82.7,82.7,0,0,0,1.19-40.7c-.2-.9-.59-2.24-1.23-2.47-4.86-1.81-9.8-3.39-15.06-5.15.2,1.55.32,2.52.46,3.5,1.12,8,.72,16-2.25,23.58-.77,2-.74,4.81-3.61,5.54A72.78,72.78,0,0,0,421,513.75c-.15-2.79-.72-4.6-3.56-6.59-14.22-10-30.75-14.62-46.62-20.53-10.25-3.81-21.46-5.05-32.23-7.49a27.37,27.37,0,0,1-3.51-1.33L333,482.2c-1.07,2.19-2.25,4.33-3.19,6.58-1.09,2.61-2,5.32-3,8l.06.07c-1.84,2.3-1.76,2.72.73,3.91,5.41,2.59,10.81,5.21,16.24,7.77,2.11,1,4.3,1.84,6.45,2.76ZM502.93,212l-.62-.55-7.24-4.78,1.81,5.89a7.38,7.38,0,0,1-1.53-1.28c-1.84-2.64-3.17-5.84-5.52-7.88A125.91,125.91,0,0,0,475.62,193a54.56,54.56,0,0,0-10.08-4.89c-2.07-.79-3.39-1.38-1.7-4.05-3.7.18-6.95.41-10.2.44a12.08,12.08,0,0,1-3.13-.82,18.66,18.66,0,0,1,2.26-2.35,18,18,0,0,1,2.91-1.47l6.94-3.33-.16-.52-5.35-.36-11.92.93c-4.33,1.24-8.68,2.4-13,3.75-1.16.37-2.07,1.64-3.22,1.86a40.12,40.12,0,0,1-5.5.19c-9,.48-18.09.78-26.49,4.75-4.83.74-9.64,1.85-14.5,2.15a45.74,45.74,0,0,0-20.59,6.28c-11.21,6.54-22.6,12.41-35.84,13.32-5.6.38-11.23.25-16.84.56-1.49.08-2.94.92-4.4,1.42a30.64,30.64,0,0,0,1.52,4.15c.85,1.59,2.08,3,3,4.55,2.93,5.22,1.57,8-4.41,8.74a29.59,29.59,0,0,1-5.14-.17c-.75,0-1.5-.16-2.77-.3,1.67,3.28,3.08,6.11,4.55,8.9,2.17,4.12,1.35,6-3.07,7.58a71.17,71.17,0,0,0-10.18,4.39c-2.48,1.37-2.61,3.32-.33,5a49.38,49.38,0,0,0,8.25,4.49c1.45.69,3.16,1.17,2.72,3.12-.47,2.14-2.25,1.8-4,1.59a65.16,65.16,0,0,0-9.44-.68c-3.2.1-3.8,1.43-1.72,3.92,2.67,3.19,5.71,6.06,8.62,9,2.4,2.47,4.89,4.86,7.2,7.41a3.42,3.42,0,0,1,.74,2.64c-.11.45-1.48.69-2.32.87-1,.21-2.05.26-3.23.4a15.64,15.64,0,0,0,.57,2.16c4.17,8.92,9.38,17.08,17.76,22.62A47.23,47.23,0,0,1,327.37,326c2.91,4.7,5.55,9.58,8.57,14.21,5.52,8.45,12.36,15.63,21.15,20.79a7.51,7.51,0,0,0,1.06.82c5.46,2.87,11,5.67,16.38,8.6,5,2.7,9.78,5.94,15,8.24,13.14,5.86,27.09,5.12,41,4.29a64.05,64.05,0,0,1,8.39-.46c1.82.13,3.57,1.21,5.35,1.87a60.23,60.23,0,0,1,19.15-.66,45.81,45.81,0,0,0,21.77-1.65c5.44-1.89,9.89-5.14,11.91-10.76,1.16-3.23,3.18-5.31,6.38-6.09a6.45,6.45,0,0,0,5.36-5.69c.51-3,2.4-4.69,5.31-5.52a102.75,102.75,0,0,0,11.65-3.76c6.42-2.73,10.46-7.4,10.49-14.79a8.92,8.92,0,0,1,2.57-6.65c.78-.78,1.66-2.12,1.51-3.05-.56-3.54,1.62-5.1,4.09-6.64a30.47,30.47,0,0,0,3.57-2.5c2.86-2.38,3.41-5.25,1.55-8.49a11.25,11.25,0,0,0-6.63-5.71c-.69-.21-1.17-1.15-1.75-1.76.64-.54,1.2-1.41,1.93-1.57a55.83,55.83,0,0,1,5.64-.78c1.26-.37,3-.35,3.66-1.19,1.43-1.73.25-3.5-.93-5a26.65,26.65,0,0,0-2.3-3.64c-7-8.05-14.25-16-21.23-24.09-4.31-5-9-9.91-12.28-15.55-6-10.13-11.09-20.79-16.56-31.22l1.37-.26a8.14,8.14,0,0,1,1.36,2.32c.62,3.16,2.78,3.85,5.53,3.75q14.45,5.84,28.9,11.65a7.35,7.35,0,0,0,1.71.25l.23-.68c-1.36-1-2.66-2.09-4.08-3q-15.58-9.87-31.21-19.66Zm45.73,28.29-2-.5.71,1.28c5.25,3.15,10.5,6.29,15.72,9.47.66.41,2.54.53.82,2l-38.39-20.81c0,6.46-1,11.89-4,16.8-.09-.5-.17-1-.26-1.51.34-2.11.81-4.21,1-6.33.23-2.86.3-5.73.25-8.59a2.29,2.29,0,0,0-1.28-1.66c-3.91-1.37-7.87-2.6-11.82-3.87l-3.66-1-.62.73,15.8,24.41a19.08,19.08,0,0,1,1.58,1.79c2.81,4.11,6.15,7.33,11.6,7.26a10.21,10.21,0,0,1,2.11.49c15.86,3.55,31.72,6.36,47.53-.24,1.65-.68,3.23-1.55,4.84-2.34,0-.36,0-.73-.08-1.09l-7-3.24c-1.48-.67-2.93-1.41-4.43-2Q562.85,245.79,548.66,240.31Zm-26.2,329.25v.74l2.51,2.06a7.47,7.47,0,0,0,1.7,0c2.26-.5,4.55-1.64,6.76-1.48a112.1,112.1,0,0,1,13.83,2.1c1,.19,1.8,1.42,2.69,2.17-1,.63-2.09,1.84-3.1,1.8-5.49-.21-11-.74-16.46-1.16l-.86-.12.52.49c.59.66,1.13,1.38,1.78,2,2.86,2.66,5.8,5.24,8.61,8,1.16,1.11,2.59,2.57,1,4.17s-2.76,0-3.89-1c-2.33-2.15-4.59-4.4-7-6.46-16.71-14.14-33.38-28.31-50.2-42.32-10.82-9-21.86-17.73-32.82-26.57-.89-.72-1.89-1.32-2.85-2l-.89.17c0,3.09-.23,6.19,0,9.26a105.84,105.84,0,0,1-1.73,31.18c-3.33,16-8.3,31.39-16.73,45.52L420,605.32c7.26,7.63,14.43,15.22,21.66,22.74,10.91,11.33,22.2,22.26,35.4,31,9.1,6,18.24,11.93,27.48,17.7,8.72,5.43,17.51,11,27.94,12.32a123.23,123.23,0,0,0,22.22.85c12.33-.72,22.61-6,29.57-16.5a67.93,67.93,0,0,0,7.35-14.5,183,183,0,0,0,9.26-41.09c2-17.13,3.84-34.28,5.27-51.47a304.89,304.89,0,0,0,.34-52.51c-.59-6.6-.88-13.22-1.41-19.82a7.12,7.12,0,0,0-1.13-3.66c-9.48-12.29-19.07-24.51-28.62-36.75L510.7,370.65c-.85-1.09-1.65-2.21-2.64-3.54l-5.92,14.46c-.21.4-.44.8-.62,1.21l-55,122.36c-.39.88-.73,1.79-1.05,2.56,6.39,4.86,12.74,9.4,18.76,14.33,18.67,15.3,37.22,30.75,55.83,46.12a17.42,17.42,0,0,0,2.39,1.44ZM391.84,185.4l11.36-2.15v-.69c-11.29-.9-21.49-5.59-32.11-8.86-9.77-3-19.76-5.25-29.66-7.84-4.37-.67-8.72-1.69-13.12-1.93-7-.39-14.07-.26-21.1-.35l-7,.55-2.61.3c1,2,1.73,3.53,2.64,5,4.34,6.81,9.92,12.4,17.23,15.84,8.66,4.08,17.54,7.7,26.33,11.51l0,.69-7.19.59-4.31-.67-4.36-.57-1.12-.16L323,196.2,321.9,196l-3.78-.4-1.13-.17-2.7-.32-1.11-.21-2.15-.36-1.12-.31-1.08-.19-1.1-.34-1.07-.23-1.1-.36-8.17-2.34-1.1-.37c-9-3.35-18-6.66-26.93-10.09-1.44-.55-2.21-.45-3.17.81-4.15,5.49-8.43,10.88-12.63,16.33a22.12,22.12,0,0,0-1.35,2.33H263c4.06,0,8.13-.12,12.18.09,1.38.07,2.73,1,4.09,1.53l.29,1.29.43,16.36.2,15.25q.17,5.73.35,11.46t.16,11.43l.12,1.17,1.33-.58L286,257c-4.28-6.39-3.2-10,3.78-12.71,2.09-.81,4.32-1.3,6.48-1.94l2.74-.54-1.64-1.39-1.28-2.18-.84-2.85c-.61-1.23-1.21-2.47-1.82-3.7l-.49-1.08c-.56-1.28-1.13-2.55-1.69-3.83l-.39-1.11c0-.54,0-1.08,0-1.63.17-.36.34-.73.52-1.1l.56-.56,1.09-.54h1.66l1.1.34,4.36,1.26,1.1.29,6.07,0,.48-1.35c-1.37-2.21-2.67-4.48-4.11-6.64-3.26-4.9-1.71-8.57,4.11-9.52,1.24-.2,2.53-.19,3.79-.27l5.41-.34,1.12-.09,4.33-.41,1.11-.16,3.25-.38,1.11-.19,2.16-.29,1.11-.23c6.29-.6,11.93-3.13,17.5-5.88l2.49-.81-1.88-.89,4.78-1.27,6.88-2.72a7.44,7.44,0,0,1,.74-.28c2.55-.61,5.12-1.16,7.66-1.81,3.41-.87,6.77-1.95,10.2-2.67C383.62,186.65,387.74,186.08,391.84,185.4ZM206.48,213.89h4.71c-.24-1.19-.38-2.06-.59-2.92-1.27-5.2-1.28-5.2-6.73-4.85H162.36c.33,15.84.64,30.94.95,46.27l5,.59c0-1.14,0-2,0-2.9q-.3-15.24-.61-30.48c-.09-4.58.42-5.11,5.08-5.28,1.81-.06,3.63-.08,5.44-.1ZM482.67,400.6l0-.05-1.48,1.53c-6.49,6.85-12.82,13.85-19.54,20.46a47.11,47.11,0,0,1-9.54,6.69c-2.76,1.6-4.61.55-5.53-2.54-.31-1-.61-2.09-.84-3.16a50,50,0,0,0-11.48-22c-1-1.19-2.2-2.23-3.3-3.34,4.33,13.42,1.63,19.82-11,25.7l20.4,82,1-.07c.55-1.4,1.1-2.81,1.64-4.22a13.83,13.83,0,0,0,1-1.6q26.42-58.08,52.79-116.16c.31-.69.5-1.43.75-2.14l-.59-.45c-1.68,1.42-3.74,2.56-4.95,4.31-3.25,4.67-6.13,9.6-9.16,14.43ZM200.36,424.35a12.3,12.3,0,0,0,1.35.12q34-.63,68.1-1.27c2.87-.05,5.73,0,8.68,0-1.3-73.17-2.6-145.67-3.9-218.13h-9.33l-6.51.06c-3.27.06-6.53.09-9.8.21A3,3,0,0,0,247,206c-2,2.32-3.78,4.76-6,7.63h3.3l22.07-.1c4.47,0,5,.41,5.06,5q.42,19.88.77,39.76,1.26,75.19,2.45,150.38c.12,8.31,1.92,8.7-8.68,8.89-17.16.31-34.33.47-51.49.73-4.89.08-9.79.31-14.68.47-6.9,0-13.79,0-20.68.09-7.79,0-7.86.07-8-7.87-.32-15.51-.55-31-.81-46.54,0-1.47,0-2.94,0-4.41l-.76-.17L163,367.63a19.1,19.1,0,0,1,1.53,3.54,38.45,38.45,0,0,1,.53,5.68q.61,22.57,1.16,45.16c0,1,.1,1.92.12,2.34Zm203.86-35.67c-1.13.27-2.3.46-3.41.84-13.92,4.69-23.15,14.12-28.25,27.82a5.08,5.08,0,0,1-2.95,3c-.88.17-2.51-1.28-3.12-2.38-2.67-4.85-5.68-9.62-7.47-14.8-4.88-14.13-9.33-28.41-13.67-42.72-1.06-3.47-3.18-5.65-6-8.06.16.87.21,1.31.33,1.74q17.46,63.07,35,126.13c.32,1.16,1.39,2.11,2.1,3.16a12.47,12.47,0,0,0,2.41-2.53c6.11-11.85,12.12-23.75,18.16-35.64l11.72-23c-6.92-4.35-10.09-10.54-8.61-18.53,1.33-7.18,6.09-11.3,13.15-12.86l10.58,1.57.27-.85c-2.2-.9-4.34-2.36-6.61-2.59C413.3,388.51,408.75,388.73,404.22,388.68ZM392.94,137.3c.78-1.58,1.55-3.15,2.46-5a23.26,23.26,0,0,0-3.18-.17c-8.25.76-16.5,1.66-24.76,2.32-3.25.26-4.87,1.88-5.36,4.93-2.2,6-1.37,12.26-.8,18.72-2.43-2-4-11.42-3.31-18.05.46-1.15.91-2.3,1.55-3.92l-12.36,3c-8.5,2.88-17,5.73-25.5,8.66A3,3,0,0,0,320,149.3c-1.05,3.41-1.93,6.87-2.86,10.27,6.85.66,13.37,1.06,19.83,2a227.55,227.55,0,0,1,49.65,13c15.65,5.93,31.7,7.93,48,1.83,7.34-2.74,15.14-2.65,22.87-2.5l7.6,1.13c-.72-2.8-1-5.13-1.9-7.2-5.41-12.34-14.64-21-26.52-27-5.51-2.78-6.08-2.52-8.86,3a2.18,2.18,0,0,0-.09.52q-2.3,7.09-4.57,14.18l-.67-.09a11.91,11.91,0,0,1,0-2.07c.77-4.51,1.6-9,2.4-13.51.73-1.81,1.46-3.63,2.28-5.65a24.33,24.33,0,0,0-2.87-.87c-6.76-1.17-13.53-2.37-20.31-3.39-3.74-.57-5.53.65-7.12,4.28-.64,1.88-1.7,3.72-1.86,5.63-.55,6.58-.79,13.19-1.16,19.79-.05.82-.12,1.64-.22,3C391.17,160.45,391,147.12,392.94,137.3ZM141.58,413.11a42.51,42.51,0,0,0,17.33,5.53c-2.87-11.27-5.77-22.23-8.39-33.25-1-4.19-2.64-8.68-.74-12.83a53,53,0,0,1,7.2-11.41c8.55-10.36,19.18-18.38,30.2-25.86-2.41-9.37-7.29-17.41-12.38-25.72l-3.69,2.52c-8.17,6.07-16.45,12-22,20.88-.1.15-.18.38-.32.43-.79.24-1.59.44-2.38.66-.17-.73-.64-1.56-.44-2.19a52.19,52.19,0,0,1,2.11-5.3C152.5,316.43,159,308,168.17,301.69c1.48-1,3.07-1.82,4.78-2.82-1.64-4.08-3-8.09-4.84-11.89-1.62-3.38-2.26-3.52-5.83-2.37-22.78,7.36-38,22.47-44.44,45.47-5.15,18.34-5.06,37.34-4.57,56.26a3.11,3.11,0,0,0,.77,1.59c1.11,1.41,2.41,2.68,3.39,4.16A61.24,61.24,0,0,0,141.58,413.11Zm308.74,12.4c15.15-10.45,25.94-24.3,37.48-38a9.35,9.35,0,0,0-1.47.17,25.8,25.8,0,0,1-20.83-1.13c-2.47-1.21-5.59-1.15-8.44-1.53-5.62-.74-10.72,2.67-16.66,1.65-3.88-.67-8.21,1.31-12.76,2.18C439,398.76,447.72,410,450.32,425.51ZM280.86,268.92c.28,17.82.55,35.14.82,52.07l43.49,10.29c-4-6.52-8.05-11.78-14-15.55-9.43-6-15.33-14.8-18.76-25.28-1.5-4.62-.53-5.91,4.14-6.5.1,0,.16-.26.37-.62ZM396.73,386.66c-2.26-.72-4.14-1.14-5.87-1.89-3.65-1.57-7.71-2.71-10.73-5.11a79.76,79.76,0,0,0-17.83-10.79c-3.56-1.55-6.82-3.77-10.21-5.69l-2.25-1.25c4.77,18.55,10.33,36.19,19.79,52.86C374.85,401.61,383.38,392.17,396.73,386.66ZM270.1,176.19c8.6,5.07,46.48,16.51,49.95,14.85-1.09-.51-2-.93-2.83-1.31A42.53,42.53,0,0,1,296.64,171a21.4,21.4,0,0,1-2.08-5.82c-.46-2.13.69-3.48,2.88-3.77s4.5-.57,6.76-.78c3.93-.37,7.87-.67,11.62-1,.38-3.5.74-6.78,1.08-9.88-9.3,2.43-18.5,4.86-27.71,7.24a10.74,10.74,0,0,0-7.75,6.54c-1.57,4.11-2.44,8.48-3.77,13.27-.52-2.93-1-5.52-1.49-8.49ZM230.25,317.83c-6.78,0-13.29-.05-19.8.1-.58,0-1.6,1.32-1.62,2.06-.22,6-.21,12-.35,17.93,0,2.3,1.05,3,3.18,2.91,5.52-.27,11.05-.38,16.56-.75a2.84,2.84,0,0,0,1.94-1.92C230.3,331.47,230.25,324.78,230.25,317.83Zm0-92.66c-6.79,0-13.31,0-19.81.09-.58,0-1.59,1.34-1.62,2.09-.21,6-.21,12-.33,17.93-.05,2.07.81,3,2.92,2.89,5.61-.26,11.22-.38,16.83-.75a2.82,2.82,0,0,0,1.92-1.94C230.3,238.79,230.25,232.1,230.25,225.17Zm0,141.72c-6.78,0-13.29-.06-19.8.09-.58,0-1.6,1.33-1.62,2.07-.22,6-.21,11.95-.35,17.93,0,2.3,1.06,3,3.18,2.91,5.52-.27,11.05-.38,16.56-.75a2.81,2.81,0,0,0,1.94-1.93C230.3,380.52,230.25,373.83,230.25,366.89Zm0-98.11c-6.77,0-13.28-.06-19.79.09-.58,0-1.61,1.32-1.63,2.06-.22,6-.21,11.95-.35,17.93,0,2.3,1,3,3.17,2.91,5.52-.26,11-.38,16.56-.75a2.8,2.8,0,0,0,1.95-1.91C230.3,282.42,230.25,275.73,230.25,268.78Zm13.62-.47v22.26c6.3,0,12.35.05,18.4-.08.52,0,1.41-1.24,1.46-1.94.16-2.61.11-5.25,0-7.88-.13-4.12-.36-8.25-.54-12.36Zm19.55,49.08H243.91v22.25c6.26,0,12.22,0,18.18-.07a2.27,2.27,0,0,0,1.61-1.51C263.69,331.2,263.54,324.34,263.42,317.39ZM243.82,247c6.37,0,12.33.06,18.29-.09.58,0,1.6-1.33,1.61-2,.06-5-.07-10-.21-15,0-1.76-.27-3.51-.4-5.14H243.82ZM177.21,237h.12c.17,3,.42,6,.49,9,.05,2.1,1,2.91,3,2.82,4.25-.18,8.51-.33,12.77-.38,2.6,0,3.54-1.27,3.4-3.74-.32-5.7-.61-11.41-.83-17.11-.07-1.84-1-2.29-2.63-2.24q-6.93.21-13.87.34c-1.64,0-2.55.58-2.51,2.39C177.26,231.05,177.21,234,177.21,237ZM186.86,269v.33c-2.36,0-4.71,0-7.07,0-1.81,0-2.68.67-2.6,2.58.28,6.15.48,12.31.72,18.46.07,1.87,1.37,2.13,2.86,2.08,4.26-.12,8.51-.31,12.77-.36,2.53,0,3.63-1.12,3.49-3.66q-.48-8.55-.82-17.11c-.07-1.77-.88-2.38-2.55-2.33C191.39,269,189.13,269,186.86,269Zm-9.65,109.71h.12c.17,3,.43,6,.48,9,0,2.28,1.11,3,3.24,2.9,4.17-.19,8.34-.33,12.51-.38,2.54,0,3.61-1.14,3.47-3.67-.32-5.7-.61-11.4-.82-17.11-.07-1.78-.9-2.37-2.57-2.32-4.71.16-9.42.26-14.13.35-1.56,0-2.34.68-2.31,2.31C177.25,372.69,177.21,375.68,177.21,378.67Zm60-237.26-.84,0c0,2.33-.5,4.81.1,7,1.34,4.87,3.7,9.51,7.81,12.51,6.51,4.73,13.44,8.87,20.18,13.28,1.38.91,2.2.42,3.11-.81,3.1-4.15,6.32-8.2,9.47-12.31a6.68,6.68,0,0,0,.67-1.23c-5.87,0-11.77.28-17.63-.07a26,26,0,0,1-17.58-8.28A18.35,18.35,0,0,1,237.22,141.41ZM190.29,341.08c.7,0,2.05,0,3.4,0,2.4.05,3.47-1.09,3.34-3.5-.31-5.78-.5-11.57-.92-17.35-.05-.78-1.09-2.08-1.73-2.11-3.65-.21-7.31-.1-11.3-.1,2.15,5.45,4.2,10.16,5.84,15C189.74,335.48,189.82,338.18,190.29,341.08ZM213,205.79c.63,2.44,1.23,4.25,1.56,6.11.28,1.64,1.17,2,2.65,1.94,5.79-.11,11.59-.1,17.39-.18a3.06,3.06,0,0,0,2-.51c2-2.35,3.91-4.82,5.93-7.36ZM163.6,256.7v24.05l4.82,1.27v-24.8Zm-7.19,61,.69.91a25.46,25.46,0,0,0,2.81-1.55c3.6-2.57,7.12-5.26,10.74-7.81,3.25-2.31,3.28-2.26.58-6.1Zm4.86,52.93c-6.39,6.93-2.39,13.92,0,20.91ZM539,236.62l8.2,4.49C546,238.13,541.12,235.64,539,236.62Zm-.3-2.06c-.34.3-.71.47-.74.69s.25.52.4.78c.29-.17.67-.29.83-.55S538.93,235,538.7,234.56ZM233.33,562c-.06.07-.16.14-.15.18a1.47,1.47,0,0,0,.15.34c0-.06.16-.12.16-.16A2.22,2.22,0,0,0,233.33,562Z"/><path class="cls-3" d="M113.83,251.31l9.33,1.14c-4.34,5.22-8.79,10.36-13,15.67C96,285.89,84.63,305.39,75.08,326A330.31,330.31,0,0,0,52.54,391.2q-6.09,26.49-10.67,53.32c-2.71,15.89-4.74,31.91-6.44,48-2,18.95-3.15,38-2.26,57.06.59,12.59,1.87,25.14,5.13,37.39,1.56,5.85,3.46,11.52,8.85,15.15.19.13.26.46.68,1.25-1.22.06-2.41.48-3.07.07-2.24-1.41-4.76-2.77-6.34-4.79C34.07,593,32.5,586.2,31,579.47a222.06,222.06,0,0,1-5.15-45.05,461.19,461.19,0,0,1,3.88-62.92c3.72-30.08,8.61-60,16.5-89.25,10.23-38,25.69-73.66,48.29-106,5.44-7.79,11.68-15,17.55-22.53C112.68,252.94,113.25,252.12,113.83,251.31Z"/><path class="cls-4" d="M117.6,531.42c-4-8.45-6.25-17.46-8.18-26.55-.42-2-.68-4.07-1-6.11,5.26,9.92,10,20.13,15.9,29.69,8.49,13.88,19.6,25.63,32.29,35.81,4.68,3.76,10.33,5.65,16.15,6.83a12.29,12.29,0,0,0,5.66-.12c15.22-4.49,29-11.73,40.07-23.21C229.79,536,237.75,522,244.6,507.22a71.81,71.81,0,0,0,7-27.2c.15-3.43.37-6.86.63-10.28a20.37,20.37,0,0,1,.62-4.27,5,5,0,0,1,9.62-.07,17.42,17.42,0,0,1,.95,5c.37,15.74-.32,31.38-5,46.59a11.94,11.94,0,0,0-.27,2.41l-8.32,13.38-.57-.36L258.77,496l-1.23-.51a20.55,20.55,0,0,0-2,3.65c-1.76,5.82-3.49,11.65-5,17.54a160.67,160.67,0,0,1-14,35.63c-2,3.74-4.64,5.82-7.63,8a109,109,0,0,1-40.47,18.74c-9,2.1-17.46.73-25.73-2.92-13.88-6.12-24.74-16-34.33-27.5l-.62-.91.06.05-.57-.6,0,0-8.73-13.67,0,0c-.18-.38-.36-.76-.55-1.14l0,0Z"/><path class="cls-5" d="M480.06,666.24q12.6,8,25.21,16c1.83,1.16,3.72,2.21,5.36,3.19-.88,4.74-1.75,9.33-2.56,13.92-2.2,12.5-4.43,25-6.52,37.51a73.29,73.29,0,0,0-.77,9.48c0,.59.92,1.22,1.42,1.83.12,6.32.24,6.71-5.78,8.48-7.72,2.26-15.64,3.82-23.48,5.67-1.66.39-2.17-.79-2.18-2,0-4.6-.13-9.22.14-13.81.55-9.13,1.25-18.25,2-27.37,1.24-14.8,2.45-29.61,4-44.37C477.2,671.86,479,669.09,480.06,666.24Z"/><path class="cls-6" d="M660.06,257.79c3.42-2.37,6.94-4.61,10.23-7.14a23.26,23.26,0,0,0,9.37-20.44c-.16-3.13-2.22-6.16-3.42-9.24,1.93-4.68,3.74-9.42,5.81-14,3.25-7.28,6.68-14.47,10-21.7a2.1,2.1,0,0,0,0-1.81c-.68.61-1.37,1.2-2,1.83-2.56,2.44-5,5.06-7.71,7.28-2.37,1.92-4.6,1.76-6.11,0-1.83-2.08-1.37-4.33.16-6.21a67.18,67.18,0,0,1,5.07-4.9c2.91-2.87,5.79-5.77,8.69-8.65,4.49-4.48,10-3.85,12.52,2a41.88,41.88,0,0,1,2.8,12.07c.46,4.46.1,9,.1,13.93-4.42-4.7-6.26-10.3-7.92-16l-.75.15a53.66,53.66,0,0,1-1.29,6c-6.1,18.32-11.59,36.89-18.62,54.84a194.18,194.18,0,0,1-28.72,50.17c-10.83,13.63-23.75,24.75-40.47,30.65-17,6-33.72,4.87-50.07-2.47-3.13-1.4-6.1-3.16-9.14-4.75,2.1-2,3.81-4.21,4.11-7.23.65.31,1.31.6,1.95.93,8.48,4.31,17.33,7.43,26.93,8,18,1,33.12-5.79,46.37-17.43,10.22-9,17.8-20,24.57-31.7C655.2,267.3,657.56,262.5,660.06,257.79ZM693.59,182l-1,.78.39.39.69-1.06.16-.48Z"/><path class="cls-7" d="M44,228c0,6.44,0,12.89,0,19.33,0,3.78-.57,4.27-4.25,4.32-8.08.1-16.15.22-24.23.19a6.75,6.75,0,0,1-3.72-1.18q-5.38-3.9-10.49-8.19a4.35,4.35,0,0,1-1.32-3c.05-12,.23-24,.37-35.93a8,8,0,0,0,0-1.63c-.49-2.23.68-3.06,2.64-3.06,10.8,0,21.6.06,32.39.19a4.18,4.18,0,0,1,2.52,1.21,47.89,47.89,0,0,1,4.76,5.21,5.74,5.74,0,0,1,1,3.18c.09,6.44,0,12.89,0,19.33ZM3.81,240.71H35.27V202.87H3.81Z"/><path class="cls-7" d="M380.2,40.84c-5.36,0-10.71,0-16.07,0-3.06,0-4.42-1.21-4.53-4.25C359.27,27.79,359,19,359,10.21c0-1.26.88-2.62,1.63-3.76,2.9-4.4,7.23-5.32,12.22-5.37C381,1,389.13.36,397.3,0c3.87-.16,4.35.2,4.55,4,.48,9.07.92,18.14,1.19,27.22a8.65,8.65,0,0,1-8.41,8.61c-4.81,0-9.62,0-14.43,0ZM366,5.07c.41,9.23.82,18.27,1.23,27.52l31.62-1.18c-.34-9.28-.66-18.29-1-27.32Z"/><path class="cls-7" d="M71.68,48.31c5.17,0,10.34,0,15.51,0,4.17,0,6.89,2.68,7,6.74.21,7.8.58,15.6.67,23.39.06,5.49-1.29,6.66-6.82,6.66q-14.43,0-28.85-.11c-4,0-6.52-2.42-6.53-6.55q0-12.51.16-25c.07-4.94.15-4.91,5.25-4.87,4.54,0,9.07,0,13.61,0Zm15.5,3.5h-32c.3,9.47.59,18.47.88,27.24H87.18Z"/><path class="cls-8" d="M196.82,124.26c-4.35,0-8.7,0-13,0s-4.79-.45-5-4.84c-.35-7.7-.56-15.4-.85-23.1a31.91,31.91,0,0,0-.35-4.59c-.36-2,.62-2.78,2.29-2.87q15.35-.85,30.7-1.59c1.86-.09,2.85.9,3,2.77q.77,13,1.51,26.07a11.82,11.82,0,0,1-.2,2.44c-.51,3.45-1.84,4.58-5.26,4.72-4.26.17-8.51.42-12.77.63Zm14.29-8.15c-.4-8.53-.78-16.71-1.17-25.06l-29.29,1.54c.64,8.54,1.25,16.6,1.86,24.72Z"/><path class="cls-9" d="M88.55,104a43.47,43.47,0,0,1,3.66,3.51q12.53,15.09,25,30.25,19.21,23.34,38.41,46.69c1.07,1.31,3.19,2.93,1.26,4.59s-3.18-.7-4.23-2q-31.16-38.73-62.22-77.51a53.12,53.12,0,0,1-3-4.55Z"/><path class="cls-6" d="M157.67,212.35q.11,4.65.19,9.31a10.42,10.42,0,0,0-1.62,1c-6.73,5.65-13.52,11.22-20.1,17-3,2.67-5.61,5.84-8.4,8.79L118,247.32c5.58-5.56,10.93-11.37,16.8-16.61,6.77-6,14-11.54,21-17.25A14.85,14.85,0,0,1,157.67,212.35Z"/><path class="cls-6" d="M209.21,190.87c-.7-2.51-1.41-5-2.11-7.53,4.08-1.51,8.09-3.18,12.23-4.51,9.06-2.9,18.18-5.63,27.28-8.43.86-.27,1.7-.59,2.54-.89l8.78,5.67A245,245,0,0,0,209.21,190.87Z"/><path class="cls-10" d="M311.11,333.59c2.73,25.93,8.62,51.7,4.34,78l-1.45.12a36.86,36.86,0,0,1-.62-6.32c1.64-22.34-1-44.42-3.72-66.51a44.42,44.42,0,0,1,0-5.29Z"/><path class="cls-11" d="M189.37,201.13l-15.72.33,30.26-16.2,1.92,7.5Z"/><path class="cls-9" d="M514.18,99.73c.75-2.62,1.36-5.29,2.26-7.86q4.23-12,8.66-24A15.48,15.48,0,0,1,527.47,64a2.07,2.07,0,0,1,1.87-.53,2.27,2.27,0,0,1,1,1.69,5.06,5.06,0,0,1-.45,2.37c-4,9.31-7.91,18.64-12,27.88-.74,1.63-2.38,2.86-3.61,4.27Z"/><path class="cls-9" d="M455.07,85.46c-.75-4.6-1.51-9.19-2.24-13.8-.44-2.77-1-5.54-1.18-8.33-.06-1,.87-2,1.34-3.07.85.78,2.35,1.49,2.43,2.34.59,6,.92,12.08,1.25,18.13a46.3,46.3,0,0,1-.23,4.69Z"/><path class="cls-10" d="M562.23,139.92c4.9-3,9.78-6,14.71-9a40.77,40.77,0,0,1,5.79-2.92c.73-.28,1.78.25,2.69.4-.42.82-.63,2-1.3,2.39-6.88,3.88-13.8,7.71-21.44,9.92Z"/><path class="cls-9" d="M199.39,147.34c-.52,1-.92,1.71-1.31,2.45-.69-.49-1.78-.84-2-1.49q-1.7-5-3-10.14c-.16-.67.56-1.56.87-2.35.67.5,1.69.86,1.94,1.52C197.2,140.61,198.25,144,199.39,147.34Z"/><path class="cls-10" d="M82.71,95.57c-.58.2-1.5.76-1.7.56q-3.67-3.54-7.1-7.36c-.11-.12.84-1.2,1.3-1.83L83,94.59Z"/><path class="cls-12" d="M675.22,224.55c1.39,7.7-.09,11.53-5.64,14.6Z"/><path class="cls-9" d="M514.23,99.65l.08.14a.67.67,0,0,0-.12-.06S514.23,99.65,514.23,99.65Z"/><path class="cls-13" d="M530.4,575.82c5.49.42,11,.95,16.46,1.16,1,0,2.06-1.17,3.1-1.8-.89-.75-1.69-2-2.69-2.17a112.1,112.1,0,0,0-13.83-2.1c-2.21-.16-4.5,1-6.76,1.48a7.47,7.47,0,0,1-1.7,0c-.19-1.88-.27-3.77-.58-5.62-2.62-15.2-5.52-30.38-4-45.94a7.89,7.89,0,0,0-.11-2.7,2,2,0,0,0-1.24-1.15c-.25-.08-1,.55-1.07,1a15,15,0,0,0-.46,3.21,145.6,145.6,0,0,0,4.72,45.28,16.76,16.76,0,0,1,.24,3.19,17.42,17.42,0,0,1-2.39-1.44c-18.61-15.37-37.16-30.82-55.83-46.12-6-4.93-12.37-9.47-18.76-14.33.32-.77.66-1.68,1.05-2.56l55-122.36c.18-.41.41-.81.62-1.21,5.25,3.19,9.85,7,13.18,12.31,7.13,11.36,14.23,22.76,21.62,33.95,8.89,13.47,18,26.77,27.14,40.09,1.2,1.75,1.2,2.58-.89,3.67A165.56,165.56,0,0,0,547,480.93a146,146,0,0,0-13.89,11.32,5.2,5.2,0,0,0-.74,7.35c1.78,2.17,4.56,2.51,7.37.86a15.34,15.34,0,0,0,1.74-1.29l10.08-7.82a10.15,10.15,0,0,0,2.63-.77c3.3-2.06,6.54-4.21,9.78-6.37,1.91-1.27,3.79-2.61,5.68-3.92,2.44-.35,3.65,1.06,4.32,3.12,1.42,4.4,3.08,8.74,4.11,13.22,4.47,19.6,5.94,39.61,6.92,59.59.64,13.18.24,26.46-.4,39.66a195.59,195.59,0,0,1-6.89,42c-1,3.59-2.71,6.5-5.9,8.06-5.26,2.59-10.59,5.3-16.19,6.89-11,3.12-22.28,2.79-33.47,1.4-6.08-.75-12.29-1.74-18-3.85-19.57-7.24-37-18.27-53.27-31.27-8.62-6.89-17-14-25.53-21.09,8.43-14.13,13.4-29.57,16.73-45.52a105.84,105.84,0,0,0,1.73-31.18c-.27-3.07,0-6.17,0-9.26l.89-.17c1,.66,2,1.26,2.85,2,11,8.84,22,17.57,32.82,26.57,16.82,14,33.49,28.18,50.2,42.32,2.42,2.06,4.68,4.31,7,6.46,1.13,1,2.33,2.59,3.89,1s.2-3.06-1-4.17c-2.81-2.71-5.75-5.29-8.61-8-.65-.6-1.19-1.32-1.78-2A3.92,3.92,0,0,0,530.4,575.82Z"/><path class="cls-14" d="M357.09,361c-8.79-5.16-15.63-12.34-21.15-20.79-3-4.63-5.66-9.51-8.57-14.21a47.23,47.23,0,0,0-14.22-14.79c-8.38-5.54-13.59-13.7-17.76-22.62a15.64,15.64,0,0,1-.57-2.16c1.18-.14,2.22-.19,3.23-.4.84-.18,2.21-.42,2.32-.87a3.42,3.42,0,0,0-.74-2.64c-2.31-2.55-4.8-4.94-7.2-7.41-2.91-3-5.95-5.85-8.62-9-2.08-2.49-1.48-3.82,1.72-3.92a65.16,65.16,0,0,1,9.44.68c1.72.21,3.5.55,4-1.59.44-1.95-1.27-2.43-2.72-3.12a49.38,49.38,0,0,1-8.25-4.49c-2.28-1.68-2.15-3.63.33-5a71.17,71.17,0,0,1,10.18-4.39c4.42-1.62,5.24-3.46,3.07-7.58-1.47-2.79-2.88-5.62-4.55-8.9,1.27.14,2,.26,2.77.3a29.59,29.59,0,0,0,5.14.17c6-.77,7.34-3.52,4.41-8.74-.88-1.57-2.11-3-3-4.55a30.64,30.64,0,0,1-1.52-4.15c1.46-.5,2.91-1.34,4.4-1.42,5.61-.31,11.24-.18,16.84-.56,13.24-.91,24.63-6.78,35.84-13.32a45.74,45.74,0,0,1,20.59-6.28c4.86-.3,9.67-1.41,14.5-2.15a51.88,51.88,0,0,0,7,.88,182.34,182.34,0,0,0,37.46-4.24c2.86-.61,5.84-1.82,8,1.49.18.26.62.36,1,.5,4,1.69,8,3.32,12,5.08,1.92.85,3.73,2,6.13,3.21-1.21.49-1.68.71-2.17.87-7.94,2.52-12.39,7.83-13.1,16.21a10.23,10.23,0,0,1-.86,2.55c-1.44,3.9-3.16,7.72-4.27,11.72a83.4,83.4,0,0,0-2.08,11.48c-1.57,11.86-1.22,23.3,7.74,32.68a5.75,5.75,0,0,1,.67,1.16c-21.52,3.17-40.42-3.23-57.35-15.56,4-2.26,8.43-4.25,12.26-7,2.77-2,4.78-5.09,7.13-7.69l2.46-2.77,5.61-6.79-.89-.64q-2.34,3.72-4.69,7.45l-3.29,2.74a10.3,10.3,0,0,0-1.47,1.05,45.91,45.91,0,0,1-18.55,10.93,14.76,14.76,0,0,1-5.83.55c-10-1.15-19.77,5.24-21.55,14.65a29.74,29.74,0,0,0,1.7,17.65c4.06,9.26,10.46,17,17.08,24.44.47.53,1.54.53,2.33.78a6.92,6.92,0,0,0-.05-2.28,12,12,0,0,0-1.64-2.81c-2.34-3.24-4.75-6.42-7.1-9.65-5.33-7.32-9.4-15.09-8.95-24.54.25-5.23,1.46-10,6.38-12.74,5.42-3.05,11-3.66,16.5-.16,2.52,1.61,4.93,3.4,7.32,5.2,11.54,8.7,24.59,12,38.89,11.05,5.79-.39,11.59-.64,17.39-1,2.21,1.39,4.38,2.84,6.64,4.14,6.83,3.95,7.46,11.72,1.2,16.53-3.08,2.36-6.44,4.36-9.51,6.74a70,70,0,0,0-9.2,7.93c-1.48,1.64-1.83,4.31-2.69,6.51l-1.12,1.33-1.67,1.21c-1.52-.22-3-.36-4.54-.67-8.95-1.85-17.79-4.5-27.15-2.88a77.67,77.67,0,0,1-10.58.85c-7.47.26-14-1.88-18.68-8.09-2.58-3.4-5.25-6.73-7.72-10.2-4.42-6.2-8.71-12.47-13-18.72a2.23,2.23,0,0,1-.35-.86c-.26-1.77-1.46-2-2.69-1.29-4,2.3-8.39,4.33-8.55,9.92a13.91,13.91,0,0,0,.52,2.86c.83-.63,1.92-1.09,2.43-1.91,1.09-1.75,1.87-3.68,3-6.06.56,1.32.83,1.88,1,2.46a334.21,334.21,0,0,0,21.2,47.32c3.77,7,8.81,12.9,15.81,16.85,12.54,7.07,26.25,8.43,40.1,6.56,11-1.49,20.88-6.63,29.52-13.7,6.89-5.63,13.53-11.55,20.3-17.33,1.33-1.13,2.76-2.17,4.16-3.27,1.21,2.4,2.22,4.4,3.24,6.4l.67-.21.55-1.73c3.36-.41,5-2.14,5.25-5.4.28-4.46-3.41-10.6-7.46-12.4-2.79-1.24-5.14-.41-6.72,2.18a16.76,16.76,0,0,1-2.27,2.44l-.65.24a17,17,0,0,0-2.14.06c-6,1-12.05,2-18.09,2.9a16.81,16.81,0,0,1-4-.41l16.08-10.25c.72-.52,1.44-1,2.15-1.54,8.41-6.19,12.69-13.54,6.54-23.75-.14-.24-.26-.48-.39-.72l-.5-.7,0,0-.52-.6,0,0c-1.56-2-2.78-4.47-4.74-6-4.72-3.58-10.28-6.06-14.17-10.77-.13-.16-.49-.13-.75-.19l0,0-.47-.65,0,0-.63-1-2.55-4.49.2-.07-.22-.31a.7.7,0,0,1-.26-.22,10.41,10.41,0,0,0,0-1.85,107.22,107.22,0,0,1-1.5-25.1c.17-2.92.7-5.82,1.11-9.1l2,1.36,1.56.54c1.54,0,3.28.43,4.58-.13,6.49-2.81,12.49-2.66,18,2.15.68.59,1.57,1,2.19,1.6C488.39,228.07,494,234,499.51,240a85,85,0,0,1,17.61,28.2c2.28,6.17,5.42,11.91,10.3,16.47a18.33,18.33,0,0,1,5.09,9.09c1.34,5,2.57,10.1,4.87,14.64,1.83,3.63,1.74,6.14-1,8.81-.2.18-.35.42-.54.61a16.34,16.34,0,0,0-4.67,11,13,13,0,0,1-1.41,4.92A22.64,22.64,0,0,1,514.56,346a13.48,13.48,0,0,0-9.51,8.17,11.36,11.36,0,0,1-3.21,3.88,42.2,42.2,0,0,1-6,4.24c-5.23,3-10.37,6.32-15.87,8.77-6.31,2.81-13.3,2.44-20.08,2.78q-12.62.65-25.23,1.24l-9.76.43,1-1.9c-4.39-.25-8.39-.44-12.38-.73-2.15-.16-4.29-.69-6.42-.66-.81,0-1.61,1.11-2.41,1.72-4.42,0-8.89,2-13.25-.49-2.11-1.22-4.43-2.09-6.54-3.31-6.05-3.52-12.21-6.84-19.13-8.26A75.84,75.84,0,0,0,357.09,361Zm73.55-136.88-1.39.33-2.67,2.81-2.18,2.57.64.43,1.47-3,2.71-2.83,1.33-.31.11-.46-.32.19Zm20.25,130a12.74,12.74,0,0,0,2.72-1.25q14.42-11.59,28.73-23.3c.61-.5.76-1.55,1.12-2.35a7.52,7.52,0,0,0-2.52.88q-15,13-30,26.06l-.38.57.47-.07ZM392.83,204.52c3.41-1.23,6.73-2.87,10.25-3.59,6.14-1.27,14.95,2.69,17.77,7.31.44.73,1.81,1.67,2.22,1.47a3.84,3.84,0,0,0,1.89-2.42,6.72,6.72,0,0,0-3.28-7,72.81,72.81,0,0,0-9.87-5.05c-9.64-4.13-22.14,2.35-26.65,12.41a5.23,5.23,0,0,0,.16,2.12c.14.26,1.45.28,1.84-.05C389.12,208.08,391,206.27,392.83,204.52Zm-5.46,65.74c-2.31.61-2.46,2.89-1.41,5.09,1.2,2.49,2.56,5.14,4.55,6.94a108.86,108.86,0,0,0,11.26,8.46c1.88,1.31,4,2.07,5.41-.83.11-.23.55-.36.86-.43,2.61-.64,3-1.18,1.54-3.55-3-4.94-6-9.92-9.43-14.57a34.62,34.62,0,0,0-7.07-6.64c-2.38-1.8-4.34-1.55-6.09.9C386.34,266.54,387.18,268.5,387.37,270.26Zm75.52,23.12c-.35-1.09-1-2.26-.76-2.54a19,19,0,0,1,3.58-2.76,13,13,0,0,1,2.42-.92c-.53-.76-.93-2-1.59-2.19-2.94-.66-6-1.55-8.94-1.32-6.92.53-12.65,4.14-17.89,8.43-.87.71-1.82,2.72-1.45,3.28,1.16,1.74,1.17,4.72,4.55,4.53C450.14,299.48,456.64,296.78,462.89,293.38Zm12.68-44.92a37.67,37.67,0,0,0-1.67-5.33c-1.41-2.79-5.48-4.42-7.8-3.32-6.2,2.93-8.08,12.83-3.39,17.79,2.6,2.74,6.93,3,8.76,0S474.34,251.28,475.57,248.46ZM375.49,236.3l.19,1c9-3,17.26-.44,25.38,3.07a9,9,0,0,0,3.34,1.08,4.33,4.33,0,0,0,3.17-1.16c.41-.55-.21-2.12-.72-3a6.37,6.37,0,0,0-2-1.75c-6.66-4.68-14.11-5-21.63-3.27C380.45,232.83,378,234.89,375.49,236.3Zm11.18,119.77,1-.68c-3.62-5.23-7.5-10.3-10.77-15.73s-6-11.31-9-17l-.88.5C370.82,335.79,378.41,346.13,386.67,356.07ZM494.1,252.75c-2.08.49-3.69.5-4.79,1.25-.92.63-1.38,2.08-1.75,3.26-.11.39.7,1.53,1.11,1.54,4,.12,7.94.07,11.91.07l.09-1.11-9.42-2.54ZM367,229.9c-3.13-1-7-2.22-10.88-3.3-.76-.21-1.72.29-2.59.46.58.67,1,1.68,1.76,1.94A21.69,21.69,0,0,0,367,229.9Z"/><path class="cls-15" d="M425.33,598.05c8.5,7,16.91,14.2,25.53,21.09,16.23,13,33.7,24,53.27,31.27,5.7,2.11,11.91,3.1,18,3.85,11.19,1.39,22.51,1.72,33.47-1.4,5.6-1.59,10.93-4.3,16.19-6.89,3.19-1.56,4.92-4.47,5.9-8.06a195.59,195.59,0,0,0,6.89-42c.64-13.2,1-26.48.4-39.66-1-20-2.45-40-6.92-59.59-1-4.48-2.69-8.82-4.11-13.22-.67-2.06-1.88-3.47-4.32-3.12-.63,0-1.4-.34-1.87-.09-5.09,2.71-10.16,5.43-15.13,8.35-.68.4-.75,1.84-1.09,2.8l-10.08,7.82a15.34,15.34,0,0,1-1.74,1.29c-2.81,1.65-5.59,1.31-7.37-.86a5.2,5.2,0,0,1,.74-7.35A146,146,0,0,1,547,480.93a165.56,165.56,0,0,1,16.22-9.34c2.09-1.09,2.09-1.92.89-3.67-9.1-13.32-18.25-26.62-27.14-40.09-7.39-11.19-14.49-22.59-21.62-33.95-3.33-5.29-7.93-9.12-13.18-12.31l5.92-14.46c1,1.33,1.79,2.45,2.64,3.54l64.64,82.93c9.55,12.24,19.14,24.46,28.62,36.75a7.12,7.12,0,0,1,1.13,3.66c.53,6.6.82,13.22,1.41,19.82a304.89,304.89,0,0,1-.34,52.51c-1.43,17.19-3.31,34.34-5.27,51.47a183,183,0,0,1-9.26,41.09,67.93,67.93,0,0,1-7.35,14.5c-7,10.45-17.24,15.78-29.57,16.5a123.23,123.23,0,0,1-22.22-.85c-10.43-1.29-19.22-6.89-27.94-12.32-9.24-5.77-18.38-11.7-27.48-17.7-13.2-8.69-24.49-19.62-35.4-31-7.23-7.52-14.4-15.11-21.66-22.74Z"/><path class="cls-16" d="M414.66,584.41c-6-5.5-11.84-11.27-18.16-16.41a59.5,59.5,0,0,0-12.72-7.72c-20.38-9.31-41.84-15.4-63.54-20.68-2.36-.57-3.21-1.47-3.26-3.93-.21-11,3.22-21,8.27-30.66.85-1.63,1.82-1.58,3.31-.93,7.58,3.3,15.19,6.51,22.8,9.75l5.45,2.88,1.07.59c1.34.43,3.44,1.62,3.89,1.16,1.51-1.5-.12-2.88-1.09-4.14a5.23,5.23,0,0,0-1.14-1.16c-5.41-3.78-10.64-7.88-16.33-11.2a36.4,36.4,0,0,0-16.41-5.2c1-2.66,1.87-5.37,3-8,.94-2.25,2.12-4.39,3.19-6.57,1.34.54,2.65,1.2,4,1.61,5.29,1.56,10.72,2.72,15.88,4.62,11.13,4.1,22.38,8,33.11,13,10.54,4.94,18.27,13.17,21.56,24.67a99.64,99.64,0,0,1,2.6,15c.34,2.69,1.25,4.66,3.85,5.67l.42,1.09,1.39-1c1.33-.67,3.13-1,3.91-2.06,3.08-4.25,5.84-8.72,6.25-14.2.15-1.93.5-3.85.76-5.78h.79c.19,4.46.6,8.92.52,13.37-.2,11.74-3.17,22.9-7.61,33.69C418.67,576.13,416.59,580.24,414.66,584.41Z"/><path class="cls-17" d="M357.09,361a75.84,75.84,0,0,1,8.69.81c6.92,1.42,13.08,4.74,19.13,8.26,2.11,1.22,4.43,2.09,6.54,3.31,4.36,2.5,8.83.45,13.25.49a16.31,16.31,0,0,0,2.95,1.72c5.76,1.94,11.53,1.3,17.28-.15l9.76-.43q12.62-.61,25.23-1.24c6.78-.34,13.77,0,20.08-2.78,5.5-2.45,10.64-5.73,15.87-8.77a42.2,42.2,0,0,0,6-4.24,11.36,11.36,0,0,0,3.21-3.88,13.48,13.48,0,0,1,9.51-8.17,22.64,22.64,0,0,0,15.18-12.24,13,13,0,0,0,1.41-4.92,16.34,16.34,0,0,1,4.67-11c.19-.19.34-.43.54-.61,2.76-2.67,2.85-5.18,1-8.81-2.3-4.54-3.53-9.67-4.87-14.64a18.33,18.33,0,0,0-5.09-9.09c-4.88-4.56-8-10.3-10.3-16.47A85,85,0,0,0,499.51,240c-5.51-6-11.12-11.9-16.71-17.81-.62-.64-1.51-1-2.19-1.6-5.53-4.81-11.53-5-18-2.15-1.3.56-3,.11-4.58.13,1.56-2.54,2.92-5.22,4.71-7.59,5.95-7.87,17.82-7,23,1.46,1.35,2.2,3.65,3.82,5.52,5.71l.83-.56a12.64,12.64,0,0,0-.19-2.84c-3.62-11.82-14.36-19.48-27.87-13.05A14.48,14.48,0,0,0,456.45,218l-2-1.36c-.41,3.28-.94,6.18-1.11,9.1a107.22,107.22,0,0,0,1.5,25.1,11.44,11.44,0,0,1,0,1.85l-2-3.82-.77.42c2.16,7.86,6.24,14.73,12.06,21.38h-9.66a5.75,5.75,0,0,0-.67-1.16c-9-9.38-9.31-20.82-7.74-32.68a83.4,83.4,0,0,1,2.08-11.48c1.11-4,2.83-7.82,4.27-11.72a10.23,10.23,0,0,0,.86-2.55c.71-8.38,5.16-13.69,13.1-16.21.49-.16,1-.38,2.17-.87-2.4-1.26-4.21-2.36-6.13-3.21-4-1.76-8-3.39-12-5.08-.34-.14-.78-.24-1-.5-2.16-3.31-5.14-2.1-8-1.49A182.34,182.34,0,0,1,404,188a51.88,51.88,0,0,1-7-.88c8.4-4,17.46-4.27,26.49-4.75a40.12,40.12,0,0,0,5.5-.19c1.15-.22,2.06-1.49,3.22-1.86,4.29-1.35,8.64-2.51,13-3.75,4,.24,8.05.73,11.92-.93l5.35.36.16.52-6.94,3.33a18,18,0,0,0-2.91,1.47,18.66,18.66,0,0,0-2.26,2.35,12.08,12.08,0,0,0,3.13.82c3.25,0,6.5-.26,10.2-.44-1.69,2.67-.37,3.26,1.7,4.05A54.56,54.56,0,0,1,475.62,193a125.91,125.91,0,0,1,14.21,10.47c2.35,2,3.68,5.24,5.52,7.88a7.38,7.38,0,0,0,1.53,1.28h0l.72,2.35.88,1.52.6,1.09,0,.05c5.47,10.43,10.57,21.09,16.56,31.22,3.32,5.64,8,10.54,12.28,15.55,7,8.12,14.18,16,21.23,24.09a26.65,26.65,0,0,1,2.3,3.64l-2.73,6.23a55.83,55.83,0,0,0-5.64.78c-.73.16-1.29,1-1.93,1.57.58.61,1.06,1.55,1.75,1.76a11.25,11.25,0,0,1,6.63,5.71c1.86,3.24,1.31,6.11-1.55,8.49a30.47,30.47,0,0,1-3.57,2.5c-2.47,1.54-4.65,3.1-4.09,6.64.15.93-.73,2.27-1.51,3.05a8.92,8.92,0,0,0-2.57,6.65c0,7.39-4.07,12.06-10.49,14.79A102.75,102.75,0,0,1,514.12,354c-2.91.83-4.8,2.52-5.31,5.52a6.45,6.45,0,0,1-5.36,5.69c-3.2.78-5.22,2.86-6.38,6.09-2,5.62-6.47,8.87-11.91,10.76a45.81,45.81,0,0,1-21.77,1.65,60.23,60.23,0,0,0-19.15.66c-1.78-.66-3.53-1.74-5.35-1.87a64.05,64.05,0,0,0-8.39.46c-13.91.83-27.86,1.57-41-4.29-5.19-2.3-9.95-5.54-15-8.24-5.42-2.93-10.92-5.73-16.38-8.6A7.51,7.51,0,0,1,357.09,361Z"/><path class="cls-14" d="M141.58,413.11a61.24,61.24,0,0,1-24.15-21c-1-1.48-2.28-2.75-3.39-4.16a3.11,3.11,0,0,1-.77-1.59c-.49-18.92-.58-37.92,4.57-56.26,6.46-23,21.66-38.11,44.44-45.47,3.57-1.15,4.21-1,5.83,2.37,1.81,3.8,3.2,7.81,4.84,11.89-1.71,1-3.3,1.82-4.78,2.82-9.2,6.26-15.67,14.74-20.06,24.88a52.19,52.19,0,0,0-2.11,5.3c-.2.63.27,1.46.44,2.19.79-.22,1.59-.42,2.38-.66.14,0,.22-.28.32-.43,5.52-8.86,13.8-14.81,22-20.87A10.32,10.32,0,0,1,172,314c2,8.7-.4,16.59-5,23.77-3.73,5.77-8.18,11.06-12.18,16.65-4.39,6.13-8.68,12.34-9.72,20.09-.45,3.32-.63,6.67-1.17,10C142.35,394,140.91,403.45,141.58,413.11Z"/><path class="cls-18" d="M457.51,173.9c-7.73-.15-15.53-.24-22.87,2.5-16.32,6.1-32.37,4.1-48-1.83a227.55,227.55,0,0,0-49.65-13c-6.46-.89-13-1.29-19.83-2,.93-3.4,1.81-6.86,2.86-10.27a3,3,0,0,1,1.68-1.53c8.49-2.93,17-5.78,25.5-8.66l-2.86,2.27L358,140c-.69,6.63.88,16.06,3.31,18.05-.57-6.46-1.4-12.69.8-18.72,10.17-2.46,20.51-2.25,30.84-2.06-2,9.82-1.77,23.15.72,28.32.1-1.37.17-2.19.22-3,.37-6.6.61-13.21,1.16-19.79.16-1.91,1.22-3.75,1.86-5.63a93.85,93.85,0,0,1,28,5.63c-.8,4.5-1.63,9-2.4,13.51a11.91,11.91,0,0,0,0,2.07l.67.09q2.28-7.1,4.57-14.18a18.91,18.91,0,0,1,2.06.65c10.14,4.43,17.69,11.95,24,20.8C455.46,168.15,456.29,171.17,457.51,173.9Z"/><path class="cls-19" d="M413.55,390.83c-7.06,1.56-11.82,5.68-13.15,12.86-1.48,8,1.69,14.18,8.61,18.53l-11.72,23c-6,11.89-12.05,23.79-18.16,35.64a12.47,12.47,0,0,1-2.41,2.53c-.71-1.05-1.78-2-2.1-3.16q-17.55-63-35-126.13c-.12-.43-.17-.87-.33-1.74,2.86,2.41,5,4.59,6,8.06,4.34,14.31,8.79,28.59,13.67,42.72,1.79,5.18,4.8,9.95,7.47,14.8.61,1.1,2.24,2.55,3.12,2.38a5.08,5.08,0,0,0,2.95-3c5.1-13.7,14.33-23.13,28.25-27.82,1.11-.38,2.28-.57,3.41-.84.77.16,1.53.3,2.29.48Z"/><path class="cls-18" d="M443.1,501.61c-.54,1.41-1.09,2.82-1.64,4.22l-1,.07-20.4-82c12.58-5.88,15.28-12.28,11-25.7,1.1,1.11,2.28,2.15,3.3,3.34a50,50,0,0,1,11.48,22c.23,1.07.53,2.12.84,3.16.92,3.09,2.77,4.14,5.53,2.54a47.11,47.11,0,0,0,9.54-6.69c6.72-6.61,13.05-13.61,19.54-20.46l1.48-1.53a10,10,0,0,1-.43,2.07c-9.94,22.47-20,44.88-29.79,67.41-3.61,8.3-6.68,16.85-9.67,25.39C442.17,497.23,443,499.54,443.1,501.61Z"/><path class="cls-18" d="M545.2,207.63q1.53-10.12,3.07-20.22a4.54,4.54,0,0,1,1.19.58q8.34,7.89,16.64,15.8c2.33,2.24,4.6,4.53,6.89,6.8-.67,7.69-2,15.2-5.33,22.26-3.57-1.52-7.2-2.9-10.69-4.59-8.59-4.16-17-8.6-24.55-14.55-4.8-3.78-10.19-6.8-15.31-10.16.33-2.08.67-4.17,1-6.26l.47-1.61.21-1.05a63.55,63.55,0,0,0,3.1-27.2l7.27,2.88c.8,1.34,1.3,3.05,2.45,4,3.92,3.13,8.07,6,12.13,8.94.25,4.6.64,9.21.71,13.82.06,3.53-.29,7.06-.46,10.59q-1.18,5.4-2.38,10.78l.95.24Z"/><path class="cls-5" d="M517.11,203.55c5.12,3.36,10.51,6.38,15.31,10.16,7.57,5.95,16,10.39,24.55,14.55,3.49,1.69,7.12,3.07,10.69,4.59-.14.86-.28,1.72-.41,2.58-.4.91-.79,1.82-1.18,2.73-.13.19-.27.39-.38.59,0,0,.12.11.18.16l.31-.66,2.09-2.84a.88.88,0,0,1,.13-.52l.42-.43.52-.26c3,1.14,6,2.48,9.15,3.37,8.15,2.33,16.37,4.47,24.56,6.69l-1.48,4.8-.5,1.88,1,.32,1.17-2.66,0,0c.33-.41.66-.83,1-1.25l1.2-2.37,16.75,2.95,1.91.5.14-.85-2.61-.59-14.24-7.7c.32-1.44.63-2.88.95-4.33l1.52,0c8.35,4.85,17.07,8.79,26.59,10.74,2.3.47,4.62.88,7.14,1.35v7.37l.5-.33,1.82-4.37,1.47-2.25c7.84.17,15.58-.37,22.87-3.65l.51,1a36.41,36.41,0,0,1-4,3.89c-2.4,1.75-5,3.23-7.5,4.83l-.44.29-.88.34-1.31.53h0l-1.13.46-.13.14-.18,0-1.33.45-.13.14-.18-.05-1.31.41-.2.14-.24,0-1.17.34-1,.2-1.15.28-1.59.26-1.12.25-12,.39-1.11-.07-24-1.9-1.86-.28-.12.09-.13-.09c-3.09-.78-6.17-1.63-9.28-2.31-3.49-.76-7-1.38-10.51-2.05l-.23,0-.18-.14-1.18-.45h-.25l-.21-.14-1.06-.46L583,250l-.6-.33c-15.76-6.14-31.62-12-45.63-21.86-6-4.21-12.41-7.79-18.64-11.66l-.46-.31-2.26-1.26-.54-.35-.51-.26-.18-.59Q515.63,208.46,517.11,203.55ZM639,249.77l-.33,1,2.28.37c0-.22.09-.45.14-.67Zm-99.58-23.54.71.17.36-1.85-.49-.11C539.79,225,539.6,225.63,539.41,226.23Zm80,24.65v.22h.8v-.22Z"/><path class="cls-20" d="M199.78,418.76c4.89-.16,9.79-.39,14.68-.47,17.16-.26,34.33-.42,51.49-.73,10.6-.19,8.8-.58,8.68-8.89q-1.12-75.19-2.45-150.38-.33-19.88-.77-39.76c-.1-4.58-.59-5-5.06-5l-22.07.1H241c2.24-2.87,4.06-5.31,6-7.63a3,3,0,0,1,1.95-.68c3.27-.12,6.53-.15,9.8-.21,1.39.55,2.8,1.08,4.18,1.66,1.8.77,2.5.13,2.33-1.72h9.33c1.3,72.46,2.6,145,3.9,218.13-2.95,0-5.81,0-8.68,0q-34,.62-68.1,1.27a12.3,12.3,0,0,1-1.35-.12Q200.06,421.56,199.78,418.76Z"/><path class="cls-17" d="M414.66,584.41c1.93-4.17,4-8.28,5.75-12.53,4.44-10.79,7.41-22,7.61-33.69.08-4.45-.33-8.91-.52-13.37h-.79c-.26,1.93-.61,3.85-.76,5.78-.41,5.48-3.17,9.95-6.25,14.2-.78,1.07-2.58,1.39-3.91,2.06.87-2.13,1.83-4.22,2.55-6.39.2-.64-.31-1.51-.49-2.27v-.1c2.87-.73,2.84-3.57,3.61-5.54,3-7.6,3.37-15.54,2.25-23.58-.14-1-.26-1.95-.46-3.5,5.26,1.76,10.2,3.34,15.06,5.15.64.23,1,1.57,1.23,2.47a82.7,82.7,0,0,1-1.19,40.7c-3.12,11.35-7.39,22.37-11.24,33.51a49.49,49.49,0,0,1-2.75,5.54c-1.4-1.7-2.58-3-3.61-4.43-1.2-1.63-2.19-3.39-4.73-2.91C415.65,585.59,415.12,584.8,414.66,584.41Z"/><path class="cls-1" d="M450.32,425.51c-2.6-15.53-11.28-26.75-22.68-36.66,4.55-.87,8.88-2.85,12.76-2.18,5.94,1,11-2.39,16.66-1.65,2.85.38,6,.32,8.44,1.53a25.8,25.8,0,0,0,20.83,1.13,9.35,9.35,0,0,1,1.47-.17C476.26,401.21,465.47,415.06,450.32,425.51Z"/><path class="cls-4" d="M417.84,538.11v.1L414,546.77c-2.6-1-3.51-3-3.85-5.67a99.64,99.64,0,0,0-2.6-15c-3.29-11.5-11-19.73-21.56-24.67-10.73-5-22-8.94-33.11-13-5.16-1.9-10.59-3.06-15.88-4.62-1.38-.41-2.69-1.07-4-1.61l2.13-4.4a27.37,27.37,0,0,0,3.51,1.33c10.77,2.44,22,3.68,32.23,7.49,15.87,5.91,32.4,10.55,46.62,20.53,2.84,2,3.41,3.8,3.56,6.59A72.78,72.78,0,0,1,417.84,538.11Z"/><path class="cls-17" d="M141.58,413.11c-.67-9.66.77-19.14,2.31-28.62.54-3.3.72-6.65,1.17-10,1-7.75,5.33-14,9.72-20.09,4-5.59,8.45-10.88,12.18-16.65,4.64-7.18,7.08-15.07,5-23.77a10.32,10.32,0,0,0-.89-1.91l3.69-2.53c5.09,8.31,10,16.35,12.38,25.72-11,7.48-21.65,15.5-30.2,25.86a53,53,0,0,0-7.2,11.41c-1.9,4.15-.26,8.64.74,12.83,2.62,11,5.52,22,8.39,33.25A42.51,42.51,0,0,1,141.58,413.11Z"/><path class="cls-21" d="M396.73,386.66c-13.35,5.51-21.88,14.95-27.1,28.13-9.46-16.67-15-34.31-19.79-52.86l2.25,1.25c3.39,1.92,6.65,4.14,10.21,5.69a79.76,79.76,0,0,1,17.83,10.79c3,2.4,7.08,3.54,10.73,5.11C392.59,385.52,394.47,385.94,396.73,386.66Z"/><path class="cls-19" d="M354.08,195l-4.78,1.27-5.55.49c-8.79-3.81-17.67-7.43-26.33-11.51-7.31-3.44-12.89-9-17.23-15.84-.91-1.43-1.6-3-2.64-5l2.61-.3a.46.46,0,0,0,0,.48c-.7,2.61,1.25,2.32,2.73,2.41A158.93,158.93,0,0,1,347,176c1.46.52,2.33,1,2.42,2.9a31.2,31.2,0,0,0,1.57,8,59.68,59.68,0,0,0,3.14,6.93Z"/><path class="cls-22" d="M492.53,165.85l2.16-.2,1.66-.23,14.15,0,1.67.24c5.63.31,6,.75,6,7.14l.1,1.12q-.15,7.35-.28,14.7c-1.49.65-1.21,1.43-.16,2.26-.07,1.24-.14,2.49-.2,3.73l-.18,1.06c-.1.53-.21,1-.32,1.58-.34,1.14-.69,2.28-1,3.42L510.82,199l-4.12-1.89-10.14-4.61-1.31-.27-1.4-.84-2.4-.83c-.22-.5-.44-1-.65-1.5q1.24-7.89,2.5-15.77c1.28-.92,1.29-1.83,0-2.74l-.75-3.3C492.54,166.8,492.53,166.33,492.53,165.85Z"/><path class="cls-23" d="M270.1,176.19l6.08-7.83c.52,3,1,5.56,1.49,8.49,1.33-4.79,2.2-9.16,3.77-13.27a10.74,10.74,0,0,1,7.75-6.54c9.21-2.38,18.41-4.81,27.71-7.24-.34,3.1-.7,6.38-1.08,9.88-3.75.32-7.69.62-11.62,1-2.26.21-4.51.48-6.76.78s-3.34,1.64-2.88,3.77a21.4,21.4,0,0,0,2.08,5.82,42.53,42.53,0,0,0,20.58,18.69c.87.38,1.74.8,2.83,1.31C316.58,192.7,278.7,181.26,270.1,176.19Z"/><path class="cls-11" d="M443.1,501.61c-.13-2.07-.93-4.38-.3-6.19,3-8.54,6.06-17.09,9.67-25.39,9.78-22.53,19.85-44.94,29.79-67.41a10,10,0,0,0,.43-2.07l0,.05.23-.6c3-4.83,5.91-9.76,9.16-14.43,1.21-1.75,3.27-2.89,4.95-4.31l.59.45c-.25.71-.44,1.45-.75,2.14Q470.48,441.93,444.06,500A13.83,13.83,0,0,1,443.1,501.61Z"/><path class="cls-23" d="M206.48,213.89l-28.3.33c-1.81,0-3.63,0-5.44.1-4.66.17-5.17.7-5.08,5.28q.28,15.24.61,30.48c0,.88,0,1.76,0,2.9l-5-.59c-.31-15.33-.62-30.43-.95-46.27h41.51C203.21,209.22,204.61,211.63,206.48,213.89Z"/><path class="cls-24" d="M199.78,418.76q.28,2.81.58,5.59H166.3c0-.42-.09-1.37-.12-2.34q-.57-22.58-1.16-45.16a38.45,38.45,0,0,0-.53-5.68,19.1,19.1,0,0,0-1.53-3.54l6.55-7.77.76.17c0,1.47,0,2.94,0,4.41.26,15.52.49,31,.81,46.54.16,7.94.23,7.92,8,7.87C186,418.8,192.88,418.79,199.78,418.76Z"/><path class="cls-24" d="M354.08,195l0-1.19c-.83-5.12-1.66-10.25-2.6-16,1.76.68,2.67,1,3.57,1.39,5.43,2.29,10.84,4.65,16.3,6.85,1.15.46,2.52.33,4.09.51-.61-3.48-3.08-4.62-5.27-5.62-5.51-2.54-11.08-5-16.81-7a193.41,193.41,0,0,0-46.18-9.94.25.25,0,0,0,0-.34c7,.09,14.08,0,21.1.35,4.4.24,8.75,1.26,13.12,1.93.71.8,1.28,2,2.15,2.33,9.3,3.07,18.61,6.08,28,8.89,7,2.11,14.11,4.1,20.28,8.32-4.1.68-8.22,1.25-12.28,2.1-3.43.72-6.79,1.8-10.2,2.67-2.54.65-5.11,1.2-7.66,1.81a7.44,7.44,0,0,0-.74.28Z"/><path class="cls-19" d="M230.25,317.83c0,6.95.05,13.64-.09,20.33a2.84,2.84,0,0,1-1.94,1.92c-5.51.37-11,.48-16.56.75-2.13.1-3.23-.61-3.18-2.91.14-6,.13-12,.35-17.93,0-.74,1-2.05,1.62-2.06C217,317.78,223.47,317.83,230.25,317.83Z"/><path class="cls-19" d="M230.25,225.17c0,6.93.05,13.62-.09,20.31a2.82,2.82,0,0,1-1.92,1.94c-5.61.37-11.22.49-16.83.75-2.11.09-3-.82-2.92-2.89.12-6,.12-12,.33-17.93,0-.75,1-2.07,1.62-2.09C216.94,225.12,223.46,225.17,230.25,225.17Z"/><path class="cls-19" d="M230.25,366.89c0,6.94.05,13.63-.09,20.32a2.81,2.81,0,0,1-1.94,1.93c-5.51.37-11,.48-16.56.75-2.12.1-3.23-.61-3.18-2.91.14-6,.13-12,.35-17.93,0-.74,1-2.06,1.62-2.07C217,366.83,223.47,366.89,230.25,366.89Z"/><path class="cls-19" d="M230.25,268.78c0,7,.05,13.64-.09,20.33a2.8,2.8,0,0,1-1.95,1.91c-5.51.37-11,.49-16.56.75-2.13.11-3.22-.61-3.17-2.91.14-6,.13-12,.35-17.93,0-.74,1-2.05,1.63-2.06C217,268.72,223.48,268.78,230.25,268.78Z"/><path class="cls-17" d="M581.45,253.32l7,3.24c0,.36,0,.73.08,1.09-1.61.79-3.19,1.66-4.84,2.34-15.81,6.6-31.67,3.79-47.53.24a10.21,10.21,0,0,0-2.11-.49c-5.45.07-8.79-3.15-11.6-7.26a19.08,19.08,0,0,0-1.58-1.79l1.3-.6.89.4,3.76.29,1.68.19,1.59.34,1.69.3,1.56.29,1.71.32,1,.19,1.69.29,1.57.26,2.24.3,1.58.24,2.24.3,2.11.26,2.79.31,1.58.22,3.33.29,2.12.26,3.88.28,2.66.25,3.29-.21,2.24.23c1.26.25,2.6,2,3.75-.19l2.78-.36,1-.26Z"/><path class="cls-18" d="M603.05,244.26c-8.19-2.22-16.41-4.36-24.56-6.69-3.12-.89-6.1-2.23-9.15-3.37q3.49-9.63,7-19.25c.8.57,1.63,1.1,2.4,1.72q13.14,10.5,26.25,21Z"/><path class="cls-21" d="M561.23,255.42l-3.88-.28-2.12-.26-3.33-.29-1.58-.22-2.79-.31-2.11-.26-2.24-.3-1.58-.24-2.24-.3-1.57-.26-1.69-.29-1-.19-1.71-.32-1.56-.29-1.69-.3-1.59-.34-1.68-.19-3.76-.29-.89-.4-.69-1.54c3-4.91,4-10.34,4-16.8l38.39,20.81,3.27,2.9-3.29.21Z"/><path class="cls-1" d="M243.87,268.31h19.35c.18,4.11.41,8.24.54,12.36.08,2.63.13,5.27,0,7.88-.05.7-.94,1.92-1.46,1.94-6,.13-12.1.08-18.4.08Z"/><path class="cls-1" d="M263.42,317.39c.12,6.95.27,13.81.28,20.67a2.27,2.27,0,0,1-1.61,1.51c-6,.11-11.92.07-18.18.07V317.39Z"/><path class="cls-1" d="M243.82,247V224.74h19.29c.13,1.63.36,3.38.4,5.14.14,5,.27,10,.21,15,0,.72-1,2-1.61,2C256.15,247,250.19,247,243.82,247Z"/><path class="cls-1" d="M177.21,237c0-3,0-6,0-9,0-1.81.87-2.37,2.51-2.39q6.95-.12,13.87-.34c1.6-.05,2.56.4,2.63,2.24.22,5.7.51,11.41.83,17.11.14,2.47-.8,3.72-3.4,3.74-4.26,0-8.52.2-12.77.38-2.05.09-3-.72-3-2.82-.07-3-.32-6-.49-9Z"/><path class="cls-1" d="M186.86,269c2.27,0,4.53,0,6.8,0,1.67-.05,2.48.56,2.55,2.33q.33,8.57.82,17.11c.14,2.54-1,3.64-3.49,3.66-4.26,0-8.51.24-12.77.36-1.49.05-2.79-.21-2.86-2.08-.24-6.15-.44-12.31-.72-18.46-.08-1.91.79-2.62,2.6-2.58,2.36.05,4.71,0,7.07,0Z"/><path class="cls-1" d="M177.21,378.67c0-3,0-6,0-9,0-1.63.75-2.28,2.31-2.31,4.71-.09,9.42-.19,14.13-.35,1.67-.05,2.5.54,2.57,2.32.21,5.71.5,11.41.82,17.11.14,2.53-.93,3.65-3.47,3.67-4.17.05-8.34.19-12.51.38-2.13.1-3.2-.62-3.24-2.9-.05-3-.31-6-.48-9Z"/><path class="cls-23" d="M237.22,141.41a18.35,18.35,0,0,0,5.29,10.05,26,26,0,0,0,17.58,8.28c5.86.35,11.76.07,17.63.07a6.68,6.68,0,0,1-.67,1.23c-3.15,4.11-6.37,8.16-9.47,12.31-.91,1.23-1.73,1.72-3.11.81-6.74-4.41-13.67-8.55-20.18-13.28-4.11-3-6.47-7.64-7.81-12.51-.6-2.17-.1-4.65-.1-7Z"/><path class="cls-23" d="M492.53,165.85c0,.48,0,1,0,1.43l-1.48-.53c1.54,7.88-.24,15.22-2.22,22.53-2.66-.77-5.53-1.14-7.94-2.38-4.77-2.45-9.28-5.39-13.9-8.12.51-.86,1.35-1.68,1.46-2.58.41-3.5,3.11-4.64,5.72-5.85A49.42,49.42,0,0,1,492.53,165.85Z"/><path class="cls-11" d="M457.51,173.9c-1.22-2.73-2.05-5.75-3.75-8.14-6.27-8.85-13.82-16.37-24-20.8a18.91,18.91,0,0,0-2.06-.65,2.18,2.18,0,0,1,.09-.52c2.78-5.49,3.35-5.75,8.86-3,11.88,6,21.11,14.67,26.52,27,.9,2.07,1.18,4.4,1.9,7.2Z"/><path class="cls-4" d="M491.45,190.59l2.41.83,1.39.84,1.31.26,10.14,4.62,4.12,1.89,5,3.16c-.67,3-1.3,6.07-2.05,9.08a7.82,7.82,0,0,1-1.12,1.91l-6-3.79-1.12-.65.05,0-1.72-1.07,0,.05c-1.85-2.59-4.21-4.29-7.52-4.39-2.21-1.29-4.48-2.5-6.62-3.9a8.61,8.61,0,0,1-1.72-2.15l2.41-7.08Z"/><path class="cls-11" d="M605,237.71q-13.12-10.53-26.25-21c-.77-.62-1.6-1.15-2.4-1.72l1-8.64,2.19,2c8.12,7.39,16.21,14.81,24.38,22.13C606.39,232.67,605.24,235.2,605,237.71Z"/><path class="cls-23" d="M190.29,341.08c-.47-2.9-.55-5.6-1.37-8-1.64-4.86-3.69-9.57-5.84-15,4,0,7.65-.11,11.3.1.64,0,1.68,1.33,1.73,2.11.42,5.78.61,11.57.92,17.35.13,2.41-.94,3.55-3.34,3.5C192.34,341.06,191,341.08,190.29,341.08Z"/><path class="cls-12" d="M213,205.79h29.54c-2,2.54-3.91,5-5.93,7.36a3.06,3.06,0,0,1-2,.51c-5.8.08-11.6.07-17.39.18-1.48,0-2.37-.3-2.65-1.94C214.18,210,213.58,208.23,213,205.79Z"/><path class="cls-12" d="M391.84,185.4c-6.17-4.22-13.24-6.21-20.28-8.32-9.38-2.81-18.69-5.82-28-8.89-.87-.28-1.44-1.53-2.15-2.33,9.9,2.59,19.89,4.84,29.66,7.84,10.62,3.27,20.82,8,32.11,8.86v.69Z"/><path class="cls-11" d="M573,210.59c-2.29-2.27-4.56-4.56-6.89-6.8q-8.29-7.92-16.64-15.8a4.54,4.54,0,0,0-1.19-.58c-.2-2.24-.4-4.47-.64-7a18.59,18.59,0,0,1,2.06,1.27c7.14,6.14,14.4,12.17,21.35,18.52C574.05,202.92,573.85,206.82,573,210.59Z"/><path class="cls-24" d="M502.91,212q15.62,9.82,31.21,19.66c1.42.9,2.72,2,4.08,3l-.23.68a7.35,7.35,0,0,1-1.71-.25q-14.46-5.81-28.9-11.65c-.29-.66-.59-1.31-.85-2C505.3,218.27,504.11,215.11,502.91,212Z"/><path class="cls-10" d="M522.49,569.59a16.76,16.76,0,0,0-.24-3.19,145.6,145.6,0,0,1-4.72-45.28,15,15,0,0,1,.46-3.21c.1-.41.82-1,1.07-1a2,2,0,0,1,1.24,1.15,7.89,7.89,0,0,1,.11,2.7c-1.53,15.56,1.37,30.74,4,45.94.31,1.85.39,3.74.58,5.62l-2.51-2.06.55-.59-.56-.15Z"/><path class="cls-12" d="M467,178.78c4.62,2.73,9.13,5.67,13.9,8.12,2.41,1.24,5.28,1.61,7.94,2.38-.44,2.65-.87,5.29-1.31,7.94-3.8-2.37-7.62-4.73-11.4-7.13-1.6-1-2.83-2.63-5.24-1.54-.9.41-2.42-.54-3.52-1.39a25.47,25.47,0,0,0,3.92-.5c.75-.22,1.34-1,2-1.5-.64-.64-1.23-1.76-1.94-1.85-4.19-.55-8.41-.87-12.63-1.24a4.46,4.46,0,0,1-2-.42c1.73-.84,3.45-1.73,5.21-2.5.38-.17,1,.12,1.42.08C464.59,179.11,465.79,178.93,467,178.78Z"/><path class="cls-11" d="M424.92,142.82a93.85,93.85,0,0,0-28-5.63c1.59-3.63,3.38-4.85,7.12-4.28,6.78,1,13.55,2.22,20.31,3.39a24.33,24.33,0,0,1,2.87.87C426.38,139.19,425.65,141,424.92,142.82Z"/><path class="cls-12" d="M392.94,137.3c-10.33-.19-20.67-.4-30.84,2.06.49-3.05,2.11-4.67,5.36-4.93,8.26-.66,16.51-1.56,24.76-2.32a23.26,23.26,0,0,1,3.18.17C394.49,134.15,393.72,135.72,392.94,137.3Z"/><path class="cls-20" d="M156.75,397.94c-1.71-7.1-3.59-14.16-5-21.32a9.64,9.64,0,0,1,1.22-6c4.59-8.28,11.18-14.84,18.52-20.69.12-.1.34-.07.52-.11L171.5,352c-2,2.4-4,4.75-5.93,7.2-2.68,3.43-5.42,6.81-7.84,10.41-3.25,4.84-4.26,10.14-2.23,15.8a13.21,13.21,0,0,0-.08,2.08C155.83,391,156.3,394.47,156.75,397.94Z"/><path class="cls-10" d="M326.8,496.76a36.4,36.4,0,0,1,16.41,5.2c5.69,3.32,10.92,7.42,16.33,11.2a5.23,5.23,0,0,1,1.14,1.16c1,1.26,2.6,2.64,1.09,4.14-.45.46-2.55-.73-3.89-1.16l.3-2-.7-.23-.67,1.69-5.45-2.88,0-1,3.2.63,1.64,1.59c0-.81,0-1,0-1-.51-.25-1-.47-1.55-.7a3.93,3.93,0,0,0-4.37-2.12h0c-.3-.58-.46-1.43-.94-1.7-5.63-3.19-11.33-6.28-17-9.44-1.87-1-3.67-2.2-5.5-3.3Z"/><path class="cls-23" d="M509.36,226.59c3.95,1.27,7.91,2.5,11.82,3.87a2.29,2.29,0,0,1,1.28,1.66c0,2.86,0,5.73-.25,8.59-.17,2.12-.64,4.22-1,6.33a11.8,11.8,0,0,1-1.8-1.88c-2.07-3.4-4.14-6.81-6-10.3C511.92,232.17,510.69,229.35,509.36,226.59Z"/><path class="cls-24" d="M163.6,256.7l4.82.52V282l-4.82-1.27Z"/><path class="cls-25" d="M567.18,255.46l-3.27-2.9c1.72-1.47-.16-1.59-.82-2-5.22-3.18-10.47-6.32-15.72-9.47l1.29-.78q14.18,5.5,28.36,11c1.5.59,3,1.33,4.43,2L577,254.88l-1,.26-2.78.36a29.28,29.28,0,0,0-2.92-.52c-.26,0-.56.46-.83.71Z"/><path class="cls-12" d="M509.36,226.59c1.33,2.76,2.56,5.58,4,8.27,1.91,3.49,4,6.9,6,10.3a11.8,11.8,0,0,0,1.8,1.88c.09.51.17,1,.26,1.51l.69,1.54-1.3.6-15.8-24.41.62-.73Z"/><path class="cls-12" d="M502.91,212c1.2,3.15,2.39,6.31,3.6,9.46.26.66.56,1.31.85,2-2.75.1-4.91-.59-5.53-3.75a8.14,8.14,0,0,0-1.36-2.32l-.84-1.51c-.22-.41-.43-.82-.65-1.22l-2.1-2h0l-1.81-5.89,7.24,4.78.62.55Z"/><path class="cls-25" d="M326.86,496.83c1.83,1.1,3.63,2.26,5.5,3.3,5.65,3.16,11.35,6.25,17,9.44.48.27.64,1.12.94,1.7-2.15-.92-4.34-1.77-6.45-2.76-5.43-2.56-10.83-5.18-16.24-7.77C325.1,499.55,325,499.13,326.86,496.83Z"/><path class="cls-25" d="M156.41,317.7l14.82-14.55c2.7,3.84,2.67,3.79-.58,6.1-3.62,2.55-7.14,5.24-10.74,7.81a25.46,25.46,0,0,1-2.81,1.55Z"/><path class="cls-11" d="M543.74,183.21c-4.06-3-8.21-5.81-12.13-8.94-1.15-.91-1.65-2.62-2.45-4,4.14,2,8.39,3.8,12.39,6C544.13,177.79,543.51,180.75,543.74,183.21Z"/><path class="cls-24" d="M622.15,247.88l-16.75-2.95,2-5.69,14.24,7.7Z"/><path class="cls-25" d="M171.5,352l.51-2.19v0l1-.66c2.28-2,4.51-4,6.86-5.93a61.51,61.51,0,0,1,8.23-5.61c-.36,1.14-.35,2.74-1.13,3.36-4.8,3.8-9.77,7.4-14.71,11C172.13,352.2,171.77,352.05,171.5,352Z"/><path class="cls-25" d="M161.27,370.63v20.91C158.88,384.55,154.88,377.56,161.27,370.63Z"/><path class="cls-12" d="M206.48,213.89c-1.87-2.26-3.27-4.67-2.61-7.77,5.45-.35,5.46-.35,6.73,4.85.21.86.35,1.73.59,2.92Z"/><path class="cls-26" d="M487.53,197.22c.44-2.65.87-5.29,1.31-7.94,2-7.31,3.76-14.65,2.22-22.53l1.48.53.75,3.3c0,.91,0,1.83,0,2.74q-1.26,7.89-2.5,15.77l-.33,1.14-2.41,7.08A1,1,0,0,1,487.53,197.22Z"/><path class="cls-12" d="M358,140l-13.67,1.35,2.86-2.27,12.36-3C358.9,137.73,358.45,138.88,358,140Z"/><path class="cls-27" d="M156.75,397.94c-.45-3.47-.92-6.94-1.33-10.42a13.21,13.21,0,0,1,.08-2.08c2.24,7.75,4.43,15.51,4.68,23.62l-.78.18c-.51-2.3-1-4.6-1.54-6.9l-.57-2.29,0,.05-.58-2.22Z"/><path class="cls-27" d="M413.55,390.83l-7-1.67c-.76-.18-1.52-.32-2.29-.48,4.53.05,9.08-.17,13.57.28,2.27.23,4.41,1.69,6.61,2.59l-.27.85Z"/><path class="cls-26" d="M512.67,213.18a7.82,7.82,0,0,0,1.12-1.91c.75-3,1.38-6.05,2.05-9.08l.27-1.57c.35-1.14.7-2.28,1-3.42l1,.09c-.33,2.09-.67,4.18-1,6.26q-1.49,4.9-3,9.81a2.19,2.19,0,0,1-.39.29Z"/><path class="cls-11" d="M586.67,251.32c3.5.67,7,1.29,10.51,2.05,3.11.68,6.19,1.53,9.28,2.31A62.89,62.89,0,0,1,586.67,251.32Z"/><path class="cls-25" d="M263,199.82c1.7-1.14,14-1.38,15.47-.19.45.38.55,1.19.8,1.81-1.36-.54-2.71-1.46-4.09-1.53C271.13,199.7,267.06,199.83,263,199.82Z"/><path class="cls-25" d="M279.56,202.73c.31.47.88.94.89,1.41.06,4.68.05,9.36,0,14,0,.3-.31.61-.47.91Z"/><path class="cls-27" d="M118.61,533.59l8.73,13.67Z"/><path class="cls-26" d="M545.2,207.63l-2.64,11-.95-.24q1.2-5.39,2.38-10.78Z"/><path class="cls-25" d="M548.74,298.31l2.73-6.23c1.18,1.54,2.36,3.31.93,5C551.72,298,550,297.94,548.74,298.31Z"/><path class="cls-25" d="M280.19,234.34c.22.14.63.28.63.42-.07,3.68-.18,7.36-.28,11Q280.36,240.07,280.19,234.34Z"/><path class="cls-27" d="M457.11,175.6c-3.87,1.66-7.9,1.17-11.92.93Z"/><path class="cls-27" d="M539,236.62c2.12-1,7,1.51,8.2,4.49Z"/><path class="cls-27" d="M496.4,203.36c3.31.1,5.67,1.8,7.52,4.39Z"/><path class="cls-27" d="M265.26,205.06c.17,1.85-.53,2.49-2.33,1.72-1.38-.58-2.79-1.11-4.18-1.66Z"/><path class="cls-25" d="M343.75,196.74l5.55-.49,1.88.89-2.49.81-4.91-.52Z"/><path class="cls-25" d="M336.59,198l-5,1.33c.4-1.06.57-1.53.74-2Z"/><path class="cls-26" d="M350.3,511.28a3.93,3.93,0,0,1,4.37,2.12l-.08.08-3.2-.63Z"/><path class="cls-27" d="M307.2,163.58a.25.25,0,0,1,0,.34l-7,.69a.46.46,0,0,1,0-.48Z"/><path class="cls-11" d="M603.2,248.6,602,251.26l-1-.32.5-1.88Z"/><path class="cls-25" d="M296.29,242.31l1.1-1.93,1.64,1.39Z"/><path class="cls-11" d="M568.27,235.41l-2.09,2.84-.11-.09c.39-.91.78-1.82,1.18-2.73Z"/><path class="cls-25" d="M296.11,238.2l-.84-2.85Z"/><path class="cls-11" d="M647.34,247.37l-1.47,2.25C646.16,248.74,645.28,247.1,647.34,247.37Z"/><path class="cls-23" d="M517.85,190.83c-1.05-.83-1.33-1.61.16-2.26C518,189.32,517.9,190.08,517.85,190.83Z"/><path class="cls-23" d="M496.35,165.42l-1.66.23Z"/><path class="cls-23" d="M512.17,165.61l-1.67-.24Z"/><path class="cls-25" d="M280.7,257.23l1.45.59-1.33.58Z"/><path class="cls-10" d="M499.63,215.81l.84,1.51-1.37.26,0-.05.39-1.6Z"/><path class="cls-11" d="M609.82,234.86l-1.52,0C608.59,233.71,608.59,233.71,609.82,234.86Z"/><path class="cls-11" d="M670.72,244.71l-.51-1,1.32-.68.4.46Z"/><path class="cls-25" d="M291.94,222.34l1.09-.54Z"/><path class="cls-11" d="M604.2,247.3c-.32.42-.65.84-1,1.25C603.55,248.14,603.88,247.72,604.2,247.3Z"/><path class="cls-23" d="M518.29,173.87l-.1-1.12C518.22,173.12,518.26,173.5,518.29,173.87Z"/><path class="cls-11" d="M632.58,257.86l1.11.07Z"/><path class="cls-27" d="M548.66,240.31l-1.29.78c-.23-.43-.47-.86-.71-1.28Z"/><path class="cls-25" d="M297.39,190.81l-1.1-.37Z"/><path class="cls-25" d="M306.66,193.51l-1.1-.36Z"/><path class="cls-25" d="M308.83,194.08l-1.1-.34Z"/><path class="cls-25" d="M311,194.58l-1.12-.31Z"/><path class="cls-20" d="M157.29,400.05l.57,2.29Z"/><path class="cls-20" d="M156.73,397.88l.58,2.22Z"/><path class="cls-25" d="M293.45,231.65l-.49-1.08Z"/><path class="cls-25" d="M314.29,195.15l-1.11-.21Z"/><path class="cls-25" d="M291.27,226.74l-.39-1.11Z"/><path class="cls-26" d="M517.47,195.62l.18-1.06,1.14.07-.21,1.05Z"/><path class="cls-25" d="M318.12,195.64l-1.13-.17Z"/><path class="cls-25" d="M323,196.2,321.9,196Z"/><path class="cls-25" d="M300.15,223.39l1.1.29Z"/><path class="cls-25" d="M290.86,224l.52-1.1Z"/><path class="cls-25" d="M307.32,223.7l.48-1.35Z"/><path class="cls-25" d="M294.69,221.79l1.1.34Z"/><path class="cls-25" d="M327.92,196.78l-1.12-.16Z"/><path class="cls-25" d="M330.08,204.06l1.11-.23Z"/><path class="cls-25" d="M326.81,204.54l1.11-.19Z"/><path class="cls-25" d="M322.45,205.08l1.11-.16Z"/><path class="cls-25" d="M317,205.58l1.12-.09Z"/><path class="cls-27" d="M503.9,207.7l1.72,1.07Z"/><path class="cls-11" d="M606.71,255.68l1.86.28Z"/><path class="cls-20" d="M173,349.22l-1,.66Z"/><path class="cls-27" d="M127.83,547.78l.62.91Z"/><path class="cls-27" d="M118.08,532.49c.19.38.37.76.55,1.14Z"/><path class="cls-27" d="M505.57,208.74l1.12.65Z"/><path class="cls-11" d="M655.49,255.05l1.13-.46Z"/><path class="cls-27" d="M117.6,531.42l.5,1.11Z"/><path class="cls-11" d="M653.85,255.6l1.33-.45Z"/><path class="cls-11" d="M585.08,250.75l1.18.45Z"/><path class="cls-11" d="M645.74,257.54l1.12-.25Z"/><path class="cls-11" d="M652.23,256.1l1.31-.41Z"/><path class="cls-11" d="M650.62,256.55l1.17-.34Z"/><path class="cls-20" d="M583.56,250.16l1.06.46Z"/><path class="cls-11" d="M656.62,254.59l1.31-.53Z"/><path class="cls-24" d="M538.7,234.56c.23.41.56.79.49.92s-.54.38-.83.55c-.15-.26-.44-.54-.4-.78S538.36,234.86,538.7,234.56Z"/><path class="cls-11" d="M648.45,257l1.15-.28Z"/><path class="cls-18" d="M482.9,400l-.23.6Z"/><path class="cls-11" d="M568.82,234.46l-.42.43Z"/><path class="cls-11" d="M644.05,254l-.5.33Z"/><path class="cls-11" d="M658.81,253.72l.44-.29Z"/><path class="cls-20" d="M517.65,215.82l.46.31Z"/><path class="cls-20" d="M514.85,214.21l.54.35Z"/><path class="cls-20" d="M513.77,213.65a2.19,2.19,0,0,0,.39-.29l.18.59Z"/><path class="cls-20" d="M582.38,249.65l.6.33Z"/><path class="cls-27" d="M127.32,547.23l.57.6Z"/><path class="cls-24" d="M502.93,212l-.62-.55Z"/><path class="cls-28" d="M233.33,562a2.22,2.22,0,0,1,.16.36s-.11.1-.16.16a1.47,1.47,0,0,1-.15-.34S233.27,562,233.33,562Z"/><path class="cls-13" d="M522.46,569.56l.56.15-.55.59Z"/><path class="cls-13" d="M530.06,576.19l-.52-.49.86.12A3.92,3.92,0,0,1,530.06,576.19Z"/><path class="cls-28" d="M693.69,182.08l-.69,1.06-.39-.39,1-.78Z"/><path class="cls-28" d="M693.59,182l.26-.37c-.05.16-.11.32-.16.48Z"/><path class="cls-19" d="M3.81,240.71V202.87H35.27v37.84Z"/><path class="cls-1" d="M366,5.07l31.87-1c.32,9,.64,18,1,27.32l-31.62,1.18C366.81,23.34,366.4,14.3,366,5.07Z"/><path class="cls-19" d="M87.18,51.81V79.05H56c-.29-8.77-.58-17.77-.88-27.24Z"/><path class="cls-19" d="M211.11,116.11l-28.6,1.2c-.61-8.12-1.22-16.18-1.86-24.72l29.29-1.54C210.33,99.4,210.71,107.58,211.11,116.11Z"/><path class="cls-10" d="M551.53,491.35c.34-1,.41-2.4,1.09-2.8,5-2.92,10-5.64,15.13-8.35.47-.25,1.24.05,1.87.09-1.89,1.31-3.77,2.65-5.68,3.92-3.24,2.16-6.48,4.31-9.78,6.37A10.15,10.15,0,0,1,551.53,491.35Z"/><path class="cls-8" d="M491.07,324.23l-.55,1.73-.67.21c-1-2-2-4-3.24-6.4-1.4,1.1-2.83,2.14-4.16,3.27-6.77,5.78-13.41,11.7-20.3,17.33-8.64,7.07-18.48,12.21-29.52,13.7-13.85,1.87-27.56.51-40.1-6.56-7-3.95-12-9.81-15.81-16.85a334.21,334.21,0,0,1-21.2-47.32c-.2-.58-.47-1.14-1-2.46-1.16,2.38-1.94,4.31-3,6.06-.51.82-1.6,1.28-2.43,1.91a13.91,13.91,0,0,1-.52-2.86c.16-5.59,4.57-7.62,8.55-9.92,1.23-.7,2.43-.48,2.69,1.29a2.23,2.23,0,0,0,.35.86c4.34,6.25,8.63,12.52,13,18.72,2.47,3.47,5.14,6.8,7.72,10.2,4.7,6.21,11.21,8.35,18.68,8.09a77.67,77.67,0,0,0,10.58-.85c9.36-1.62,18.2,1,27.15,2.88,1.5.31,3,.45,4.54.67.43.55.8,1.49,1.32,1.59,2.8.51,5.69,1.37,8.45,1.09,7.65-.76,15.24-2.05,22.86-3.08,2.82-.39,5.65-.66,8.59-1-1.1-2.07-4.46-2.2-3.82-5.25l.65-.24c1.66.85,3.31,2.39,5,2.41,3.89.05,4.74,2.71,5.53,5.46A33.24,33.24,0,0,1,491.07,324.23Zm-45.48,21.25.69-.39,0,0c3.34-1.72,6.71-3.41,10-5.19a3.26,3.26,0,0,0,1.42-1.54c1.93-5.11,3.78-10.25,5.77-15.7l-3.55.78c-6.77,1-13.6,3-20-1.35-2,9.24-3.89,18.11-5.95,27.71L444.49,346l1.13-.52Zm-8.39-24.06c-11.8-5.29-23.56-4.92-34.71-2.48-.55,9-1.11,17.62-1.52,26.3a2.87,2.87,0,0,0,1.43,2.28c9.1,3.09,18.47,3.59,28,2.59,1.57-.16,2-.9,2.24-2.42.91-6.37,2-12.72,3-19.07C436.05,326.22,436.67,323.85,437.2,321.42Zm-38.73,24.7V319c-7.81-.06-15-1.71-20.2-8.38-.91,8.37-.56,15.7,4.44,22.37C386.89,338.52,391.62,343.14,398.47,346.12Zm-28.13-45c-2.59,7.32,2.21,12.24,5.21,17.72C374.06,312.88,376.22,305.87,370.34,301.1Z"/><path class="cls-9" d="M454.48,270.67h9.66c-5.82-6.65-9.9-13.52-12.06-21.38l.77-.42,2,3.82a.6.6,0,0,0,.25.22.22.22,0,0,0,0,.38l2.55,4.49.63,1,0,0,.47.65,0,0a74.87,74.87,0,0,0,5.14,7.27,29.7,29.7,0,0,0,6,5c2.71,1.75,5.67,3.12,8.53,4.65l0,0,.52.6,0,0,.5.7c.13.24.25.48.39.72,6.15,10.21,1.87,17.56-6.54,23.75-.71.52-1.43,1-2.15,1.54l-1.53-.76a67.12,67.12,0,0,0,5.57-6.27c6.08-8.78,2.09-20.37-7.78-22.5-2.95-.63-6.1-.37-9.15-.52-5.8.32-11.6.57-17.39,1-14.3,1-27.35-2.35-38.89-11.05-2.39-1.8-4.8-3.59-7.32-5.2-5.49-3.5-11.08-2.89-16.5.16-4.92,2.77-6.13,7.51-6.38,12.74-.45,9.45,3.62,17.22,8.95,24.54,2.35,3.23,4.76,6.41,7.1,9.65a12,12,0,0,1,1.64,2.81,6.92,6.92,0,0,1,.05,2.28c-.79-.25-1.86-.25-2.33-.78-6.62-7.49-13-15.18-17.08-24.44a29.74,29.74,0,0,1-1.7-17.65c1.78-9.41,11.53-15.8,21.55-14.65a14.76,14.76,0,0,0,5.83-.55,45.91,45.91,0,0,0,18.55-10.93,10.3,10.3,0,0,1,1.47-1.05h.8c-2.35,2.6-4.36,5.67-7.13,7.69-3.83,2.78-8.23,4.77-12.26,7C414.06,267.44,433,273.84,454.48,270.67Z"/><path class="cls-17" d="M458.17,273.54c3.05.15,6.2-.11,9.15.52,9.87,2.13,13.86,13.72,7.78,22.5a67.12,67.12,0,0,1-5.57,6.27c-7.28,6.23-16,9.52-24.93,12.56.87-2.2,1.22-4.87,2.7-6.51a70,70,0,0,1,9.2-7.93c3.07-2.38,6.43-4.38,9.51-6.74,6.26-4.81,5.63-12.58-1.2-16.53C462.55,276.38,460.38,274.93,458.17,273.54Z"/><path class="cls-2" d="M387.37,270.26c-.19-1.76-1-3.72-.38-4.63,1.75-2.45,3.71-2.7,6.09-.9a34.62,34.62,0,0,1,7.07,6.64c3.43,4.65,6.42,9.63,9.43,14.57,1.44,2.37,1.07,2.91-1.54,3.55-.31.07-.75.2-.86.43-1.42,2.9-3.53,2.14-5.41.83a108.86,108.86,0,0,1-11.26-8.46c-2-1.8-3.35-4.45-4.55-6.94C384.91,273.15,385.06,270.87,387.37,270.26Z"/><path class="cls-2" d="M462.89,293.38c-6.25,3.4-12.75,6.1-20.08,6.51-3.38.19-3.39-2.79-4.55-4.53-.37-.56.58-2.57,1.45-3.28,5.24-4.29,11-7.9,17.89-8.43,2.94-.23,6,.66,8.94,1.32.66.15,1.06,1.43,1.59,2.19a13,13,0,0,0-2.42.92,19,19,0,0,0-3.58,2.76C461.87,291.12,462.54,292.29,462.89,293.38Z"/><path class="cls-2" d="M456.45,218A14.48,14.48,0,0,1,464,201.67c13.51-6.43,24.25,1.23,27.87,13.05a12.64,12.64,0,0,1,.19,2.84l-.83.56c-1.87-1.89-4.17-3.51-5.52-5.71-5.19-8.42-17.06-9.33-23-1.46-1.79,2.37-3.15,5.05-4.71,7.59Z"/><path class="cls-7" d="M385.16,207.66c4.51-10.06,17-16.54,26.65-12.41a72.81,72.81,0,0,1,9.87,5.05,6.72,6.72,0,0,1,3.28,7,3.84,3.84,0,0,1-1.89,2.42c-.41.2-1.78-.74-2.22-1.47-2.82-4.62-11.63-8.58-17.77-7.31-3.52.72-6.84,2.36-10.25,3.59-.7-1.8-1.5-.63-2.33-.11C388.74,205.52,386.94,206.58,385.16,207.66Z"/><path class="cls-2" d="M475.57,248.46c-1.23,2.82-2.28,6.22-4.1,9.15s-6.16,2.73-8.76,0c-4.69-5-2.81-14.86,3.39-17.79,2.32-1.1,6.39.53,7.8,3.32A37.67,37.67,0,0,1,475.57,248.46Z"/><path class="cls-11" d="M479.22,311.29c-.64,3,2.72,3.18,3.82,5.25-2.94.33-5.77.6-8.59,1-7.62,1-15.21,2.32-22.86,3.08-2.76.28-5.65-.58-8.45-1.09-.52-.1-.89-1-1.32-1.59l1.67-1.21a25.38,25.38,0,0,0,2.9-.46c2.88-.77,5.73-1.61,8.59-2.42a16.81,16.81,0,0,0,4,.41c6-.88,12.06-1.93,18.09-2.9A17,17,0,0,1,479.22,311.29Z"/><path class="cls-8" d="M375.49,236.3c2.55-1.41,5-3.47,7.69-4.08,7.52-1.71,15-1.41,21.63,3.27a6.37,6.37,0,0,1,2,1.75c.51.93,1.13,2.5.72,3a4.33,4.33,0,0,1-3.17,1.16,9,9,0,0,1-3.34-1.08c-8.12-3.51-16.37-6-25.38-3.07Z"/><path class="cls-6" d="M491.07,324.23a33.24,33.24,0,0,0-.69-5.31c-.79-2.75-1.64-5.41-5.53-5.46-1.67,0-3.32-1.56-5-2.41a16.76,16.76,0,0,0,2.27-2.44c1.58-2.59,3.93-3.42,6.72-2.18,4.05,1.8,7.74,7.94,7.46,12.4C496.11,322.09,494.43,323.82,491.07,324.23Z"/><path class="cls-26" d="M386.67,356.07c-8.26-9.94-15.85-20.28-19.66-32.89l.88-.5c3,5.67,5.67,11.51,9,17s7.15,10.5,10.77,15.73Z"/><path class="cls-9" d="M424.93,375.46c-5.75,1.45-11.52,2.09-17.28.15a16.31,16.31,0,0,1-2.95-1.72c.8-.61,1.6-1.71,2.41-1.72,2.13,0,4.27.5,6.42.66,4,.29,8,.48,12.38.73Z"/><path class="cls-26" d="M451,354.18q15-13,30-26.05a7.52,7.52,0,0,1,2.52-.88c-.36.8-.51,1.85-1.12,2.35Q468,341.32,453.61,352.9a12.74,12.74,0,0,1-2.72,1.25Z"/><path class="cls-12" d="M478.39,276.33c-2.86-1.53-5.82-2.9-8.53-4.65a29.7,29.7,0,0,1-6-5,74.87,74.87,0,0,1-5.14-7.27c.26.06.62,0,.75.19,3.89,4.71,9.45,7.19,14.17,10.77C475.61,271.86,476.83,274.32,478.39,276.33Z"/><path class="cls-10" d="M455,313.84c-2.86.81-5.71,1.65-8.59,2.42a25.38,25.38,0,0,1-2.9.46l1.12-1.33c8.88-3,17.64-6.33,24.92-12.56l1.53.76Z"/><path class="cls-10" d="M494.1,252.75l-2.85,2.47,9.42,2.54-.09,1.11c-4,0-7.94.05-11.91-.07-.41,0-1.22-1.15-1.11-1.54.37-1.18.83-2.63,1.75-3.26C490.41,253.25,492,253.24,494.1,252.75Z"/><path class="cls-10" d="M367,229.9a21.69,21.69,0,0,1-11.71-.9c-.72-.26-1.18-1.27-1.76-1.94.87-.17,1.83-.67,2.59-.46C360,227.68,363.89,228.94,367,229.9Z"/><path class="cls-26" d="M385.16,207.66c1.78-1.08,3.58-2.14,5.34-3.25.83-.52,1.63-1.69,2.33.11-1.88,1.75-3.71,3.56-5.67,5.21-.39.33-1.7.31-1.84.05A5.23,5.23,0,0,1,385.16,207.66Z"/><path class="cls-26" d="M419,237.64q2.36-3.72,4.69-7.45l.89.64L419,237.62Z"/><path class="cls-26" d="M416.52,240.39h-.8l3.29-2.74,0,0Z"/><path class="cls-26" d="M426.58,227.28l2.67-2.81,0-.07-2.71,2.84Z"/><path class="cls-26" d="M426.51,227.24l-1.47,3-.64-.43c.73-.85,1.46-1.71,2.18-2.57Z"/><path class="cls-26" d="M450.89,354.15l.17.54-.47.07.38-.57Z"/><path class="cls-12" d="M458.3,258.82l-.63-1Z"/><path class="cls-26" d="M429.25,224.47l1.39-.33-.08,0-1.34.29Z"/><path class="cls-12" d="M479.36,277.58l-.5-.7Z"/><path class="cls-12" d="M478.88,276.91l-.52-.6Z"/><path class="cls-26" d="M430.64,224.14l-.3-.31.32-.19c0,.16-.07.31-.1.47Z"/><path class="cls-12" d="M458.75,259.44l-.47-.65Z"/><path class="cls-17" d="M455.12,253.29a.22.22,0,0,1,0-.38l.22.31Z"/><path class="cls-26" d="M414,546.77l3.87-8.56c.18.76.69,1.63.49,2.27-.72,2.17-1.68,4.26-2.55,6.39l-1.39,1Z"/><path class="cls-26" d="M356.81,516.71l.67-1.69.7.23-.3,2Z"/><path class="cls-2" d="M496.88,212.57l2.1,2-1.38.33Z"/><path class="cls-10" d="M497.6,214.92l1.38-.33c.22.4.43.81.65,1.22l-.15.12-1,.51Z"/><path class="cls-2" d="M498.48,216.44l1-.51c-.14.53-.27,1.07-.4,1.6Z"/><path class="cls-2" d="M517.47,195.62l1.11.06-.47,1.61-1-.09C517.26,196.67,517.37,196.15,517.47,195.62Z"/><path class="cls-11" d="M639,249.77l2.09.69c-.05.22-.09.45-.14.67l-2.28-.37Z"/><path class="cls-11" d="M622.15,247.88l-.56-.94,2.61.59-.14.85Z"/><path class="cls-20" d="M539.41,226.23c.19-.6.38-1.2.58-1.79l.49.11-.36,1.85Z"/><path class="cls-11" d="M619.4,250.88h.8v.22h-.8Z"/><path class="cls-11" d="M566.18,238.25l-.31.66c-.06,0-.19-.14-.18-.16.11-.2.25-.4.38-.59Z"/><path class="cls-9" d="M300.18,164.61l7-.69a193.41,193.41,0,0,1,46.18,9.94c5.73,2,11.3,4.49,16.81,7,2.19,1,4.66,2.14,5.27,5.62-1.57-.18-2.94,0-4.09-.51-5.46-2.2-10.87-4.56-16.3-6.85-.9-.38-1.81-.71-3.57-1.39.94,5.78,1.77,10.91,2.6,16a59.68,59.68,0,0,1-3.14-6.93,31.2,31.2,0,0,1-1.57-8c-.09-1.92-1-2.38-2.42-2.9a158.93,158.93,0,0,0-44.07-9C301.43,166.93,299.48,167.22,300.18,164.61Z"/><path class="cls-23" d="M506.7,197.14l-10.14-4.62Z"/><path class="cls-23" d="M516.11,200.62l-.27,1.57-5-3.16Z"/><path class="cls-23" d="M493.3,173.32c0-.91,0-1.83,0-2.74C494.59,171.49,494.58,172.4,493.3,173.32Z"/><path class="cls-23" d="M490.47,190.23l.33-1.14c.21.5.43,1,.65,1.5Z"/><path class="cls-23" d="M495.25,192.26l-1.39-.84Z"/><path class="cls-12" d="M569.42,255.69c.27-.25.57-.73.83-.71a29.28,29.28,0,0,1,2.92.52C572,257.65,570.68,255.94,569.42,255.69Z"/><path class="cls-12" d="M523.07,250.49l3.76.29Z"/><path class="cls-12" d="M561.23,255.42l2.66.25Z"/><path class="cls-12" d="M545.42,253.8l2.11.26Z"/><path class="cls-12" d="M555.23,254.88l2.12.26Z"/><path class="cls-12" d="M537.79,252.7l1.57.26Z"/><path class="cls-12" d="M541.6,253.26l1.58.24Z"/><path class="cls-12" d="M550.32,254.37l1.58.22Z"/><path class="cls-12" d="M528.51,251l1.59.34Z"/><path class="cls-12" d="M531.79,251.61l1.56.29Z"/><path class="cls-12" d="M535.06,252.22l1,.19Z"/><path class="cls-12" d="M576,255.14l1-.26Z"/><path class="cls-26" d="M354.67,513.4c.52.23,1,.45,1.55.7,0,0,0,.16,0,1l-1.64-1.59Z"/><path class="cls-19" d="M437.2,321.42c-.53,2.43-1.15,4.8-1.56,7.2-1.07,6.35-2.12,12.7-3,19.07-.21,1.52-.67,2.26-2.24,2.42-9.5,1-18.87.5-28-2.59a2.87,2.87,0,0,1-1.43-2.28c.41-8.68,1-17.34,1.52-26.3C413.64,316.5,425.4,316.13,437.2,321.42Z"/><path class="cls-21" d="M398.47,346.12c-6.85-3-11.58-7.6-15.76-13.17-5-6.67-5.35-14-4.44-22.37,5.25,6.67,12.39,8.32,20.2,8.38Z"/><path class="cls-21" d="M444.49,346,434,349.83c2.06-9.6,4-18.47,5.95-27.71,6.38,4.38,13.21,2.32,20,1.35l-13.66,21.65,0,0-.69.39h0Z"/><path class="cls-12" d="M446.24,345.12l13.66-21.65,3.55-.78c-2,5.45-3.84,10.59-5.77,15.7a3.26,3.26,0,0,1-1.42,1.54C453,341.71,449.58,343.4,446.24,345.12Z"/><path class="cls-25" d="M370.34,301.1c5.88,4.77,3.72,11.78,5.21,17.72C372.55,313.34,367.75,308.42,370.34,301.1Z"/><path class="cls-12" d="M444.49,346l1.13-.52Z"/><path class="cls-12" d="M445.59,345.48l.69-.39Z"/></g></g></svg>