<svg xmlns="http://www.w3.org/2000/svg" viewBox="0 0 957.69 859.62"><style><![CDATA[.X{fill:#242149}.Y{fill:#7c73f8}.Z{fill:#080710}.a{fill:#776ff0}.b{fill:#0b0a16}.c{fill:#7d74f9}.d{fill:#f7f7f7}.e{fill:#7a71f7}.f{fill:#131313}.g{fill:#7e75fa}.h{fill:#fcfcfc}.i{fill:#050506}.j{fill:#fdfdfd}.k{fill:#7b72fa}.l{fill:#7c73fb}.m{fill:#f9f9fb}.n{fill:#7c73fa}]]></style><path d="M364.9 412.2c-2.6-2.4-5.32-4.66-7.77-7.2-22.4-23-25.54-56.1-1.06-80.48A37.67 37.67 0 0 1 377 314.08c9.4-1.5 18.88-2.55 28.36-3.35 7.27-.6 14 1.62 20.15 5.55 4.76 3.05 9.72 5.94 13.4 10.33a54.93 54.93 0 0 1 5.95 8.71 9.26 9.26 0 0 0 6.7 4.95c11.66 2.7 23.33 5.5 34.77 9 12.66 3.87 25.07 8.54 37.3 12.76 1.88-2.47 3.57-5.4 5.95-7.6s5.43-3.58 8.43-5.48c-.45-.4-1-.93-1.55-1.4-15.1-12.06-25.6-27.1-30.1-46.1a4.73 4.73 0 0 0-2.23-2.59c-18.17-10.25-31.33-24.6-36.83-45.13a31.4 31.4 0 0 1-.93-8.09c0-12.07 8.32-19.4 20.35-18.22a41.36 41.36 0 0 1 15.47 4.91l2.45 1.33 2.13-11.56A85 85 0 0 1 526.78 179a39 39 0 0 1 8.16-7.13 96.24 96.24 0 0 1 64.45-15.13 115.88 115.88 0 0 1 16.1 2.59 53.79 53.79 0 0 1 13.59 5.37c11.08 6.5 20.62 14.85 27.75 25.7 3 4.63 6.16 9.2 9.3 13.9 6-5.27 12-4 17.9 0a34.05 34.05 0 0 1 6.07 5 3.55 3.55 0 0 0 4.19 1.24 24.28 24.28 0 0 1 13.7-.28 11.49 11.49 0 0 1 7.85 7c1.1 2.7 2 5.44 3.07 8.16a36.53 36.53 0 0 0 1.52 3.79c3 5.8 4.84 6.67 11.25 5.9l30.56-3.47c16.15-1.4 32.1.82 48 3.48 14.6 2.44 29.13 5.34 43 10.7C884.87 258 911 277.22 929 306.5c8.3 13.5 13.28 28.43 17.85 43.5 6 19.8 10.66 39.9 10.8 60.7a319.53 319.53 0 0 1-1.86 33.44c-2.05 20.83-5.62 41.4-11.78 61.46a217.46 217.46 0 0 1-43.49 78.59 470.51 470.51 0 0 1-44.3 45.45c-3.06 2.7-5.77 5.82-8.88 8.46-14.6 12.38-21.85 46.83-9.25 66.17 1.55 2.37 3.53 5.1 2 8.1-2.37 4.7-3.76 10.25-9.5 12.4a26.7 26.7 0 0 1-19.94-.27 45.75 45.75 0 0 1-16.47-11.37 104.23 104.23 0 0 1-22.84-37.39 11.06 11.06 0 0 0-.55-1.06l-5.6 1.42c2.8 13.45 6.7 26.36 13.7 38.07 4.88 8.18 10.35 16 15.38 24.1a17.7 17.7 0 0 1 2.19 6.06c.37 1.94-.9 3.07-2.92 3a5.75 5.75 0 0 1-2.08-.59c-16.57-7.75-31.1-18.27-42.54-32.75-1.95-2.47-3.6-5.2-5.7-8.22-.84 4.52-1.6 8.57-.54 12.8l19.3 77.18c2.87 12.26 4.4 24.84 6.47 37.3.36 2.13.52 4.3.75 6.45.3 2.76-.9 4.43-3.33 5.9-11.33 6.87-23.84 10.27-36.68 12.4-25.6 4.26-50.35 1.15-73.7-10.44-7-3.48-13-8.45-14.9-16.76a6.81 6.81 0 0 0-.5-1.25c-8.78 1-17.4 2.55-26.07 2.92a72.45 72.45 0 0 1-36.62-7.86 24 24 0 0 1-13.14-16.73c-3.46-14.8-4.6-29.77-4.66-44.9-.1-27.3.62-54.53 4.3-81.62l3.4-24.12-6 1c-4.78.72-8.93-.7-13.25-2.87-10.94-5.46-18.72-14.9-28.5-21.8s-19.25-14.3-29-21.34c-5.57-4-11.35-7.8-17.18-11.76-1.43 1.92-2.48 3.5-3.7 4.94-6.07 7.16-12.67 13.78-22.35 15.52a38.91 38.91 0 0 1-21.91-2.24c-9.58-3.9-19.33-7.37-29.1-10.78A137.45 137.45 0 0 1 365.1 592c-9-6-18.24-11.58-27.33-17.42-13.1-8.42-20.88-20.5-23.48-35.76-1.77-10.38-2.9-20.87-4.38-31.3-2.73-19.37-10-37.1-19.76-53.9-.7-1.22-1.65-2.3-2.8-3.94a25 25 0 0 0-1.89 4l-8.64 35.43c-2.16 9.7-2.52 19.62-2.3 29.56.4 16.92.22 33.84-3.27 50.5-5.48 26.23-16.4 49.88-35.16 69.28a53.35 53.35 0 0 1-31.43 16.18 15.42 15.42 0 0 1-7.68-.87l-37.8-16.2c-6.26-2.84-12.15-6.5-18.2-9.8-5.77-3.17-8.7-8.25-9.95-14.56l-4.88-23.46a41 41 0 0 0-1.78-4.82c-4.68 11.38-7.63 22.45-8.44 34.08s-1.17 23.45-2.87 35c-2.3 15.6-10.7 27.55-24.5 35.52a23.24 23.24 0 0 1-18.93 2c-2.13-.63-4-2.3-5.88-3.6s-3.8-3.13-5.85-4.45c-17.85-11.5-33.16-26-47.85-41.13-3-3.07-6.08-6-9-9.15-.66-.7-.7-2.08-1.06-3.18a12.13 12.13 0 0 1 3.36.61c6.23 3.13 12.17 7 18.68 9.36 4.13 1.5 9.12 1.3 13.63.85 4.32-.42 7.5-3.34 9.43-7.44a36.78 36.78 0 0 0 3.29-16.14c0-11-1.82-21.7-3.7-32.44a65.65 65.65 0 0 1 1.43-29.73c6.78-23.65 26.18-35.2 50.15-29.76 18.3 4.15 34.76 12.55 50.1 23.2l14 9.9a4.75 4.75 0 0 0 5.74.34 19.37 19.37 0 0 0 8.63-9.83 64.93 64.93 0 0 0 5.08-31.17c-1.55-21.86-1.17-43.58 3.56-65.1 3.6-16.35 10.66-30.76 22.53-42.8 11.17-11.32 24.85-16.5 40.26-19.24 15.07-2.67 28.78 1.62 42.76 5.4 19.32 5.23 38 12.34 56.45 20 11 4.56 20.2 12.1 28.36 20.8l4.1 4.37c.1.12.32.15.72.33a43 43 0 0 0 4.75-16.24q.4-8.83.77-17.7l.83-10.23A64.28 64.28 0 0 1 368.25 386v.06l-.6-.6.06.05-.27-2.74c1.87-1.55 3.25 0 4.6.87q5.3 3.6 10.46 7.38c1.85 1.36 3.5 1.47 5.28-.08-6.74-6-8.83-12.53-5.44-18.76a18.29 18.29 0 0 1 6-6c4-2.65 8.55-2.42 13.4-.5-2.3-8.23-4.6-16.1 3.87-21.76 6.8-4.52 13.16-3.6 19.2 2.2.26-8-3.9-16.3 3.86-22.56-5.4-4.15-11-7.58-17.73-8.2-10.7-1-21.17.85-31.6 3a33.4 33.4 0 0 0-19.9 9.19c-22.56 22.22-20.47 52.57.67 74.5 2.57 2.67 5.63 4.86 8.46 7.28l4.4 3.85-.46 1.1a13.32 13.32 0 0 1-3.13.18 17.33 17.33 0 0 1-3.22-1.23l-.63-.52zm396.26-77.9a37.18 37.18 0 0 0 .56 1.09l.54 1.63.57 1.08 1.06 2.2.35.72.32-.17-.42-.76-1-2.24-.57-1.08-.58-1.6-.56-1.07-.55-1.08-.3-.72-.33.16.4.74c.14.24.35.74.5 1.1zM776 720.84l.1.06-.6-1.13a4.73 4.73 0 0 0-.3-1c-7-13.08-12.56-26.67-14.3-41.8l-7.8 1.78c-1 .1-2 .26-3 .3-2.1.1-3 .93-3.24 3.27a68.88 68.88 0 0 1-2 11.76 10.39 10.39 0 0 0 1.08 8 45.91 45.91 0 0 0 3.56 5.69c9.73 13.24 22.26 23.2 36.54 31.1a9.13 9.13 0 0 0 2 .56l.16.3v-.16a.88.88 0 0 0-.22-.1l-11.22-18zm-244.7-540.4l-.73 1-.5.62c-.23.1-.54.17-.68.35-6.3 7.92-12.48 16.06-15 26-2.65 10.55-4.75 21.26-6.48 32-1.1 6.82-1.07 13.82-1.6 21.36l8.35-6.4c10.34-5.9 21.34-7.3 33.26-6.37l-1.64-2.9a72 72 0 0 1-8.38-20.86c-1.82-7.94-.4-15.58 2.4-22.82 2.17-5.58 7-9.16 12.7-11.25a31.49 31.49 0 0 1 20.08-.7c26.65 7.86 43.66 25.67 51.9 51.9 1.46 4.68.9 10 1.27 15l-.15 1.46-2.7 10.57a51 51 0 0 1 7.45.77c1.1.27 2.7 1.65 2.74 2.6.1 1.88-1.7 1.9-3.24 1.85-2.4-.06-4.78 0-7.67 0 6.66 12.84 5.22 25.9 5.58 38.74.38 13.56-4.46 25.36-12.1 36.22-1.22-.17-2.9.1-3.58-.6a44.6 44.6 0 0 1-5.61-6.94c-3.78-5.75-4.66-12.54-6.45-19l-.57-2.18-.77.05a5.4 5.4 0 0 0-.14 1.81l6.9 24.78c2 6.9 9.38 11 16.15 8.46a30.71 30.71 0 0 0 18.25-18.6 14.24 14.24 0 0 0 1.53-3.11l4.92-23.56c.26-1.3.6-2.57.88-3.86l1.08.13v13.65l.7.14c.4-1 .8-1.9 1.18-2.84a10 10 0 0 0 1-1.49l9.22-19.62c1.43-3.2 2.42-6.6 3.6-9.9a2.18 2.18 0 0 0 .32-.43c7.15-18.56 12.3-37.46 9.6-57.65-.28-2-.54-4.3-1.57-6-6.48-10.7-12.85-21.5-19.9-31.82-7.52-11-17.87-19.06-30-24.58-8.1-3.7-17-4.4-25.73-5.3a91.38 91.38 0 0 0-59.34 13.62 54.65 54.65 0 0 0-6 5zm57.7 178.2l-.46.57a19.05 19.05 0 0 1-2.38 3.19c-3.55 3.14-7.88 3-12.07 2.14-5.42-1.15-10.74-2.8-16.1-4.26v.06l-1.16-.6c-3.53-1.82-7.25-3.35-10.53-5.54-3.64-2.45-6.62-1.34-9.73.67a6.49 6.49 0 0 1-1.57 1c-4.27 1.18-5.65 4.58-6.73 8.4a64.63 64.63 0 0 1 6.46 3.15c3.9 2.45 8.22 4.6 11.32 7.84a94.69 94.69 0 0 1 11.4 15.2c2 3.22 2.8 7.2 4.14 10.84.18.47.34 1.32.6 1.35 2.92.4 5.6 3.3 8.9.9a13.62 13.62 0 0 1 3.59-10.21c5.92-5.48 11.34-6.1 18.32-2.1a25.17 25.17 0 0 1 11.3 13.5c1.3 3.48 2.4 7 3.75 10.5a3 3 0 0 0 1.9 1.62l39.62 6.92 1.52.4h.1l3.3 1 14 6.38 5.74 4.87-.5.68-3.42-.65a90.39 90.39 0 0 0-24.41-9l-33.67-6.3c-3.53-.65-5 .7-4.55 4.35a63.6 63.6 0 0 1-1.3 23l-3 1.9a30.2 30.2 0 0 1-1.49-3.47 7.26 7.26 0 0 1 .11-2.16c.36-8 1.1-16.1 1-24.15a34.2 34.2 0 0 0-8.39-22.67c-3.66-4.16-8.22-5.2-13.3-4-4.68 1.06-6.13 4.93-6.95 9.13-.7 3.5-.7 3.5 3.42 3.86a10 10 0 0 1-.56-2.76 4.43 4.43 0 0 1 .95-2.82 2.68 2.68 0 0 1 2.64.12 30.2 30.2 0 0 1 5.45 5.92c1.52 2.43 2.33 5.3 3.45 8l.43 1.22c0 .8 0 1.62.13 2.4 1.38 8.9 1.6 17.9-.58 26.55-3.52 13.9-7.7 27.64-12 41.3-1.44 4.52-4.53 8.48-6.45 12.88a11.59 11.59 0 0 1-5.34 5.56c-.12.07-.14.3-.2.47.3 1.05.5 2.12.87 3.14 2.6 7.38 4.15 7.05 9.8 4.28 3.83-1.87 7.6-3.92 11.5-5.6a8.59 8.59 0 0 1 5.25-.73c7.23 2 14.4 4.4 21.54 6.76 8.26 2.72 16.32 6.32 24.77 8.13 12.5 2.67 25.26 4.06 37.9 6.1l18.78 3.28a5.1 5.1 0 0 0 3.75-.69c4.42-3.9 8.62-8 12.9-12.1 9.67-8.67 17-19.1 22.87-30.6 5.5-10.85 10.55-21.93 15.94-32.84a186.14 186.14 0 0 0 17.67-55.58c1.14-7.75 3.5-15.5-.43-23.14a6.16 6.16 0 0 1-.36-1.59c-.83-4.1-1.17-8.37-2.6-12.24-3.37-9.1-7.14-18-11-27-7.27-17-17.9-31.65-30.5-45.14a111.17 111.17 0 0 1-15.09-20.7c-2.83-5-3.82-11.08-5.16-16.8-2-8.64-3.6-17.4-5.5-26.07a24.75 24.75 0 0 0-2.15-4.74c.95 8.78 2.48 17.37-2.3 26.2l-3.15-23.2a22.76 22.76 0 0 0-4.86-12c-3-3.6-6.95-6.6-11.9-7.13-2-.2-4.18.8-6.66 1.33l3 5.68c3.14-1.06 4-.53 5.22 2.6 4.84 12.1 4.7 24.75 3.53 37.35-1.6 17.22-8.17 33.1-15.06 48.7-4.72 10.68-10.8 20.76-16.27 31.1l-4.8 7.43c-1.2 1.94-.6 3.36 1.4 4.3 1.23-.1 2.7.2 3.63-.37 2.88-1.82 5.9-3.65 8.2-6.1 2.63-2.8 4.56-6.28 6.77-9.5 1.34-1.92 2.58-3.92 4-5.8.55-.75 1.5-1.63 1.3.42-.14.4-.3.8-.42 1.23-3.05 11.12-7.62 21.06-19.58 25.27-3.32.24-6.33-.3-8.12-3.52-1.94 2.26-3.62 4.53-5.63 6.44a77.35 77.35 0 0 1-6.8 5.39c-7.6 5.7-22 3.53-24.77-9.5-1.6-7.35-3.58-14.6-5.42-21.9-.27-1.08-.73-2.1-1.23-3.55l-12.36 6.9c-.52 1.12-1.46 2.23-1.5 3.37a31.09 31.09 0 0 0 5.18 18.23c1.52 2.33 2.22 4.72 1.18 7.42zm48.46 460.9l-2.58-12.12c-6.78 2-12.45 4.9-15.22 11.54l-3.45 8.44 22.6-3.18-1.36-4.68zm-42.65-9.37c-.43 3.48-1.08 6.94-1.24 10.44-.2 4.47-.06 4.57 4.46 5.3 4.15.67 8.33 1.1 13.17 1.72l-3-11.23a77.28 77.28 0 0 0-3.39-7.92c-1.23-2.2-2.5-5.44-5.42-5-3.13.53-3.84 3.88-4.58 6.7zm-71.23-386.3c4.62-1.4 5.44-5.6 6.2-9.33.64-3.1-2.06-5.08-4.46-6.76l-7-6.28-10.35 20.66a41.47 41.47 0 0 0 6.08 1.49c3.16.26 6.36.17 9.53.22zM707.33 852.9l-.6-1.08-.2-1.1-.26-1.1-.3-2.17-.25-1.1-.3-2.17c-1.3-4.48-2.07-9.24-4.07-13.4-2.68-5.55-9.3-6.9-13.2-3.12-3.57 3.46-4.7 8.13-5.15 13l-.44 1.38-.3 2.16-.2 1.1-.27 4.36.43 1.85 1.73.3 1.1.27 2.16.32 1.1.26 2.16.28 1.12.22 2.7.3 1.65.28 3.8.3 2.2.28 5.44.16c13.15 1 25.7-2.06 38.17-5.62-4.34-.5-5.06-1-8.14-5.82-1.27-3-2.24-6.14-3.88-8.92-2.85-4.84-7.7-5.47-11.92-1.77a25.76 25.76 0 0 0-7.56 12.29c-.62 2-1.3 3.9-1.84 5.88-.82 3-2 3.6-4.87 2.37zm-35.46-17.37c-2.1-3.87-3.87-8-6.4-11.53-2.8-3.94-5.73-3.75-9.24-.17-3.93 3-5.07 6.95-4.84 11.72a6.17 6.17 0 0 0 3.79 5.87l14.77 6.87a64.65 64.65 0 0 0 6.9 2.12l-4.97-14.88zM472.2 238.2a11.31 11.31 0 0 0-.85 1.66c-2.07 6.13-.9 12.08 1.35 17.83 6 15.27 16.44 26.8 30.26 35.4a20.84 20.84 0 0 0 1.91.86l-1.85-12.62c-.24-6-.8-11.95-.64-17.9.2-7.87 1-15.73 1.5-23.6.06-.88 0-2.37-.5-2.6-7.17-3.57-14.5-6.87-22.83-5.28a10.82 10.82 0 0 0-8.34 6.26zm315.07 431.4l-11.9 3.93a7.33 7.33 0 0 0 .28 2.5c6.26 11.37 12.36 22.84 21.42 32.37 4.36 4.6 9.1 8.73 15.1 10.9 3.23 1.18 6.83 1.35 10.27 2 4.46 0 8.16-1.13 10.7-5.4 2.2-3.67 2.45-6.68.08-10.45-2.1-3.32-3.2-7.28-4.76-10.94a13.21 13.21 0 0 0-1.68-3.36c-5.27-6.24-8.22-13.66-10.83-21.23-1.6-4.64-2.58-9.47-1.57-14.45a10.14 10.14 0 0 1 1.6 2.16l5.28 13.85 4.27 9.78.7-.2c0-.67.13-1.34.16-2 .9-19 6.86-35.75 21.7-48.54 2.7-2.3 5.22-4.8 7.77-7.25 7-6.75 14.2-13.3 20.9-20.34 15.7-16.45 31.12-33.18 42.4-53.15 4.85-8.58 9.1-17.52 13.74-26.56l-4.9-2.66-13.8-7.68c-.8-.47-1.1-1.8-1.62-2.72 1-.16 2.3-.77 3.1-.4a58 58 0 0 1 7.77 4.45c3.2 2.18 6.22 4.62 9.28 6.92.32-.3.5-.4.57-.53l1.8-4.57c7.1-19.1 11.26-38.93 13.57-59.1a450.16 450.16 0 0 0 3.39-45.34c.28-21.54-4.88-42.34-11.22-62.8-4.64-15-9.93-29.66-18.65-42.83-18.78-28.37-45.24-46.55-77.06-57.27-19.28-6.5-39.32-9.63-59.52-11.42-8.28-.73-16.67-.15-25-.17l-32.92 3.63a17.43 17.43 0 0 0 1 2.47l18.75 29.7 31.12 44.73c3.48 5.1 6.32 10.63 9.36 16 1.62 2.87 3 5.86 4.6 8.9.7-.34 1.27-.58 1.82-.87l23.82-12.55c5.2-2.68 10.48-5.2 15.73-7.8l3.07-1.2.45 1.3-1.4.7-13.82 7.17q-13.4 7-26.8 14a18.55 18.55 0 0 0-1.92 1.35l3.46 8c9.17 22.1 17.9 44.38 21.78 68.1 2.28 13.87 3.52 27.9 4.82 41.92a345 345 0 0 1 .3 59.61l-4.6 54.56c-1.6 20.45-3.33 40.86-7.1 61.05-.3-5.43-1.13-10.9-.78-16.3l5.22-71.44c1-13.4 2.32-26.8 2.9-40.2 1-24-.53-47.92-3.12-71.78-2.47-22.73-8.62-44.5-17-65.7q-2.65-6.75-5.3-13.5c-4.28-9.12-7.7-18.78-13-27.23-11.28-17.9-23.35-35.3-35.5-52.62-8.07-11.47-15.68-23.15-21.7-35.85-.94-2-2.55-3.67-3.73-5.56-2-3.2-4.1-6.36-5.8-9.73-1.48-2.9-2.33-6.14-3.74-9.1-.5-1.06-1.83-1.72-2.78-2.56-.77-.47-1.5-1.3-2.3-1.35-3.14-.16-6.28-.06-10.1-.06.72 1.34 1.17 2.32 1.74 3.22 1.67 2.66 4 5.1 5 8 1.83 5.3 2.93 10.84 4.26 16.3l5.45 22.45a8.57 8.57 0 0 0 2.22 3.29c1.23 1.3 2.78 2.28 4 3.58 2.3 2.45 4.48 5 6.65 7.57 9.8 11.6 20 22.9 29.22 34.88 10.2 13.22 17.47 28.07 20.32 44.74a46 46 0 0 0 3.77 11.79 107.41 107.41 0 0 1 7.19 21.34 183.14 183.14 0 0 1 3.65 25c1.32 15.38 2.83 30.8 3 46.2.16 19.88-.8 39.8-1.6 59.67l-3.08 58.8c-.5 8.27-.42 16.26 4.24 23.66a15.59 15.59 0 0 1 1.81 11.64c-1.6 7.24 1.08 12.33 7.28 15.9a3.67 3.67 0 0 0 .5.17l11 6.22c2.35 2 4.32 4.2 3.47 7.53a33.09 33.09 0 0 1-2.22 5.1 36.57 36.57 0 0 1-12.84 11.16c-4.28 2.28-8.74 4.3-13.14 6.43zm-218.7-175.37a28.24 28.24 0 0 0 2.4-4.54l13.1-42.65c2.5-9.08 2.26-18.48.8-27.86-.64-4.18-3-5.92-6.55-6.9-2.18-.6-4.4-1.06-6.6-1.6l-40.67-10.1c-2.66-.64-5.5-.5-8.28-.73 5.28 4.27 11 7.87 10.48 15.44-.5 7.15-4 12.3-11.8 13.52 7.38 11.05 7.67 13.46 2.57 19.73l-8.78 2.8c1.26 1.8 2.83 3.67 4 5.76 5.2 9.13 2.9 14.8-7.3 17.32-3.28.8-6.8.67-10.53 1l18.76 7.67c14.32 6.3 29.23 10.8 44.2 15.15 1.5.44 2.43.16 3-1.3l1.2-2.7zM618 268.78c4.75-6 5.35-13 3.86-19.95-5.9-27.3-22.74-45-49-53.92a30.56 30.56 0 0 0-15.89-.82 20.19 20.19 0 0 0-15.52 13.42c-2.47 6.85-1.38 14.37 1.2 21.4a29.81 29.81 0 0 0 .87 3.11 74.92 74.92 0 0 0 27.06 34.38c8.25 5.9 17.24 10.1 27.54 10.7 7.87.47 14.76-1.88 19.87-8.32zm-14.35 12.44c-4.67-.44-9.47-.35-14-1.44-14.93-3.6-26.62-12.4-36.43-23.9-1.4-1.66-2.85-2.66-5-2.6-4.7.15-9.45 0-14.1.53-7 .86-13.63 2.95-19.2 7.6-1.07.83-2.23 1.57-3.2 2.5-3.4 3.2-5.46 6.78-4.66 11.8.93 5.82 1.15 11.75 2 17.58 5.2 34.75 32.65 60.74 64.74 67.37a20.85 20.85 0 0 0 7.79.21c3.77-.68 5.1-4.26 3.06-7.42a36.41 36.41 0 0 1-5.79-19.85c-.05-3.42 1-6 3.8-7.9 1.37-.9 2.8-1.67 4.2-2.52 5.18-3.17 10.6-6 15.46-9.64a26.52 26.52 0 0 0 7.94-8.75 143.1 143.1 0 0 0 7.37-19c1-2.9 1.1-6.1-.67-8.32zM794 660.47l1.7-.64c5.2-2.52 9.86-5.75 13.14-10.65 2.22-3.3 1.9-4.16-1.55-6.1-5.05-2.85-10.13-5.68-15-8.83a15.53 15.53 0 0 1-7.49-13.78 26.56 26.56 0 0 0-3.74-14 32.87 32.87 0 0 1-4.24-16.71l.26-21c.34-9.53.3-19.13 1.5-28.56 2.52-19.54 2.73-39.12 2.73-58.75 0-8.8-.1-17.63.27-26.43a217.68 217.68 0 0 0-6.12-59.43 25.07 25.07 0 0 0-.88-2.39l-.73 4.26c-2.78 17.17-6.55 34-14.06 49.9l-13 28.52c-8 18.3-18.23 35.14-33.07 48.83-3.07 2.83-6.26 5.55-9.14 8.56s-6 3.66-9.9 3l-31.47-4.94c-17-2.26-33.68-5.4-49.53-12.3-6-2.6-12.25-4.42-18.3-6.83-3.1-1.24-5.75-.67-8.56.74-4.52 2.27-9.14 4.33-13.72 6.48-4.33.67-7.43-1.2-8.72-5.2-1.1-3.48-1.45-7.2-2.18-11.15L557.6 502a8 8 0 0 0-.08 1.26 80.44 80.44 0 0 1-1.62 27.64c-3.4 15-7.4 29.77-11.24 44.62-3.3 12.7-5.86 25.5-6.2 38.65a5.1 5.1 0 0 0 2.17 4.65c3.06 2.28 5.94 4.8 9 7 9.16 6.6 18.62 12.64 29.42 16.3 1.48.5 3.78 1.84 3.76 2.75 0 1.58-1.36 3.32-2.54 4.65s-2.77 2.14-4.7 3.56l25.76 7.28c19.67 5.35 39.8 8.2 59.93 11.17 25.45 3.75 51 6.68 76.77 4 18.14-1.86 35.82-5.8 52.64-13.1a31.15 31.15 0 0 0 3.41-2zm-212-.78l-11.15-4.4c-.54 5.24-.88 10.1-1.56 14.94-5.18 36.73-5.74 73.63-4.1 110.6.3 6.45 1.5 12.87 2.3 19.3a11 11 0 0 0 2-3.19c2.12-4.06 5.7-5.74 9.7-4.44a26.35 26.35 0 0 1 3.84 2q3.8 6.22 7.6 12.45c.45-.9 1-2.1 1.67-3.25 3.65-6.45 9.54-7.24 13.88-1.28 2.88 4 4.6 8.75 6.82 13.2a36.21 36.21 0 0 1 1.23 3.46c3.94-9.3 10.3-14.47 19.53-16.27l-2.08-12.25c-2.4-12.5-5-25-3.92-37.82q1.9-22.8 4.5-45.54c1.3-11.35 3.2-22.63 4.87-34.18l-2.9-.58-29.8-6.32c-7.5-1.83-14.9-4.27-22.44-6.43zM16.36 642.6l-.7-.14.33.55q3.15 3.18 6.28 6.38c13.5 13.88 30 24.1 44.84 36.3a2.35 2.35 0 0 0 .73.35c6.55 2 12.9 2.48 19.14-1.33 12.1-7.38 19.46-18 21.6-31.87a277.88 277.88 0 0 0 2.7-30.1A106.72 106.72 0 0 1 122.47 579c5.94-11.85 15.23-19 28.78-19.78a8 8 0 0 0 1.24-.3c-.08-.3-.07-.55-.18-.64a24.62 24.62 0 0 0-1.68-1.38 163.26 163.26 0 0 0-47-24.86c-8.53-2.8-17.27-4.57-26.25-2.46-3.7.87-7.28 2.33-11.35 3.67l5 4.46-.35.7a35.67 35.67 0 0 1-5.14-1.85 3 3 0 0 0-4.06.66c-5 5-8.9 10.57-10.93 17.34a64.05 64.05 0 0 0-1.29 31.29A177.77 177.77 0 0 1 53.08 618a37.21 37.21 0 0 1-4 17.64 17.27 17.27 0 0 1-12.54 9.56c-6.96 1.42-13.68.1-20.18-2.6zM764 835.87c-1.38-9-2.16-18.06-4.23-26.86l-21.6-88.58a38 38 0 0 1-.64-10.5c.24-5.12 1-10.23 1.47-15.34a7.38 7.38 0 0 1 .29-1l3.26-13.15c-1.37.06-1.9.06-2.43.12-20.25 2.12-40.42.9-60.55-1.5l-25.08-3.26-14.08-2.4c-.18.8-.3 1.14-.33 1.5l-5 41.63c-1.23 11.1-2.3 22.22-3.16 33.36s.64 21.93 3 32.7q4.86 22.75 9.82 45.5a46.14 46.14 0 0 0 1.92 5.47c.37-6 3.1-10.47 7.3-14.22 7.08-4.5 11.52-3.85 16.34 3.16 2.7 3.9 4.48 8.44 6.64 12.7.42.82.7 1.72 1.18 3l3-8.43c2.1-5.1 5.8-8.44 11.4-8.8s9.94 2.3 12.7 6.94c1.78 3 2.66 6.5 3.9 9.8.32.85.5 1.75.72 2.54 2.63-3.68 4.73-7.47 7.62-10.5 7.2-7.56 17-5.76 21.48 3.7 1.3 2.78 2.27 5.72 3.38 8.58.48 2.48 2.23 3.4 4.5 4 5.5 1.45 10-1 14.53-3.47 3.86-2.14 3.97-2.27 2.62-6.7zM205.82 418.7c-.65.38-1.54.6-1.9 1.16-3 4.72-6.4 9.3-8.88 14.3-7 14.1-9.35 29.45-10.27 44.88-.78 13.3-.16 26.68 0 40 .17 10.37-.78 20.5-4.67 30.2-2.5 6.2-6.17 11.3-12.53 14-.3.12-.5.44-.73.67.23.34.36.58.53.8a5.6 5.6 0 0 0 .78.76c8.78 6.8 13.57 15.88 15.6 26.65a4.65 4.65 0 0 0 2.2 2.71l17.6 9.24c1.8 1 3.44 2.24 5.15 3.37l-.44.82-23.26-9.76a49.14 49.14 0 0 1 .73 7.28c-.24 4.8 2.2 7.54 6 9.92s7.28 5.32 10.9 8l-.53.86c-2.56-1.27-5.16-2.45-7.67-3.82s-5-3-8.12-4.85l.05 15.5a22.56 22.56 0 0 0 1 5.62 17 17 0 0 0 21.8 11.62c11.14-3.75 20.9-9.63 28.38-18.95a143.64 143.64 0 0 0 27.05-53.61c4.75-17.8 5.5-36.06 5.05-54.38a165 165 0 0 1 3.67-39.52c3.4-15.5 6.5-30.95 15.54-44.7 8.27-12.58 19.18-20.53 33.5-24.25a12.22 12.22 0 0 0 1.44-.63c-9.8-5.37-55.83-18.82-62-18.14 5.62 3.72 12.54 5.28 17.94 10.73a11 11 0 0 1-2.9-.25l-21.67-10.14a8.35 8.35 0 0 0-3.78-.82c-7.32.47-14.16 2.8-20.94 5.48a61.42 61.42 0 0 0-24 17.38 5.78 5.78 0 0 0-.68 1.9zm183.8-22.86l-.5.92v8l-.07 1.73c0 1.36-.05 2.72-.07 4.1v2.18c.42 11.08-.9 21.78-6.67 31.57-.4.7 0 2.17.44 3l11.08 19a7 7 0 0 0 4 3.6q28.17 10.3 56.17 20.8c2.36.9 4.55 2.22 6.82 3.34l-.3.73L397 472.77l.6 1.9 7.13 21.7a6 6 0 0 0 2.42 2.87c3.52 2.2 7.17 4.16 10.77 6.2h.05l-11.8-2.63c.33 6.66.8 13.62.93 20.6.05 2.44.64 3.66 3.06 4.53l45.5 16.7c2.2.82 4.32 1.93 6.48 2.9l-.42 1.13-54.34-18-.93 23.9c0 .67.95 1.64 1.7 2 3.48 1.76 7.1 3.25 10.55 5.06 2.37 1.24 4.55 2.84 6.8 4.28l-.5 1-19.2-7 .74 15.15c.07 2.24 1 3.24 3.15 4l32.53 12.48a26 26 0 0 1 3.47 2.13 8.91 8.91 0 0 1-2.12.09l-36-12.68a11.54 11.54 0 0 0 .37 2.27c2.28 6.1 4.14 12.42 7 18.25 8.62 17.54 31.63 19.76 44.28 8 7.6-7 12.86-15.5 16.95-24.77 10.32-23.34 14.43-48.23 16.1-73.37 1-15.43-.17-31.06-1.1-46.55-1-17.54-1.8-35 .3-52.52 1.3-10.86 3.87-21.22 9.86-30.58a28.4 28.4 0 0 1 20.79-13.44c.53-.08 1-.28 2.38-.64-26-9.14-51.2-18.24-77.42-24.2a63.17 63.17 0 0 1-15 23c-6.58 6.6-13.66 12.67-20.24 18.7l31.8 10.33c10.73 3.8 21.9 6.85 31.7 13.2a39.86 39.86 0 0 1-6.89-1.59q-30-9.48-60-18.92a5.44 5.44 0 0 0-3.51.38l-15.3 7.2zm41.18-34.17c-1.4-2.4-2.3-4.55-3.7-6.25a73.93 73.93 0 0 0-8.32-8.82c-3.06-2.62-6.62-1.8-9.94 0s-5.4 4.35-5.18 8.24a32.92 32.92 0 0 0 10 22.46zM539 621.9a85.32 85.32 0 0 0 7.46 24.82 11.51 11.51 0 0 0 9.65 7.06c9 .88 16.43-3 23.47-8.16C563.86 641.5 551 633.07 539 621.9zm-42.82-152.64c6.16 2 11.73 3.1 17.48.6 4.2-1.84 5.17-3.75 3.57-8.1-3-8.05-9.06-12.08-17.7-13.62zm4.5-25.2c5.2 2.52 13.67 3.5 18.34 2.63a5.93 5.93 0 0 0 4.59-6.84c-1.1-6.24-10.33-13.73-17.28-13.95zm-90.56-64.28c-2.7-3.12-4.8-5.73-7.1-8.15-3-3.16-6.7-4.27-10.9-2.7-3.9 1.45-6.63 4-7 8.46-.44 4.75 1.7 8.24 5.43 10.83a3.49 3.49 0 0 0 3 .33c5.44-2.75 10.78-5.68 16.57-8.76zm23-22.24l1.38.1 9.47-15.7a1.65 1.65 0 0 0 0-1.47c-2.9-3.92-5.68-7.95-8.88-11.63-2.6-3-5.36-2.2-6.6 1.67a11.07 11.07 0 0 0-.49 4.28 100.43 100.43 0 0 0 1.61 12.39c.72 3.54 2.26 6.9 3.47 10.35zm155.72 466.2c-1.77-8.63-2.26-17-7.08-24a8.88 8.88 0 0 0-3.71-3 4.09 4.09 0 0 0-3.44.58c-3.15 2.47-3.85 15-1.17 18l.2.2c4.08 4.05 9.36 5.92 15.17 8.23zm176.7-480.38l-.14-.2c-.06.06-.18.16-.17.17a2 2 0 0 0 .24.26zm-.72-1.18l.1-.15h-.14z" class="i"/><path d="M552 72.3c-8.48 20.4-19.1 39.7-30 58.85-17.3 30.4-35.48 60.28-57.18 87.82-12.27 15.58-25.35 30.46-40.4 43.45-8.45 7.3-17.62 13.4-28.65 16.23-10.5 2.7-19.93.75-28.45-6-9.14-7.2-16.17-16.17-21.9-26.17-4-7-7.58-14.26-11.42-21.37-1.46-2.72-3-5.4-4.7-8-8.58-13.26-18.6-17.23-34-13.58a92.32 92.32 0 0 0-29.43 13.19c-55.93 36.78-94 86.34-108.37 152.68-2.1 9.6-3.48 19.2-4.88 28.8a91.81 91.81 0 0 0-.67 12.64 28.73 28.73 0 0 0 1 5.51l-.65.42a13.18 13.18 0 0 1-1.53-2.92c-1.8-8-1.12-16.14 0-24.13 4.22-29.25 12.07-57.4 26.78-83.26 22.9-40.3 54.13-72.44 94.23-95.78 9.15-5.32 18.88-9.34 29.57-10.45s20 1.86 26.4 10.77a214 214 0 0 1 13.7 22.53c6.1 11.3 12.4 22.44 21.6 31.58 5.07 5 10.56 9.52 17.78 11.1s14.26-.1 21-2.9c8.65-3.64 16.1-9.14 22.95-15.44a384.34 384.34 0 0 0 56.86-66.61 889.75 889.75 0 0 0 67-115.55c1-2.1 2.26-4 3.4-6.07l1.45.33.13.8-1.45 1.16c-.07.1-.15.25-.15.4z" class="f"/><path d="M384.1 407.6q-.4 8.85-.77 17.7c-2.44-.77-5.35-.94-7.23-2.43-3.6-2.86-6.64-6.46-9.9-9.76a17.33 17.33 0 0 0 3.22 1.23 13.32 13.32 0 0 0 3.13-.18l.46-1.1-4.4-3.85c-2.83-2.42-5.9-4.6-8.46-7.28-21.14-21.94-23.23-52.3-.67-74.5a33.4 33.4 0 0 1 19.89-9.19l-6.95 5.17c-12.44 9.18-17.32 21.55-15 36.67 1.25 8.1 3.57 15.93 8.5 22.72l1.84 2.66-.06-.05.6.6v-.06a20.3 20.3 0 0 0 1.52 2.84l14.3 18.82z" class="c"/><path d="M552.94 67.86l2.4-6.53-.8-.43c-6.2 5.37-11.32 12.1-18.7 15.94l-.7-.62a5.8 5.8 0 0 1 .84-1.75l19.24-18c.8-.72 2.4-.54 3.63-.78a12.46 12.46 0 0 1 .47 3.42l-4 26.62a11.44 11.44 0 0 1-1.24 3.48c-1.8-4-1.12-8.13-.84-12.2l.36-6.33.85-1.13c1.3-2.05-1.54-.63-1.5-1.68zm172.8 97.94c1.93-2.22 3.6-4.74 5.83-6.6 6-5 12.27-9.85 18.5-14.64 1.2-.93 3-2.15 4.3-.28s-.15 3.37-1.55 4.35l-20.54 14.24c-1.88 1.3-3.88 2.42-5.82 3.63zm-64.6-40.68c-1.86-8.2-.84-16.38 0-24.57a24.42 24.42 0 0 1 .89-5.35c.4-1.2 1.52-2.15 2.32-3.22.72 1.22 2 2.4 2 3.65a43.64 43.64 0 0 1-.51 8.92c-1.1 6.9-2.43 13.78-3.67 20.67zm-75.48-4.4l-6.93-8.54c-1-1.27-1.5-3 .1-4.1 1.77-1.24 3.25-.06 3.93 1.52 1.48 3.43 2.68 7 4 10.46z" fill="#0f0f0f"/><path d="M556.56 0c0 1.05 2.8-.37 1.5 1.76l-1 .33-1.46-.33zM552 72.3c0-.15.1-.3.17-.45a.6.6 0 0 1-.17.45z" class="X"/><path d="M365.58 412.62l.63.52zm-.68-.42l.73.44z" class="c"/><path d="M837 320.16l-3.07 1.2-8-2c-4.3-1.47-8.45-3.3-12.72-4.84-6.26-2.25-12.47-4.6-17.6-9-10.7-9.22-19.2-20.28-26.57-32.26a45.91 45.91 0 0 1-6.68-24.1c0-4-1.1-8-1.7-12 8.34 0 16.73-.56 25 .17 20.2 1.8 40.24 4.93 59.52 11.42C877 259.43 903.42 277.6 922.2 306c8.72 13.17 14 27.87 18.65 42.83 6.34 20.47 11.5 41.27 11.22 62.8a450.16 450.16 0 0 1-3.39 45.36c-2.3 20.16-6.47 40-13.57 59.1-.57 1.54-1.18 3.05-1.8 4.57-.06.14-.25.24-.57.53-3.06-2.3-6.08-4.74-9.28-6.92a58 58 0 0 0-7.77-4.45c-.78-.37-2 .24-3.1.4.53.93.82 2.25 1.62 2.72 4.53 2.67 9.18 5.14 13.8 7.68l4.87 2.63c-4.65 9-8.9 18-13.74 26.56-11.27 20-26.7 36.7-42.4 53.15-6.7 7-13.9 13.6-20.9 20.34-2.55 2.45-5.08 4.94-7.77 7.25-14.84 12.8-20.8 29.52-21.7 48.54 0 .66-.1 1.33-.16 2l-.7.2-4.27-9.78c.1-2.43.24-4.85.25-7.27 0-4.17-.3-8.36 0-12.5.53-8.4 1.37-16.8 2-25.2.66-8.22 1.06-16.47 2-24.67l4.57-38.06c1-9.55 1.5-19.16 2.2-28.75.25-3.56.7-7 3.7-9.5 2.26-1.9 3.92-4.74 6.42-6.1a255.39 255.39 0 0 0 35-22.48 124.47 124.47 0 0 0 10-8.82c2.57-2.47 2.78-4.4 1.34-7-1.7-2.3-3.9-1.78-5.8-.66-3.57 2.1-7 4.54-10.43 6.83l-1 .6-.7.4-1 .58-1.08.56-3.32 1.6-1.1.5c-2.6 1.06-5.23 2.05-7.78 3.2l-17.05 7.87c-2.17 1-3.62.7-4.12-1.9-.6-3.1-1.5-6.18-1.88-9.32-1.1-9.1-1.65-18.26-3.07-27.3-1.92-12.15-4.45-24.2-6.73-36.3l-7.85-40.85c-1.9-8.76-4.52-17.4-7.23-25.95-2-6.34-.46-11.57 3.66-16.34a26.71 26.71 0 0 1 4.58-4.62c6.2-4.32 11.74-9.65 18.82-12.68a4.89 4.89 0 0 0 1.36-1.08c1.7-1.75 1.4-2.95-.93-3.92l.1-.22h-.2v.05l1.4-.7 10.13-5.2-.56-1.1zm36-26.93l.5-.63.7-1c3.56-3.7 7.18-7.34 10.58-11.18.38-.44-.55-2-.87-3.1l.07-.8-.23-.08-.35 1h.06l-1 .07-.66.46-1 .7-.6.53-.57.55-.56.56-.86.8v.05c-.45.16-1.07.17-1.33.48l-19.8 23.83c-2.9 3.72-2.34 9.2 1 12.88 6.53 7.34 13.4 14.45 22.1 19.16 7.88 4.27 16.28 7.55 24.22 11.73 5.64 3 11.6 3.73 17.74 4.17l2.8 1h-.06l1.58.8 1.16.32.24.1.24-.08 4.18 1.2.75.4 1.5.6.25-.57-1.3-1.1-.4-.53c-1.46-2-2.66-4.2-4.44-5.8-2.13-1.92-5-3-7.13-4.93-6.42-5.8-13.84-9.85-21.7-13.28l-24.58-10.95a22.81 22.81 0 0 1-10.34-8.91c-1.25-2-1.64-4-.45-6.16a6.74 6.74 0 0 0 .42-1.77l.52-.6.72-1 .64-.7 5.68-7.58.67-.58zm52.4 126.6c-1.27 1.44-2.9 2.7-3.76 4.35l-21 41.24a43.25 43.25 0 0 0-4.17 21.21c.38 6.35 3.08 11.56 9 14.2a98.35 98.35 0 0 0 13.95 4.53c2.56.7 4.28-.84 3.64-3.4a15.91 15.91 0 0 0-3.08-5.9c-1.93-2.38-4.48-4.27-6.48-6.6a10.11 10.11 0 0 1-2.34-4.69c-1.13-7.6.64-14.88 3.85-21.68l17.15-35a61.49 61.49 0 0 0 3.72-9.33c1.34-4.54-.4-6.12-5-4.92l1.14-4.78-.7-.3-5.26 9.86zm-257-96.93c.18-2.05-.76-1.17-1.3-.42l-4 5.8c-2.2 3.2-4.14 6.68-6.77 9.5-2.3 2.46-5.32 4.3-8.2 6.1-.92.58-2.4.27-3.62.37q1.7-5.87 3.4-11.73c5.47-10.35 11.55-20.43 16.27-31.1 6.9-15.6 13.46-31.48 15.06-48.7 1.17-12.6 1.3-25.24-3.53-37.35-1.26-3.14-2.08-3.67-5.22-2.6l-3-5.68c2.48-.53 4.64-1.54 6.66-1.33 4.94.53 8.86 3.53 11.9 7.13a22.76 22.76 0 0 1 4.86 12l3.15 23.2c4.77-8.84 3.24-17.43 2.3-26.2a24.75 24.75 0 0 1 2.15 4.74l5.5 26.07c1.34 5.7 2.33 11.82 5.16 16.8a111.17 111.17 0 0 0 15.09 20.7c12.6 13.5 23.23 28.15 30.5 45.14 3.82 8.92 7.6 17.87 11 27 1.43 3.87 1.77 8.15 2.6 12.24a6.16 6.16 0 0 0 .36 1.59c3.92 7.65 1.57 15.4.43 23.14a186.14 186.14 0 0 1-17.67 55.58l-15.94 32.84c-5.84 11.5-13.2 21.94-22.87 30.6a10.18 10.18 0 0 0-7.39-.14c-7.7 2.28-15.55 4.14-23.6 2.9-11.37-1.77-22.77-3.55-33.94-6.23-11.45-2.75-22.7-6.37-33.92-10-9.42-3.05-18.63-3.56-27.92.26a35.69 35.69 0 0 1-4 1.12c-2-2.46-1.62-4.27.05-6.7 12.3-17.93 19.58-37.33 16.95-59.6a52.66 52.66 0 0 0-8.81-23.33l-.43-1.22c-1.12-2.68-1.93-5.54-3.45-8a30.2 30.2 0 0 0-5.45-5.92 2.68 2.68 0 0 0-2.64-.12 4.43 4.43 0 0 0-.95 2.82 10 10 0 0 0 .56 2.76c-4.1-.36-4.1-.36-3.42-3.86.82-4.2 2.27-8.07 6.95-9.13 5.1-1.16 9.65-.12 13.3 4a34.2 34.2 0 0 1 8.44 22.81c.12 8-.62 16.1-1 24.15a7.26 7.26 0 0 0-.11 2.16 30.2 30.2 0 0 0 1.49 3.47l3-1.9c3.4.95 5.6.07 6.9-3.36 1.13-2.95 1.77-6.08 2.62-9.14 1-3.56 1.57-3.83 5.2-3.4q22.9 2.84 45.9 5.44c1 .12 2.2-1 3.33-1.57l3.42.65.5-.68-5.74-4.87a16.51 16.51 0 0 0 .8-2.3c.68-3.42 1.88-6.07 6-6.56 2-.23 2.57-2.74 1.67-4.7a24 24 0 0 1-1.92-4.47c-.82-3.6-1.42-7.28-2-10.94-.57-3.4-1.6-4.58-4.63-5-2.43-.66-3.22 1.15-3.93 2.8-2.7 6.23-5.14 12.57-8 18.7-1 2.16-2 5-5.25 5h-.1l-1.52-.4L610 416.9a3 3 0 0 1-1.9-1.62c-1.35-3.47-2.44-7-3.75-10.5a25.17 25.17 0 0 0-11.3-13.5c-7-4-12.4-3.38-18.32 2.1-.23-.38-.6-.73-.68-1.14-2.16-11.43-8-21-15.15-29.84a7.72 7.72 0 0 1-.86-2.1c5.36 1.45 10.68 3.1 16.1 4.26 4.2.88 8.52 1 12.07-2.14a19.05 19.05 0 0 0 2.38-3.19l.46-.57H589c.4-1.1 1.27-2.3 1.12-3.32-.44-2.92-1.27-5.8-2-8.67-1.43-5.65-4.64-10.9-4-17l12.36-6.9c.5 1.44 1 2.47 1.23 3.55 1.84 7.3 3.83 14.55 5.42 21.9 2.8 13 17.18 15.2 24.77 9.5a77.35 77.35 0 0 0 6.8-5.39c2-1.9 3.7-4.18 5.63-6.44 1.8 3.23 4.8 3.76 8.12 3.52 2.92 3.77 7.36 4.73 12.46 2.27 6.8-3.28 11.94-8.45 16-14.76 2-3.17 3.76-6.42 3.34-10.4-.32-3-1.6-5.37-4.58-6.48s-4.9.13-6.53 2.45c-.2.23-.5.3-.73.45zm38.1-3.14l-.7-.6a21.15 21.15 0 0 0-2.11 1.76L689 336.58a71.12 71.12 0 0 1-23.24 16.26c-1.38.63-2.92.9-4.36 1.43a23.28 23.28 0 0 0-2.35 1.16c.8.7 1.62 2 2.4 2a14.92 14.92 0 0 0 5.51-1.14c10.14-4.34 19.08-10.38 26.1-19l10-12.23c1.26-1.68 2.3-3.53 3.45-5.3zm-29-18.27l.9.28c5.2-3.3 12.35-29.64 9.64-35zm16.77-2a24.86 24.86 0 0 0-1.76-4.59c-1.66-2.8-5.08-2.83-6.58.06a15.61 15.61 0 0 0-1.83 6.94 4.43 4.43 0 0 0 6.61 3.93c2.28-1.16 3.12-3.3 3.5-6.3zM573.2 519.44l13.72-6.48c2.8-1.4 5.46-2 8.56-.74 6 2.4 12.34 4.24 18.3 6.83 15.85 6.9 32.55 10 49.53 12.3 10.52 1.4 21 3.2 31.47 4.94 3.88.65 7.07-.06 9.9-3s6.07-5.73 9.14-8.56c14.84-13.7 25-30.52 33.07-48.83l13-28.52c7.5-15.85 11.28-32.73 14.06-49.9l.73-4.26a25.07 25.07 0 0 1 .88 2.39 217.68 217.68 0 0 1 6.09 59.39c-.36 8.8-.26 17.62-.27 26.43 0 19.63-.2 39.2-2.73 58.75-1.22 9.43-1.17 19-1.5 28.56-.24 7-.2 14-.26 21a32.87 32.87 0 0 0 4.24 16.71 26.56 26.56 0 0 1 3.74 14 15.53 15.53 0 0 0 7.49 13.78c4.86 3.15 9.94 6 15 8.83 3.45 1.95 3.77 2.8 1.55 6.1-3.28 4.9-7.93 8.13-13.14 10.65l-1.7.64h.06l-4.18.92c-24.16 5.57-48.55 8.54-73.4 6.5-7.6-.62-15.23-.84-22.78-1.7-31.58-3.66-60-16-86.74-32.53-15.26-9.44-26.88-22.87-37.8-36.93a8.57 8.57 0 0 1-1.87-7l5.62-41c1.2-9.7 1.93-19.5.22-29.27zm190.43 123.44l15.33-5.36a15.49 15.49 0 0 0 4-2.14 3 3 0 0 0 1.07-2.44c-.2-.6-1.53-1.2-2.34-1.2a35.17 35.17 0 0 0-5.05.82c-.24-1.6-1.2-1.75-2.58-1.46s-2.84.74-4 .34c-3.4-1.17-6.43 0-9.58.77-4.33 1-8.6 2.34-13 2.95q-18.16 2.54-36.42 4.53a131.85 131.85 0 0 1-33.68-1c-12.28-1.85-24.43-4.54-36.7-6.54A139.15 139.15 0 0 0 625 631a3.06 3.06 0 0 0-2.33 1.35c-.24.42.5 1.6 1.05 2.23a13.45 13.45 0 0 0 2.38 1.81 78 78 0 0 0 23.16 10.7c18.92 5.6 38.2 8.44 58.06 6.85 14.14-1.13 28.18-2.74 41.92-6.3 4.9-1.25 9.6-3.15 14.4-4.76zm-30.54 21.55c0 .2 0 .42.08.62a12.85 12.85 0 0 0 2.81.23l19.3-2.56c13-1.38 25.1-5.67 37-10.63a11.22 11.22 0 0 0 3.42-2.14c.6-.58.7-1.7 1-2.58-.9-.22-1.9-.8-2.7-.62-3.7.9-7.36 2-11 3.1-5.2 1.6-10.32 3.48-15.56 4.94l-33.3 9a4.52 4.52 0 0 0-1.05.64z" class="j"/><path d="M389 410.54l.07-4.1c16.72 5.74 33.42 11.54 50.86 14.82a7.21 7.21 0 0 0-2.09-1.3l-45.25-15.4c-1-.34-2.3.07-3.45.14v-8l.5-.92 15.28-7.1a5.44 5.44 0 0 1 3.51-.38q30 9.38 60 18.92a39.86 39.86 0 0 0 6.89 1.59c-9.8-6.35-20.92-9.38-31.7-13.2s-21.66-7.06-31.8-10.33c6.58-6 13.66-12.1 20.24-18.7a63.17 63.17 0 0 0 15-23c26.23 5.95 51.4 15.05 77.42 24.2-1.33.36-1.85.56-2.38.64a28.4 28.4 0 0 0-20.79 13.44c-6 9.36-8.56 19.72-9.86 30.58-2.1 17.5-1.33 35-.3 52.52.92 15.5 2.12 31.12 1.1 46.55-1.67 25.14-5.78 50-16.1 73.37-4.1 9.27-9.34 17.74-16.95 24.77-12.65 11.7-35.66 9.5-44.28-8-2.86-5.83-4.72-12.15-7-18.25a11.54 11.54 0 0 1-.37-2.27l36 12.68a8.91 8.91 0 0 0 2.12-.09 26 26 0 0 0-3.47-2.13l-32.53-12.48c-2.1-.78-3.08-1.78-3.15-4-.15-5-.47-9.9-.74-15.15l19.2 7 .5-1c-2.26-1.44-4.44-3-6.8-4.28-3.45-1.8-7.07-3.3-10.55-5.06-.75-.38-1.72-1.35-1.7-2l.93-23.9 54.34 18 .42-1.13c-2.16-1-4.27-2.1-6.48-2.9l-45.5-16.7c-2.42-.87-3-2.1-3.06-4.53-.12-7-.6-13.94-.93-20.6l11.8 2.63.44.37a.88.88 0 0 0 0-.14l-.5-.2c-3.6-2.05-7.25-4-10.77-6.2a6 6 0 0 1-2.42-2.87c-2.48-7.2-4.77-14.46-7.13-21.7l-.6-1.9 63.56 22.05.3-.73c-2.27-1.12-4.46-2.45-6.82-3.34q-28-10.5-56.12-20.82a7 7 0 0 1-4-3.6c-3.55-6.43-7.43-12.67-11.08-19-.48-.83-.85-2.3-.44-3 5.77-9.8 7.1-20.5 6.67-31.57-.04-.84-.04-1.58-.04-2.3zm82.64 42.6l.36-.93c-1.63-.83-3.2-1.8-4.9-2.46a527 527 0 0 0-73.1-23.32 8.48 8.48 0 0 0-2.41-.39 6 6 0 0 0-1.85.79c.35.66.56 1.52 1.1 1.93a7.25 7.25 0 0 0 2.5 1c4.3 1.17 8.63 2.17 12.88 3.48l50.42 15.68c4.95 1.53 9.98 2.8 14.98 4.2zm-35 9.62l.24-.72a35.53 35.53 0 0 0-4.74-2.46q-22.05-7.74-44.17-15.33a3.73 3.73 0 0 0-1.59-.29 6.73 6.73 0 0 0-1.62.7c.25.53.37 1.3.8 1.55a23 23 0 0 0 4.16 2l27.35 9.12c6.42 2 13 3.68 19.54 5.43zm44.88-74.55l.43-.8c-1.9-1.14-3.7-2.46-5.67-3.4-5.82-2.76-11.62-5.6-17.6-8-7.4-3-14.95-5.56-22.47-8.2-.7-.25-1.7.36-2.58.58.4.83.6 2 1.27 2.42a28.86 28.86 0 0 0 4.95 2.19q18.62 6.9 37.25 13.75c1.4.56 2.9.98 4.37 1.46zM457.2 521.4l.2-1q-11.88-4.55-23.76-9.08a3.2 3.2 0 0 0-1.59-.28 8 8 0 0 0-1.79.82 9.6 9.6 0 0 0 1.09 1.67 3.68 3.68 0 0 0 1.47.67l19.34 6.33a35 35 0 0 0 5.05.87zm9.3-154.62l.46-1.25q-9.58-4-19.17-7.93a2.7 2.7 0 0 0-1.59-.23 13.55 13.55 0 0 0-2.27 1c.55.6 1 1.5 1.67 1.73l20.9 6.68zm3.67 67.58l.38-1a62.81 62.81 0 0 0-16.63-7.61 1.41 1.41 0 0 0-.81 0 16.42 16.42 0 0 0-1.59.75c.34.55.55 1.4 1 1.6 2.26.95 4.58 1.74 6.9 2.55l10.76 3.7zM452.3 579.5c-6.14-3.9-12.4-7.42-19.45-9l-.56 1.34c6.36 3.33 13.26 5.38 20 7.66zm10.92-106.7c-5-3.38-10.25-6.1-16.47-6.23 4.7 4.12 10.48 5.43 16.47 6.23zm25.45-98.72l.7-1.52-10.7-6c-.48-.25-1.38.3-2.1.5.3.7.4 1.77.9 2 3.68 1.77 7.44 3.36 11.18 5.02zm-29.94 147.5v-.1h-.24zM205.78 418.75a5.78 5.78 0 0 1 .68-1.9 61.42 61.42 0 0 1 24-17.38c6.78-2.68 13.62-5 20.94-5.48a8.35 8.35 0 0 1 3.78.82l21.67 10.14a11 11 0 0 0 2.9.25c-5.4-5.45-12.32-7-17.94-10.73 6.14-.68 52.18 12.77 62 18.14a12.22 12.22 0 0 1-1.44.63c-14.32 3.72-25.23 11.67-33.5 24.25-9 13.75-12.15 29.2-15.54 44.7a165 165 0 0 0-3.67 39.52c.44 18.32-.3 36.58-5.05 54.38a143.64 143.64 0 0 1-27.05 53.61c-7.5 9.32-17.24 15.2-28.38 18.95A17 17 0 0 1 187.39 637a22.56 22.56 0 0 1-1-5.62c-.14-4.9-.05-9.8-.05-15.5 3.1 1.86 5.56 3.45 8.12 4.85s5.1 2.55 7.67 3.82l.53-.86c-3.62-2.7-7.08-5.64-10.9-8s-6.26-5.13-6-9.92a49.14 49.14 0 0 0-.73-7.28l23.3 9.82.44-.82c-1.7-1.13-3.35-2.4-5.15-3.37L186 594.9a4.65 4.65 0 0 1-2.2-2.71c-2-10.77-6.82-19.86-15.6-26.65a5.6 5.6 0 0 1-.78-.76c-.17-.2-.3-.45-.53-.8.24-.23.44-.55.73-.67 6.36-2.73 10-7.83 12.53-14 3.9-9.7 4.84-19.84 4.67-30.2-.2-13.34-.83-26.73 0-40 .92-15.43 3.3-30.78 10.27-44.88 2.47-5 5.84-9.6 8.88-14.3.36-.56 1.25-.78 1.9-1.16-.24 1.84.84 2.8 2.32 3.5q14.58 7 29.18 13.9c.4.2.94 0 2.17 0a16.82 16.82 0 0 0-2.21-2l-24-13.32c-2.34-1.2-5.06-1.43-7.56-2.1zM240 591.2l.42-.84a46.88 46.88 0 0 0-4.78-3q-22.27-10.5-44.6-20.85-6.54-3-13.25-5.66c-.88-.34-2.1.23-3.18.38.7.8 1.24 1.92 2.12 2.3q29.9 13.37 59.9 26.6a29.44 29.44 0 0 0 3.38 1.07zm10.35-68.82l.4-.73a71.83 71.83 0 0 0-6.59-4.13l-52-25.45a3.88 3.88 0 0 0-1.48-.64 26.74 26.74 0 0 0-3.18.45c.54.83.9 2 1.64 2.44a55 55 0 0 0 6.45 3.49q24.93 11.5 49.9 22.9a51.17 51.17 0 0 0 4.86 1.67zm26.5-89.37l.6-.8a26.16 26.16 0 0 0-3.3-2.4l-14.34-7.2-29.44-14.74a26.38 26.38 0 0 0-5.65-1.87c-.58-.13-1.36.56-2 .88a9.76 9.76 0 0 0 1.15 1.87 7.34 7.34 0 0 0 1.65.93c14.94 8.74 31.12 14.76 46.92 21.63 1.4.62 2.92 1.13 4.4 1.7zm-48.43 130.42l.38-.77a30.61 30.61 0 0 0-4.27-3q-16.72-7.87-33.58-15.52c-1.4-.63-3.16-.4-4.76-.56-.14 2.55 2.14 2.72 3.62 3.37l32.47 14c2.02.94 4.1 1.68 6.14 2.48zm34.72-88.75l.36-1c-1.3-.78-2.56-1.63-3.9-2.3l-18.34-8.95c-3.85-1.83-7.74-3.58-11.68-5.2a20.86 20.86 0 0 0-4.15-.78l-.3 1.08a235.34 235.34 0 0 0 38.01 17.15zm-36.77 65.14l.17-.6a17.11 17.11 0 0 0-2.88-2.27l-24.76-11.8c-.83-.4-2.1.15-3.16.25.64.92 1.25 1.87 2 2.74a3.06 3.06 0 0 0 1.18.65l24.74 10.47a14.58 14.58 0 0 0 2.71.57zm27.7-40.88l.35-.6a27.52 27.52 0 0 0-3.45-2.68l-16.55-8.88a11.59 11.59 0 0 0-3.79-1.46c-1.07-.13-2.22.5-3.34.77.73.8 1.32 1.94 2.23 2.35l20.2 8.84c1.42.6 2.9 1.1 4.35 1.66zm-39.93-18.74l.45-1.15c-6.6-4.58-14.13-7.4-21.42-10.67a.85.85 0 0 0-.53-.09c-.7.27-1.38.58-2.07.87.37.65.7 1.33 1.1 2 .13.2.46.28.7.38zm-18.32-38.9l-.6 1.32A52.58 52.58 0 0 0 212.8 449c-5.12-3.82-10.45-7.15-16.97-7.7zm46.9-4.3l-.64 1.28 17.4 8.54.45-.9zm-.93.64l.27-.7c-.5-.18-1-.36-1.5-.5a3.86 3.86 0 0 0-.35.62zm19.68 9.7c0 .07.1.2.14.18a2.09 2.09 0 0 0 .43-.11c-.05-.06-.1-.17-.16-.17a2 2 0 0 0-.41.1zm-.68-.5c-.07-.06-.13-.17-.2-.17s-.14.1-.2.15.13.17.2.17.14-.1.2-.15z" class="k"/><path d="M654.5 675.8l25.08 3.26c20.13 2.4 40.3 3.6 60.55 1.5.53-.06 1.06-.06 2.43-.12l-3.26 13.15a7.38 7.38 0 0 0-.29 1c-.52 5.1-1.23 10.22-1.47 15.34a38 38 0 0 0 .64 10.5l21.6 88.58c2.07 8.8 2.85 17.9 4.23 26.87-1 .22-2 .4-2.9.68q-9.4 2.7-18.8 5.43c-1.1-2.86-2.08-5.8-3.38-8.58-4.43-9.47-14.3-11.27-21.48-3.7-2.9 3-5 6.83-7.62 10.5-.22-.8-.4-1.7-.72-2.54-1.24-3.3-2.12-6.8-3.9-9.8-2.77-4.64-7.16-7.3-12.7-6.94s-9.3 3.7-11.4 8.8c-1.07 2.58-1.9 5.27-3 8.43-.5-1.25-.76-2.15-1.18-3-2.16-4.27-4-8.8-6.64-12.7-4.82-7-9.26-7.65-16.34-3.16-.54-1.53-1.18-3-1.6-4.6a228.34 228.34 0 0 1-7.47-46.91c-.2-3.2 0-6.4 0-9.7 9.2 1.85 17.7.54 26.16-1a30.36 30.36 0 0 0 6.78-2.62 2.1 2.1 0 0 0 1.09-1.64c-.08-.5-.9-1.1-1.5-1.3-1.47-.46-3-.7-4.5-1l1-.23 5.14-.3 11.75-.88h-11.8c-1.07-.08-2.15-.23-3.22-.24-9.78-.07-19.57.06-29.2-1.93-.23-1.66.07-2.7 2.15-2.2a14.56 14.56 0 0 0 3.24.18c10.66.14 21-2.1 31.33-4.34 2.82-.6 5.48-1.92 8.22-2.9l1.32-.42 2.56-.75 2.9-2.47-.15-.85a18.28 18.28 0 0 0-4-.78c-6.07.22-12.13.9-18.2.85-7.94-.06-15.88-.64-23.82-1-3.5-.16-3.92-1.07-2.35-3.77 2.87-.37 5.36-.57 7.8-1 1.83-.35 1.8-1.53.4-2.38-2.27-1.4-4.7-2.56-7-3.82l3.6-45.5z" class="j"/><path d="M531.9 179.8a54.65 54.65 0 0 1 6-5 91.38 91.38 0 0 1 59.34-13.62c8.77.9 17.64 1.6 25.73 5.3 12.1 5.52 22.44 13.56 30 24.58 7 10.33 13.4 21.12 19.9 31.82 1 1.7 1.3 4 1.57 6 2.72 20.2-2.44 39.1-9.6 57.65a2.18 2.18 0 0 1-.32.43c-1.9-1.9-4.24-1.93-6.54-1.18a3.37 3.37 0 0 0-1.82 2.17l-5.8 28.06a6.15 6.15 0 0 0 .29 1.95l-1.18 2.84-.7-.14V307l-1.08-.13-.88 3.86-4.92 23.56a14.24 14.24 0 0 1-1.53 3.11c-.72.9-1.47 1.8-2.15 2.74-4.45 6.07-9.28 11.63-17.65 11.53-1.46 0-2.9-1.34-4.37-2.06 7.65-10.86 12.5-22.66 12.1-36.22-.36-12.83 1.08-25.9-5.58-38.74h7.67c1.53 0 3.34 0 3.24-1.85-.05-.94-1.63-2.32-2.74-2.6a51 51 0 0 0-7.45-.77l2.7-10.57a11.45 11.45 0 0 1 10.47 3.26c1.27 1.27 2.77 2.32 4.17 3.47-2.18-7.22-8.23-10.4-14.5-8.2-.37-5 .2-10.34-1.27-15-8.23-26.22-25.24-44-51.9-51.9a31.49 31.49 0 0 0-20.08.7c-5.7 2.1-10.53 5.67-12.7 11.25-2.82 7.24-4.23 14.88-2.4 22.82a72 72 0 0 0 8.38 20.86c.5.84 1 1.7 1.64 2.9-11.9-1-23 .42-33.16 6.27-.26-6.23-1.1-12.5-.68-18.67 1-15 6.33-28.95 11.27-42.95 1.4-4 3.2-7.8 4.8-11.7l.5-.62.73-1zm99.86 24.43c-3.9 1.9-10.66 10.94-11.6 14.62a10.82 10.82 0 0 0 0 2.61l.78.2zm5.2 10.4l-.76-.84c-2.77 2.07-5.6 4.08-8.28 6.24-.45.36-.36 1.4-.52 2.1.7-.15 1.64-.06 2.1-.48 2.54-2.28 4.98-4.66 7.48-7.03z" class="h"/><path d="M16.36 642.6c6.5 2.7 13.22 4 20.2 2.6a17.27 17.27 0 0 0 12.54-9.56 37.21 37.21 0 0 0 4-17.64 177.77 177.77 0 0 0-3.84-32.15 64.05 64.05 0 0 1 1.29-31.29c2-6.77 6-12.38 10.93-17.34a3 3 0 0 1 4.06-.66 35.67 35.67 0 0 0 5.14 1.85l.35-.7-5-4.46c4.07-1.34 7.64-2.8 11.35-3.67 9-2.1 17.72-.34 26.25 2.46a163.26 163.26 0 0 1 47 24.86 24.62 24.62 0 0 1 1.68 1.38c.1.1.1.33.18.64a8 8 0 0 1-1.24.3c-13.55.82-22.84 7.93-28.78 19.78a106.72 106.72 0 0 0-11.19 43.74 277.88 277.88 0 0 1-2.7 30.1c-2.14 13.83-9.5 24.5-21.6 31.87-6.25 3.8-12.6 3.37-19.14 1.33a2.35 2.35 0 0 1-.73-.35c-14.86-12.22-31.33-22.43-44.84-36.3q-3.13-3.2-6.28-6.38zM94.53 632h.12-.16c-.78-3-3.36-4-5.7-5.2-.52-.27-1.4.17-2.13.3.32.65.48 1.63 1 1.9 2.23 1.18 4.56 2.1 6.86 3.03zm-31-52.4c.18.1.36.22.1.06.3 0 .07 0-.15 0l-8.46-6.32c-.34-.24-1.1.15-1.68.24.2.62.23 1.6.63 1.8 3.1 1.52 6.32 2.87 9.5 4.27zM69 636.3A36.34 36.34 0 0 0 55.06 629c-.13.72-.08 1.2.14 1.3L69 636.3zm19.55 11c.15.1.3.2.1.07.23 0 0 0-.14 0-2.44-3.9-11.35-8.48-15.18-7.1a41.52 41.52 0 0 0 15.23 7.04zm13.38-70.3l.53-.9A50.93 50.93 0 0 0 97 572l-32.67-18.4a23.66 23.66 0 0 0-4.51-1.86c-.58-.18-1.33.2-2 .32.17.73.1 1.75.56 2.14a26.58 26.58 0 0 0 4.85 3.42q16.67 8.6 33.42 17c1.74.9 3.53 1.6 5.28 2.38zm-5 32.42l.35-.64a19 19 0 0 0-3-2.41q-19.78-10.3-39.64-20.43c-.8-.4-2.06.1-3.1.2.63.86 1.06 2.1 1.9 2.53q19.62 9.78 39.3 19.33a32.28 32.28 0 0 0 4.25 1.42zm27.88-52l.48-.7c-.5-.4-.94-.84-1.46-1.2-2.2-1.53-4.34-3.13-6.6-4.54q-13.86-8.6-27.8-17.07c-1.24-.75-3.17-2.35-4.26-.37s1.36 2.67 2.6 3.38l30.84 17.18 6.24 3.36zm-39 102.66l.33-.6a36.07 36.07 0 0 0-4-3l-27.67-15.1a8.47 8.47 0 0 0-2.26-.92 4.87 4.87 0 0 0-1.69.26c.13.58.1 1.33.45 1.7a10.49 10.49 0 0 0 2.59 2q14.3 7.32 28.63 14.55a24.08 24.08 0 0 0 3.69 1.14zM78 622.24l.7-1.1c-.82-.54-1.62-1.14-2.5-1.6l-16.66-9c-.73-.4-1.83-.07-2.76-.07.52.82.85 2 1.6 2.4 5.37 3 10.82 5.82 16.3 8.6a14.38 14.38 0 0 0 3.33.78zm12.44-30.07c-3.77-3.56-7.63-7-13-7.9 3.48 4.1 8.56 5.56 13 7.9zm-6.14-42.85l.76-1.22c-1.9-1.42-3.76-2.92-5.75-4.2-.5-.3-1.44.12-2.18.2.24.7.27 1.77.75 2 2.12 1.23 4.28 2.18 6.43 3.2z" class="k"/><path d="M582.05 659.7c7.48 2.16 14.9 4.6 22.46 6.4 9.87 2.37 19.87 4.24 29.8 6.32l2.9.58-4.87 34.18q-2.62 22.73-4.5 45.54c-1.07 12.8 1.52 25.32 3.92 37.82.76 4 1.37 8 2.08 12.25-9.22 1.8-15.6 7-19.53 16.27a36.21 36.21 0 0 0-1.23-3.46c-2.2-4.44-3.94-9.24-6.82-13.2-4.34-6-10.23-5.17-13.88 1.28-.66 1.16-1.22 2.36-1.67 3.25q-3.83-6.24-7.6-12.45c-.75-6.47-2-12.93-2.13-19.42-.3-13.16 0-26.33 0-39.5 0-.6.12-1.22.2-2.15 4.16 0 8.26.35 12.27-.08a141.93 141.93 0 0 0 15.15-2.75c1-.23 1.8-1.56 2.7-2.38-1-.76-2-1.92-3.12-2.2-3.76-1-7.6-1.62-11.4-2.4a12.7 12.7 0 0 0-1.87-.52L581 721.34l.2-2.48c.68.08 1.1.16 1.55.2 5 .4 10.08 1 15.13 1.1 1.58 0 3.17-1.55 4.76-2.4-1.2-1.2-2.22-2.84-3.68-3.54-3.66-1.76-7.5-3.1-11.3-4.6h4.95a40.44 40.44 0 0 0-6.58-2.76 4.93 4.93 0 0 0-1.76.16l.5 1.83c-3.8-.48-3.9-.48-3.8-4.25q.5-22.44 1.07-44.9z" class="h"/><path d="M573.2 519.44c1.7 9.78 1 19.57-.23 29.3l-5.62 41a8.57 8.57 0 0 0 1.87 7c10.9 14.06 22.53 27.5 37.8 36.93 26.73 16.54 55.16 28.87 86.74 32.53 7.55.87 15.2 1.1 22.78 1.7 24.84 2 49.23-.93 73.4-6.5 1.4-.33 2.78-.62 4.18-.92a31.15 31.15 0 0 1-3.41 2c-16.82 7.3-34.5 11.23-52.64 13.1-25.78 2.64-51.32-.3-76.77-4-20.12-3-40.26-5.82-59.93-11.17l-25.76-7.28c1.94-1.42 3.57-2.27 4.7-3.56s2.5-3.07 2.54-4.65c0-.9-2.28-2.25-3.76-2.75-10.8-3.65-20.26-9.7-29.42-16.3-3.1-2.23-6-4.75-9-7a5.1 5.1 0 0 1-2.17-4.65c.34-13.16 2.9-26 6.2-38.65l11.24-44.62a80.44 80.44 0 0 0 1.62-27.64 8 8 0 0 1 .08-1.26l4.7 1.13c.73 3.94 1.07 7.67 2.18 11.15 1.26 3.9 4.36 5.77 8.7 5.1z" class="l"/><path d="M707.74 216.3c1 .84 2.28 1.5 2.78 2.56l3.74 9.1c1.7 3.37 3.8 6.53 5.8 9.73 1.18 1.9 2.8 3.57 3.73 5.56 6 12.7 13.64 24.38 21.7 35.85 12.16 17.3 24.23 34.73 35.5 52.62 5.33 8.45 8.74 18.1 13 27.23.23 2.22.3 4.48.73 6.67.55 2.87 1.54 5.58 4.57 6.84 8.4 21.2 14.56 43 17 65.7 2.6 23.86 4.16 47.78 3.12 71.78-.58 13.42-1.9 26.8-2.9 40.2l-5.22 71.44c-.35 5.4.5 10.86.78 16.3 0 .5-.08 1-.1 1.53l-11.1-6.18c2-4.42 1.4-8.86.1-13.3a94.8 94.8 0 0 1-3.67-32.9c.9-14 2.1-28 3.4-42.06 1.66-17.63 3.28-35.26 3-53l-1-33c-.83-14.67-1.27-29.44-3.34-44-5-35.14-14.65-68.9-32.84-99.76-7.42-12.58-15.9-24.4-27.16-33.84a67.62 67.62 0 0 1-23.51-39.12c-1.35-6.45-3.47-12.73-5.4-19-.68-2.33-1.82-4.6-2.77-6.93z" class="m"/><path d="M514.87 261.4c5.56-4.64 12.2-6.73 19.2-7.6 4.66-.57 9.4-.38 14.1-.53 2.17-.07 3.6.93 5 2.6 9.8 11.5 21.5 20.32 36.43 23.9 4.52 1.1 9.32 1 14 1.44l11.48-.8a8.21 8.21 0 0 1 .12.91 10.39 10.39 0 0 1-.11 1.36 37.85 37.85 0 0 1-14 24.5c-4.1 3.3-9 5.63-13.77 8.06-6.46 3.3-11.83 7.44-12.17 15.35-.14 3.1.62 6.26 1.2 9.35.4 2.16 1.17 4.25 1.9 6.77-11.46-5.62-21.7-12-30.72-20.4-13-12.1-23.2-26-27.9-43.4-1.88-7.08-3.16-14.33-4.73-21.5zm20 25.08c2-4 .08-7.73-.75-11.5-.15-.7-1.07-1.22-1.64-1.82-.54.64-1.34 1.2-1.58 1.94-1.12 3.38.95 9.16 3.94 11.4z" fill="#fcfcfd"/><path d="M707.74 216.3l2.8 7c1.92 6.3 4 12.6 5.4 19a67.62 67.62 0 0 0 23.51 39.12c11.25 9.44 19.74 21.26 27.16 33.84 18.2 30.86 27.85 64.62 32.84 99.76 2.07 14.52 2.5 29.3 3.34 44 .62 11 .8 22 1 33 .27 17.73-1.35 35.36-3 53l-3.4 42.06A94.8 94.8 0 0 0 801 619.9c1.3 4.44 1.86 8.88-.1 13.3a3.67 3.67 0 0 1-.5-.17c-6.2-3.58-8.87-8.67-7.28-15.9a15.59 15.59 0 0 0-1.81-11.64c-4.66-7.4-4.73-15.4-4.24-23.66l3.08-58.8c.8-19.88 1.75-39.8 1.6-59.67-.12-15.4-1.63-30.83-3-46.2a183.14 183.14 0 0 0-3.65-25 107.41 107.41 0 0 0-7.08-21.38 46 46 0 0 1-3.77-11.87c-2.85-16.67-10.1-31.52-20.32-44.74-9.26-12-19.43-23.3-29.22-34.88-2.17-2.56-4.36-5.12-6.65-7.57-1.22-1.3-2.77-2.3-4-3.58a8.57 8.57 0 0 1-2.22-3.29l-5.45-22.45c-1.33-5.46-2.43-11-4.26-16.3-1-2.88-3.3-5.3-5-8-.57-.9-1-1.88-1.74-3.22 3.8 0 6.95-.1 10.1.06.77.1 1.54.9 2.28 1.38z" class="n"/><path d="M542.67 228.9c-2.6-7-3.68-14.54-1.2-21.4A20.19 20.19 0 0 1 557 194.09a30.56 30.56 0 0 1 15.89.82c26.2 8.93 43.06 26.6 49 53.92 1.5 6.92.9 14-3.86 19.95a32.16 32.16 0 0 1-4 .78c-5.3.4-10.65 1.33-15.9.9-12.24-1-22.14-7.76-31.58-14.8-9.74-7.23-18.22-15.82-23.9-26.76zm54.7 28.38c-.4-4.36-3.64-7.84-7.4-10.94-1.7-1.4-4-2.28-5.73-.8a8.25 8.25 0 0 0-2.44 5.3c-.27 4.72 4.08 10.28 8.78 12 3.82 1.43 6.77-.6 6.8-5.55zM524 448.55c5.1-6.27 4.8-8.68-2.57-19.73 7.77-1.2 11.3-6.37 11.8-13.52.54-7.57-5.2-11.17-10.48-15.44 2.77.22 5.62.1 8.28.73l40.67 10.1c2.2.55 4.43 1 6.6 1.6 3.55 1 5.9 2.7 6.55 6.9 1.45 9.38 1.68 18.78-.8 27.86-4 14.34-8.65 28.47-13.1 42.65a27.52 27.52 0 0 1-2.41 4.54 16.57 16.57 0 0 0-2.1-2l-23.93-16.47c-9.33-6.82-16.22-15.48-18.5-27.2z" class="h"/><path d="M812 639.38c0-.5.07-1 .1-1.53 3.77-20.2 5.5-40.6 7.1-61.05l4.6-54.56a345 345 0 0 0-.3-59.61c-1.3-14-2.54-28.05-4.82-41.92-3.9-23.7-12.6-46-21.78-68.1l-3.46-8a18.55 18.55 0 0 1 1.92-1.35q13.4-7 26.8-14l13.82-7.1v-.05a.35.35 0 0 1 .08.26c2.34 1 2.64 2.17.93 3.92a4.89 4.89 0 0 1-1.55 1.07c-7.08 3-12.62 8.36-18.82 12.68a26.71 26.71 0 0 0-4.58 4.62c-4.12 4.77-5.66 10-3.66 16.34 2.7 8.56 5.32 17.2 7.23 25.95 3 13.54 5.28 27.22 7.85 40.85l6.73 36.3c1.42 9 2 18.2 3.07 27.3.38 3.14 1.28 6.2 1.88 9.32.5 2.62 2 2.92 4.12 1.9l17.05-7.87c2.55-1.16 5.18-2.15 7.78-3.2l.28.33c-11.4 6.26-23 12.23-33.52 20.1a18.15 18.15 0 0 0 5.91-1.75q19-9.8 37.92-19.74c3.53-1.85 7-3.8 10.43-5.88a18.4 18.4 0 0 0 3-3l.5-.5c1.44 2.58 1.23 4.5-1.34 7a124.47 124.47 0 0 1-10 8.82 255.39 255.39 0 0 1-35 22.48c-2.5 1.36-4.16 4.2-6.42 6.1-3 2.55-3.45 5.94-3.7 9.5l-2.2 28.75-4.57 38.06c-.9 8.2-1.3 16.45-2 24.67l-2 25.2c-.26 4.15.06 8.34 0 12.5 0 2.42-.16 4.84-.25 7.27l-5.28-13.85a10.14 10.14 0 0 0-1.6-2.16l-.98-3.45a33.09 33.09 0 0 0 2.22-5.1c.85-3.32-1.12-5.56-3.5-7.52z" class="Y"/><path d="M365.92 382.8c-4.92-6.8-7.24-14.62-8.5-22.72-2.34-15.12 2.54-27.5 15-36.67l6.95-5.17c10.43-2.1 20.9-3.94 31.6-3 6.74.6 12.32 4 17.73 8.2-7.75 6.27-3.6 14.54-3.86 22.56-6-5.82-12.4-6.73-19.2-2.2-8.47 5.65-6.16 13.53-3.87 21.76-4.85-1.9-9.38-2.14-13.4.5a18.29 18.29 0 0 0-6 6c-3.4 6.23-1.3 12.73 5.44 18.76-1.77 1.55-3.43 1.44-5.28.08q-5.16-3.8-10.46-7.38c-1.34-.9-2.72-2.42-4.6-.87z" class="h"/><path d="M760.6 237.12c.6 4 1.67 8 1.7 12a45.91 45.91 0 0 0 6.68 24.1c7.36 12 15.86 23 26.57 32.26 5.13 4.4 11.34 6.75 17.6 9 4.27 1.54 8.43 3.37 12.72 4.84 2.6.9 5.35 1.34 8 2l-15.73 7.8-23.82 12.55c-.55.3-1.1.53-1.82.87l-4.6-8.9c-3-5.4-5.88-10.93-9.36-16l-31.12-44.73c-6.56-9.68-12.54-19.77-18.75-29.7a17.43 17.43 0 0 1-1-2.47z" class="l"/><path d="M691.45 737.7c-2.74 1-5.4 2.3-8.22 2.9-10.33 2.23-20.67 4.48-31.33 4.34a14.56 14.56 0 0 1-3.24-.18c-2.08-.5-2.38.54-2.15 2.2l-10.44-2.06-.58.6c.75.9 1.34 2.18 2.3 2.62a15.61 15.61 0 0 0 5.93 1.77c9.68.27 19.37.27 29 .37a.52.52 0 0 0 0 .25c1.5.33 3 .58 4.5 1 .6.2 1.43.78 1.5 1.3a2.1 2.1 0 0 1-1.09 1.64 30.36 30.36 0 0 1-6.78 2.62c-8.45 1.57-17 2.88-26.16 1 0 3.3-.16 6.5 0 9.7a228.34 228.34 0 0 0 7.47 46.91c.43 1.56 1.07 3.07 1.6 4.6-4.2 3.75-6.93 8.23-7.3 14.22a46.14 46.14 0 0 1-1.92-5.47q-5-22.73-9.82-45.5c-2.3-10.78-3.8-21.67-3-32.7s1.93-22.26 3.16-33.36l5-41.63c0-.36.15-.7.33-1.5l14.08 2.4-3.62 45.52c2.36 1.26 4.78 2.42 7 3.82 1.38.85 1.42 2-.4 2.38-2.43.46-4.92.66-7.8 1-1.57 2.7-1.16 3.6 2.35 3.77 7.94.36 15.88.94 23.82 1 6.07 0 12.13-.63 18.2-.85a18.28 18.28 0 0 1 4 .78l.15.85-2.9 2.47c-3.9.14-7.8 0-11.65.45-11.28 1.36-22.55 2.5-33.9 1.26-3-.33-5.9-1-8.86-1.4a7.31 7.31 0 0 0-2.62.72c.47.87.74 2 1.47 2.55a9.55 9.55 0 0 0 3.55 1.27 71 71 0 0 0 28.12 0l20.22-3.62z" class="Y"/><path d="M587.7 709.6c3.78 1.5 7.63 2.85 11.3 4.6 1.46.7 2.47 2.33 3.68 3.54-1.6.84-3.18 2.4-4.76 2.4-5 0-10.1-.68-15.13-1.1-.44 0-.87-.1-1.55-.2l-.2 2.48c-3.12-.57-6.22-1.2-9.35-1.66-.63-.1-1.37.52-2.06.8.42.62.7 1.46 1.3 1.8a6.57 6.57 0 0 0 2.83.89q10.3.63 20.58 1.1a8.58 8.58 0 0 0 2.5-.66c3.8.77 7.65 1.42 11.4 2.4 1.15.3 2.1 1.45 3.12 2.2-.9.82-1.67 2.15-2.7 2.38a141.93 141.93 0 0 1-15.15 2.75c-4 .43-8.1.08-12.27.08-.1.93-.2 1.54-.2 2.15v39.5c.15 6.5 1.38 12.95 2.13 19.42a26.35 26.35 0 0 0-3.84-2c-4-1.3-7.6.38-9.7 4.44a11 11 0 0 1-2 3.19c-.8-6.44-2-12.86-2.3-19.3-1.63-37-1.07-73.88 4.1-110.6.68-4.83 1-9.7 1.56-14.94l11.16 4.4q-.52 22.44-1 44.9c-.08 3.77 0 3.77 3.8 4.25zm9.47 6.17l-3.38-.73c-4.24-.85-8.48-1.77-12.75-2.46-.84-.13-1.83.64-2.75 1 .7.67 1.36 1.83 2.14 1.94 5.57.72 11.07 1.86 16.74.25z" fill="#7c73f9"/><path d="M514.87 261.4c1.57 7.18 2.85 14.43 4.76 21.5 4.7 17.37 14.87 31.3 27.9 43.4 9 8.35 19.26 14.78 30.72 20.4-.72-2.52-1.5-4.6-1.9-6.77-.57-3.1-1.33-6.25-1.2-9.35.34-7.9 5.7-12 12.17-15.35 4.73-2.43 9.68-4.75 13.77-8.06a37.85 37.85 0 0 0 14-24.5 10.39 10.39 0 0 0 .11-1.36 8.21 8.21 0 0 0-.12-.91l-11.48.8 13.32-3.74c1.77 2.2 1.65 5.42.67 8.32a143.1 143.1 0 0 1-7.37 19 26.52 26.52 0 0 1-7.94 8.75c-4.86 3.6-10.28 6.47-15.46 9.64-1.4.85-2.83 1.63-4.2 2.52-2.84 1.86-3.86 4.48-3.8 7.9a36.41 36.41 0 0 0 5.79 19.85c2 3.16.7 6.74-3.06 7.42a20.85 20.85 0 0 1-7.79-.21C541.67 354 514.2 328 509 293.26c-.87-5.83-1.1-11.76-2-17.58-.8-5 1.27-8.6 4.66-11.8.98-.9 2.14-1.66 3.2-2.5z" class="n"/><path d="M590.1 416.54a52.66 52.66 0 0 1 8.81 23.33c2.63 22.28-4.64 41.68-16.95 59.6-1.67 2.42-2 4.23-.05 6.7a35.69 35.69 0 0 0 4-1.12c9.3-3.82 18.5-3.3 27.92-.26 11.2 3.63 22.47 7.25 33.92 10 11.17 2.68 22.57 4.46 33.94 6.23 8 1.25 15.9-.6 23.6-2.9a10.18 10.18 0 0 1 7.39.14l-12.9 12.1a5.1 5.1 0 0 1-3.75.69c-6.28-1-12.5-2.27-18.78-3.28-12.63-2-25.4-3.42-37.9-6.1-8.45-1.8-16.5-5.4-24.77-8.13l-21.54-6.76a8.59 8.59 0 0 0-5.25.73c-3.9 1.68-7.67 3.73-11.5 5.6-5.65 2.77-7.2 3.1-9.8-4.28-.36-1-.58-2.1-.87-3.14.07-.16.1-.4.2-.47a11.59 11.59 0 0 0 5.34-5.56c1.92-4.4 5-8.36 6.45-12.88 4.36-13.65 8.53-27.4 12-41.3 2.18-8.65 2-17.66.58-26.55-.1-.8-.06-1.6-.1-2.4z" class="Y"/><path d="M813.3 652l1.08 3.44c-1 5 0 9.8 1.57 14.45 2.6 7.57 5.56 15 10.83 21.23a13.21 13.21 0 0 1 1.68 3.36c1.57 3.66 2.66 7.62 4.76 10.94 2.37 3.77 2.1 6.78-.08 10.45-2.54 4.27-6.24 5.4-10.7 5.4-1.1-1.7-1.9-3.7-3.35-5.06-14.1-13.2-24.1-29.08-31.82-46.6 4.4-2.13 8.86-4.15 13.18-6.43A36.57 36.57 0 0 0 813.29 652zM472.2 238.2a10.82 10.82 0 0 1 8.34-6.26c8.34-1.6 15.66 1.7 22.83 5.28.5.24.56 1.73.5 2.6-.48 7.87-1.28 15.73-1.5 23.6-.16 6 .4 11.94.64 17.9-5.4-4.82-11-9.45-16.2-14.5-8.04-7.83-13.95-16.94-14.62-28.64z" fill="#fbfbfc"/><path d="M558 360.28a7.72 7.72 0 0 0 .86 2.1c7.2 8.86 13 18.4 15.15 29.84.07.4.45.76.68 1.14a13.66 13.66 0 0 0-3.59 10.22c-3.3 2.4-6-.5-8.9-.9-.25 0-.4-.88-.6-1.35-1.34-3.64-2.13-7.62-4.14-10.84a94.69 94.69 0 0 0-11.4-15.2c-3.1-3.25-7.42-5.4-11.32-7.84a64.63 64.63 0 0 0-6.46-3.15c1.08-3.83 2.46-7.23 6.73-8.4a6.49 6.49 0 0 0 1.57-1c3.1-2 6.1-3.12 9.73-.67 3.28 2.2 7 3.72 10.53 5.54l1.16.6z" class="n"/><path d="M524 448.55c2.27 11.73 9.16 20.4 18.5 27.2 7.82 5.7 16 11 23.93 16.47a16.57 16.57 0 0 1 2.1 2l-1.14 2.7c-.58 1.46-1.5 1.74-3 1.3-15-4.35-29.9-8.85-44.2-15.15-6.1-2.7-12.37-5.07-18.76-7.67 3.74-.32 7.25-.18 10.53-1 10.2-2.52 12.5-8.2 7.3-17.32-1.2-2.1-2.77-4-4-5.76zM787.27 669.6c7.73 17.53 17.73 33.4 31.8 46.62 1.44 1.35 2.25 3.36 3.35 5.06-3.44-.62-7-.8-10.27-2-6-2.18-10.73-6.32-15.1-10.9-9.06-9.53-15.16-21-21.42-32.37a7.33 7.33 0 0 1-.28-2.5z" fill="#7c73f9"/><path d="M788.05 739.42a9.13 9.13 0 0 1-2-.56c-14.28-7.9-26.8-17.87-36.54-31.1a45.91 45.91 0 0 1-3.56-5.69 10.39 10.39 0 0 1-1.08-8 68.88 68.88 0 0 0 2-11.76c.2-2.34 1.13-3.17 3.24-3.27 1 0 2-.2 3-.3.38 1.68.84 3.34 1.13 5 1 5.52.87 11.4 4.33 16.13 4.64 6.35 9.6 12.47 14.52 18.62.5.64 1.6.83 2.42 1.23l.6 1.13-.1-.06.77.63 11.22 18zM670.3 436.54c-1.12.55-2.3 1.7-3.33 1.57q-23-2.57-45.9-5.44c-3.62-.44-4.2-.17-5.2 3.4l-2.62 9.14c-1.3 3.43-3.5 4.3-6.9 3.36a63.6 63.6 0 0 0 1.3-23c-.46-3.65 1-5 4.55-4.35l33.67 6.3a90.39 90.39 0 0 1 24.41 9.03z" class="Y"/><path d="M430.8 361.68l-17.16 15.6a32.92 32.92 0 0 1-10-22.46c-.23-3.9 1.9-6.47 5.18-8.24s6.88-2.6 9.94 0a73.93 73.93 0 0 1 8.32 8.82c1.43 1.72 2.32 3.87 3.72 6.27z" class="m"/><path d="M539 621.9c12 11.16 24.9 19.58 40.58 23.72-7 5.1-14.44 9-23.47 8.16a11.51 11.51 0 0 1-9.65-7.06 85.32 85.32 0 0 1-7.46-24.82z" class="e"/><path d="M542.67 228.9c5.67 10.94 14.15 19.53 23.84 26.76 9.44 7 19.34 13.82 31.58 14.8 5.24.42 10.6-.5 15.9-.9a32.16 32.16 0 0 0 4-.78c-5.07 6.44-11.92 8.8-19.82 8.32-10.3-.6-19.3-4.8-27.54-10.7A74.92 74.92 0 0 1 543.54 232a29.81 29.81 0 0 1-.87-3.1z" class="Y"/><path d="M472.2 238.2c.67 11.7 6.58 20.78 14.62 28.64 5.18 5.05 10.8 9.68 16.2 14.5l1.85 12.62a20.84 20.84 0 0 1-1.91-.86c-13.82-8.6-24.27-20.14-30.26-35.4-2.26-5.75-3.42-11.7-1.35-17.83a11.31 11.31 0 0 1 .85-1.66z" class="e"/><path d="M668.4 322.9c.23-.14.54-.22.68-.42 1.63-2.32 3.67-3.5 6.53-2.45s4.26 3.45 4.58 6.48c.42 4-1.3 7.23-3.34 10.4-4.05 6.3-9.2 11.48-16 14.76-5.1 2.46-9.54 1.5-12.46-2.27 12-4.2 16.53-14.15 19.58-25.27.13-.42.3-.82.43-1.23z" class="g"/><path d="M530.16 182c-1.62 3.9-3.4 7.73-4.8 11.7-4.94 14-10.24 28-11.27 42.95-.43 6.18.42 12.44.68 18.67l-8.35 6.4c.53-7.54.5-14.54 1.6-21.36 1.73-10.75 3.83-21.46 6.48-32 2.5-10 8.7-18.1 15-26 .13-.23.44-.3.67-.38z" class="Y"/><path d="M496.18 469.27l3.34-21.13c8.65 1.54 14.74 5.57 17.7 13.62 1.6 4.36.64 6.27-3.57 8.1-5.75 2.5-11.32 1.43-17.48-.6zm4.52-25.2l5.65-18.16c6.95.22 16.2 7.7 17.28 13.95a5.93 5.93 0 0 1-4.59 6.84c-4.67.88-13.15-.1-18.34-2.63zm171.17 391.46l5 14.88a64.65 64.65 0 0 1-6.9-2.12c-5-2.2-9.85-4.56-14.77-6.87a6.17 6.17 0 0 1-3.79-5.87c-.23-4.77.9-8.76 4.84-11.72l2.55 2.4c3.93 3.68 7.88 7.37 13.07 9.3z" class="e"/><path d="M410.13 379.8l-16.65 8.76a3.49 3.49 0 0 1-3-.33c-3.72-2.6-5.87-6.08-5.43-10.83.4-4.44 3.14-7 7-8.46 4.18-1.56 7.88-.45 10.9 2.7 2.38 2.42 4.48 5.03 7.2 8.15zm22.97-22.24c-1.2-3.44-2.75-6.8-3.53-10.35a100.43 100.43 0 0 1-1.56-12.39 11.07 11.07 0 0 1 .49-4.28c1.24-3.87 4-4.66 6.6-1.67 3.2 3.68 6 7.7 8.88 11.63a1.65 1.65 0 0 1 0 1.47l-9.47 15.7z" class="d"/><path d="M683 840.63c.46-4.82 1.58-9.5 5.15-13 3.92-3.8 10.53-2.43 13.2 3.12 2 4.15 2.76 8.9 4.07 13.4l-22-3.53a.38.38 0 0 0-.43.02z" class="m"/><path d="M588.8 823.76c-5.82-2.3-11.1-4.18-15.2-8.24l-.2-.2c-2.68-3-2-15.53 1.17-18a4.09 4.09 0 0 1 3.44-.58 8.88 8.88 0 0 1 3.71 3c4.82 7.05 5.27 15.38 7.08 24z" class="e"/><path d="M775.5 719.78c-.82-.4-1.9-.6-2.42-1.23-4.92-6.15-9.88-12.27-14.52-18.62-3.46-4.73-3.37-10.6-4.33-16.13-.3-1.7-.75-3.35-1.13-5l7.8-1.78c1.73 15.13 7.26 28.72 14.3 41.8a4.73 4.73 0 0 1 .3.96z" class="d"/><path d="M668.38 397.72c3 .38 4.06 1.56 4.63 5 .6 3.66 1.2 7.33 2 10.94a24 24 0 0 0 1.92 4.47c.9 2 .3 4.46-1.67 4.7-4.15.5-5.35 3.14-6 6.56a16.51 16.51 0 0 1-.8 2.3l-14-6.38c.7-.5 1.35-1.37 2.1-1.48 3.9-.54 7.8-.9 11.73-1.3 2.14-.22 4.3-.37 6.43-.55v-1.1l-12.9-2c.4-.76.8-1.43 1.1-2.15l5.8-14.9c.47-1.18-.2-2.73-.35-4.1z" class="e"/><path d="M737.36 843c3.08 4.8 3.8 5.3 8.14 5.82-12.47 3.56-25 6.6-38.17 5.62v-1.54c2.92 1.24 4 .66 4.87-2.37.54-2 1.22-3.92 1.84-5.88z" class="a"/><path d="M707.33 852.9v1.54l-5.44-.16-2.2-.3-3.8-.3-1.65-.28-2.7-.3-1.12-.22-2.16-.28-1.1-.26-2.16-.32-1.1-.27-1.73-.3-.43-1.85.27-4.36.2-1.1.3-2.16.85-1.35 22 3.53.3 2.17.25 1.1.3 2.17.26 1.1.2 1.1.6 1.08z" class="g"/><path d="M523.58 423.86c-3.17-.05-6.37 0-9.53-.22a41.47 41.47 0 0 1-6.08-1.49l10.35-20.66 7 6.28z" class="e"/><path d="M737.36 843L714 844.66a25.76 25.76 0 0 1 7.52-12.34c4.2-3.7 9.07-3.07 11.92 1.77 1.68 2.78 2.65 5.9 3.92 8.9z" class="d"/><path d="M608.23 816.4l3 11.23c-4.84-.62-9-1-13.17-1.72-4.52-.72-4.67-.82-4.46-5.3.16-3.5.8-7 1.24-10.44a27.37 27.37 0 0 0 2.8 1.65l10.6 4.57z" class="e"/><path d="M616.14 349.6c1.46.72 2.9 2 4.37 2.06 8.37.1 13.2-5.46 17.65-11.53.68-.93 1.43-1.83 2.15-2.74a30.71 30.71 0 0 1-18.25 18.6c-6.77 2.58-14.1-1.57-16.15-8.46-2.43-8.22-4.63-16.5-6.9-24.78a5.4 5.4 0 0 1 .14-1.81l.77-.05.57 2.18c1.8 6.45 2.67 13.24 6.45 19a44.6 44.6 0 0 0 5.61 6.94c.7.7 2.36.42 3.58.6z" class="a"/><path d="M668.38 397.72c.16 1.38.82 2.93.4 4.1-1.76 5-3.82 9.95-5.8 14.9-.28.72-.7 1.4-1.1 2.15l12.9 2v1.1l-6.43.55-11.73 1.3c-.76.1-1.4 1-2.1 1.48l-3.3-1c3.27-.05 4.24-2.85 5.25-5 2.87-6.14 5.32-12.48 8-18.7.68-1.72 1.52-3.53 3.9-2.87zm-279.26 7c1.16-.07 2.43-.48 3.45-.14l45.25 15.4a7.21 7.21 0 0 1 2.09 1.3c-17.44-3.28-34.14-9.08-50.86-14.82l.07-1.73z" class="Z"/><path d="M650.6 318a6.15 6.15 0 0 1-.29-1.95l5.8-28.06a3.37 3.37 0 0 1 1.82-2.17c2.3-.75 4.63-.7 6.54 1.18-1.2 3.3-2.18 6.7-3.6 9.9l-9.22 19.62a10 10 0 0 1-1.05 1.49z" class="Y"/><path d="M619.66 819c2.77-6.64 8.44-9.5 15.22-11.54l2.58 12.12z" class="d"/><path d="M742.3 842q9.4-2.72 18.8-5.43c.95-.28 1.93-.46 2.9-.68 1.36 4.42 1.25 4.55-2.66 6.64-4.56 2.43-9 4.92-14.53 3.47-2.27-.6-4.02-1.53-4.5-4z" class="e"/><path d="M619.66 819l17.8.58 1.36 4.68-22.6 3.18z" class="a"/><path d="M608.23 816.4l-10.62-4.57a27.37 27.37 0 0 1-2.8-1.65c.74-2.82 1.45-6.22 4.6-6.7 2.92-.44 4.2 2.8 5.42 5a77.28 77.28 0 0 1 3.39 7.92zm63.64 19.14c-5.2-1.94-9.14-5.63-13.1-9.3l-2.55-2.4c3.5-3.58 6.43-3.77 9.24.17 2.54 3.55 4.3 7.66 6.4 11.53zM384.1 407.6l-14.33-18.82a20.3 20.3 0 0 1-1.52-2.84 64.28 64.28 0 0 0 16.68 11.43l-.83 10.23zm139.48 16.26l1.74-16.1c2.4 1.68 5.1 3.67 4.46 6.76-.78 3.72-1.58 7.94-6.2 9.33z" class="d"/><path d="M584.07 329.65c-.65 6.14 2.56 11.38 4 17 .73 2.88 1.56 5.75 2 8.67.15 1-.72 2.2-1.12 3.32 1-2.7.34-5.1-1.18-7.42a31.09 31.09 0 0 1-5.19-18.22c.03-1.12.97-2.23 1.5-3.35z" class="a"/><path d="M626.25 257.43c6.26-2.2 12.3 1 14.5 8.2-1.4-1.15-2.9-2.2-4.17-3.47a11.45 11.45 0 0 0-10.47-3.26z" class="f"/><path d="M647.94 332.5q-1.7 5.87-3.4 11.73c-2-.94-2.62-2.36-1.4-4.3l4.8-7.43zm151.4 39.94c-3-1.26-4-4-4.57-6.84-.43-2.2-.5-4.45-.73-6.67q2.64 6.75 5.3 13.5z" class="a"/><path d="M837 320.16l10-5 .56 1.1-10.13 5.2z" class="X"/><path d="M365.92 382.8l1.57-.08.27 2.74z" class="d"/><path d="M699.7 854l2.2.28z" class="a"/><path d="M389 410.54v2.18-2.18z" class="Z"/><path d="M694.25 853.44l1.65.28zm-12.5-3.8l.43 1.85-.43-1.85z" class="a"/><path d="M763.1 337.85l1 2.24-.25.2-1.06-2.2a3.47 3.47 0 0 1 .31-.25z" class="X"/><path d="M690.42 852.93l1.12.22zm16.9-.03l-.6-1.08zm-20.18-.5l1.1.26zm-3.25-.6l1.1.27zm22.62-1.07l-.26-1.1zm-.52-3.27l-.25-1.1c.03.37.12.73.25 1.1zm-23.78-3.3l-.2 1.1zm1.15-3.5l-.85 1.35.44-1.38a.38.38 0 0 1 .41.03z" class="a"/><path d="M762 335.16l.57 1.6-.28.25-.54-1.63z" class="X"/><path d="M649.57 423.82l1.52.4z" class="Z"/><path d="M794,660.47l1.7-.64Z" class="l"/><path d="M389.6 395.85l-.5.92z" class="Z"/><path d="M762.82 338.1l-.57-1.08.28-.25.58 1.08a3.47 3.47 0 0 0-.29.25z" class="X"/><path d="M558 360.34l-1.16-.6z" class="j"/><path d="M531.35 180.4l-.73 1zm58.33 234.95l.43 1.22c-.1-.4-.3-.82-.43-1.22z" class="Y"/><path d="M765.55 343.38l-.07.22a2 2 0 0 1-.24-.26l.17-.17z" class="X"/><path d="M776.1,720.9l-.6-1.13Z" class="d"/><g class="X"><path d="M760.63 333.2l-.4-.75.33-.16.3.72z"/><path d="M760.85 333l.55 1.08-.26.22-.5-1.12zm3.28 7.1l.42.76-.32.17-.35-.72z"/><path d="M761.4 334.1l.56 1.07-.25.23-.56-1.1z"/></g><path d="M788 739.46a.88.88 0 0 1 .22.1v.16c-.06-.1-.1-.2-.16-.3z" class="Y"/><path d="M776.78,721.47l-.77-.63Z" class="d"/><path d="M764.83 342.2l-.05-.17.14.02-.1.15z" class="X"/><path d="M531.9 179.8l-.58.65zm-1.25 1.58l-.5.62z" class="Y"/><path d="M589,358.64l-.46.57Z" class="a"/><path d="M16 643l-.32-.55.7.14z" class="k"/><path d="M368.3 386l-.6-.6z" class="d"/><path d="M557.1 2.1l1-.33-.85 1.13c-.07-.27-.1-.53-.15-.8z" fill="#fefefe"/><path d="M930.9 413.83c4.6-1.2 6.32.38 5 4.92a61.49 61.49 0 0 1-3.72 9.33l-17.15 35c-3.2 6.8-5 14.07-3.85 21.68a10.11 10.11 0 0 0 2.34 4.69c2 2.34 4.55 4.23 6.48 6.6a15.91 15.91 0 0 1 3.08 5.9c.64 2.57-1.08 4.12-3.64 3.4a98.35 98.35 0 0 1-13.95-4.53c-5.9-2.65-8.6-7.86-9-14.2a43.25 43.25 0 0 1 4.17-21.21c6.62-13.92 13.87-27.55 21-41.24.86-1.66 2.5-2.9 3.76-4.35-.65 1.66-1.18 3.37-2 5l-14.8 30.34c-1 2.14-1.94 4.34-3.1 7 .84-.3 1.32-.3 1.44-.52 8.56-15.7 17.37-31.2 23.95-47.82z" class="g"/><path d="M922.14 353.26c-6.14-.44-12.1-1.2-17.74-4.17-7.94-4.18-16.34-7.46-24.22-11.73-8.72-4.7-15.58-11.82-22.1-19.16-3.3-3.7-3.86-9.16-1-12.88 6.37-8.12 13.14-15.92 19.8-23.83.26-.3.88-.32 1.33-.47-.48.73-.9 1.5-1.45 2.18l-17.17 21.74a29.4 29.4 0 0 0-2.38 4.39l.75.5 6.88-6.2a6.74 6.74 0 0 1-.42 1.77c-1.2 2.17-.8 4.17.45 6.16a22.81 22.81 0 0 0 10.34 8.91l24.58 10.95c7.85 3.43 15.27 7.48 21.7 13.28 2.13 1.92 5 3 7.13 4.93 1.78 1.6 3 3.85 4.44 5.8l-3.34-1-50.18-22.2a4.29 4.29 0 0 0 2 2.5l26.5 13.14c4.62 2.08 9.43 3.6 14.12 5.4z" class="c"/><path d="M930.9 413.83c-6.58 16.6-15.4 32.1-23.92 47.74-.12.2-.6.23-1.44.52l3.1-7 14.8-30.34c.78-1.6 1.3-3.3 2-5l.68-1.23 5.26-9.86.7.3zm-8.76-60.57c-4.7-1.8-9.5-3.32-14-5.44-8.92-4.2-17.7-8.7-26.5-13.14a4.29 4.29 0 0 1-2-2.5l50.18 22.2-1.66 1-.24.08-.24-.1-1.17-1-1.57-.13h.06l-2.8-1zm-57.27-49.66l-6.87 6.2-.75-.5a29.4 29.4 0 0 1 2.38-4.39l17.17-21.74c.54-.68 1-1.45 1.45-2.18v-.07l.86-.78.56-.56.57-.55.6-.53 1-.7.66-.46 1-.07-5.72 8.88-3.54 5.36-.7 1-.5.63-.67.58-5.68 7.58-.64.7-.72 1-.5.6z" class="b"/><path d="M874.15 291.65l3.54-5.36 5.72-8.88h-.06l.25-.1h.26c.32 1.06 1.25 2.65.87 3.1-3.4 3.9-7.02 7.6-10.58 11.25z" class="a"/><path d="M872.4 487.3c3.46-2.3 6.86-4.72 10.43-6.83 1.9-1.12 4.1-1.65 5.8.66l-.5.5a26.37 26.37 0 0 0-4.37 1.1c-3.7 1.6-7.3 3.38-10.95 5.1-.15-.17-.3-.35-.43-.52z" class="Y"/><path d="M928.08 355.38l1.66-1 3.34 1 .4.53 1.3 1.1-.25.57L933 357l-.75-.4z" class="X"/><g class="c"><path d="M922.12,353.25l2.8,1Z"/><path d="M924.86,354.25l1.57.13v.67Z"/></g><path d="M883.86 277.38h-.26l-.25.1.35-1 .23.08z" class="b"/><path d="M926.44,355.05v-.67l1.17,1Z" class="X"/><g class="Y"><path d="M864.1 491.55l1.1-.5.27.3-1.1.54zm3.33-1.55l1.1-.52.26.3-1.1.53a1.2 1.2 0 0 0-.25-.31zm1.1-.56l1.08-.56.28.32-1.1.54z"/><path d="M869.6 488.88l1-.58.33.36-1.1.54zm1.74-.98l1-.6.43.52-1.1.53zm-5 2.6l1.1-.53.25.3-1.1.54-.25-.3z"/></g><path d="M879.06,280.17l-.86.78Z" class="c"/><path d="M873.45 292.63l.7-1z" class="a"/><path d="M865.2 491l1.12-.54.25.3-1.1.53z" class="Y"/><path d="M926.08 418.6l-.68 1.23z" class="g"/><path d="M865.34 303.05l.72-1zm16.4-25.13l-1 .7zm-1.58 1.18l-.57.55z" class="c"/><path d="M836.07 322.38a.35.35 0 0 0-.08-.26h.2z" class="X"/><path d="M864.86 303.62l.5-.6zm17.52-26.14l-.66.46zM866 302.07l.64-.7z" class="c"/><g class="a"><path d="M872.35,293.78l.67-.58Z"/><path d="M873 293.23l.5-.63z"/></g><path d="M880.76 278.6l-.6.53zm52.7 77.34l-.4-.53z" class="c"/><path d="M870.65 488.3l.7-.4.4.44-.75.3z" class="Y"/><path d="M932.26 356.6l.75.4z" class="b"/><path d="M879.6 279.63l-.56.56z" class="c"/><path d="M706.5 319.75L703 325c-3.26 4.13-6.64 8.15-10 12.23-7 8.64-16 14.68-26.1 19a14.92 14.92 0 0 1-5.51 1.14c-.8 0-1.6-1.28-2.4-2a23.28 23.28 0 0 1 2.35-1.16c1.44-.52 3-.8 4.36-1.43a71.12 71.12 0 0 0 23.3-16.23l14.7-15.66a21.15 21.15 0 0 1 2.11-1.76zm-29.04-18.27L688 266.75c2.7 5.37-4.43 31.72-9.64 35z" fill="#0f0f0f"/><path d="M694.23 299.52c-.4 3-1.24 5.14-3.56 6.34a4.43 4.43 0 0 1-6.61-3.93 15.61 15.61 0 0 1 1.83-6.94c1.5-2.9 4.92-2.85 6.58-.06a24.86 24.86 0 0 1 1.76 4.59z" class="g"/><path d="M763.63 642.88c-4.8 1.6-9.5 3.5-14.38 4.77-13.74 3.56-27.78 5.17-41.92 6.3-19.85 1.6-39.14-1.24-58.06-6.85a78 78 0 0 1-23.16-10.7 13.45 13.45 0 0 1-2.38-1.81c-.55-.62-1.3-1.8-1.05-2.23A3.06 3.06 0 0 1 625 631a139.15 139.15 0 0 1 15.71 1.2l36.7 6.54a131.85 131.85 0 0 0 33.68 1q18.24-2 36.42-4.53c4.4-.6 8.67-1.95 13-2.95 3.15-.72 6.2-1.94 9.58-.77 1.16.4 2.68-.06 4-.34s2.34-.14 2.58 1.46c-.57.25-1.13.55-1.7.75-15.67 5.57-32 8.38-48.37 10.4-11.83 1.46-23.9.93-35.87 1.3-1.14 0-2.28.15-3.4.23v.72a22.28 22.28 0 0 0 2.26.31c6 .2 12 .62 18 .5l39.17-1.2c5.66-.35 11.26-1.8 16.9-2.74zM686.1 646l.74-.47-.76-.53h-7.57v.54z" class="c"/><path d="M763.63 642.88c-5.63.93-11.23 2.4-16.9 2.7-13 .7-26.1 1-39.17 1.2-6 .1-12-.3-18-.5a22.28 22.28 0 0 1-2.26-.31v-.72c1.13-.08 2.27-.2 3.4-.23 12-.36 24 .17 35.87-1.3 16.37-2 32.7-4.82 48.37-10.4.58-.2 1.14-.5 1.7-.75a35.17 35.17 0 0 1 5.05-.82c.8 0 2.15.58 2.34 1.2a3 3 0 0 1-1.07 2.44 15.49 15.49 0 0 1-4 2.14l-15.36 5.36z" class="Z"/><path d="M733.1 664.43a4.52 4.52 0 0 1 1.11-.66l33.3-9c5.24-1.46 10.36-3.34 15.56-4.94 3.64-1.13 7.3-2.2 11-3.1.8-.2 1.8.4 2.7.62-.32.88-.4 2-1 2.58a11.22 11.22 0 0 1-3.42 2.14c-11.94 5-24.06 9.25-37 10.63-6.46.68-12.87 1.74-19.3 2.56a12.85 12.85 0 0 1-2.81-.23c-.1-.18-.1-.4-.14-.6z" fill="#0b0b0b"/><path d="M471.62 453.13l-15-4.2-50.42-15.68c-4.25-1.3-8.6-2.3-12.88-3.48a7.25 7.25 0 0 1-2.5-1c-.54-.4-.75-1.27-1.1-1.93a6 6 0 0 1 1.85-.79 8.48 8.48 0 0 1 2.41.39 527 527 0 0 1 73.07 23.31c1.7.67 3.28 1.63 4.9 2.46zm-35.02 9.62c-6.53-1.8-13.12-3.42-19.58-5.45-9.17-2.87-18.25-6-27.35-9.12a23 23 0 0 1-4.16-2c-.42-.25-.54-1-.8-1.55a6.73 6.73 0 0 1 1.62-.7 3.73 3.73 0 0 1 1.59.29q22.1 7.63 44.17 15.33a35.53 35.53 0 0 1 4.74 2.46zm44.88-74.55l-4.4-1.44q-18.63-6.86-37.25-13.75a28.86 28.86 0 0 1-4.95-2.19c-.67-.4-.86-1.6-1.27-2.42.87-.22 1.87-.83 2.58-.58 7.52 2.63 15.07 5.23 22.47 8.2 6 2.4 11.77 5.22 17.6 8 2 .94 3.78 2.26 5.67 3.4z" class="Z"/><path d="M457.2 521.4a35 35 0 0 1-5.05-.84c-6.47-2-12.9-4.2-19.34-6.33a3.68 3.68 0 0 1-1.47-.67 9.6 9.6 0 0 1-1.09-1.67 8 8 0 0 1 1.79-.82 3.2 3.2 0 0 1 1.59.28q11.9 4.5 23.76 9.08zm9.3-154.6l-20.9-6.65c-.67-.22-1.12-1.14-1.67-1.73a13.55 13.55 0 0 1 2.27-1 2.7 2.7 0 0 1 1.59.23q9.6 3.94 19.17 7.93zm3.67 67.57l-10.72-3.72-6.9-2.55c-.5-.2-.7-1.06-1-1.6a16.42 16.42 0 0 1 1.59-.75 1.41 1.41 0 0 1 .81 0 62.81 62.81 0 0 1 16.63 7.61zM452.3 579.5c-6.75-2.28-13.65-4.33-20-7.65l.56-1.34c7.05 1.57 13.3 5.1 19.44 9zm10.92-106.7c-6-.77-11.76-2.1-16.47-6.23 6.25.12 11.46 2.85 16.47 6.23zm25.45-98.72l-11.18-5c-.5-.25-.62-1.33-.9-2 .7-.2 1.6-.75 2.1-.5 3.6 1.92 7.14 4 10.7 6z" class="b"/><path d="M417.86 505.44l.5.2a.88.88 0 0 1 0 .14l-.44-.37z" class="i"/><path d="M458.73 521.6l-.23-.08h.24l-.01.1z" class="b"/><path d="M240 591.2a29.44 29.44 0 0 1-3.38-1.05q-30-13.25-59.9-26.6c-.88-.4-1.42-1.52-2.12-2.3 1.07-.15 2.3-.72 3.18-.38q6.7 2.63 13.25 5.66 22.33 10.35 44.6 20.85a46.88 46.88 0 0 1 4.78 3zm10.34-68.83a51.17 51.17 0 0 1-4.89-1.67q-25-11.4-49.9-22.9a55 55 0 0 1-6.45-3.49c-.75-.48-1.1-1.6-1.64-2.44a26.74 26.74 0 0 1 3.18-.45 3.88 3.88 0 0 1 1.48.64l52 25.45a71.83 71.83 0 0 1 6.59 4.13zM276.86 433l-4.46-1.7c-15.8-6.87-32-12.9-46.92-21.63a7.34 7.34 0 0 1-1.65-.93 9.76 9.76 0 0 1-1.15-1.87c.7-.32 1.47-1 2-.88a26.38 26.38 0 0 1 5.65 1.87l29.44 14.74 14.34 7.2a26.16 26.16 0 0 1 3.3 2.4zm-48.43 130.42l-6.14-2.4-32.47-14c-1.48-.65-3.76-.82-3.62-3.37 1.6.17 3.37-.07 4.76.56q16.86 7.6 33.58 15.52a30.61 30.61 0 0 1 4.27 3zm-22.65-144.67c2.5.66 5.24.9 7.47 2.06 8.1 4.26 16 8.83 24 13.32a16.82 16.82 0 0 1 2.21 2c-1.23 0-1.78.17-2.17 0q-14.6-6.92-29.18-13.9c-1.48-.7-2.56-1.67-2.32-3.5z" class="Z"/><path d="M263.15 474.67a235.34 235.34 0 0 1-38-17.12l.3-1.08a20.86 20.86 0 0 1 4.15.78c3.94 1.62 7.83 3.37 11.68 5.2l18.34 8.95c1.35.67 2.6 1.52 3.9 2.3z" class="b"/><path d="M226.38 539.8a14.58 14.58 0 0 1-2.75-.57l-24.74-10.47a3.06 3.06 0 0 1-1.18-.65c-.7-.87-1.32-1.82-2-2.74 1.06-.1 2.33-.64 3.16-.25l24.76 11.8a17.11 17.11 0 0 1 2.88 2.27z" class="Z"/><path d="M254.07 498.93l-4.35-1.66-20.2-8.84c-.9-.4-1.5-1.55-2.23-2.35 1.12-.28 2.27-.9 3.34-.77a11.59 11.59 0 0 1 3.79 1.46l16.55 8.88a27.52 27.52 0 0 1 3.45 2.68z" class="b"/><path d="M214.14 480.2l-21.75-8.7c-.25-.1-.58-.18-.7-.38-.4-.62-.74-1.3-1.1-2l2.07-.87a.85.85 0 0 1 .53.09c7.3 3.27 14.8 6.1 21.42 10.67z" class="Z"/><path d="M195.82 441.3c6.52.55 11.85 3.88 17 7.7a52.58 52.58 0 0 1-17.58-6.39z" class="b"/><path d="M242.72 437l17.2 8.9-.45.9-17.4-8.54zm-.92.63l-1.6-.6a3.86 3.86 0 0 1 .35-.62l1.5.5zm19.67 9.7a2 2 0 0 1 .41-.1c.05 0 .1.1.16.17a2.09 2.09 0 0 1-.43.11l-.14-.18zm-.67-.5c-.07.05-.15.15-.2.15s-.13-.1-.2-.17.15-.15.2-.15.13.1.2.17z" class="X"/><path d="M691.45 737.7l-20 3.75a71 71 0 0 1-28.12 0 9.55 9.55 0 0 1-3.55-1.27c-.73-.5-1-1.68-1.47-2.55a7.31 7.31 0 0 1 2.62-.72l8.86 1.4c11.36 1.25 22.63.1 33.9-1.26 3.85-.46 7.76-.3 11.65-.45l-2.56.75-1.32.42zm-18.67 12.55l-29-.37a15.61 15.61 0 0 1-5.93-1.77c-1-.44-1.56-1.72-2.3-2.62l.58-.6 10.4 2.1c9.64 2 19.43 1.86 29.2 1.93 1.07 0 2.15.16 3.22.24v.88l-5.1.26z" class="Z"/><path d="M679 750v-.88h11.7zm-6.22.25h1.07l-1 .23a.52.52 0 0 1-.07-.23z" class="X"/><path d="M691.46,737.73l1.32-.42Z" class="Y"/><path d="M631.76 204.23l-10.85 17.44-.78-.2a10.82 10.82 0 0 1 0-2.61c.97-3.68 7.73-12.7 11.63-14.62zm5.24 10.4l-7.45 7c-.47.42-1.4.33-2.1.48.16-.72.07-1.75.52-2.1 2.7-2.16 5.5-4.17 8.28-6.24z" class="f"/><path d="M101.93 577l-5.25-2.36q-16.73-8.46-33.42-17a26.58 26.58 0 0 1-4.85-3.42c-.46-.4-.4-1.4-.56-2.14.67-.13 1.42-.5 2-.32a23.66 23.66 0 0 1 4.51 1.86L97 572a50.93 50.93 0 0 1 5.43 4.11zM97 609.42a32.28 32.28 0 0 1-4.25-1.42q-19.68-9.6-39.28-19.34c-.85-.42-1.28-1.67-1.9-2.53 1-.1 2.3-.6 3.1-.2Q74.55 596 94.3 606.37a19 19 0 0 1 3 2.41zm27.86-51.97l-6.2-3.33-30.84-17.18c-1.25-.7-3.7-1.38-2.6-3.38s3-.38 4.26.37q14 8.43 27.8 17.07l6.6 4.54c.52.36 1 .8 1.46 1.2zM85.88 660.1a24.08 24.08 0 0 1-3.69-1.19q-14.34-7.2-28.63-14.55a10.49 10.49 0 0 1-2.59-2c-.36-.37-.32-1.12-.45-1.7a4.87 4.87 0 0 1 1.69-.26 8.47 8.47 0 0 1 2.26.92l27.7 15.1a36.07 36.07 0 0 1 4 3zM78 622.24a14.38 14.38 0 0 1-3.33-.83l-16.3-8.6c-.75-.42-1.08-1.58-1.6-2.4.93 0 2-.32 2.76.07l16.66 9c.87.47 1.67 1.07 2.5 1.6z" class="Z"/><path d="M88.56 647.3a41.71 41.71 0 0 1-15.22-7.07c3.83-1.37 12.74 3.2 15.18 7.1z" class="b"/><path d="M69 636.28l-13.8-6c-.22-.1-.27-.6-.14-1.3A36.34 36.34 0 0 1 69 636.32z" class="f"/><g class="b"><path d="M90.45 592.17c-4.5-2.34-9.53-3.8-13-7.9 5.37.93 9.23 4.34 13 7.9zM63.5 579.65l-9.55-4.25c-.4-.2-.43-1.17-.63-1.8.57-.1 1.34-.48 1.68-.24 2.86 2 5.65 4.2 8.46 6.32zm20.8-30.33l-6.42-3.16c-.48-.28-.5-1.35-.75-2 .74-.1 1.7-.52 2.18-.2 2 1.28 3.84 2.78 5.75 4.2zM94.53 632l-6.87-3c-.5-.26-.67-1.24-1-1.9.72-.12 1.6-.56 2.13-.3 2.33 1.2 4.9 2.26 5.7 5.2z"/><path d="M88.52 647.34h.14l-.1-.06zM63.45 579.7c.22 0 .44.07.15 0 .25.16.07 0-.1-.06zm31.05 52.37h.04z"/></g><path d="M69 636.32z" class="f"/><path d="M596.8 723.6a8.58 8.58 0 0 1-2.5.66q-10.3-.45-20.58-1.1a6.57 6.57 0 0 1-2.83-.89c-.58-.35-.87-1.2-1.3-1.8.7-.28 1.43-.9 2.06-.8l9.35 1.66 13.92 1.75a12.7 12.7 0 0 1 1.87.52z" class="b"/><path d="M587.7 709.6l-2.88-.77-.5-1.83a4.93 4.93 0 0 1 1.76-.16 40.44 40.44 0 0 1 6.58 2.76z" class="X"/><path d="M534.84 286.48c-3-2.23-5.06-8-4-11.4.24-.74 1-1.3 1.58-1.94.57.6 1.5 1.13 1.64 1.82.86 3.78 2.74 7.52.78 11.5z" class="f"/><path d="M597.38 257.28c0 4.94-3 7-6.8 5.57-4.7-1.74-9.05-7.3-8.78-12a8.25 8.25 0 0 1 2.44-5.3c1.7-1.47 4-.6 5.73.8 3.76 3.08 7.02 6.56 7.4 10.92z" class="i"/><path d="M871 488.66l.75-.3 1.1-.53 10.95-5.1a26.37 26.37 0 0 1 4.37-1.1 18.4 18.4 0 0 1-3 3c-3.4 2.08-6.9 4-10.43 5.88q-18.93 9.94-37.92 19.74a18.15 18.15 0 0 1-5.91 1.75c10.54-7.86 22.12-13.83 33.52-20.1l1.1-.54 1.1-.53 1.1-.54 1.1-.53 1.1-.54z" class="Z"/><path d="M597.17 715.77c-5.67 1.6-11.22.47-16.74-.25-.78-.1-1.43-1.27-2.14-1.94.92-.36 1.9-1.13 2.75-1 4.27.7 8.5 1.6 12.75 2.46 1.06.2 2.1.45 3.38.73z" class="b"/><path d="M686.1 646l-7.6-.46V645h7.57l.03 1z" class="X"/><path d="M686.1 646v-1l.76.53z" class="Z"/></svg>