<svg xmlns="http://www.w3.org/2000/svg" viewBox="0 0 539.74 623.96"><defs><style>.cls-1{fill:#fcfcfc;}.cls-2{fill:#0b0b0d;}.cls-3{fill:#f0f0f4;}.cls-4{fill:#e4e3f1;}.cls-5{fill:#fdfdfd;}.cls-6{fill:#7b73fa;}.cls-7{fill:#7a73ef;}.cls-8{fill:#0f0f0f;}.cls-9{fill:#fcfcfd;}.cls-10{fill:#fbfbfc;}.cls-11{fill:#7b72fa;}.cls-12{fill:#fafafa;}.cls-13{fill:#fbfbfb;}.cls-14{fill:#7b72f9;}.cls-15{fill:#efefef;}.cls-16{fill:#f9f9f9;}.cls-17{fill:#f7f7f7;}.cls-18{fill:#f3f3f5;}.cls-19{fill:#7971f6;}.cls-20{fill:#f6f6f6;}.cls-21{fill:#f5f5f5;}.cls-22{fill:#f4f4f4;}.cls-23{fill:#7d75f8;}.cls-24{fill:#ededee;}.cls-25{fill:#f3f3f3;}.cls-26{fill:#414141;}.cls-27{fill:#232323;}</style></defs><title>Asset 1</title><g id="Layer_2" data-name="Layer 2"><g id="Layer_2-2" data-name="Layer 2"><polyline class="cls-1" points="428.95 31.01 534.92 0 534.92 598.66 435.64 574.98 428.95 31.01"/></g><g id="Layer_0_Image" data-name="Layer 0 Image"><path class="cls-2" d="M211.64,622.76c-1.1-.1-2.2-.3-3.2-.4-.4-.1-.7-.1-1.1-.2-5.8-1.8-11.7-3.4-17.4-5.3-3.3-1.1-6.5-2.9-6.5-7.3-15.3,8-31,8.6-47.2,4.7-4.9-1.2-9.1-3.7-13.3-6.5-3.2-2.1-3.4-4.5-2.9-7.2,2.5-13.7,4.8-27.4,7.9-40.9a23.48,23.48,0,0,0-.8-14c-.9,1.2-1.4,2.1-2.1,2.9-11.1,12.2-24.4,20.5-40.8,23.4a28.15,28.15,0,0,1-6.5.7c-1.2-.1-3-1-3.3-2s.7-2.8,1.6-3.5c3.1-2.3,6.5-4.2,9.8-6.4,9.5-6.2,18.8-12.7,26.6-21.1a14.62,14.62,0,0,0,1.6-1.9c.1-.1,0-.3-.1-1-1,.3-1.8.6-2.7.9a86.63,86.63,0,0,1-24,5.7c-2.9.3-5.4-.2-7.3-3-1.3-1.9-3.6-3-5.3-4.6a22.15,22.15,0,0,1-2.5-3.5c-.1-.4-.3-.7-.4-1.1h0c-.3-3.1-.6-6.3-.9-9.4,0-.3.1-.5.1-.8a2.51,2.51,0,0,0-.4-.7h0c-.2-.2-.4-.3-.6-.5h0l-1-.7h0c-.2-.2-.4-.3-.6-.5h0c-.2-.2-.4-.3-.6-.5h0c-.5-.4-1.1-.8-1.6-1.2h0c-.2-.2-.4-.3-.6-.5h0c-.2-.2-.4-.3-.6-.5h0a5.8,5.8,0,0,0-1-1.2c-11.9-10-22.3-21.6-32.2-33.5-5.6-6.7-10.5-14.1-15.7-21.2a130.09,130.09,0,0,1-15.1-43.2c-1.9-12.5-.6-24.8,1-37.2,1.3-10,4.2-19.3,9.9-27.7,5.6-8.2,13-14.4,21.3-19.6a151,151,0,0,1,15.2-8.5c15.1-7.4,31.1-8.4,47.3-5.3,12.8,2.4,25.6,5.4,38.3,8.2,3,.6,6.1,1,9.1,1.7,2,.5,3.1.2,3.5-2a6.94,6.94,0,0,1,.5-1.3c3.8-9.3,10.3-12.6,20-9.7a12.81,12.81,0,0,0,1.1-2c3.4-13.5,6.5-27.1,6.3-41.1,0-3-1.1-6.1-1.2-9.1a13,13,0,0,1,1.2-6.5,61,61,0,0,1,18.8-21.6,7.41,7.41,0,0,0,2.6-3.7c2.1-7.3,6.7-12,14.1-13.6,4.3-.9,8.3.8,11.8,3.2a6.07,6.07,0,0,0,4.7,1.1c3.6-.5,7.2-.7,10.8-1,1.5-.1,2-.8,1.9-2.3-.8-22.1-1.4-44.1-2.2-66.2-.6-18.1-1.2-36.1-1.9-54.2-.1-3.1,1.5-4.2,4.1-5.1q75.45-24.75,150.7-49.6Q455.54,22.51,521,.86c1.7-.6,4-1.9,4.9.7s-1.8,2.9-3.5,3.5q-41.25,13.65-82.5,27.1c-4.6,1.5-4.6,1.5-3.8,7.1.9-.3,1.9-.5,2.8-.8,28.5-9.3,57.1-18.6,85.6-27.8.8-.3,1.5-.6,2.3-.9,2.5-.9,3.4-.1,2.9,2.7-1.4.4-2.8.8-4.1,1.3q-43.35,14.1-86.8,28.1c-2.1.7-2.9,1.5-2.9,3.9.6,24.5,1,49.1,1.5,73.6.1,4.1,0,8.1,0,12.6,7.7-2,14.6-3.8,21.7-5.6-1.6-7.7-3.1-15.1-4.6-22.6-.5-2.6.7-4,3.4-4,1.5,0,3,.1,5,.2-.6-3.1-1.2-5.9-1.7-8.7s.2-3.4,2.9-3.7c3.1-.4,6.2-.9,9.7-1.4-1-3.8-1.9-7.1-2.8-10.4-1-3.5-.6-4.6,2.8-5.9,4-1.5,8.2-2.8,12.4-4.3-.3-1.2-.6-2.5-.9-3.8-.7-3.7-1.5-7.3-1.9-11a3.51,3.51,0,0,1,1.7-2.8c5.7-1.8,11.5-3.3,17.2-4.9,5-1.4,9.9-2.9,14.9-4.1.9-.2,2,.4,3,.7A192.06,192.06,0,0,1,486.14,51c6.1,21.5,7,43.7,8.2,66.2,15-4,30.2-8,45.3-12v2.7c-24.7,6.4-49.3,12.7-74,19.1-9.3,2.4-18.6,4.8-27.8,7.3v4.9c8.5-2.1,16.8-4,25.1-6,19.3-4.8,38.5-9.7,57.7-14.5,6.3-1.6,12.6-3.1,19-4.6v2.7c-4.4,1-8.7,1.9-13.1,2.9-28.4,7.1-56.8,14.3-85.2,21.3-2.9.7-3.6,1.9-3.5,4.7q1.5,78.75,2.8,157.6c0,.7.1,1.4.2,2.4,5.1-.2,10-.4,14.5-.6,0-7.6.4-14.7-.1-21.9-1.2-19-2.7-38.1-4.2-57.1-.4-4.6-1.1-9.2-1.4-13.8-.3-3.8.9-4.9,4.6-5.1,2-.1,3.9-.2,6.2-.4-.7-4.3-1.3-8.3-2-12.2s-.5-4.1,3.4-4.8c3.4-.6,6.8-1.2,10.4-1.8-.3-4.1-.6-8-1-12-.2-2.2.7-3.4,2.9-3.8,3.3-.6,6.5-1.3,9.9-2-.1-3.4-2-6.1-3.8-8.8-.5-.8-.3-2.1-.5-3.2a15.26,15.26,0,0,1,3-.3c1.4.1,2.8.7,4.3.8,11.1.6,21.3-3.8,31.9-6.2-.1-1.5-.1-2.6-.2-3.8-.2-4.1.7-5,4.9-4.7,1.7.1,3.4.2,5.1.4.7.1,1.5.1,2.2.2,1.6.4,4.3-.3,4.1,2.3-.2,2.2-2.6,1.8-4.3,1.7-2.8-.1-5.5-.5-8.4-.8.4,6.3.7,12.3,1.2,18.3.9,9.3,2.3,18.6,2.9,27.9.8,11.9,1.2,23.8,1.4,35.7.3,22.3.3,44.5.3,66.8a5.4,5.4,0,0,1-1,2.2c-.5-.7-1.3-1.4-1.3-2.2-.8-18-1.8-35.9-2.3-53.9-.3-9.8.4-19.6.2-29.4-.1-6.7-.8-13.3-1.3-20.1l-11,1.9c4.3,35.8,4.8,71.6,2.7,107.7,5-.3,10.3-.6,15.5-.8.8,0,1.7.8,2.5,1.3-.8.5-1.6,1.4-2.5,1.5-12.2.7-24.5,1.3-36.7,1.8-10.2.4-20.5.7-30.7,1.2-7.1.3-14.3.8-21.5,1.2v6.7h2.9c27.7-.3,55.4-.7,83.1-1,.9,0,1.8.7,2.7,1.1-.6.6-1.2,1.3-1.8,1.9-.4,0-.7-.1-1.1-.1l-83.6.6a15.17,15.17,0,0,0-2.1.3c0,.6-.1,1.1-.1,1.5q1.35,66.6,2.5,133.3c0,1.8.8,2.3,2.3,2.6,6.2,1.2,12.4,2.6,18.6,3.9,1.4.3,2.8.5,4.3.8-.6-7.3-1.1-14.3-1.7-21.2-1.9-20.8-3.7-41.6-5.7-62.4-.4-3.8.2-4.8,4-5a45.53,45.53,0,0,1,6.1.4c-.9-3.2-1.8-5.9-2.5-8.7s-.2-3.5,2.6-3.5h14.9c-.8-3.6-1.5-6.7-2.2-9.9-.5-2,.2-2.7,2.2-2.6a40.06,40.06,0,0,0,6,0,74.77,74.77,0,0,0,10.4-1.6c5.4-1.1,11-.8,16.5-1a13.73,13.73,0,0,1,2.8.5v.9a42.74,42.74,0,0,1-4.8,1.3c-2.9.3-5.8.3-8.7.6a7.57,7.57,0,0,0-1.8.9c-6.3.7-12.6,1.3-18.8,2,6.5,37.7,2.4,75.6.7,113.6l13.1,2.8c.5-18.8,1.1-37.2,1.2-55.7,0-8.1-1.1-16.3-1.7-24.5-.2-3.4.3-3.9,3.6-3.7,1.8.1,3.6.2,5.4.2h6.9c.1.5.1.9.2,1.4-2,.5-4.1,1.3-6.1,1.6a56.83,56.83,0,0,1-7.2.1c3.5,27.2,1.7,54-.1,81.1,5.3,1,10.5,1.9,15.7,3.1.9.2,1.5,1.6,2.2,2.4-1,.4-2.1,1.2-3,1-19.1-4.1-38.3-8.4-57.4-12.6-6-1.3-12-2.4-18.1-3.7,0,2.1.1,3.9,0,5.7-.2,2,.7,2.6,2.5,3,24.8,6,49.5,12.1,74.3,18.2a8.87,8.87,0,0,1,2.9.8c.7.4,1.1,1.4,1.7,2.1a10.08,10.08,0,0,1-2.6,1.2,10.93,10.93,0,0,1-2.4-.4c-.2-.1-.5-.3-.7-.4l-72.9-18c-.8-.2-1.5-.2-2.6-.4v3.2c.2,10.7.4,21.4.6,32.2.3,16,.5,32,.8,48,0,.9.5,2.3,1.2,2.6,4.2,1.8,8.6,3.3,13.2,5,.1-1.4.2-2.5.2-3.5-.2-10.2-.4-20.3-.8-30.5-.2-5.7,1-7.7,6.5-9.3,1.5-.4,3.1-.6,4.8-.9v-1.7c-.5-6.1-1-12.1-1.5-18.2-.2-1.8-.4-3.8,2.3-3.4,6.6.9,13.1,1.9,19.6,3,1.4.2,2.5,1.4,3.8,2.2a15.14,15.14,0,0,1-3,.2c-6.5-.6-13.1-1.3-19.8-2,2.5,13.9,1.5,27.8,1.7,41.6.1,8.2.2,16.4.2,24.5,0,2.5.5,4.4,3.4,5,.7.1,1.1,1.6,1.7,2.5-1,.2-2.2.8-3.1.5-7.3-2.6-14.6-5.4-21.9-8.2-2.8-1-5.5-2.1-8.5-3.3-.2,3.7-.4,7.1-.6,10.6,9,3.6,18,7.2,27,10.9,4.7,2,9.3,4.2,13.8,6.4,2.5,1.2,1.8,3.6,1.3,5.3-.6,1.9-2.6,1.6-4.2,1a11.92,11.92,0,0,1-2-.8q-86.25-35-172.4-69.8c-18.3-7.4-36.6-15.1-54.9-22.7-3.6-1.5-5.4-3.8-5.5-7.8-.1-9.2-.6-18.4-.9-27.5-.8-26.2-1.7-52.3-2.5-78.5,0-.9-.1-1.9-.2-3.3l-8.1,6.5a2.13,2.13,0,0,0-.7,1.5c.5,4.2,1.1,8.5,1.6,12.7a154.31,154.31,0,0,1-.1,44.5c-2,12.4-6.2,24.1-10.2,35.8a99.92,99.92,0,0,0-4.1,14.9,11.3,11.3,0,0,0,1.5,6.9c3.3,5.9,3,8.8-2.4,12.7-.1.1-.1.3-.2.5.8,1,1.6,2.1,2.5,3.1,7,7.9,12.6,16.9,20.5,24.1a5,5,0,0,1,1,2.2c.3,1.4.4,2.9.6,4.3,1.1,11.5,2.1,23,3.1,34.5.7,7.9,1.3,15.7,2.1,23.6.3,3.3-1.1,5.2-4.1,6.1-7.1,2.1-14.2,4.2-21.3,6.2h-8.8c-1.5-.1-2.9-.2-4.4-.4C212.44,622.86,212,622.86,211.64,622.76Zm-4.8-353.9h0a2.65,2.65,0,0,0-.6-.5l-.1-.1-.5-.5-.1-.1-.5-.5c-.6-.7-1.2-1.5-1.8-2.2-.1-.2-.3-.3-.4-.5a46.05,46.05,0,0,1-7.9-20.2c-.1-1.8-.2-3.6-.3-5.9-6.9,6.3-12.8,12.4-17.2,20a7.94,7.94,0,0,0-1,6.2,34.74,34.74,0,0,1,.8,7.3c.4,12.8-1.8,25.3-5.2,37.6-.5,1.7-.3,2.8,1.2,3.6,2.9,1.6,5.8,3.2,8.8,4.8.6.2,1.1.5,1.7.7,8.8,5.1,18.5,6.6,28.5,6.9,3.1.1,6.2.5,8-2.9.2-.4.9-.6,1.3-.9,5.1-3.5,10.4-6.7,15.2-10.5,13.5-10.6,22.3-24.3,26.6-41.7-1.5.1-2.8-.2-3.7.3a34.52,34.52,0,0,0-5.6,3.8c-8.4,6.5-17.8,9.9-28.5,7.9-2.7-.5-4.7-.9-6.4,1.8-.3.6-1.7.5-2.6.7-.1-1-.6-2.2-.2-2.9a38.33,38.33,0,0,1,3.3-4.6c1.5-.3,3.3-4,4.5.3.1.2.6.2,1,.3a33.56,33.56,0,0,0,27.2-6.4,36,36,0,0,1,4-2.8c4.7-2.7,7.3-2.3,10.9,1.8,1.1,1.3,2.1,2.7,3.3,4,.4.5,1,.9,1.5,1.4,4.4-5.4,7.9-22.9,2.7-31.7a17.47,17.47,0,0,0-6.4-9.8c-4-3.2-8.8-4.5-13.4-6.5-9.4-4-19.1-1.2-29.3-2.4,1.5,1.9,2.5,3.2,3.5,4.4a42,42,0,0,1,6.9,25.3c-.7,12.5-7.1,19.4-18.7,20-.3-.1-.7-.1-1-.2-1.5-.5-3-1-4.4-1.4-.2-.1-.5-.2-.7-.3a10,10,0,0,0-1.4-.8h-.1l-1.5-1.2c-.2-.2-.4-.3-.6-.5a2.18,2.18,0,0,1-.5-.4l-.1-.1C207.14,269.16,207,269.06,206.84,268.86Zm147.1-8.8h0c.3.2.6.5.9.7,1.2,1.1,2.3,2.2,3.5,3.3a4,4,0,0,1-2.9-.1c-6.4-2.8-12.7-5.6-19-8.4-.6-.4-1.3-.8-2.1-1.3-1,2.3-2,4.2-2.7,6.3s-2.2,3-4.6,2.9c-4-.2-8.1,0-12.4,0-.3,1.5-.6,3.3-.9,5.1v.1c-.1.5-.3.9-.4,1.4-1.2,5-2.4,10-3.7,15a55.39,55.39,0,0,1-2.1,5.7,2.92,2.92,0,0,0-.9-.2c1.4-9.1,2.9-18.3,4.3-27.6-9.9-.5-19.9-.9-29.7-1.4-.8,2.9-1.7,5.8-2.5,8.7a2.89,2.89,0,0,0,.2,1.8c1.5,3.4,3.1,6.8,4.5,10.2,1.5,3.8,2.8,7.6,4.2,11.4a3,3,0,0,0,.5-.7c1.7.7,3.7,1.1,5,2.3a47.36,47.36,0,0,1,6.5,6.9,73.28,73.28,0,0,1,4.5,6.4c1.3-.9,2.5-1.8,3.7-2.6a4.18,4.18,0,0,0,1-.4c20.8-11.9,41.5-23.8,62.3-35.8a13.28,13.28,0,0,0,1.6-1.2q-10.2-26.7-20.4-53.1c-.4-1.1-.8-2.2-1.1-3.2-5.2,13-10.3,25.8-15.5,38.8,5.9,3,11.6,5.9,17.3,8.7h0A1.56,1.56,0,0,1,353.94,260.06Zm-21.8-10.8c.4-.9.8-1.8,1.1-2.7h0a5.38,5.38,0,0,0,.9-1.2c3.5-8.4,7-16.7,10.3-25.1.8-2.1,1.2-4.3,1.9-6.5v.1c.2-.4.3-.9.5-1.3l.3-1.2v-.7l-.6.3c-.9.5-1.8.9-2.6,1.4-20.7,11.8-41.4,23.5-62,35.3-.2,3.8-.4,7.6-.5,11.3,14.5.4,28.5.7,42.6,1.1,4.8.1,4.8.1,5.9-4.8h0c.2-.5.5-1.1.7-1.6v.1c.5-1.6,1-3,1.5-4.5Zm-242,314.6a6.12,6.12,0,0,1-1.2.5c-.8.5-1.6,1-2.5,1.5a1.21,1.21,0,0,0,1.2.3,62.7,62.7,0,0,0,27.1-14.5,23.22,23.22,0,0,0,2.2-3c1.2-.8,2.7-1.4,3.6-2.5,5-6.1,9.8-12.4,14.7-18.5a37.6,37.6,0,0,1,4.1-3.8c.2.1.3.3.5.4.1-1,.3-1.9.5-3.4-1.1.8-1.9,1.3-2.6,1.8-3.8,2.5-7.4,5.3-11.4,7.4-3.1,1.7-5.4,3.7-6.8,7a12.58,12.58,0,0,1-3.3,4.6q-8.55,8-17.4,15.6a71,71,0,0,1-8.7,6.6Zm43.1,32.9c-4.2.6-7.1,3-10,6.9,4.4,1.8,8.2,3.5,12.1,5.1l11,2.8c-.7-5.1-2.1-9.1-5-12.5A7.29,7.29,0,0,0,133.24,596.76ZM204,604c-5.5-2.7-13.4,1.6-14.4,8.5l15.3,4.5c2.5.5,5,.9,7.6,1.4C212.64,612.16,209.74,607.36,204,604Zm45.8-416.3a41.26,41.26,0,0,1,4.5-1.7c18.2-4.7,36.4-9.3,54.6-14,3.3-.8,3.5-1.2,2.2-4.7a11.63,11.63,0,0,0-1.8.4c-9.8,2.6-19.6,5.1-29.4,7.7-8.4,2.2-16.8,4.5-25.2,6.7-1.4.4-3.1,0-4.6-.1a12.11,12.11,0,0,1,2.8-1.8c5-1.4,10-2.7,15-4s9.8-2.6,14.9-3.9c-2.8-12.3-5.3-24.4-11.1-35.5-1.6-3.1-1.2-3.8,2.3-4.5,4.1-.8,8.2-1.7,12.5-2.6-.4-1.1-.5-1.6-.7-2.1-2.3-4.1-4.7-8.2-7-12.3a4.34,4.34,0,0,1-.5-2.5c0-.3,1.2-.5,1.9-.6,9.3-.8,18.5-1.6,28-2.5-.4-8.6-.8-16.7-1.2-24.9a19.27,19.27,0,0,0-2,.5q-28.2,9.15-56.5,18.3c-1.8.6-2.1,1.5-2.1,3.2.4,13.6.8,27.2,1.2,40.9.4,11.3.8,22.7,1.2,34,0,1.9-.1,3.8-.1,5.7,0,.4.1.8.1,1.3.3,10.9.6,21.8,1,32.8,13.6,3.3,26.6,7.3,30.2,23.3,4-2.8,7.4-5.5,11.1-7.8,6.9-4.5,14-8.8,21-13.1a4.17,4.17,0,0,0,2.4-4.3c-.7-11.3-1.3-22.7-1.9-34-.2-3.9-.5-7.7-.7-11.8-1.1.2-1.9.3-2.7.5-9.6,2.4-19.1,4.9-28.8,7.2-10.2,2.4-20.4,4.7-30.6,7.1Zm-122.1,336.5c.4-.2.7-.4,1.1-.6,2.8-1.9,5.7-3.6,8.3-5.7,28.4-22.6,46.2-52,55.4-86.8,5.8-22.2,7.1-44.6,1.2-67.1-2.8-10.7-7.2-20.7-14.2-29.5-1.9-2.3-3.7-4.6-5.8-6.8-2.3-2.4-5-4.5-7.2-7-1.9-2.1-4.4-3.4-7-2.9-4.6,1-9.9,7-10.3,11.9,4.9.9,9.7,1.1,14.5-.6,1.9-.7,3.9-1.1,4.2,1.9a20.29,20.29,0,0,1-2.6,1.8,22.77,22.77,0,0,1-13.6,1.3q-18.75-3.6-37.2-7.8c-14.1-3.2-28.2-6.4-42.8-5-8,.8-15.8,2.5-22.6,7a17.42,17.42,0,0,1-2.2.5c-6.4,4.1-13,7.9-19.1,12.5a51.54,51.54,0,0,0-19.3,29.1A107.08,107.08,0,0,0,6.34,383c-1.4,10.8-2.3,21.7-.6,32.6.1.2.1.5.2.7a21.66,21.66,0,0,0,.4,2.5,6.37,6.37,0,0,1,.2.7c2.2,12.6,6,24.8,12.8,35.7a230.19,230.19,0,0,0,63.1,67.7,7,7,0,0,0,1,.8c.8,1.2,1.5,2.4,2.3,3.6l-3.2.3c-2.7-1.7-5.5-3.3-8.6-5.2.2,2.7,0,4.9.7,6.8a24,24,0,0,0,3.6,5.9c.5.7,2.3.4,2.7,1.1,1.9,3.1,4.6,3.7,7.8,3,7-1.7,14.1-2.9,20.7-5.4,6.3-2.5,12.2-6.4,18.3-9.6Zm144.7-220.6h.7c-.1-.2-.2-.3-.3-.5a49.61,49.61,0,0,0-4.9-5.3c-2.8-2.3-4.1-2-6.3.9a13.7,13.7,0,0,1-7.3,5.3,21.6,21.6,0,0,0-8,4.4,84.41,84.41,0,0,1-19,13c1.3,1.4,2.8,2.9,4.3,4.6-.1,0,.3-.1.7-.4,9.5-5.4,18.4-12,28.9-15.5a2.73,2.73,0,0,0,1.1-1.6c1.5-7.2,2.9-7.9,9.6-5A.9.9,0,0,0,272.44,303.56ZM215,222.16c-7.4-2.3-10.3-.8-14.3,5.8a16.62,16.62,0,0,0-2.1,5.9c-2,12,1.2,22.6,9.7,31.2,2.2,2.2,5.3,3.7,8.3,5a7.85,7.85,0,0,0,7.8-.7c4.2-1.7,6-5.4,7.2-9.3,3.4-11.2-1.3-26.7-10.4-34.2-.8-.6-1.7-1-2.4-1.5a9.29,9.29,0,0,1,.5-1C217.84,223,216.44,222.56,215,222.16ZM407.34,446a23.76,23.76,0,0,1-.6-3.7c-.1-15.5.1-31.1-.3-46.6-.3-13.2-1.2-26.4-1.8-39.8-1.7-.1-3.1-.2-4.6-.3s-3-.2-4.2-.3c-.5,29.8-1,59.4-1.5,89.2,4.2.9,8.5,1.7,12.8,2.6,4,.9,7.9,1.8,11.8,2.7v-92.4c-3.7-.4-6.9-.8-10.4-1.2.2,2.3.4,4.2.5,6.2.7,20.8,1.4,41.6,1.9,62.4.2,5.6,0,11.3,0,16.9C410.94,445,409.94,446.16,407.34,446Zm-87.6-88.8v-38.5c-3,.2-5.4.3-7.8.4,0-.1-.1-.2-.1-.3,0,.1-.1.1,0,.2s.1.1.2.1c1.4,3.1,2.8,6.3,4,9.4,1.4,3.7,1.1,4.4-2.1,6.6-5.8,4-11.7,8-17.6,11.8-2.8,1.8-5,3.6-5.3,7.5-.2,3.4-2.1,4.2-5.4,3.4-1-.2-1.9-.7-2.9-.9a3.24,3.24,0,0,0-2.2.3c-7.7,5.3-15.4,10.6-23,16a4.3,4.3,0,0,0-1.4,3.1c.2,6,.6,12,.9,18,.4,7.1.8,14.3,1.2,21.4,8.2,1.7,16.1,3.3,24.2,4.9a7.38,7.38,0,0,0,.2-1.2c-.4-12.4-.7-24.8-1.1-37.3-.1-2.8.6-3.7,3.3-3.7h5.3v-7.8c0-3,.5-3.5,3.5-3.5H302c.1-1.5.1-2.6.2-3.8.3-3.6.8-4,4.3-3.9,3,.1,6.2.8,8.9-1.3.4-.3,1.2-.1,1.8-.1,0,.3.2.8.1.9-2.3,1.5-3,3.5-2.8,6.2.5,8.1,1.1,16.1.9,24.2-.2,12.7-.9,25.3-1.4,38.2,2,.4,4.2.9,6.7,1.4,0-.8.1-1.3.1-1.7-.3-23-.6-45.9-1-68.9A2.08,2.08,0,0,0,319.74,357.16Zm-186.6,235.9c8.5-1,12.7,4.1,15.4,11.4,3.4-4.9,8.1-6.7,13.2-7.8,5.6-1.1,9.9.8,13,5.3,1.6-2.3,3.2-4.4,4.6-6.5a6.47,6.47,0,0,0,1.3-3.1c0-9.3-.1-18.5-.2-27.8v-7.7c-6.4.3-12.8.6-18.9-1.3v-1c6.4-.4,12.8-.8,19.8-1.2a8.29,8.29,0,0,0-1.3-1.1c-6.8-3.6-13.1-7.7-18.4-13.3a2.05,2.05,0,0,0-1.7-.5l-21.6,2.7c-1.4-.1-2.9,0-4.3-.2-3-.4-3.7.2-2.9,3.3s1.8,6.3,2.5,9.5a9.08,9.08,0,0,1-.3,4.3c-.6,2-1.7,3.9-2.2,6-1.5,6.6-2.8,13.3-4.1,20-.8,4.1-1.3,8.3-2,12.4C127.84,595.26,130.54,594.16,133.14,593.06Zm69.8,6.1c4.5,1.8,8.3,4.4,10.7,9.3,1.7-7.6,6.3-11.3,13.2-12.2,7.1-.9,9.4,5,12.2,9.3,1.5-2.9,2.7-6.1,4.7-8.7a6.14,6.14,0,0,0,1.4-5.1c-1.1-10.9-2.2-21.9-3.2-32.8l-.9-9.3c-6.2.5-12,2-17.9.8,0-.2-.1-.5-.1-.7l15.7-3.3c-7.5-8.6-14.9-17-21.8-25-6.4,2.6-12.5,5.5-18.8,7.5-6.5,2.1-13.3,3.6-20,5.3-4.1.9-8.3,1.8-12.9,2.8a14.45,14.45,0,0,0,1.9,2.1c5.1,3.4,10.2,6.7,15.2,10.1a3.6,3.6,0,0,1,1.6,2.4,138.49,138.49,0,0,1,.4,14.4,258.66,258.66,0,0,0,2.5,42.1C190.64,602.16,195.44,598.26,202.94,599.16Zm149-164.3a12.81,12.81,0,0,1-1.4-3.7c-.3-3.3-.3-6.5-.5-9.8-1.1-23.1-2.1-46.3-3.3-69.4-.1-2.1.6-3.4,2.6-3.8a64.11,64.11,0,0,1,9.6-1.6c19.4-1.6,38.7-3.1,58.1-4.7,4.3-.3,8.6-.7,12.7-1v-23c-33.2.3-65.9.6-98.8.8V321c.5,19.8.9,39.6,1.4,59.4.4,16.2.7,32.3,1.1,48.5,0,1,.5,2.7,1.1,2.9,5.7,1.3,11.5,2.4,17.3,3.5,3.4.8,6.9,1.7,10.4,2.5v-84.3a41.42,41.42,0,0,1-6.1-.1,46.9,46.9,0,0,1-5.8-1.7c2.4,27.7,3.9,55.6,3.2,83.6A12.44,12.44,0,0,0,351.94,434.86Zm-156.7,3.4a4.35,4.35,0,0,0-.4.7c-10,31.5-26.7,58.5-52.1,79.9-.4.4-.4,1.3-.6,2-.6,2.2-.7,4.6-1.7,6.6-1.7,3.2-3.9,6.1-6.3,9.8l5-.7c4-.3,8.1-.2,11.9-1,15.7-3.4,31.4-6.6,46.9-10.9,7.5-2.1,14.3-6.5,21.4-9.9,3.4-1.6,3.9-3.1,1.7-6.2-2.8-3.9-2.9-8.1-2.1-12.5a68.39,68.39,0,0,1,2.3-8.9c3.3-10.9,7.1-21.6,9.9-32.6,4-16.3,4-32.9,2-49.6-.5-4-.6-8-.9-12.1-2.8,2.1-5.5,4-8.1,5.9-.3-.3-.5-.6-.8-.9,3.4-3.8,6.4-8,10.2-11.4a234,234,0,0,1,34.7-25.4c4.3-2.6,8.2-5.6,12.3-8.5,2.5-1.8,2.8-1.7,3.5,1.2,1.2.2,2.4.5,3.8.7.2-1.3.5-2.3.6-3.2.1-1.6.3-3.3.3-4.9-.7-11.7-4.5-22.5-9.5-33a16.35,16.35,0,0,0-8.5-7.9c-4.2-1.9-5.3-1.2-5.2,3.5a4.25,4.25,0,0,0,.2,1.1c-.7.8-1.2,1.8-2.1,2.3-8.1,4.4-16.5,8.3-24.3,13.2-12.6,7.9-24.9,16.5-37.3,24.8-.2.1-.5.3-.7.4-1.5.7-2.9,3.5-4.5,1.6-1.4-1.8,1.1-3.2,2.5-4.1,8.2-6,16.5-11.8,24.8-17.7a21.93,21.93,0,0,0,3.9-2.9c1.3-1.3,1.2-2.6-.7-3.4-.6-.3-1.2-.5-1.7-.8-2.5-1.2-3.5-.8-4.4,2l3,.3a27.41,27.41,0,0,1,2.8.5,4,4,0,0,1-2.3,1.5c-12.7,3.1-25,1.5-36.9-3.7-2.2-.9-4.3-2-6.4-3-3.5-2.2-7-4.3-10.6-6.6-.3.6-.9,1.4-1.4,2.4,1.2,1.2,2.4,2.1,3.4,3.3q3.15,3.45,6,7.2c1.3,1.6,2.3,3.4,3.5,5,3.9,6.6,8.4,13,11.5,20,7.5,17.2,8.9,35.4,7.6,53.9a108.83,108.83,0,0,1-1.4,14C198.64,426.26,196.84,432.26,195.24,438.26Zm129.2-223c.4.1.7.1,1.1.2,4.9-3,9.7-6,14.6-9,3.6-2.2,7-4.6,10.7-6.5,4.1-2.1,6.8-1.7,7.7,2.7.5,2.8,2,5.4,3.3,8,6.4,12.8,12.1,25.8,15.2,39.9.5,2.1,1.3,4.2,2,6.3.3,0,.5-.1.8-.1a12.5,12.5,0,0,0,.3-1.9c-.3-5.1-.5-10.2-.9-15.2-.2-3.6-.7-7.2-.9-10.9-.1-2.9,1.4-4.8,4.3-5.5a40.82,40.82,0,0,1,5.2-.7c-.4-7.9-.9-15.8-1.3-23.6-.2-3.9.2-4.3,4-4.3h10.8c-.3-4.4-.6-8.5-.8-12.6-.1-3.1.7-3.8,3.8-3.9h10.1a4.49,4.49,0,0,0,1.9-.5c1.3-.6,2.4-1.6,3.7-2,2-.7,4.2-1,5.8-1.4v-29H425q-49.95,12.45-99.8,25c-1.8.4-2,1.4-1.9,2.9q.75,15,1.2,30C324.54,207.16,324.44,211.16,324.44,215.26Zm99-168.3c-1.6.5-2.8.8-3.9,1.1-32.4,10.5-64.9,21.1-97.3,31.5-2.6.8-3.2,2-3.1,4.6,1.2,24.5,2.3,49,3.5,73.5.1,1.2.1,2.5.2,4,11.2-2.9,22-5.8,32.9-8.6-1-6-1.9-11.6-3-17.3-1.5-7.5-1.4-7.6,6.3-8a15.55,15.55,0,0,0-.8-2.3c-1.2-2.5-2.4-5.1-3.8-7.5s-.9-4.2,1.9-4.8c1.7-.4,3.5-.4,5.6-.7-2-3-3.8-5.7-5.6-8.5-2-3.1-1.3-5.1,2.4-5.5,4-.5,8-.7,12.2-1-.8-2.8-1.7-6.1-2.6-9.3-.5-1.8.1-3,2-3.4,7.7-1.9,15.4-3.8,23.3-5.8-.1-1.4-.2-2.6-.3-3.7-.3-3.5.1-3.8,3.5-3.3a6.16,6.16,0,0,0,2.7.1q12.15-1.5,24-3C423.44,62,423.44,54.76,423.44,47Zm99,142.6c-1.2-11.5-2.3-22.3-3.4-33.4-10.9,2.8-21.6,6.6-33,5.4.8,2.9,1.9,5.4,2.1,8,1.1,9.5,2.2,19,2.7,28.5.7,13.1,1,26.3,1.5,39.5.8,21.5,1.5,43,2.3,64.5a6.15,6.15,0,0,0,.3,1.1c5.7-.3,11.2-.5,17.1-.8,0-8.9.2-17.5,0-26.1-.5-20.7-1-41.4-1.7-62.1-.2-6.7-1.3-13.4-2.1-20-.2-1.7-.2-3.1,2.1-3.2C514.14,190.56,518.14,190.06,522.44,189.56Zm-181.2,325.7c0-.7-.1-1.3-.1-2l-2.1-41.4c-.2-3.3.7-4,4-3.7,2.4.3,4.9.4,7.3.8,6.8,1.1,13.8,1.5,20.3,3.5,19.4,6,38.6,12.6,57.9,18.9,1.7.6,3.5,1,4.9,1.4,0-7.8-.1-15.4.1-23,0-2.3-.9-3-3-3.5-25.9-6.4-51.7-12.9-77.6-19.4-6.3-1.6-12.6-3.2-19.2-4.8v3.3c.5,21,.9,42,1.4,62.9.1,5.5.1,5.5,5.4,7.1A5.64,5.64,0,0,1,341.24,515.26Zm90.8-471c-6.2,1-6.2,1-5.9,6.8v1.1q1.65,66,3.4,131.9,2.25,84.6,4.4,169.3,1.95,78.75,3.8,157.5c.4,17.8,1,35.6,1.3,53.4,0,3.1,1.1,4.5,3.5,4.6Q437.44,306.66,432,44.26ZM423.94,73c-4.9.7-9.2,1.4-13.6,2.1s-8.7,1.1-13.2,1.7c2.5,21.2,4.9,42.3,7.4,63.7,7.1-1.8,13.8-3.6,20.7-5.4C424.84,114.46,424.34,94.16,423.94,73Zm68,230.5c-.7-13.5-1.4-26.4-2-39.3-1.1-24.1-2.1-48.3-3.3-72.4-.3-6.1-1.1-12.2-1.7-18.5-3.2.9-6,1.6-8.8,2.3a1.63,1.63,0,0,0-.6.3c1.8,42.6,4.2,85.1,3.2,127.6Zm-87.7-121.6c2.2,41.8,4.4,83.3,6.7,125,1.6,0,3.5.1,5.4,0s3.9-.2,5.4-.3q-3-62.55-6.1-124.6C411.94,181.86,408.14,181.86,404.24,181.86Zm-150.8,194.4c-3.1,1.7-4.8,3.2-4.7,7,1.4,36,2.5,71.9,3.6,107.9.1,2,.6,3,2.6,3.7q32.55,12.75,65.1,25.7c.8.3,1.6.6,2.5.9,0-2.4-.1-4.4,0-6.4a3.2,3.2,0,0,0-2.4-3.6c-8.8-3.2-17.5-6.6-26.2-9.9-10.7-4.1-21.3-8.3-32-12.4-1.9-.7-2.9-1.7-3-3.9Q256.24,431.11,253.44,376.26Zm136.3-177.9q3.15,54.75,6.3,109h11.3c-2.2-36.5-4.3-72.7-6.4-109Zm-131.1,225.2c.4,6.8.7,13.4,1.1,20,.8,13.3,1.6,26.7,2.4,40a3.88,3.88,0,0,0,1.1,2.5,51.06,51.06,0,0,0,6.4,2.4c-1-6.4-1.9-12.2-2.7-18.1-.9-6.4-1.9-12.7-2.7-19.1-.4-3.1.8-4.3,3.8-4.2,1.4,0,2.8.2,4.3.2.7-4.7,1.3-5.4,6.1-5.4s9.5.4,14.3.8c3.2.3,5.9,1.5,6.2,5,2.4.6,4.5,1.2,6.7,1.8,1.9-2.8,4.7-1.3,7.3-1.2s5.3.4,8.2.7c0-3.2.1-6-.1-8.7,0-.6-.9-1.5-1.6-1.7-3.3-.9-6.7-1.7-10-2.5C292.64,431.86,275.84,427.76,258.64,423.56Zm142.8-282.3c-2.5-20.1-5-39.8-7.5-59.4-7.5,2.5-14.6,4.8-21.9,7.3,5.4,18.2,11.6,36.6,13.2,56.4C390.74,144.06,396.14,142.66,401.44,141.26Zm-74.3,162.8c-4.4,1.4-4.3,1.4-4.3,5.5q1.65,105,3.4,209.9c.1,4,1,5,5.3,5.1Q329.29,414.46,327.14,304.06Zm8.3,213.5c0,2.3.1,4.3,0,6.2-.2,2.2.7,3.2,2.7,4q44,17.25,87.8,34.6c3.2,1.3,6.4,2.5,9.7,3.8,0-2.9-.1-5.5,0-8.1.1-2.1-.7-2.9-2.7-3.7-30.6-11.5-61.2-23.2-91.8-34.8C339.34,519.06,337.54,518.36,335.44,517.56Zm136.9-155c7.1,32.9,8.3,66.3,7.5,100.1,2,.4,4.1.9,6.5,1.4,1.2-34.4,3.6-68.6.6-102.6C481.64,361.76,476.94,362.16,472.34,362.56Zm-175.6-194c4.1-1.1,8.2-2.3,12.3-3.1,1.9-.4,2.4-1.2,2.3-3.1-1-16.2-1.9-32.4-2.8-48.7a5.09,5.09,0,0,0-.4-1.4c-8.6,1.1-17,2.2-25.3,3.3,2,3.7,4,7.5,6.2,11.3a10.92,10.92,0,0,0,2.4,2.4c-.1.7-.7,1.7-.5,2.5A126.38,126.38,0,0,1,296.74,168.56Zm69.3,185c-.4,28.4-.7,56.4-1.1,84.7,4,.8,8,1.6,11.7,2.4.6-28.9-2.4-57.5.8-86.4C373.64,354,370,353.76,366,353.56Zm24.5,90V355c-3.3-.2-6.5-.3-9.7-.5-3,29.1.5,57.9-1.7,86.7C382.94,442,386.44,442.66,390.54,443.56Zm71.3-250.2c.8,6.3,1.8,12.3,2.4,18.4,1,10.6,2.2,21.2,2.5,31.8.5,18.2.4,36.3.5,54.5,0,2.1.2,4.1.3,6.2h4.4c1.4,0,2.8-.1,4.2-.2-1.2-38-2.4-75.7-3.6-113.6C468.64,191.46,465.34,192.46,461.84,193.36ZM374,308.76c-2.1-10.3-3.9-20.2-2.8-30.5-13.3,7.8-26.4,15.4-39.4,23-.5.3-1.1.9-1.1,1.4-.1,2.7-.1,5.3-.1,8.2C345.34,310.16,359.54,309.46,374,308.76Zm-127.1-88.1v-2.2c-.5-16.1-1.1-32.1-1.6-48.2-.7-21.5-1.2-43-2-64.6-.1-2.9.7-4.1,3.5-5,18.8-6,37.6-12.2,56.4-18.3,4.2-1.4,4.3-1.5,3.2-6.3-.3.1-.7.1-1,.2-21.4,7-42.7,14.1-64.1,21-1.7.5-1.6,1.5-1.6,2.9q1.8,58.65,3.7,117.4c0,1,.1,1.9.2,3C244.94,220.66,245.84,220.66,246.94,220.66ZM430.64,358h-3.4c-2.3,0-3.1,1-2.8,3.4a59.42,59.42,0,0,1,.3,7.3q-.75,37.05-1.4,74.1c0,2.1-.1,4.2,0,6.3a2.2,2.2,0,0,0,1.2,1.7c2.8.7,5.6,1.2,8.7,1.8C432.34,421,431.44,389.56,430.64,358Zm-4.3-179.8a17.11,17.11,0,0,1-3.5.6c-2.8.2-3.5,1.5-3.3,4.2.5,6.2.7,12.5,1,18.8,1.3,30.5,2.7,61,3.9,91.5.2,4.3,0,8.6,0,13.1,2-.1,3.4-.2,4.9-.2C428.44,263.36,427.44,220.86,426.34,178.16Zm7,285.4c0-2.1-.1-4,0-5.9s-.7-2.4-2.2-2.7c-4.4-.9-8.8-1.8-13.1-2.8-23.3-5-46.6-10.1-69.9-15.1-4.7-1-9.5-2-14.3-2.9-.6,5.2-.6,5.2,4.1,6.3l73.3,17.7C418.54,459.86,425.84,461.66,433.34,463.56ZM472,461c1.2.3,3.1.6,5,1a639.32,639.32,0,0,0-4.7-87.7h-4.4c-1.2.1-2.4.2-3.3.3C467.14,403.36,469.54,432,472,461ZM310.44,83.56q3.75,68.4,7.5,136.4c3.3-1.3,3.3-1.3,3.2-5.1-1.3-35-2.7-70.1-4-105.1-.4-9.2-.8-18.5-1.2-28C314,82.36,312.24,83,310.44,83.56Zm143.3,127.2c2,31.5,4,62.7,6,94.1,1.3-.1,2.9-.2,4.2-.2-1.5-31.7,1.4-63.2-3.2-94.5C458.34,210.26,455.94,210.56,453.74,210.76Zm19.7-137.5c4.1,15.7,7.2,31.4,6,47.8,4.1-1.1,8-2.1,12.2-3.2-1.6-17-3.1-33.8-4.7-50.8C482,69.36,477.74,71.26,473.44,73.26Zm-60.3,469.9c-.7-14.6-1.4-28.6-2.2-42.6a1.77,1.77,0,0,0-.9-1.4c-4-1.5-8-2.8-12-4.3a2.65,2.65,0,0,0-.3,1c.3,13.4.5,26.9.8,40.3a2,2,0,0,0,1,1.6C403.74,539.66,408,541.26,413.14,543.16Zm9.8-505.4c-34.9,11.5-69.6,22.9-104.5,34.3.1,1.8.2,3.4.4,5.2,1.2-.4,2.1-.7,2.9-.9q48.45-15.6,96.8-31.3C423.44,43.56,423.44,43.56,422.94,37.76Zm6.3,511.6v-41.8c0-.6-.3-1.6-.7-1.8-4.2-1.6-8.4-3-12.6-4.5.4,14.6.9,28.8,1.3,43.5C420.64,546.06,424.74,547.66,429.24,549.36Zm-120.4-98.8v52.8c3.6,1.3,6.8,2.5,10.2,3.8-.3-18.9-.6-37.4-.9-56.1C315.54,450.86,312.14,450.76,308.84,450.56Zm77-142.6h7.3c-1.7-27.5-3.4-54.7-5.2-81.8-5.8-.8-7,.4-6.4,5.8.4,3.9,1.1,7.8,1.3,11.6,1.2,18.7,2.2,37.4,3.3,56.1A77.68,77.68,0,0,1,385.84,308Zm-4.4,181.1c.5,14.4,1,28.4,1.5,42.6,4,1.5,8.1,3.1,11.7,4.5,0-7.4.1-14.7,0-22-.1-6.2-.5-12.4-.8-18.5a3.49,3.49,0,0,0-1.4-2.5C388.94,491.56,385.34,490.46,381.44,489.06Zm48-180.3c-6.9.3-13.6.7-20.2,1s-13.3.2-19.8.9c-6.3.6-12.5.5-18.8.9-6.6.4-13.2.6-19.8.9l-20,.9c.1,1.1.1,2,.2,3.1,33-.3,65.8-.7,98.5-1C429.44,313.06,429.44,311.06,429.44,308.76Zm-118,118.1c-.6-21.7,2.2-43.2.3-64.7-2.2.3-4.1.5-5.6.7-1.2,20.7-2.4,41.3-3.6,62.2C305.34,425.56,308.34,426.16,311.44,426.86ZM323,168.36c34.2-8.6,68.3-17.2,102.6-25.8-.1-1.7-.2-3.4-.3-5q-51.45,13.35-102.2,26.6C323,165.66,323,166.86,323,168.36Zm-47.4,137c11.3,11.7,13.6,26.7,16.6,41.4,6.3-4.4,12.5-8.8,18.7-13.2,3.4-2.4,3.5-3.2.5-7.4-.3,1.6-.5,2.8-.6,3.2-2.1.2-3.9.3-5.7.6-4.3.9-8-.7-9.3-4.6-.6-1.6-.3-3.5-.4-4.7-1.8-1.2-4-2-5-3.6s-.8-3.9-1.1-6.1c-3.2-.3-5-1.9-4.4-5,.5-2.6,1.8-5.1,3.1-8.5C283.54,300.36,279.54,302.86,275.64,305.36Zm18.6-136.1c-1.2-12.9-2.6-25.4-6.5-37.3-4.8,1.3-9.1,2.4-13.6,3.6,5.5,11.5,8.7,23.7,10.9,36.2C288,170.86,291,170.06,294.24,169.26Zm-7.1,276v2.8c.1,6.4.3,12.7.4,19.1.2,8.8.3,17.6.5,26.4a2.72,2.72,0,0,0,1,2.2c2.4,1.1,4.8,1.9,7.5,2.9v-2c-.2-14.6-.4-29.2-.5-43.8-.1-6.4,0-6.4-6.6-7.2A13.66,13.66,0,0,0,287.14,445.26Zm5.9-75.5c0,2.5-.4,4.9.1,7.1s-.1,4.3-.1,6.5c0,11.2-.1,22.4,0,33.5,0,7.4-.7,5.6,5.9,7.1a3.93,3.93,0,0,0,.6-.2c.9-18.1,1.9-36.3,2.8-54.7C298.84,369.36,295.94,369.56,293,369.76Zm61.2,109.4c.3,13.8.6,27.2,1,40.6,0,.5.3,1.2.6,1.3,3.2,1.3,6.5,2.5,10.1,3.9-.7-14-1.3-27.5-2-40.9a2.53,2.53,0,0,0-1.4-1.9C359.84,481.16,357.14,480.26,354.24,479.16Zm13.6,5a8.8,8.8,0,0,0-.1,1.4c.5,13.1.9,26.3,1.4,39.4a2.07,2.07,0,0,0,.9,1.7c3.1,1.3,6.2,2.4,9.7,3.7-.7-14.1-1.3-27.8-2.1-41.5a2.44,2.44,0,0,0-1.3-1.7C373.64,486.16,370.94,485.26,367.84,484.16Zm14.9-338a355.18,355.18,0,0,0-11.4-46.8c-4,1.1-7.7,2.1-11.6,3.2,9.2,13.8,14.9,28.8,18.8,44.7Zm87.9,372.3c-1.5.6-2.3.9-3.1,1.3-5.5,2.2-5.6,2.6-5.3,8.4.4,8.7.6,17.4.7,26.1,0,2.5-.4,5-.6,7.6,2.9,1.1,5.7,2.2,8.3,3.2Zm3.9-430.4c-3.8,1.2-6.9,2.3-10.3,3.4,1.6,3.3-.2,7.8,3.1,10.4a8.57,8.57,0,0,0-1,2.6c0,1.8.4,3.6.5,5.4.3,4.7.6,9.3.9,14.2l3.8-.9c5.8-1.5,6-1.5,5.6-7.6C476.44,106.36,475.44,97.26,474.54,88.06Zm-258.6,530.3c7.8,1,17.6-.4,22.4-3.1-.8-5.4-3.2-10.5-6.2-13.6a6,6,0,0,0-5.7-1.8c-6,1.3-9.3,4.5-10.2,10.5C215.94,613,216,615.56,215.94,618.36Zm67.7-174.3a17.35,17.35,0,0,0-2.3,0c-2,.3-4.1.4-5.7,1.3-.6.3.2,2.9.3,4.5.1.8-.1,1.6,0,2.3,1.3,12.9,2.5,25.8,3.9,38.7a3.07,3.07,0,0,0,1.1,1.8,18.48,18.48,0,0,0,3.9,1.5C284.54,477.46,284,460.86,283.64,444.06Zm67.8,75.5c-.5-13.8-1.1-27.1-1.6-40.4,0-.6-.3-1.6-.8-1.8-1.9-.9-3.9-1.6-6.1-2.5.6,14.3,1.2,28.1,1.7,42.1Zm-92.9-98.7c21,5.2,41.6,10.3,62.3,15.4.5-4.9.5-4.9-4-5.9-7.4-1.5-14.7-3.1-22.1-4.7-12-2.6-24.1-5.2-36.4-7.9C258.44,419,258.54,420,258.54,420.86ZM375.74,148a193.24,193.24,0,0,0-11.7-31.1,1.81,1.81,0,0,0-1.4-1c-1.8,0-3.7.2-5.9.3a118.56,118.56,0,0,1,10.5,34C370,149.46,372.74,148.76,375.74,148ZM277,275.46c-1.7,2.4-3.8,4-6.2,2.5-2-1.2-3.3-3.4-5-5.4-1.8,10.4-6.2,19.5-12.2,27.9a6.72,6.72,0,0,0,3.3-1.5c2.7-3,5.3-5.6,9.5-7,5-1.6,9.4-4.9,14.2-7.5C279.44,281.56,278.34,278.66,277,275.46Zm106,33c-.7-12-1.3-23.8-2-35.9a35.38,35.38,0,0,1-3.4,1.7c-2.4.8-3.2,2.4-3,4.9.6,9.2,1,18.5,1.4,27.7a6.52,6.52,0,0,0,.3,1.6ZM305.24,502c-.4-12.9-.7-25.4-1.1-37.9-.1-3.6-.8-3.9-5.3-3.7-.1.2-.2.3-.2.5.3,12.5.5,25,.8,37.5a2.71,2.71,0,0,0,1.4,1.9A36.81,36.81,0,0,0,305.24,502Zm-28.4-11c0-1.2.1-2.2,0-3.1-1.1-11.3-2.2-22.5-3.5-33.8-.5-4.9-.7-5-5.7-4-.2,0-.3.2-.6.4.1.9,0,2,.2,3.1,1.5,10.7,3.1,21.4,4.5,32C272.34,489.76,272.14,489.86,276.84,491Zm13.3-68.7v-41.2c-2.1.1-3.9.2-5.1.2v39.9C286.94,421.56,288.44,421.86,290.14,422.26Zm-115.6,186.1c-5.1-8.1-8.5-9.5-16-6.9-5.8,2.1-8.2,5.2-7.6,10.2A59.81,59.81,0,0,0,174.54,608.36Zm190.6-457.6q-.9-4.2-1.8-8.1c-.8-3.2-1.5-6.3-2.4-9.5-.7-2.5-2.9-2.6-4.9-2.3-2.3.3-1,2.3-.9,3.3.9,6.1,2.1,12.1,3.2,18.4C360.44,152,362.74,151.36,365.14,150.76Zm92.8-48.1c1,7.9,1.9,15.6,2.9,23.4,1.7-.5,3.1-.9,4.6-1.4-.7-7.6-1.4-14.8-2.1-22Zm-24.4,404.5a3,3,0,0,0-.8.4v43.3c.9.3,1.8.5,2.9.9-.3-14.3-.7-28.3-1.1-42.3A4.78,4.78,0,0,0,433.54,507.16Zm-3.6-11.4c-5-1.6-9.9-3.2-15-4.8.1,2.2.1,4,.3,5.6.1.7.5,1.7,1.1,1.9,4.2,1.7,8.5,3.2,13,4.8C429.44,500.66,429.64,498.46,429.94,495.76Zm-159.7-201.6c2.1,2.5,4,4.9,6,7.3,2.9-2,5.8-3.9,8.7-5.9-1-2.5-1.9-4.8-2.9-7.2C277.94,290.26,274,292.26,270.24,294.16Zm140.7,202.5v-7c-4.6-1.4-9.1-2.8-13.9-4.2.1,1.6.1,3,.3,4.3.2.9.6,2.1,1.3,2.3C402.54,493.66,406.54,495.06,410.94,496.66Zm-100.1-173.4c-2.2-3-4-5.6-6.2-8.6-1.8,2.4-3.6,4.2-4.8,6.4-.6,1-.6,3.1.1,3.8a5.11,5.11,0,0,0,3.9,1.4C306,325.76,308.14,324.46,310.84,323.26ZM380.24,480c.7,2.5.7,5.4,1.9,6,3.5,1.9,7.5,2.9,11.5,4.3,0-1.8.1-3.4,0-4.9a2.25,2.25,0,0,0-1-1.6C388.74,482.56,384.94,481.46,380.24,480Zm-134.4,118.7a26.38,26.38,0,0,0-3.9,15.6c1.1-.4,1.9-.8,2.6-1,2.6-.5,3.2-2,2.7-4.5C246.74,605.46,246.34,602.06,245.84,598.66Zm132.3-119.5c-3.6-1.2-7.1-2.3-10.6-3.4-.2.1-.5.3-.7.4.6,1.7.7,4.3,1.9,5,2.6,1.6,5.8,2.2,9,3.3A51.06,51.06,0,0,1,378.14,479.16Zm-79.7-173.3a81.78,81.78,0,0,0-5.2,6.4,3.38,3.38,0,0,0,0,3.1,3.6,3.6,0,0,0,3.3.7,62.67,62.67,0,0,0,6.2-3.9C301.24,309.86,300,308.16,298.44,305.86Zm6.2,153.8c.3-.3.7-.6,1-.9.8-6.9-.5-8.6-6.7-8.5-1.2,5.4-.8,6.8,1.8,6.9.3-.6.5-1.2.6-1.4C302.54,457.16,303.54,458.46,304.64,459.66ZM288.34,308c3.2-1.5,5.9-2.7,8.8-4.1-1.7-1.9-3-3.2-4.3-4.7C290.34,301.46,288,303.56,288.34,308ZM426,42.46c6.9-1.9,6.5-.7,5.7-7.3C425.34,36.36,425.34,36.36,426,42.46Zm-72.4,431.4c.1,2.5,3.9,4.4,10.2,5.5.1-1.4.1-2.8.2-4.2C360.34,474.76,357,474.26,353.64,473.86Zm-47-162.8-.5.5c1.2,1.6,2.3,3.2,3.6,4.7a2.23,2.23,0,0,0,1.3.6c2.6-.1,5.2-.4,7.8-.6.2,0,.3-.2.6-.4-.1-.7-.2-1.4-.3-2h-5.4c-2,0-4.3.9-5.4-1.9C308.24,311.56,307.24,311.36,306.64,311.06Zm9-238c-2,.6-3.9,1.3-5.9,1.9.1,1.8.2,3.4.3,5.1C316.94,78.06,316.44,79.26,315.64,73.06Zm5.4,406.1h.6v-26.5H321Zm.4,28.9h.4v-27.4h-.4Zm-143.1,97.7.9.3c3.4-1.7,3.7-3.3,1.5-9.3C179.84,600.06,179.14,603,178.34,605.76Zm255.9-109.2c-.4-.1-.8-.1-1.3-.2-.1,2.6-.3,5.1-.2,7.7,0,.4.9.7,1.5,1.2Zm-121.8-185.4a2.92,2.92,0,0,1,.2.9c2.2-.2,4.4-.5,6.7-.7-.1-1.3-.1-2.3-.2-3.6C316.74,309,314.54,310.06,312.44,311.16Zm37.5,163.6c-1.2-1.9-4.4-2.6-6.6-1.7C345.54,473.56,347.54,474.16,349.94,474.76Zm-235.5,62.4.2-.2c-.1-.1-.2-.1-.3-.2l-.2.2C114.24,537.06,114.34,537.06,114.44,537.16Z"/><path class="cls-1" d="M494.44,535.36c0-.2-.1-.4-.1-.7a7.34,7.34,0,0,0-2-.5c-4.7-.6-7.9,1.5-7.8,5.3.2,9.6.5,19.2.8,28.8a11.43,11.43,0,0,0,.9,3c.3,0,.6-.1.9-.1.1-1,.3-2,.3-3,0-8.7.1-17.4-.1-26.1-.1-3.1.8-4.8,3.9-5.3A11.52,11.52,0,0,0,494.44,535.36Z"/><path class="cls-3" d="M539.74,114c-6.3,1.5-12.6,3-19,4.6-19.2,4.8-38.5,9.7-57.7,14.5-8.2,2.1-16.5,4-25.1,6v-4.9c9.2-2.4,18.5-4.9,27.8-7.3,24.7-6.4,49.3-12.7,74-19.1Z"/><path class="cls-4" d="M225.94,623.36v.6h-8.7v-.7C220,623.26,222.94,623.36,225.94,623.36Z"/><path class="cls-5" d="M217.14,623.26v.7h-4.4v-1Z"/><path class="cls-4" d="M212.74,623v1h-1.1v-1.2C212,622.86,212.44,622.86,212.74,623Z"/><path class="cls-6" d="M520.34,39.66c-1-.3-2.1-.9-3-.7-5,1.3-10,2.7-14.9,4.1-5.8,1.6-11.5,3.1-17.2,4.9a3.37,3.37,0,0,0-1.7,2.8c.4,3.7,1.2,7.3,1.9,11,.2,1.3.6,2.6.9,3.8-4.3,1.4-8.4,2.7-12.4,4.3-3.4,1.3-3.7,2.4-2.8,5.9.9,3.3,1.8,6.6,2.8,10.4-3.5.5-6.6,1.1-9.7,1.4-2.7.3-3.4,1-2.9,3.7s1.1,5.6,1.7,8.7a46.17,46.17,0,0,0-5-.2c-2.7,0-3.9,1.4-3.4,4,1.5,7.5,3,14.9,4.6,22.6-7.1,1.8-14.1,3.6-21.7,5.6,0-4.5.1-8.6,0-12.6-.5-24.5-.9-49.1-1.5-73.6-.1-2.4.7-3.2,2.9-3.9q43.35-13.95,86.8-28.1c1.4-.4,2.8-.9,4.1-1.3,2.4,3,2.1,3.8.8,7.3-1.2,3.2-1.5,6.8-2.1,10.2a10,10,0,0,0-.4,2.4C527.54,37.06,524.64,39.16,520.34,39.66Z"/><path class="cls-7" d="M16.14,460.16c5.2,7.1,10.1,14.4,15.7,21.2,10,11.9,20.3,23.5,32.2,33.5a5.8,5.8,0,0,1,1,1.2c-1.9-1.2-3.8-2.4-5.6-3.6-18.8-12.4-31.5-30-42.3-49.2A18.61,18.61,0,0,1,16.14,460.16Z"/><path class="cls-8" d="M190.64,179.06l-6.3-14.1c-1.6-3.6-3.3-7.3-4.7-11-.4-1,.1-2.3.3-3.4a21.36,21.36,0,0,1,3.4.9c.7.3,1.1,1.2,1.5,1.9,4.2,8,6.8,16.3,6.7,25.4Z"/><path class="cls-2" d="M149.94,219.76c-8.1-4.5-15-10.6-21.5-17.1-.7-.7-.5-2.2-.7-3.4,1.1.2,2.6-.1,3.3.5,5.8,5.1,11.5,10.4,17.2,15.7a15.39,15.39,0,0,1,2.3,3.7A1.7,1.7,0,0,1,149.94,219.76Z"/><path class="cls-8" d="M135.44,268.06c-7.4,2.5-14.4,1.3-21.2-1.2a8.54,8.54,0,0,1-2.8-1.6,5.23,5.23,0,0,1-.8-2.3,6,6,0,0,1,2.2-.6c6.5,1.4,12.9,2.8,19.3,4.3A13,13,0,0,1,135.44,268.06Z"/><path class="cls-8" d="M208.24,206c-6.9.3-10.3,4.2-11.9,10.2A5.5,5.5,0,0,1,195,218c-.5-.6-1.4-1.2-1.5-2-.9-4.5,3.9-11.6,8.4-12.5C204.64,203,206.24,203.46,208.24,206Z"/><path class="cls-7" d="M70.84,521.76c.3,3.1.6,6.3.9,9.4C69.24,528.36,68.94,525.16,70.84,521.76Z"/><path class="cls-7" d="M66.24,517c.5.4,1.1.8,1.6,1.2C67.24,517.76,66.74,517.36,66.24,517Z"/><path class="cls-4" d="M207.34,622.16c.4.1.7.1,1.1.2A5.16,5.16,0,0,0,207.34,622.16Z"/><path class="cls-7" d="M71.64,531.16c.1.4.3.7.4,1.1A7.6,7.6,0,0,0,71.64,531.16Z"/><path class="cls-7" d="M68.94,519.16l1,.7A8.65,8.65,0,0,0,68.94,519.16Z"/><path class="cls-7" d="M69.94,519.86c.2.2.4.3.6.5A2.65,2.65,0,0,0,69.94,519.86Z"/><path class="cls-7" d="M70.54,520.26a2.51,2.51,0,0,0,.4.7A1.61,1.61,0,0,1,70.54,520.26Z"/><path class="cls-7" d="M68.34,518.66c.2.2.4.3.6.5C68.84,519,68.54,518.86,68.34,518.66Z"/><path class="cls-7" d="M67.74,518.16c.2.2.4.3.6.5A3.81,3.81,0,0,0,67.74,518.16Z"/><path class="cls-7" d="M65.64,516.46c.2.2.4.3.6.5A2.65,2.65,0,0,1,65.64,516.46Z"/><path class="cls-7" d="M65,516c.2.2.4.3.6.5A2.65,2.65,0,0,1,65,516Z"/><path class="cls-9" d="M179.54,334.46c7,8.7,11.3,18.8,14.2,29.5,6,22.4,4.7,44.9-1.2,67.1-9.1,34.8-27,64.2-55.4,86.8-2.6,2.1-5.5,3.8-8.3,5.7-.4.2-.7.4-1.1.6h0c-5.7,1.8-11.3,3.6-17,5.3-6.7,1.9-13.4,3.9-20.5,2.4-3.1-.6-6-1.5-7.8-4.2l3.2-.3c-.8-1.2-1.5-2.4-2.3-3.6-.2-1.4-.5-2.8-.7-4.3a25.57,25.57,0,0,1-1.1-2.4c-.5-.6-1.1-1.1-1.6-1.7h0c-.8-.7-1.5-1.4-2.3-2.1l-.9-.6-1.3-1c-.5-.4-1-.7-1.5-1.1s-.8-.7-1.2-1a14.31,14.31,0,0,0-1.5-1.1,14.7,14.7,0,0,0-1.3-1l-.9-.6c-.4-.4-.9-.7-1.3-1.1l-3.1-2.2-1.3-1c-1-.8-2.1-1.5-3.1-2.3-.4-.3-.8-.7-1.2-1l-1.5-1.2c-.6-.5-1.2-1.1-1.8-1.6l-8.7-8.7a15,15,0,0,1-1.1-1.3c-.4-.5-.7-1-1.1-1.5s-.7-.9-1.1-1.3l-.6-.9a14.7,14.7,0,0,1-1-1.3l-.6-.9c-.3-.4-.7-.9-1-1.3l-.6-.9c-.3-.4-.7-.9-1-1.3l-.6-.9c-.4-.4-.7-.9-1.1-1.3l-.6-.9c-.4-.4-.7-.9-1.1-1.3l-.6-.9c-.3-.4-.7-.9-1-1.3-.6-.8-1.2-1.7-1.7-2.5a11.32,11.32,0,0,0-1-1.3c-.8-1.4-1.5-2.8-2.3-4.2-.9-1.6-1.7-3.1-2.6-4.7a22.5,22.5,0,0,1-.8-2.4c-.3-.5-.5-.9-.8-1.4-.5-1.4-.9-2.7-1.4-4.1-.3-.5-.5-.9-.8-1.4-.5-1.7-1-3.4-1.4-5.1-.1-.4-.2-.7-.3-1.1.6-1.5,1.2-3.1,1.8-4.6a10,10,0,0,0,.8-1.4c.5-1.3.9-2.6,1.4-3.8-.1-.4-.1-.8-.2-1.1h0l1.2-2.1h0c.2-.2.3-.5.5-.7,1.1-1.6,2.2-3.2,3.2-4.8.1-.2-.4-.7-.6-1,.3-2.4.5-4.7.8-7.1l.3-.9a19.45,19.45,0,0,1-2.2.8c-.9.5-2.1.8-2.8,1.6-2.4,2.8-4.6,5.8-6.8,8.7a14.31,14.31,0,0,1-1.1-1.5c0-.4-.1-.7-.1-1.1-.1-.7-.3-1.4-.4-2.2,0-.4-.1-.7-.1-1.1-.1-.7-.3-1.5-.4-2.2,0-.4-.1-.7-.1-1.1-.1-.9-.3-1.8-.4-2.7-.1-1.1-.2-2.2-.2-3.3v-13.1c.1-1.6.1-3.3.2-4.9.1-1.1.3-2.2.4-3.2.1-.5.1-1.1.2-1.6s.2-1.1.3-1.6.1-.8.2-1.1c.3-.9.7-1.7,1.3-3.3.6,1.6,1,2.5,1.3,3.5,1.6,4.1,3.1,8.3,4.9,12.4a12,12,0,0,0,3.1,3.7,1.76,1.76,0,0,0,3-.9c.2-.7.9-2.7-1.3-2.8a25,25,0,0,0-.7-2.6c-.2-.6-.4-1.2-.6-1.7h0c-.3-1.4-.4-2.8-.8-4.2-2-6.3-4.1-12.5-6.2-18.8,1-3.3,2-6.7,3-10,.4-.4.7-.9,1.1-1.3.1.4.2.7.3,1.1.2-.1.4-.3.6-.4a5.5,5.5,0,0,1-.9-.7v-.7c.6-1.1,1.2-2.1,1.8-3.2h0c.4.3.8.7,1.4,1.2,1.2-2.1,2.4-4.1,3.5-6a16.29,16.29,0,0,0,1.1-1.7v.1c2.2-2.6,4.4-5.1,6.6-7.7,0-.1.1-.1.1-.2s-.1-.2-.1-.3h0a2.65,2.65,0,0,0,.5-.6h0c.6-.7,1.1-1.4,1.7-2.2h0a12.13,12.13,0,0,1,1.4-.5c.2-.2.5-.4.7-.6h0l.6-.6h0c2.1-.8,4.2-1.5,6.2-2.3,11.5-4.7,23.7-4.2,35.8-4.8,2.6,3.1,5.2,6.3,7.8,9.4a5.72,5.72,0,0,0,.8-.7c-2.3-2.9-4.6-5.8-6.9-8.6,2.5.3,5.1.4,7.5.8,16,2.9,32,5.9,48.1,8.7,7.2,1.2,14.5,1.4,21.3-2,2.1-1,3.7-3.2,5.5-4.8.2-.4.7-1,.6-1.3a28,28,0,0,0-1.5-3c1.8,1.2,3.7,2.4,5.5,3.7C176.24,332.06,177.84,333.26,179.54,334.46Zm-45.4,58.3a10.63,10.63,0,0,1,1.1.9c0-.3.1-.6.1-.9-1.1-1.2-2.1-2.4-3.2-3.6,0,.1-.1.1-.4.5C132.54,390.56,133.34,391.66,134.14,392.76Zm47-39a10.71,10.71,0,0,1,1.5,2.2c.5,1.3.9,2.7,1.3,4,1,5.8,2.5,11.5,3.1,17.3a208.34,208.34,0,0,1-3,59.5c-1.3,4.5-2.7,9-4,13.5a2.35,2.35,0,0,0,.8.2c2.4-4.2,3.2-9,4.1-13.8.8-2.9,1.7-5.8,2.4-8.7,5.6-22.9,5.8-45.7-2.4-68.2-1.3-3.9-2.7-7.9-4-11.8-.2.1-.3.1-.5.2.2,1.4.5,2.7.7,4.1-.3,0-.7.1-1,.1-5.6-.4-11.2-.9-16.8-1.3a5.94,5.94,0,0,0-2.6.7c.1.3.1.6.2.9C167.64,353.06,174.44,353.46,181.14,353.76ZM113,403.56c6.6-6.4,18.2-24.5,17.8-27.6a6,6,0,0,0-.8.8c-5.5,8.5-11.1,17-16.6,25.5-.2.4-.2.9-.4,1.3a2,2,0,0,1-.8.1c0,.1.1.3.1.4A4.23,4.23,0,0,0,113,403.56Zm7.6,113c-5.4-7.1-10.9-14.3-16.3-21.4V495c-.1,0-.1.1-.5.3a20.65,20.65,0,0,0,1.5,3.4c3,4.3,6,8.7,9.1,12.9,1.5,2,3.4,3.7,5.1,5.6-4.2,2.5-8.4,5.1-12.5,7.6.1.3.2.7.3,1,2.1-.4,4.5-.3,6.3-1.3,9.6-4.9,19-10.2,26.8-17.9,10.5-10.4,19.2-22.3,28.1-34a34.56,34.56,0,0,0,3.2-6,2.36,2.36,0,0,0-2.1.7c-6.1,7.5-12.1,15-18.1,22.4C142.94,500.36,133,509.86,120.64,516.56Zm1.1-144.9a4.62,4.62,0,0,0,.7-.7c-8.1-9.9-16.3-19.7-24.4-29.6a6.07,6.07,0,0,0-1,.7,18.92,18.92,0,0,0,1.7,2.8c6.3,7.8,12.6,15.6,19,23.3A32.34,32.34,0,0,0,121.74,371.66Zm-17.2,73.4a157.85,157.85,0,0,0-1.1,37.6h1.1Zm-41.9,41.8v.7c11.5,2.9,23.3,3.6,35.1,4.3,0-.4.1-.8.1-1.2C86.14,489.36,74.34,488.06,62.64,486.86Zm90.8-68.9c-.2-3.9-15.9-23.9-18.8-24.3C141,402,147.24,410,153.44,418Zm23.7,26.2c-2.5-4.3-18.5-11.8-21.5-10.5C162.64,437.16,169.64,440.56,177.14,444.16Zm-39.6-68.4c9.2-2.8,15.3-10.1,22.2-16.4C152.34,364.86,144.94,370.26,137.54,375.76ZM66,420.66a5,5,0,0,0,.2-1.2c-9.7-1.9-19.4-3.8-29-5.7-.1.4-.1.7-.2,1.1C46.64,416.76,56.34,418.76,66,420.66Zm33.1,6.5a1.85,1.85,0,0,0,.2-.7c-6.6-4-14.2-4.3-21.3-6.2-.1.4-.2.7-.3,1.1C84.94,423.26,92,425.26,99.14,427.16Zm51.3,4.4c-10.6-.9-21.4-1.9-32.1-1v1Zm-54.6-92.4a6,6,0,0,0-.8.8c.6.7,1.3,1.4,1.9,2.1.3-.2.5-.5.8-.7C97.14,340.66,96.54,339.86,95.84,339.16Zm65,20c-.1-.1-.1-.2-.2-.2s-.1.1-.2.1l.2.2A.35.35,0,0,0,160.84,359.16Z"/><path class="cls-10" d="M181.24,321.06c2.1,1,4.2,2.1,6.4,3,11.9,5.2,24.2,6.8,36.9,3.7a4,4,0,0,0,2.3-1.5c-.9-.2-1.9-.3-2.8-.5l-3-.3c.9-2.8,1.9-3.2,4.4-2,.6.3,1.2.5,1.7.8,1.8.8,1.9,2.2.7,3.4a39.48,39.48,0,0,1-3.9,2.9c-8.3,5.9-16.6,11.7-24.8,17.7-1.3,1-3.9,2.4-2.5,4.1,1.5,1.9,3-.9,4.5-1.6.2-.1.5-.3.7-.4-.3,1.7-.5,3.3-.9,5.4,3.1-3,5.9-5.9,8.9-8.4,15.8-13.5,33.7-23.5,52.7-31.6a2.73,2.73,0,0,1,2.6.7c3.1,4.8,6.2,9.6,8.9,14.6,1.5,2.8,2.1,6.1,3.3,9.2a3.14,3.14,0,0,0,1.8,1.6c.4.1,1.5-1,1.5-1.6.1-3.3,0-6.5,0-9.8h0c-.2-.9-.3-1.9-.5-2.8-2-4.4-3.9-8.8-6.1-13.2-.8-1.7-2.2-3.1-4.5-2.8l-4.2-1.5a4.25,4.25,0,0,1-.2-1.1c-.1-4.7.9-5.4,5.2-3.5,3.7,1.7,6.7,4,8.5,7.9,5,10.5,8.8,21.3,9.5,33a26.88,26.88,0,0,1-.3,4.9,24.89,24.89,0,0,1-.6,3.2c-1.4-.3-2.6-.5-3.8-.7-.7-2.9-1.1-3-3.5-1.2-4.1,2.9-8,6-12.3,8.5a239.36,239.36,0,0,0-34.7,25.4c-3.8,3.4-6.8,7.6-10.2,11.4.3.3.5.6.8.9,2.6-1.9,5.2-3.8,8.1-5.9.3,4.1.5,8.1.9,12.1,1.9,16.6,2,33.3-2,49.6-2.7,11-6.6,21.7-9.9,32.6a68.39,68.39,0,0,0-2.3,8.9c-.8,4.4-.7,8.6,2.1,12.5,2.2,3.1,1.6,4.6-1.7,6.2-7.1,3.4-13.9,7.8-21.4,9.9-15.4,4.3-31.2,7.5-46.9,10.9-3.9.8-7.9.7-11.9,1,1.2-5.1,3.3-9.8,7.2-13.4,4.5-4.1,9-8.2,13.3-12.4,14.9-14.4,25.6-31.5,31.2-51.5,1.9-6.9,2.9-13.9,4.4-20.9,1.5-6,3.3-12,4.5-18.2.9-4.6,1-9.3,1.4-14,1.4-18.5-.1-36.7-7.6-53.9-3-7-7.6-13.3-11.5-20-.2-1.5-.4-3-.5-4.5A38.76,38.76,0,0,0,181.24,321.06Zm31.6,190.1c-.1-.3-.1-.5-.2-.8a12,12,0,0,0-2,.3c-9.8,4-19.7,7.9-29.5,12-.6.2-.9,1-1.3,1.5a4.23,4.23,0,0,1,.5.7C192.74,524,202.64,517.26,212.84,511.16Zm-4.3-93.3c3.2-3.3,5.1-7.4,7.4-11.3h0C212.54,407.46,207.64,414.46,208.54,417.86Zm-46.2,107.5c2.1,2.2,6,1.5,9.5-1.3C168.44,524.46,165.34,524.86,162.34,525.36Z"/><path class="cls-6" d="M527.94,317.16c2.8,7.4,2.6,15.1,2.5,22.8a6.56,6.56,0,0,1-5.2,6.6,81.16,81.16,0,0,1-11,1.7c-2.4.3-4.9.4-7.3.5.6-.3,1.2-.9,1.8-.9,2.9-.3,5.8-.3,8.7-.6a42.74,42.74,0,0,0,4.8-1.3v-.9a13.73,13.73,0,0,0-2.8-.5c-5.5.2-11.2-.1-16.5,1a93.42,93.42,0,0,1-10.4,1.6q-3,.15-6,0c-2-.1-2.7.6-2.2,2.6.7,3.1,1.4,6.3,2.2,9.9h-14.9c-2.9,0-3.4.7-2.6,3.5s1.6,5.6,2.5,8.7c-2.3-.1-4.2-.4-6.1-.4-3.8.2-4.4,1.1-4,5,2,20.8,3.8,41.6,5.7,62.4.6,7,1.1,13.9,1.7,21.2-1.6-.3-3-.5-4.3-.8-6.2-1.3-12.4-2.7-18.6-3.9-1.6-.3-2.3-.8-2.3-2.6q-1.2-66.6-2.5-133.3c0-.4.1-.9.1-1.5a15.17,15.17,0,0,1,2.1-.3l83.6-.6C527.14,317.06,527.54,317.16,527.94,317.16Z"/><path class="cls-11" d="M526.64,119.56c2.6,2.1,3.4,5,3.5,8.2.2,5.5.9,11.1-1.2,16.4-1.7-.1-3.4-.3-5.1-.4-4.2-.2-5.1.6-4.9,4.7.1,1.2.1,2.3.2,3.8-10.6,2.3-20.8,6.8-31.9,6.2-1.4-.1-2.8-.6-4.3-.8a15.26,15.26,0,0,0-3,.3c.1,1.1-.1,2.4.5,3.2,1.8,2.7,3.6,5.4,3.8,8.8-3.4.7-6.6,1.5-9.9,2-2.2.4-3.1,1.6-2.9,3.8.3,4,.6,7.9,1,12-3.7.7-7,1.3-10.4,1.8-3.9.6-4.1.9-3.4,4.8s1.3,7.9,2,12.2c-2.3.1-4.3.3-6.2.4-3.7.2-4.9,1.3-4.6,5.1.4,4.6,1.1,9.2,1.4,13.8,1.5,19,3,38,4.2,57.1.4,7.1.1,14.3.1,21.9-4.5.2-9.4.4-14.5.6-.1-1-.2-1.7-.2-2.4q-1.35-78.75-2.8-157.6c-.1-2.9.6-4,3.5-4.7C469.84,134,498.24,126.76,526.64,119.56Z"/><path class="cls-11" d="M324.44,215.26c0-4.1.1-8.1,0-12.2-.3-10-.8-20-1.2-30-.1-1.5.1-2.5,1.9-2.9q50-12.45,99.8-25h.8v29c-1.6.4-3.8.8-5.8,1.4-1.3.4-2.4,1.4-3.7,2a4.49,4.49,0,0,1-1.9.5c-3.4.1-6.7,0-10.1,0-3.1,0-3.9.8-3.8,3.9.2,4.1.5,8.1.8,12.6h-10.8c-3.8,0-4.2.5-4,4.3.4,7.9.9,15.8,1.3,23.6a38.51,38.51,0,0,0-5.2.7,5,5,0,0,0-4.3,5.5c.2,3.6.6,7.2.9,10.9.3,5.1.6,10.2.9,15.2a12.5,12.5,0,0,1-.3,1.9c-.3,0-.5.1-.8.1-.7-2.1-1.5-4.2-2-6.3-3.1-14.1-8.8-27.1-15.2-39.9-1.3-2.6-2.8-5.2-3.3-8-.8-4.3-3.6-4.8-7.7-2.7-3.7,1.9-7.2,4.3-10.7,6.5-4.9,3-9.7,6-14.6,9C325.14,215.36,324.84,215.26,324.44,215.26Z"/><path class="cls-11" d="M423.44,47v22.4q-11.85,1.5-24,3a12.21,12.21,0,0,1-2.7-.1c-3.4-.6-3.8-.2-3.5,3.3.1,1.2.2,2.3.3,3.7-7.9,2-15.6,3.9-23.3,5.8-1.9.5-2.5,1.6-2,3.4.9,3.2,1.8,6.4,2.6,9.3-4.2.3-8.2.5-12.2,1-3.6.5-4.4,2.4-2.4,5.5,1.8,2.7,3.6,5.4,5.6,8.5-2.1.3-3.9.4-5.6.7-2.8.6-3.4,2.3-1.9,4.8s2.6,5,3.8,7.5c.3.7.5,1.5.8,2.3-7.7.3-7.8.5-6.3,8,1.1,5.6,2,11.3,3,17.3-10.9,2.8-21.7,5.7-32.9,8.6-.1-1.6-.2-2.8-.2-4-1.1-24.5-2.2-49-3.5-73.5-.1-2.6.5-3.7,3.1-4.6,32.5-10.4,64.9-21,97.3-31.5A26.37,26.37,0,0,1,423.44,47Z"/><path class="cls-11" d="M351.84,435.16c-5.8-1.1-11.6-2.2-17.3-3.5-.6-.1-1.1-1.9-1.1-2.9-.4-16.2-.7-32.3-1.1-48.5q-.6-29.7-1.4-59.4v-2.3c32.9-.3,65.6-.6,98.8-.8v23c-4.1.3-8.4.7-12.7,1-19.4,1.5-38.7,3-58.1,4.7-3.2.3-6.4,1-9.6,1.6-2,.4-2.7,1.7-2.6,3.8,1.1,23.1,2.2,46.3,3.3,69.4.2,3.3.2,6.5.5,9.8a12.81,12.81,0,0,0,1.4,3.7C352,435,351.94,435.06,351.84,435.16Z"/><path class="cls-6" d="M249.84,188.46c10.2-2.4,20.4-4.6,30.6-7.1,9.6-2.3,19.2-4.8,28.8-7.2.8-.2,1.6-.3,2.7-.5.3,4,.5,7.9.7,11.8.6,11.3,1.2,22.7,1.9,34a4.09,4.09,0,0,1-2.4,4.3c-7.1,4.3-14.1,8.6-21,13.1-3.6,2.3-7.1,5-11.1,7.8-3.6-16-16.6-20.1-30.2-23.3-.3-11-.6-21.9-1-32.8C249.24,188.56,249.54,188.46,249.84,188.46Z"/><path class="cls-11" d="M249,181.56c-.4-11.3-.8-22.7-1.2-34-.4-13.6-.8-27.2-1.2-40.9-.1-1.7.3-2.6,2.1-3.2,18.8-6,37.6-12.2,56.5-18.3a11.34,11.34,0,0,1,2-.5c.4,8.3.8,16.4,1.2,24.9-9.5.8-18.8,1.6-28,2.5-.7.1-1.9.3-1.9.6a4.34,4.34,0,0,0,.5,2.5c2.3,4.1,4.7,8.2,7,12.3a8.33,8.33,0,0,1,.7,2.1c-4.3.9-8.4,1.9-12.5,2.6-3.5.7-3.9,1.4-2.3,4.5,5.7,11.1,8.3,23.2,11.1,35.5-5.1,1.3-10,2.6-14.9,3.9s-10,2.6-15,4a12.11,12.11,0,0,0-2.8,1.8C249.84,181.76,249.44,181.66,249,181.56Z"/><path class="cls-5" d="M216.64,274.16c.3.1.7.1,1,.2l2.2,2.2a38.33,38.33,0,0,0-3.3,4.6c-.4.7.1,1.9.2,2.9.9-.2,2.3-.1,2.6-.7,1.7-2.6,3.7-2.3,6.4-1.8,10.7,2,20-1.5,28.5-7.9a42.41,42.41,0,0,1,5.6-3.8c.9-.5,2.2-.2,3.7-.3-4.3,17.4-13.1,31.1-26.6,41.7-4.8,3.8-10.1,7-15.2,10.5-.4.3-1.1.5-1.3.9-1.8,3.4-4.9,3-8,2.9-10-.4-19.7-1.9-28.5-6.9v-2.8c1.5-2.7,3.9-1.7,6-1.5a22.05,22.05,0,0,0,13.6-2.2c1.6-.1,3.3-.3,5.4-.5-1-.7-1.4-1-1.8-1.3s-.7-.3-1-.5h0c-1.8-1.3-3.5-2.8-5.4-3.9-5.2-3-9.7-6.8-12.6-12-5.6-9.9-6.9-20.6-6.3-31.8a19.73,19.73,0,0,1,7.4-14.6c1.7-1.4,3.8-2.1,5.8-3.2a46.05,46.05,0,0,0,7.9,20.2c.1.2.3.3.4.5.6.7,1.2,1.5,1.8,2.2l.5.5.1.1.5.5.1.1.5.5.1.1.5.5.1.1a2.18,2.18,0,0,1,.5.4c.2.2.4.3.6.5l1.5,1.2h.1a10,10,0,0,0,1.4.8c.2.1.5.2.7.3C213.34,274.46,214.74,275.26,216.64,274.16Zm-6,7.4c2.8-2.7,2.9-4.4.5-6.8-.5-1.3-1-1.3-1.6-.1-2.8,2.1-3,4.5-.5,7C209.54,282.86,210.14,282.86,210.64,281.56Z"/><path class="cls-12" d="M522.44,189.56c-4.3.5-8.2.9-12.2,1.3-2.3.2-2.3,1.5-2.1,3.2.7,6.7,1.8,13.3,2.1,20,.8,20.7,1.3,41.4,1.7,62.1.2,8.6,0,17.2,0,26.1-5.8.3-11.4.6-17.1.8a6.15,6.15,0,0,1-.3-1.1c-.8-21.5-1.5-43-2.3-64.5-.5-13.2-.7-26.3-1.5-39.5-.5-9.5-1.6-19-2.7-28.5-.3-2.6-1.3-5-2.1-8,11.5,1.1,22.2-2.6,33-5.4C520.14,167.26,521.24,178.16,522.44,189.56Z"/><path class="cls-13" d="M178.34,534.36c6.7-1.7,13.4-3.1,20-5.3,6.3-2.1,12.4-4.9,18.8-7.5,6.9,7.9,14.3,16.4,21.8,25-5.2,1.1-10.4,2.2-15.7,3.3,0,.2.1.5.1.7,5.9,1.2,11.7-.3,17.9-.8l.9,9.3c1.1,10.9,2.1,21.9,3.2,32.8a6.14,6.14,0,0,1-1.4,5.1c-2,2.6-3.2,5.8-4.7,8.7-2.8-4.4-5.1-10.2-12.2-9.3-6.9.9-11.5,4.6-13.2,12.2-2.5-4.9-6.3-7.5-10.7-9.3-.2-4.2-.6-8.3-.7-12.5-.2-9.5-.7-19-.3-28.5.2-5.8-1-10.3-6-13.8C190.34,540.36,184.74,536.66,178.34,534.36Zm38,21.7a.37.37,0,0,0,.1.3c6.5,0,13.1.1,19.6-.1,1.4,0,2.7-1.2,4.1-1.8-.1-.2-.2-.5-.3-.7C231.94,554.56,224.14,555.26,216.34,556.06Zm11.4,4.8c0,.3-.1.5-.1.8a34.9,34.9,0,0,0,4.4.5c.3,0,.7-.7,1-1-.5-.3-.9-.9-1.4-.9A31,31,0,0,0,227.74,560.86Z"/><path class="cls-14" d="M341.24,515.26a2.14,2.14,0,0,1-.6.1c-5.3-1.6-5.3-1.6-5.4-7.1-.5-21-.9-42-1.4-62.9v-3.3c6.6,1.7,12.9,3.2,19.2,4.8,25.9,6.5,51.7,13,77.6,19.4,2.1.5,3,1.2,3,3.5-.1,7.6-.1,15.2-.1,23-1.4-.4-3.2-.8-4.9-1.4-19.3-6.3-38.5-12.9-57.9-18.9-6.5-2-13.5-2.5-20.3-3.5-2.4-.4-4.9-.6-7.3-.8-3.3-.3-4.2.4-4,3.7l2.1,41.4A13.33,13.33,0,0,0,341.24,515.26Z"/><path class="cls-11" d="M520.14,488.66c0,4.1-.1,8.1,0,12.2.1,2.5-1,3.4-3.2,3.1-2.8-.4-5.5-1-8.2-1.6-4.3-.9-8.5-1.9-12.8-2.9a5,5,0,0,1-1.4-.8c-1.3-.7-2.4-1.9-3.8-2.2-6.5-1.2-13.1-2.1-19.6-3-2.8-.4-2.5,1.6-2.3,3.4.5,6.1,1,12.1,1.5,18.2v1.7c-1.7.3-3.3.5-4.8.9-5.5,1.6-6.7,3.6-6.5,9.3.4,10.2.6,20.3.8,30.5,0,1.1-.1,2.1-.2,3.5-4.6-1.7-9-3.3-13.2-5-.7-.3-1.2-1.7-1.2-2.6-.3-16-.5-32-.8-48-.2-10.7-.4-21.4-.6-32.2V470c1,.2,1.8.2,2.6.4l72.9,18A1,1,0,0,1,520.14,488.66Z"/><path class="cls-15" d="M432,44.26q5.25,262.35,10.5,524.6c-2.4-.2-3.5-1.5-3.5-4.6-.3-17.8-.9-35.6-1.3-53.4-1.3-52.5-2.4-105-3.8-157.5q-2.1-84.6-4.4-169.3-1.65-66-3.4-131.9v-1.1C425.94,45.26,425.94,45.26,432,44.26Z"/><path class="cls-10" d="M138.24,541.26l21.6-2.7a2.16,2.16,0,0,1,1.7.5c5.3,5.6,11.7,9.7,18.4,13.3.3.2.6.5,1.3,1.1-6.9.4-13.3.8-19.8,1.2v1c6.2,1.9,12.5,1.6,18.9,1.3v7.7c.1,9.3.2,18.5.2,27.8a6.47,6.47,0,0,1-1.3,3.1c-1.4,2.2-3,4.2-4.6,6.5a11.93,11.93,0,0,0-13-5.3c-5.1,1-9.8,2.9-13.2,7.8-2.7-7.4-6.9-12.4-15.4-11.4a47.63,47.63,0,0,1,8.4-31.9c1.1-1.7,1.3-2.8.3-4.6A26.76,26.76,0,0,1,138.24,541.26Z"/><path class="cls-14" d="M311.94,319.06c2.4-.1,4.8-.2,7.8-.4v38.5c-.8.2-1.6.5-2.4.7-.6,0-1.4-.2-1.8.1-2.8,2.1-5.9,1.4-8.9,1.3-3.5-.1-4,.3-4.3,3.9-.1,1.2-.1,2.3-.2,3.8h-8.4c-3,0-3.5.5-3.5,3.5v7.8h-5.3c-2.7,0-3.4.9-3.3,3.7.4,12.4.8,24.8,1.1,37.3a7.38,7.38,0,0,1-.2,1.2c-8.1-1.6-16-3.2-24.2-4.9-.4-7.1-.8-14.3-1.2-21.4-.3-6-.7-12-.9-18a4.48,4.48,0,0,1,1.4-3.1c7.6-5.4,15.3-10.7,23-16a3.32,3.32,0,0,1,2.2-.3,16.12,16.12,0,0,1,2.9.9c3.3.8,5.2-.1,5.4-3.4.3-3.8,2.5-5.6,5.3-7.5,5.9-3.8,11.8-7.9,17.6-11.8,3.2-2.2,3.5-2.9,2.1-6.6l-4.2-9.3Z"/><path class="cls-10" d="M352.74,215.26l20.4,53.1a13.28,13.28,0,0,1-1.6,1.2c-20.8,11.9-41.5,23.9-62.3,35.8a4.18,4.18,0,0,1-1,.4c.8-5.1,1.5-10.3,2.4-15.4,1.1-6.8,2.3-13.6,3.5-20.4,0-.5-.1-.9-.1-1.4v-.1c3-4.7,3-4.7,8.4-3.6,7.5,1.5,9.6.5,13-6.5.4-.9.8-1.8,1.1-2.7,6.3,2.8,12.7,5.6,19,8.4a4.65,4.65,0,0,0,2.9.1c-1.2-1.1-2.3-2.2-3.5-3.3l-1-.7h0c-.2-.2-.4-.3-.6-.5h0a12.61,12.61,0,0,0-2-2c-3.1-1.9-6.1-3.9-9.4-5.5-2.7-1.3-3.3-2.5-2-5.3,2.8-6.4,5.1-13,7.7-19.5C349.24,223.26,351,219.26,352.74,215.26Z"/><path class="cls-16" d="M219.84,276.46l-2.2-2.2c11.5-.7,18-7.6,18.7-20a42,42,0,0,0-6.9-25.3c2.6.2,5.1.4,7.7.5,1,.3,2,1,2.8.9a23.51,23.51,0,0,0,4.2-1.5c1.5,0,3.1-.1,4.6,0,7.6.7,15.2,1.8,20.5,8.3,1.8,2.2,3.8,4.1,5.7,6.2,5.2,8.8,1.7,26.3-2.7,31.7-.5-.5-1.1-.9-1.5-1.4-1.1-1.3-2.1-2.7-3.3-4-3.7-4.1-6.2-4.5-10.9-1.8a36,36,0,0,0-4,2.8,33.19,33.19,0,0,1-27.2,6.4c-.3-.1-.9-.1-1-.3C223.14,272.46,221.44,276.26,219.84,276.46Z"/><path class="cls-14" d="M20.54,370.26c2.1,6.3,4.2,12.5,6.2,18.8.4,1.3.5,2.8.8,4.2a17,17,0,0,1-1.7-2.3c-3.5-6.8-6.9-13.7-10.3-20.6l-1.5-2.7a4.88,4.88,0,0,1-.7.3c1.4,3.7,2.9,7.4,4.3,11.1-.4,2-.8,4-1.1,6-.1.4-.1.8-.2,1.1-.1.5-.2,1.1-.3,1.6s-.1,1.1-.2,1.6c-.1,1.1-.3,2.2-.4,3.2-.1,1.6-.1,3.3-.2,4.9-.3.3-.8.6-.8,1-.1,3.7-.1,7.4,0,11.2,0,.3.5.6.8,1,.1,1.1.2,2.2.2,3.3.1.9.3,1.8.4,2.7,0,.4.1.7.1,1.1.1.7.3,1.5.4,2.2,0,.4.1.7.1,1.1.1.7.3,1.4.4,2.2,0,.4.1.7.1,1.1.1.8.2,1.6.3,2.5a9,9,0,0,0,.9-1c2.3-2.9,4.5-5.9,6.8-8.7.6-.8,1.8-1.1,2.8-1.6.6,0,1.3.1,1.9.1-.3,2.4-.5,4.7-.8,7.1-3.6,4.5-7.2,9.1-10.8,13.6l-.6.6c-.3.2-.5.3-.8.5l.3.3c.2-.3.3-.5.5-.8l.6-.6c1.6-1.3,3.2-2.6,4.9-3.9h1.8c-.5,1.3-.9,2.6-1.4,3.8a10,10,0,0,0-.8,1.4c-.6,1.5-1.2,3.1-1.8,4.6.1.4.2.7.3,1.1.5,1.7,1,3.4,1.4,5.1.3.5.5.9.8,1.4.5,1.4.9,2.7,1.4,4.1.3.5.5.9.8,1.4a22.5,22.5,0,0,1,.8,2.4c.9,1.6,1.7,3.1,2.6,4.7.8,1.4,1.5,2.8,2.3,4.2a11.32,11.32,0,0,0,1,1.3c.6.8,1.2,1.7,1.7,2.5a14.7,14.7,0,0,1,1,1.3l.6.9c.4.4.7.9,1.1,1.3l.6.9c.4.4.7.9,1.1,1.3l.6.9c.3.4.7.9,1,1.3l.6.9c.3.4.7.9,1,1.3l.6.9a14.7,14.7,0,0,1,1,1.3l.6.9c.4.4.7.9,1.1,1.3s.7,1,1.1,1.5a15,15,0,0,1,1.1,1.3l8.7,8.7c.6.5,1.2,1.1,1.8,1.6l1.5,1.2c.4.3.8.7,1.2,1,1,.8,2.1,1.5,3.1,2.3l1.3,1,3.1,2.2c.4.4.9.7,1.3,1.1l.9.6a14.7,14.7,0,0,0,1.3,1,14.31,14.31,0,0,0,1.5,1.1c.4.3.8.7,1.2,1s1,.7,1.5,1.1l1.3,1,.9.6c.8.7,1.5,1.4,2.3,2.1h0c.5.6,1.1,1.1,1.6,1.7a25.57,25.57,0,0,1,1.1,2.4c-.1,1.1-.2,2.3-.2,3.4a236.16,236.16,0,0,1-63.4-67.6c-6.8-10.8-10.6-23-12.8-35.7a6.37,6.37,0,0,1-.2-.7,21.66,21.66,0,0,0-.4-2.5c-.1-.2-.1-.5-.2-.7-1.7-10.9-.8-21.8.6-32.6a89.77,89.77,0,0,1,2.2-12.6,51.87,51.87,0,0,1,19.3-29.1c6.1-4.5,12.7-8.3,19.1-12.5-.8,1.3-1.5,2.5-2.3,3.8-1,1.6-2.1,3.3-3.1,4.9h0c-.6.7-1.1,1.4-1.7,2.2h0a2.65,2.65,0,0,0-.5.6h-.6c-1,1.1-1.9,2.2-2.9,3.3-.1.2-.3.3-.4.5h0l-.6.6.1-.1-.6.6h0c-.4.6-.7,1.1-1.1,1.7h0l-.6.6h.1c-2,2.5-4.1,5-6.1,7.5h0c-.6,1.1-1.2,2.1-1.8,3.2v.8h0c-.4.4-.7.9-1.1,1.3C21.54,363.26,20.14,366.56,20.54,370.26Z"/><path class="cls-12" d="M423.94,73c.5,21.2.9,41.5,1.4,62.1-6.9,1.8-13.7,3.6-20.7,5.4q-3.75-32.1-7.4-63.7c4.5-.6,8.8-1.1,13.2-1.7S419,73.76,423.94,73Z"/><path class="cls-17" d="M491.94,303.46h-13.2c1.1-42.4-1.3-84.9-3.2-127.6.1,0,.3-.2.6-.3,2.8-.8,5.6-1.5,8.8-2.3.6,6.2,1.4,12.3,1.7,18.5,1.2,24.1,2.2,48.3,3.3,72.4C490.54,277.06,491.24,290,491.94,303.46Z"/><path class="cls-17" d="M404.24,181.86h11.4q3,62.1,6.1,124.6c-1.5.1-3.5.3-5.4.3s-3.8,0-5.4,0Q407.64,244.51,404.24,181.86Z"/><path class="cls-18" d="M253.44,376.26c1.9,36.7,3.7,72.9,5.5,109.1.1,2.2,1.1,3.2,3,3.9,10.7,4.1,21.3,8.3,32,12.4,8.7,3.4,17.4,6.7,26.2,9.9,1.9.7,2.6,1.6,2.4,3.6s0,4,0,6.4c-.9-.3-1.7-.6-2.5-.9q-32.55-12.9-65.1-25.7c-2-.8-2.5-1.7-2.6-3.7q-1.65-54-3.6-107.9C248.64,379.46,250.34,377.86,253.44,376.26Z"/><path class="cls-17" d="M389.74,198.36h11.1c2.1,36.3,4.3,72.5,6.4,109h-11.3Q392.94,253.06,389.74,198.36Z"/><path class="cls-6" d="M178.34,534.36c6.5,2.3,12.1,6,17.7,9.9,5,3.5,6.2,8,6,13.8-.3,9.5.1,19,.3,28.5.1,4.2.5,8.3.7,12.5-7.5-.9-12.3,3.1-15.9,9.2a248.53,248.53,0,0,1-2.5-42.1c.2-4.8-.2-9.6-.4-14.4,0-.8-.9-1.8-1.6-2.4-5-3.4-10.1-6.7-15.2-10.1a14.45,14.45,0,0,1-1.9-2.1C170,536.26,174.14,535.36,178.34,534.36Z"/><path class="cls-10" d="M347.24,211.26a9.29,9.29,0,0,1-.4,1.3c-.2.4-.3.9-.5,1.3v-.1a21.16,21.16,0,0,0-1.2,2c-2.7,6.4-5.5,12.8-8,19.3-1.5,3.7-2.6,7.6-3.9,11.5h0c-.4.9-.8,1.8-1.1,2.7h0c-.5,1.5-1.1,2.9-1.6,4.4v-.1c-.2.5-.5,1.1-.7,1.6h0c-1.8.5-3.8,1.9-5.4,1.5-14.2-2.9-28.4-6.1-42.5-9.2,20.7-11.8,41.4-23.5,62-35.3.9-.5,1.8-.9,2.6-1.4C346.84,211,347,211.16,347.24,211.26Z"/><path class="cls-19" d="M258.64,423.56l50.8,12.4c3.3.8,6.7,1.6,10,2.5a2.68,2.68,0,0,1,1.6,1.7c.2,2.8.1,5.6.1,8.7-2.8-.2-5.5-.6-8.2-.7-2.5-.1-5.4-1.6-7.3,1.2-2.2-.6-4.4-1.1-6.7-1.8-.4-3.5-3-4.7-6.2-5-4.8-.4-9.5-.8-14.3-.8s-5.4.7-6.1,5.4c-1.4-.1-2.8-.2-4.3-.2-3-.1-4.1,1.1-3.8,4.2.8,6.4,1.8,12.8,2.7,19.1.9,5.8,1.8,11.6,2.7,18.1-2.5-.9-4.5-1.5-6.4-2.4-.6-.3-1-1.6-1.1-2.5-.8-13.3-1.6-26.6-2.4-40C259.34,437.06,259,430.36,258.64,423.56Z"/><path class="cls-16" d="M401.44,141.26q-7.95,2.1-16.2,4.2c-1.6-19.8-7.8-38.2-13.2-56.4,7.3-2.4,14.4-4.8,21.9-7.3C396.44,101.56,398.94,121.16,401.44,141.26Z"/><path class="cls-15" d="M327.14,304.06q2.25,110.4,4.4,220.5c-4.2-.1-5.2-1-5.3-5.1q-1.65-105-3.4-209.9C322.74,305.46,322.74,305.46,327.14,304.06Z"/><path class="cls-14" d="M314,270c-1.2,6.8-2.4,13.6-3.5,20.4-.8,5.1-1.6,10.3-2.4,15.4-1.2.8-2.4,1.7-3.7,2.6a73.28,73.28,0,0,0-4.5-6.4,70.71,70.71,0,0,0-6.5-6.9c-1.3-1.1-3.3-1.6-5-2.3a3,3,0,0,0-.5.7c-1.4-3.8-2.7-7.7-4.2-11.4-1.4-3.4-3-6.8-4.5-10.2a3.59,3.59,0,0,1-.2-1.8c.8-2.9,1.6-5.7,2.5-8.7,9.8.4,19.8.9,29.7,1.4-1.5,9.3-2.9,18.5-4.3,27.6a2.92,2.92,0,0,0,.9.2c.7-1.9,1.5-3.8,2.1-5.7,1.3-5,2.5-10,3.7-15h.3Z"/><path class="cls-12" d="M407.24,447.06c-4.3-.9-8.7-1.8-12.8-2.6.5-29.8,1-59.4,1.5-89.2,1.2.1,2.7.2,4.2.3s2.9.2,4.6.3c.6,13.4,1.5,26.6,1.8,39.8.4,15.5.2,31.1.3,46.6a23.76,23.76,0,0,0,.6,3.7A4.25,4.25,0,0,0,407.24,447.06Z"/><path class="cls-17" d="M335.44,517.56c2,.8,3.9,1.4,5.7,2.1,30.6,11.6,61.2,23.3,91.8,34.8,1.9.7,2.8,1.6,2.7,3.7-.2,2.6,0,5.2,0,8.1-3.3-1.3-6.5-2.6-9.7-3.8q-43.95-17.4-87.8-34.6c-2-.8-2.9-1.8-2.7-4C335.64,521.86,335.44,519.86,335.44,517.56Z"/><path class="cls-20" d="M472.34,362.56c4.6-.4,9.3-.8,14.6-1.2,3,34,.7,68.2-.6,102.6-2.4-.5-4.5-.9-6.5-1.4C480.64,428.86,479.44,395.46,472.34,362.56Z"/><path class="cls-12" d="M215,222.16c1.4.4,2.8.7,4.3,1.1a4.67,4.67,0,0,1-.5,1,13.24,13.24,0,0,1,2.4,1.5c9,7.5,13.8,23.1,10.4,34.2-1.2,4-3,7.6-7.2,9.3-4.8,1.4-8.6.1-11.9-3.6-8-8.9-11.1-19.3-10-31.1.4-3.7,1.5-7.6,4.7-9.7C209.54,223.46,212.44,223.06,215,222.16Zm11.3,25.9a9.87,9.87,0,0,0-5.4-10.8c-2.2-1-4.4-.3-4.9,2.1a44.5,44.5,0,0,0-.1,7.3h.7c-1.3,1-2.6,2.1-3.9,3.1a.76.76,0,0,1,.2.4C217.44,249.56,221.84,248.86,226.34,248.06Z"/><path class="cls-16" d="M296.74,168.56a127,127,0,0,0-5.8-36.9c-.3-.8.3-1.9.5-2.5a13.62,13.62,0,0,1-2.4-2.4c-2.2-3.7-4.2-7.6-6.2-11.3,8.3-1.1,16.8-2.2,25.3-3.3a5.09,5.09,0,0,1,.4,1.4c.9,16.2,1.8,32.4,2.8,48.7.1,1.9-.3,2.7-2.3,3.1C304.94,166.36,300.94,167.56,296.74,168.56Z"/><path class="cls-20" d="M366,353.56c4,.2,7.6.5,11.4.7-3.2,28.8-.2,57.5-.8,86.4-3.7-.8-7.8-1.6-11.7-2.4C365.34,410,365.64,381.86,366,353.56Z"/><path class="cls-17" d="M390.54,443.56c-4.2-.9-7.7-1.6-11.3-2.4,2.2-28.9-1.3-57.7,1.7-86.7,3.2.2,6.3.3,9.7.5C390.54,384.56,390.54,413.86,390.54,443.56Z"/><path class="cls-21" d="M461.84,193.36c3.4-.9,6.8-1.8,10.6-2.9,1.2,37.9,2.4,75.6,3.6,113.6-1.4.1-2.8.2-4.2.2h-4.4c-.1-2.1-.3-4.1-.3-6.2-.2-18.2,0-36.4-.5-54.5-.3-10.6-1.5-21.2-2.5-31.8C463.74,205.66,462.74,199.66,461.84,193.36Z"/><path class="cls-22" d="M407.24,447.06c.1-.4.1-.7.2-1.1,2.5.2,3.6-1,3.6-4.3.1-5.6.2-11.3,0-16.9-.6-20.8-1.3-41.6-1.9-62.4-.1-2-.3-3.9-.5-6.2,3.5.4,6.7.8,10.4,1.2v92.4C415.14,448.86,411.24,448,407.24,447.06Z"/><path class="cls-14" d="M374,308.76c-14.5.7-28.7,1.3-43.4,2,0-2.8-.1-5.5.1-8.2,0-.5.6-1.1,1.1-1.4,13-7.6,26.1-15.2,39.4-23C370,288.56,371.94,298.46,374,308.76Z"/><path class="cls-21" d="M351.84,435.16c.2-.1.2-.2.1-.3a12.44,12.44,0,0,1,1.6.4c.7-28-.9-55.8-3.2-83.6a46.9,46.9,0,0,0,5.8,1.7,41.42,41.42,0,0,0,6.1.1v84.3C358.74,436.86,355.24,436,351.84,435.16Z"/><path class="cls-23" d="M85.84,328.76c-12.1.6-24.3.1-35.8,4.8-2.1.8-4.2,1.6-6.2,2.3l1.5-2.4c1.2-1.7,2.4-3.5,3.5-5.2,6.9-4.5,14.7-6.2,22.6-7,14.6-1.5,28.7,1.8,42.8,5q18.6,4.2,37.2,7.8a23.41,23.41,0,0,0,13.6-1.3,12,12,0,0,0,2.6-1.8,11.41,11.41,0,0,0,1.1-1.1c.4.5.7,1.1,1.1,1.6-1.8,1.6-3.4,3.8-5.5,4.8-6.8,3.4-14.1,3.2-21.3,2-16-2.8-32-5.8-48.1-8.7-2.5-.4-5-.6-7.5-.8l-1.4-1.1A1.82,1.82,0,0,1,85.84,328.76Z"/><path class="cls-24" d="M246.94,220.66h-3.3c-.1-1.1-.2-2-.2-3q-1.8-58.65-3.7-117.4c0-1.4-.1-2.3,1.6-2.9,21.4-7,42.7-14,64.1-21,.3-.1.7-.1,1-.2,1.1,4.8,1,4.9-3.2,6.3-18.8,6.1-37.6,12.3-56.4,18.3-2.7.9-3.6,2.1-3.5,5,.8,21.5,1.4,43,2,64.6.5,16.1,1,32.1,1.6,48.2A14.64,14.64,0,0,1,246.94,220.66Z"/><path class="cls-20" d="M430.64,358c.8,31.6,1.6,62.9,2.5,94.6-3.1-.6-5.9-1.1-8.7-1.8-.5-.1-1.1-1.1-1.2-1.7q-.15-3.15,0-6.3.75-37,1.4-74.1a44.6,44.6,0,0,0-.3-7.3c-.3-2.4.5-3.4,2.8-3.4Z"/><path class="cls-14" d="M203.54,312.06a21.37,21.37,0,0,1-13.6,2.2c-2.1-.3-4.6-1.2-6,1.5-.6.7-1.2,1.4-1.7,2.1-2.9-1.6-5.8-3.2-8.8-4.8-1.6-.8-1.7-2-1.2-3.6,3.4-12.3,5.6-24.8,5.2-37.6a36.26,36.26,0,0,0-.8-7.3,7.55,7.55,0,0,1,1-6.2c4.4-7.5,10.3-13.7,17.2-20,.1,2.3.2,4.1.3,5.9-1.9,1-4.1,1.8-5.8,3.2a20.07,20.07,0,0,0-7.4,14.6c-.6,11.2.7,21.9,6.3,31.8a31.61,31.61,0,0,0,12.6,12c1.9,1.1,3.6,2.6,5.4,3.9-7.3-.9-13.7-3.5-18.1-10-1.1,2.3-.7,3.7,1.2,5.8C193.14,309.76,198.14,311.36,203.54,312.06Z"/><path class="cls-25" d="M426.34,178.16c1,42.7,2,85.2,3,128-1.5.1-2.9.1-4.9.2,0-4.5.2-8.8,0-13.1l-3.9-91.5c-.3-6.3-.5-12.5-1-18.8-.2-2.7.5-4.1,3.3-4.2A17.11,17.11,0,0,0,426.34,178.16Z"/><path class="cls-18" d="M433.34,463.56c-7.5-1.8-14.8-3.6-22.1-5.4l-73.3-17.7c-4.7-1.1-4.7-1.1-4.1-6.3,4.8,1,9.5,1.9,14.3,2.9,23.3,5,46.6,10.1,69.9,15.1,4.4.9,8.7,1.9,13.1,2.8,1.6.3,2.4.9,2.2,2.7A57.9,57.9,0,0,0,433.34,463.56Z"/><path class="cls-21" d="M472,461c-2.5-29-4.9-57.5-7.4-86.4.9-.1,2.1-.2,3.3-.3s2.5,0,4.4,0c3.3,29,5.3,58.1,4.7,87.7C475.14,461.56,473.34,461.16,472,461Z"/><path class="cls-24" d="M310.44,83.56l5.4-1.8c.4,9.5.9,18.8,1.2,28,1.4,35,2.7,70.1,4,105.1.1,3.8.1,3.8-3.2,5.1Q314.24,151.86,310.44,83.56Z"/><path class="cls-22" d="M453.74,210.76c2.2-.2,4.6-.5,7-.7,4.6,31.4,1.7,62.9,3.2,94.5-1.4.1-2.9.2-4.2.2C457.74,273.46,455.74,242.26,453.74,210.76Z"/><path class="cls-17" d="M473.44,73.26c4.3-2,8.6-4,13.6-6.2,1.6,17.1,3.1,33.8,4.7,50.8-4.2,1.1-8.2,2.1-12.2,3.2C480.64,104.76,477.64,89.06,473.44,73.26Z"/><path class="cls-17" d="M413.14,543.16c-5.1-1.9-9.4-3.6-13.6-5.3a2.47,2.47,0,0,1-1-1.6c-.3-13.4-.6-26.9-.8-40.3a3.26,3.26,0,0,1,.3-1c4.1,1.4,8.1,2.8,12,4.3a1.94,1.94,0,0,1,.9,1.4C411.74,514.56,412.44,528.56,413.14,543.16Z"/><path class="cls-25" d="M422.94,37.76c.5,5.7.5,5.7-4.4,7.3q-48.45,15.6-96.8,31.3c-.9.3-1.7.5-2.9.9-.1-1.8-.2-3.5-.4-5.2C353.34,60.66,388,49.26,422.94,37.76Z"/><path class="cls-16" d="M429.24,549.36c-4.4-1.7-8.6-3.3-12.1-4.6-.4-14.7-.9-28.9-1.3-43.5,4.2,1.5,8.4,2.9,12.6,4.5.4.2.7,1.2.7,1.8C429.24,521.26,429.24,535.06,429.24,549.36Z"/><path class="cls-17" d="M308.84,450.56c3.3.2,6.7.4,9.4.5.3,18.7.6,37.2.9,56.1-3.4-1.3-6.6-2.5-10.2-3.8C308.84,485.86,308.84,468.36,308.84,450.56Z"/><path class="cls-25" d="M385.84,308a76.75,76.75,0,0,0,.3-8.3q-1.5-28.05-3.3-56.1c-.2-3.9-.9-7.8-1.3-11.6-.6-5.4.6-6.6,6.4-5.8,1.7,27.2,3.4,54.3,5.2,81.8Z"/><path class="cls-19" d="M195.24,438.26c-1.4,7-2.5,14.1-4.4,20.9-5.6,20.1-16.2,37.1-31.2,51.5-4.4,4.2-8.9,8.3-13.3,12.4-4,3.6-6.1,8.3-7.2,13.4l-5,.7c2.4-3.7,4.6-6.6,6.3-9.8,1-2,1.2-4.4,1.7-6.6.2-.7.1-1.6.6-2,25.4-21.4,42.1-48.4,52.1-79.9A1.54,1.54,0,0,0,195.24,438.26Z"/><path class="cls-17" d="M381.44,489.06c3.9,1.4,7.5,2.6,11,4a3.49,3.49,0,0,1,1.4,2.5c.4,6.2.7,12.3.8,18.5.1,7.3,0,14.7,0,22-3.6-1.4-7.7-2.9-11.7-4.5C382.44,517.46,381.94,503.36,381.44,489.06Z"/><path class="cls-15" d="M429.44,308.76v6.6c-32.8.3-65.5.7-98.5,1-.1-1-.1-2-.2-3.1l20-.9c6.6-.3,13.2-.5,19.8-.9,6.3-.4,12.5-.2,18.8-.9,6.6-.6,13.2-.6,19.8-.9S422.44,309.06,429.44,308.76Z"/><path class="cls-22" d="M311.44,426.86c-3.1-.7-6.1-1.3-8.9-1.9,1.2-20.8,2.4-41.4,3.6-62.2,1.6-.2,3.4-.4,5.6-.7C313.64,383.66,310.84,405.06,311.44,426.86Z"/><path class="cls-24" d="M323,168.36v-4.1c34-8.8,67.9-17.7,102.2-26.6.1,1.6.2,3.3.3,5C391.34,151.16,357.34,159.76,323,168.36Z"/><path class="cls-21" d="M275.64,305.36c3.9-2.4,7.8-5,12.3-7.8-1.3,3.4-2.6,5.9-3.1,8.5-.6,3.1,1.3,4.7,4.4,5,.3,2.1.1,4.5,1.1,6.1s3.2,2.4,5,3.6a20.31,20.31,0,0,0,.4,4.7c1.4,3.9,5,5.5,9.3,4.6a47.53,47.53,0,0,1,5.7-.6c.1-.4.3-1.6.6-3.2,3,4.2,2.9,5-.5,7.4-6.2,4.4-12.4,8.7-18.7,13.2C289.24,332,286.94,317.06,275.64,305.36Z"/><path class="cls-17" d="M294.24,169.26c-3.2.8-6.1,1.6-9.2,2.4-2.3-12.5-5.4-24.6-10.9-36.2,4.5-1.2,8.8-2.3,13.6-3.6C291.54,143.86,293,156.36,294.24,169.26Z"/><path class="cls-22" d="M287.14,445.26c.9.1,1.6.2,2.3.3,6.6.8,6.5.8,6.6,7.2.1,14.6.3,29.2.5,43.8v2c-2.6-1-5.1-1.8-7.5-2.9a2.72,2.72,0,0,1-1-2.2c-.2-8.8-.3-17.6-.5-26.4-.1-6.4-.3-12.7-.4-19.1Z"/><path class="cls-21" d="M293,369.76c2.9-.2,5.8-.4,9.2-.6-.9,18.4-1.9,36.6-2.8,54.7a3.93,3.93,0,0,1-.6.2c-6.5-1.6-5.8.3-5.9-7.1-.1-11.2,0-22.4,0-33.5,0-2.2.6-4.3.1-6.5S293,372.26,293,369.76Z"/><path class="cls-20" d="M354.24,479.16c2.9,1,5.6,1.9,8.3,3.1a2.71,2.71,0,0,1,1.4,1.9c.7,13.4,1.3,26.9,2,40.9-3.6-1.4-6.9-2.6-10.1-3.9-.3-.1-.6-.9-.6-1.3C354.84,506.36,354.54,493,354.24,479.16Z"/><path class="cls-20" d="M367.84,484.16c3.1,1.1,5.8,2,8.5,3.1a2.26,2.26,0,0,1,1.3,1.7c.7,13.7,1.4,27.3,2.1,41.5-3.5-1.3-6.6-2.4-9.7-3.7a2.07,2.07,0,0,1-.9-1.7c-.5-13.1-1-26.3-1.4-39.4C367.74,485.16,367.84,484.86,367.84,484.16Z"/><path class="cls-14" d="M138.24,541.26a26.07,26.07,0,0,0,3.6,15.4c1,1.7.9,2.9-.3,4.6a47.63,47.63,0,0,0-8.4,31.9c-2.6,1.1-5.3,2.2-8.3,3.4.7-4.1,1.2-8.2,2-12.4,1.3-6.7,2.6-13.4,4.1-20,.5-2.1,1.6-3.9,2.2-6a10.46,10.46,0,0,0,.3-4.3c-.7-3.2-1.7-6.3-2.5-9.5s-.1-3.8,2.9-3.3C135.34,541.26,136.74,541.16,138.24,541.26Z"/><path class="cls-25" d="M317.34,357.86c.8-.2,1.6-.5,2.4-.7a4.25,4.25,0,0,1,.2,1.1c.3,23,.6,45.9,1,68.9a12.27,12.27,0,0,1-.1,1.7c-2.5-.5-4.7-1-6.7-1.4.5-12.9,1.3-25.6,1.4-38.2.1-8.1-.5-16.1-.9-24.2-.2-2.7.5-4.8,2.8-6.2C317.54,358.76,317.34,358.16,317.34,357.86Z"/><path class="cls-21" d="M382.74,146.16c-1.5.4-2.8.7-4.1,1.1-4-15.8-9.6-30.9-18.8-44.7,3.9-1.1,7.6-2.1,11.6-3.2A333,333,0,0,1,382.74,146.16Z"/><path class="cls-25" d="M470.64,518.46v46.6c-2.6-1-5.4-2.1-8.3-3.2.2-2.6.6-5.1.6-7.6-.1-8.7-.3-17.4-.7-26.1-.3-5.9-.2-6.2,5.3-8.4A20.65,20.65,0,0,1,470.64,518.46Z"/><path class="cls-21" d="M474.54,88.06c.9,9.2,1.9,18.3,2.6,27.5.4,6.1.2,6.1-5.6,7.6-1.2.3-2.4.6-3.8.9-.3-4.9-.6-9.5-.9-14.2-.1-1.8-.5-3.6-.5-5.4a8.57,8.57,0,0,1,1-2.6c-3.3-2.6-1.5-7-3.1-10.4C467.64,90.36,470.74,89.36,474.54,88.06Z"/><path class="cls-16" d="M215.94,618.36c.1-2.7.1-5.4.4-8,.9-6,4.2-9.3,10.2-10.5a5.59,5.59,0,0,1,5.7,1.8c3.1,3.1,5.4,8.2,6.2,13.6C233.54,618,223.74,619.36,215.94,618.36Z"/><path class="cls-22" d="M272.44,303.56a4.33,4.33,0,0,1-.5-.1c-6.7-2.9-8-2.2-9.6,5a2.36,2.36,0,0,1-1.1,1.6c-10.5,3.6-19.4,10.2-28.9,15.5-.4.2-.8.4-.7.4-1.6-1.7-3-3.2-4.3-4.6a81.24,81.24,0,0,0,19-13,21,21,0,0,1,8-4.4,13.08,13.08,0,0,0,7.3-5.3c2.1-2.9,3.5-3.2,6.3-.9a49.61,49.61,0,0,1,4.9,5.3A2.18,2.18,0,0,1,272.44,303.56Z"/><path class="cls-19" d="M281.94,247.56c14.2,3.1,28.3,6.3,42.5,9.2,1.6.3,3.6-1,5.4-1.5-1.2,4.9-1.2,4.9-5.9,4.8-14-.4-28-.7-42.6-1.1Q281.79,253.26,281.94,247.56Z"/><path class="cls-25" d="M283.64,444.06c.4,16.9.8,33.4,1.2,50.2-1.3-.5-2.7-.9-3.9-1.5a2.34,2.34,0,0,1-1.1-1.8l-3.9-38.7c-.1-.8.1-1.6,0-2.3-.1-1.6-.9-4.2-.3-4.5,1.6-.9,3.8-1,5.7-1.3A8.27,8.27,0,0,1,283.64,444.06Z"/><path class="cls-7" d="M280.84,330.56c0,3.3.1,6.6,0,9.8,0,.6-1.1,1.6-1.5,1.6a2.87,2.87,0,0,1-1.8-1.6c-1.2-3-1.8-6.3-3.3-9.2-2.7-5-5.8-9.8-8.9-14.6a2.73,2.73,0,0,0-2.6-.7c-19,8.1-36.9,18.1-52.7,31.6-3,2.6-5.8,5.4-8.9,8.4.3-2.1.6-3.8.9-5.4,12.4-8.3,24.7-16.9,37.3-24.8,7.8-4.9,16.2-8.8,24.3-13.2.9-.5,1.4-1.5,2.1-2.3l4.2,1.5a4.14,4.14,0,0,0-.2,1.5c2.4,5.3,5.1,10.5,7.3,15.9a92.69,92.69,0,0,1,2.9,10.3c.3,0,.7-.1,1-.1C280.84,336.36,280.84,333.46,280.84,330.56Z"/><path class="cls-19" d="M82.44,527.56c1.9,2.8,4.8,3.6,7.8,4.2,7.1,1.5,13.8-.5,20.5-2.4,5.7-1.7,11.4-3.5,17-5.3-6.1,3.2-12.1,7.1-18.5,9.5-6.6,2.5-13.8,3.8-20.7,5.4-3.1.8-5.9.1-7.8-3-.4-.7-2.2-.4-2.7-1.1a21.26,21.26,0,0,1-3.6-5.9c-.7-1.9-.5-4.1-.7-6.8C76.94,524.26,79.74,526,82.44,527.56Z"/><path class="cls-25" d="M351.44,519.56c-2.6-1-4.8-1.8-6.8-2.6-.6-14-1.1-27.8-1.7-42.1,2.2.9,4.2,1.5,6.1,2.5.5.2.8,1.2.8,1.8C350.44,492.46,350.94,505.76,351.44,519.56Z"/><path class="cls-4" d="M249,181.56l1.2.3c1.5,0,3.2.4,4.6.1,8.4-2.1,16.8-4.4,25.2-6.7,9.8-2.6,19.6-5.1,29.4-7.7a11.63,11.63,0,0,1,1.8-.4c1.3,3.6,1.1,3.9-2.2,4.7q-27.3,6.9-54.6,14a41.26,41.26,0,0,0-4.5,1.7c-.3-.1-.6-.2-1-.3C248.94,185.36,248.94,183.46,249,181.56Z"/><path class="cls-24" d="M258.54,420.86c0-.9-.1-1.9-.2-3.1,12.3,2.7,24.3,5.3,36.4,7.9,7.4,1.6,14.7,3.1,22.1,4.7,4.5.9,4.5.9,4,5.9C300.14,431.16,279.54,426.06,258.54,420.86Z"/><path class="cls-22" d="M375.74,148c-3,.8-5.7,1.5-8.5,2.2a116.43,116.43,0,0,0-10.5-34c2.2-.1,4-.3,5.9-.3a1.81,1.81,0,0,1,1.4,1A193.24,193.24,0,0,1,375.74,148Z"/><path class="cls-25" d="M277,275.46c1.3,3.2,2.4,6.1,3.6,9-4.9,2.7-9.3,6-14.2,7.5-4.3,1.3-6.9,3.9-9.5,7a6.72,6.72,0,0,1-3.3,1.5c6.1-8.5,10.4-17.5,12.2-27.9,1.7,1.9,3.1,4.1,5,5.4C273.24,279.46,275.34,277.86,277,275.46Z"/><path class="cls-7" d="M90.14,563.86c3-2.2,6.1-4.2,8.9-6.6q8.85-7.65,17.4-15.6a15,15,0,0,0,3.3-4.6c1.4-3.3,3.7-5.3,6.8-7,4-2.2,7.6-4.9,11.4-7.4.7-.5,1.5-1,2.6-1.8-.2,1.5-.4,2.4-.5,3.4-.2-.1-.3-.3-.5-.4a36.91,36.91,0,0,0-4.1,3.8c-4.9,6.1-9.7,12.4-14.7,18.5-.9,1.1-2.4,1.7-3.6,2.5a38.18,38.18,0,0,0-4.6,2.1c-5.1,3.1-10,6.5-15.1,9.6A80.8,80.8,0,0,1,90.14,563.86Z"/><path class="cls-25" d="M383,308.46h-6.7a6.52,6.52,0,0,1-.3-1.6c-.5-9.2-.9-18.5-1.4-27.7-.2-2.5.6-4.1,3-4.9a21.21,21.21,0,0,0,3.4-1.7C381.74,284.66,382.34,296.36,383,308.46Z"/><path class="cls-25" d="M305.24,502c-1.5-.6-3-1-4.4-1.7a2.71,2.71,0,0,1-1.4-1.9c-.3-12.5-.6-25-.8-37.5,0-.2.2-.3.2-.5,4.4-.2,5.1.1,5.3,3.7C304.54,476.56,304.84,489.06,305.24,502Z"/><path class="cls-3" d="M276.84,491c-4.7-1.1-4.6-1.1-5.1-5.3-1.4-10.7-3-21.4-4.5-32-.1-1.1-.1-2.1-.2-3.1.3-.3.5-.4.6-.4,5-1,5.1-1,5.7,4,1.2,11.3,2.3,22.5,3.5,33.8A29.72,29.72,0,0,1,276.84,491Z"/><path class="cls-23" d="M215,222.16c-2.6.9-5.5,1.3-7.7,2.8-3.2,2.2-4.4,6-4.7,9.7-1.1,11.7,2,22.2,10,31.1,3.3,3.7,7.1,5,11.9,3.6a7.85,7.85,0,0,1-7.8.7c-2.9-1.3-6.1-2.8-8.3-5-8.5-8.7-11.7-19.2-9.7-31.2a16.08,16.08,0,0,1,2.1-5.9C204.74,221.36,207.64,220,215,222.16Z"/><path class="cls-15" d="M290.14,422.26c-1.7-.4-3.2-.7-5.1-1.1v-39.9c1.2-.1,3.1-.1,5.1-.2Z"/><path class="cls-22" d="M174.54,608.36a59.81,59.81,0,0,1-23.6,3.3c-.6-4.9,1.8-8.1,7.6-10.2C166,598.86,169.44,600.26,174.54,608.36Z"/><path class="cls-7" d="M168.94,330a11.41,11.41,0,0,0-1.1,1.1c-.3-3.1-2.3-2.6-4.2-1.9-4.8,1.7-9.6,1.4-14.5.6.5-4.9,5.7-10.9,10.3-11.9,2.6-.6,5.1.8,7,2.9,2.2,2.5,4.9,4.6,7.2,7,2.1,2.1,3.9,4.5,5.8,6.8-1.6-1.2-3.2-2.4-4.8-3.5-1.8-1.3-3.7-2.5-5.5-3.7h0c-.3-.4-.6-.8-.8-1.1l-2.5-1.9c-.8-.2-1.5-.5-2.3-.7-4-.8-6.8,1-7.9,5.8,4.1-.7,7.9-1.4,11.7-2.1C167.84,328.16,168.44,329.06,168.94,330Z"/><path class="cls-23" d="M204.94,616.86c-5.1-1.5-10.3-3-15.3-4.5,1.1-6.9,8.9-11.2,14.4-8.5.2,1.8.5,3.5.7,5.3C204.84,611.76,204.84,614.36,204.94,616.86Z"/><path class="cls-7" d="M274.94,243.36c-1.9-2-3.9-4-5.7-6.2-5.4-6.5-12.9-7.5-20.5-8.3-1.5-.1-3.1,0-4.6,0-.2-2.1-1.9-1.9-3.2-1.9-1.7,0-3.5.1-3.8,2.5-2.6-.2-5.1-.4-7.7-.5-1-1.3-2-2.5-3.5-4.4,10.2,1.3,19.9-1.6,29.3,2.4,4.6,1.9,9.4,3.2,13.4,6.5A17.89,17.89,0,0,1,274.94,243.36Z"/><path class="cls-3" d="M365.14,150.76l-6.7,1.7c-1.1-6.3-2.3-12.3-3.2-18.4-.2-1-1.4-3,.9-3.3,1.9-.2,4.2-.2,4.9,2.3.9,3.1,1.6,6.3,2.4,9.5C363.94,145.26,364.54,147.86,365.14,150.76Z"/><path class="cls-21" d="M133.24,596.76a7.33,7.33,0,0,1,8.1,2.4c2.9,3.4,4.3,7.4,5,12.5l-11-2.8C134.74,604.76,133.94,600.76,133.24,596.76Z"/><path class="cls-15" d="M457.94,102.66h5.5c.7,7.2,1.3,14.5,2.1,22-1.5.4-3,.9-4.6,1.4C459.84,118.16,458.84,110.46,457.94,102.66Z"/><path class="cls-4" d="M433.54,507.16c.3.7,1,1.5,1,2.2.4,14,.7,27.9,1.1,42.3-1.1-.3-1.9-.6-2.9-.9v-43.3A6.89,6.89,0,0,0,433.54,507.16Z"/><path class="cls-7" d="M352.74,215.26c-1.7,4-3.5,7.9-5.1,12-2.6,6.5-4.9,13.1-7.7,19.5-1.2,2.8-.6,4.1,2,5.3,3.3,1.6,6.3,3.6,9.4,5.5a12.61,12.61,0,0,1,2,2c-5.7-2.9-11.4-5.8-17.3-8.7,5.2-12.9,10.3-25.8,15.5-38.8C351.94,213.06,352.34,214.16,352.74,215.26Z"/><path class="cls-25" d="M429.94,495.76c-.2,2.7-.4,4.9-.7,7.6-4.5-1.6-8.7-3.1-13-4.8a2.79,2.79,0,0,1-1.1-1.9c-.2-1.7-.2-3.4-.3-5.6C420,492.66,424.94,494.16,429.94,495.76Z"/><path class="cls-25" d="M270.24,294.16c3.9-1.9,7.7-3.9,11.7-5.9,1,2.4,1.9,4.7,2.9,7.2-2.9,1.9-5.8,3.9-8.7,5.9C274.24,299.06,272.24,296.66,270.24,294.16Z"/><path class="cls-24" d="M410.94,496.66c-4.4-1.6-8.4-3-12.3-4.6a4,4,0,0,1-1.3-2.3,28.07,28.07,0,0,1-.3-4.3c4.8,1.5,9.3,2.8,13.9,4.2Z"/><path class="cls-4" d="M90.14,563.86a68.2,68.2,0,0,0,7.2-3.5c5.1-3.1,10-6.4,15.1-9.6a38.18,38.18,0,0,1,4.6-2.1,16.55,16.55,0,0,1-2.2,3,62.7,62.7,0,0,1-27.1,14.5,1.45,1.45,0,0,1-1.2-.3c.8-.5,1.6-1,2.5-1.5a9.74,9.74,0,0,0,1.1-.5Z"/><path class="cls-25" d="M310.84,323.26c-2.7,1.2-4.7,2.5-6.9,3a4.47,4.47,0,0,1-3.9-1.4c-.7-.8-.6-2.8-.1-3.8,1.2-2.2,3-4,4.8-6.4C306.84,317.76,308.64,320.26,310.84,323.26Z"/><path class="cls-19" d="M133.24,596.76l2.1,12c-3.9-1.6-7.7-3.3-12.1-5.1C126.24,599.76,129,597.36,133.24,596.76Z"/><path class="cls-15" d="M380.24,480c4.7,1.4,8.6,2.6,12.4,3.9a2.25,2.25,0,0,1,1,1.6c.1,1.5,0,3,0,4.9-4-1.4-8-2.4-11.5-4.3C380.94,485.36,380.94,482.46,380.24,480Z"/><path class="cls-3" d="M204.94,616.86c-.1-2.6-.1-5.1-.3-7.7a45.11,45.11,0,0,0-.7-5.3c5.7,3.4,8.6,8.2,8.5,14.4C210,617.86,207.44,617.36,204.94,616.86Z"/><path class="cls-7" d="M181.24,321.06c.1,2.3.2,4.5.4,6.8.1,1.5.3,3,.5,4.5a56.18,56.18,0,0,0-3.5-5c-1.9-2.5-4-4.8-6-7.2-1-1.1-2.2-2.1-3.4-3.3a23.56,23.56,0,0,0,1.4-2.4C174.24,316.76,177.74,318.86,181.24,321.06Z"/><path class="cls-24" d="M245.84,598.66c.5,3.4.8,6.8,1.5,10.2.5,2.5-.1,4-2.7,4.5a14.88,14.88,0,0,0-2.6,1A27.19,27.19,0,0,1,245.84,598.66Z"/><path class="cls-24" d="M378.14,479.16c-.2,1.9-.3,3.5-.5,5.4-3.2-1.1-6.4-1.8-9-3.3-1.2-.7-1.3-3.3-1.9-5,.2-.1.5-.3.7-.4C370.94,477,374.44,478.06,378.14,479.16Z"/><path class="cls-3" d="M298.44,305.86c1.6,2.3,2.8,4.1,4.3,6.2a45.71,45.71,0,0,1-6.2,3.9,3.6,3.6,0,0,1-3.3-.7,3.38,3.38,0,0,1,0-3.1C294.74,310.06,296.54,308.16,298.44,305.86Z"/><path class="cls-7" d="M336.54,255.56c-.4.9-.7,1.9-1.1,2.7-3.3,7-5.4,8-13,6.5-5.4-1.1-5.4-1.1-8.4,3.6.3-1.8.6-3.5.9-5,4.3,0,8.3-.1,12.4,0a4.17,4.17,0,0,0,4.6-2.9c.7-2,1.7-4,2.7-6.3A11.55,11.55,0,0,0,336.54,255.56Z"/><path class="cls-24" d="M304.64,459.66l-3.3-3.9c-.1.2-.3.8-.6,1.4-2.6-.2-3-1.5-1.8-6.9,6.2-.1,7.5,1.6,6.7,8.5A9,9,0,0,1,304.64,459.66Z"/><path class="cls-4" d="M288.34,308c-.2-4.4,2-6.5,4.6-8.8,1.3,1.4,2.6,2.8,4.3,4.7C294.14,305.26,291.54,306.46,288.34,308Z"/><path class="cls-24" d="M426,42.46c-.7-6.1-.7-6.1,5.7-7.3C432.54,41.76,432.94,40.56,426,42.46Z"/><path class="cls-19" d="M333.24,246.56c1.3-3.8,2.4-7.7,3.9-11.5,2.6-6.5,5.3-12.9,8-19.3a21.16,21.16,0,0,1,1.2-2,48.43,48.43,0,0,1-1.9,6.5c-3.4,8.4-6.9,16.8-10.3,25.1C334,245.86,333.64,246.16,333.24,246.56Z"/><path class="cls-4" d="M353.64,473.86c3.4.4,6.8.9,10.4,1.3-.1,1.4-.1,2.8-.2,4.2C357.44,478.36,353.64,476.36,353.64,473.86Z"/><path class="cls-4" d="M306.64,311.06c.6.3,1.6.5,1.7.9,1.1,2.8,3.4,1.9,5.4,1.9h5.4c.1.6.2,1.3.3,2-.3.2-.5.4-.6.4-2.6.2-5.2.5-7.8.6a2.23,2.23,0,0,1-1.3-.6c-1.2-1.5-2.4-3.1-3.6-4.7A1.21,1.21,0,0,0,306.64,311.06Z"/><path class="cls-24" d="M315.64,73.06c.8,6.3,1.3,5.1-5.6,7.1-.1-1.7-.2-3.3-.3-5.1C311.74,74.26,313.64,73.66,315.64,73.06Z"/><path class="cls-26" d="M321,479.16v-26.5h.6v26.5Z"/><path class="cls-4" d="M321.44,508.06v-27.4h.4v27.4A.3.3,0,0,1,321.44,508.06Z"/><path class="cls-4" d="M178.34,605.76c.8-2.9,1.6-5.7,2.5-9,2.2,6.1,1.9,7.6-1.5,9.3A1.69,1.69,0,0,1,178.34,605.76Z"/><path class="cls-27" d="M48.84,328.36c-1.2,1.7-2.4,3.5-3.5,5.2l-1.5,2.4h0l-.6.6h0c-.2.2-.5.4-.7.6a12.13,12.13,0,0,1-1.4.5c1-1.6,2.1-3.3,3.1-4.9.8-1.3,1.6-2.5,2.3-3.8C47.44,328.76,48.14,328.56,48.84,328.36Z"/><path class="cls-4" d="M434.24,496.56v8.6c-.6-.5-1.5-.8-1.5-1.2,0-2.6.1-5.1.2-7.7A3.45,3.45,0,0,0,434.24,496.56Z"/><path class="cls-4" d="M312.44,311.16c2.1-1.1,4.3-2.1,6.8-3.4.1,1.3.1,2.3.2,3.6-2.3.3-4.5.5-6.7.7Z"/><path class="cls-7" d="M349.94,474.76c-2.4-.6-4.4-1.2-6.6-1.7C345.54,472.16,348.74,472.86,349.94,474.76Z"/><path class="cls-16" d="M216.64,274.16c-2,1.1-3.4.3-4.4-1.4C213.74,273.16,215.24,273.66,216.64,274.16Z"/><path class="cls-23" d="M82.44,522.86c.1-1.1.2-2.3.2-3.4.3,1.4.5,2.8.7,4.3Z"/><path class="cls-16" d="M182.14,317.86c.6-.7,1.2-1.4,1.7-2.1v2.8C183.34,318.36,182.74,318.06,182.14,317.86Z"/><path class="cls-19" d="M330.54,253.66c.5-1.5,1.1-2.9,1.6-4.4C331.64,250.76,331.14,252.16,330.54,253.66Z"/><path class="cls-19" d="M332.14,249.26c.4-.9.8-1.8,1.1-2.7C332.94,247.46,332.54,248.36,332.14,249.26Z"/><path class="cls-16" d="M210,271.56l-1.5-1.2Z"/><path class="cls-16" d="M211.54,272.36a10,10,0,0,0-1.4-.8C210.64,271.86,211,272.06,211.54,272.36Z"/><path class="cls-27" d="M248.94,187.26c.3.1.6.2,1,.3v.8c-.3,0-.6.1-.9.1A4.12,4.12,0,0,1,248.94,187.26Z"/><path class="cls-19" d="M329.94,255.26c.2-.5.5-1.1.7-1.6A7.74,7.74,0,0,0,329.94,255.26Z"/><path class="cls-7" d="M314,270h-.6c.1-.5.3-.9.4-1.4A3.4,3.4,0,0,1,314,270Z"/><path class="cls-7" d="M90.14,563.86a6.12,6.12,0,0,1-1.2.5A6.12,6.12,0,0,0,90.14,563.86Z"/><path class="cls-7" d="M353.94,260.06l1,.7Z"/><path class="cls-19" d="M346.34,213.86c.2-.4.3-.9.5-1.3A6.94,6.94,0,0,1,346.34,213.86Z"/><path class="cls-19" d="M127.74,524.16c.4-.2.7-.4,1.1-.6C128.44,523.76,128.14,524,127.74,524.16Z"/><path class="cls-10" d="M346.64,210.86l.6-.3v.7C347,211.16,346.84,211,346.64,210.86Z"/><path class="cls-22" d="M272.84,303.16c.1.2.2.3.3.5h-.7A2.18,2.18,0,0,1,272.84,303.16Z"/><path class="cls-23" d="M5.44,415.66c.1.2.1.5.2.7A1.85,1.85,0,0,0,5.44,415.66Z"/><path class="cls-5" d="M114.44,537.16c-.1-.1-.2-.1-.3-.2.1-.1.1-.2.2-.2s.2.1.3.2S114.54,537.06,114.44,537.16Z"/><path class="cls-7" d="M353.34,259.56c.2.2.4.3.6.5A2.65,2.65,0,0,1,353.34,259.56Z"/><path class="cls-23" d="M6,419a6.37,6.37,0,0,1,.2.7A2.54,2.54,0,0,1,6,419Z"/><path class="cls-16" d="M207.94,269.86a2.18,2.18,0,0,1-.5-.4C207.54,269.56,207.74,269.66,207.94,269.86Z"/><path class="cls-16" d="M203.34,265.06c-.1-.2-.3-.3-.4-.5A1.76,1.76,0,0,1,203.34,265.06Z"/><path class="cls-16" d="M206.24,268.26l-.5-.5C205.94,268,206,268.16,206.24,268.26Z"/><path class="cls-16" d="M206.74,268.86l-.5-.5A1.21,1.21,0,0,1,206.74,268.86Z"/><path class="cls-14" d="M311.94,319.06a.35.35,0,0,1-.2-.1v-.2c.1.1.1.2.2.3Z"/><path class="cls-16" d="M207.34,269.36l-.5-.5Z"/><path class="cls-16" d="M205.64,267.76l-.5-.5A1.21,1.21,0,0,1,205.64,267.76Z"/><path class="cls-2" d="M494.44,535.36a9.32,9.32,0,0,1-3.1,1.3c-3.1.5-4,2.3-3.9,5.3.2,8.7.1,17.4.1,26.1,0,1-.2,2-.3,3-.3,0-.6.1-.9.1a11.43,11.43,0,0,1-.9-3c-.3-9.6-.7-19.2-.8-28.8-.1-3.8,3.1-5.9,7.8-5.3.7.1,1.4.4,2,.5A2.08,2.08,0,0,0,494.44,535.36Z"/><path class="cls-8" d="M120.64,516.56c12.3-6.7,22.2-16.2,31-27,6-7.5,12-15,18.1-22.4a2.67,2.67,0,0,1,2.1-.7,57,57,0,0,1-3.2,6c-8.9,11.7-17.6,23.6-28.1,34-7.8,7.7-17.2,13-26.8,17.9-1.8.9-4.2.9-6.3,1.3-.1-.3-.2-.7-.3-1,4.2-2.5,8.4-5.1,12.5-7.6A9.29,9.29,0,0,0,120.64,516.56Z"/><path class="cls-8" d="M185,360c8.2,22.5,7.9,45.2,2.4,68.2-.7,2.9-1.6,5.8-2.4,8.7h-.9a208.34,208.34,0,0,0,3-59.5c-.6-5.8-2-11.5-3.1-17.3C184.34,360.06,184.64,360,185,360Z"/><path class="cls-27" d="M121.74,371.66a31.68,31.68,0,0,1-3.9-3.4c-6.4-7.7-12.7-15.5-19-23.3a20.94,20.94,0,0,1-1.7-2.8,6.07,6.07,0,0,0,1-.7c8.1,9.9,16.3,19.7,24.4,29.6C122.24,371.26,122,371.46,121.74,371.66Z"/><path class="cls-27" d="M104.54,445.06v37.6h-1.1A157.85,157.85,0,0,1,104.54,445.06Z"/><path class="cls-23" d="M16.54,385.06c.4-2,.8-4,1.1-6,3,5.5,6,11.1,9.1,16.6a7.28,7.28,0,0,0,2,1.9c2.2.1,1.5,2.1,1.3,2.8a1.75,1.75,0,0,1-3,.9,13.59,13.59,0,0,1-3.1-3.7c-1.8-4-3.3-8.2-4.9-12.4-.4-.9-.7-1.9-1.3-3.5A30.63,30.63,0,0,1,16.54,385.06Z"/><path class="cls-27" d="M120.64,516.56c-.3.2-.7.3-1,.5a54.72,54.72,0,0,1-5.1-5.6c-3.2-4.2-6.2-8.5-9.1-12.9a20.65,20.65,0,0,1-1.5-3.4c.3-.2.4-.2.5-.3,0,.1-.1.2,0,.2C109.74,502.36,115.24,509.46,120.64,516.56Z"/><path class="cls-27" d="M62.64,486.86c11.7,1.3,23.5,2.5,35.2,3.8,0,.4-.1.8-.1,1.2-11.8-.7-23.6-1.4-35.1-4.3Z"/><path class="cls-27" d="M153.44,418c-6.2-8-12.3-16-18.8-24.3C137.44,394,153.24,414.06,153.44,418Z"/><path class="cls-26" d="M113.14,403.66a3.26,3.26,0,0,1,.4-1.4c5.5-8.5,11-17,16.6-25.5a6,6,0,0,1,.8-.8c.4,3.1-11.3,21.2-17.8,27.7Z"/><path class="cls-27" d="M28.84,397.56a12.1,12.1,0,0,1-2-1.9c-3.1-5.5-6.1-11-9.1-16.6-1.4-3.7-2.9-7.4-4.3-11.1a4.88,4.88,0,0,1,.7-.3l1.5,2.7c3.4,6.9,6.8,13.7,10.3,20.6a12.42,12.42,0,0,0,1.7,2.3h0c.2.6.4,1.2.6,1.7A12.21,12.21,0,0,0,28.84,397.56Z"/><path class="cls-27" d="M177.14,444.16c-7.5-3.6-14.5-7.1-21.5-10.5C158.64,432.36,174.64,439.86,177.14,444.16Z"/><path class="cls-26" d="M137.54,375.76c7.4-5.5,14.8-10.9,22.2-16.4C152.84,365.66,146.74,373,137.54,375.76Z"/><path class="cls-26" d="M66,420.66c-9.7-1.9-19.3-3.9-29-5.8.1-.4.1-.7.2-1.1,9.7,1.9,19.4,3.8,29,5.7C66.14,419.86,66.14,420.26,66,420.66Z"/><path class="cls-27" d="M181.14,353.76c-6.7-.4-13.5-.7-20.2-1.1-.1-.3-.1-.6-.2-.9a14.47,14.47,0,0,1,2.6-.7c5.6.4,11.2.9,16.8,1.3.3,0,.7-.1,1-.1v-.1c-.1.1-.2.1-.1.2a.76.76,0,0,0,.2.4A4.59,4.59,0,0,0,181.14,353.76Z"/><path class="cls-26" d="M99.14,427.16c-7.1-1.9-14.2-3.9-21.4-5.8.1-.4.2-.7.3-1.1,7.2,1.9,14.8,2.2,21.3,6.2A1.85,1.85,0,0,1,99.14,427.16Z"/><path class="cls-26" d="M150.44,431.56h-32.2v-1C129,429.66,139.84,430.66,150.44,431.56Z"/><path class="cls-27" d="M23.14,432.46c-1.6,1.3-3.2,2.6-4.9,3.9l-.1-.1c3.6-4.5,7.2-9.1,10.8-13.6.2.4.7.9.6,1-1,1.6-2.1,3.2-3.2,4.8-.2.2-.3.5-.5.7h0l-1.2,2.1h0A4.43,4.43,0,0,1,23.14,432.46Z"/><path class="cls-26" d="M184,436.86h.9c-.9,4.7-1.7,9.5-4.1,13.8a2.35,2.35,0,0,0-.8-.2C181.34,445.86,182.64,441.36,184,436.86Z"/><path class="cls-26" d="M85.84,328.76c.1-.3.3-.7.4-1l1.4,1.1c2.3,2.9,4.6,5.8,6.9,8.6a5.72,5.72,0,0,0-.8.7C91,335.06,88.44,332,85.84,328.76Z"/><path class="cls-4" d="M26.34,355c2-2.5,4.1-5,6.1-7.5,0,.4-.1.7-.1,1.1v-.1a16.29,16.29,0,0,0-1.1,1.7c-1.1,2-2.3,3.9-3.5,6C27.14,355.66,26.74,355.26,26.34,355Z"/><path class="cls-26" d="M181.14,353.76v-.9c.2-.1.3-.3.5-.4-.2-.1-.3-.1-.5-.2v.1c-.2-1.4-.5-2.7-.7-4.1.2-.1.3-.1.5-.2,1.3,3.9,2.7,7.9,4,11.8-.3,0-.7.1-1,.1a26.71,26.71,0,0,0-1.3-4A14.32,14.32,0,0,0,181.14,353.76Z"/><path class="cls-23" d="M15.24,410.66c-.3-.3-.8-.6-.8-1-.1-3.7-.1-7.4,0-11.2,0-.3.5-.6.8-1Z"/><path class="cls-26" d="M168.94,330c-.5-.9-1.1-1.9-1.6-2.8l-1.5-3,2.5,1.9c.3.4.6.8.8,1.1h0c.5,1,1.1,2,1.5,3,.1.3-.4.9-.6,1.3A8.28,8.28,0,0,1,168.94,330Z"/><path class="cls-26" d="M32.44,348.56c0-.4.1-.7.1-1.1h-.1l.6-.6h0c.4-.6.7-1.1,1.1-1.7h0l.6-.6-.1.1.6-.6h0c.1-.2.3-.3.4-.5,1-1.1,1.9-2.2,2.9-3.3.2.2.4.3.6.5C36.84,343.46,34.64,346,32.44,348.56Z"/><path class="cls-4" d="M20.54,370.26a15.39,15.39,0,0,1,3-10C22.54,363.56,21.54,367,20.54,370.26Z"/><path class="cls-26" d="M134.14,392.76c-.8-1.1-1.6-2.2-2.3-3.1.3-.4.3-.5.4-.5,1.1,1.2,2.1,2.4,3.2,3.6A2.85,2.85,0,0,0,134.14,392.76Z"/><path class="cls-23" d="M29,462.46c-.9-1.6-1.7-3.1-2.6-4.7C27.34,459.36,28.24,461,29,462.46Z"/><path class="cls-23" d="M15.54,392.66c.1-1.1.3-2.2.4-3.2A31.06,31.06,0,0,0,15.54,392.66Z"/><path class="cls-23" d="M18.24,425.86a9,9,0,0,0-.9,1c-.1-.8-.2-1.6-.3-2.5A15.76,15.76,0,0,1,18.24,425.86Z"/><path class="cls-4" d="M24.54,358.16c.6-1.1,1.2-2.1,1.8-3.2C25.74,356.06,25.14,357.16,24.54,358.16Z"/><path class="cls-23" d="M15.94,416.66c-.1-.9-.3-1.8-.4-2.7C15.64,414.86,15.84,415.76,15.94,416.66Z"/><path class="cls-23" d="M79.94,515.36c-.8-.7-1.5-1.4-2.3-2.1C78.44,514,79.14,514.66,79.94,515.36Z"/><path class="cls-27" d="M39.54,339.76c.6-.7,1.1-1.4,1.7-2.2C40.64,338.36,40.14,339.06,39.54,339.76Z"/><path class="cls-26" d="M95.84,339.16c.6.7,1.2,1.4,1.9,2.2-.3.2-.5.5-.8.7-.6-.7-1.3-1.4-1.9-2.1A3,3,0,0,0,95.84,339.16Z"/><path class="cls-23" d="M16.94,423.26c-.1-.7-.3-1.4-.4-2.2A14.35,14.35,0,0,1,16.94,423.26Z"/><path class="cls-23" d="M16.44,420c-.1-.7-.3-1.5-.4-2.2A17,17,0,0,1,16.44,420Z"/><path class="cls-23" d="M81.54,517.06c-.5-.6-1.1-1.1-1.6-1.7C80.44,515.86,80.94,516.46,81.54,517.06Z"/><path class="cls-23" d="M57.64,497.86c-.6-.5-1.2-1.1-1.8-1.6C56.44,496.86,57,497.36,57.64,497.86Z"/><path class="cls-23" d="M29.74,415.56c-.6,0-1.3-.1-1.9-.1a19.45,19.45,0,0,1,2.2-.8Z"/><path class="cls-23" d="M24.74,431.36l1.2-2.1Z"/><path class="cls-23" d="M16,387.76c.1-.5.2-1.1.3-1.6C16.24,386.66,16.14,387.26,16,387.76Z"/><path class="cls-26" d="M31.34,350.16a16.29,16.29,0,0,0,1.1-1.7C32,349.06,31.74,349.56,31.34,350.16Z"/><path class="cls-23" d="M23.14,432.46a9.06,9.06,0,0,1,1.6-1.1c.1.4.1.8.2,1.1Z"/><path class="cls-23" d="M23.54,450c-.3-.5-.5-.9-.8-1.4A10,10,0,0,0,23.54,450Z"/><path class="cls-23" d="M40,478.26c-.3-.4-.7-.9-1-1.3A14.7,14.7,0,0,0,40,478.26Z"/><path class="cls-23" d="M41.64,480.46l-1-1.3C41,479.66,41.34,480.06,41.64,480.46Z"/><path class="cls-23" d="M38.44,476.16c-.4-.4-.7-.9-1.1-1.3A6.89,6.89,0,0,1,38.44,476.16Z"/><path class="cls-4" d="M24.64,359h0a5.55,5.55,0,0,1,.8.6c-.2.1-.4.3-.6.4A4.4,4.4,0,0,0,24.64,359Z"/><path class="cls-23" d="M25.64,455.36c-.3-.5-.5-.9-.8-1.4C25.14,454.46,25.44,455,25.64,455.36Z"/><path class="cls-23" d="M43.34,482.66a14.7,14.7,0,0,1-1-1.3A6.42,6.42,0,0,0,43.34,482.66Z"/><path class="cls-23" d="M45,484.86c-.4-.4-.7-.9-1.1-1.3C44.34,484,44.64,484.46,45,484.86Z"/><path class="cls-23" d="M76.74,512.56l-1.3-1A14.7,14.7,0,0,1,76.74,512.56Z"/><path class="cls-23" d="M36.84,474c-.4-.4-.7-.9-1.1-1.3A15,15,0,0,1,36.84,474Z"/><path class="cls-23" d="M47.14,487.56a15,15,0,0,1-1.1-1.3C46.44,486.76,46.84,487.16,47.14,487.56Z"/><path class="cls-23" d="M21.24,443.36c-.1-.4-.2-.7-.3-1.1C21,442.66,21.14,443.06,21.24,443.36Z"/><path class="cls-23" d="M35.14,471.76a14.7,14.7,0,0,1-1-1.3A14.7,14.7,0,0,0,35.14,471.76Z"/><path class="cls-23" d="M22.74,437.66a10,10,0,0,0,.8-1.4C23.24,436.76,22.94,437.26,22.74,437.66Z"/><path class="cls-23" d="M60.34,500.06c-.4-.3-.8-.7-1.2-1C59.54,499.36,59.94,499.76,60.34,500.06Z"/><path class="cls-23" d="M32.34,468a11.32,11.32,0,0,0-1-1.3A11.32,11.32,0,0,1,32.34,468Z"/><path class="cls-23" d="M64.74,503.36l-1.3-1A14.7,14.7,0,0,1,64.74,503.36Z"/><path class="cls-23" d="M69.14,506.56c-.4-.4-.9-.7-1.3-1.1A12.67,12.67,0,0,0,69.14,506.56Z"/><path class="cls-23" d="M71.24,508.26a14.7,14.7,0,0,0-1.3-1A6.42,6.42,0,0,1,71.24,508.26Z"/><path class="cls-23" d="M74,510.46c-.4-.3-.8-.7-1.2-1C73.14,509.76,73.54,510.06,74,510.46Z"/><path class="cls-14" d="M28.14,395c-.2-.6-.4-1.2-.6-1.7C27.74,393.76,27.94,394.36,28.14,395Z"/><path class="cls-27" d="M134.14,392.76h1.2c0,.3-.1.6-.1.9A3.13,3.13,0,0,0,134.14,392.76Z"/><path class="cls-26" d="M113,403.56c-.2.2-.5.3-.7.5,0-.1-.1-.3-.1-.4a2,2,0,0,0,.8-.1Z"/><path class="cls-26" d="M160.84,359.16c-.1,0-.1.1-.2.1s-.1-.1-.2-.2c.1,0,.1-.1.2-.1A.22.22,0,0,1,160.84,359.16Z"/><path class="cls-27" d="M39,340.86c-.2-.2-.4-.3-.6-.5H39c0,.1.1.2.1.3A.35.35,0,0,1,39,340.86Z"/><path class="cls-27" d="M39,340.36a2.65,2.65,0,0,0,.5-.6C39.34,340,39.24,340.16,39,340.36Z"/><path class="cls-23" d="M42.64,337.06c.2-.2.5-.4.7-.6A4.35,4.35,0,0,0,42.64,337.06Z"/><path class="cls-23" d="M43.24,336.46l.6-.6Z"/><path class="cls-23" d="M25.94,429.26c.2-.2.3-.5.5-.7A3,3,0,0,0,25.94,429.26Z"/><path class="cls-8" d="M212.84,511.16c-10.2,6.1-20.1,12.8-32.5,13.7a4.23,4.23,0,0,1-.5-.7c.4-.5.8-1.3,1.3-1.5,9.8-4,19.6-8,29.5-12a12,12,0,0,1,2-.3C212.74,510.66,212.74,510.86,212.84,511.16Z"/><path class="cls-2" d="M280.84,330.56v8.8c-.3,0-.7.1-1,.1a87,87,0,0,0-2.9-10.3c-2.2-5.4-4.9-10.6-7.3-15.9-.2-.4.1-1,.2-1.5,2.3-.3,3.6,1.1,4.5,2.8,2.1,4.3,4.1,8.8,6.1,13.2.1.9.2,1.8.4,2.8Z"/><path class="cls-8" d="M208.54,417.86c-.9-3.4,4-10.4,7.3-11.4h0C213.64,410.46,211.74,414.66,208.54,417.86Z"/><path class="cls-26" d="M162.34,525.36c3.1-.4,6.1-.8,9.5-1.3C168.34,526.76,164.44,527.56,162.34,525.36Z"/><path class="cls-7" d="M280.84,330.56c-.2-.9-.3-1.9-.5-2.8C280.54,328.66,280.64,329.56,280.84,330.56Z"/><path class="cls-8" d="M203.54,312.06c-5.4-.7-10.4-2.3-14.2-6.5-1.9-2.1-2.2-3.5-1.2-5.8,4.4,6.5,10.8,9.1,18.1,10h0c.3.2.7.3,1,.5s.8.6,1.8,1.3C206.84,311.76,205.24,312,203.54,312.06Z"/><path class="cls-23" d="M211.14,274.76c2.4,2.4,2.2,4.1-.5,6.8a8.6,8.6,0,0,0-1.6.1c-2.4-2.4-2.2-4.8.5-7A8.6,8.6,0,0,1,211.14,274.76Z"/><path class="cls-16" d="M208.94,281.56a8.6,8.6,0,0,0,1.6-.1C210.14,282.86,209.54,282.86,208.94,281.56Z"/><path class="cls-16" d="M211.14,274.76a8.6,8.6,0,0,1-1.6-.1C210.14,273.36,210.64,273.46,211.14,274.76Z"/><path class="cls-14" d="M207.24,310.36c-.3-.2-.7-.3-1-.5A9.25,9.25,0,0,1,207.24,310.36Z"/><path class="cls-27" d="M216.34,556.06c7.8-.8,15.6-1.5,23.5-2.3.1.2.2.5.3.7-1.4.6-2.7,1.7-4.1,1.8-6.5.2-13.1.1-19.6.1A.37.37,0,0,1,216.34,556.06Z"/><path class="cls-27" d="M227.74,560.86c1.3-.2,2.7-.6,4-.7.4,0,.9.6,1.4.9-.4.4-.7,1.1-1,1-1.5-.1-3-.3-4.4-.5C227.64,561.36,227.74,561.16,227.74,560.86Z"/><path class="cls-8" d="M237.14,229.56c.3-2.4,2.1-2.5,3.8-2.5,1.3,0,3-.3,3.2,1.9a21,21,0,0,1-4.2,1.5C239.14,230.56,238.14,229.86,237.14,229.56Z"/><path class="cls-4" d="M34.14,345.26c-.4.6-.7,1.1-1.1,1.7A9.91,9.91,0,0,1,34.14,345.26Z"/><path class="cls-23" d="M17.64,437c-.2.3-.3.5-.5.8l-.3-.3a3.51,3.51,0,0,1,.8-.5Z"/><path class="cls-4" d="M33,346.86l-.6.6Z"/><path class="cls-4" d="M34.64,344.66l-.6.6Z"/><path class="cls-4" d="M35.14,344.16l-.6.6Z"/><path class="cls-4" d="M35.54,343.66c-.1.2-.3.3-.4.5C35.24,344,35.44,343.86,35.54,343.66Z"/><path class="cls-27" d="M18.34,436.36l-.6.6v-.1a1,1,0,0,1,.6-.5Z"/><path class="cls-2" d="M226.34,248.06c-4.5.8-8.9,1.5-13.3,2.2a.76.76,0,0,1-.2-.4c1.3-1,2.6-2.1,3.9-3.1H216c0-2.5-.3-5,.1-7.3.4-2.5,2.6-3.2,4.9-2.1A9.8,9.8,0,0,1,226.34,248.06Z"/><path class="cls-3" d="M165.84,324.16l1.5,3c-3.8.7-7.6,1.4-11.7,2.1,1-4.8,3.8-6.7,7.9-5.8C164.24,323.66,165,324,165.84,324.16Z"/><path class="cls-9" d="M169.14,327.26c-.3-.4-.6-.8-.8-1.1A4.44,4.44,0,0,1,169.14,327.26Z"/><path class="cls-9" d="M181.14,352.36c.2.1.3.1.5.2-.2.1-.3.3-.5.4-.1-.1-.1-.3-.2-.4A.22.22,0,0,1,181.14,352.36Z"/></g></g></svg>