<svg xmlns="http://www.w3.org/2000/svg" viewBox="0 0 654.76 428.23"><defs><style>.cls-1{fill:#fdfdfd;}.cls-2{fill:#09090b;}.cls-3{fill:#0a0a0c;}.cls-4{fill:#0b0b0e;}.cls-5{fill:#7f76fb;}.cls-6{fill:#7c73f8;}.cls-7{fill:#7c73f6;}.cls-8{fill:#131313;}.cls-9{fill:#7870f0;}.cls-10{fill:#323232;}.cls-11{fill:#1d1d1d;}.cls-12{fill:#7c73fc;}.cls-13{fill:#fbfbfc;}.cls-14{fill:#fcfcfc;}.cls-15{fill:#fbfbfb;}.cls-16{fill:#f8f8fa;}.cls-17{fill:#fafafa;}.cls-18{fill:#fafafb;}.cls-19{fill:#7970f5;}.cls-20{fill:#786ff3;}.cls-21{fill:#f6f6f8;}.cls-22{fill:#766def;}.cls-23{fill:#f3f3f3;}.cls-24{fill:#ededed;}.cls-25{fill:#cecde0;}.cls-26{fill:#fefefe;}.cls-27{fill:#f7f7fa;}.cls-28{fill:#0e0d1c;}.cls-29{fill:#7e75fd;}</style></defs><title>Asset 4</title><g id="Layer_2" data-name="Layer 2"><g id="Layer_2-2" data-name="Layer 2"><path class="cls-1" d="M516.34,164.72,417.89,364.14s28.1,61,91.58,57.58,113.47-19.41,113.47-19.41l29.84-13.67s-5.64-153.42-21.4-154.38-11.82-51.5-42.23-51.57"/></g><g id="Layer_0_Image" data-name="Layer 0 Image"><path class="cls-2" d="M518.25,106.05c2.27,2.39,5,4.48,6.7,7.24,2.15,3.6,1.28,7.22-2.36,9.68,7.31,16.64,6.88,19.61-4,27.67,1.91,4.67-2.07,6.23-5.28,9,5.09,1.12,9.65,2.62,14.31,3.06a272.2,272.2,0,0,1,52.78,10.52c8,2.39,15.72,5.59,23.54,8.5,4.5,1.68,7.7,4.8,10.31,8.88,20.5,32.1,32.54,67.15,37.16,104.89,2.26,18.54,2.82,37.15,3.21,55.78.2,9.8.13,19.6.15,29.4,0,5.3-1.64,9.41-6.69,12.31a150.34,150.34,0,0,1-33.68,14.46c-21.11,6.07-42.26,12-64.12,14.82-18.75,2.39-37.47,2.42-56.09-1.35a27,27,0,0,1-2.72-.91,13.46,13.46,0,0,1,2.67-.73c4.63-.08,9.29-.46,13.88-.06,25.5,2.2,50.41-1.36,74.92-7.95,15.58-4.19,31.06-8.85,46.33-14,6.7-2.28,12.81-6.35,19.12-9.73a3.62,3.62,0,0,0,1.73-2.43c.44-5.79.93-11.61.88-17.41-.06-7.54-.59-15.07-.92-22.6-.05-3.16,0-6.34-.15-9.5-.31-7.24-.71-14.48-1.08-21.72-.23-3.43-.26-6.89-.74-10.28q-1.82-13-4-25.92c-.75-4.43-1.84-8.8-2.77-13.19q-2.13-6.74-4.27-13.47L636,247.89l0,0-1.68-5.45-2.91-8.21c-5.21-14.58-12.48-28.11-20.73-41.18a19,19,0,0,0-11.2-8.36l-10.27-3.91C580,178.09,571,175,561.67,172.76c-7.68-1.85-15.61-2.69-23.42-4-.2-.18-.38-.49-.6-.53-7.5-1.26-15-2.5-22.72-3.78l-2.74,7.05c-4.44,9.74-8.91,19.46-13.32,29.21q-27.76,61.39-55.49,122.82c-1.94,4.3-3.73,8.67-5.69,13a45.63,45.63,0,0,1-2.48,4.22l4,4.71c2.5-5.45,4.77-10.58,7.21-15.63.67-1.4,2-2.49,2.74-3.87q18.5-33.81,36.89-67.66c5.94-10.92,11.74-21.91,17.7-32.81,5.28-9.66,10.7-19.25,16-28.87l1.46,0-4.89,9.22-.35.51c-3.29,6.37-6.55,12.75-9.88,19.09Q480,275.27,453.78,325c-.45.86-.87,1.73-1.39,2.78H462c.72,0,1.44.08,2.15.09,12.84,0,25.67,0,38.5.12,5.69.05,11.37.39,17.06.59l41.25,2,.65,0-.18-.56c-.82-1.51-1.57-3.07-2.48-4.52a190.85,190.85,0,0,1-19.74-41.11,100.37,100.37,0,0,1-2.42-10.66l.65-.41a12.08,12.08,0,0,1,1.89,2.95c4.87,17.17,14.22,32.12,23.24,47.24,1.3,2.17,2.32,4.51,3.55,6.94,6.26-2.05,12.65-3.34,19.35-1.4l-11.93,2.4,0,.63c2.41.44,4.82.83,7.22,1.32,4.26.88,8.52,1.77,12.75,2.78a13.87,13.87,0,0,1,4,1.68c.65.4.94,1.37,1.4,2.09-.76.35-1.52,1-2.27,1a24.39,24.39,0,0,1-4-.65l-15-2.78a16.76,16.76,0,0,0-2.36-.62c-14.59-1.66-29.16-3.57-43.78-4.88-24.89-2.21-49.83-2.09-74.78-1-2,.09-4.09,0-6.75,0,.64,1.91.73,3.68,1.66,4.65,8.32,8.77,12.21,19.66,14.85,31.07,2.1,9.1,3.71,18.31,5.54,27.46.39,6.08.85,12.14,1.11,18.22a2.14,2.14,0,0,0,1.93,2.37c3.35.82,6.69,1.67,10,2.63a16.94,16.94,0,0,1,3,1.51l-.11.87a8.73,8.73,0,0,1-2.86.51c-4.55-.76-9.1-1.63-13.61-2.6a6.28,6.28,0,0,1-2.53-1.5c-4.81-4.07-9.58-8.18-14.61-12.5-2,2.91-3.74,5.39-5.39,7.95-1.42,2.19-2.84,2.5-5.14,1-10-6.71-20.16-13.24-30.52-20-.68,1.2-1.49,2.48-2.14,3.83-1,2.14-2.76,2.81-4.71,1.8-4.35-2.25-8.56-4.76-12.8-7.2a2.11,2.11,0,0,1-1-1.25c-.9-6.06-6.07-6.3-10.13-6.41-31.41-.82-62.83-1.26-94.25-1.81-3.17-.05-6.35,0-10,0a50,50,0,0,0,1.8,4.94c.21.43,1.17.66,1.81.71q44,3.53,88,7c8,.63,15.94,1.19,23.9,1.86a36.76,36.76,0,0,1,5.57,1.08c.54.13,1.33.68,1.38,1.1a42,42,0,0,1,.36,7c0,.58-1.32,1.43-2.15,1.6-33.19,6.62-66.43,13-99.6,19.83-10.49,2.15-20.93,1.38-31.41,1-24.87-.9-49.73-2-74.59-2.95q-55.81-2.16-111.63-4.26-9.39-.36-18.78-.68c-5.07-.16-5.29-.25-6.89-5.16C48.62,392,41.33,369.27,33.9,346.57Q17.66,297,1.28,247.45c-2.31-7-2-7.45,5.27-7.23q53,1.56,105.93,3.17c2.09.06,2.79-.68,3.32-2.54a89.49,89.49,0,0,1,15-29.72c12.55-16.59,36.82-18,50.3-11.44,12.56,6.12,21,15.46,26.6,27.91,1.82,4.07,3.58,8.16,5.13,12.33.66,1.77.72,3.77,1.14,6.16,3.77.17,8.16.52,12.55.48,2.73,0,4.13.67,5,3.55,2.08,6.66,4.69,13.16,7.08,19.72l2.94,8.34c.37,1.22.69,2.45,1.12,3.64q13.38,37.46,26.79,74.9c2.56,7.16,5,14.35,7.55,21.46,20.56-3,35.52-14.77,49.09-29.47-19-5.49-33.82-16.06-44.76-31.9-7.23-10.46-11.8-21.87-11.3-34.89.6-15.44,10.29-27.3,25.29-30.88a44.42,44.42,0,0,1,20.54-.1c26.52,6.12,44.86,22.14,55.39,47.06a41.41,41.41,0,0,1,1.91,28,97.76,97.76,0,0,1-3.73,9.38c2.21,1.5,4.46,3,6.71,4.54s4.61,3.1,6.89,4.64c9.41-9.29,9.41-9.29,23-15.26-.78-1.92-1.64-3.82-2.33-5.77q-9.84-27.58-19.61-55.18-10.31-29.29-20.41-58.66c-.32-.91.32-2.14.51-3.23.71.77,1.71,1.41,2.09,2.32,1.09,2.59,1.93,5.28,2.86,7.94q18.54,52.82,37,105.65c.77,2.19,1.33,4.46,2,6.73l6-.37c-.38-1.31-.67-2.35-1-3.39q-17.94-61.89-35.86-123.77c-.47-1.62-.87-2.77-2.8-3.45-1.49-.52-2.74-2.21-3.68-3.66a27.51,27.51,0,0,1-2-4.92l1.36-.72a24.79,24.79,0,0,1,3.11,3c1.71,2.33,3.86,2.84,6.48,2.07,1.13-.33,2.24-.71,3.34-1.13,4.3-1.67,8.63-2.66,13.28-1.42,3.24.86,6.64,1.16,9.83,2.14,7.15,2.21,13.18.06,18.84-4.2C433.53,183,440,175,443.51,165c1.4-3.94,2.4-8,3.83-12.91-2.5.54-4,1-5.58,1.18a7.38,7.38,0,0,1-2.11-.28c.32-.68.46-1.61,1-2a25.19,25.19,0,0,1,3.62-1.86L450,149c4.51,1.38,6.05,3.69,4.19,6.31l-4.25-2.19-5.25,25.43-.66,2.31,0-.08-.54,2,0,0c-.52,1.23-1,2.48-1.55,3.7-2,4.6-3.9,9.27-6.14,13.77-2.13,4.29-5,8-9.42,10.33-5.82,3.06-11.81,5.54-18.56,5.44a49.13,49.13,0,0,1-5.7-.17c-4.88-.66-10.12-.5-13.38-5.32-.16-.24-.76-.19-1.26-.29A16,16,0,0,0,402.21,222c15.68.83,29.74-3.19,40.37-15.5,5.45-6.31,10.45-13,15.54-19.61,4.45-5.78,9.78-9.61,17.5-9a87.41,87.41,0,0,0,10.61.23,67.38,67.38,0,0,0,11-1.35c1.29-.28,2.28-2,3.4-3q-1.83-4.09-3.67-8.21c0-.64,0-1.29,0-1.94a13.37,13.37,0,0,1,3.22-1.15c5.83-.56,10.3-3.72,14.48-7.42a2.32,2.32,0,0,0,.52-2c-1.57-3.87-1.62-3.85,1.73-6.29,5.56-4,6.68-7.33,4.43-13.85-.94-2.73-2.3-5.31-3.43-8-.76-1.81-1-3.52,1.13-4.69,3.37-1.89,3.7-3,1.49-6.23-1.72-2.54-3.74-4.88-5.62-7.31C515.71,104.32,517.22,106.7,518.25,106.05ZM199.89,221.69l0,.05-.61-1.24c-1.14-1.51-2.21-3.09-3.44-4.52-9.09-10.51-20.18-16.54-34.47-16-10.13.41-18.68,4-25.67,11.37-8.2,8.68-12.86,19.25-16.36,30.44-.25.81.23,1.85,0,2.68-.78,2.84-1.84,5.6-2.56,8.45-.6,2.41,1,3.92,2.65,5.79l.84-3a80.14,80.14,0,0,1,5.36-7.24c5.44-5.95,11-11.76,16.66-17.54.56-.57,1.71-.55,2.58-.81a12.06,12.06,0,0,1,.26,2.78,32.63,32.63,0,0,1-1,3.67c-1.45,5.52-2.63,11.12-4.42,16.52-1.68,5-4,9.86-6.12,14.94,4,1.6,7.62,3.27,11.4,4.42a5.58,5.58,0,0,0,4.42-.9,56.81,56.81,0,0,0,6.52-6.55c5.23-5.78,10.13-11.87,15.65-17.36,3.84-3.84,8.48-6.88,12.77-10.28l1.36.7-7.66,6.81.26.75h2.54c5.41,0,10.82,0,16.23,0,3.7,0,7.39.14,11.09.21l2.85.18c-2.47-6-4.69-11.33-6.92-16.7l-.48-1.12,0,.06-3.27-6.06,0,0Zm299.66-31.1-.77,1.29c-.21.18-.49.31-.61.53q-11.79,22-23.56,44.11c-.21.4-.36.83-.61,1.21-1.23,1.92-2.61,1.89-3.63-.1a19.86,19.86,0,0,1-1-2.52A36.69,36.69,0,0,0,455.24,216c-7.28-5-12.12-5.86-18.91,1.62,4.62,1.68,7.94,4.56,7.91,9.81,0,6.46-4.37,9.56-9.93,11.54,5.75,19.46,11.46,38.78,17.29,58.49.43-.72.64-1,.79-1.32,4.77-10.39,9.58-20.77,14.31-31.18q14.94-32.79,29.83-65.6c1.05-2.3,2.31-4.51,3.47-6.77.25-.57.5-1.15.74-1.72l2.37-4.88-.87-.42Q500.89,188.07,499.55,190.59Zm-65-6.51-1.36,2c-3.86,3.77-7.71,7.55-11.82,11.58,1,3.22,2.12,7,3.34,11,5.8-2.86,8.71-7.75,10.27-13.67l.91-1.67q3.41-9.69,6.82-19.39l-.5-.19ZM289.83,377.24l-6,.57,0,.45h6.1l46.26.77c-1.93-9.92-3.8-19.56-5.78-29.79-2.06,2.22-3.58,3.87-5.12,5.52-8.16,8.69-17.37,15.93-28.49,20.48A64.64,64.64,0,0,1,289.83,377.24ZM500.63,179.5c-2.06.67-4.09,1.82-6.18,1.93a175.44,175.44,0,0,1-18.2.2c-7.43-.39-12.57,2.73-16.65,8.73-3.92,5.78-8.35,11.21-12.54,16.81-.39.51-.7,1.08-1.25,1.93,7.45-.14,11.74,4.87,16.57,8.74,5.17,4.13,7.18,10.34,9.62,16.26.21-.23.36-.33.43-.48q14-26.18,27.95-52.38a5.3,5.3,0,0,0,.24-1.8l.23.35.25-.24Zm-245.54,243a2.76,2.76,0,0,0,.75.25q15.75.68,31.49,1.3c.3,0,.61-.28.92-.43-.24-1-.41-1.94-.74-2.86-3-8.56-6.05-17.1-9-25.66Q253.75,324,229.09,253a3.14,3.14,0,0,0-3.47-2.52q-24.37-.6-48.74-1.43a4.49,4.49,0,0,0-3.95,1.73c-6.76,7.6-13.63,15.11-20.47,22.64-3,3.25-6.41,3.74-10.39,2-3-1.28-6.09-2.36-9.16-3.48s-3.8-2.4-2.57-5.57,2.71-6.35,4-9.54a24.59,24.59,0,0,0,.78-2.7,4.26,4.26,0,0,0-2.47,1.39q-4.12,4.36-8.19,8.75c-2,2.17-3.12,2.22-5.13.07-4.27-4.57-8-9.33-5.59-16.22.07-.2-.09-.49-.17-.92L4.48,243.84c.45,1.51.75,2.55,1.08,3.57,3,9.32,6.06,18.66,9.13,28q22.83,69.24,45.63,138.49c.6,1.83,1.72,1.78,3.09,1.83l45.74,1.67Q162,419.3,214.79,421.2C228.22,421.67,241.65,422,255.09,422.46ZM407.59,395c1.51-2.29,2.66-4.37,4.12-6.19,10.22-12.75,18.3-13.41,30.93-3.21,5.3,4.28,10.64,8.5,15.86,12.86a10,10,0,0,1,3.1,3.95c1,2.72,3,4.07,5.72,5.87,0-6.41.68-12.38-.17-18.13-1.14-7.78-3.42-15.39-5.27-23.05-.59-2.44-1.36-4.83-2-7.2-2.54.35-4.7.59-6.84.94a6.53,6.53,0,0,1-6.45-2.43c-5.95-6.62-12.08-13.07-18.23-19.49-5.79-6.06-12.83-7.57-20.95-5.86-15.4,3.25-29.15,20.11-31.87,34.11a3.57,3.57,0,0,0,.53,2.75c3.08,3.27,6.33,6.38,9.79,9.81a53.69,53.69,0,0,1,17.72-22.54c.88-.64,2.4-.39,3.63-.55a15.6,15.6,0,0,1-.18,3.5,9.21,9.21,0,0,1-1.62,2.82c-5.05,6.88-7.73,14.75-9.45,23-.17.84-.07,2.32.44,2.63C400,390.82,403.86,392.86,407.59,395Zm-46.18-68.28c-.45-2.19-.76-6-2-9.43-9.4-25.72-26.62-44.25-51.87-54.86a41.62,41.62,0,0,0-15.64-2.74c-10,0-16.17,7.55-15.05,17.47a41,41,0,0,0,1.46,6.91c5.52,18.75,17.13,33.21,32.22,45.1a67.37,67.37,0,0,0,26.93,13.14c5.13,1.18,10.37,1.55,15.23-.72C360.69,337.82,361.2,337.16,361.41,326.68Zm18.95-123.85Q387,225,393.72,247.05c4.49,14.78,9,29.54,13.75,45l21.95-52.89c-8.48-3-10.54-8.28-7.68-15.28-.79.1-1.48.21-2.19.28-5,.5-10.07,1.22-15.12,1.44S395,224,391,221.15s-6.2-7.14-7-12.24l2.38-.5C385.11,205.34,382.49,202.92,380.36,202.83ZM379.8,380l.6-.44c-7.16-5-10.9-11-6.06-19.17l-19-12.88c-3,.65-6.38,1.62-9.85,2.1s-7.2.51-10.49.71c1.67,9.43,3.37,19,5.12,28.8Zm-15.12-45.15a18.09,18.09,0,0,0,1.88-2.33,33.14,33.14,0,0,0,3.56-23.45c-5.12-26.47-29.28-49.84-56.37-54.58-6.12-1.08-12.23-1.14-18.28.86,9.87,1.14,18.73,4.92,26.94,10.24,17.91,11.6,31.8,26.68,39.56,46.83C364.69,319.51,366.22,326.83,364.68,334.87Zm-65.9,75.18-.22.83c1.91.89,3.83,2.55,5.72,2.53,3.68-.05,7.36-1,11-1.66q24.33-4.61,48.65-9.27c5.34-1,10.68-2,16-3l-.06-.63-98.31-7.66c1.09,3.1,2,6.21,3.33,9.2a3,3,0,0,0,2.55,1.1c2.42-.31,4.79-1,7.18-1.49.09,0,.12-.23.19-.36l-1.63-1.47,11.18.82-2.33,1.48c4.67,1.23,8.4,5.17,13.69,4l-2,1.19,3.6,2.7c-3.52.9-5.86-2.62-9.36-1.15A92.22,92.22,0,0,1,298.78,410.05Zm-5.72,14c4.62-1,8.86-1.9,13.12-2.74q44.2-8.73,88.42-17.37c2.21-.43,3-1.24,2-3.73-35.42,3.86-69.71,14.13-105.4,18C291.87,420.35,292.44,422.14,293.06,424.07Zm-19.16-145c-.12,1.24-.28,2.29-.32,3.35a50,50,0,0,0,6.29,25.64,75.53,75.53,0,0,0,19.57,23c10.25,8.28,21.66,13.43,34.75,14.86a21.26,21.26,0,0,0,3-.16C304.17,334.46,283.49,312.31,273.9,279.07ZM451.54,402l-27-20.32-10,8.77c10.73,6.87,20.84,13.36,31,19.88Zm-70.07-55.57-14-9L360,347l15,10.48Zm28.36-133.28c-1.6-4.54-3.2-8.18-4.12-12-.73-3-2-4.68-5.09-5.25a51.06,51.06,0,0,1-6.84-2.34c2,6.16,3.76,11.6,5.53,17,.1.31.31.78.53.83C403.11,212,406.4,212.56,409.83,213.15Zm-2.52-14.68c1,4.29,2,8.61,3.18,12.88a2.22,2.22,0,0,0,1.88,1c3.56-.71,7.08-1.62,10.64-2.46-1.6-4.41-2.95-8.14-4.14-11.44Zm-266.48,38a84.52,84.52,0,0,0-19.53,23.33c-.32.57.25,1.66.4,2.5l-.18-1q8-7.35,16.07-14.71C140.58,243.83,140.29,240,140.83,236.44Zm256.36-25.25.48-.57-7.75-16.41-6.63,3.23c3.58,4.19,6.9,8.21,10.41,12.06C394.51,210.38,396,210.64,397.19,211.19Zm-107.73,193c2.56,1.45,4.85,3.79,7.14,3.79,3.57,0,7.15-1.58,10.77-2.5C301.83,400.8,296.05,400.86,289.46,404.22ZM500.85,164.91c.93,1.74,1.84,3.49,2.81,5.21a14.2,14.2,0,0,0,1.2,1.6c.59-.49,1.43-.85,1.73-1.47,1.42-2.88,2.69-5.83,4.15-9.06Zm-56,176.77c-1.07,1.84-2.13,3.61-3.13,5.41-.19.34-.34,1-.16,1.21,2,2.67,4.15,5.3,6.24,7.94l.3-.34Zm-145,72.55c-4.42-3.6-6.28-3.79-10.61-1.19.41,1,.82,2.09,1.25,3.18Zm-13.25-9.91c1,6,1.29,6.27,6,4.61C290.6,407.41,288.79,406,286.6,404.32ZM342,345.89l-.11-.16-4.86-.64-.07.8Z"/><path class="cls-3" d="M518.25,106.05c-1,.65-2.54-1.73-3.32.53a8.35,8.35,0,0,0-2.74-.94,67.33,67.33,0,0,1-21.47-2.36c-1.53-.76-3.09-1.45-4.58-2.28-3-1.68-5.94-3.44-8.9-5.16l.37-1c16.61,6.89,33.47,8.32,50.94,2.9-1.94-.59-3.57-1.23-5.27-1.57-12.26-2.45-24.49-5.09-37.09-5.35a52.73,52.73,0,0,1-9.39-1.34c-1.09-.22-2-1.21-3.58-2.21,7,.3,13,.59,19,.78a4.1,4.1,0,0,0,2.75-.64c4-4,7.88-8.23,11.79-12.38l4.89-6-.46-.71-9.46,3.62c-3,.93-6,1.91-9.09,2.79a82.62,82.62,0,0,1-32.09,2.62c-1.56-.17-3.86.09-3-2.82a23.43,23.43,0,0,1,3.52-.29c14.71,1,28.71-1.93,42.21-7.63,1.25-.53,2.54-1,3.81-1.46a3.56,3.56,0,0,0-2.3-.47c-11.95,1.52-24.15,1.06-35.86,4.49a15.27,15.27,0,0,1-3.4.25l-.26-1,2.89-2.09,19.46-4.93c-4.27-.85-9.4-1.82-14.5-2.94s-10.23-2.39-15.35-3.6l-12.31-4.54-.26.7,12.45,4.88,2.45,1.71a33.48,33.48,0,0,1-19.18-4.68c-5.78-3.47-10-8.14-11-15.37-4.3,5.11-4.3,5.11-7.3,5.39l-1.4-.16c0-.73-.05-1.47-.07-2.2a10.15,10.15,0,0,1,1.2-.58,9.24,9.24,0,0,0,5.39-11.33c0-2.18.08-4.35,0-6.53A3.35,3.35,0,0,0,427,20c-4.51-3.84-9.22-7.41-15-9.12a3,3,0,0,0-2.68.94c-1.45,2.59-2.57,5.35-3.81,8.06-.14.76-.29,1.53-.43,2.3l.08.95L405,24.24l-.34,3.2c-.06.57-.13,1.14-.19,1.71-.08,1.27-.16,2.53-.25,3.8L403,33q-.09-4.09-.19-8.19l.21-1.71.3-2.12c.09-.58.19-1.17.28-1.75,1.33-3.18,2.67-6.36,4.17-9.95-4.11-.44-8.32-1.29-12.52-1.27-11.93.08-18,7.31-19.09,18.65l0,3.53.17,1.16.32,2.12.31,1.12.22,1.06,2.55,7.17c-.24.38-.48.76-.73,1.14l-4.86-9.39c-.11-.37-.22-.74-.34-1.12-.08-.53-.17-1.07-.25-1.61l-.33-2.23c.43-3.48.85-7,1.28-10.43-.13,0-.35,0-.45.15-7,7.5-14.37,14.67-19.15,23.86-1.19,2.27-1.1,5.2-1.59,7.82l1.56,4.82c.84,1.66,1.67,3.32,2.51,5l.6,1.55-1,1v.08l-.15-.16-5.8-10.22V45.3c-.7.65-1.32,1.27-2,1.85C345,50.78,341,54.72,336.6,58a15.57,15.57,0,0,0-6.42,10.47c0,.76-.11,1.53-.12,2.3,0,1.43,0,2.86,0,4.3l-.85.09c-.41-1.91-.81-3.83-1.22-5.74q.52-3.21,1-6.42h.24l-.15-.19,0,.24c-3.08.92-6.11,2.16-9.26,2.68a5.15,5.15,0,0,0-4.77,4.86c-.28.56-.57,1.11-.95,1.87-.36-.44-.6-.61-.66-.84a12.49,12.49,0,0,1-.23-1.51c.29-1.2.57-2.41.78-3.33-2.59-1.2-5.42-2-7.7-3.67a10,10,0,0,1-1.33-15l.65,1.09c-2.34,4-.6,9.6,3.77,12,3.66,2,7.49,1.87,11.39.88,8.63-2.18,15.82-7,21.93-13.15,7.22-7.28,13.84-15.14,20.84-22.65,4.2-4.5,8.49-8.95,13-13.17,7.81-7.32,17-9.2,27.51-7.39,9.27,1.6,17.6,4.84,24.69,10.89A40.34,40.34,0,0,1,457.83.43c18.26-1.74,35.44,1.65,50.38,13.16,4.67,3.59,9.37,7.17,14.15,10.62C531.82,31.05,541.8,37,553.1,40.28c13.22,3.84,26.5,6.38,40,.83a40.58,40.58,0,0,0,15.72-10.92c5.89-6.83,5.74-12.31-.82-19.2a16.41,16.41,0,0,1,2.52.59c3.11,1.31,5.87,2.85,7.58,6.16,6,11.63,4.26,23.83-4.78,33.77C605.93,59.63,596.55,64,586,65.65c-8.2,1.31-16.58,1.52-24.88,2.19a15.09,15.09,0,0,0-3.63.41c2.74.76,5.52,1.42,8.22,2.32a119.24,119.24,0,0,1,11.2,4.15c3.45,1.55,3.57,4.11.36,6-8.26,4.93-16.37,10.2-25,14.42-6,3-12.78,4.53-19.29,6.46-4.34,1.28-8.83,2-13.23,3.14C519.21,104.91,518.76,105.61,518.25,106.05ZM601.08,45c-.3-.89-.61-1.78-1-2.82-8.55,4.4-17.42,6.77-27,6.3l.84,4.15c-.47,2.83-.36,5.84-2.76,8.15V52.51c-.24-2.84-1.41-4.37-4.56-5-6.65-1.28-13.19-3.13-19.75-4.84-2.07-.54-4.07-1.38-6.38-2.18.17,2.41.32,4.47.47,6.54l-1.63,6.35-.62-.17V46.08c-.52-2.62.46-5.71-2.51-7.54q-7.86-4.86-15.69-9.77c-2.34-1.45-4.66-2.94-6.82-4.31-.45,2.68-.88,5.22-1.32,7.77-.44,3.72.21,7.67-2.29,11q.44-6.39.88-12.78a9.44,9.44,0,0,0,.44-2.91c-.35-2.13-.3-4.94-1.62-6.18a72.51,72.51,0,0,0-11.68-8.78,40.21,40.21,0,0,0-15.64-6.07c1,3.73,1.92,7.35,2.86,11q-.79,6.94-1.57,13.88l-.95.56c.09-1.17.28-2.34.26-3.5-.07-4-.22-8.06-.33-12.08-1.28-3.32-2.11-6.94-4-9.83-.85-1.27-3.93-1.06-6-1.5-.16,0-.34.06-.52.09l-11.1-.42-9.22,1.17c1.54,4,2.89,7.49,4.23,11,1.18,8.26-.88,15.78-5.17,22.81a3,3,0,0,1,0-1.89c1.07-4.33,2.36-8.63,3.16-13,.39-2.15-.12-4.46-.22-6.7-1-3.09-1.88-6.22-3.07-9.23a2.73,2.73,0,0,0-2.44-1.09A80.54,80.54,0,0,0,437,14.3c-4.7,3.56-6,10.32-3.66,16,1.19,6.85,5.17,12,10.76,15.61a29.84,29.84,0,0,0,9.79,4c13.1,2.87,26.21,5.89,39.46,7.92,11.37,1.74,23,2,34.42,3.28,15.26,1.69,30.51,3.53,45.89,2.27,10-.82,19.92-2.56,28.52-8.14,9.27-6,15.73-14,15.65-25.8l-1.11-5.63-.79.14c-2.15,7-6.63,12.17-12.58,16.1-2.07,1.37-2.18,2.71-1,4.58l-.66.5ZM570.49,79.48l4.57-2.07-5.15-2.06c-8.61-2.15-17.24-4.24-25.82-6.47-7.64-2-15.39-2.3-23.22-2-2.92.12-5.25.69-6.26,3.92a24.87,24.87,0,0,1-2.48,4.5l-12,13.1c8.35,1.67,17.23,3.47,26.12,5.2a8.88,8.88,0,0,0,3.25,0c5.47-1,10.93-2.08,16.4-3.11.67-.13,1.53-.43,2-.15,1.61.91,1.59,1,2.56.47,4.23-2.53,8.43-5.09,12.64-7.63ZM351.69,44.65l-.09.14.12,0Zm23.44-26.2-.1.17.14,0Z"/><path class="cls-4" d="M421.22,42.8l1.4.16c-1.13.5-2.23,1.35-3.38,1.43-5.6.4-11.18.79-16.18,3.76-2.22,1.8-4.49,3.55-6.63,5.44-.55.48-1.19,1.6-1,2.11,1.41,3.6-1.24,3.45-3.34,3.78-1.25.2-2.53.2-3.78.38-4.61.66-9.62.6-11,6.74-.27,1.23-1.85,2.22-2,3.41-.41,3.56-2.21,6.25-4.54,8.73-1.77,1.81-3.53,3.62-5.3,5.42l-.65,2,1.78-.42c2.69-2.18,5.67-3.3,9.18-2.47,5.9,2.89,10.48,6.79,10.63,14-.65-.63-1.28-1.3-2-1.89-1.82-1.57-3.68-3.1-5.52-4.65a.41.41,0,0,1-.38-.31l-.09-.23-.25,0c-6.42-5.22-9.62-.14-13.37,5.08-.48-2.11-.75-3.32-1-4.53.52-1.33,1-2.67,1.55-4l-1.28-.88c-.19.88-.39,1.77-.58,2.65l-1.09-.73c.09-1.17.19-2.35.3-3.75l-10.36,2.69,7.17,5.93-2.19.42A65.46,65.46,0,0,1,350.73,89c-1.32-1-2.35-1.41-3.85-.65-7.68,3.88-15.38,7.71-23.05,11.6a32.06,32.06,0,0,0-2.91,1.87c7.43,3.36,14.7,4.12,22.12,1.69,4-1.29,7.81-2.91,11.74-4.31,2.28-.81,4.6-1.48,6.91-2.21L360,102.11,357.83,104c2,3.26,2,3.33-1.25,4.89a25.83,25.83,0,0,0-2.5,1.54c-2.08,1.12-1.82,2.76-.75,4.32.64.95,1.77,1.55,2.5,2.46a3.37,3.37,0,0,1,.88,2.26c-.06.43-1.24.94-1.95,1-1.8.13-3.63-.16-5.42,0-3.64.39-4.62,2.51-2.26,5.33,1.59,1.92,3.85,3.27,5.62,5,.71.72.91,1.93,1.35,2.92a9.17,9.17,0,0,1-2.78,1.12c-1.61.09-3.24-.31-4.87-.34-2.28-.05-2.85.76-1.89,2.78a18.92,18.92,0,0,0,8.14,8.46c7.29,4.69,8.19,5.16,14.8-.3,5.45-4.51,9.22-10.48,12.51-16.72.5-1,1-1.74-.76-1.48l.9-1.56c.76-.57,1.82-1,2.21-1.74,3.19-6.15,3.48-12.92,3.94-19.64-.05-1.57-.16-3.13-.12-4.7,0-.43.42-.86.65-1.29a14.45,14.45,0,0,1,.58,2.09A54.85,54.85,0,0,1,380,135.82c-3.52,5.94-7.71,11.34-13.7,15.16,4.67,1.52,9,3,13.47,4.36s9,2,13.27-.3a60.66,60.66,0,0,1,22.73-7h0l1.19.31c4.32,1.13,7.27,3.73,8.08,8.19,1.33,7.32-2.21,13.23-5.9,19l-1.46-.87c3.35-5,4.9-10.34,3.41-16.33-1.14-4.48-3.65-6.31-8.49-5.11a165.64,165.64,0,0,0-18.07,5.62c-6.54,2.46-12.82,3.18-19-.61a32,32,0,0,0-17.19-5c-3.33,0-6.47,2.18-6.05,5.07.54,3.74,2,7.35,3,11l0,0,1.05,2.74,8.8,12.53-.11,1.45A29.58,29.58,0,0,1,354,175.18c-.6-1.3-1.21-2.59-2-4.3-4.94,1.71-9.71,3.38-14.49,5-20,6.83-37.6,17.25-51.72,33.41-14.76,16.88-28,34.76-38.76,54.45-1.23,2.24-3.14,4.11-4.73,6.15l-.69-.41c.42-1,.87-2,1.24-3s.7-2.16,1.05-3.24C253,247,263.14,231.33,275.11,217a301.07,301.07,0,0,1,23.4-24.67c10.18-9.7,23-15,36-19.73,5.28-1.91,10.66-3.53,16.14-5.33-1.87-5.65-1.77-11.16,2.86-15.61-2.8-2.24-5.77-4.34-8.38-6.83a20,20,0,0,1-4.09-5.7c-2.33-4.82-.77-7.6,4.95-8.88-2.15-2.8-4.52-5.61-3.28-9.31,1.33-3.92,5-4,8.08-4.19,0-2.46-.66-5,.19-6.87s3.21-3,5.11-4.55c-.07-.75-.18-1.94-.25-2.78-5.58,1.57-11.18,3.29-16.87,4.7a28.66,28.66,0,0,1-16.61-1.1,41.84,41.84,0,0,0-5.47-1.62c-2.73-.55-3.67-2-1.9-4.14,3.22-3.89,6.79-7.51,10.34-11.12,1.18-1.2,2.72-2,4.1-3.36-6.37.84-12.47-.38-18.54-1.88l.14-1.39c5,0,10.07.71,14.9-.1a111.21,111.21,0,0,0,35.62-12.26,7.1,7.1,0,0,0,1.32-1.2c3.73-1.46,7.47-2.91,11.19-4.41a3.3,3.3,0,0,0,1.27-.95,17.71,17.71,0,0,1,9.28-5.83l1.67-.33,2.14-.21c1.45-.54,4.1,1.33,4.12-2.06,1.57-2.49,2.71-5.45,4.8-7.38,6.26-5.79,13.77-7.66,22.14-5.66ZM337.73,85.87l0,0-.61.53,0,0-13.35,8,.68,1.16,10.41-6.32.76-.49,0,0c7.9-3.15,15.86-6.19,24.39-7.07,5.08-.51,8.23-3.81,11.39-7.12,1-1.05,1.26-2.81,1.87-4.24l-.63-.46c-1.62.76-3.22,1.57-4.86,2.29-7.31,3.18-14.64,6.31-21.94,9.52-2.55,1.13-5,2.42-7.55,3.64Z"/><path class="cls-5" d="M591.72,179.2l10.52,4.2,2.1,3.3c-4.81,0-8.44,2.72-12.85,4.83.77.18,1.06.34,1.27.28,3.41-1,6.85-2,10.2-3.15.62-.22.92-1.3,1.37-2,.73.42,1.7.66,2.16,1.26a61.89,61.89,0,0,1,5.82,8.35c7.88,15.3,15.57,30.7,23.33,46.07l2.7,5.53,0,0,1.08,3.1q2,6.82,4.06,13.65c0,.64,0,1.27.13,1.9l6.33,47.93c.19,7.29.42,14.57.56,21.86.06,3.18-.06,6.37-.1,9.55-.61-5.24-1.31-10.47-1.8-15.72-2.76-29.23-8.74-57.81-19.3-85.35-4.81-12.58-10.59-24.81-16-37.18-2.57-5.9-7-10.38-12.16-14.13a5.76,5.76,0,0,0-4.36-.44c-8.13,2.36-14.93,7.19-21.93,11.6-3.23,2-6.24,4.37-9.42,6.48a15.7,15.7,0,0,1-4.4,2.34c-1.29.34-3.55.37-4.06-.35a4.92,4.92,0,0,1,0-4.23c2.36-5,6.46-8.73,10.91-12s9.42-6.31,14.14-9.45c.52-.35,1-.73,2-1.41-3.27-.95-6.09-1.81-8.93-2.6-13-3.64-25.92-7.47-39-10.82-7.79-2-15.78-3.23-23.69-4.81,1.08-2.49,2.15-5,3-7,8,1.49,15.67,2.93,23.39,4.41.23,0,.4.35.6.54a40.27,40.27,0,0,0,3.92,1.22c11.22,2.35,22.47,4.44,33.29,8.37C581.46,177.11,586.67,177.94,591.72,179.2Z"/><path class="cls-6" d="M472,394.31c-1.83-9.15-3.44-18.36-5.54-27.46-2.64-11.41-6.53-22.3-14.85-31.07-.93-1-1-2.74-1.66-4.65,2.66,0,4.71.08,6.75,0,24.95-1.1,49.89-1.22,74.78,1,14.62,1.31,29.19,3.22,43.78,4.88a16.76,16.76,0,0,1,2.36.62c0,2.46-1.94,2.44-3.49,2.41-5.81-.1-11.65,0-17.4-.66-14.27-1.62-28.49-.88-42.67.62-8.1.86-16.12,2.48-24.12,4a21.6,21.6,0,0,0-6.65,3c-3.51,2.12-5.11,5.48-5.53,9.52-1,10-2,20-3.3,30C474.14,389.21,472.87,391.74,472,394.31Z"/><path class="cls-7" d="M243.93,263.24c-.35,1.08-.66,2.17-1.05,3.24s-.82,2-1.24,3l.69.41c1.59-2,3.5-3.91,4.73-6.15,10.77-19.69,24-37.57,38.76-54.45,14.12-16.16,31.71-26.58,51.72-33.41,4.78-1.64,9.55-3.31,14.49-5,.8,1.71,1.41,3,2,4.3-12.23,3.5-24.3,7.4-34.65,15.19-5.5,4.14-11,8.33-16.37,12.62-19.83,15.77-35.8,34.84-48.66,56.66-3.8,6.45-8.5,12.37-12.8,18.53l-2.94-8.34Z"/><path class="cls-5" d="M535.21,243.27a32.61,32.61,0,0,1,1-3.59c2.82-6.61,5.79-13.11,11.71-17.73,1.31-1,2.38-1.74,3.8-.65a2.83,2.83,0,0,1,.62,4.12c-1.82,2.81-3.8,5.51-5.55,8.36-1.88,3.07-3.58,6.26-5.35,9.4-.18.31-.22.8-.48.95-1.08.65-2.34,1.8-3.3,1.6S535.89,244,535.21,243.27Z"/><path class="cls-8" d="M311.07,82.68l-.14,1.39c-4.39-.71-8.54-1.89-12.21-4.68-6.58-5-7-18.8-3.77-25.85,3.08-6.67,7.87-11.26,15.16-12.78,1.65-.35,3.48.14,5.22.24l.05,1.2-2,.64-6.66,2-5.37,4.26C296,54.77,294.53,61.49,295.64,69c.95,6.46,4.41,10.67,10.72,12.45C307.93,81.87,309.5,82.27,311.07,82.68Z"/><path class="cls-4" d="M280.17,165.68c-1.28-1.75-2.92-3.35-3.76-5.29-2.45-5.63-4.61-11.39-6.79-17.13a2.41,2.41,0,0,1,.35-2.15,2.32,2.32,0,0,1,2.19-.12,8.14,8.14,0,0,1,2.72,2.56c3.94,6.65,5.66,14,6.47,21.52Z"/><path class="cls-4" d="M248.06,196.43c-2-.66-4.3-1-6-2.06-4.46-2.88-8.75-6-12.93-9.3-.78-.61-.72-2.29-1-3.48,1.22.13,2.77-.17,3.62.46,5.75,4.29,11.36,8.78,17,13.2Z"/><path class="cls-9" d="M519.73,328.61c-5.69-.2-11.37-.54-17.06-.59-12.83-.11-25.66-.09-38.5-.12-.71,0-1.43-.06-2.15-.09,4.81-.74,9.64-2.22,14.42-2.06,14.2.49,28.37,1.63,42.56,2.53A2.5,2.5,0,0,1,519.73,328.61Z"/><path class="cls-8" d="M308.81,137.25c4,2,4.3,5.63,4.21,9.17a63.21,63.21,0,0,1-1.5,10.7C308.61,150.73,308.91,144,308.81,137.25Z"/><path class="cls-10" d="M306.69,44.89l6.66-2-7.74,6.36c-.22-.36-.44-.72-.65-1.09a15.55,15.55,0,0,0,1.74-1.9C306.91,45.91,306.71,45.33,306.69,44.89Z"/><path class="cls-11" d="M521.23,196.66l-1.46,0Z"/><path class="cls-11" d="M516,206.39l.35-.51Z"/><path class="cls-12" d="M255.09,422.46c-13.44-.42-26.87-.79-40.3-1.26q-52.81-1.87-105.64-3.82l-45.74-1.67c-1.37,0-2.49,0-3.09-1.83Q37.58,344.61,14.69,275.39c-3.07-9.32-6.09-18.66-9.13-28-.33-1-.63-2.06-1.08-3.57l109.11,3.36c.08.43.24.72.17.92-2.4,6.89,1.32,11.65,5.59,16.22,2,2.15,3.13,2.1,5.13-.07q4.06-4.39,8.19-8.75a4.26,4.26,0,0,1,2.47-1.39,24.59,24.59,0,0,1-.78,2.7c-1.31,3.19-2.78,6.32-4,9.54s-.53,4.44,2.57,5.57,6.16,2.2,9.16,3.48c4,1.7,7.44,1.21,10.39-2,6.84-7.53,13.71-15,20.47-22.64a4.49,4.49,0,0,1,3.95-1.73q24.36.81,48.74,1.43a3.14,3.14,0,0,1,3.47,2.52q24.63,71.07,49.39,142.1c3,8.56,6,17.1,9,25.66.33.92.5,1.9.74,2.86-8.08-.36-16.15-.75-24.23-1.06C261,422.4,258.06,422.47,255.09,422.46Zm-37.92-68.25,1-.39a14.05,14.05,0,0,0,.2-2.8c-.58-4.95-.69-10-2-14.78-2.62-9.43-5.91-18.67-8.94-28-3.93-12.08-7.81-24.17-11.87-36.2a21.47,21.47,0,0,0-3.38-5.8,2.85,2.85,0,0,0-2.65-.6,3,3,0,0,0-1.48,2.31,16.81,16.81,0,0,0,.77,5.07c6.17,19.74,12.32,39.48,18.66,59.16,1.77,5.52,4,10.88,6.27,16.23A47.79,47.79,0,0,0,217.17,354.21Zm9.19-98.54-1,.28c.48,1.78.86,3.58,1.46,5.32Q249.16,326,271.56,390.71c3.39,9.78,6.72,19.57,10.17,29.33.25.7,1.27,1.13,1.94,1.68a9.07,9.07,0,0,0,.29-2.6,24,24,0,0,0-1.21-3.32q-12.56-36-25.12-72Q242.84,301.53,228,259.28C227.54,258,226.91,256.87,226.36,255.67ZM230,398.23l.81-.2c.2-1.73.79-3.51.53-5.17-.91-5.7-2.06-11.37-3.23-17a11.49,11.49,0,0,0-1.48-3.46c-1-1.63-2.35-3-4.41-2.32s-1.89,2.83-1.53,4.43c1.68,7.51,3.43,15,7.52,21.68A15.81,15.81,0,0,0,230,398.23ZM134.8,332.47c.07-6-4.53-10.3-11.1-10.31a10.43,10.43,0,0,0-10.26,10.25,10.68,10.68,0,1,0,21.36.06Z"/><path class="cls-13" d="M419.08,175.61c3.69-5.81,7.23-11.72,5.9-19-.81-4.46-3.76-7.06-8.08-8.19l-1.19-.31h0c-2.76-.94-5.47-2.28-8.31-2.73-5-.79-9.69,1-14.05,3.3-4.64,2.46-9.24,3.61-14.18,1l-.59-1.2c1.44-1.24,3-2.38,4.31-3.72,10-10,13.88-22.18,13.33-36.09-.42-10.77-5.71-18.64-14.27-24.62-1.84-1.3-3.91-1.91-6.13-.77-3.51-.83-6.49.29-9.18,2.47l-1.13-1.61c1.77-1.8,3.53-3.61,5.3-5.42a8.83,8.83,0,0,0,6.94-3.12c1.57-1.75,3.09-3.56,4.81-5.16A21.61,21.61,0,0,1,394.73,65c3.77-.54,5.45-2.09,5.06-4.82-.49-3.51.78-6.37,2.33-9.27a16.8,16.8,0,0,0,.94-2.72c5-3,10.58-3.36,16.18-3.76,1.15-.08,2.25-.93,3.38-1.43,3-.28,3-.28,7.3-5.39,1,7.23,5.24,11.9,11,15.37a33.48,33.48,0,0,0,19.18,4.68l-2.45-1.71.12-1c5.12,1.21,10.22,2.48,15.35,3.6s10.23,2.09,14.5,2.94l-19.46,4.93-15.42-.58c-3.29-1.62-6.7-3.05-9.85-4.91-6.06-3.58-12.38-7.05-13.93-14.91-.06-.3-.35-.55-.81-1.25a7.49,7.49,0,0,0,.87,8c2.55,3.44,5.8,6.35,8.76,9.48,5.17,6.39,10.41,12.69,19.77,12.38-.83,2.91,1.47,2.65,3,2.82a82.62,82.62,0,0,0,32.09-2.62c3-.88,6.06-1.86,9.09-2.79.89,2.32,3,2.65,5,3.12C502.9,79.18,499,83.36,495,87.41a4.1,4.1,0,0,1-2.75.64c-6-.19-12.07-.48-19-.78,1.56,1,2.49,2,3.58,2.21a52.73,52.73,0,0,0,9.39,1.34c12.6.26,24.83,2.9,37.09,5.35,1.7.34,3.33,1,5.27,1.57-17.47,5.42-34.33,4-50.94-2.9l-.37,1c3,1.72,5.91,3.48,8.9,5.16,1.49.83,3.05,1.52,4.59,2.28,1.54,1.66,2.88,3.59,4.66,5,4.94,3.8,10.1,7.31,15.09,11,2.16,1.63,2.39,4,2.23,6.61a46.09,46.09,0,0,0,.37,10.17,7.34,7.34,0,0,1-1.92,6.88,16.08,16.08,0,0,0-3.91,6.63,7.14,7.14,0,0,1-3.81,5c-3.37,2-6.5,4.44-6.46,9,0,.65,0,1.3,0,1.94,0,2.32-.11,4.66.15,7,.32,2.87,1.22,3.12,3.52,1.26-1.12,1.05-2.11,2.75-3.4,3a67.38,67.38,0,0,1-11,1.35,87.41,87.41,0,0,1-10.61-.23c-7.72-.56-13.05,3.27-17.5,9C453,193.5,448,200.19,442.58,206.5,432,218.81,417.89,222.83,402.21,222a16,16,0,0,1-14.74-11.85c.5.1,1.1,0,1.26.29,3.26,4.82,8.5,4.66,13.38,5.32a49.13,49.13,0,0,0,5.7.17c-.3,2.35,1,3.19,3.06,2.94a38.35,38.35,0,0,0,20.06-8.24c8.79-7.2,10.69-17.58,12.55-27.94l0,0,.54-2,0,.07.66-2.3,5.25-25.43,4.25,2.19c1.86-2.62.32-4.93-4.18-6.31a31.36,31.36,0,0,1,5.34.92c2,.67,3.79,1,5.16-.86s.9-3.72-.77-5.31c-2.92-2.79-11.86-3.17-15.28.87-1.3,1.54-1,3-.15,4.52a25.19,25.19,0,0,0-3.62,1.86c-.53.37-.67,1.3-1,2a7.38,7.38,0,0,0,2.11.28c1.55-.23,3.08-.64,5.58-1.18-1.43,4.88-2.43,9-3.83,12.91-3.56,10.06-10,18-18.45,24.4-5.66,4.26-11.69,6.41-18.84,4.2-3.19-1-6.59-1.28-9.83-2.14-4.65-1.24-9-.25-13.28,1.42-1.1.42-2.21.8-3.34,1.13-2.62.77-4.77.26-6.48-2.07a24.79,24.79,0,0,0-3.11-3L365,184.64l-8.8-12.53-1.05-2.74,0,0c.25-1.4.45-2.81.75-4.2,1.09-5.12,2.7-6.11,7.6-4.39,3.93,1.37,7.73,3.11,11.68,4.42,2.27.76,4.83,1.69,7,1.32a98.15,98.15,0,0,0,17.07-4.14c7.07-2.58,14.09-4.63,21.68-4,1.49,6-.06,11.35-3.41,16.33l-.54.49a.33.33,0,0,0-.38.25l-1.66.92c-4,1.23-6.55,4.17-8.62,7.61-.35.61-.7,1.23-1.06,1.84l.45.44,1.79-1.08,7.74-7.34,1.48-.85,1.07-.59Zm20.78-86.12.48-.48a5.06,5.06,0,0,0-.67-1.77c-4.5-4.95-9.57-8.71-16.66-9.12a15.36,15.36,0,0,0-16.57,16.22,8.27,8.27,0,0,0,1.25,3.78c.43.68,1.6.9,2.44,1.32.25-.85.86-1.8.68-2.55-.77-3.26.18-6.12,1.71-8.85,2.4-4.31,5.23-5.55,10.12-5C428.9,83.78,435,84.85,439.86,89.49Zm-27.28,79.08c0-2.75-1.33-4-3.45-3.59-2.66.48-5.56.7-7.84,2a32.79,32.79,0,0,0-7.81,6.4,4.51,4.51,0,0,0-.19,4.36c.67.9,3.11,1.38,4.24.86a118.38,118.38,0,0,0,12.59-6.8C411.37,171,412,169.3,412.58,168.57ZM377.06,176a16.48,16.48,0,0,0-1.59-3.29,23.2,23.2,0,0,0-10.68-8.11,5.06,5.06,0,0,0-3.16-.2,2.68,2.68,0,0,0-1.45,2.12c.61,5.5,7.39,12.38,12.9,13.32C375.53,180.27,377.05,179.07,377.06,176Zm67-56,.16-1c-1.09-.36-2.25-1.16-3.25-1-4,.67-8.13,1.13-11.81,2.65-3.07,1.27-5.64,3.83-8.25,6-.49.42-.12,1.87-.15,2.84.82-.08,1.92.15,2.41-.3,4.31-3.9,9.63-5.67,15-7.37C440.14,121.25,442.11,120.64,444.07,120Zm15.2-2.86-.34-.78a9.08,9.08,0,0,0-2.15,0,84.61,84.61,0,0,0-9,2.49c-.77.28-1.06,1.91-1.58,2.92a9.6,9.6,0,0,0,3.09.15,27.35,27.35,0,0,0,4.16-1.92Zm-13.49-1.62.67,1.37,4.76-2.5-.47-1Z"/><path class="cls-14" d="M241.56,278.18c4.3-6.16,9-12.08,12.8-18.53C267.22,237.83,283.19,218.76,303,203c5.39-4.29,10.87-8.48,16.37-12.62,10.35-7.79,22.42-11.69,34.65-15.19a29.58,29.58,0,0,0,10.88,10.91l3.9,3.49a27.51,27.51,0,0,0,2,4.92c.94,1.45,2.19,3.14,3.68,3.66,1.93.68,2.33,1.83,2.8,3.45q17.9,61.89,35.86,123.77c.3,1,.59,2.08,1,3.39l-6,.37c-.68-2.27-1.24-4.54-2-6.73q-18.5-52.83-37-105.65c-.93-2.66-1.77-5.35-2.86-7.94-.38-.91-1.38-1.55-2.09-2.32-.19,1.09-.83,2.32-.51,3.23q10.11,29.37,20.41,58.66,9.74,27.62,19.61,55.18c.69,1.95,1.55,3.85,2.33,5.77-13.55,6-13.55,6-23,15.26-2.28-1.54-4.59-3.08-6.89-4.64s-4.5-3-6.71-4.54a97.76,97.76,0,0,0,3.73-9.38,41.41,41.41,0,0,0-1.91-28c-10.53-24.92-28.87-40.94-55.39-47.06a44.42,44.42,0,0,0-20.54.1c-15,3.58-24.69,15.44-25.29,30.88-.5,13,4.07,24.43,11.3,34.89,10.94,15.84,25.73,26.41,44.76,31.9-13.57,14.7-28.53,26.46-49.09,29.47-2.5-7.11-5-14.3-7.55-21.46q-13.38-37.46-26.79-74.9C242.25,280.63,241.93,279.4,241.56,278.18Zm108.88-23.49.85-1c-1.54-1.5-2.84-3.51-4.68-4.42-7.11-3.52-14.37-6.76-21.66-9.93a7.48,7.48,0,0,0-4.49-.28,4,4,0,0,0-2.42,2.46c-.19.78.71,2.23,1.53,2.75a19,19,0,0,0,4.73,2c7.14,2.27,14.31,4.45,21.46,6.71C347.35,253.4,348.88,254.09,350.44,254.69Zm1-8.91.79-.78c-1.47-1.56-2.67-3.63-4.47-4.58C342,237.34,336,234.6,330,231.93a4.61,4.61,0,0,0-3.61.31,4.11,4.11,0,0,0-1.89,2.93c0,.72,1.37,1.73,2.34,2.15s2.32.29,3.46.54C337.69,239.49,344.91,241.72,351.46,245.78Z"/><path class="cls-15" d="M407.59,395c-3.73-2.1-7.55-4.14-11.22-6.42-.51-.31-.61-1.79-.44-2.63,1.72-8.24,4.4-16.11,9.45-23A9.21,9.21,0,0,0,407,360.1a15.6,15.6,0,0,0,.18-3.5c-1.23.16-2.75-.09-3.63.55a53.69,53.69,0,0,0-17.72,22.54c-3.46-3.43-6.71-6.54-9.79-9.81a3.57,3.57,0,0,1-.53-2.75c2.72-14,16.47-30.86,31.87-34.11,8.12-1.71,15.16-.2,20.95,5.86,6.15,6.42,12.28,12.87,18.23,19.49A6.53,6.53,0,0,0,453,360.8c2.14-.35,4.3-.59,6.84-.94.67,2.37,1.44,4.76,2,7.2,1.85,7.66,4.13,15.27,5.27,23.05.85,5.75.17,11.72.17,18.13-2.73-1.8-4.75-3.15-5.72-5.87a10,10,0,0,0-3.1-3.95c-5.22-4.36-10.56-8.58-15.86-12.86-12.63-10.2-20.71-9.54-30.93,3.21C410.25,390.59,409.1,392.67,407.59,395Z"/><path class="cls-13" d="M208.23,245.89c-3.7-.07-7.39-.19-11.09-.21-5.41,0-10.82,0-16.23,0h-2.54l-.26-.75,7.66-6.81,2.21-1.89-.61-.83-3,2c-4.29,3.4-8.93,6.44-12.77,10.28-5.52,5.49-10.42,11.58-15.65,17.36a56.81,56.81,0,0,1-6.52,6.55,5.58,5.58,0,0,1-4.42.9c-3.78-1.15-7.41-2.82-11.4-4.42,2.11-5.08,4.44-9.9,6.12-14.94,1.79-5.4,3-11,4.42-16.52a32.63,32.63,0,0,0,1-3.67,12.06,12.06,0,0,0-.26-2.78c-.87.26-2,.24-2.58.81-5.62,5.78-11.22,11.59-16.66,17.54a80.14,80.14,0,0,0-5.36,7.24,8,8,0,0,1,.11-2.65c1.55-3.86,3.36-7.62,4.87-11.49,4-10.18,10.54-18.48,18.24-26.11,10.95-10.84,32.49-8.62,40.48-1.16,5.36,5,10.4,10.36,15.5,15.63a16.34,16.34,0,0,1,2.61,3.8C204.22,237.79,206.2,241.85,208.23,245.89Z"/><path class="cls-16" d="M361.41,326.68c-.21,10.48-.72,11.14-8.74,14.87-4.86,2.27-10.1,1.9-15.23.72a67.37,67.37,0,0,1-26.93-13.14c-15.09-11.89-26.7-26.35-32.22-45.1a41,41,0,0,1-1.46-6.91c-1.12-9.92,5.07-17.49,15.05-17.47a41.62,41.62,0,0,1,15.64,2.74C332.77,273,350,291.53,359.39,317.25,360.65,320.69,361,324.49,361.41,326.68Zm-13.53,2.89c-.35-1.58-.56-3.21-1.05-4.75-2.1-6.59-6.65-11.34-11.79-15.66-6.85-5.77-14-11-22.8-13.46-7.23-2-11-.4-14.42,6.1-.09.16-.13.39-.27.47-3.66,2.16-1.89,4.75-.49,7.2,4.36,7.65,10.67,13.52,17.71,18.6,6.82,4.93,14.1,8.95,22.6,10.21C343.22,339.15,347.67,335.42,347.88,329.57Zm-12.52-38.05.68-.42c-1.67-2.72-3-5.77-5.07-8.11-5.42-6.05-12.77-9.51-19.62-13.58a57,57,0,0,0-7.9-3.62c-1.92-.78-6,.27-6,1.61a10.51,10.51,0,0,0,1.69,5.34,8.52,8.52,0,0,0,3.7,2.66A75.83,75.83,0,0,1,325.71,291a18.47,18.47,0,0,0,5.08,3.6C333.34,295.78,335.42,294.25,335.36,291.52Zm17.79,21.72C351.52,308,350,303,345.66,299.69c-2.45-1.89-4.54-1.93-6.3-.08s-.81,4,.47,5.62c2.7,3.39,5.58,6.64,8.55,9.8a3.15,3.15,0,0,0,2.81.72C352.06,315.36,352.54,314.08,353.15,313.24Z"/><path class="cls-17" d="M500,192.57c-1.16,2.26-2.42,4.47-3.47,6.77q-14.94,32.79-29.83,65.6c-4.73,10.41-9.54,20.79-14.31,31.18-.15.31-.36.6-.79,1.32-5.83-19.71-11.54-39-17.29-58.49,5.56-2,9.89-5.08,9.93-11.54,0-5.25-3.29-8.13-7.91-9.81,6.79-7.48,11.63-6.64,18.91-1.62a36.69,36.69,0,0,1,14.1,19.13,19.86,19.86,0,0,0,1,2.52c1,2,2.4,2,3.63.1.25-.38.4-.81.61-1.21q11.77-22.07,23.56-44.11c.12-.22.4-.35.61-.53Z"/><path class="cls-17" d="M380.36,202.83c2.13.09,4.75,2.51,5.95,5.58l-2.38.5c.82,5.1,2.86,9.31,7,12.24s8.52,4.67,13.48,4.46,10.08-.94,15.12-1.44c.71-.07,1.4-.18,2.19-.28-2.86,7-.8,12.3,7.68,15.28l-21.95,52.89c-4.73-15.47-9.26-30.23-13.75-45S384.81,217.59,380.36,202.83Z"/><path class="cls-18" d="M500.62,179.42a5.35,5.35,0,0,1-.24,1.82q-13.94,26.2-27.95,52.38c-.07.15-.22.25-.43.48-2.44-5.92-4.45-12.13-9.62-16.26-4.83-3.87-9.12-8.88-16.57-8.74.55-.85.86-1.42,1.25-1.93,4.19-5.6,8.62-11,12.54-16.81,4.08-6,9.22-9.12,16.65-8.73a175.44,175.44,0,0,0,18.2-.2c2.09-.11,4.12-1.26,6.18-1.93Z"/><path class="cls-16" d="M379.8,380l-39.66-.88c-1.75-9.85-3.45-19.37-5.12-28.8,3.29-.2,6.92-.22,10.49-.71s6.88-1.45,9.85-2.1l19,12.88c-4.84,8.16-1.1,14.18,6.06,19.17Z"/><path class="cls-19" d="M364.68,334.87c1.54-8,0-15.36-2.71-22.43-7.76-20.15-21.65-35.23-39.56-46.83-8.21-5.32-17.07-9.1-26.94-10.24,6-2,12.16-1.94,18.28-.86,27.09,4.74,51.25,28.11,56.37,54.58a33.14,33.14,0,0,1-3.56,23.45A18.09,18.09,0,0,1,364.68,334.87Z"/><path class="cls-20" d="M298.78,410.05A92.22,92.22,0,0,0,308,407.2c3.5-1.47,5.84,2.05,9.36,1.15l-3.6-2.7,2-1.19c-5.29,1.2-9-2.74-13.69-4L304.4,399l-11.18-.82,1.62,1.48c-.06.12-.09.33-.18.35-2.39.53-4.76,1.18-7.18,1.49a3,3,0,0,1-2.55-1.1c-1.28-3-2.24-6.1-3.33-9.2l98.31,7.66.06.63c-5.34,1-10.68,2-16,3q-24.33,4.62-48.65,9.27c-3.66.69-7.34,1.61-11,1.66-1.89,0-3.81-1.64-5.72-2.53Z"/><path class="cls-6" d="M208.23,245.89c-2-4-4-8.1-6.11-12.1a16.34,16.34,0,0,0-2.61-3.8c-5.1-5.27-10.14-10.63-15.5-15.63-8-7.46-29.53-9.68-40.48,1.16-7.7,7.63-14.25,15.93-18.24,26.11-1.51,3.87-3.32,7.63-4.87,11.49a8,8,0,0,0-.11,2.65c-.24.83-.47,1.66-.84,3-1.63-1.87-3.25-3.38-2.65-5.79.72-2.85,1.78-5.61,2.56-8.45.23-.83-.25-1.87,0-2.68,3.5-11.19,8.16-21.76,16.36-30.44,7-7.41,15.54-11,25.67-11.37,14.29-.58,25.38,5.45,34.47,16,1.23,1.43,2.3,3,3.44,4.52l.61,1.24,0-.05.57.59,0,0,3.27,6.06,0-.06.48,1.12c2.23,5.37,4.45,10.74,6.92,16.7Z"/><path class="cls-6" d="M497,163.54c0-4.56,3.09-7,6.46-9a7.14,7.14,0,0,0,3.81-5,16.08,16.08,0,0,1,3.91-6.63,7.34,7.34,0,0,0,1.92-6.88,46.09,46.09,0,0,1-.37-10.17c.16-2.64-.07-5-2.23-6.61-5-3.73-10.15-7.24-15.09-11-1.78-1.36-3.12-3.29-4.66-5a67.24,67.24,0,0,0,21.46,2.36,8.35,8.35,0,0,1,2.74.94c1.88,2.43,3.9,4.77,5.62,7.31,2.21,3.25,1.88,4.34-1.49,6.23-2.1,1.17-1.89,2.88-1.13,4.69,1.13,2.67,2.49,5.25,3.43,8,2.25,6.52,1.13,9.8-4.43,13.85-3.35,2.44-3.3,2.42-1.73,6.29a2.32,2.32,0,0,1-.52,2c-4.18,3.7-8.65,6.86-14.48,7.42A13.37,13.37,0,0,0,497,163.54Z"/><path class="cls-21" d="M289.83,377.24a64.64,64.64,0,0,0,7-2c11.12-4.55,20.33-11.79,28.49-20.48,1.54-1.65,3.06-3.3,5.12-5.52,2,10.23,3.85,19.87,5.78,29.79l-46.26-.77Z"/><path class="cls-22" d="M293.06,424.07c-.62-1.93-1.19-3.72-1.87-5.82,35.69-3.89,70-14.16,105.4-18,1,2.49.22,3.3-2,3.73q-44.22,8.61-88.42,17.37C301.92,422.17,297.68,423.1,293.06,424.07Z"/><path class="cls-9" d="M273.9,279.07c9.59,33.24,30.27,55.39,63.27,66.72a21.26,21.26,0,0,1-3,.16c-13.09-1.43-24.5-6.58-34.75-14.86a75.53,75.53,0,0,1-19.57-23,50,50,0,0,1-6.29-25.64C273.62,281.36,273.78,280.31,273.9,279.07Z"/><path class="cls-19" d="M451.54,402l-6,8.33c-10.16-6.52-20.27-13-31-19.88l10-8.77Z"/><path class="cls-19" d="M381.47,346.43l-6.44,11L360,347l7.54-9.58Z"/><path class="cls-23" d="M409.83,213.15c-3.43-.59-6.72-1.13-10-1.73-.22,0-.43-.52-.53-.83-1.77-5.42-3.53-10.86-5.53-17a51.06,51.06,0,0,0,6.84,2.34c3.1.57,4.36,2.27,5.09,5.25C406.63,205,408.23,208.61,409.83,213.15Z"/><path class="cls-21" d="M435,195c-1.56,5.92-4.47,10.81-10.27,13.67-1.22-4-2.37-7.82-3.34-11,4.11-4,8-7.81,11.82-11.58Z"/><path class="cls-23" d="M407.31,198.47h11.56c1.19,3.3,2.54,7,4.14,11.44-3.56.84-7.08,1.75-10.64,2.46a2.22,2.22,0,0,1-1.88-1C409.33,207.08,408.34,202.76,407.31,198.47Z"/><path class="cls-7" d="M443.48,182.69c-1.86,10.36-3.76,20.74-12.55,27.94a38.35,38.35,0,0,1-20.06,8.24c-2.08.25-3.36-.59-3.06-2.94,6.75.1,12.74-2.38,18.56-5.44,4.38-2.3,7.29-6,9.42-10.33,2.24-4.5,4.12-9.17,6.14-13.77C442.47,185.17,443,183.92,443.48,182.69Z"/><path class="cls-24" d="M140.83,236.44c-.54,3.58-.25,7.39-3.24,10.14q-8,7.36-16.07,14.71l.18,1c-.15-.84-.72-1.93-.4-2.5A84.52,84.52,0,0,1,140.83,236.44Z"/><path class="cls-5" d="M444.26,149.1c-.83-1.53-1.15-3,.15-4.52,3.42-4,12.36-3.66,15.28-.87,1.67,1.59,2.23,3.38.77,5.31s-3.17,1.53-5.16.86A31.36,31.36,0,0,0,450,149Z"/><path class="cls-24" d="M397.19,211.19c-1.18-.55-2.68-.81-3.49-1.69-3.51-3.85-6.83-7.87-10.41-12.06l6.63-3.23,7.75,16.41Z"/><path class="cls-22" d="M289.46,404.22c6.59-3.36,12.37-3.42,17.91,1.29-3.62.92-7.2,2.5-10.77,2.5C294.31,408,292,405.67,289.46,404.22Z"/><path class="cls-24" d="M434.55,184.08l7.66-10.29.5.19q-3.4,9.71-6.82,19.39Q435.22,188.74,434.55,184.08Z"/><path class="cls-9" d="M500.85,164.91l9.89-3.72c-1.46,3.23-2.73,6.18-4.15,9.06-.3.62-1.14,1-1.73,1.47a14.2,14.2,0,0,1-1.2-1.6C502.69,168.4,501.78,166.65,500.85,164.91Z"/><path class="cls-24" d="M444.81,341.68l3.25,14.22-.3.34c-2.09-2.64-4.2-5.27-6.24-7.94-.18-.23,0-.87.16-1.21C442.68,345.29,443.74,343.52,444.81,341.68Z"/><path class="cls-22" d="M299.85,414.23l-9.36,2c-.43-1.09-.84-2.15-1.25-3.18C293.57,410.44,295.43,410.63,299.85,414.23Z"/><path class="cls-9" d="M255.09,422.46c3,0,6-.06,8.93.06,8.08.31,16.15.7,24.23,1.06-.31.15-.62.44-.92.43q-15.75-.61-31.49-1.3A2.76,2.76,0,0,1,255.09,422.46Z"/><path class="cls-9" d="M500.61,173.69c-2.3,1.86-3.2,1.61-3.52-1.26-.26-2.29-.11-4.63-.15-7Q498.79,169.59,500.61,173.69Z"/><path class="cls-22" d="M286.6,404.32c2.19,1.7,4,3.09,6,4.61C287.89,410.59,287.56,410.34,286.6,404.32Z"/><path class="cls-10" d="M434.55,184.08q.66,4.65,1.34,9.29L435,195l-1.79-8.95Z"/><path class="cls-10" d="M368.82,189.58l-3.9-3.49.11-1.45,5.15,4.22Z"/><path class="cls-25" d="M499.55,190.59q1.33-2.52,2.69-5l.87.42-2.37,4.88Z"/><path class="cls-25" d="M203.71,228.31l-3.27-6.06Z"/><path class="cls-10" d="M289.83,377.24l.09,1h-6.1l0-.45Z"/><path class="cls-10" d="M184.41,237.42l3-2,.61.83-2.21,1.89Z"/><path class="cls-22" d="M342,345.89h-5l.07-.8,4.86.64Z"/><path class="cls-25" d="M637.07,251,636,247.89Z"/><path class="cls-17" d="M499.55,190.59l1.19.26c-.24.57-.49,1.15-.74,1.72l-1.22-.69Z"/><path class="cls-7" d="M444.64,178.51l-.66,2.3Z"/><path class="cls-7" d="M444,180.74l-.54,2Z"/><path class="cls-25" d="M204.16,229.37l-.48-1.12Z"/><path class="cls-25" d="M199.93,221.74l-.61-1.24Z"/><path class="cls-1" d="M561.45,330.11l.18.56-.65,0Z"/><path class="cls-18" d="M500.63,179.5l.47.05-.25.24c-.08-.11-.15-.23-.23-.36S500.63,179.5,500.63,179.5Z"/><path class="cls-25" d="M200.47,222.28l-.57-.59Z"/><path class="cls-18" d="M483.76,31.32q.78-6.94,1.57-13.88a27.19,27.19,0,0,1,4.1,1.42c7.21,3.8,14.37,7.69,21.54,11.55q-.44,6.39-.88,12.78c2.5-3.29,1.85-7.24,2.29-11,1.06.46,2.16.83,3.17,1.37q11.6,6.23,23.17,12.48v7.15l.62.17q.82-3.18,1.63-6.35c9.74,3.68,19.93,4.86,30.22,5.46v8.22c2.4-2.31,2.29-5.32,2.76-8.15,2.34-.19,4.7-.31,7-.58,6.9-.8,13.54-2.47,19.51-6.23l1.15-.64.66-.5c5.82-3.4,11.09-7.35,14.11-13.66a7.17,7.17,0,0,1,1.4-1.53c.08,11.81-6.38,19.79-15.65,25.8-8.6,5.58-18.51,7.32-28.52,8.14-15.38,1.26-30.63-.58-45.89-2.27-11.46-1.26-23.05-1.54-34.42-3.28-13.25-2-26.36-5-39.46-7.92a29.84,29.84,0,0,1-9.79-4c-5.59-3.66-9.57-8.76-10.76-15.61,3.13-2.2,6.32-4.31,9.37-6.62,3.39-2.59,6.85-5,11.16-5.69.1,2.24.61,4.55.22,6.7-.8,4.38-2.09,8.68-3.16,13a3,3,0,0,0,0,1.89c4.29-7,6.35-14.55,5.17-22.82a56.08,56.08,0,0,1,26.64-.49c.11,4,.26,8.05.33,12.08,0,1.16-.17,2.33-.26,3.5q-1.65,6.63-3.32,13.27l.89.21Q482.08,38.34,483.76,31.32ZM509,45c-.2.71-.4,1.42-.61,2.12l.83.3,1.13-2.55-.61-1.29Z"/><path class="cls-26" d="M388.46,57.39l-2.14.21-1.67.33a17.71,17.71,0,0,0-9.28,5.83,3.3,3.3,0,0,1-1.27.95c-3.72,1.5-7.46,3-11.19,4.41l-2-2.33L358,62.39l-.6-1.55c-.84-1.65-1.67-3.31-2.51-5l-1.56-4.82,18.22-19.74,2,.57.25,1.61.34,1.12L379,44l3.46,5.39a7.84,7.84,0,0,0,5.23,4.48q-2.25-2.82-4.52-5.63l-2.9-5.4-3.09-7.15L377,34.63l-.31-1.12-.32-2.12c-.06-.39-.11-.77-.17-1.16l0-3.53c3.53-2,6.94-4.25,10.61-5.93a24.38,24.38,0,0,1,15.85-1.53l.7,1.78-.3,2.12-.21,1.71q.11,4.09.19,8.19l.68,4.06.46-.12V33c.09-1.27.17-2.53.25-3.8.06-.57.13-1.14.19-1.71l.34-3.2.25-1.15-.08-.95c.45-.74.9-1.47,1.34-2.21,3.73,1.31,7.53,2.46,11.18,4,3.44,1.42,6.74,3.19,10.1,4.8A9.24,9.24,0,0,1,422.35,40a10.15,10.15,0,0,0-1.2.58c-.54.56-1.09,1.12-1.63,1.69-8.37-2-15.88-.13-22.14,5.66-2.09,1.93-3.23,4.89-4.8,7.38Z"/><path class="cls-21" d="M360.9,66.79l2,2.33a7.1,7.1,0,0,1-1.32,1.2A111.21,111.21,0,0,1,326,82.58c-4.83.81-9.92.11-14.9.1-1.57-.41-3.14-.81-4.71-1.25-6.31-1.78-9.77-6-10.72-12.45-1.11-7.49.34-14.21,5.68-19.83-.07.54-.11,1.08-.22,1.61-1.64,8,4.25,17.35,12.11,19.3a12.49,12.49,0,0,0,.23,1.51c.06.23.3.4.66.84.38-.76.67-1.31.95-1.87L328,69.37c.41,1.91.81,3.83,1.22,5.74l.85-.09c0-1.44,0-2.87,0-4.3,0-.77.08-1.54.12-2.3,8.85-2.52,15-8.76,20.9-15.29l5.8,10.22h0c1,1.35,2,2.7,3.05,4A7,7,0,0,0,360.9,66.79Z"/><path class="cls-18" d="M563.13,83.25c-4.21,2.54-8.41,5.1-12.64,7.63-1,.58-1,.44-2.56-.47-.48-.28-1.34,0-2,.15-5.47,1-10.93,2.12-16.4,3.11a8.88,8.88,0,0,1-3.25,0c-8.89-1.73-17.77-3.53-26.12-5.2l12-13.1c9.48,1.25,19,2.36,28.43,3.8C548.11,80.3,555.61,81.86,563.13,83.25Z"/><path class="cls-6" d="M563.13,83.25c-7.52-1.39-15-3-22.57-4.11-9.45-1.44-18.95-2.55-28.43-3.8a24.87,24.87,0,0,0,2.48-4.5c1-3.23,3.34-3.8,6.26-3.92,7.83-.34,15.58,0,23.22,2,8.58,2.23,17.21,4.32,25.82,6.47.19,1.37.39,2.75.58,4.13Z"/><path class="cls-20" d="M452.76,65.76l15.42.58-2.89,2.09.26,1a15.27,15.27,0,0,0,3.4-.25c11.71-3.43,23.91-3,35.86-4.49a3.56,3.56,0,0,1,2.3.47c-1.27.48-2.56.93-3.81,1.46-13.5,5.7-27.5,8.62-42.21,7.63a23.43,23.43,0,0,0-3.52.29c-9.36.31-14.6-6-19.77-12.38,3.88,1.24,7.73,2.54,11.63,3.66A11.63,11.63,0,0,0,452.76,65.76Z"/><path class="cls-6" d="M402.65,19.24a24.38,24.38,0,0,0-15.85,1.53c-3.67,1.68-7.08,3.93-10.61,5.93,1.12-11.34,7.16-18.57,19.09-18.65,4.2,0,8.41.83,12.52,1.27-1.5,3.59-2.84,6.77-4.17,10Z"/><path class="cls-6" d="M482.74,16.3a56.08,56.08,0,0,0-26.64.49c-1.34-3.49-2.69-7-4.23-11l9.22-1.17,11.1.42c.18,0,.36-.13.52-.09,2.07.44,5.15.23,6,1.5C480.63,9.36,481.46,13,482.74,16.3Z"/><path class="cls-7" d="M511,30.41c-7.17-3.86-14.33-7.75-21.54-11.55a27.19,27.19,0,0,0-4.1-1.42c-.94-3.62-1.89-7.24-2.86-11a40.21,40.21,0,0,1,15.64,6.07,72.51,72.51,0,0,1,11.68,8.78c1.32,1.24,1.27,4.05,1.62,6.18A9.44,9.44,0,0,1,511,30.41Z"/><path class="cls-6" d="M453.86,18c-4.31.73-7.77,3.1-11.16,5.69-3.05,2.31-6.24,4.42-9.37,6.62-2.3-5.7-1-12.46,3.66-16a80.54,80.54,0,0,1,11.36-6.61,2.73,2.73,0,0,1,2.44,1.09C452,11.79,452.87,14.92,453.86,18Z"/><path class="cls-7" d="M427.74,28.69c-3.36-1.61-6.66-3.38-10.1-4.8-3.65-1.5-7.45-2.65-11.18-4l-.91-.09c1.24-2.71,2.36-5.47,3.81-8.06a3,3,0,0,1,2.68-.94c5.78,1.71,10.49,5.28,15,9.12a3.35,3.35,0,0,1,.7,2.2C427.82,24.34,427.75,26.51,427.74,28.69Z"/><path class="cls-7" d="M538.72,46.08q-11.58-6.24-23.17-12.48c-1-.54-2.11-.91-3.17-1.37.44-2.55.87-5.09,1.32-7.77,2.16,1.37,4.48,2.86,6.82,4.31q7.83,4.9,15.69,9.77C539.18,40.37,538.2,43.46,538.72,46.08Z"/><path class="cls-7" d="M371.53,31.31,353.31,51.05c.49-2.62.4-5.55,1.59-7.82,4.78-9.19,12.19-16.36,19.15-23.86.1-.11.32-.11.45-.15-.43,3.47-.85,7-1.28,10.43Z"/><path class="cls-7" d="M571.19,52.51c-10.29-.6-20.48-1.78-30.22-5.46-.15-2.07-.3-4.13-.47-6.54,2.31.8,4.31,1.64,6.38,2.18,6.56,1.71,13.1,3.56,19.75,4.84C569.78,48.14,571,49.67,571.19,52.51Z"/><path class="cls-7" d="M351.08,53.13c-5.92,6.53-12.05,12.77-20.9,15.29A15.57,15.57,0,0,1,336.6,58c4.44-3.23,8.36-7.17,12.5-10.8.66-.58,1.28-1.2,2-1.85Z"/><path class="cls-7" d="M600.5,45.77c-6,3.76-12.61,5.43-19.51,6.23-2.34.27-4.7.39-7,.58l-.84-4.15c9.59.47,18.46-1.9,27-6.3.35,1,.66,1.93,1,2.82Z"/><path class="cls-9" d="M617.82,29.44a7.17,7.17,0,0,0-1.4,1.53c-3,6.31-8.29,10.26-14.11,13.66-1.15-1.87-1-3.21,1-4.58,5.95-3.93,10.43-9.13,12.58-16.1l.79-.14Z"/><path class="cls-9" d="M328,69.37l-12.94,1.17a5.15,5.15,0,0,1,4.77-4.86c3.15-.52,6.18-1.76,9.26-2.68L329,63Q328.52,66.16,328,69.37Z"/><path class="cls-9" d="M313.21,70.06c-7.86-2-13.75-11.35-12.11-19.3.11-.53.15-1.07.22-1.61l5.37-4.26c0,.44.22,1,0,1.32a15.55,15.55,0,0,1-1.74,1.9,10,10,0,0,0,1.33,15c2.28,1.62,5.11,2.47,7.7,3.67C313.78,67.65,313.5,68.86,313.21,70.06Z"/><path class="cls-22" d="M506.81,75c-2-.47-4.14-.8-5-3.12l9.46-3.62.46.71Z"/><path class="cls-10" d="M483.76,31.32q-1.69,7-3.38,14l-.89-.21q1.67-6.63,3.32-13.27Z"/><path class="cls-25" d="M457.79,54.87l-.12,1L445.22,51l.26-.7Z"/><path class="cls-10" d="M380.27,42.84l2.9,5.4-.71,1.15L379,44l.73-1.14Z"/><path class="cls-25" d="M570.49,79.48c-.19-1.38-.39-2.76-.58-4.13l5.15,2.06Z"/><path class="cls-9" d="M472.19,5.06l-11.1-.42Z"/><path class="cls-21" d="M380.27,42.84l-.54,0-2.55-7.17Z"/><path class="cls-10" d="M360.9,66.79a7,7,0,0,1-1,.58c-1.05-1.31-2.05-2.66-3.05-4l.14-.08v.15l1-1Z"/><path class="cls-21" d="M354.87,55.87c.84,1.66,1.67,3.32,2.51,5C356.54,59.19,355.71,57.53,354.87,55.87Z"/><path class="cls-10" d="M404.17,33v4l-.46.12L403,33Z"/><path class="cls-21" d="M419.52,42.29l1.63-1.69c0,.73,0,1.47.07,2.2Z"/><path class="cls-21" d="M371.53,31.31l1.69-1.66.33,2.23Z"/><path class="cls-21" d="M405.55,19.84l.91.09c-.44.74-.89,1.47-1.34,2.21C405.26,21.37,405.41,20.6,405.55,19.84Z"/><path class="cls-21" d="M402.65,19.24l1,0c-.09.58-.19,1.17-.28,1.75Z"/><path class="cls-21" d="M402.84,24.85l.21-1.71Z"/><path class="cls-21" d="M404.61,27.44c-.06.57-.13,1.14-.19,1.71C404.48,28.58,404.55,28,404.61,27.44Z"/><path class="cls-21" d="M405.2,23.09,405,24.24Z"/><path class="cls-9" d="M600.5,45.77l.58-.82.57.18Z"/><path class="cls-21" d="M376.65,33.51c.1.37.21.74.31,1.12C376.86,34.25,376.75,33.88,376.65,33.51Z"/><path class="cls-21" d="M374.14,34.61c-.11-.37-.22-.74-.34-1.12C373.92,33.87,374,34.24,374.14,34.61Z"/><path class="cls-21" d="M376.16,30.23c.06.39.11.77.17,1.16C376.27,31,376.22,30.62,376.16,30.23Z"/><polygon class="cls-26" points="357.02 63.43 357.02 63.28 356.88 63.36 356.88 63.35 357.02 63.51 357.02 63.43"/><polygon class="cls-7" points="351.69 44.65 351.72 44.82 351.6 44.79 351.69 44.65"/><polygon class="cls-7" points="375.13 18.45 375.17 18.64 375.03 18.62 375.13 18.45"/><path class="cls-9" d="M329.08,63l0-.24.15.19H329Z"/><path class="cls-27" d="M386.25,104.4c-.46,6.73-.75,13.5-3.94,19.65-.39.76-1.45,1.17-2.21,1.74.56-4,.19-7.81-2.89-10.84-2.69-2.64-5.6-2.27-7.8.8-2.5,3.49-1.67,7-.33,10.59.89,2.37,2.31,4.13,5,4.47s4.15-1.24,5.16-3.46c1.74-.26,1.26.52.76,1.48-3.29,6.24-7.06,12.21-12.51,16.72-6.61,5.46-7.51,5-14.8.3-.33-.74-.6-1.5-1-2.2-1.39-2.52-.93-3.61,1.83-4.26q7.35-1.72,3.43-8.1c-.81-1.32-1.59-2.66-2.46-4.12a12.58,12.58,0,0,1,1.24-.32c6.18-.83,7.83-4.09,5-9.63a4.11,4.11,0,0,1,.24-2.57c.56-1.86,2-3.8,1.73-5.5-.5-3.2.26-6.07.9-9.05.25-1.19.28-2.43.46-4.11l-2.37,1c-2.31.73-4.63,1.4-6.91,2.21-3.93,1.4-7.78,3-11.74,4.31-7.42,2.43-14.69,1.67-22.12-1.69a32.06,32.06,0,0,1,2.91-1.87c7.67-3.89,15.37-7.72,23.05-11.6,1.5-.76,2.53-.38,3.85.65a65.46,65.46,0,0,0,6.66,4.12c.63.23,1.32.76,1.86.63,1.85-.44,3.61-1.14,4.62-3,.28,1.21.55,2.42,1,4.53,3.75-5.22,7-10.3,13.36-5.08l.35.25a.41.41,0,0,0,.38.31C382.45,94.78,385.43,99,386.25,104.4Z"/><path class="cls-6" d="M379.2,149.7c4.94,2.56,9.54,1.41,14.18-1,4.36-2.3,9-4.09,14.05-3.3,2.84.45,5.55,1.79,8.31,2.73A60.66,60.66,0,0,0,393,155c-4.25,2.28-8.84,1.64-13.27.3s-8.8-2.84-13.47-4.36c6-3.82,10.18-9.22,13.7-15.16a54.85,54.85,0,0,0,7.39-35.31,14.45,14.45,0,0,0-.58-2.09l-.3-1.07c-.15-7.26-4.73-11.16-10.63-14,2.22-1.14,4.29-.53,6.13.77,8.56,6,13.85,13.85,14.27,24.62.55,13.91-3.37,26.11-13.33,36.09-1.33,1.34-2.87,2.48-4.31,3.72l-.79.75Z"/><path class="cls-7" d="M421,158.41c-7.59-.64-14.61,1.41-21.68,4a98.15,98.15,0,0,1-17.07,4.14c-2.22.37-4.78-.56-7-1.32-4-1.31-7.75-3.05-11.68-4.42-4.9-1.72-6.51-.73-7.6,4.39-.3,1.39-.5,2.8-.75,4.2-1-3.67-2.46-7.28-3-11-.42-2.89,2.72-5.06,6.05-5.07a32,32,0,0,1,17.19,5c6.21,3.79,12.49,3.07,19,.61a165.64,165.64,0,0,1,18.07-5.62C417.38,152.1,419.89,153.93,421,158.41Z"/><path class="cls-7" d="M361.69,97l2.37-1c-.18,1.68-.21,2.92-.46,4.11-.64,3-1.4,5.85-.9,9.05.26,1.7-1.17,3.64-1.73,5.5a4.11,4.11,0,0,0-.24,2.57c2.8,5.54,1.15,8.8-5,9.63a12.58,12.58,0,0,0-1.24.32c.87,1.46,1.65,2.8,2.46,4.12q3.91,6.39-3.43,8.1c-2.76.65-3.22,1.74-1.83,4.26.39.7.66,1.46,1,2.2a18.92,18.92,0,0,1-8.14-8.46c-1-2-.39-2.83,1.89-2.78,1.63,0,3.26.43,4.87.34a9.17,9.17,0,0,0,2.78-1.12c-.44-1-.64-2.2-1.35-2.92-1.77-1.78-4-3.13-5.62-5-2.36-2.82-1.38-4.94,2.26-5.33,1.79-.19,3.62.1,5.42,0,.71,0,1.89-.56,1.95-1a3.37,3.37,0,0,0-.88-2.26c-.73-.91-1.86-1.51-2.5-2.46-1.07-1.56-1.33-3.2.75-4.32a22.34,22.34,0,0,0,4.36-1.14c3.25-1.57,3.75-4.36,1.51-7.22Z"/><path class="cls-7" d="M403.06,48.15a16.8,16.8,0,0,1-.94,2.72c-1.55,2.9-2.82,5.76-2.33,9.27.39,2.73-1.29,4.28-5.06,4.82a21.61,21.61,0,0,0-12.14,5.5c-1.72,1.6-3.24,3.41-4.81,5.16a8.83,8.83,0,0,1-6.94,3.12c2.33-2.48,4.13-5.17,4.54-8.73.13-1.19,1.71-2.18,2-3.41,1.35-6.14,6.36-6.08,11-6.74,1.25-.18,2.53-.18,3.78-.38,2.1-.33,4.75-.18,3.34-3.78-.21-.51.43-1.63,1-2.11C398.57,51.7,400.84,50,403.06,48.15Z"/><path class="cls-2" d="M379.2,127.35c-1,2.22-2.49,3.8-5.16,3.46s-4.07-2.1-5-4.47c-1.34-3.58-2.17-7.1.33-10.59,2.2-3.07,5.11-3.44,7.8-.8,3.08,3,3.45,6.82,2.89,10.84Z"/><path class="cls-9" d="M338.38,85.29c2.52-1.22,5-2.51,7.55-3.64,7.3-3.21,14.63-6.34,21.94-9.52,1.64-.72,3.24-1.53,4.86-2.29l.63.46c-.61,1.43-.87,3.19-1.87,4.24-3.16,3.31-6.31,6.61-11.39,7.12-8.53.88-16.49,3.92-24.39,7.07.5-.8,1-1.6,1.48-2.4l0,0,.61-.53,0,0Z"/><path class="cls-24" d="M363.87,90.8c-1,1.82-2.77,2.52-4.62,3-.54.13-1.23-.4-1.86-.63l2.19-.42-7.17-5.93,10.36-2.69c-.11,1.4-.21,2.58-.3,3.75l1.09.73c.19-.88.39-1.77.58-2.65l1.28.88Z"/><path class="cls-10" d="M386.48,97.35l.3,1.07c-.23.43-.64.86-.65,1.29,0,1.57.07,3.13.12,4.7-.82-5.4-3.8-9.63-7.26-13.6,1.84,1.55,3.7,3.08,5.52,4.65C385.2,96.05,385.83,96.72,386.48,97.35Z"/><path class="cls-25" d="M337.19,86.33c-.49.8-1,1.6-1.48,2.4l0,0-.76.49L324.52,95.5l-.68-1.16Z"/><path class="cls-24" d="M360,102.11c2.24,2.86,1.74,5.65-1.51,7.22a22.34,22.34,0,0,1-4.36,1.14,25.83,25.83,0,0,1,2.5-1.54c3.24-1.56,3.28-1.63,1.25-4.89Z"/><path class="cls-21" d="M388.46,57.39l4.12-2.06C392.56,58.72,389.91,56.85,388.46,57.39Z"/><path class="cls-7" d="M355.18,169.37l1.05,2.74Z"/><path class="cls-27" d="M365.54,84.16l1.13,1.61-1.78.42Z"/><path class="cls-21" d="M384.65,57.93l1.67-.33Z"/><path class="cls-11" d="M417.08,175.23l.54-.49,1.46.87-1.19.82Z"/><path class="cls-6" d="M415.71,148.07l1.19.31Z"/><path class="cls-10" d="M378.61,90.5l-.35-.25.26,0Z"/><path class="cls-9" d="M334.93,89.18l.76-.49Z"/><path class="cls-25" d="M337.76,85.84l-.61.53Z"/><path class="cls-25" d="M338.38,85.29l-.65.58Z"/><path class="cls-28" d="M604.18,186.88c-.42.69-.68,1.76-1.27,2-3.22,1.26-6.51,2.31-9.79,3.4-.2.07-.48-.08-1.23-.24,4.21-2.21,7.65-5,12.3-5.14Z"/><path class="cls-13" d="M217.17,354.21a47.79,47.79,0,0,1-3.42-5.79c-2.24-5.35-4.5-10.71-6.27-16.23C201.14,312.51,195,292.77,188.82,273a16.81,16.81,0,0,1-.77-5.07,3,3,0,0,1,1.48-2.31,2.85,2.85,0,0,1,2.65.6,21.47,21.47,0,0,1,3.38,5.8c4.06,12,7.94,24.12,11.87,36.2,3,9.32,6.32,18.56,8.94,28,1.32,4.75,1.43,9.83,2,14.78a14.05,14.05,0,0,1-.2,2.8Z"/><path class="cls-28" d="M226.36,255.67c.55,1.2,1.18,2.37,1.62,3.61q14.85,42.26,29.65,84.52,12.58,36,25.12,72a24,24,0,0,1,1.21,3.32,9.07,9.07,0,0,1-.29,2.6c-.67-.55-1.69-1-1.94-1.68-3.45-9.76-6.78-19.55-10.17-29.33Q249.18,326,226.81,261.27c-.6-1.74-1-3.54-1.46-5.32Z"/><path class="cls-13" d="M230,398.23a15.81,15.81,0,0,1-1.79-2.07c-4.09-6.67-5.84-14.17-7.52-21.68-.36-1.6-.6-3.7,1.53-4.43s3.44.69,4.41,2.32a11.49,11.49,0,0,1,1.48,3.46c1.17,5.66,2.32,11.33,3.23,17,.26,1.66-.33,3.44-.53,5.17Z"/><path class="cls-4" d="M134.8,332.47a10.68,10.68,0,1,1-21.36-.06,10.43,10.43,0,0,1,10.26-10.25C130.27,322.17,134.87,326.44,134.8,332.47Zm-10.32-8.14a8.44,8.44,0,0,0-8.62,8.57A8.17,8.17,0,0,0,124,341a8.26,8.26,0,0,0,8.08-8.23C132,328.69,128.05,324.31,124.48,324.33Z"/><path class="cls-4" d="M439.86,89.49c-4.87-4.64-11-5.71-17.22-6.43-4.89-.57-7.72.67-10.12,5-1.53,2.73-2.48,5.59-1.71,8.85.18.75-.43,1.7-.68,2.55-.84-.42-2-.64-2.44-1.32a8.27,8.27,0,0,1-1.25-3.78A15.36,15.36,0,0,1,423,78.12c7.09.41,12.16,4.17,16.66,9.12a5.06,5.06,0,0,1,.67,1.77Z"/><path class="cls-2" d="M412.58,168.57c-.54.73-1.21,2.43-2.46,3.19a118.38,118.38,0,0,1-12.59,6.8c-1.13.52-3.57,0-4.24-.86a4.51,4.51,0,0,1,.19-4.36,32.79,32.79,0,0,1,7.81-6.4c2.28-1.26,5.18-1.48,7.84-2C411.25,164.6,412.62,165.82,412.58,168.57Z"/><path class="cls-2" d="M377.06,176c0,3.06-1.53,4.26-4,3.84-5.51-.94-12.29-7.82-12.9-13.32a2.68,2.68,0,0,1,1.45-2.12,5.06,5.06,0,0,1,3.16.2,23.2,23.2,0,0,1,10.68,8.11A16.48,16.48,0,0,1,377.06,176Z"/><path class="cls-28" d="M452.76,65.76a11.63,11.63,0,0,1-3.33,0c-3.9-1.12-7.75-2.42-11.63-3.66-3-3.13-6.21-6-8.76-9.48a7.49,7.49,0,0,1-.87-8c.46.7.75,1,.81,1.25,1.55,7.86,7.87,11.33,13.93,14.91C446.06,62.71,449.47,64.14,452.76,65.76Z"/><path class="cls-4" d="M444.07,120c-2,.61-3.93,1.22-5.89,1.85-5.37,1.7-10.69,3.47-15,7.37-.49.45-1.59.22-2.41.3,0-1-.34-2.42.15-2.84,2.61-2.21,5.18-4.77,8.25-6,3.68-1.52,7.82-2,11.81-2.65,1-.16,2.16.64,3.25,1Z"/><path class="cls-8" d="M459.27,117.17l-5.87,2.88a27.35,27.35,0,0,1-4.16,1.92,9.6,9.6,0,0,1-3.09-.15c.52-1,.81-2.64,1.58-2.92a84.61,84.61,0,0,1,9-2.49,9.08,9.08,0,0,1,2.15,0Z"/><path class="cls-4" d="M415.34,177.87l-7.74,7.34-1.18-1.2c2.07-3.44,4.59-6.38,8.62-7.61Z"/><path class="cls-10" d="M445.78,115.55l5-2.14.47,1-4.76,2.5Z"/><path class="cls-11" d="M406.42,184l1.18,1.2-1.79,1.08-.45-.44C405.72,185.24,406.07,184.62,406.42,184Z"/><path class="cls-11" d="M415.34,177.87l-.3-1.47,1.66-.92.12,1.54Z"/><path class="cls-4" d="M416.82,177l-.12-1.54a.33.33,0,0,1,.38-.25l.81,1.2Z"/><path class="cls-27" d="M379.2,149.7l-1.38-.45.79-.75Z"/><path class="cls-5" d="M350.44,254.69c-1.56-.6-3.09-1.29-4.68-1.79-7.15-2.26-14.32-4.44-21.46-6.71a19,19,0,0,1-4.73-2c-.82-.52-1.72-2-1.53-2.75a4,4,0,0,1,2.42-2.46,7.48,7.48,0,0,1,4.49.28c7.29,3.17,14.55,6.41,21.66,9.93,1.84.91,3.14,2.92,4.68,4.42Z"/><path class="cls-5" d="M351.46,245.78c-6.55-4.06-13.77-6.29-21.21-7.92-1.14-.25-2.43-.08-3.46-.54s-2.36-1.43-2.34-2.15a4.11,4.11,0,0,1,1.89-2.93,4.61,4.61,0,0,1,3.61-.31c6,2.67,12,5.41,17.83,8.49,1.8,1,3,3,4.47,4.58Z"/><path class="cls-29" d="M347.88,329.57c-.21,5.85-4.66,9.58-10.51,8.71-8.5-1.26-15.78-5.28-22.6-10.21-7-5.08-13.35-10.95-17.71-18.6-1.4-2.45-3.17-5,.49-7.2.14-.08.18-.31.27-.47,3.45-6.5,7.19-8.13,14.42-6.1,8.78,2.47,15.95,7.69,22.8,13.46,5.14,4.32,9.69,9.07,11.79,15.66C347.32,326.36,347.53,328,347.88,329.57Z"/><path class="cls-11" d="M335.36,291.52c.06,2.73-2,4.26-4.57,3a18.47,18.47,0,0,1-5.08-3.6,75.83,75.83,0,0,0-22.83-15.56,8.52,8.52,0,0,1-3.7-2.66,10.51,10.51,0,0,1-1.69-5.34c0-1.34,4-2.39,6-1.61a57,57,0,0,1,7.9,3.62c6.85,4.07,14.2,7.53,19.62,13.58,2.09,2.34,3.4,5.39,5.07,8.11Zm-36.55-23.76c.45,1.33.48,2.22.94,2.6a27.66,27.66,0,0,0,5.6,4.12,70.39,70.39,0,0,1,20.07,13.75,35.56,35.56,0,0,0,5.09,4.06c.61.42,1.63.24,2.46.34,0-.77.36-1.69,0-2.27a24.58,24.58,0,0,0-3.56-5.67c-6.74-6.91-15.07-11.54-23.63-15.73C303.94,268,301.52,268.19,298.81,267.76Z"/><path class="cls-11" d="M353.15,313.24c-.61.84-1.09,2.12-2,2.51a3.15,3.15,0,0,1-2.81-.72c-3-3.16-5.85-6.41-8.55-9.8-1.28-1.61-2.37-3.64-.47-5.62s3.85-1.81,6.3.08C350,303,351.52,308,353.15,313.24Zm-3.08.58c.39-.5.58-.63.59-.77a1.92,1.92,0,0,0-.08-1.05c-2.1-3.52-4.17-7.07-6.46-10.47-.37-.55-1.79-.38-2.73-.54.1.89-.11,2,.36,2.64C344.39,307,347.2,310.33,350.07,313.82Z"/><path class="cls-10" d="M510.33,44.83l-1.13,2.55-.83-.3c.21-.7.41-1.41.61-2.12Z"/><path class="cls-3" d="M510.33,44.83,509,45l.74-1.42Z"/><path class="cls-21" d="M382.46,49.39l.71-1.15q2.26,2.81,4.52,5.63A7.84,7.84,0,0,1,382.46,49.39Z"/><path class="cls-19" d="M124.48,324.33c3.57,0,7.49,4.36,7.58,8.48A8.26,8.26,0,0,1,124,341a8.17,8.17,0,0,1-8.12-8.14A8.44,8.44,0,0,1,124.48,324.33Z"/><path class="cls-23" d="M298.81,267.76c2.71.43,5.13.27,7,1.2,8.56,4.19,16.89,8.82,23.63,15.73a24.58,24.58,0,0,1,3.56,5.67c.31.58,0,1.5,0,2.27-.83-.1-1.85.08-2.46-.34a35.56,35.56,0,0,1-5.09-4.06,70.39,70.39,0,0,0-20.07-13.75,27.66,27.66,0,0,1-5.6-4.12C299.29,270,299.26,269.09,298.81,267.76Z"/><path class="cls-24" d="M350.07,313.82c-2.87-3.49-5.68-6.78-8.32-10.19-.47-.61-.26-1.75-.36-2.64.94.16,2.36,0,2.73.54,2.29,3.4,4.36,7,6.46,10.47a1.92,1.92,0,0,1,.08,1.05C350.65,313.19,350.46,313.32,350.07,313.82Z"/></g></g></svg>