<svg xmlns="http://www.w3.org/2000/svg" viewBox="0 0 600 497.1"><style><![CDATA[.c{fill:#0b0a0c}.d{fill:#050507}.e{fill:#dcdcdc}.f{fill:#323232}.g{fill:#0f0f0f}.h{fill:#7b73f8}.i{fill:#756dec}.j{fill:#191919}.k{fill:#131313}.l{fill:#e9e9e9}.m{fill:#7b72f4}.n{fill:#fbfbfb}.o{fill:#f4f4f4}.p{fill:#676767}]]></style><path d="M211.1 358.5l.4-3.8.2-3.8.4-4.4.2-3.8.4-5.5.2-6 .4-4.9.2-3.8.4-7.1c0-.9.1-1.8.2-2.7l.4-3.3.2-3.3.1-1.2v-.9l-1.3.5-3.8.9h-5.9l-6.6-.6-1.7-.3-1.1-.2-1.6-.4-1.1-.2-1.1-.3-1.1-.2-1.1-.3-1.5-.4c-7.9-1.8-14.4-5.7-18.9-12.5l-2.4-3.6-.2-.7-.3.6-3.2-.6c-10.1-2.6-18.2-7.6-20.6-18.8-.5-2.3-.2-4.8-.2-7.2l1.6-.3c.6 8.9 4.4 15.8 12.6 19.9l2.4 1.1 11 3.5a1.98 1.98 0 0 1 1.1 1.1c4 7.2 10.5 11 18.2 13l10.8 2.6 1.1.1 6.5.5h2.2c1.2-.2 2.5-.5 3.8-.7 2-.2 2.8-1.2 2.7-3.4-.2-3.5 0-7.1 0-10.6v-16.9l1.9-.1.8 6.1v2.7l.5 7.1v26.2l-.5 8.7-.1 3.8-.5 6.5-.1 2.2-.5 7.1-.1 2.2-.5 6-.1 1.1c-.2 2-.3 4-.5 6v1.1c-.2 1.8-.3 3.6-.5 5.4l-.1 1.1-.5 4.9-.1 1.1-1.5 13.6-.1 1.6c-.2 1.3-.3 2.5-.5 3.8l-.1 1.1-.5 3.8-.1 1.1-.5 3.8-.1 1.1-.5 3.8-.1 1.1-.4 2.7-.1 1.1c-.3 2.6-.5 5.2-1 7.7s-1.3 4.8-1.9 7.1l-1.3 1.2c-7.5 8.3-5.9 12.6 2 18.4.5.4 1.1.7 1.6 1 7.5 4.7 15.9 8 24.7 9.7 14.7 2.9 29.4 5.3 44.1 7.7 9.3 1.5 18.6 1.1 27.9.1 10.1-1.3 20.3-2.2 30.4-4 12-2 24-4.1 35.7-7.4 13.2-3.6 25.8-9.2 36.9-17.5l.5-.4.1-.1h.2l.2-.1 1.3-1 .5-.4v-.1h.1c.1-.1.3-.2.4-.3 0-.2.2-.3.3-.3l4-4v-.1c0-.2.1-.3.3-.4l.3-.3c.1-.3.3-.6.4-.9v-.7c-1.1-1.1-2-2.7-3.3-3.3-2-.9-3.5-2.7-3.8-4.9l-2.4-14.2c-4.2-25.4-4.3-51.1-4.4-76.8.1-1.5-.5-3-1.8-3.8-3.9-3.1-7.6-6.4-9-11.5l2.2-.1c1.7 1.4 3.6 2.7 5.2 4.3 3.3 3.4 7.5 5.8 12.2 6.6 18.2 3.3 35.9-7.2 42.3-25.2a18.77 18.77 0 0 0 1.2-3c.6-3.7 1-7.5 1.4-11.2l-.3-3.6c-.1-1.2-.1-2.4-.2-3.6l-.2-.7c-.1-1-.2-1.9-.5-2.9-.2-.5-.7-1.3-1.2-1.4-3.9-.6-7.8-1.1-11.7-1.6l-23.5-.7-2.4-1.5-.8 2.4c-1 1.3-1.9 2.6-3 3.8-3.7 4.2-7.4 8.5-11.4 12.6-1.2 1.2-3.1 1.6-4.7 2.3h-1.6c-1.5-1.2-3.4-2.2-4.2-3.7-3.2-5.8-5.1-12.3-5.4-19-.1-1.1-.1-2.1-1.7-2.2-2.8-.1-5.6-.4-8.4-.8-1.3-.1-1.8.2-2.2 1.6-.5 2.5-1.4 4.9-2.6 7.1-1.3 2.1-2.8 4.5-5.8 4.8l-36.9 2.5c-3.6.2-6.8-.8-8.7-4.2-.6-.7-1.4-1.2-2.4-1.3l-13.1-.5c-6.5-.2-6.5-.2-6.5-6.8 0-2.4 1-3.9 3.4-4 3.9-.2 7.8-.2 11.7-.1 1.5 0 2.1 0 1.9-1.8a48.32 48.32 0 0 1-.3-7.6c.1-1.5-.3-2.1-1.9-2-3.2.1-6.3-.1-9.5-.2-5.5-.1-6.6-1.3-6.7-6.8-.1-3 .8-4.1 3.7-4.1 5.5 0 11 .3 16.6.5l1.7-.3c2-1.5 3.7-3.8 5.9-4.3 3.2-.7 6.7-.3 10-.1l33.2 2.1 1.7.5c1.4 2.9 2.7 5.9 4.2 8.7.4.9 1.2 1.5 2.1 1.9 3.5.6 7 .9 10.5 1.6 1.3.2 1.8-.1 2.1-1.3 1.7-9.7 6.9-18.3 14.6-24.4l16.7 1.4c-.4-.7-.9-1.3-1.4-1.8l-9-7.4-2.7-1.1-1.6-.6-.5-.4-1.1-.5c-3.1-1-6.5-1.5-9.2-3.2-6.6-4.2-7.5-4.4-4.9-12.1l.3-.8 4.5-8.4 1.5-1.1 3.7-4.2.2-.3-.3.3-2.5 1.3-.1-2.4c2-2.5 4.4-4.8 5.9-7.5 1.8-3.2 1-6-1.5-8.5l-.7-.4-4.7-.2-2.2.5-2.3.1-.8.2-1.4.4-2 1h-.5c-1-.6-3.1-.5-1.6-2.6l12-3.7h2.1c3.6.1 6.3 1.6 7.8 4.9 1.7 3.6 1.2 7.9-1.2 11.1-1.1 1.7-2 3.5-2.4 5.5-.8 2.9-2.2 5.5-4.1 7.8-2.8 3.5-5.2 7.1-6.5 11.5v1.1l.4.7c0 .2.2.3.3.4 1.5.7 3 1.6 4.6 2.2 4.2 1.6 8.6 2.9 12.7 4.9 6.7 3.2 12.1 8.6 15.3 15.3.4.8 1.4 1.2 2.2 1.7 3.6 2 7.4 3.5 10.7 5.9 4.3 3.2 7.5 7.4 7.3 13.3v.7l.9-.2c4.5 0 7.5 2.4 9.4 6.2.7 1.6 2.2 2.8 4 2.9 2.5.5 4.9 1.2 7.4 1.8l2.1.5h.1c.6.3 1.3.6 2 .9l32.7 8.9 10.4 2.8.1-.1.1.1 1.1.4.5.1 1.1.4.6.1.7.3c8.7 3.3 17.6 6.1 26.1 9.9 15.6 6.9 31.1 14.4 46.5 21.7 2.7 1.4 5.3 3.1 7.8 5 .6.4.7 1.4 1 2l-2.2.6c-1.3-.7-2.6-1.3-3.8-2-39.1-21-80.8-36.9-124-47.2-12.6-3.2-25.4-5.3-38.3-6.4-5.1-.4-8.5 1.3-10.9 5.5 0 .1-.1.1-.2.2-.3.5-.5 1.1-.8 1.6.6.1 1.2.2 1.8.2 12.1-1 24.1.6 36 2.7 39.6 6.9 76.9 20.6 112.5 38.9 7.5 3.9 14.7 8.2 22.1 12.3l.3 3.2c-1.1 0-2.4.3-3.2-.2-15.4-9.4-31.5-17.6-48.2-24.7-.2-.1-.3-.2-.4-.3l-.9-.4-1.8-.7-.9-.4-.8-.3-.7-.3h-.2l-.2-.2-.8-.4-.9-.3-.6-.3h-.3l-.2-.2-.8-.4-2-.7-.8-.4c-9.1-3.2-18.1-6.8-27.4-9.5-13.3-3.9-26.8-7.1-40.2-10.5-3-.8-3-.6-2.4 2.3.4 2.2.7 4.5 1 6.7l.1 2.2v4.9l-.1 1.6c-1 3.7-1.4 7.7-3 11.2-3.4 7.2-8.3 13.5-14.2 18.8-3.9 3.5-8.7 5.8-13.8 6.5l-1.1.2-7.6.9h-3.8l-4.6-.5-1.1-.1-2.8-.6-.8-.2.2.8.1 11.5.1 2.2c.1 2 .3 4 .5 6l.1 10.4c.5 3.6.4 3.5 3.6 1.7 7.5-4.3 15.2-8.3 23.6-10.4l1.1-.2 1.7-.4 1.1-.1c4.8-1.1 7.5.8 7.7 5.6 0 2-.2 4-.5 5.9l-.1 1.1c-2.6 8-4.7 16.2-8 23.8-3.6 8.1-8.4 15.6-12.7 23.4-2.2 4-4.3 8.2-6.4 12.2l.2 1.1c3.5 4.4 3.5 7.3-.4 11.2-7.3 7.4-15.9 13.2-25.5 17.1l-1.4.5 1.2.6c12.4 5.5 23.5 12.8 32.3 23.2 2.9 3.4 5.3 7.1 6 11.7l.1 1.1c1 4.9-1.1 9.4-5.8 12-1.9.9-3.8 1.6-5.8 2.1l-3.3.6-1.6.2h-9.8l-1.6-.1-3.3-.5-1.1-.1-4.4-.9-1.1-.2c-12.7-2.6-24.3-7.7-35.5-14.2-8.7-5-16.8-10.9-23.4-18.5-.7-.8-2.2-.8-3.3-1.1l-1.1.1-2.7.4-1.1.1-2.7.4-1.1.1-3.3.5-1.1.1-3.3.5-1.1.1-3.3.4-1.6.1-3.8.4-2.7.1-7.1.5-9.2.3-1.5 2-1.2 1.1-13.8 9.4-1.4.8-11.6 5.8-2.6 1.2-1.2.5-1.5.7-1.2.5-1.6.6-1.2.4-1.5.6-8.8 2.9-2.7.8-5.5 1.5-1.1.2-1.1.3-1.1.2-1.7.4-6.6 1.2-2.2.3-3.3.3h-9.2l-2.7-.3-1.6-.3-1.1-.2-3.7-1.2-1.2-.5-1.4-.8-4.1-3.7-1.8-5.1v-1.6l.3-1.6.3-1.1.5-1.5 4.6-7.2 1.6-1.8 3.3-3.2 1.2-1c6-5.6 13-10 20.5-13.2l1-.5-.8-.5c-4.9-2.7-10.2-4.8-14.6-8.2-8.3-6.4-8.5-14.2-1.4-21.9.5-.5 1-1 1.6-1.5l.3-1.1.3-1.7c.1-.5.1-1.1.2-1.6.1-.7.3-1.5.4-2.2l.1-1.1.4-2.2.2-1.6.4-2.2.2-1.6c.1-.9.3-1.8.4-2.8l.1-1.6.4-2.8.1-1.6.4-3.3.1-2.2.4-3.3.2-2.2.4-3.3.1-1.6.4-3.3.1-1.6.4-3.3.2-2.2.4-2.7c.1-.7.1-1.5.2-2.2l.4-3.3c.2-1 .3-2.1.3-3.2zm156.3-121.2l-.6-.4-36.6-2.9c-4.5-.4-5.7-.1-8 4-4.8 8.4-3.6 24.1 2.6 31.6a8.69 8.69 0 0 0 2.6 1.6l1.8-.3 1.6-.3 32.6-2.4c1.7-.1 2.1-.3 1.4-2.2-2.6-7-2.3-14.2-1.2-21.4h1.7l4.1-.6-.2-1-.2-1.1-.4-1.1-.1-.6-.4-1.1-.2-.6-.5-1.1v-.1zm65.9-4.8l-1.1-.6h.1l-5-2.2h.1l-1.2-.7-10.8-3.4c-3.5-.6-7.1-1.4-10.7-1.8-1.1.1-2.2.6-2.9 1.5-5.8 5.9-8.6 13.3-10.2 21.2-2 10.1-2 20 2.7 29.5 1.9 4.3 2.2 4.4 5.8 1.4 2-1.6 3.8-3.4 5.4-5.3 3-3.8 5.8-7.9 8.7-11.8 5-6.6 10-13.2 17.1-17.8 1.3-.7 2.7-1.2 4.2-1.6l.6.8-7 8.1c3.2 0 6.7-.1 10.1 0 2.1.1 2.6-.8 2.8-2.6.6-5.3-1.9-9.2-5.4-12.8l-.6-.4-1.3-1h-.7l-.7-.5zm-23.9 142.9c.2 1.1.3 2.2.4 3.3l.1 1.6c0 .4.1.7.1 1l2.1 15.8.1 1.1 2.5 13.4.2 1.6.5.1 1-3.5-.1.1.6-.6 9.1-15.9 1.6-2.7c.1-.1.1-.2.1-.2.4-.9.9-1.8 1.4-2.6a117.66 117.66 0 0 0 11.8-29.2c.5-2.6.9-5.2 1.1-7.8.3-2.3-.8-2.9-2.9-2.4-1.5.3-3 .7-4.5 1.2l-25 11.3c-.5.4-.9 1-.9 1.7 0 2 .3 4 .5 5.9h-.2v3.8l.4 3zm36.5-128.7l-.4.3a17.33 17.33 0 0 0-.3 3.2c0 .4.4 1.2.7 1.2 2.3.4 4.6.6 7 .8l.2-.7-7.2-4.8zm-59.1 3.2l-.5-.4-3.8-.3-14.9-1.2c-1.7-.1-2.5.6-2.3 2.4.1.6.1 1.3 0 1.9-.2 1.5.4 1.9 2 1.9 4.1.1 8.2.4 12.4.7 2 .2 4.6 1.5 5.7.6s1-3.7 1.4-5.6zm-77.5 15.3v.2c1.8 0 3.6.1 5.4 0 .7-.2 1.4-.4 2.1-.8-.7-1-1.3-2.7-2.1-2.8-4-.3-7.9-.4-11.9-.2-.6 0-1.5 1-1.7 1.6-.2 1.1 0 2.1 1.6 2.1 2.3-.2 4.5-.1 6.6-.1zm-1.6-25.9c-2.1-.1-4.2-.3-6.2-.2-.6.1-1.2.4-1.6.9.3 1 .8 2.6 1.4 2.6 4.4.3 8.9.3 13.3.2.5 0 1-1.4 1.4-2.2-.4-.4-.9-.8-1.4-.9-2.4-.3-4.6-.3-6.9-.4zm59.4 26.3h.8c.5-2 1.2-3.9 1.5-5.9.1-.4-1.1-1.3-1.7-1.4s-1.8.8-1.7 1.1c.2 2.1.7 4.1 1.1 6.2zm53.5-43.1l-.5-.2a.76.76 0 0 0-.2.4c0 .1.3.1.4.2.2-.1.2-.2.3-.4z"/><path d="M140.2 256l-1.7.4-1.1.2-1.1.3-1.1.2-5 1.3-1.6.4-2.3.7-1.5.4L89.2 274l-.8.4-.1.2h-.2l-.8.4c-7.8 4.5-15.8 8.8-23.5 13.6-15.7 10-29.8 22.2-41.9 36.4-1.1 1.2-1.8 3.4-4.2 2.6.4-1.2.5-2.7 1.2-3.7 2.8-3.8 5.8-7.5 9-11 15.1-15.9 32.8-28.3 52-38.7 22.3-12 45.9-20.5 71.1-24 4.8-.7 9.7-1 14.7-1.5-1.5-2.2-2.9-4.2-4.4-6.1-.6-.6-1.4-.9-2.3-.8-4.8.7-9.7 1.5-14.5 2.5-27.1 5.6-53 14.7-77 28.5-18.3 10.5-35.5 22.3-49.1 38.8-2.8 3.4-6.1 6.5-9.1 9.7l-.4.5-1 1.3c-.1.1-.1.3 0 .4l-3.8 1.8c.4-1.3.4-2.8 1.2-3.8C22 299 43.2 281.6 67.8 268.4c.3-.2.7-.3 1-.4l.6-.4c0-.1.2-.2.3-.2h.1l.7-.4c0-.1.1-.2.3-.2h.1l10.4-5.2c0-.1.2-.2.3-.2h.1l.7-.4c.1-.2.2-.2.4-.2l.7-.4c12.1-5.8 24.7-10.4 37.7-13.7l14.7-3.7 1.1-.1a23.69 23.69 0 0 0 3.6-.9c.7-.3 1.2-1.2 1.8-1.8l.1-1.1c2.3-6.6 5.7-12.6 11.5-16.7a50.46 50.46 0 0 1 17.8-7.7l1.1-.2 1.7-.4 1.6-.1c3.5.2 5.7-1.7 7.9-4.3 4.2-4.8 9.7-7.8 15.7-10l1.5-.7c4.7-2.6 9.5-5 14.1-7.7 3.9-2.2 4.1-4.8 1.1-8.2-1.2-1.3-2.4-2.5-3.5-3.8-5-6.4-2.9-14.6 4.6-17.8 4.5-1.9 9.1-2.3 13.7 0v2.5l-5.4-.8h-3.3c-.9.2-1.8.4-2.6.7-6.7 1.9-8.5 7.7-3.8 12.9 1.8 2 3.7 3.7 5.6 5.6.5.6 1.4 1.4 1.3 1.9-.8 3.1 1.4 5.3 2.1 7.9 1 3.7 2.6 7.4 1.5 11.4l-.7.5c-1.1-1.4-2.6-2.6-3.3-4.2-.8-2.2-1.5-4.5-2-6.8-5.8 3.4-11.3 6.9-17 9.9s-11.6 5.9-16.5 10.3l-.7.6 1.1.4c4.2 1.2 8.6 2.2 12.7 3.8 6 2.4 6.6 3.9 6.2 10.4v9.5l1.2.3 5.4.5 1.6.1 7.6.5 6.5.1 4.9.5 1.1.1 1.6.4 1.1-.4 1.2-3.4c.1-.6.3-1.1.4-1.7.7-.5 1.5-1 2.3-1.3l21.7-3.5 1.1-.1 7.6-.5 4.9-.1h2.2l3.8.1c4.3 0 4.6.2 5.5 3.9.1.5.6.9.7 1.4l2 8.8v8.1l-.1 1.7c-.1 6.5-1.7 12.9-4.8 18.6-1.2 2.1-2.2 3.9-5 3.2h-3.8l-5.5-.7-.9-.2-9.6-1.7-20.4-4.3c-1.3-.3-3.3-1-3.7-2-1-3.1-1.9-6.3-2.5-9.5v-3.3l-.8-1h-6.3l-3.8-.1-7.1-.5-1.6-.1-9.2-1-.8-.4-.2 1-5.2 23.6c-.2.9-1.2 1.7-1.8 2.6l-2.4.5c-1.7-.8-3.4-1.8-4.9-3-2.7-2.5-5.1-5.2-7.7-7.9-.2 0-.3.1-.4.2-11.8 11.3-32.7 6.8-38.7-8.4l-.7-2.1-1.5-1.2-1.3.2zm27.7-11h.2v.2c0 .2.1.3.3.4l.2.1v.2c0 .1.1.2.2.2l19.7 21.8a117.88 117.88 0 0 0 5 5c1.3 1.3 2.2 1.4 2.7-.7l1.6-6.3c3.1-12.8 4.5-26 4.1-39.1 0-1.1-.6-2.7-1.4-3.1-7.5-4.1-15.8-6.6-24.2-5.4-12.5 1.8-23.5 6.6-28.4 19.7-.2.4-.4.8-.7 1.2l-.7 1.2 1-.1 11.5-.9h.8l-.6-.7-1.5-6h1.5l8 11.5.6.6.1.2zm37.7-2.5l-.1 1.4c-.2 1.5-.5 3-.7 4.4h.9l10.8.1 16.8.3c2.7.1 1.8-2.2 2.2-3.5.1-.2-1.2-1.2-1.8-1.3l-17.6-1-10.5-.4zm-42.4 10.3l-18.6 2.4c6.4 13.4 21.1 18.2 33.4 11.5.2-.2.5-.3.7-.4 2-.6 2.3-1.4.7-3.1-3.5-3.6-6.9-7.5-10.3-11.2l-.6-.7-.5.9-3.2.6h-1.6zm85.2-16.9l-.8.2c-3.5-.2-5.7 1.2-6.1 4.9-.1.2-.1.3-.2.5-2.3 7-4.1 14.1-1.9 21.6.3.9.9 1.6 1.7 1.9l31.8 5.7c2 .4 1.8-.3 1.4-1.8-2.8-9.8-2.2-19.6.9-29.2.6-1.9 1.2-3.7 1.9-5.6-2.1 0-4.2-.2-6.2-.1l-22.5 1.9zm32.5 25.5h1.9c1.4.3 2.6 0 2.2-1.6-.1-.6-1.5-1.4-2.3-1.4-1.5.1-3.1.4-4.5.9-.4.1-.6 1-.9 1.6.5.2.9.6 1.4.7.8 0 1.5-.1 2.2-.2zm3.2-18.2l-5.1 2.6c-.3.1-.2.8-.3 1.2.4.1.8.2 1.2.2 1.3-.1 2.7-.3 4-.6.8-.3 1.6-.7 2.4-1.2l-2.2-2.2z"/><path d="M231.2 164v-2.6c.3-.7.6-1.5.8-2.3l1.8-21.4c.4-2.4-.1-4.9-1.4-7-2.2-3.9 0-11.2 4-13.8 1-.7 1.8-1.8 2.2-3 6.2-22.2 17.6-40.2 39.1-50.6 21.1-10.3 42.7-10.5 63.8-1.9 17.4 7.1 29.9 20.3 37.2 37.9 1.8 4.3 2.9 9 4.3 13.4.4.7.7 1.4 1 2.2.4 2.3.7 4.7.9 7.1.1 1.8-.6 3.7-.4 5.5.9 10.5.7 21.1-.7 31.5 0 .9.2 1.8.4 2.6-1.5 2.1.6 2.1 1.6 2.6-3.5 0-3 2.7-3.3 4.9-.1 1-.3 2-.5 3-.4 1.8 0 2.7 2 1.6 3-1.6 6.1-3.2 9.2-4.7.9-.3 1.9-.4 2.9-.5-.2 1-.6 1.9-1.1 2.8-.8.9-1.6 1.7-2.6 2.4l-16.8 8.8c-6.5 3.3-13 6.4-19.5 9.5-9.5 4.4-19.4 7.7-29.8 8.8-8.1.8-16.2 1.2-24.4 1.8-9.1 0-18.2.3-26.9-3.4-.1-.1-.3-.2-.4-.3l-50.2-24.7c-1-.5-1.9-1.1-2.7-1.8-1.7-1.5-1.6-3 .5-3.6s4.6-.5 6.9-.7c.9-.1 1.8-.3 2.7-.4l-.6-3.7zm144.4-37.6c1.6 3.6-.3 6.4-2.2 9.2 3.6-.1 6.3-3.9 5.7-7.6-.3-1.2-.2-2.4.1-3.6 1.6-4.7 1-6.2-3.6-8.1-1.6-1.1-2.5-.1-3.3 1.1-2.4 3.4-1.3 6.6 3.3 9zm-137 7.2c-.1-.2-.1-.5-.3-.7 0-.1-.3 0-.4.1l.3.8c0 2.3.1 4.5 0 6.8l-2 32c-.2 1.5.6 2.9 2 3.4l28.4 14.3c10.3 5.1 20.8 9.2 32.6 7.2 10.8-.8 21.8-.8 32.5-2.5 15.8-2.6 29.7-10.4 43.9-17.3.8-.6 1.4-1.5 1.5-2.6 1.1-7.1 2.3-14.2 3.1-21.3.8-6.8 1.1-13.6 1.7-20.4l-.8-.2c-1.8 4-5.8 5.3-9 7.4-.4.1-.7.1-1.1.1l-3.8-.1c.4-1.3 1-2.5 1.6-3.7 1.2-1.8 2.7-3.4 4-5.2.8-1.1.8-1.8-1-2.1-3.9-.7-6.2-3.5-6.7-7.5-.4-3.7.9-7.3 3.4-9.9 2.3-.6 4.6-1.6 6.9-1.8 2-.2 2.2-.5 1.7-2.3-5.4-17.7-17.7-32.6-34.2-41.2-13-7-27.5-7.3-41.9-6.3-3.6.3-7.1 1.3-10.6 2-12.9 3.9-24.5 10.3-33.4 20.5-7.5 8.7-11.7 19.3-15.3 30.2-.7 2-1.1 3.5 1.8 4.1 1 .2 2.1 1.5 2.6 2.6 2.5 4.2 2.7 9.5.4 13.8-.9 1.6-2.5 2.7-4.3 3-1.1.1-2.4-2-3.6-3.2zm5.9-6.2c-.5-2.3-.9-4.8-1.6-7.2-.5-.7-1.3-1-2.1-.9-3.5.9-4 4-4.5 7-.3 1.7.2 2.6 2.2 1.8s3.3 0 3.4 2.3c0 .6.1 1.3.2 1.9.1.3.3.6.5.9.3-.2.9-.4 1-.7.2-1.6.5-3.2.9-5.1z" class="c"/><path d="M9.3 321.4c3-3.2 6.3-6.3 9.1-9.7 13.6-16.4 30.8-28.3 49.1-38.8 24.1-13.8 49.9-22.9 77-28.5 4.8-1 9.6-1.8 14.5-2.5.8-.1 1.7.2 2.3.8 1.5 1.9 2.9 3.9 4.4 6.1-5.1.5-9.9.8-14.7 1.5-25.2 3.5-48.8 11.9-71.1 24-19.2 10.4-37 22.7-52 38.7-3.2 3.5-6.2 7.2-9 11-.7 1-.8 2.5-1.2 3.7-.5.8-.7 1.9-1.4 2.3-1.4.8-3.1 1.6-4.6 1.5-2.3-.2-3.5-2.1-3.8-4.3-.1-1.2-.1-2.3 0-3.5-.1-.1-.1-.3 0-.4l1-1.3.4-.6z" fill="#7970f5"/><path d="M592.1 315c-7.4-4.1-14.6-8.5-22.1-12.3-35.7-18.3-73-31.9-112.5-38.9-11.9-2.1-23.9-3.6-36-2.7-.6 0-1.2-.1-1.8-.2.3-.5.5-1.1.8-1.6 0-.1.1-.1.2-.2 2.4-4.2 5.8-5.9 10.9-5.5 12.9 1.1 25.7 3.2 38.3 6.4 43.2 10.3 84.9 26.2 124 47.2 1.3.7 2.6 1.3 3.8 2-.3 3.5-2.3 5.3-5.6 5.8z" fill="#786ff3"/><path d="M309.7 18.4l-.8 4.1c-.9-1-1.6-2.2-2.2-3.4-1.7-5.1-3.4-10.3-4.8-15.5-.3-1 .4-3 1.1-3.4 1.8-.9 2.6 1 3 2.3l4.3 15.6-.6.3z" fill="#0d0d0d"/><path d="M389 36.4c0-.5-.3-1.1-.1-1.3 3.3-4.5 6.7-9 10.2-13.3.5-.6 2.2-.4 3.3-.5-.2 1 .1 2.4-.5 3.1-3.2 3.6-6.5 7-9.9 10.4-.9.7-1.9 1.2-3 1.6z" class="g"/><path d="M514.3 268.5l-10.4-2.8-32.7-8.9c-.7-.2-1.4-.5-2-.9l36.4 9.5c3 .9 5.8 2.1 8.7 3.1z" class="d"/><path d="M418 97.2c2.8-2.3 5.4-4.7 8.3-6.7.8-.6 2.4 0 3.6.1-.6 1-1 2.6-1.9 3.1-3 1.7-6.3 3-9.4 4.5l-.6-1z" class="k"/><path d="M231.7 62.8l-5.9-2.9c-1.4-.9-2.6-2-3.7-3.2-.4-.5-.3-1.4-.4-2.2.8-.1 1.9-.6 2.4-.2 3.1 2.1 6.3 4.2 7.6 8.5z" class="g"/><path d="M408.3 353l-.1-10.4.1 10.4zM286.8 465.6l9.2-.3-9.2.3zm-83.4 31.3z" class="d"/><path d="M203.4 305.5zm9.4 25.7l-.2 6 .2-6z" class="c"/><path d="M185.7 485l1.8 5.2-1.8-5.2z" class="d"/><path d="M142.8 257l.7 2.1-1.1.2-1.6.3 2-2.6zm69.4 85.7l-.2 3.8.2-3.8zm-.5 8.2l-.2 3.8.2-3.8z" class="c"/><path d="M416.5 323.5z" class="d"/><path d="M213.3 322.5c0 1.3-.1 2.5-.2 3.8l.2-3.8zm-2.2 36l-.2 3.3.2-3.3zm3.3-52.4l-.2 3.3.2-3.3z" class="c"/><path d="M194.2 495l3.7 1.1-3.7-1.1z" class="d"/><path d="M213.8 312.7c0 .9-.1 1.8-.2 2.7l.2-2.7z" class="c"/><path d="M303.1 464.8l2.7-.1-2.7.1zm-68.1 28l2.7-.8-2.7.8zm225.1-213.4l-.1-2.2.1 2.2z" class="d"/><path d="M398.4 157.9zm-201.5 147l2.2.2-2.2-.2z" class="c"/><path d="M254.6 485.8l2.6-1.2-2.6 1.2zm153.2-149.1l-.1-2.2.1 2.2z" class="d"/><path d="M210.6 365c0 .7-.1 1.5-.2 2.2.1-.7.1-1.4.2-2.2zm-2.2 20.2l-.2 2.2.2-2.2zm-.5 5.5l-.1 2.2.1-2.2zm2.2-20.7l-.2 2.2.2-2.2z" class="c"/><path d="M215.9 496.6l2.2-.3-2.2.3zM193 470.1l-1.6 1.8 1.6-1.8zm222.3 27l1.6-.2-1.6.2zm-11.4-.2l1.6.1-1.6-.1zm-204.8-.5l1.6.3-1.6-.3zM186 481.7l-.3 1.6.3-1.6zm123.6-17.4l1.6-.1-1.6.1zm83.8-18l-1.2-.6 1.4-.5-.2 1.1z" class="d"/><path d="M204.6 415.8l-.2 1.6.2-1.6zm1.1-7.1l-.2 1.6.2-1.6zm.5-3.9l-.2 1.6c.1-.5.2-1 .2-1.6zm.6-4.3l-.1 1.6.1-1.6zm.5-4.4l-.1 1.6.1-1.6zm1.6-15.8l-.1 1.6.1-1.6zm.6-4.9l-.1 1.6.1-1.6zm-33.3-161.5l-1.6.1 1.6-.1zm37 90.7l1.3-.5v.9l-1.3-.4z" class="c"/><path d="M460 285.9l.1-1.6-.1 1.6zm-28.2 196.4l-.1-1.1.1 1.1z" class="d"/><path d="M140.2 256l1.1-.1-1.1.1z" class="c"/><path d="M419.4 416.8l-.2-1.1.2 1.1zm-.2 79.7l1.1-.2-1.1.2zm27.2-251.9l-.9.2v-.7l.9.5zm-46.8 251.8l1.1.1-1.1-.1zM392 199.8v-1.1 1.1z" class="d"/><path d="M124.9 259.9l1.5-.4-1.5.4z" class="c"/><path d="M469.2 256l-2.1-.5 2.1.5z" class="d"/><path d="M136.9 242.8l-1.1.1 1.1-.1z" class="c"/><path d="M220.2 496l1.1-.2-1.1.2zm173.9-.7l1.1.2-1.1-.2z" class="d"/><path d="M205.1 412.5l-.1 1.1.1-1.1z" class="c"/><path d="M223.5 495.5l1.1-.2-1.1.2z" class="d"/><path d="M161.5 285.7l1.6.3-1.6-.3zm39.7-86.8l-1.5.7 1.5-.7z" class="c"/><path d="M226.2 494.9l1.1-.2-1.1.2zm2.3-.5l1.1-.2-1.1.2zm-36.9-.6l1.4.8-1.4-.8zm39 .1l1.1-.3-1.1.3zm2.2-.5l1.1-.3-1.1.3z" class="d"/><path d="M186.6 302.6l1.5.4-1.5-.4zm2.6.7l1.1.2-1.1-.2zm2.2.5l1.1.2-1.1-.2zm2.8.6l1.1.2-1.1-.2z" class="c"/><path d="M246.4 489.1l1.5-.6-1.5.6z" class="d"/><path d="M142.5 239.1l-.1 1.1.1-1.1z" class="c"/><path d="M249.2 488l1.6-.6-1.6.6zm158.4-165l-.2-.8.8.2-.6.6zm20.3-.4l1.1-.2-1.1.2zm-176 164.3l1.5-.7-1.5.7zM411 323l1.1.1-1.1-.1z" class="d"/><path d="M137.5 256.6l1.1-.2-1.1.2zM204.1 419l-.3 1.1.3-1.1z" class="c"/><path d="M186.8 479.1l-.5 1.5.5-1.5zm82-.3l1.5-.8-1.5.8zm-50.7-27.1l.8.5-1 .5.2-1zm65.9 16.9l1.2-1.1-1.2 1.1zm-86.6-2.7l-1.2 1.1 1.2-1.1zm241.9-122.2l-1.1.1 1.1-.1zM330.9 461.6l1.1-.1-1.1.1zm105.7-117.5l-1.1.2 1.1-.2z" class="d"/><path d="M135.2 257.1l1.1-.2-1.1.2z" class="c"/><path d="M446.4 356.3l.1-1.1-.1 1.1zM314.5 463.8l1.1-.1-1.1.1z" class="d"/><path d="M172.9 214.4l-1.1.2 1.1-.2z" class="c"/><path d="M318.9 463.2l1.1-.1-1.1.1zm8.2-1.1l1.1-.1-1.1.1zm-3.9.5l1.1-.1-1.1.1z" class="d"/><path d="M128.7 258.8l1.6-.4-1.6.4zM80.2 262l-1.1.5 1.1-.5zm-7.6 3.8l-1 .5 1-.5z" class="c"/><path d="M515.6 269l-1.1-.4 1.1.4z" class="d"/><path d="M81.3 261.5l-1 .5 1-.5zm83.4 24.8l.3-.6.2.7-.5-.1z" class="c"/><path d="M517.2 269.6l-1.1-.4 1.1.4zm-124.4-68.8c-.2-.1-.3-.2-.3-.4l.3.4z" class="d"/><path d="M83.5 260.4l-.7.4.7-.4zm-1.1.6l-.7.4.7-.4zm6 13.4l.8-.4-.8.4zm-16.9-8l-.8.4.8-.4zm-1.1.5l-.7.4.7-.4zm-1 .6l-.6.4.6-.4z" class="c"/><path d="M518.5 270l-.7-.3.7.3zm21.2 22.6l.9.4-.9-.4zm-2.6-1.1l.9.4-.9-.4zm-1.5-.6l.7.3-.7-.3zm-1.2-.5l.8.4-.8-.4zm-1.5-.6l.6.3-.6-.3zm-1.2-.5l.8.4-.8-.4zm-2.7-1.1l.8.4-.8-.4z" class="d"/><path d="M87.3 275l.8-.4-.8.4z" class="c"/><path d="M142.4 259.4l1.1-.2c6.1 15.2 27 19.7 38.7 8.4l.4-.2c2.5 2.6 5 5.4 7.7 7.9 1.5 1.2 3.2 2.2 4.9 3l2.4-.5c.6-.9 1.6-1.6 1.8-2.6l5.2-23.6 1.1-.6 9.2 1 1.6.1 7.1.5 3.8.1h6.3l.8 1v3.3c.6 3.2 1.5 6.4 2.5 9.5.4 1 2.3 1.7 3.7 2l20.4 4.3 9.6 1.7.9.2 5.5.7h3.8c2.8.7 3.8-1.1 5-3.2 3.1-5.7 4.7-12.1 4.8-18.6l.1-1.7v-8.1l-2-8.8c-.1-.5-.6-.9-.7-1.4-.8-3.7-1.1-3.9-5.5-3.9l-3.8-.1h-2.2l-4.9.1-7.6.5-1.1.1-21.7 3.5c-.8.3-1.6.7-2.3 1.3-.1.6-.3 1.1-.4 1.7l-1.3 3.4-1.1.4-1.6-.4-1.1-.1-4.9-.5-6.5-.1-9.2-.6-5.4-.5-1.2-.3v-9.5c.4-6.5-.2-8-6.2-10.4-4.1-1.6-8.4-2.6-12.7-3.8-.2-.3-.3-.7-.4-1 4.9-4.4 10.7-7.3 16.5-10.3s11.2-6.5 17-9.9c.5 2.3 1.2 4.6 2 6.8.7 1.6 2.2 2.8 3.3 4.2l.7-.5c1.2-4-.5-7.6-1.5-11.4-.7-2.6-2.8-4.9-2.1-7.9.1-.5-.7-1.4-1.3-1.9-1.8-1.9-3.8-3.6-5.6-5.6-4.7-5.2-2.9-11 3.8-12.9.9-.2 1.8-.4 2.6-.7h3.3l5.6.7.8 3.7c-.9.1-1.8.3-2.7.4-2.3.2-4.7.1-6.9.7s-2.3 2.1-.5 3.6c.8.7 1.7 1.3 2.7 1.8l50.2 24.7a1.38 1.38 0 0 1 .4.3c-1.6-.2-3.2-.4-4.8-.4s-4.1-1.4-4.7 1 2.2 2.8 3.9 3.2c10.9 3.1 21.8 2.4 32.6-.5l24.4-1.8c10.5-1.1 20.3-4.4 29.8-8.8l19.5-9.5c5.7-2.8 11.2-5.9 16.8-8.8l-6.2 10.5c-2.4 1.4-4.9 2.7-7.2 4.3-22.9 15.4-48.1 23.2-75.8 22.8-7.6-.1-15.2.8-22.8 1.3 3.8 3.5 8.2 3.4 12.5 3.2 9.3-.3 18.6-1 27.9-1.6l1.9.6c-6.1 2.1-12.3 3.6-18.5 5.2-1 .4-1.9 1-2.7 1.7.9.5 1.9 1.6 2.8 1.5 5.9-.3 11.7-.6 17.5-1.4 5.3-.8 10.4-2.7 15.7-3.2 8.8-.8 17.7-.8 26.6-1.4 12.9-.8 25.8.2 38.3 3-7.7 6-13 14.7-14.6 24.4-.2 1.2-.8 1.5-2.1 1.3-3.5-.6-7-.9-10.5-1.6-.9-.3-1.6-1-2.1-1.9-1.5-2.9-2.8-5.8-4.2-8.7l-1.7-.5-33.2-2.1c-3.3-.2-6.8-.6-10 .1-2.2.5-3.9 2.8-5.9 4.3l-1.7.3c-5.5-.2-11-.5-16.6-.5-3 0-3.8 1.2-3.7 4.1.2 5.5 1.2 6.7 6.7 6.8l9.5.2c1.6 0 1.9.5 1.9 2a48.32 48.32 0 0 0 .3 7.6c.2 1.8-.4 1.8-1.9 1.8-3.9-.1-7.8 0-11.7.1-2.4.1-3.4 1.6-3.4 4 0 6.6-.1 6.6 6.5 6.8 4.4.1 8.7.2 13.1.5.9.1 1.8.5 2.4 1.3 2 3.5 5.1 4.5 8.7 4.2l36.9-2.5c3-.2 4.5-2.6 5.8-4.8 1.2-2.2 2.1-4.6 2.6-7.1.3-1.4.8-1.8 2.2-1.6l8.4.8c1.6.1 1.6 1 1.7 2.2.3 6.7 2.2 13.2 5.4 19 .9 1.5 2.8 2.5 4.2 3.7h1.6c1.6-.8 3.6-1.1 4.7-2.3 4-4 7.6-8.3 11.4-12.6 1.1-1.2 2-2.5 3-3.8l3.3-.9 23.4.7-.6 4.8c-.1.1-.1.3-.1.5v-.1c-.6.1-1.2.2-1.8.4-6.7 1.8-13.2 5.4-20.6 2.9a1.3 1.3 0 0 0-1.3.5c-.2.5 0 1 .3 1.4 1 .9 2.2 1.5 3.5 2 7.6 1.9 13.8-1 19.4-5.9-1.3 9.4-3.9 18.1-10 25.8-6.8 8.5-15.2 12.3-26 10.5l-9.6-1.6c-.4-.1-.8-.3-1.1-.6-1.3-1.8-3-1.3-4.7-.7-3.4 1.3-6 6.2-5.7 10 .5 6.3 1.2 12.6 1.4 18.9l.7 33.5c.6 13.9-1.3 27.5-2.4 41.3-.5 6.2-.8 12.4 2.3 18.1.6 1.1 1.6 1.9 2.8 2.1a9.39 9.39 0 0 0 8.3-4l5.2-3.5.8-.6.5-.6 4.1 1.1c-.4 1.2-.9 2.4-1.5 3.5-.8 1.1-1.8 2-3 2.7-7.2 3.9-14.1 8.2-21.6 11.3-23.7 9.8-49 13.5-74 18.6-1.8.4-2.7.8-2.3 2.8-9.3 1-18.6 1.4-27.9-.1l-44.1-7.7c-8.8-1.6-17.2-4.9-24.8-9.6-.5-.3-1.1-.6-1.6-1-7.8-5.8-9.5-10.1-2-18.4l1.3-1.2c.7-2.4 1.5-4.7 1.9-7.1s.7-5.1 1-7.7l.1-1.1.4-2.7.1-1.1.5-3.8.1-1.1.5-3.8.1-1.1.5-3.8.1-1.1c.2-1.3.3-2.5.5-3.8l.1-1.6 1.6-13.7.1-1.1.5-4.9.1-1.1c.2-1.8.3-3.6.5-5.4v-1.1c.2-2 .3-4 .5-6l.1-1.1.5-6 .1-2.2.5-7.1.1-2.2.5-6.5.1-3.8.5-8.7v-26.2l-.5-7.1v-2.7l-.8-6.1c-.5-1.1-.9-2.2-1.4-3.4l-.9.1.3 3.3v16.9c0 3.5-.2 7.1 0 10.6.1 2.2-.7 3.1-2.7 3.4-1.3.2-2.5.4-3.8.7h-2.2l-6.5-.5-1.1-.1c-3.6-.9-7.2-1.6-10.8-2.6-7.7-2-14.2-5.8-18.2-13a1.98 1.98 0 0 0-1.1-1.1l-11-3.5-2.4-1.1c-8.8-4.2-12.7-11-13.2-20zm237.6 49l1.7 1.5.7-.4-7.3-18.1c-.3 1.3-.5 2-.7 2.8-.4-.6-.8-1.2-1.3-1.7-.7-.7-1.5-1.3-2.3-1.9-.2 1-.8 2.1-.7 3a30.75 30.75 0 0 0 6.1 14.1c.8 1.2 2.4 1.6 3.7.9 0-.1.1-.2.1-.2zm-144.3-28.3c-1.4 1.1-3.3 1.8-4.1 3.2-4.2 6.7-7.1 14.1-8.5 21.9-.3 2.2-.4 4.5-.2 6.7 0 .6.9 1.1 1.4 1.6.4-.5.8-1.1 1-1.7 1.3-9 4.5-17.3 8.5-25.4.8-2.1 1.5-4.2 1.9-6.4h-.1l.1.1zm43.6 166.4l.2-1.2c-1.2-.6-2.5-1.2-3.9-1.6-4.3-.9-8.5-1.8-12.8-2.4-11.5-1.5-22.7-3.7-33.2-9l-11.4-5.6c-.9-.3-1.8-.4-2.8-.4.2 1 .1 2.1.6 2.9.8 1 1.8 1.8 2.9 2.4 6.3 3 12.6 6.1 19 8.6 9.9 3.9 20.4 5.2 30.8 6.3 3.7.1 7.2.2 10.6 0zm55.3-4v.3l27.9-3.8c2-.4 4-1.3 5.5-2.6 1-1 1.4-2.4 1.2-3.7-.3-.9-1.9-1.9-3.1-2-1.6-.1-3.2.2-4.8.7l-26.5 8.1c-1.4.4-2.8.8-4.1 1.3-.6.3-1 .8-1.5 1.3.5.2 1.1.4 1.7.5 1.3 0 2.5-.1 3.7-.1zM268 222c2 0 4 .1 6 0 .8-.2 1.6-.4 2.4-.8-.8-.4-1.6-.8-2.5-1.2-.3-.1-.5-.1-.8-.1-6.8-1.5-13.8-2.4-20.4-4.6-6.3-2.2-12.1-5.8-18.1-8.7-.8-.2-1.6-.3-2.3-.3 0 .8.2 1.7.6 2.4.7.8 1.5 1.6 2.4 2.2 9.8 7 20.5 11.1 32.7 11.1zm24.9 226.2c2.5-.5 4.6-.9 6.7-1.5.7-.2 1.1-1 1.7-1.5-.6-.3-1.2-.8-1.8-.8-2.3.1-4.6.4-6.9.8-.7.1-1.2 1-1.8 1.6l2.1 1.4zm-50.4-245.3l.5-1c-.8-.7-1.6-1.4-2.5-1.9-2.5-1.3-5-2.4-7.6-3.6-.7-.2-1.4-.4-2.1-.5.4.7.7 1.8 1.4 2.1 3.3 1.7 6.8 3.3 10.3 4.9z" fill="#fcfcfc"/><path d="M305.9 460.4c-.4-1.9.6-2.4 2.3-2.8 24.9-5.1 50.2-8.8 74-18.6 7.5-3.1 14.5-7.4 21.6-11.3 1.2-.7 2.2-1.6 3-2.7.6-1.1 1.2-2.3 1.5-3.5l-4.1-1.1c.4-.7.8-1.4 1.1-2.1.2-.8.4-1.5.5-2.3-.8.1-1.9-.2-2.5.2-2.5 1.7-4.9 3.6-7.2 5.7-1.6 1.6-.9 2.9 1.6 3.2a9.39 9.39 0 0 1-8.3 4c-1.2-.3-2.2-1-2.8-2.1-3.1-5.7-2.8-11.9-2.3-18.1 1.1-13.8 3-27.4 2.4-41.3-.5-11.1-.3-22.3-.7-33.5-.2-6.3-.8-12.6-1.4-18.9-.3-3.8 2.3-8.7 5.7-10 1.6-.6 3.3-1.1 4.7.7.3.3.7.5 1.1.6l9.6 1.6c10.8 1.8 19.2-2 26-10.5 6.1-7.6 8.7-16.4 10-25.8.2-.5.4-.9.6-1.3v.1c0-.1.1-.1.1-.2s0-.2-.1-.3l.6-4.8 11.7 1.6c.5.1 1 .8 1.2 1.4.2.9.4 1.9.5 2.9 0 .1-.1.2-.1.2.1.2.1.3.2.5 0 1.2.1 2.4.2 3.6l-.1 3.4-2.2 14.4c-6.4 18-24.1 28.5-42.3 25.2-4.7-.9-8.9-3.2-12.2-6.6-1.6-1.6-3.4-2.9-5.2-4.3l-2.3-1.1c0 .4.1.8.2 1.2 1.4 5.1 5.2 8.5 9 11.5 1.2.9 1.9 2.3 1.8 3.8.1 25.7.2 51.4 4.4 76.8l2.4 14.2c.3 2.2 1.7 4.1 3.8 4.9 1.3.7 2.2 2.2 3.3 3.3v.7c0 .2-.3.6-.4.9-.1 0-.3.1-.3.3v.1c-.2 0-.3.2-.3.4h-.1l.1.1-3.9 3.9-.1-.1v.1c-.2 0-.3.1-.3.3-.2 0-.3.1-.4.3h-.1v.1l-.5.4-1.3 1h-.2v.2h-.2l-.1.1-.5.4c-11.1 8.4-23.7 13.9-36.9 17.5-11.7 3.2-23.7 5.3-35.7 7.4-9.7 1.8-19.9 2.8-30.1 4.1z" fill="#7c73fa"/><path d="M402.5 220.1c-12.6-2.8-25.5-3.8-38.3-3-8.9.6-17.8.6-26.6 1.4-5.3.5-10.4 2.4-15.7 3.2-5.8.8-11.7 1.1-17.5 1.4-.9.1-1.9-1-2.8-1.5.8-.7 1.7-1.3 2.7-1.7 6.2-1.6 12.4-3.1 18.5-5.2l-1.9-.6c.9-.2 1.8-.5 2.6-.6 13.3-2.8 26.7-5.4 38.8-12.1 7.7-4.2 15-9.1 22.4-13.8 1.1-.7 3-1.5 1.6-3.6l6.2-10.5c.9-.7 1.8-1.5 2.6-2.4.5-.9.9-1.8 1.1-2.8-1 0-2 .2-2.9.5-3.1 1.5-6.1 3.1-9.1 4.8-2 1.1-2.3.2-2-1.6.2-1 .3-2 .5-3 .3-2.2-.3-4.9 3.3-4.9h.5l2-1 1.4-.4.8-.2 2.3-.1 2.2-.5 4.7.2.7.4c2.5 2.5 3.3 5.3 1.5 8.5-1.5 2.8-3.9 5-5.9 7.5l-4.8 3.8.3.5 2.3-.6c-.2.9-.3 1.8-.5 2.6l-4.5 8.4c-.1.3-.2.5-.3.8-2.6 7.6-1.7 7.9 4.9 12.1 2.7 1.7 6.1 2.2 9.2 3.2l1.1.5.5.4 1.6.6 2.7 1.1 9 7.4c.5.5 1 1.1 1.4 1.8l-16.6-1z" fill="#7c73f9"/><path d="M367.9 238.5l.2.6.4 1.1.1.6.4 1.1.2 1.1c0 .3.1.6.2 1l-4.1.6-.8-2-.9 2.1c-1.1 7.2-1.3 14.5 1.2 21.4.7 1.9.3 2.1-1.4 2.2l-32.6 2.4-1.6.3-1.8.3c-.9-.4-1.8-.9-2.6-1.6-6.1-7.5-7.4-23.2-2.6-31.6 2.3-4.1 3.5-4.4 8-4l36.6 2.9.6.4.1.1.4 1z" fill="#7b72f9"/><path d="M425.7 393.9l-8.7 15.2-2.3 2.3-2.5-13.4c.1-.2.2-.5.3-.7 5.2-9.3 7.3-19.6 9.3-29.9.3-1.3-.3-1.4-1.6-1.1-3.6.8-7.2 1.3-10.8 2l-.5-5.9c0-.7.3-1.3.9-1.7l25-11.3c1.5-.5 2.9-.9 4.5-1.2 2-.5 3.2.1 2.9 2.4-.2 2.6-.6 5.2-1.1 7.8-2.6 10.2-6.6 20-11.8 29.1-.5.9-.9 1.8-1.4 2.6l-.2.1v.2l-1.6 2.7-.4.8z" class="h"/><path d="M434.8 233.1l1.3 1 .4.4c3.4 3.6 6 7.4 5.4 12.8-.2 1.8-.7 2.8-2.8 2.6-3.4-.2-6.8 0-10.1 0l7-8.1-.6-.8c-1.4.4-2.8.9-4.2 1.6-7.1 4.6-12.1 11.2-17.1 17.8-3 3.9-5.7 8-8.7 11.8-1.6 1.9-3.4 3.7-5.4 5.3-3.6 3-3.9 2.9-5.8-1.4 4.3-14.7 12.5-28 23.8-38.4 1.8-1.7 1.7-2.9.4-4.8-1.5-2.2-3.8-4.1-3-7.3l10.8 3.4 1.2.7h-.1l5 2.2h-.1l1.1.6.8.5.7.1.1.1-.1-.1z" fill="#7b73f9"/><path d="M415.4 225.7c-.7 3.1 1.5 5.1 3 7.3 1.3 1.9 1.5 3.1-.4 4.8-11.3 10.4-19.5 23.7-23.8 38.4-4.7-9.5-4.7-19.4-2.7-29.5 1.6-7.9 4.4-15.4 10.2-21.2.7-.8 1.8-1.4 2.9-1.5 3.7.3 7.2 1.1 10.8 1.7z" fill="#fafafa"/><path d="M409.4 368.4c3.6-.6 7.2-1.2 10.8-2 1.2-.3 1.8-.2 1.6 1.1-2 10.3-4.1 20.6-9.3 29.9l-.4-.4-2.1-15.8c0-.4-.1-.7-.1-1l-.1-1.6-.1-3.2-.2-3.8-.3-3.2h.2z" fill="#f8f8f8"/><path d="M386.8 249.9c-.4 2-.1 4.8-1.3 5.7s-3.7-.5-5.7-.6c-4.1-.3-8.2-.7-12.4-.7-1.6 0-2.1-.4-2-1.9.1-.6.1-1.3 0-1.9-.3-1.8.6-2.5 2.3-2.4l18.7 1.5.4.3z" fill="#786ff3"/><path d="M309.3 265.2c-2.2 0-4.3-.1-6.5 0-1.7.1-1.9-1-1.6-2.1.2-.7 1.1-1.6 1.7-1.6 4-.1 7.9-.1 11.9.2.8.1 1.4 1.8 2.1 2.8-.7.4-1.4.6-2.1.8-1.9.1-3.7 0-5.5-.1zm-1.6-25.9l6.8.4c.6.1 1.1.5 1.4.9-.4.8-.9 2.2-1.4 2.2-4.4.1-8.9.1-13.3-.2-.5 0-1-1.7-1.4-2.6.4-.5 1-.8 1.6-.9 2.1-.1 4.2.1 6.3.2z" class="l"/><path d="M445.9 246.7l7.1 4.8-.2.7-7-.8c-.3 0-.7-.8-.7-1.2l.3-3.2.5-.3zm-78.8 18.9l-1.1-6.2c0-.3 1.2-1.2 1.7-1.1s1.8 1 1.7 1.4c-.3 2-1 3.9-1.5 5.9h-.8z" class="i"/><path d="M454.6 293.4l2.2-14.4a.76.76 0 0 0 .4.2l-1.4 11.2c-.3 1.1-.7 2.1-1.2 3z" class="m"/><path d="M394.1 182.4l-2.3.6-.3-.5 4.8-3.8.1 2.4-1.1.9-1.2.4z" class="d"/><path d="M214.8 269.6l-.3-3.3.9-.1 1.4 3.4h-2z" class="c"/><path d="M419.7 264.7l-3.3.9.8-2.4 2.5 1.5z" class="d"/><path d="M395.3 181.9l1.1-.9 2.5-1.3.1.1-3.7 4.2c-.1-.7-.1-1.4 0-2.1z" class="i"/><path d="M214.8 281v-4.9 4.9z" class="c"/><path d="M432.3 231.9l-5-2.2 5 2.2z" class="e"/><path d="M217.6 320.3l-.1 3.8.1-3.8z" class="c"/><path d="M395.3 181.9l-.1 2.1-1.5 1.1.5-2.6 1.1-.6z" class="f"/><path d="M414.8 411.5l1.8-1.8-1 3.5-.5-.1-.3-1.6z" class="e"/><path d="M214.9 286.5v-3.3c-.1 1.1-.1 2.2 0 3.3z" class="c"/><path d="M363.5 244.5l.9-2.1.8 2-1.7.1z" class="d"/><path d="M217.6 275.6v2.7-2.7z" class="c"/><path d="M408.8 212.3l-2.7-1.1 2.7 1.1z" class="d"/><path d="M395.2 162.1l-2.2.5 2.2-.5zm-189.1 139z" class="c"/><path d="M392.7 307.8c0-.4-.1-.8-.2-1.2l2.3 1.1-2.1.1z" class="d"/><path d="M217.1 330.6l-.1 2.2.1-2.2zm-.6 9.3l-.1 2.2.1-2.2zM155 279.3l2.4 1.1-2.4-1.1z" class="c"/><path d="M409.2 368.4l.3 3.2-.3.5v-3.7z" class="d"/><path d="M409.2 372.1l.3-.5.2 3.8c-.1.1-.3.1-.4 0l-.1-3.3z" class="h"/><path d="M388.5 163.2l-2 1 2-1zM212.7 382.4l-.1 1.6.1-1.6z" class="c"/><path d="M409.4 375.4c.1.1.3.1.4 0l.1 3.2-.5-3.2zm-92.7-139.7l1.7-.3-1.7.3zm80.7 48.6zm59.8-5.1c-.2-.1-.3-.1-.4-.2l.1-3.4.3 3.6zm-89.8-46.1l1.7.5-1.7-.5z" class="d"/><path d="M215.4 355.2v1.1-1.1zm-8.5 67.2l-1.3 1.2 1.3-1.2zm11.2-137v1.1-1.1zm-8.1 121l-.1 1.1.1-1.1zm-11.5-105.8l1.1.1-1.1-.1zm12 102l-.1 1.1.1-1.1zm.6-4.9l-.1 1.1.1-1.1zm7-87.2v1.1-1.1zm-6.5 82.3l-.1 1.1.1-1.1zm4.4-44.7l-.1 1.1.1-1.1zm-3.8 39.8l-.1 1.1.1-1.1zm2.7-26.2l-.1 1.1.1-1.1z" class="c"/><path d="M420.6 222.5c-.1.1-.1.3-.2.5-.2-.1-.4-.1-.4-.2a.76.76 0 0 1 .2-.4l.4.1z" class="d"/><path d="M214.3 367.7l-.1 1.1.1-1.1z" class="c"/><path d="M327.4 271.1l1.8-.3-1.8.3zm82.5 109.1c0 .4.1.7.1 1l-.1-1z" class="d"/><path d="M427.4 229.8l-1.2-.7 1.2.7zm5.9 2.7l-1.1-.6 1.1.6z" class="e"/><path d="M403.9 210.1l-1.1-.5 1.1.5z" class="d"/><path d="M390.7 162.7l-.8.2.8-.2z" class="c"/><path d="M367.9 238.5l-.5-1.1.5 1.1zm44.2 158.6l.4.4c-.1.2-.2.5-.3.7 0-.4 0-.8-.1-1.1zm-43.6-157l-.4-1.1.4 1.1zm48.9 183.1v-.7.7zM369 241.8l-.4-1.1.4 1.1zm.4 2.1c-.1-.3-.1-.6-.2-1l.2 1z" class="d"/><path d="M416.4 409.8l.6-.6-.6.6z" class="e"/><g class="d"><path d="M416.7 424.4c0-.1.1-.3.2-.3h.1l-.3.3zm-.3.5l-.1-.1h.1zm-4 3.9v-.1h.1zm-.7.6c0-.2.2-.3.3-.3 0 .1-.1.2-.3.3z"/><path d="M411.1 429.9l.5-.4-.5.4zm-22.3-235.6l.3-.8-.3.8zM409.6 431v-.2l.2.1zm-.7.5l.5-.4-.5.4zm-10.1-251.8l.3-.3-.3.3zm26.9 214.2l.4-.7-.4.7zm2.1-3.4v-.2l.2-.1c-.1.2-.2.2-.2.3zm-41-140.6l-.5-.4.5.4zm59.1-3.2l-.4.3.4-.3zm10.8 25.3c-.1-.1-.2-.3-.2-.5 0-.1 0-.2.1-.2 0 .2 0 .5.1.7zm-56.1-109.4l-.7-.4.7.4z"/></g><path d="M434.1 233l-.8-.5.8.5z" class="e"/><path d="M434.8 233.1v.1l-.1-.1zm1.8 1.4l-.4-.4.4.4zm-69.2 2.8l-.6-.4.6.4zm68.1 3.7l.6.8c-.2-.3-.4-.5-.6-.8zm-31.1-30.4l-.5-.4.5.4z" class="d"/><path d="M158.8 239.2l-11.5.9-.3-1.1c.3-.4.5-.8.7-1.2 4.9-13.1 15.9-17.9 28.4-19.7 8.5-1.2 16.7 1.4 24.2 5.4.8.4 1.4 2 1.4 3.1.4 13.2-1 26.3-4.1 39.1-.5 2.1-1.1 4.2-1.6 6.3s-1.4 2-2.7.7a117.88 117.88 0 0 1-5-5l-19.7-21.8v-.2h-.2v-.2l-.2-.1-.3-.4h-.2l-1-1-8-11.5c-.5-1.2-1-1.1-1.5 0l1.5 6 .1.7z" fill="#fafafa"/><path d="M248.4 235.9l22.5-1.8c2-.1 4.1.1 6.2.1l-1.9 5.6c-3 9.6-3.7 19.4-.9 29.2.4 1.5.7 2.1-1.4 1.8l-31.8-5.7c-.8-.4-1.5-1.1-1.7-1.9-2.2-7.4-.4-14.5 1.9-21.6.1-.2.2-.3.2-.5.4-3.6 2.5-5.1 6.1-4.9l.8-.3z" fill="#7a72f9"/><path d="M164.8 252.7l3.2-.6 1.1-.2 10.3 11.2c1.6 1.6 1.3 2.4-.7 3.1-.3.1-.5.2-.7.4-12.3 6.8-27 1.9-33.4-11.5l18.6-2.4h1.6z" fill="#f8f8f8"/><path d="M205.4 244c0-.5.1-.9.1-1.4l10.4.5 17.6 1c.7 0 1.9 1 1.8 1.3-.4 1.3.5 3.6-2.2 3.5l-16.8-.3c-3.6-.1-7.2-.1-10.8-.1l-.1-4.5z" class="i"/><path d="M280.9 261.4l-2.1.2c-.5 0-.9-.4-1.4-.7.3-.6.5-1.5.9-1.6 1.4-.5 3-.8 4.5-.9.8 0 2.2.8 2.3 1.4.3 1.6-.8 1.9-2.2 1.6h-2zm3.1-18.2l2.2 2.3c-.8.5-1.6.9-2.4 1.2-1.3.3-2.7.5-4 .6-.4 0-.8-.1-1.2-.2.1-.4.1-1.1.3-1.2 1.5-1 3.1-1.7 5.1-2.7z" class="e"/><g class="c"><path d="M221.9 239.6l6.5.1-6.5-.1zm49.6-9.8l4.9-.1-4.9.1zm7.1-.1l3.8.1-3.8-.1zm-51.2 23l-3.8-.1 3.8.1zm53.4 22.9H277h3.8zm-55.1-112.3zM205.4 244l.1 4.4h-.9l.8-4.4zm29.1 13v-2.2 2.2zm-36.9 20.8l-2.4.5 2.4-.5zm93.1-25.7l-.1 1.7.1-1.7zm-74.2.1l-1.6-.1 1.6.1zm-10.4-23.5zm6.5 10.3l1.6.1-1.6-.1zm-65.6 0l.3 1.1-1 .1.7-1.2zm91.4-2.2c.1-.6.3-1.1.4-1.7-.2.6-.3 1.2-.4 1.7zm52.2 7.2v1.1-1.1zm-54.5-3.4l1.1-.4-1.1.4zm-2.8-.5l1.1.1-1.1-.1zM169.1 252l-1.1.2.5-.9.6.7zm65.4 1.8l-.8-1 .8 1zm-75.7-14.6l.3-.8.6.7-.9.1zm47.3-1l1.2.3-1.2-.3zm-.5 12.9l-1.1.6.2-1 .9.4zm-48.1-18.7c.5-1.2 1-1.3 1.5 0h-1.5zm105.3-2.1l1.1-.1-1.1.1zm-75.9-16.9c.1.3.3.7.4 1l-1.1-.4.7-.6zm-22.1 39.3l-1.6.1 1.6-.1zm61.6-49.1l-.7.5.7-.5zm-57.9 42.3h.2v.2c-.1-.1-.2-.1-.2-.2zm14.1 21.5l-.4.2c.1-.2.3-.2.4-.2zm65.8-31.5l-.8.2.8-.2zm-42.8 6.7z"/><path d="M166.9 244l.5.5-.5-.5zm1.1 1.2l.3.4c-.2-.1-.3-.2-.3-.4zm-.5-.6l.4.4-.4-.4zm104 30.3l-.9-.2.9.2z"/></g><path d="M368.6 112.2c-2.6 2.6-3.8 6.3-3.4 9.9.4 4 2.8 6.8 6.7 7.5 1.7.3 1.8.9 1 2.1-1.3 1.8-2.8 3.4-4 5.2-.7 1.2-1.2 2.4-1.6 3.7l3.8.1c.4 0 .7-.1 1.1-.1 0 .8-.1 1.6-.2 2.4-2.9 11.9-9 22.3-15.2 32.7-.8 1.3-2 2.4-3.3 3.1-11.5 6.1-23.2 11.7-36 14.6l-18.2 4.3c-11.8 2-22.3-2.1-32.6-7.2l-28.4-14.3c-1.4-.5-2.2-1.9-2-3.4l2-32c.1-2.2 0-4.5 0-6.8.1-.1.2-.2.4-.2 1.3 1.1 2.6 3.2 3.8 3.2 1.8-.3 3.4-1.4 4.3-3 2.2-4.4 2.1-9.6-.4-13.8-.6-1.1-1.6-2.4-2.6-2.6-2.9-.6-2.5-2.2-1.8-4.1 3.6-10.8 7.7-21.5 15.3-30.2 8.9-10.2 20.5-16.6 33.4-20.5 2.9 0 5.7-.2 8.6-.1 7.1.3 14.3.4 21.4 1.1 12.5 1.2 23.4 6.3 31.9 15.8 5.1 5.8 9 12.6 11.5 19.9 1.2 4.1 2.9 8.4 4.5 12.7zM266.9 156l1.3-1.4c4.6-4.8 4.2-7.9-1.6-10.6-.6-.9-1.2-2.4-2.2-.3-.4-.1-.8-.3-1.2-.5-4.8-3.1-10.8-4-16.3-2.2-2.7.8-5.1 2.3-5.4 5.4-.4 3.1 1.4 6.1 4.4 7.2 2.9 1.1 5.8 1.9 8.8 2.6 4 1 8.2 1.6 12.2-.2zm78.9-31.5c1.2-1.7 2.5-3.4 3.8-5.2-2.7.2-7 3.6-7.6 5.7 0 .6 0 1.2.2 1.7.6-.1 1.2-.4 1.8-.6.7-.5 1.3-1 1.8-1.6l.3 2.7c1.1-.3 2.1-.7 3.1-1.2 1-.7 2-1.4 2.9-2.2l-.3-.6c-1.2.3-2.3.7-3.5 1l-2.5.3zm-28.9-32.7l.5.6.4-.6c1.8-2.9 3.7-5.6 5.7-8.3 6.4-7.5 16.1-7.2 22.2.5 1.4 1.8 2.8 3.6 4.6 5.7-1.2-8.1-5.1-13.2-10.9-14.9-12.6-3.6-21.6 6.3-22.5 17zm40.7 52.5c2-3.4 1.2-5.7-2.4-6.2-7-.9-13.1 1-17.8 6.4-3.3 3.8-2 9 2.3 10.3 8.8 2.6 21.8-4.7 24.1-13.6.2-.9-.2-2-.3-3.3l-4.3 6.8-1.6-.4zm-73.5 22.5c-2.6-9.3 3.3-23.1 11.8-27.5a7.25 7.25 0 0 1 4.1-.6c3.1.7 6.1 1.8 9.1 2.6.7.1 1.3.1 2 0-.2-.8-.5-1.5-.9-2.1-3.8-4-12.9-5.4-17.8-2.8-4.1 2.2-7.4 5.7-9.4 9.9-4.4 9-5.7 18.2-.2 27.3.6 1 2 2.3 3 2.3s2-1.5 2.7-2.5c1.4-1.8 2.6-3.8 3.9-5.6l5 22.8c.9 3.8 2.5 4.3 5.6 2 6-4.3 10.6-10 15-15.8l1.3-1.1c.5-.4 1.3-.7 1.5-1.2 1-2.6 2-5.2 2.8-7.9 2.3-7.4 2.6-14.8-.2-22.1-.7-1.8-.3-2.7 1.7-2.3 1.3.2 2.6.7 4 .9.7 0 1.4-.1 2-.3-.1-.7-.3-1.3-.5-1.9-2.2-3.1-5.5-4-9.1-3.7-1.2.1-2.4.9-3.6 1.3l1.3 3-30.3 20.1c-1.8 1.2-3.2 3.4-4.8 5.2zM255 102.9c.5-.5.7-.6.7-.7l5-11.9c3-6.8 9.7-9.6 16.6-7.1 3.9 1.4 7.1 4.1 9.2 7.7.4.5.8.9 1.3 1.2.2-.6.7-1.1.6-1.6-.1-1.3-.3-2.7-.8-3.9-2.5-5.6-12-11.7-20.3-8.4S255 88.6 254.6 99.3c0 1.2.2 2.4.4 3.6zm13.3 26.1c-.1 4 2 6.6 5.3 6.5 3.5 0 6.6-3.6 6.6-7.7 0-3.7-2.7-6.8-6-6.8-3.6 0-5.8 3-5.9 8zm68.5-2.2c0-4.1-2.7-7.6-5.9-7.5-3.4.1-5.5 3-5.6 7.7-.1 4 2.2 6.6 5.9 6.6 3.2 0 5.6-2.9 5.6-6.8zm-80.3-4.2l-.6 1c1.3 1 2.5 2.2 3.8 3.1.4.3 1.2 0 1.8 0-.1-.6 0-1.7-.4-1.9-1.5-.9-3-1.6-4.6-2.2zm4.2-3.6c-.2 3.1.9 4.6 2.8 5.6.3.2.9-.1 1.4-.1 0-.4-.2-.8-.4-1.2-1-1.3-2.2-2.5-3.8-4.3z" class="n"/><path d="M299.2 197.5l18.2-4.3c12.8-2.9 24.5-8.4 36-14.6 1.4-.7 2.5-1.8 3.3-3.1 6.2-10.4 12.3-20.8 15.2-32.7.1-.8.2-1.6.2-2.4 3.3-2.1 7.2-3.4 9-7.4l.8.2c-.5 6.8-.9 13.7-1.7 20.4-.8 7.1-2 14.2-3.1 21.3-.1 1-.7 2-1.5 2.6-14.2 6.9-28.1 14.8-43.9 17.3-10.6 1.9-21.6 2-32.5 2.7z" class="h"/><path d="M368.6 112.2l-4.8-13a56.06 56.06 0 0 0-11.5-19.9c-8.5-9.4-19.3-14.5-31.9-15.8-7.1-.7-14.3-.8-21.4-1.1-2.9-.1-5.7.1-8.6.1 3.5-.7 7.1-1.7 10.6-2 14.4-1 28.9-.8 41.9 6.3 16.5 8.6 28.8 23.5 34.2 41.3.6 1.8.3 2.2-1.7 2.3-2.2.2-4.5 1.2-6.8 1.8zm-66.5 90.4c-10.8 2.9-21.7 3.7-32.6.5-1.7-.5-4.4-.7-3.9-3.2s3-1 4.7-1c1.6 0 3.2.2 4.8.4 8.7 3.5 17.8 3.3 27 3.3z" class="m"/><path d="M244.5 127.5l-1.1 5c-.1.3-.6.5-1 .7-.2-.3-.4-.6-.5-.9-.1-.6-.2-1.2-.2-1.9-.1-2.3-1.2-3.2-3.4-2.3s-2.5-.1-2.2-1.8c.5-3 1-6.1 4.5-7 .8-.1 1.6.3 2.1.9.9 2.5 1.3 5 1.8 7.3z" class="l"/><path d="M375.6 116.3c4.6 1.9 5.2 3.4 3.6 8.1-.3 1.2-.4 2.4-.1 3.6.6 3.7-2.1 7.6-5.7 7.6 1.9-2.8 3.8-5.6 2.2-9.2v-10.1z" class="i"/><path d="M375.6 116.3v10.2c-4.5-2.5-5.7-5.7-3.3-9.1.8-1.2 1.7-2.2 3.3-1.1z" class="o"/><path d="M238.2 133.9l-.3-.8c.2 0 .4-.1.4-.1.1.2.2.4.3.7a.76.76 0 0 0-.4.2z" class="n"/><path d="M386.3 184.1c1.4 2-.5 2.9-1.6 3.6-7.4 4.7-14.8 9.6-22.4 13.8-12.1 6.7-25.5 9.2-38.8 12.1l-2.6.6-27.9 1.6c-4.2.1-8.7.2-12.5-3.2 7.6-.4 15.2-1.4 22.8-1.3 27.7.4 52.9-7.4 75.8-22.8 2.3-1.7 4.8-3 7.2-4.4z" fill="#0b0b0e"/><path d="M279.3 446.5c-3.5.2-6.9.1-10.4-.1-10.5-1.1-21-2.4-30.8-6.3-6.5-2.6-12.7-5.7-19-8.6-1.1-.6-2.1-1.4-2.9-2.4-.5-.7-.4-1.9-.6-2.9.9 0 1.9.1 2.8.4 3.8 1.8 7.6 3.7 11.4 5.6 10.5 5.3 21.7 7.4 33.2 9 4.3.6 8.6 1.5 12.8 2.4 1.3.4 2.6.9 3.9 1.6l-.4 1.3z" fill="#0d0d0d"/><path d="M334.6 442.5h-3.5c-.6-.1-1.1-.3-1.7-.5.4-.5.9-1 1.5-1.3 1.3-.5 2.7-.9 4.1-1.3l26.5-8.1c1.5-.5 3.2-.8 4.8-.7 1.1.1 2.8 1.1 3.1 2 .2 1.4-.2 2.7-1.2 3.7-1.6 1.3-3.5 2.2-5.5 2.6l-27.9 3.8-.2-.2z" fill="#8077fd"/><path d="M268 222c-12.2 0-22.9-4.1-32.7-11.1-.9-.6-1.7-1.3-2.4-2.2-.3-.8-.5-1.6-.6-2.4.8 0 1.6 0 2.3.3 6 2.9 11.8 6.5 18.1 8.7 6.5 2.2 13.6 3.1 20.4 4.6.3 0 .5 0 .8.1.8.4 1.6.8 2.5 1.2-.8.4-1.6.7-2.4.8-2 .1-4 0-6 0zm-32.3 58c-.5 2.2-1.1 4.3-1.9 6.4-4 8.1-7.2 16.4-8.5 25.4-.2.6-.6 1.2-1 1.7-.5-.5-1.4-1-1.4-1.6-.2-2.2-.2-4.5.2-6.7 1.4-7.8 4.3-15.2 8.5-21.9.9-1.4 2.7-2.2 4.1-3.2v-.1zm206.9-9.4l-.6 1.3c-5.6 4.9-11.8 7.8-19.4 5.9-1.3-.5-2.4-1.1-3.5-2-.3-.4-.5-.9-.3-1.4a1.3 1.3 0 0 1 1.3-.5c7.4 2.4 13.8-1.1 20.6-2.9.7-.2 1.3-.3 1.9-.4z" class="g"/><path d="M380 308.4c-1.2.9-2.9.6-3.7-.6 0-.1-.1-.1-.1-.2-3.2-4.1-5.3-9-6-14.1-.2-.9.4-2 .7-3 .8.6 1.6 1.2 2.3 1.9.5.5.9 1.1 1.3 1.7l5.5 14.3z" class="h"/><path d="M397.9 425.3c-2.5-.3-3.2-1.6-1.6-3.2a50.13 50.13 0 0 1 7.2-5.7c.6-.4 1.6-.2 2.5-.2-.1.8-.3 1.6-.5 2.3-.3.7-.7 1.4-1.1 2.1-.2.2-.4.4-.5.6l-.8.6-5.2 3.5z" fill="#0b0b0e"/><path d="M380 308.4l-5.6-14.3.7-2.8 7.3 18.1-.7.4-1.7-1.4zm-87.1 139.8l-2.1-1.3c.6-.6 1.2-1.5 1.8-1.6 2.3-.4 4.6-.7 6.9-.8.6 0 1.2.5 1.8.8-.6.5-1 1.3-1.7 1.5l-6.7 1.4z" class="j"/><path d="M242.5 202.9c-3.5-1.6-7-3.2-10.3-5-.7-.3-.9-1.4-1.4-2.1.7.1 1.4.3 2.1.5 2.5 1.1 5.1 2.3 7.6 3.6a23.48 23.48 0 0 1 2.5 1.9l-.5 1.1z" class="f"/><path d="M403.8 421.1c.2-.2.4-.4.5-.6-.1.2-.3.4-.5.6zm-.7.7l.8-.6-.8.6z" fill="#7c73fa"/><path d="M442.6 270.2c0 .1 0 .2.1.3 0 .1-.1.1-.1.2a.45.45 0 0 1 0-.5zm-206.9 9.9l-.1-.1h.1v.1z" class="g"/><path d="M319.3 141.4l-1.3-3c1.2-.5 2.4-1.3 3.6-1.3 3.6-.2 6.9.6 9.1 3.7.3.6.5 1.3.5 1.9-.6.2-1.3.3-2 .3-1.3-.2-2.6-.7-4-.9-2-.4-2.4.5-1.7 2.3 2.8 7.3 2.5 14.7.2 22.1-.8 2.7-1.8 5.3-2.8 7.9-.2.5-1 .8-1.5 1.2l.4-4.8c2-5.7 3.2-11.5 2-17.6-2.2 12.2-9.5 21.4-17.3 30.4-1 1.1-2.6 1.7-4 2.6-.4.2-1.2.5-1.2.5.3 1.2.7 2.4 1 3.6.6-.2 1.1-.5 1.6-.8l14.1-12.8 2-.2c-4.4 5.9-9 11.5-15 15.8-3.1 2.2-4.7 1.7-5.6-2-1.8-7.5-3.3-15-5-22.8-1.3 1.9-2.5 3.8-3.9 5.6-.8 1-1.8 2.5-2.7 2.5s-2.3-1.3-3-2.3c-5.6-9.1-4.2-18.2.2-27.3 2-4.2 5.3-7.7 9.4-9.9 4.9-2.6 14-1.2 17.8 2.8.4.7.7 1.4.9 2.1-.7.1-1.3.1-2 0-3-.8-6-1.9-9.1-2.6-1.4-.3-2.9-.1-4.1.6-8.5 4.4-14.4 18.2-11.8 27.5l1.3 4c5.9-8.7 13.7-13.9 22.4-18 2.5-1.2 4.7-2.7 6.6-4.6 2-1.7 3.3-4.2 4.9-6.5zm-22.9 23.7h-.5v2.7h.5v-2.7z" fill="#080808"/><path d="M359.2 144.7l4.3-6.8c.1 1.4.5 2.4.3 3.3-2.3 8.9-15.3 16.2-24.1 13.6-4.3-1.3-5.6-6.5-2.3-10.3 4.7-5.4 10.8-7.4 17.8-6.4 3.6.5 4.4 2.8 2.4 6.2l-.6.7-2.4 1.8c-4.5 3.2-9.2 5.4-15 4.8l-1.5-.2 1.4 1.2c.3.2.6.3.9.4 7.1 1.4 12.5-1.6 17.2-6.5l1.6-1.8zm-14.8 3.5c4.5-.3 8-1.6 10.4-4.9.5-.7.7-1.6.5-2.4-.1-.4-1.5-.8-2.1-.5-3.2 1.3-6.4 2.7-9.5 4.3-.8.4-1.2 1.8-1.8 2.7l2.5.8z" class="j"/><path d="M255 102.9c-.2-1.2-.3-2.4-.4-3.6.4-10.7 4.3-17.8 12.7-21.2s17.8 2.8 20.3 8.4c.5 1.3.7 2.6.8 3.9.1.5-.4 1.1-.6 1.6-.5-.4-.9-.8-1.3-1.2-2.1-3.6-5.3-6.3-9.2-7.7-6.9-2.5-13.7.3-16.6 7.1l-5 11.9c-.1.2-.2.3-.7.8zm61.9-11.1c.8-10.6 9.9-20.5 22.5-16.9 5.8 1.7 9.8 6.8 10.9 14.9l-4.6-5.7c-6.2-7.7-15.9-7.9-22.2-.5-2.1 2.7-4 5.4-5.7 8.3l-.9-.1z" class="g"/><path d="M254.6 156.1c-3-.7-5.9-1.5-8.8-2.6s-4.8-4-4.4-7.2c.3-3.1 2.7-4.7 5.4-5.4 5.5-1.7 11.5-.9 16.3 2.2.4.2.8.3 1.2.5l2.7 5.5v.3l-1 1.8-1.1-.6-.6-2.2v-.5c-1-1.2-1.9-2.9-3.2-3.6-5.2-2.6-10.2-1.5-15 1.2-2.6 1.4-2.7 3.1.1 4.2 3.9 1.6 8 2.8 12.1 3.6 1.7.4 3.6-.6 5.4-1l.1 2.5-5.4.7-3.8.6z" class="k"/><path d="M319.3 141.4c-1.6 2.3-2.9 4.9-4.9 6.8-1.9 1.9-4.2 3.5-6.6 4.6-8.7 4.1-16.5 9.3-22.4 18-.5-1.6-1-2.8-1.3-4 1.6-1.8 3-3.9 5-5.3 9.9-6.8 20.1-13.4 30.2-20.1z" class="m"/><path d="M268.3 129.1c.1-5 2.3-8 5.9-8 3.3.1 6 3.1 6 6.8 0 4.1-3.1 7.7-6.6 7.7-3.3 0-5.4-2.5-5.3-6.5zm68.5-2.3c0 3.9-2.4 6.8-5.6 6.8-3.7-.1-6-2.6-5.9-6.6.1-4.7 2.2-7.6 5.6-7.7 3.3-.1 5.9 3.4 5.9 7.5z" class="c"/><path d="M265 150.7l1.1.6-.9 2.2c2-.2 3.5-.7 3.7-2.9v.1c1.8.4 1.6-1 1.2-1.7-.9-1.2-1.9-2.4-3-3.5-.3-.3-.2-.9-.3-1.4 5.8 2.8 6.2 5.9 1.6 10.6l-1.1-.4-3.3.7-.1-2.5 1.1-1.8z" class="f"/><path d="M266.6 144c.1.5.1 1.1.3 1.4 1.1 1.1 2.1 2.3 3 3.5.5.7.6 2.1-1.2 1.7l-.5-.2v.2l.5-.1c-.2 2.2-1.7 2.7-3.7 2.9l.9-2.2 1-1.8h.5l-.5-.4-2.7-5.5c1.3-1.9 1.8-.5 2.4.5z" class="e"/><path d="M345.8 124.5c-.5.6-1.1 1.1-1.8 1.6-.6.3-1.2.5-1.8.6a3.21 3.21 0 0 1-.2-1.7c.6-2.2 4.9-5.5 7.6-5.7l-3.8 5.2z" class="k"/><path d="M256.5 122.6c1.6.6 3.1 1.3 4.6 2.1.4.2.3 1.2.4 1.9-.6 0-1.4.3-1.8 0-1.3-.9-2.6-2-3.8-3.1l.6-.9z" class="j"/><path d="M345.8 124.5a10.68 10.68 0 0 0 2.5-.3l3.5-1 .3.6c-.9.8-1.9 1.5-2.9 2.2-1 .5-2.1.9-3.2 1.2l-.2-2.7z" class="f"/><path d="M260.7 119l3.8 4.3c.2.4.3.8.4 1.2-.5.1-1.1.3-1.4.1-1.8-1-3-2.5-2.8-5.6z" class="j"/><path d="M254.6 156.1l3.8-.5 8-.1.4.5c-3.9 1.8-8.1 1.2-12.2.1z" class="p"/><path d="M318.2 176.7l-2 .2 3.7-6-.4 4.8-1.3 1z" class="f"/><path d="M357 144.9l.6-.7 1.6.4-1.5 1.7-.7-1.4z" class="e"/><path d="M267.2 154.2l1.1.4-1.3 1.4-.4-.5.6-1.3z" class="p"/><path d="M316.9 91.8h.9l-.4.6-.5-.6z" class="f"/><path d="M319.9 170.9l-3.7 6-14.1 12.8c-.5.3-1 .6-1.6.8l-1-3.6c0-.1.8-.3 1.2-.5 1.3-.8 3-1.4 4-2.6 7.7-9 15.1-18.2 17.3-30.4 1.1 6-.2 11.8-2.1 17.5z" class="l"/><path d="M296.4 165.1v2.8h-.5v-2.7l.5-.1z" class="f"/><path d="M344.4 148.1l-2.5-.9c.6-.9.9-2.3 1.8-2.7 3.1-1.6 6.3-3 9.5-4.3.6-.2 2 .2 2.1.5.2.8 0 1.7-.5 2.4-2.4 3.5-5.9 4.7-10.4 5z" class="o"/><path d="M357 144.9c.2.5.5 1 .7 1.4-4.7 5-10.1 7.9-17.2 6.5-.3-.1-.6-.3-.9-.4l.1-1c5.7.7 10.5-1.6 15-4.8l2.3-1.7z" class="n"/><path d="M339.7 151.5l-.1 1-1.3-1.2 1.4.2z" class="e"/><path d="M265 150.7l-1.2 1.8c-1.8.4-3.7 1.3-5.4 1-4.1-.8-8.2-2-12.1-3.6-2.7-1.1-2.7-2.8-.1-4.2 4.8-2.6 9.9-3.8 15-1.2 1.3.7 2.1 2.4 3.2 3.6-.1-.1-.3-.2-.4-.1-4.3-.9-8.6-.9-12.7 1.2l-.9.3c.1.1.1.2.2.2.3-.1.6-.2.8-.3l11.9-.8 1 .1c.3.5.5 1.3.7 2z" class="o"/><path d="M267.2 154.2l-.7 1.2-8 .1 5.4-.7 3.3-.6z" class="e"/><path d="M264.4 148.5l-1-.1.6-.6c.2-.1.3 0 .4.1.1.3.1.5 0 .6zm2.7.7l.5.4h-.5v-.4zm1.8 1.3l-.5.1v-.2l.5.1z" class="f"/><g class="p"><path d="M264 147.9l-.6.6-11.9.8-.1-.2c4-2.2 8.3-2.1 12.6-1.2z"/><path d="M251.5 149.2l-.8.3-.2-.2.9-.3.1.2z"/></g></svg>