<?xml version="1.0" encoding="utf-8"?>
<!-- Generator: Adobe Illustrator 22.1.0, SVG Export Plug-In . SVG Version: 6.00 Build 0)  -->
<svg version="1.1" id="Layer_1" xmlns="http://www.w3.org/2000/svg" xmlns:xlink="http://www.w3.org/1999/xlink" x="0px" y="0px"
	 viewBox="0 0 24 24" style="enable-background:new 0 0 24 24;" xml:space="preserve">
<style type="text/css">
	.st0{stroke:#000000;stroke-miterlimit:10;}
	.st1{stroke:#000000;stroke-width:0.5808;stroke-miterlimit:10;}
</style>
<title>Asset 5</title>
<g id="Layer_1-2">
	<path class="st0" d="M14.5,2.5l-1.4,1.4c-0.2,0.2-0.2,0.6,0,0.8l0.6,0.6c0.2,0.2,0.6,0.2,0.8,0l1.4-1.4c0.2-0.2,0.2-0.6,0-0.8
		l-0.6-0.6C15.1,2.3,14.7,2.3,14.5,2.5z M3.8,13.3l-1.4,1.4c-0.2,0.2-0.2,0.6,0,0.8L3,16.1c0.2,0.2,0.6,0.2,0.8,0l1.4-1.4
		c0.2-0.2,0.2-0.6,0-0.8l-0.6-0.6C4.4,13.1,4,13.1,3.8,13.3z M3,2.5L2.4,3.1c-0.2,0.2-0.2,0.6,0,0.8l1.4,1.4c0.2,0.2,0.6,0.2,0.8,0
		l0.6-0.6c0.2-0.2,0.2-0.6,0-0.8L3.8,2.5C3.6,2.3,3.2,2.3,3,2.5z M0.5,8.7v0.9c0,0.3,0.3,0.6,0.6,0.6h2c0.3,0,0.6-0.3,0.6-0.6V8.7
		c0-0.3-0.3-0.6-0.6-0.6H1C0.7,8.1,0.5,8.3,0.5,8.7z M8.3,1.2v2c0,0.3,0.3,0.6,0.6,0.6h0.9c0.3,0,0.6-0.3,0.6-0.6v-2
		c0-0.3-0.3-0.6-0.6-0.6H8.9C8.6,0.6,8.3,0.9,8.3,1.2z M8.7,6.9L7,8.6C6.8,8.8,6.8,9.2,7,9.4L20.6,23c0.2,0.2,0.6,0.2,0.8,0l1.7-1.7
		c0.2-0.2,0.2-0.6,0-0.8L9.5,6.9C9.3,6.7,8.9,6.7,8.7,6.9z M10.8,12.2l-3-3C7.6,9,7.6,8.6,7.8,8.4l0.7-0.7c0.2-0.2,0.6-0.2,0.8,0
		l2.9,3c0.2,0.2,0.2,0.6,0,0.8l-0.6,0.7C11.4,12.4,11,12.4,10.8,12.2z"/>
</g>
<polygon class="st1" points="11.6,13.1 7.4,8.8 9,7.2 12.9,11.2 "/>
</svg>
